<?xml version="1.0" encoding="utf-8"?>
<!-- Generator: Adobe Illustrator 23.0.2, SVG Export Plug-In . SVG Version: 6.00 Build 0)  -->
<svg version="1.1" id="Capa_1" xmlns="http://www.w3.org/2000/svg" xmlns:xlink="http://www.w3.org/1999/xlink" x="0px" y="0px"
	 viewBox="0 0 162 119.5" style="enable-background:new 0 0 162 119.5;" xml:space="preserve">
<style type="text/css">
	.st0{fill:#FFFFFF;}
	.st1{enable-background:new    ;}
	.st2{fill:#5469AC;}
</style>
<title>Recurso 40</title>
<g>
	<g id="Capa_1-2">
		<g>
			<rect class="st0" width="162" height="119.5"/>
		</g>
		<g class="st1">
			<path class="st2" d="M5.6,16.7c0-2.5,1.9-4.4,4.4-4.4c2.3,0,3.7,1.4,4.1,2.7l-1.6,0.4c-0.3-0.8-1.2-1.6-2.4-1.6
				c-1.7,0-2.7,1.3-2.7,2.8s1.1,2.8,2.7,2.8c1.3,0,2.2-0.7,2.4-1.6l1.6,0.4c-0.4,1.3-1.8,2.7-4,2.7C7.5,21.1,5.6,19.2,5.6,16.7z"/>
		</g>
		<g class="st1">
			<path class="st2" d="M14.8,17.9c0-1.8,1.4-3.2,3.3-3.2c1.9,0,3.2,1.4,3.2,3.2c0,1.8-1.4,3.2-3.2,3.2
				C16.2,21.1,14.8,19.7,14.8,17.9z M19.8,17.9c0-1-0.7-1.8-1.7-1.8c-1,0-1.7,0.8-1.7,1.8c0,1,0.7,1.8,1.7,1.8
				C19.1,19.6,19.8,18.9,19.8,17.9z"/>
			<path class="st2" d="M32.1,17.3v3.6h-1.6v-3.3c0-0.9-0.3-1.5-1.2-1.5c-0.9,0-1.3,0.6-1.3,1.7v3.1h-1.6v-3.3
				c0-0.9-0.3-1.5-1.1-1.5c-0.9,0-1.3,0.6-1.3,1.7v3h-1.6v-6.1h1.6v0.7c0.4-0.5,1-0.9,1.8-0.9c0.9,0,1.5,0.3,1.8,0.9
				c0.4-0.5,1.1-0.9,2.1-0.9C31.2,14.7,32.1,15.6,32.1,17.3z"/>
			<path class="st2" d="M40.2,17.9c0,1.8-1.3,3.2-3,3.2c-0.9,0-1.5-0.4-2-0.9v3.3h-1.6v-8.6h1.6v0.7c0.4-0.6,1.1-0.9,2-0.9
				C38.9,14.7,40.2,16,40.2,17.9z M38.6,17.8c0-1-0.7-1.8-1.7-1.8c-1,0-1.7,0.7-1.7,1.8c0,1.1,0.8,1.8,1.7,1.8
				C37.9,19.6,38.6,18.9,38.6,17.8z"/>
		</g>
		<g class="st1">
			<path class="st2" d="M45,14.7v1.5c-1.3-0.2-2,0.4-2,2v2.6h-1.6v-6.1H43v0.9C43.3,15,44,14.6,45,14.7z"/>
		</g>
		<g class="st1">
			<path class="st2" d="M45.3,17.9c0-1.8,1.4-3.2,3.3-3.2c1.9,0,3.2,1.4,3.2,3.2c0,1.8-1.4,3.2-3.2,3.2
				C46.7,21.1,45.3,19.7,45.3,17.9z M50.3,17.9c0-1-0.7-1.8-1.7-1.8c-1,0-1.7,0.8-1.7,1.8c0,1,0.7,1.8,1.7,1.8
				C49.6,19.6,50.3,18.9,50.3,17.9z"/>
			<path class="st2" d="M62.7,17.3v3.6h-1.6v-3.3c0-0.9-0.3-1.5-1.2-1.5c-0.9,0-1.3,0.6-1.3,1.7v3.1H57v-3.3c0-0.9-0.3-1.5-1.1-1.5
				c-0.9,0-1.3,0.6-1.3,1.7v3H53v-6.1h1.6v0.7c0.4-0.5,1-0.9,1.8-0.9c0.9,0,1.5,0.3,1.8,0.9c0.4-0.5,1.1-0.9,2.1-0.9
				C61.7,14.7,62.7,15.6,62.7,17.3z"/>
			<path class="st2" d="M64,13c0-0.5,0.4-0.9,0.9-0.9c0.5,0,0.9,0.4,0.9,0.9c0,0.5-0.4,0.9-0.9,0.9C64.4,14,64,13.6,64,13z
				 M64.2,14.8h1.6v6.1h-1.6V14.8z"/>
		</g>
		<g class="st1">
			<path class="st2" d="M66.8,19.2l1.4-0.4c0.2,0.6,0.8,1,1.6,1c0.6,0,1-0.3,1-0.6c0-0.3-0.2-0.5-0.7-0.6l-1.5-0.5
				c-0.9-0.3-1.5-0.8-1.5-1.6c0-1,1.1-1.8,2.4-1.8c1.3,0,2.3,0.6,2.7,1.5l-1.4,0.4c-0.2-0.4-0.7-0.7-1.3-0.7c-0.5,0-0.9,0.3-0.9,0.6
				c0,0.2,0.2,0.4,0.5,0.5l1.5,0.4c0.9,0.3,1.7,0.6,1.7,1.7c0,1.1-1.1,2-2.6,2C68.2,21.1,67.1,20.2,66.8,19.2z"/>
		</g>
		<g class="st1">
			<path class="st2" d="M73.1,17.9c0-1.8,1.4-3.2,3.3-3.2c1.9,0,3.2,1.4,3.2,3.2c0,1.8-1.4,3.2-3.2,3.2
				C74.5,21.1,73.1,19.7,73.1,17.9z M78.1,17.9c0-1-0.7-1.8-1.7-1.8c-1,0-1.7,0.8-1.7,1.8c0,1,0.7,1.8,1.7,1.8
				C77.4,19.6,78.1,18.9,78.1,17.9z"/>
			<path class="st2" d="M89.9,12.1v8.8h-1.6v-0.7c-0.4,0.6-1.1,0.9-2,0.9c-1.7,0-3-1.4-3-3.2c0-1.8,1.3-3.2,3-3.2
				c0.9,0,1.5,0.3,2,0.9v-3.4H89.9z M88.4,17.8c0-1-0.8-1.8-1.7-1.8c-1,0-1.7,0.7-1.7,1.8c0,1.1,0.7,1.8,1.7,1.8
				C87.6,19.6,88.4,18.9,88.4,17.8z"/>
			<path class="st2" d="M91.4,13c0-0.5,0.4-0.9,0.9-0.9c0.5,0,0.9,0.4,0.9,0.9c0,0.5-0.4,0.9-0.9,0.9C91.8,14,91.4,13.6,91.4,13z
				 M91.5,14.8h1.6v6.1h-1.6V14.8z"/>
		</g>
		<g class="st1">
			<path class="st2" d="M98.3,14.7v1.5c-1.3-0.2-2,0.4-2,2v2.6h-1.6v-6.1h1.6v0.9C96.6,15,97.3,14.6,98.3,14.7z"/>
		</g>
		<g class="st1">
			<path class="st2" d="M98.6,17.9c0-1.8,1.3-3.2,3.2-3.2c2,0,3.1,1.4,3.1,3.1c0,0.2,0,0.4,0,0.6h-4.7c0.1,0.8,0.7,1.4,1.8,1.4
				c0.8,0,1.2-0.3,1.5-0.8l1.4,0.4c-0.3,0.8-1.3,1.7-2.9,1.7C100,21.1,98.6,19.8,98.6,17.9z M103.4,17.3c-0.1-0.7-0.6-1.3-1.6-1.3
				c-0.9,0-1.5,0.6-1.6,1.3H103.4z"/>
			<path class="st2" d="M105.7,17.8c0-1.8,1.4-3.2,3.2-3.2c1.7,0,2.7,1.1,3,2l-1.5,0.4c-0.1-0.5-0.7-1-1.5-1c-1,0-1.7,0.8-1.7,1.8
				c0,0.9,0.6,1.8,1.7,1.8c0.8,0,1.4-0.5,1.5-1l1.5,0.4c-0.2,0.9-1.3,2-3,2C107.1,21.1,105.7,19.7,105.7,17.8z"/>
			<path class="st2" d="M116.9,20.7c-0.5,0.2-0.9,0.3-1.4,0.3c-1.4,0-2-0.9-2-2.2v-2.6h-1v-1.4h1v-2h1.6v2h1.8v1.4h-1.8v2.6
				c0,0.5,0.2,0.8,0.7,0.8c0.3,0,0.5,0,0.7-0.2L116.9,20.7z"/>
			<path class="st2" d="M117.9,13c0-0.5,0.4-0.9,0.9-0.9c0.5,0,0.9,0.4,0.9,0.9c0,0.5-0.4,0.9-0.9,0.9C118.3,14,117.9,13.6,117.9,13
				z M118,14.8h1.6v6.1H118V14.8z"/>
		</g>
		<g class="st1">
			<path class="st2" d="M127.2,14.8l-2.5,6.1H123l-2.5-6.1h1.7l1.7,4.3l1.7-4.3H127.2z"/>
		</g>
		<g class="st1">
			<path class="st2" d="M127.5,17.9c0-1.8,1.4-3.2,3.2-3.2s3.2,1.4,3.2,3.2c0,1.8-1.4,3.2-3.2,3.2S127.5,19.7,127.5,17.9z
				 M132.5,17.9c0-1-0.7-1.8-1.7-1.8c-1,0-1.7,0.8-1.7,1.8c0,1,0.7,1.8,1.7,1.8C131.8,19.6,132.5,18.9,132.5,17.9z"/>
			<path class="st2" d="M134.6,19.2l1.4-0.4c0.2,0.6,0.8,1,1.6,1c0.6,0,1-0.3,1-0.6c0-0.3-0.2-0.5-0.7-0.6l-1.5-0.5
				c-0.9-0.3-1.5-0.8-1.5-1.6c0-1,1.1-1.8,2.4-1.8c1.3,0,2.3,0.6,2.7,1.5l-1.4,0.4c-0.2-0.4-0.7-0.7-1.3-0.7c-0.5,0-0.9,0.3-0.9,0.6
				c0,0.2,0.2,0.4,0.5,0.5l1.5,0.4c0.9,0.3,1.7,0.6,1.7,1.7c0,1.1-1.1,2-2.6,2C136.1,21.1,134.9,20.2,134.6,19.2z"/>
			<path class="st2" d="M150.5,12.1v8.8H149v-0.7c-0.4,0.6-1.1,0.9-2,0.9c-1.7,0-3-1.4-3-3.2c0-1.8,1.3-3.2,3-3.2
				c0.9,0,1.5,0.3,2,0.9v-3.4H150.5z M149,17.8c0-1-0.8-1.8-1.7-1.8c-1,0-1.7,0.7-1.7,1.8c0,1.1,0.7,1.8,1.7,1.8
				C148.2,19.6,149,18.9,149,17.8z"/>
			<path class="st2" d="M151.7,17.9c0-1.8,1.3-3.2,3.2-3.2c2,0,3.1,1.4,3.1,3.1c0,0.2,0,0.4,0,0.6h-4.7c0.1,0.8,0.7,1.4,1.8,1.4
				c0.8,0,1.2-0.3,1.5-0.8l1.4,0.4c-0.3,0.8-1.3,1.7-2.9,1.7C153.1,21.1,151.7,19.8,151.7,17.9z M156.5,17.3
				c-0.1-0.7-0.6-1.3-1.6-1.3c-0.9,0-1.5,0.6-1.6,1.3H156.5z"/>
		</g>
		<g class="st1">
			<path class="st2" d="M26.7,28.4v1.9h4v1.4h-4v2.1h4.6v1.5h-6.2v-8.4h6.2v1.5H26.7z"/>
		</g>
		<g class="st1">
			<path class="st2" d="M38.7,26.5v8.8h-1.6v-0.7c-0.4,0.6-1.1,0.9-2,0.9c-1.7,0-3-1.4-3-3.2c0-1.8,1.3-3.2,3-3.2
				c0.9,0,1.5,0.3,2,0.9v-3.4H38.7z M37.1,32.2c0-1-0.8-1.8-1.7-1.8c-1,0-1.7,0.7-1.7,1.8c0,1.1,0.7,1.8,1.7,1.8
				C36.4,34,37.1,33.3,37.1,32.2z"/>
			<path class="st2" d="M46.1,29.2v6.1h-1.6v-0.8c-0.4,0.5-1.1,0.9-1.9,0.9c-1.6,0-2.4-1.1-2.4-2.7v-3.5h1.6v3.2
				c0,0.9,0.4,1.5,1.3,1.5c0.9,0,1.5-0.7,1.5-1.8v-3H46.1z"/>
			<path class="st2" d="M47.3,32.2c0-1.8,1.4-3.2,3.2-3.2c1.7,0,2.7,1.1,3,2L52,31.5c-0.1-0.5-0.7-1-1.5-1c-1,0-1.7,0.8-1.7,1.8
				c0,0.9,0.6,1.8,1.7,1.8c0.8,0,1.4-0.5,1.5-1l1.5,0.4c-0.2,0.9-1.3,2-3,2C48.7,35.5,47.3,34.1,47.3,32.2z"/>
			<path class="st2" d="M54.3,32.3c0-1.8,1.3-3.2,3-3.2c0.9,0,1.5,0.3,2,0.9v-0.7h1.6v6.1h-1.6v-0.7c-0.4,0.6-1.1,0.9-2,0.9
				C55.6,35.5,54.3,34.1,54.3,32.3z M59.3,32.2c0-1-0.8-1.8-1.7-1.8c-1,0-1.7,0.7-1.7,1.8c0,1.1,0.7,1.8,1.7,1.8
				C58.5,34,59.3,33.3,59.3,32.2z"/>
			<path class="st2" d="M62,32.2c0-1.8,1.4-3.2,3.2-3.2c1.7,0,2.7,1.1,3,2l-1.5,0.4c-0.1-0.5-0.7-1-1.5-1c-1,0-1.7,0.8-1.7,1.8
				c0,0.9,0.6,1.8,1.7,1.8c0.8,0,1.4-0.5,1.5-1l1.5,0.4c-0.2,0.9-1.3,2-3,2C63.4,35.5,62,34.1,62,32.2z"/>
			<path class="st2" d="M69.2,27.4c0-0.5,0.4-0.9,0.9-0.9c0.5,0,0.9,0.4,0.9,0.9c0,0.5-0.4,0.9-0.9,0.9C69.6,28.4,69.2,28,69.2,27.4
				z M69.3,29.2h1.6v6.1h-1.6V29.2z"/>
			<path class="st2" d="M72.1,32.3c0-1.8,1.4-3.2,3.3-3.2c1.9,0,3.2,1.4,3.2,3.2c0,1.8-1.4,3.2-3.2,3.2
				C73.5,35.5,72.1,34.1,72.1,32.3z M77.1,32.3c0-1-0.7-1.8-1.7-1.8c-1,0-1.7,0.8-1.7,1.8c0,1,0.7,1.8,1.7,1.8
				C76.4,34,77.1,33.3,77.1,32.3z M75.5,26.6h1.7l-1.3,1.7h-1.4L75.5,26.6z"/>
			<path class="st2" d="M85.7,31.7v3.5h-1.6V32c0-0.9-0.4-1.5-1.3-1.5c-0.9,0-1.5,0.7-1.5,1.8v3h-1.6v-6.1h1.6V30
				c0.4-0.5,1.1-0.9,2-0.9C84.9,29.1,85.7,30.1,85.7,31.7z"/>
		</g>
		<g class="st1">
			<path class="st2" d="M89.8,32.9l1.6-0.5c0.3,0.9,1.2,1.6,2.4,1.6c1,0,1.6-0.5,1.6-1.1c0-0.4-0.3-0.7-1.1-1l-2.1-0.7
				c-1.1-0.3-1.9-1.1-1.9-2.1c0-1.3,1.3-2.4,3-2.4c1.8,0,3.2,1,3.6,2.2l-1.5,0.4c-0.3-0.7-1.1-1.2-2.1-1.2c-0.8,0-1.4,0.4-1.4,0.9
				c0,0.4,0.3,0.6,0.8,0.8l2.1,0.7c1.3,0.4,2.3,0.9,2.3,2.3c0,1.4-1.3,2.6-3.4,2.6C91.6,35.5,90.2,34.2,89.8,32.9z"/>
		</g>
		<g class="st1">
			<path class="st2" d="M103.9,29.2v6.1h-1.6v-0.8c-0.4,0.5-1.1,0.9-1.9,0.9c-1.6,0-2.4-1.1-2.4-2.7v-3.5h1.6v3.2
				c0,0.9,0.4,1.5,1.3,1.5c0.9,0,1.5-0.7,1.5-1.8v-3H103.9z"/>
			<path class="st2" d="M112,32.3c0,1.8-1.3,3.2-3,3.2c-0.9,0-1.5-0.4-2-0.9v3.3h-1.6v-8.6h1.6V30c0.4-0.6,1.1-0.9,2-0.9
				C110.7,29.1,112,30.4,112,32.3z M110.5,32.2c0-1-0.7-1.8-1.7-1.8c-1,0-1.7,0.7-1.7,1.8c0,1.1,0.8,1.8,1.7,1.8
				C109.8,34,110.5,33.3,110.5,32.2z"/>
			<path class="st2" d="M112.9,32.3c0-1.8,1.3-3.2,3.2-3.2c2,0,3.1,1.4,3.1,3.1c0,0.2,0,0.4,0,0.6h-4.7c0.1,0.8,0.7,1.4,1.8,1.4
				c0.8,0,1.2-0.3,1.5-0.8l1.4,0.4c-0.3,0.8-1.3,1.7-2.9,1.7C114.2,35.5,112.9,34.2,112.9,32.3z M117.6,31.7
				c-0.1-0.7-0.6-1.3-1.6-1.3c-0.9,0-1.5,0.6-1.6,1.3H117.6z"/>
			<path class="st2" d="M124,29.1v1.5c-1.3-0.2-2,0.4-2,2v2.6h-1.6v-6.1h1.6v0.9C122.3,29.4,123,29,124,29.1z"/>
			<path class="st2" d="M124.8,27.4c0-0.5,0.4-0.9,0.9-0.9s0.9,0.4,0.9,0.9c0,0.5-0.4,0.9-0.9,0.9S124.8,28,124.8,27.4z M125,29.2
				h1.6v6.1H125V29.2z"/>
			<path class="st2" d="M127.8,32.3c0-1.8,1.4-3.2,3.2-3.2s3.2,1.4,3.2,3.2c0,1.8-1.4,3.2-3.2,3.2S127.8,34.1,127.8,32.3z
				 M132.7,32.3c0-1-0.7-1.8-1.7-1.8c-1,0-1.7,0.8-1.7,1.8c0,1,0.7,1.8,1.7,1.8C132,34,132.7,33.3,132.7,32.3z"/>
			<path class="st2" d="M139.1,29.1v1.5c-1.3-0.2-2,0.4-2,2v2.6h-1.6v-6.1h1.6v0.9C137.4,29.4,138.1,29,139.1,29.1z"/>
		</g>
		<g>
			<path class="st2" d="M76.8,111.6c-1.2,0-2.4-0.5-3.3-1.3c-1-0.9-1.6-2.1-1.6-3.4c0-0.3,0-0.6,0-0.9c-1.8,0.6-3.9,0.1-5.2-1.4
				c-1.2-1.4-1.6-3.2-1-4.8c-0.6,0.2-1.1,0.3-1.7,0.2c-1.3-0.1-2.5-0.6-3.4-1.6c-0.9-1-1.3-2.3-1.3-3.5c-1.7,0.5-3.6,0.1-4.9-1.2
				c-0.9-0.9-1.4-2.2-1.4-3.5c0-0.8,0.2-1.6,0.6-2.3c-0.4,0.2-0.8,0.2-1.2-0.1L37.3,76.5c-0.5-0.4-0.6-1.1-0.2-1.6
				c0.4-0.5,1.1-0.6,1.6-0.2l14.9,11.2c0.3,0.2,0.5,0.7,0.4,1c0.1-0.1,0.2-0.2,0.3-0.3l1-1c1.8-2,4.9-2.1,6.9-0.3
				c0.9,0.8,1.4,1.9,1.6,3.1l0.8-0.8c0.9-0.9,2.1-1.5,3.4-1.5c1.3,0,2.6,0.5,3.5,1.4c1,0.9,1.5,2.1,1.5,3.5c0,0.2,0,0.4,0,0.7
				c1.8-1.7,4.7-1.7,6.6,0c1,0.9,1.6,2.1,1.6,3.4c0.1,1.3-0.4,2.6-1.3,3.6c-0.1,0.1-0.2,0.2-0.3,0.3L79.6,99c1.3,0,2.6,0.6,3.6,1.6
				c1.7,1.9,1.7,4.7,0,6.6l-2.7,2.7c-0.9,1-2.1,1.5-3.4,1.6C77,111.6,76.9,111.6,76.8,111.6z M79.5,101.2c-0.7,0-1.3,0.2-1.8,0.7
				l-2.7,2.7c-0.1,0.1-0.2,0.2-0.2,0.2c-0.5,0.5-0.7,1.2-0.7,2c0,0.7,0.4,1.4,0.9,1.9c1.1,1,2.8,0.9,3.8-0.2c0,0,0,0,0,0l2.7-2.7
				c0.9-1,0.9-2.6,0-3.6C81,101.5,80.2,101.2,79.5,101.2z M76.3,92.6c-0.7,0-1.5,0.3-2,0.9l-6,6c-0.9,1-0.9,2.6,0,3.6
				c1,1.1,2.7,1.2,3.8,0.2l6-6c0.1-0.1,0.2-0.2,0.2-0.2c0.5-0.5,0.7-1.2,0.7-2c0-0.7-0.4-1.4-0.9-1.9C77.6,92.8,77,92.6,76.3,92.6z
				 M66.7,97.9L66.7,97.9L66.7,97.9z M68.1,88.3C68.1,88.3,68.1,88.3,68.1,88.3c-0.8,0-1.5,0.3-2,0.8l-4.1,4.1c-0.9,1-0.9,2.6,0,3.6
				c0.5,0.5,1.2,0.9,1.9,0.9c0.7,0,1.4-0.2,1.9-0.7l4.2-4.2c0.5-0.5,0.8-1.2,0.8-1.9s-0.3-1.4-0.8-1.9
				C69.5,88.6,68.8,88.3,68.1,88.3z M58.9,86.3c-0.7,0-1.5,0.3-2,0.9l-1,1c-0.5,0.5-0.8,1.2-0.8,1.9c0,0.7,0.3,1.4,0.8,1.9
				c1.1,1.1,2.8,1.1,3.8,0l1-1c0.1-0.1,0.2-0.2,0.2-0.2c0.5-0.5,0.7-1.2,0.7-2c0-0.7-0.4-1.4-0.9-1.9C60.2,86.5,59.6,86.3,58.9,86.3
				z M90,105.5c-1.2,0-2.4-0.4-3.3-1.3c-0.5-0.4-0.5-1.1-0.1-1.6c0.4-0.5,1.1-0.5,1.6-0.1c1,0.9,2.6,0.9,3.7,0
				c0.5-0.5,0.9-1.2,0.9-1.9c0-0.7-0.2-1.4-0.7-1.9c0,0-0.1-0.1-0.1-0.1c-0.1-0.1-0.1-0.1-0.2-0.2l-3.9-3.9c-0.4-0.4-0.4-1.1,0-1.6
				c0.4-0.4,1.1-0.4,1.6,0l4.1,4.2c1,0.8,2.5,0.8,3.5-0.1c1.1-1,1.2-2.7,0.2-3.8l-5.8-5.8c-0.2-0.2-0.3-0.5-0.3-0.8
				c0-0.3,0.1-0.6,0.3-0.8c0.4-0.4,1.1-0.4,1.6,0l7.1,7.1c0.1,0.1,0.2,0.2,0.2,0.2c1.1,1,2.8,0.9,3.8-0.2c1-1.1,0.9-2.8-0.2-3.8
				l-8-8c-0.4-0.4-0.4-1.1,0-1.6c0.4-0.4,1.1-0.4,1.5,0c0.1,0,0.1,0.1,0.2,0.1l9.5,9.5c1,1,2.7,1,3.7,0c0.5-0.5,0.8-1.2,0.8-1.9
				c0-0.7-0.3-1.4-0.8-1.9l-0.7-0.7c0,0-0.1-0.1-0.1-0.1c0,0-0.1-0.1-0.1-0.1L93.8,68c-0.4-0.4-0.4-1.1,0-1.6s1.1-0.4,1.6,0
				L110.9,82l13.6-13.8c0.4-0.4,1.1-0.4,1.6,0c0.4,0.4,0.4,1.1,0,1.6l-13.6,13.8l0,0c0.9,1,1.4,2.2,1.4,3.5s-0.6,2.5-1.5,3.5
				c-1.5,1.4-3.6,1.7-5.4,1c-0.1,1-0.5,2-1.2,2.8c-1.5,1.6-3.8,2-5.7,1.2c-0.1,1.2-0.7,2.3-1.6,3.1c-1,0.9-2.4,1.4-3.7,1.3
				c0.2,1.5-0.3,3.2-1.6,4.3C92.3,105.1,91.1,105.5,90,105.5z M65.5,74.5c-1.6,0-3.2-0.8-4.2-2.3c-1.4-2.2-0.8-5,1.2-6.6
				c0.1,0,0.1-0.1,0.2-0.1l6.9-3.3l-12.6-1.7c-0.2,0-0.3-0.1-0.5-0.2L39.1,48.4c-0.5-0.3-0.6-1-0.3-1.5c0.3-0.5,1-0.6,1.5-0.3
				l17.3,11.7l14.4,2c0.3,0,0.6,0.2,0.7,0.4l6.2-3c0.1,0,0.1-0.1,0.2-0.1c0.1,0,0.1,0,0.2,0l15.1-2.4c0.2,0,0.5,0,0.7,0.1l7.9,3.9
				l11.9-8.1c0.5-0.3,1.2-0.2,1.5,0.3c0.3,0.5,0.2,1.2-0.3,1.5l-12.4,8.4c-0.3,0.2-0.8,0.3-1.1,0.1l-8.2-4.1l-14.7,2.3l-16,7.7
				c-1.1,0.9-1.3,2.4-0.6,3.6c0.8,1.3,2.5,1.6,3.8,0.8c0.5-0.3,1.2-0.2,1.5,0.3c0.3,0.5,0.2,1.2-0.3,1.5
				C67.4,74.2,66.5,74.5,65.5,74.5z"/>
		</g>
	</g>
</g>
</svg>
