<svg xmlns="http://www.w3.org/2000/svg" viewBox="0 0 505.34 395.08"><defs><style>.cls-1,.cls-2{fill:#005290;}.cls-1{fill-rule:evenodd;}.cls-3,.cls-4,.cls-5,.cls-6{fill:none;stroke:#005290;stroke-miterlimit:3.86;}.cls-3{stroke-width:2.59px;}.cls-4,.cls-5{stroke-width:1.95px;}.cls-5,.cls-6{stroke-linecap:round;}.cls-6{stroke-width:1.96px;}</style></defs><title>frontera</title><g id="Capa_2" data-name="Capa 2"><g id="Capa_1-2" data-name="Capa 1"><path class="cls-1" d="M10.45,358.87v27.64h6.39a14,14,0,0,0,5.56-.77,8.7,8.7,0,0,0,3.77-2.69,17.87,17.87,0,0,0,2.25-3.74,13.4,13.4,0,0,0,1.09-4.13v-.28a.65.65,0,0,1,.06-.29v-.86a1.23,1.23,0,0,1,.06-.36v-.57a17.72,17.72,0,0,0-.75-5.25,15.09,15.09,0,0,0-2.25-4.48A8.73,8.73,0,0,0,22.69,360a15.78,15.78,0,0,0-6-1l-6.28-.13m-9.8-8H18a27.11,27.11,0,0,1,9.42,1.76,17.51,17.51,0,0,1,6.83,4.83,23.8,23.8,0,0,1,4.09,7.1,24.45,24.45,0,0,1,1.38,8.32,25.51,25.51,0,0,1-1.38,8.57,20.61,20.61,0,0,1-4.15,7A16.63,16.63,0,0,1,27.1,393a30.87,30.87,0,0,1-10.2,1.51H.65Z"/><polyline class="cls-2" points="74.6 386.51 74.6 394.51 45.63 394.51 45.63 350.87 74.2 350.87 74.2 358.87 55.42 358.87 55.42 368.02 73.33 368.02 73.33 376.02 55.42 376.02 55.42 386.51 74.6 386.51"/><polyline class="cls-2" points="124.1 386.51 124.1 394.51 94.14 394.51 94.14 350.87 103.94 350.87 103.94 386.51 124.1 386.51"/><path class="cls-1" d="M152.05,378.26l-6.34-17-5.76,17h12.1m-.81-27.39,17.45,43.64H158.15l-3.22-8.64H137.36l-2.94,8.64H124.05l15.84-43.64Z"/><polyline class="cls-2" points="212.3 350.87 212.3 358.87 195.02 358.87 195.02 368.6 212.3 368.6 212.3 376.59 195.02 376.59 195.02 394.51 185.23 394.51 185.23 350.87 212.3 350.87"/><path class="cls-1" d="M228.48,358.87v9.92h5.19a4.85,4.85,0,0,0,1.9-.13,6.24,6.24,0,0,0,1.78-.83,3.77,3.77,0,0,0,1.24-1.54,5.72,5.72,0,0,0,.43-2.36,5.47,5.47,0,0,0-.37-2.12,4.36,4.36,0,0,0-1.07-1.53,4.28,4.28,0,0,0-1.73-1,8.28,8.28,0,0,0-2.41-.32l-5-.13m-9.79-8h17.57a15.91,15.91,0,0,1,5.38,1.09,11.14,11.14,0,0,1,4.07,2.88,14.37,14.37,0,0,1,2.53,4.09,12.3,12.3,0,0,1,.86,4.61,12.52,12.52,0,0,1-.43,3.36,11.45,11.45,0,0,1-1.24,2.91,10.63,10.63,0,0,1-2.13,2.43,15.4,15.4,0,0,1-2.94,2,5.85,5.85,0,0,1,1.16.77,12.67,12.67,0,0,1,1,1c.15.17.3.37.46.58s.3.43.46.64a5.18,5.18,0,0,0,.4.73c.15.24.31.48.46.74.42.81.87,1.75,1.36,2.81s1,2.24,1.46,3.52,1.09,2.72,1.76,4.32,1.43,3.34,2.28,5.22H242.36c-.46-.9-.88-1.81-1.26-2.72s-.75-1.83-1.1-2.72-.68-1.77-1-2.62-.64-1.67-1-2.44c-.46-1-.93-2-1.41-2.81a19.66,19.66,0,0,0-1.52-2.31,5.72,5.72,0,0,0-1.7-1.47,4.42,4.42,0,0,0-2.11-.51l-2.82-.13v17.73h-9.79Z"/><path class="cls-1" d="M288.75,372.69a15.82,15.82,0,0,0-.86-5.34,12.14,12.14,0,0,0-2.54-4.19,10.81,10.81,0,0,0-4-2.75,13.38,13.38,0,0,0-5-.9,13.57,13.57,0,0,0-5.08.9,10.81,10.81,0,0,0-4,2.75,11.17,11.17,0,0,0-2.56,4.22,16.56,16.56,0,0,0-.84,5.44,16.24,16.24,0,0,0,.84,5.4,11.9,11.9,0,0,0,2.56,4.26,11.78,11.78,0,0,0,4,2.72,13.18,13.18,0,0,0,5.08.93,13,13,0,0,0,5-.93,11.78,11.78,0,0,0,4-2.72,12.94,12.94,0,0,0,2.54-4.26,16,16,0,0,0,.86-5.4v-.13m10.08,0a22.38,22.38,0,0,1-1.5,8.16,25.42,25.42,0,0,1-4.43,7.32,18.47,18.47,0,0,1-7.12,5.22,24.52,24.52,0,0,1-9.41,1.69,25.14,25.14,0,0,1-9.48-1.66,18,18,0,0,1-7.06-5.12,24.87,24.87,0,0,1-4.43-7.2,22.23,22.23,0,0,1-1.56-7.9v-1.15a5,5,0,0,1,.06-.77,4.87,4.87,0,0,1,.06-.76c0-.26.07-.54.11-.84a21.62,21.62,0,0,1,2.13-6.91,27.25,27.25,0,0,1,4.5-6.33,17.84,17.84,0,0,1,6.74-4.51,27.23,27.23,0,0,1,17.74,0,17.63,17.63,0,0,1,6.68,4.48,26.28,26.28,0,0,1,4.49,6.2,22.69,22.69,0,0,1,2.25,6.85c0,.3.07.59.09.89s.05.58.08.83v.42a1.42,1.42,0,0,0,.06.42v.7Z"/><polyline class="cls-2" points="344.42 350.87 344.42 394.51 336.18 394.51 314.46 366.55 314.46 394.51 304.67 394.51 304.67 350.87 313.65 350.87 334.62 377.55 334.62 350.87 344.42 350.87"/><polyline class="cls-2" points="387.37 350.87 387.37 358.87 373.14 358.87 373.14 394.51 363.35 394.51 363.35 358.87 349.12 358.87 349.12 350.87 387.37 350.87"/><polyline class="cls-2" points="421.08 386.51 421.08 394.51 392.11 394.51 392.11 350.87 420.68 350.87 420.68 358.87 401.9 358.87 401.9 368.02 419.81 368.02 419.81 376.02 401.9 376.02 401.9 386.51 421.08 386.51"/><path class="cls-1" d="M437.07,358.87v9.92h5.18a4.84,4.84,0,0,0,1.9-.13,6.3,6.3,0,0,0,1.79-.83,3.75,3.75,0,0,0,1.23-1.54,5.71,5.71,0,0,0,.44-2.36,5.46,5.46,0,0,0-.38-2.12,4.23,4.23,0,0,0-2.79-2.49A8.35,8.35,0,0,0,442,359l-4.95-.13m-9.8-8h17.57a16,16,0,0,1,5.39,1.09,11.1,11.1,0,0,1,4.06,2.88,14.15,14.15,0,0,1,2.53,4.09,12.31,12.31,0,0,1,.87,4.61,12.94,12.94,0,0,1-.43,3.36,11.45,11.45,0,0,1-1.24,2.91,11.14,11.14,0,0,1-2.13,2.43,16.06,16.06,0,0,1-2.94,2,6.08,6.08,0,0,1,1.15.77,11.1,11.1,0,0,1,1,1,7.35,7.35,0,0,1,.46.58l.46.64a6.44,6.44,0,0,0,.4.73c.16.24.31.48.47.74.42.81.87,1.75,1.35,2.81s1,2.24,1.47,3.52,1.08,2.72,1.75,4.32,1.44,3.34,2.28,5.22H451c-.46-.9-.89-1.81-1.27-2.72s-.75-1.83-1.09-2.72-.69-1.77-1-2.62-.64-1.67-.95-2.44c-.46-1-.93-2-1.41-2.81a18.51,18.51,0,0,0-1.53-2.31,5.72,5.72,0,0,0-1.7-1.47,4.35,4.35,0,0,0-2.1-.51l-2.82-.13v17.73h-9.8Z"/><path class="cls-1" d="M488.69,378.26l-6.33-17-5.77,17h12.1m-.8-27.39,17.45,43.64H494.8l-3.23-8.64H474l-2.94,8.64H460.7l15.84-43.64Z"/><path class="cls-2" d="M25.17,306v16.83a13.26,13.26,0,0,1-.77,4.65,10.09,10.09,0,0,1-2.32,3.6,9.45,9.45,0,0,1-3.83,2.25,17.21,17.21,0,0,1-5.4.76,13.57,13.57,0,0,1-8-2.52,8.11,8.11,0,0,1-2.68-3.36,12.15,12.15,0,0,1-.9-4.9V306h4v16.38a18.81,18.81,0,0,0,.1,2.15,10.7,10.7,0,0,0,.27,1.51,5.83,5.83,0,0,0,.51,1.14,4,4,0,0,0,.79,1,6.4,6.4,0,0,0,1.24,1,10.87,10.87,0,0,0,1.44.75,8.4,8.4,0,0,0,1.57.43,10.73,10.73,0,0,0,1.73.14,12.65,12.65,0,0,0,2.11-.16,8.51,8.51,0,0,0,1.79-.49,12.6,12.6,0,0,0,1.47-.71,5.59,5.59,0,0,0,1.13-.88,4.82,4.82,0,0,0,.88-1.15,5.25,5.25,0,0,0,.51-1.41,10.19,10.19,0,0,0,.28-1.64,18.28,18.28,0,0,0,.08-1.85V306Z"/><path class="cls-3" d="M25.17,306v16.83a13.26,13.26,0,0,1-.77,4.65,10.09,10.09,0,0,1-2.32,3.6,9.45,9.45,0,0,1-3.83,2.25,17.21,17.21,0,0,1-5.4.76,13.57,13.57,0,0,1-8-2.52,8.11,8.11,0,0,1-2.68-3.36,12.15,12.15,0,0,1-.9-4.9V306h4v16.38a18.81,18.81,0,0,0,.1,2.15,10.7,10.7,0,0,0,.27,1.51,5.83,5.83,0,0,0,.51,1.14,4,4,0,0,0,.79,1,6.4,6.4,0,0,0,1.24,1,10.87,10.87,0,0,0,1.44.75,8.4,8.4,0,0,0,1.57.43,10.73,10.73,0,0,0,1.73.14,12.65,12.65,0,0,0,2.11-.16,8.51,8.51,0,0,0,1.79-.49,12.6,12.6,0,0,0,1.47-.71,5.59,5.59,0,0,0,1.13-.88,4.82,4.82,0,0,0,.88-1.15,5.25,5.25,0,0,0,.51-1.41,10.19,10.19,0,0,0,.28-1.64,18.28,18.28,0,0,0,.08-1.85V306Z"/><polygon class="cls-2" points="81.37 306.01 81.37 333.73 77.95 333.73 59.41 312.39 59.41 333.73 55.67 333.73 55.67 306.01 58.84 306.01 77.63 327.47 77.63 306.01 81.37 306.01"/><polygon class="cls-3" points="81.37 306.01 81.37 333.73 77.95 333.73 59.41 312.39 59.41 333.73 55.67 333.73 55.67 306.01 58.84 306.01 77.63 327.47 77.63 306.01 81.37 306.01"/><path class="cls-2" d="M112.49,306h4v27.72h-4Z"/><path class="cls-3" d="M112.49,306h4v27.72h-4Z"/><polygon class="cls-2" points="169.15 306.01 157.39 333.97 156.58 333.97 144.58 306.01 148.57 306.01 156.9 325.48 165.2 306.01 169.15 306.01"/><polygon class="cls-3" points="169.15 306.01 157.39 333.97 156.58 333.97 144.58 306.01 148.57 306.01 156.9 325.48 165.2 306.01 169.15 306.01"/><polygon class="cls-2" points="212.96 306.01 212.96 309.58 201.2 309.58 201.2 317.96 212.55 317.96 212.55 321.54 201.2 321.54 201.2 330.15 213.32 330.15 213.32 333.73 197.22 333.73 197.22 306.01 212.96 306.01"/><polygon class="cls-3" points="212.96 306.01 212.96 309.58 201.2 309.58 201.2 317.96 212.55 317.96 212.55 321.54 201.2 321.54 201.2 330.15 213.32 330.15 213.32 333.73 197.22 333.73 197.22 306.01 212.96 306.01"/><path class="cls-1" d="M246.61,309.42v8.7h2.56a7.46,7.46,0,0,0,2.67-.26,3.54,3.54,0,0,0,1.65-1,5.06,5.06,0,0,0,.85-1.46,4.69,4.69,0,0,0,.28-1.63v-.08a4.83,4.83,0,0,0-.36-1.75,3.51,3.51,0,0,0-.94-1.3,4.16,4.16,0,0,0-1.68-.85,9.46,9.46,0,0,0-2.47-.29l-2.56-.08m-4-3.41h7a14.69,14.69,0,0,1,3.78.59,7.83,7.83,0,0,1,2.89,1.56,6.31,6.31,0,0,1,1.83,2.46,8.16,8.16,0,0,1,.61,3.23,8.08,8.08,0,0,1-.3,2.26,6.38,6.38,0,0,1-.92,1.89,6.29,6.29,0,0,1-1.46,1.54,8.36,8.36,0,0,1-2,1.1c.38.27.74.56,1.09.86a9.31,9.31,0,0,1,1,1c.33.35.64.73,1,1.12s.61.82.91,1.28q.24.4.51.81c.18.27.36.56.55.86s.38.56.57.87.38.62.57.91c.05.09.09.16.12.23a.57.57,0,0,0,.12.18s.06.12.1.18a1.18,1.18,0,0,1,.1.19,3,3,0,0,1,.25.34l.24.35v.06l0,0a.08.08,0,0,0,0,.06s0,0,0,.06l.09.08a.3.3,0,0,0,.08.08c.16.25.34.5.53.76s.38.53.57.83.44.57.69.91.51.7.81,1.08H259.3L255.64,328c-.76-1.17-1.46-2.15-2.09-3a15.2,15.2,0,0,0-1.65-1.81,9.37,9.37,0,0,0-1.4-1,3.79,3.79,0,0,0-1.28-.45h-.11a.3.3,0,0,1-.14,0h-.34a.14.14,0,0,1-.11,0h-.24l-1.67-.08v12h-4Z"/><path class="cls-3" d="M242.63,306h7a14.69,14.69,0,0,1,3.78.59,7.83,7.83,0,0,1,2.89,1.56,6.31,6.31,0,0,1,1.83,2.46,8.16,8.16,0,0,1,.61,3.23,8.08,8.08,0,0,1-.3,2.26,6.38,6.38,0,0,1-.92,1.89,6.29,6.29,0,0,1-1.46,1.54,8.36,8.36,0,0,1-2,1.1c.38.27.74.56,1.09.86a9.31,9.31,0,0,1,1,1c.33.35.64.73,1,1.12s.61.82.91,1.28q.24.4.51.81c.18.27.36.56.55.86s.38.56.57.87.38.62.57.91c.05.09.09.16.12.23a.57.57,0,0,0,.12.18s.06.12.1.18a1.18,1.18,0,0,1,.1.19,3,3,0,0,1,.25.34l.24.35v.06l0,0a.08.08,0,0,0,0,.06s0,0,0,.06l.09.08a.3.3,0,0,0,.08.08c.16.25.34.5.53.76s.38.53.57.83.44.57.69.91.51.7.81,1.08H259.3L255.64,328c-.76-1.17-1.46-2.15-2.09-3a15.2,15.2,0,0,0-1.65-1.81,9.37,9.37,0,0,0-1.4-1,3.79,3.79,0,0,0-1.28-.45h-.11a.3.3,0,0,1-.14,0h-.34a.14.14,0,0,1-.11,0h-.24l-1.67-.08v12h-4Z"/><path class="cls-3" d="M246.61,309.42v8.7h2.56a7.46,7.46,0,0,0,2.67-.26,3.62,3.62,0,0,0,1.65-1,5.06,5.06,0,0,0,.85-1.46,4.69,4.69,0,0,0,.28-1.63v-.08a4.83,4.83,0,0,0-.36-1.75,3.51,3.51,0,0,0-.94-1.3,4.16,4.16,0,0,0-1.68-.85,9.46,9.46,0,0,0-2.47-.29Z"/><path class="cls-1" d="M305.31,307.59v4.52a16.05,16.05,0,0,0-1.75-1.34,7.59,7.59,0,0,0-1.67-.86,9.46,9.46,0,0,0-1.63-.47,8.46,8.46,0,0,0-1.46-.14,5.78,5.78,0,0,0-1.77.25,4.47,4.47,0,0,0-1.4.69,3,3,0,0,0-.92,1,2.91,2.91,0,0,0-.3,1.32,3.38,3.38,0,0,0,.28,1.41,3.89,3.89,0,0,0,.81,1.15,11.8,11.8,0,0,0,1.27,1,15.39,15.39,0,0,0,1.5.94l.49.3.53.31.57.3.57.31a21,21,0,0,1,2.13,1.44,18.91,18.91,0,0,1,2,1.73,5.9,5.9,0,0,1,1.41,2.21,8.65,8.65,0,0,1,.47,3,7.93,7.93,0,0,1-.55,3,7.27,7.27,0,0,1-4.15,4,9,9,0,0,1-3.07.51,15.23,15.23,0,0,1-2.18-.15,12,12,0,0,1-2-.42,15.57,15.57,0,0,1-1.85-.79,12.81,12.81,0,0,1-1.77-1.12V326.5a11,11,0,0,0,1.63,1.8,10.38,10.38,0,0,0,1.79,1.29,8,8,0,0,0,1.91.77,8.27,8.27,0,0,0,2,.24,6.75,6.75,0,0,0,1.69-.2,3.71,3.71,0,0,0,1.28-.61,5.18,5.18,0,0,0,.91-.9,3,3,0,0,0,.51-1,1.1,1.1,0,0,1,0-.18l.06-.23v-.08a.41.41,0,0,1,0-.12v-.2a4,4,0,0,0-.34-1.69,4.06,4.06,0,0,0-1-1.36c-.46-.41-.95-.82-1.48-1.22a19.37,19.37,0,0,0-1.73-1.18l-.35-.19-.38-.22a.88.88,0,0,0-.17-.12l-.16-.12-.16-.1a1,1,0,0,0-.16-.1c-.76-.47-1.49-.95-2.18-1.47s-1.35-1.06-2-1.62a5.47,5.47,0,0,1-1.41-2,6.85,6.85,0,0,1-.46-2.58,7.65,7.65,0,0,1,.57-3,6.62,6.62,0,0,1,1.7-2.35,8,8,0,0,1,2.71-1.53,10.81,10.81,0,0,1,3.44-.51c.27,0,.53,0,.79,0a4.38,4.38,0,0,1,.79.1,4,4,0,0,1,.75.14l.8.22a10.52,10.52,0,0,1,1.56.61,13.29,13.29,0,0,1,1.49.86Z"/><path class="cls-3" d="M305.31,307.59v4.52a16.05,16.05,0,0,0-1.75-1.34,7.59,7.59,0,0,0-1.67-.86,9.46,9.46,0,0,0-1.63-.47,8.46,8.46,0,0,0-1.46-.14,5.78,5.78,0,0,0-1.77.25,4.47,4.47,0,0,0-1.4.69,3,3,0,0,0-.92,1,2.91,2.91,0,0,0-.3,1.32,3.38,3.38,0,0,0,.28,1.41,3.89,3.89,0,0,0,.81,1.15,11.8,11.8,0,0,0,1.27,1,15.39,15.39,0,0,0,1.5.94l.49.3.53.31.57.3.57.31a21,21,0,0,1,2.13,1.44,18.91,18.91,0,0,1,2,1.73,5.9,5.9,0,0,1,1.41,2.21,8.65,8.65,0,0,1,.47,3,7.93,7.93,0,0,1-.55,3,7.27,7.27,0,0,1-4.15,4,9,9,0,0,1-3.07.51,15.23,15.23,0,0,1-2.18-.15,12,12,0,0,1-2-.42,15.57,15.57,0,0,1-1.85-.79,12.81,12.81,0,0,1-1.77-1.12V326.5a11,11,0,0,0,1.63,1.8,10.38,10.38,0,0,0,1.79,1.29,8,8,0,0,0,1.91.77,8.27,8.27,0,0,0,2,.24,6.75,6.75,0,0,0,1.69-.2,3.71,3.71,0,0,0,1.28-.61,5.18,5.18,0,0,0,.91-.9,3,3,0,0,0,.51-1,1.1,1.1,0,0,1,0-.18l.06-.23v-.08a.41.41,0,0,1,0-.12v-.2a4,4,0,0,0-.34-1.69,4.06,4.06,0,0,0-1-1.36c-.46-.41-.95-.82-1.48-1.22a19.37,19.37,0,0,0-1.73-1.18l-.35-.19-.38-.22a.88.88,0,0,0-.17-.12l-.16-.12-.16-.1a1,1,0,0,0-.16-.1c-.76-.47-1.49-.95-2.18-1.47s-1.35-1.06-2-1.62a5.47,5.47,0,0,1-1.41-2,6.85,6.85,0,0,1-.46-2.58,7.65,7.65,0,0,1,.57-3,6.62,6.62,0,0,1,1.7-2.35,8,8,0,0,1,2.71-1.53,10.81,10.81,0,0,1,3.44-.51c.27,0,.53,0,.79,0a4.38,4.38,0,0,1,.79.1,4,4,0,0,1,.75.14l.8.22a10.52,10.52,0,0,1,1.56.61,13.29,13.29,0,0,1,1.49.86Z"/><path class="cls-2" d="M335.87,306h4v27.72h-4Z"/><path class="cls-3" d="M335.87,306h4v27.72h-4Z"/><path class="cls-1" d="M375,309.59v20.56h6.34a13.26,13.26,0,0,0,4-.38,7.52,7.52,0,0,0,2.88-1.45,11.92,11.92,0,0,0,2-2,10,10,0,0,0,1.32-2.19c.08-.19.16-.38.22-.57s.13-.38.19-.57.11-.34.16-.53a5.78,5.78,0,0,0,.12-.57c.05-.38.1-.73.14-1a7.7,7.7,0,0,0,.07-.9,11,11,0,0,0-.7-3.9,10.21,10.21,0,0,0-2.07-3.33,8.25,8.25,0,0,0-3.52-2.3,15.16,15.16,0,0,0-5-.75l-6.14-.08m-4,24.14V306h10.78a19.58,19.58,0,0,1,6.12,1,10.86,10.86,0,0,1,4.37,2.81,16.18,16.18,0,0,1,2.83,3.92,13.18,13.18,0,0,1,1.32,4.33v.25a.42.42,0,0,0,0,.2,1.94,1.94,0,0,0,0,.24,2,2,0,0,1,0,.25v.24a.54.54,0,0,0,0,.2V320a13,13,0,0,1-1,5.06,15.94,15.94,0,0,1-3,4.53,12.2,12.2,0,0,1-4.66,3.15,17,17,0,0,1-6.12,1Z"/><path class="cls-3" d="M371.05,333.73V306h10.78a19.58,19.58,0,0,1,6.12,1,10.86,10.86,0,0,1,4.37,2.81,16.18,16.18,0,0,1,2.83,3.92,13.18,13.18,0,0,1,1.32,4.33v.25a.42.42,0,0,0,0,.2,1.94,1.94,0,0,0,0,.24,2,2,0,0,1,0,.25v.24a.54.54,0,0,0,0,.2V320a13,13,0,0,1-1,5.06,15.94,15.94,0,0,1-3,4.53,12.2,12.2,0,0,1-4.66,3.15,17,17,0,0,1-6.12,1Z"/><path class="cls-3" d="M375,309.59v20.56h6.34a13.26,13.26,0,0,0,4-.38,7.52,7.52,0,0,0,2.88-1.45,11.92,11.92,0,0,0,2-2,9.6,9.6,0,0,0,1.32-2.19c.08-.19.16-.38.22-.57s.13-.38.19-.57.11-.34.16-.53a5.78,5.78,0,0,0,.12-.57c.06-.38.1-.73.14-1.06a7.38,7.38,0,0,0,.07-.89,11,11,0,0,0-.7-3.9,10.21,10.21,0,0,0-2.07-3.33,8.19,8.19,0,0,0-3.52-2.3,15.16,15.16,0,0,0-5-.75Z"/><path class="cls-1" d="M434.79,311.94l-4.15,10h8.62l-4.47-10m1.46-6.09,12.41,27.88h-4.07l-3.7-8.17H429.1l-3.5,8.17h-4.07l11.92-27.88Z"/><polygon class="cls-3" points="436.25 305.85 448.66 333.73 444.59 333.73 440.89 325.56 429.1 325.56 425.6 333.73 421.53 333.73 433.45 305.85 436.25 305.85"/><polygon class="cls-3" points="434.79 311.94 430.64 321.98 439.26 321.98 434.79 311.94"/><path class="cls-1" d="M480.73,309.59v20.56h6.35a13.23,13.23,0,0,0,4-.38,7.64,7.64,0,0,0,2.89-1.45,11.85,11.85,0,0,0,2-2,9.25,9.25,0,0,0,1.32-2.19c.08-.19.16-.38.23-.57s.13-.38.18-.57.11-.34.16-.53a2.9,2.9,0,0,0,.12-.57q.09-.57.15-1a7.54,7.54,0,0,0,.06-.9,11,11,0,0,0-.69-3.9,10.23,10.23,0,0,0-2.08-3.33,8.19,8.19,0,0,0-3.52-2.3,15.12,15.12,0,0,0-5-.75l-6.14-.08m-4,24.14V306h10.78a19.58,19.58,0,0,1,6.12,1,11,11,0,0,1,4.38,2.81,16.41,16.41,0,0,1,2.82,3.92,13.18,13.18,0,0,1,1.32,4.33v.25a.59.59,0,0,0,0,.2,1.94,1.94,0,0,0,0,.24,1,1,0,0,1,0,.25v.24a.39.39,0,0,0,.05.2V320a13,13,0,0,1-1,5.06,15.94,15.94,0,0,1-3,4.53,12.12,12.12,0,0,1-4.66,3.15,17,17,0,0,1-6.12,1Z"/><path class="cls-3" d="M476.74,333.73V306h10.78a19.58,19.58,0,0,1,6.12,1,11,11,0,0,1,4.38,2.81,16.41,16.41,0,0,1,2.82,3.92,13.18,13.18,0,0,1,1.32,4.33v.25a.59.59,0,0,0,0,.2,1.94,1.94,0,0,0,0,.24,1,1,0,0,1,0,.25v.24a.39.39,0,0,0,.05.2V320a13,13,0,0,1-1,5.06,15.94,15.94,0,0,1-3,4.53,12.12,12.12,0,0,1-4.66,3.15,17,17,0,0,1-6.12,1Z"/><path class="cls-3" d="M480.73,309.59v20.56h6.35a13.23,13.23,0,0,0,4-.38,7.64,7.64,0,0,0,2.89-1.45,11.85,11.85,0,0,0,2-2,9.25,9.25,0,0,0,1.32-2.19c.09-.19.16-.38.23-.57s.13-.38.18-.57.11-.34.16-.53a2.9,2.9,0,0,0,.12-.57c.06-.38.11-.73.15-1.06a7.25,7.25,0,0,0,.06-.89,11,11,0,0,0-.69-3.9,10.23,10.23,0,0,0-2.08-3.33,8.19,8.19,0,0,0-3.52-2.3,15.12,15.12,0,0,0-5-.75Z"/><path class="cls-4" d="M394.08,203.05s-4.9,3.08-6.51,5"/><line class="cls-4" x1="356.71" y1="193.45" x2="362.54" y2="199.84"/><line class="cls-5" x1="150.58" y1="194.9" x2="145.91" y2="200.16"/><ellipse class="cls-4" cx="253.57" cy="113.18" rx="112.23" ry="112.21" transform="matrix(1, 0, 0, 1, -0.25, 0.56)"/><path class="cls-2" d="M148.24,121l.1-2.64,7.07.25a15.11,15.11,0,0,0,2.18,0,2.17,2.17,0,0,0,1.32-.76,2.73,2.73,0,0,0,.54-1.7,2.61,2.61,0,0,0-.4-1.69,1.79,1.79,0,0,0-1.1-.72,15.73,15.73,0,0,0-2.21-.19l-7.23-.25.1-2.64,6.86.24a17.88,17.88,0,0,1,3.31.32,3.72,3.72,0,0,1,1.61.85,4,4,0,0,1,1,1.56,6.43,6.43,0,0,1,.31,2.52,7.13,7.13,0,0,1-.53,2.81,4.1,4.1,0,0,1-1.17,1.48,3.73,3.73,0,0,1-1.48.68,15,15,0,0,1-3.32.14l-7-.24"/><polyline class="cls-2" points="162 107.7 149.1 105.66 149.5 103.14 158.98 99.2 150.34 97.83 150.72 95.42 163.62 97.46 163.21 100.07 153.9 103.95 162.38 105.29 162 107.7"/><polyline class="cls-2" points="164.48 94.34 151.81 91.18 152.45 88.62 165.12 91.78 164.48 94.34"/><polyline class="cls-2" points="167.05 85.67 153.19 85.59 154.17 82.91 164.38 83.1 156.39 76.8 157.35 74.17 168.03 82.99 167.05 85.67"/><polyline class="cls-2" points="170.44 76.92 158.7 71.2 162.94 62.52 164.92 63.48 161.84 69.79 164.45 71.06 167.31 65.2 169.29 66.17 166.43 72.03 169.61 73.58 172.8 67.04 174.78 68.01 170.44 76.92"/><path class="cls-1" d="M171.81,59.07l1.12-1.6a9.83,9.83,0,0,0,1.22-2,1.38,1.38,0,0,0,0-.92,1.71,1.71,0,0,0-.65-.78,1.5,1.5,0,0,0-2.07.19c-.15.16-.53.68-1.14,1.55l-1.18,1.69,2.72,1.9m4.65,6.48-10.69-7.48L169,53.52a9.37,9.37,0,0,1,2-2.29,3,3,0,0,1,1.89-.53,3.76,3.76,0,0,1,2,.72,3.5,3.5,0,0,1,1.5,2.09,4.14,4.14,0,0,1-.49,2.8,6.18,6.18,0,0,1,1.7-.52,14.27,14.27,0,0,1,2.6,0l3,.16-1.81,2.58L178,58.43a17.7,17.7,0,0,0-2.37,0,1.91,1.91,0,0,0-.9.34,4.47,4.47,0,0,0-.88,1l-.31.44L178,63.39Z"/><path class="cls-2" d="M181,51.9l1.56-2a3.15,3.15,0,0,0,2,.6,2.83,2.83,0,0,0,1.74-1,2.89,2.89,0,0,0,.91-1.76,1.61,1.61,0,0,0-.48-1.33A1.23,1.23,0,0,0,186,46a2.13,2.13,0,0,0-1.06.31c-.29.15-.9.53-1.85,1.14a7,7,0,0,1-3,1.28,3.38,3.38,0,0,1-2.74-.92,3.26,3.26,0,0,1-1-1.68,3.54,3.54,0,0,1,.13-2.1A6.39,6.39,0,0,1,178,41.89a5.43,5.43,0,0,1,3.31-2,3.85,3.85,0,0,1,3,1l-1.74,2A2.23,2.23,0,0,0,181,42.5a2.59,2.59,0,0,0-1.46.91,3,3,0,0,0-.87,1.62,1,1,0,0,0,.31.86,1,1,0,0,0,.85.26A6.79,6.79,0,0,0,182.11,45a12.27,12.27,0,0,1,2.62-1.43,3.66,3.66,0,0,1,2-.15,3.84,3.84,0,0,1,1.87,1,3.79,3.79,0,0,1,1.11,1.89,3.73,3.73,0,0,1-.13,2.28A7.55,7.55,0,0,1,188,51a5.72,5.72,0,0,1-3.43,2A4.93,4.93,0,0,1,181,51.9"/><polyline class="cls-2" points="193.27 45.24 184.54 35.54 186.5 33.77 195.23 43.47 193.27 45.24"/><path class="cls-1" d="M193.27,31.11l5.08,7L199.94,37a7.84,7.84,0,0,0,1.21-1,2.44,2.44,0,0,0,.54-1.06,2.84,2.84,0,0,0-.19-1.42,8.48,8.48,0,0,0-1.19-2.09,7.6,7.6,0,0,0-1.58-1.72,3,3,0,0,0-1.34-.59,2.51,2.51,0,0,0-1.35.22,12.63,12.63,0,0,0-1.81,1.16l-1,.7m-3.43-.23,3.89-2.83a9,9,0,0,1,2.15-1.25,4.36,4.36,0,0,1,2.29-.19,5.88,5.88,0,0,1,2.25,1,9.75,9.75,0,0,1,2.16,2.25,8.67,8.67,0,0,1,1.31,2.48,5.89,5.89,0,0,1,.23,2.69,4.54,4.54,0,0,1-.89,1.92,7.79,7.79,0,0,1-1.72,1.6l-4,2.9Z"/><path class="cls-1" d="M212.54,25.65l-3.87-3.41.71,5.09,3.16-1.68m6.69,2.3-2.51,1.34-2.39-2.09-4.63,2.45.44,3.14-2.47,1.31L206,20.2l2.47-1.31Z"/><path class="cls-1" d="M220.31,16.16l2.82,8.17,1.85-.64a6.91,6.91,0,0,0,1.46-.64,2.43,2.43,0,0,0,.83-.86,2.8,2.8,0,0,0,.24-1.41,8.73,8.73,0,0,0-.53-2.34,7.54,7.54,0,0,0-1-2.11,3,3,0,0,0-1.11-1,2.51,2.51,0,0,0-1.35-.18,11.35,11.35,0,0,0-2.08.58l-1.12.39m-3.21-1.23,4.54-1.56a8.77,8.77,0,0,1,2.43-.57,4.35,4.35,0,0,1,2.24.49,5.65,5.65,0,0,1,1.87,1.6,9.65,9.65,0,0,1,1.41,2.77,8.58,8.58,0,0,1,.52,2.76,5.8,5.8,0,0,1-.56,2.64,4.78,4.78,0,0,1-1.41,1.58,8.3,8.3,0,0,1-2.11,1l-4.68,1.61Z"/><path class="cls-1" d="M241.79,10.9l.75,8.61,2-.17a7.67,7.67,0,0,0,1.57-.26,2.43,2.43,0,0,0,1-.64,2.76,2.76,0,0,0,.58-1.31,8.7,8.7,0,0,0,.06-2.41,8.1,8.1,0,0,0-.47-2.29,3.06,3.06,0,0,0-.85-1.19,2.63,2.63,0,0,0-1.27-.51,12.39,12.39,0,0,0-2.15.07l-1.18.1m-2.83-2,4.79-.41a9,9,0,0,1,2.49,0,4.44,4.44,0,0,1,2.07,1,5.89,5.89,0,0,1,1.42,2,9.68,9.68,0,0,1,.69,3,8.64,8.64,0,0,1-.15,2.8,5.91,5.91,0,0,1-1.19,2.42,4.75,4.75,0,0,1-1.75,1.2,8,8,0,0,1-2.3.47l-4.93.44Z"/><polyline class="cls-2" points="253.86 20.85 254.31 7.81 263.97 8.15 263.89 10.35 256.88 10.11 256.78 13 263.3 13.23 263.22 15.43 256.7 15.21 256.58 18.74 263.85 18.99 263.77 21.2 253.86 20.85"/><polyline class="cls-2" points="272.16 22.6 275.29 10.04 277.86 10.68 275.26 21.1 281.61 22.68 281.08 24.82 272.16 22.6"/><path class="cls-1" d="M291.88,23.49l.13-5.16-3.45,3.82,3.32,1.34m2.54,6.6L291.78,29l.07-3.18-4.86-2-2.12,2.35-2.59-1L291.87,15l2.59,1Z"/><polyline class="cls-2" points="300.44 33.59 307.55 22.65 315.07 27.53 313.87 29.38 308.56 25.94 306.88 28.54 311.46 31.52 310.26 33.37 305.68 30.39 302.66 35.03 300.44 33.59"/><path class="cls-1" d="M317.26,36.48l1.45,1.31a10,10,0,0,0,1.87,1.46,1.39,1.39,0,0,0,.92.08,1.65,1.65,0,0,0,.85-.55,1.55,1.55,0,0,0,.46-1,1.67,1.67,0,0,0-.4-1c-.14-.16-.6-.6-1.4-1.32L319.48,34l-2.22,2.46m-7,3.83,8.74-9.7,4.12,3.71a9.71,9.71,0,0,1,2,2.3,3,3,0,0,1,.29,1.94,3.8,3.8,0,0,1-.95,1.91,3.5,3.5,0,0,1-2.27,1.23,4.13,4.13,0,0,1-2.72-.82,5.78,5.78,0,0,1,.31,1.75,14.82,14.82,0,0,1-.3,2.57l-.52,3-2.35-2.11.51-3.38a18.41,18.41,0,0,0,.24-2.35,2,2,0,0,0-.23-.94,4.41,4.41,0,0,0-.89-1l-.4-.36-3.64,4.06Z"/><path class="cls-1" d="M326.93,47.14a4.9,4.9,0,0,0-1.92,3,3.53,3.53,0,0,0,3.33,4,5,5,0,0,0,3.27-1.42,4.91,4.91,0,0,0,1.93-2.91,3.65,3.65,0,0,0-3.38-4,5,5,0,0,0-3.23,1.4m-1.82-2a8.42,8.42,0,0,1,3-1.7,6.23,6.23,0,0,1,2.15-.22,4.93,4.93,0,0,1,2,.54,7.24,7.24,0,0,1,2.21,1.82A6.12,6.12,0,0,1,336,50.25a8,8,0,0,1-7.61,6.4,6.06,6.06,0,0,1-4.32-2.37,6.15,6.15,0,0,1-1.62-4.69A6.82,6.82,0,0,1,325.11,45.12Z"/><polyline class="cls-2" points="329.83 61.26 340.9 54.35 342.25 56.52 337.68 65.7 345.1 61.07 346.39 63.14 335.32 70.06 333.93 67.82 338.4 58.79 331.12 63.33 329.83 61.26"/><polyline class="cls-2" points="338.14 75.88 348.05 71.47 346.48 67.94 348.49 67.05 352.7 76.5 350.69 77.4 349.12 73.89 339.21 78.3 338.14 75.88"/><polyline class="cls-2" points="341.58 83.99 354.06 80.17 356.89 89.41 354.78 90.06 352.73 83.35 349.95 84.19 351.86 90.44 349.75 91.08 347.85 84.84 344.46 85.87 346.59 92.83 344.48 93.47 341.58 83.99"/><path class="cls-1" d="M353,97.56l.34,1.92a9.9,9.9,0,0,0,.57,2.3,1.38,1.38,0,0,0,.67.64,1.69,1.69,0,0,0,1,.09,1.62,1.62,0,0,0,1-.53,1.58,1.58,0,0,0,.33-1.07,17.91,17.91,0,0,0-.29-1.9l-.35-2-3.27.57m-7.87-1.29L358,94l1,5.46a9.4,9.4,0,0,1,.19,3.06,3,3,0,0,1-1,1.71,3.75,3.75,0,0,1-1.93.92,3.52,3.52,0,0,1-2.54-.42,4.12,4.12,0,0,1-1.63-2.33,6.2,6.2,0,0,1-.84,1.58,14.27,14.27,0,0,1-1.82,1.83l-2.24,2-.54-3.11,2.47-2.35a18.78,18.78,0,0,0,1.65-1.71,2.1,2.1,0,0,0,.39-.87,4.45,4.45,0,0,0-.08-1.34l-.1-.53-5.37,1Z"/><path class="cls-1" d="M352.8,116.7l4.76-2-4.88-1.59.12,3.57m-5,5-.09-2.84,2.93-1.23-.19-5.24-3-1-.1-2.8,13.22,4.61.1,2.79Z"/><polyline class="cls-2" points="187.79 198.32 192.89 191.55 190.48 189.74 191.51 188.36 197.97 193.23 196.94 194.6 194.54 192.8 189.44 199.56 187.79 198.32"/><polyline class="cls-2" points="194.32 202.91 199.26 193.99 205.86 197.66 205.03 199.16 200.23 196.5 199.13 198.48 203.59 200.95 202.76 202.46 198.3 199.99 196.96 202.4 201.93 205.16 201.1 206.66 194.32 202.91"/><polyline class="cls-2" points="203.88 208.09 207.7 198.64 210.56 199.8 209.66 206.93 213.94 201.16 216.81 202.33 212.99 211.78 211.22 211.06 214.22 203.62 209.35 210.3 207.51 209.56 208.66 201.37 205.65 208.81 203.88 208.09"/><path class="cls-2" d="M219,203l2,.53-1.43,5.34a11.36,11.36,0,0,0-.37,1.66,1.65,1.65,0,0,0,.35,1.14,2.21,2.21,0,0,0,1.2.71,2,2,0,0,0,1.35,0,1.36,1.36,0,0,0,.74-.71,11.24,11.24,0,0,0,.54-1.65l1.45-5.45,2,.54-1.39,5.17a13.08,13.08,0,0,1-.83,2.47,2.79,2.79,0,0,1-.92,1.08,3.07,3.07,0,0,1-1.37.49,5.17,5.17,0,0,1-2-.21,5.44,5.44,0,0,1-2-.9,3,3,0,0,1-.92-1.15,2.84,2.84,0,0,1-.27-1.24,12.2,12.2,0,0,1,.48-2.56L219,203"/><path class="cls-2" d="M234.5,212.86l1.87.92a4.54,4.54,0,0,1-1.9,2.23,4.31,4.31,0,0,1-2.8.38,4.36,4.36,0,0,1-3.08-1.89,5.31,5.31,0,0,1-.7-4,5.57,5.57,0,0,1,1.91-3.7,4.53,4.53,0,0,1,3.64-.85,4.28,4.28,0,0,1,2.83,1.57,4,4,0,0,1,.73,2l-2.08.16a2.17,2.17,0,0,0-.55-1.36,2.21,2.21,0,0,0-1.31-.67,2.33,2.33,0,0,0-1.95.51,4,4,0,0,0-1.1,2.49,4.24,4.24,0,0,0,.25,2.83,2.27,2.27,0,0,0,1.66,1.09,2,2,0,0,0,1.48-.29,3,3,0,0,0,1.1-1.49"/><path class="cls-1" d="M240.79,212.21a3.86,3.86,0,0,0,.66,2.67,2.77,2.77,0,0,0,4.06.22,3.93,3.93,0,0,0,.92-2.62,3.84,3.84,0,0,0-.63-2.65,2.57,2.57,0,0,0-2-1,2.62,2.62,0,0,0-2.1.76,3.84,3.84,0,0,0-.91,2.59m-2.12,0a6.34,6.34,0,0,1,.6-2.59,4.81,4.81,0,0,1,1-1.35,4,4,0,0,1,1.36-.85,5.6,5.6,0,0,1,2.22-.29,4.79,4.79,0,0,1,3.53,1.59,6.27,6.27,0,0,1-.39,7.76,4.75,4.75,0,0,1-3.66,1.2,4.81,4.81,0,0,1-3.54-1.58A5.23,5.23,0,0,1,238.67,212.17Z"/><polyline class="cls-2" points="254.68 213.62 254.61 211.67 256.56 211.6 256.63 213.55 254.68 213.62"/><path class="cls-2" d="M269.83,212.36l2.06.33a4.55,4.55,0,0,1-1.16,2.69,4.8,4.8,0,0,1-6.07.27,5.33,5.33,0,0,1-1.83-3.58,5.55,5.55,0,0,1,.75-4.1,4.52,4.52,0,0,1,3.23-1.88,4.26,4.26,0,0,1,3.16.68,4.1,4.1,0,0,1,1.3,1.72l-1.95.76a2.11,2.11,0,0,0-2.37-1.39,2.31,2.31,0,0,0-1.71,1.06,4,4,0,0,0-.33,2.7,4.28,4.28,0,0,0,1.07,2.63,2.25,2.25,0,0,0,1.91.56,2,2,0,0,0,1.33-.71,3.07,3.07,0,0,0,.61-1.74"/><polyline class="cls-2" points="275.43 215.09 272.79 205.24 274.78 204.71 275.82 208.59 279.7 207.55 278.66 203.67 280.65 203.14 283.3 212.99 281.3 213.52 280.15 209.22 276.27 210.25 277.42 214.56 275.43 215.09"/><polyline class="cls-2" points="286.06 212.16 282.74 202.52 284.69 201.85 288.02 211.49 286.06 212.16"/><polyline class="cls-2" points="290.67 210.64 286.71 201.33 288.61 200.53 291.9 208.25 296.6 206.25 297.27 207.84 290.67 210.64"/><polyline class="cls-2" points="299.68 206.7 294.73 197.79 301.33 194.13 302.17 195.64 297.37 198.29 298.47 200.27 302.93 197.81 303.77 199.31 299.31 201.78 300.65 204.2 305.62 201.45 306.45 202.95 299.68 206.7"/><path class="cls-2" d="M130.78,212.61l-.16.11-2.31-3.18.16-.12.15.21a1,1,0,0,0,.4.35.51.51,0,0,0,.35,0,2.5,2.5,0,0,0,.61-.37l4-2.93a2.65,2.65,0,0,0,.56-.48.63.63,0,0,0,.06-.35,1.12,1.12,0,0,0-.21-.47l-.15-.2.16-.12,2.31,3.19-.15.11-.15-.2a1,1,0,0,0-.4-.36.58.58,0,0,0-.35,0,2.2,2.2,0,0,0-.61.37l-4,2.93a2.25,2.25,0,0,0-.55.48.61.61,0,0,0-.06.35.92.92,0,0,0,.21.47l.14.2"/><path class="cls-2" d="M142.59,215.5,141,216.81l-.13-.15a3.25,3.25,0,0,0,.53-.95,1.59,1.59,0,0,0,0-.78,1.87,1.87,0,0,0-.4-.63l-.37-.44-4.47,3.76a2.66,2.66,0,0,0-.52.51.6.6,0,0,0,0,.36,1.11,1.11,0,0,0,.24.45l.16.19-.15.13-2.53-3,.15-.12.16.19a1.06,1.06,0,0,0,.43.33.52.52,0,0,0,.35,0,2.5,2.5,0,0,0,.58-.41l4.48-3.76-.36-.41a1.56,1.56,0,0,0-.95-.64,2.18,2.18,0,0,0-1.38.36l-.14-.17,1.57-1.31,4.36,5.2"/><path class="cls-2" d="M141.65,225.27l-.14.13-2.74-2.83.14-.13.18.18a1,1,0,0,0,.45.29.48.48,0,0,0,.35,0,3.07,3.07,0,0,0,.55-.45L144,219a2.78,2.78,0,0,0,.49-.55.62.62,0,0,0,0-.36.92.92,0,0,0-.27-.44l-.17-.18.13-.13,2.74,2.83-.14.13-.17-.17a1,1,0,0,0-.45-.3.61.61,0,0,0-.35,0,2.69,2.69,0,0,0-.56.45l-3.58,3.46a2.34,2.34,0,0,0-.48.56.51.51,0,0,0,0,.35,1,1,0,0,0,.26.44l.18.18"/><path class="cls-2" d="M150.48,223.57l-.47,6,2.21-2.37a1.58,1.58,0,0,0,.49-.81,1.08,1.08,0,0,0-.44-.85l.13-.14,1.83,1.7-.13.15a2.17,2.17,0,0,0-.58-.33.76.76,0,0,0-.41.06,2.2,2.2,0,0,0-.59.5l-4.29,4.6-.14-.13.57-8.09-3.29,3.53a1.07,1.07,0,0,0-.39.85,1.1,1.1,0,0,0,.35.64l.13.12-.14.14-2-1.83.13-.15a1.2,1.2,0,0,0,.81.41,1.24,1.24,0,0,0,.77-.46l3.65-3.91v-.25a1,1,0,0,0-.34-1l.13-.14,2,1.83"/><path class="cls-2" d="M158,230.74l-1.9,2.43.12.09a1.23,1.23,0,0,0,1.1.29,2.8,2.8,0,0,0,1.15-.8l.17.14L156.23,236l-.17-.14a3,3,0,0,0,.43-1,1.19,1.19,0,0,0-.05-.74,1.85,1.85,0,0,0-.57-.62l-1.3,1.67a2.87,2.87,0,0,0-.43.64.45.45,0,0,0,0,.3,1.07,1.07,0,0,0,.32.36l.35.27a2.68,2.68,0,0,0,1.64.66,2.64,2.64,0,0,0,1.64-.61l.17.13-1.75,1.68-5.14-4,.12-.16.19.16a1.08,1.08,0,0,0,.49.23.49.49,0,0,0,.34-.08,2.25,2.25,0,0,0,.49-.52l3.06-3.92a3.67,3.67,0,0,0,.37-.52.6.6,0,0,0,0-.37,1,1,0,0,0-.36-.48l-.2-.15.12-.15,5,3.89-1.37,1.76-.18-.14a2.55,2.55,0,0,0,.37-1.2,1.63,1.63,0,0,0-.32-.92,4.37,4.37,0,0,0-.86-.8l-.62-.48"/><path class="cls-1" d="M165.58,236.28,163.74,239l.26.18a3.48,3.48,0,0,0,1,.53,1.14,1.14,0,0,0,.79-.08,1.84,1.84,0,0,0,.72-.68,1.75,1.75,0,0,0,.38-1.28,1.78,1.78,0,0,0-.85-1.06l-.5-.34m-2.07,3.07-1.19,1.76a2.47,2.47,0,0,0-.37.68.59.59,0,0,0,.08.36,1.78,1.78,0,0,0,.54.48l-.11.16-3.21-2.16.11-.17a1.59,1.59,0,0,0,.64.32.53.53,0,0,0,.36-.06,2.27,2.27,0,0,0,.49-.59l2.77-4.1a2.63,2.63,0,0,0,.37-.68.61.61,0,0,0-.08-.36,1.79,1.79,0,0,0-.54-.47l.11-.16,2.91,2A7.63,7.63,0,0,1,168,237.6a2,2,0,0,1,.47,1.16,1.88,1.88,0,0,1-.34,1.22,1.81,1.81,0,0,1-1.27.81,2.51,2.51,0,0,1-1.19-.17l.07,3.13a4.22,4.22,0,0,0,.08.8,1,1,0,0,0,.34.45l-.12.17-2-1.33-.09-4.22Z"/><path class="cls-1" d="M173.13,246.39l.31-2.79-2.28,1.65,2,1.14m0,.45-2.29-1.33-.65.48a1.52,1.52,0,0,0-.44.45.5.5,0,0,0,0,.54,2.24,2.24,0,0,0,.57.49l-.09.17L168,246.38l.1-.17a1.08,1.08,0,0,0,.75,0,4.57,4.57,0,0,0,1.13-.67l5.35-3.87.09,0-.73,6.73a4.14,4.14,0,0,0,0,1.29.86.86,0,0,0,.36.44l-.09.17-3.17-1.83.1-.16.13.07a1.1,1.1,0,0,0,.6.2.27.27,0,0,0,.23-.16.7.7,0,0,0,.08-.2s0-.18.07-.45Z"/><path class="cls-1" d="M183,246.46l-1.44,3,.28.14a3.91,3.91,0,0,0,1.11.38,1.19,1.19,0,0,0,.77-.2,1.87,1.87,0,0,0,.62-.76,1.48,1.48,0,0,0-.8-2.27l-.54-.26m-1.62,3.33-.93,1.91a2.28,2.28,0,0,0-.27.73.54.54,0,0,0,.13.34,1.7,1.7,0,0,0,.59.4l-.08.17-3.48-1.69.09-.18a1.7,1.7,0,0,0,.68.23.54.54,0,0,0,.34-.12,2.1,2.1,0,0,0,.41-.65l2.16-4.44a2.28,2.28,0,0,0,.27-.73.52.52,0,0,0-.12-.34,2.07,2.07,0,0,0-.6-.4l.09-.17,3.15,1.54a7.29,7.29,0,0,1,1.72,1.05,2,2,0,0,1,.63,1.08,1.85,1.85,0,0,1-.17,1.26,1.77,1.77,0,0,1-1.14,1,2.56,2.56,0,0,1-1.2,0l.51,3.1a4.16,4.16,0,0,0,.18.77,1,1,0,0,0,.4.41l-.09.18-2.14-1-.68-4.17Z"/><path class="cls-2" d="M190.66,257.47l-.08.18-3.64-1.47L187,256l.23.09a1.08,1.08,0,0,0,.53.09.57.57,0,0,0,.31-.17,2.37,2.37,0,0,0,.32-.63l1.87-4.62a2.63,2.63,0,0,0,.22-.7.53.53,0,0,0-.14-.33.92.92,0,0,0-.42-.29l-.23-.1.07-.18,3.65,1.48-.07.18-.24-.1a1,1,0,0,0-.53-.08.58.58,0,0,0-.31.16,2.37,2.37,0,0,0-.32.63l-1.87,4.63a2.64,2.64,0,0,0-.21.7.63.63,0,0,0,.13.33,1,1,0,0,0,.43.29l.23.09"/><path class="cls-2" d="M195.55,251.55l3.67,1.34-.07.18L199,253a1.39,1.39,0,0,0-.6-.12.55.55,0,0,0-.31.16,2.93,2.93,0,0,0-.35.75l-1.26,3.47a3.91,3.91,0,0,0-.32,1.32,1.24,1.24,0,0,0,.29.68,1.6,1.6,0,0,0,.76.51,1.92,1.92,0,0,0,1.07.1,1.75,1.75,0,0,0,.87-.5,4.8,4.8,0,0,0,.78-1.51l1-2.9a1.69,1.69,0,0,0,.15-.72.69.69,0,0,0-.15-.38,1.49,1.49,0,0,0-.62-.36l.07-.18,2.45.89-.07.18-.14,0a1,1,0,0,0-.54-.06.73.73,0,0,0-.42.26,2,2,0,0,0-.29.58l-1,2.7a7.87,7.87,0,0,1-.82,1.75,2.2,2.2,0,0,1-1.18.73,3.11,3.11,0,0,1-1.91-.17,3.53,3.53,0,0,1-1.33-.76,2.25,2.25,0,0,1-.66-1.22,3.25,3.25,0,0,1,.23-1.51l1.27-3.47a2.66,2.66,0,0,0,.21-.8.56.56,0,0,0-.15-.32,1.4,1.4,0,0,0-.59-.31l.07-.19"/><path class="cls-2" d="M208.78,261.1l3.28-4.28,3,.79-.05.19-.24-.07a1.16,1.16,0,0,0-.55,0,.57.57,0,0,0-.28.2,2.57,2.57,0,0,0-.24.67l-1.29,4.81a2.38,2.38,0,0,0-.13.72.56.56,0,0,0,.17.32,1,1,0,0,0,.46.23l.24.06-.05.19-3.8-1,.05-.18.23.06a1,1,0,0,0,.55,0,.48.48,0,0,0,.28-.2,2,2,0,0,0,.25-.67l1.44-5.4-4.58,5.9-.13,0L206.27,256l-1.37,5.14a5.77,5.77,0,0,0-.16.67.83.83,0,0,0,.19.52,1.31,1.31,0,0,0,.69.37l-.05.19-2.5-.67.05-.19.08,0a1.09,1.09,0,0,0,.47,0,.72.72,0,0,0,.38-.14.92.92,0,0,0,.27-.35s.07-.22.16-.55l1.24-4.62a2.66,2.66,0,0,0,.13-.72.56.56,0,0,0-.18-.31,1,1,0,0,0-.46-.24l-.23-.06.05-.19,3,.8.77,5.37"/><path class="cls-2" d="M226.07,264.89l2.82-4.6,3,.48,0,.19-.24,0a1.08,1.08,0,0,0-.55,0,.61.61,0,0,0-.26.23,2.47,2.47,0,0,0-.17.69l-.78,4.92a2.33,2.33,0,0,0,0,.73.5.5,0,0,0,.21.29,1.07,1.07,0,0,0,.48.19l.24,0,0,.19-3.89-.62,0-.19.24,0a1.21,1.21,0,0,0,.55,0,.57.57,0,0,0,.26-.23,2.71,2.71,0,0,0,.17-.69L229,261,225,267.33l-.13,0-1.84-7.21-.83,5.25a3.91,3.91,0,0,0-.08.69.81.81,0,0,0,.24.5,1.27,1.27,0,0,0,.72.29l0,.2-2.55-.41,0-.19h.07a1.1,1.1,0,0,0,.48,0,.76.76,0,0,0,.36-.17,1.24,1.24,0,0,0,.24-.38s0-.23.1-.57l.75-4.72a2.7,2.7,0,0,0,0-.73.61.61,0,0,0-.21-.29,1,1,0,0,0-.48-.19l-.24,0,0-.19,3,.48,1.33,5.26"/><path class="cls-2" d="M237,261.68l-.27,3.07.15,0a1.2,1.2,0,0,0,1.08-.36,2.77,2.77,0,0,0,.52-1.29l.22,0-.34,3.94-.22,0a3,3,0,0,0-.19-1.08,1.23,1.23,0,0,0-.45-.59,2,2,0,0,0-.81-.22l-.18,2.12a2.91,2.91,0,0,0,0,.77.51.51,0,0,0,.18.24.9.9,0,0,0,.46.13l.45,0a2.7,2.7,0,0,0,1.73-.34,2.76,2.76,0,0,0,1-1.41l.2,0-.55,2.37-6.5-.57,0-.2.25,0a1,1,0,0,0,.53-.07.5.5,0,0,0,.25-.25,2.18,2.18,0,0,0,.12-.7l.43-5a4.35,4.35,0,0,0,0-.63.45.45,0,0,0-.18-.32.9.9,0,0,0-.56-.21l-.25,0,0-.2,6.3.55-.2,2.23-.22,0a2.65,2.65,0,0,0-.34-1.21,1.71,1.71,0,0,0-.78-.59,4.1,4.1,0,0,0-1.15-.21l-.78-.07"/><path class="cls-2" d="M246.13,262l3.56,4.81.12-3.24a1.58,1.58,0,0,0-.17-.94,1,1,0,0,0-.88-.34V262l2.5.09v.19a1.92,1.92,0,0,0-.65.14.62.62,0,0,0-.26.31,2.08,2.08,0,0,0-.12.76l-.22,6.29h-.19l-4.88-6.48-.17,4.82a1,1,0,0,0,.27.89,1.1,1.1,0,0,0,.67.26h.18v.2l-2.69-.1v-.19a.94.94,0,0,0,1.16-1.08l.19-5.34-.16-.2a1.48,1.48,0,0,0-.4-.42,1.37,1.37,0,0,0-.53-.13v-.19l2.67.09"/><path class="cls-2" d="M260.56,261.91l.07,2h-.19a3.07,3.07,0,0,0-.44-1,1.45,1.45,0,0,0-.61-.47,1.94,1.94,0,0,0-.74-.08l-.57,0,.2,5.84a2.22,2.22,0,0,0,.09.73.51.51,0,0,0,.26.24,1,1,0,0,0,.5.1h.25v.19l-3.94.14v-.2h.24a1.15,1.15,0,0,0,.53-.14.56.56,0,0,0,.21-.28,2.33,2.33,0,0,0,0-.71l-.21-5.83-.54,0a1.5,1.5,0,0,0-1.09.36,2.15,2.15,0,0,0-.57,1.3h-.21l-.07-2,6.78-.24"/><path class="cls-2" d="M267.39,268.92l0,.19-3.93.28v-.2h.25a1.07,1.07,0,0,0,.52-.16.5.5,0,0,0,.2-.28,2.39,2.39,0,0,0,0-.71l-.35-5a2.3,2.3,0,0,0-.11-.73.54.54,0,0,0-.26-.23,1,1,0,0,0-.51-.08l-.25,0,0-.19,3.93-.28v.19l-.24,0a1.19,1.19,0,0,0-.52.15.59.59,0,0,0-.21.29,2.83,2.83,0,0,0,0,.71l.35,5a3.15,3.15,0,0,0,.11.73.57.57,0,0,0,.27.23,1,1,0,0,0,.51.08l.24,0"/><path class="cls-2" d="M274.24,260.57l.37,2.5-.23,0a2.59,2.59,0,0,0-1-1.41,2,2,0,0,0-1.43-.4,1.23,1.23,0,0,0-.85.41.9.9,0,0,0-.25.73.87.87,0,0,0,.17.43,1.88,1.88,0,0,0,.58.45,11.74,11.74,0,0,0,1.28.5,5.42,5.42,0,0,1,1.93,1,2.09,2.09,0,0,1,.61,1.26,2.15,2.15,0,0,1-.53,1.71,2.65,2.65,0,0,1-1.78.9,3.11,3.11,0,0,1-.68,0,5.31,5.31,0,0,1-.83-.17,1.33,1.33,0,0,0-.45-.06.54.54,0,0,0-.29.15.89.89,0,0,0-.22.37l-.19,0-.35-2.83.2,0a3.22,3.22,0,0,0,1.16,1.71,2.19,2.19,0,0,0,1.57.44,1.39,1.39,0,0,0,.95-.46,1,1,0,0,0,.27-.83,1.08,1.08,0,0,0-.2-.5,1.89,1.89,0,0,0-.49-.42,7.1,7.1,0,0,0-1.09-.45,8.89,8.89,0,0,1-1.58-.68,2.67,2.67,0,0,1-.78-.71,2.09,2.09,0,0,1,.11-2.54,2.34,2.34,0,0,1,1.59-.83,2.81,2.81,0,0,1,.71,0,4.18,4.18,0,0,1,.67.16,1.54,1.54,0,0,0,.54.12A.29.29,0,0,0,274,261a1,1,0,0,0,.1-.44l.17,0"/><path class="cls-1" d="M286.44,263.9l-1.6-2.31-.64,2.74,2.24-.43m.26.37-2.6.5-.18.79a1.58,1.58,0,0,0,0,.63.53.53,0,0,0,.34.42,2.07,2.07,0,0,0,.76,0l0,.19-2.46.48,0-.19a1.1,1.1,0,0,0,.59-.46,4.46,4.46,0,0,0,.42-1.26l1.49-6.42.11,0,3.86,5.55a3.83,3.83,0,0,0,.84,1,.84.84,0,0,0,.56.1l0,.19-3.59.7,0-.19.14,0a1.22,1.22,0,0,0,.59-.24.31.31,0,0,0,.07-.28,1.59,1.59,0,0,0-.07-.2l-.25-.38Z"/><path class="cls-1" d="M293.91,257.5l1.53,5.7a1.93,1.93,0,0,0,.19.54.35.35,0,0,0,.19.12,1,1,0,0,0,.44,0,1.69,1.69,0,0,0,1.21-1,4.33,4.33,0,0,0,0-2.74,5,5,0,0,0-1-2.13,2,2,0,0,0-1.15-.65,3.53,3.53,0,0,0-1.33.18m-.93,7.64-.05-.19.24-.06a.94.94,0,0,0,.46-.23.6.6,0,0,0,.18-.34,2.52,2.52,0,0,0-.14-.7l-1.29-4.81a2.67,2.67,0,0,0-.24-.69.57.57,0,0,0-.31-.19,1,1,0,0,0-.51,0l-.24.06-.05-.18,3.26-.88a5.57,5.57,0,0,1,2.2-.21,3.22,3.22,0,0,1,1.83.93,4.16,4.16,0,0,1,1,1.86,4,4,0,0,1,.13,1.49,3.33,3.33,0,0,1-.35,1.24,3.41,3.41,0,0,1-.72.92,5,5,0,0,1-1.16.73,5.31,5.31,0,0,1-1,.35Z"/><path class="cls-2" d="M312.44,251.09l.07.18a1.24,1.24,0,0,0-.54.66,7,7,0,0,0-.2,1.48l-.46,6.32-.17.06L306.66,255a7.91,7.91,0,0,0-1-1,.92.92,0,0,0-.65,0l-.06-.19,3.39-1.23.06.18-.11,0a1.22,1.22,0,0,0-.59.34.28.28,0,0,0,0,.28.78.78,0,0,0,.12.21c.06.08.24.28.54.59l2.8,3,.25-3.65a8.12,8.12,0,0,0,0-.88,1.49,1.49,0,0,0-.06-.36.53.53,0,0,0-.19-.25.54.54,0,0,0-.31-.09,1.64,1.64,0,0,0-.63.12l-.07-.18,2.32-.84"/><path class="cls-2" d="M317.26,249.49l1.25,2.82.14-.06a1.22,1.22,0,0,0,.77-.84,2.76,2.76,0,0,0-.17-1.38l.2-.09,1.61,3.62-.19.08a3.1,3.1,0,0,0-.69-.85,1.25,1.25,0,0,0-.69-.3,2,2,0,0,0-.81.2l.87,1.95a2.47,2.47,0,0,0,.36.67.49.49,0,0,0,.27.13.94.94,0,0,0,.46-.11l.42-.19a2.71,2.71,0,0,0,1.35-1.13,2.79,2.79,0,0,0,.23-1.74l.19-.08.66,2.33-6,2.66-.08-.18.23-.1a1,1,0,0,0,.43-.33.48.48,0,0,0,.1-.33,2.52,2.52,0,0,0-.23-.67L316,251a5.25,5.25,0,0,0-.28-.56.58.58,0,0,0-.32-.2.93.93,0,0,0-.59.09l-.23.1-.07-.17,5.77-2.57.91,2-.2.09a2.74,2.74,0,0,0-.89-.89,1.71,1.71,0,0,0-1-.15,4.89,4.89,0,0,0-1.1.38l-.72.32"/><path class="cls-1" d="M325.71,245.51l1.5,2.94.28-.15a3.26,3.26,0,0,0,1-.65,1.15,1.15,0,0,0,.31-.73,1.84,1.84,0,0,0-.24-1,1.74,1.74,0,0,0-.94-1,1.77,1.77,0,0,0-1.34.23l-.54.27m1.68,3.29,1,1.9a2.33,2.33,0,0,0,.42.65.51.51,0,0,0,.35.11,1.69,1.69,0,0,0,.67-.24l.09.17-3.44,1.76-.09-.17a1.83,1.83,0,0,0,.59-.41.62.62,0,0,0,.12-.35,2.84,2.84,0,0,0-.28-.72l-2.25-4.4a2.32,2.32,0,0,0-.41-.65.58.58,0,0,0-.35-.1,1.83,1.83,0,0,0-.68.23l-.09-.17,3.13-1.59a7.1,7.1,0,0,1,1.88-.74,2,2,0,0,1,1.24.15,1.92,1.92,0,0,1,.9.88,1.82,1.82,0,0,1,.09,1.51,2.42,2.42,0,0,1-.72.95l2.78,1.46a3.66,3.66,0,0,0,.73.32.92.92,0,0,0,.56-.08l.09.19-2.12,1.08-3.74-2Z"/><path class="cls-2" d="M339.08,245.94l.1.17-3.38,2-.1-.17.22-.13a1.07,1.07,0,0,0,.39-.37.56.56,0,0,0,.05-.35,2.5,2.5,0,0,0-.31-.63l-2.57-4.28a2.33,2.33,0,0,0-.43-.59.57.57,0,0,0-.34-.09.94.94,0,0,0-.49.16l-.21.13-.1-.16,3.37-2,.1.17-.21.12a1.08,1.08,0,0,0-.39.37.51.51,0,0,0-.06.35,2.5,2.5,0,0,0,.31.64l2.57,4.27a2.39,2.39,0,0,0,.43.59.54.54,0,0,0,.35.1,1,1,0,0,0,.48-.17l.22-.13"/><path class="cls-2" d="M343,234.52l1.14,1.69-.16.11a3.13,3.13,0,0,0-.89-.62,1.53,1.53,0,0,0-.77-.08,1.9,1.9,0,0,0-.67.33l-.48.32,3.27,4.84a2.19,2.19,0,0,0,.46.57.55.55,0,0,0,.35.08,1.14,1.14,0,0,0,.48-.19l.2-.14.11.16-3.26,2.2-.11-.16.21-.14a1,1,0,0,0,.36-.39.51.51,0,0,0,0-.35,2.34,2.34,0,0,0-.34-.62l-3.27-4.84-.45.3a1.61,1.61,0,0,0-.74.89,2.12,2.12,0,0,0,.22,1.4l-.18.12-1.14-1.69,5.62-3.79"/><path class="cls-1" d="M350.86,234.81l-2.48-1.34.68,2.74,1.8-1.4m.39.21-2.08,1.63.19.78a1.58,1.58,0,0,0,.26.58.52.52,0,0,0,.49.22,2.22,2.22,0,0,0,.67-.35l.12.15-2,1.55-.12-.15a1.16,1.16,0,0,0,.32-.68,4.93,4.93,0,0,0-.2-1.31L347.33,231l.09-.06,6,3.2a4.14,4.14,0,0,0,1.19.49.87.87,0,0,0,.55-.17l.12.15-2.88,2.25-.12-.15.12-.1a1.15,1.15,0,0,0,.41-.47.29.29,0,0,0-.06-.28.75.75,0,0,0-.16-.15l-.39-.23Z"/><path class="cls-2" d="M356.87,223.07l1.37,1.52-.14.13a3.13,3.13,0,0,0-1-.49,1.45,1.45,0,0,0-.77,0,1.75,1.75,0,0,0-.62.42l-.42.38,3.9,4.34a2.43,2.43,0,0,0,.54.5.6.6,0,0,0,.36,0,1,1,0,0,0,.44-.26l.19-.16.13.14-2.93,2.63-.13-.14L358,232a1,1,0,0,0,.31-.44.54.54,0,0,0,0-.35,2.12,2.12,0,0,0-.42-.56L354,226.28l-.41.36a1.63,1.63,0,0,0-.6,1,2.11,2.11,0,0,0,.41,1.36l-.16.15-1.37-1.52,5-4.54"/><path class="cls-2" d="M360.93,219.61l2.22,2.14.1-.11a1.2,1.2,0,0,0,.4-1.07,2.73,2.73,0,0,0-.67-1.22l.15-.15L366,222l-.15.15a3.1,3.1,0,0,0-1-.53,1.19,1.19,0,0,0-.74,0,1.91,1.91,0,0,0-.68.5l1.53,1.48a3.15,3.15,0,0,0,.59.49.44.44,0,0,0,.3,0,.88.88,0,0,0,.39-.27l.31-.33a2.7,2.7,0,0,0,.83-1.56,2.74,2.74,0,0,0-.44-1.69l.15-.15,1.49,1.91-4.54,4.7-.14-.14.18-.18a1,1,0,0,0,.28-.46.49.49,0,0,0,0-.35,2.29,2.29,0,0,0-.47-.53l-3.58-3.46a3.83,3.83,0,0,0-.48-.42.52.52,0,0,0-.36-.07.94.94,0,0,0-.51.31l-.18.18-.14-.14,4.39-4.54,1.61,1.55-.15.16a2.72,2.72,0,0,0-1.16-.5,1.8,1.8,0,0,0-.95.23,4.62,4.62,0,0,0-.88.77l-.55.57"/><path class="cls-2" d="M372.32,213.47l-2.66-4.7,1.88-2.41.16.12-.15.2a1,1,0,0,0-.24.49.55.55,0,0,0,.08.34,2.08,2.08,0,0,0,.52.48l3.93,3.07a2.48,2.48,0,0,0,.61.4.53.53,0,0,0,.36,0,1,1,0,0,0,.39-.33l.15-.19.15.12-2.42,3.1-.15-.12.15-.19a1.16,1.16,0,0,0,.24-.49.59.59,0,0,0-.08-.35,2.91,2.91,0,0,0-.52-.48l-4.41-3.44,3.64,6.52-.09.11-7.19-1.89,4.19,3.27a5,5,0,0,0,.56.41.86.86,0,0,0,.55,0,1.35,1.35,0,0,0,.61-.49l.15.12-1.59,2-.15-.12,0-.06a1.09,1.09,0,0,0,.23-.42.83.83,0,0,0,0-.41,1.12,1.12,0,0,0-.22-.39l-.44-.36-3.77-2.94a2.69,2.69,0,0,0-.61-.4.53.53,0,0,0-.36,0,.92.92,0,0,0-.4.33l-.15.19-.15-.12,1.9-2.43,5.24,1.39"/><path class="cls-2" d="M280.11,30c-8-2.27-11.92-3.17-18.56-3.51,0,6.48-.23,20.36.12,21.06,8.44-2,13.8-7.89,18.44-17.55"/><path class="cls-2" d="M228.91,30.25c8-2.27,11.93-3.18,18.56-3.52,0,6.49.24,20.37-.12,21.07-8.44-2-13.8-7.89-18.44-17.55"/><path class="cls-2" d="M177.29,73.6c7.53-16.28,20.16-28.91,37.41-38.14,5.1,12.88,16.56,25.22,33,27.51V86.91c-7.78,2.7-18,11.18-19.74,19H204.74C202,90.39,189.19,77,177.29,73.6"/><path class="cls-2" d="M167.42,105.9a86.33,86.33,0,0,1,3.67-18.56c6.93,3,15.1,9.29,17.62,18.56H167.42"/><path class="cls-2" d="M331.79,73.6c-7.53-16.28-20.17-28.91-37.41-38.14-5.1,12.88-16.52,25.22-33,27.51V86.74c7.77,2.69,18,11.35,19.78,19.16h23.18c2.74-15.51,15.54-28.9,27.45-32.3"/><path class="cls-2" d="M341.65,105.9A85.72,85.72,0,0,0,338,87.34c-6.93,3-15.1,9.29-17.62,18.56h21.28"/><path class="cls-2" d="M229.34,196.86c8,2.26,11.92,3.17,18.56,3.51,0-6.49.23-20.37-.13-21.07-8.44,2-13.8,7.9-18.43,17.56"/><path class="cls-2" d="M280.53,196.61c-8,2.26-11.92,3.17-18.56,3.51,0-6.49-.23-20.37.13-21.07,8.44,2,13.79,7.9,18.43,17.56"/><path class="cls-2" d="M332.16,153.26c-7.53,16.27-20.17,28.9-37.41,38.13-5.11-12.87-16.56-25.22-33-27.51V139.94c7.77-2.7,18-11.17,19.74-19h23.26c2.74,15.5,15.54,28.9,27.45,32.3"/><path class="cls-2" d="M342,121a85.76,85.76,0,0,1-3.67,18.55c-6.92-3-15.1-9.28-17.61-18.55H342"/><path class="cls-2" d="M177.66,153.26c7.53,16.27,20.16,28.9,37.41,38.13,5.1-12.87,16.51-25.22,33-27.51V140.12c-7.77-2.7-18-11.35-19.78-19.16H205.11c-2.74,15.5-15.55,28.9-27.45,32.3"/><path class="cls-2" d="M167.79,121a86.36,86.36,0,0,0,3.67,18.55c6.93-3,15.1-9.28,17.61-18.55H167.79"/><line class="cls-6" x1="112.34" y1="216.18" x2="138.45" y2="192.24"/><line class="cls-6" x1="394.41" y1="216.9" x2="370.94" y2="191.67"/><line class="cls-6" x1="415.86" y1="198.98" x2="398.18" y2="177.03"/><path class="cls-5" d="M399.81,180.41c0,3.8-4.93,8.53-11.92,8.53s-9.37-4.47-8-8c.67-1.78,2.24-6.31,3.38-7.78"/><line class="cls-5" x1="106.06" y1="208.21" x2="128.02" y2="185.94"/><path class="cls-5" d="M111.67,175.29c-4.68,4.48-3,11.6,5.18,12.92,6.9,1.12,12.91-3.28,11.87-6.94a40.48,40.48,0,0,0-3.09-7.57"/><path class="cls-4" d="M110.92,175.67c-5.34,4.37-21,22.1-21,22.1-.36,4.13.75,7.46,4.25,9.59,5.21,3.17,10.3,5.85,18.85-6.16l4.35,4a24.63,24.63,0,0,1,3.42,3.8l-8.4,7.25c27.94,38.61,89.29,69.92,151.34,65.33,47.19-3.49,86.31-15.4,130.33-63.9"/><path class="cls-5" d="M150.74,194.74c-.62-3.74-4.51-8.55-9.14-13.83-5.25-6-10.69-8.31-16.88-7.42l-12.22,12.7"/><line class="cls-5" x1="138.94" y1="192.4" x2="150.11" y2="194.9"/><path class="cls-5" d="M394.4,185.81c-.48,0-8.68-10.47-10.14-12.41-8.26-1.46-12.17,2.62-17.06,6.15s-8.38,9.14-10.65,13.78l13.65-1.83c-17.27,26.41-71.15,55.26-116.2,54.11-52.88-1.34-94.37-24.61-115.06-53.21"/><path class="cls-5" d="M416.11,199.34c0,3.79-2.48,9.31-12,9.54a7.44,7.44,0,0,1-5.61-1.61c-7.08-7.66-17.62-21-18.42-21.21"/></g></g></svg>