<?xml version="1.0"?>
<svg xmlns="http://www.w3.org/2000/svg" height="512px" viewBox="0 -62 512 512" width="512px"><path d="m502 309.34375h-11v-279.171875c0-16.636719-13.535156-30.171875-30.171875-30.171875h-409.65625c-16.636719 0-30.171875 13.535156-30.171875 30.171875v279.171875h-11c-5.523438 0-10 4.476562-10 10v28.390625c0 21.835937 17.765625 39.601563 39.601562 39.601563h432.796876c21.835937 0 39.601562-17.765626 39.601562-39.601563v-28.390625c0-5.523438-4.476562-10-10-10zm-461-279.171875c0-5.609375 4.5625-10.171875 10.171875-10.171875h409.65625c5.609375 0 10.171875 4.5625 10.171875 10.171875v279.171875h-20v-259.34375c0-5.523438-4.476562-10-10-10h-370c-5.523438 0-10 4.476562-10 10v259.34375h-20zm451 317.558594c0 10.808593-8.792969 19.605469-19.601562 19.605469h-432.796876c-10.808593 0-19.601562-8.796876-19.601562-19.605469v-18.386719h270.671875c5.523437 0 10-4.480469 10-10 0-5.523438-4.476563-10-10-10h-209.671875v-249.34375h350v249.34375h-23.332031c-5.523438 0-10 4.476562-10 10s4.476562 10 10 10h84.332031zm0 0" fill="#1e497d"/><path d="m349.671875 329.347656c-.652344 0-1.3125-.070312-1.960937-.199218-.640626-.132813-1.269532-.320313-1.871094-.570313-.601563-.25-1.179688-.5625-1.71875-.921875-.550782-.359375-1.0625-.777344-1.519532-1.238281-.472656-.460938-.882812-.980469-1.25-1.519531-.359374-.542969-.671874-1.132813-.921874-1.730469-.25-.601563-.4375-1.230469-.570313-1.871094-.128906-.648437-.199219-1.300781-.199219-1.949219 0-.660156.070313-1.308594.199219-1.960937.132813-.640625.320313-1.257813.570313-1.867188.25-.601562.5625-1.179687.921874-1.722656.367188-.550781.777344-1.058594 1.25-1.519531.457032-.46875.96875-.878906 1.519532-1.25.539062-.359375 1.117187-.671875 1.71875-.921875.601562-.25 1.230468-.4375 1.871094-.566407 3.25-.652343 6.710937.410157 9.027343 2.738282.460938.460937.882813.96875 1.242188 1.519531.359375.542969.667969 1.121094.917969 1.722656.25.609375.441406 1.226563.570312 1.867188.128906.652343.199219 1.300781.199219 1.960937 0 .648438-.070313 1.3125-.199219 1.949219-.128906.640625-.320312 1.269531-.570312 1.871094-.25.601562-.558594 1.191406-.917969 1.730469-.359375.539062-.78125 1.058593-1.242188 1.519531-1.859375 1.859375-4.4375 2.929687-7.066406 2.929687zm0 0" fill="#1e497d"/><path d="m345.339844 153.378906c-6.996094-8.601562-15.0625-16.039062-23.921875-22.183594-.308594-.269531-.640625-.523437-.988281-.757812-19.0625-12.875-41.3125-19.679688-64.347657-19.679688-.027343 0-.054687 0-.082031 0s-.054688 0-.085938 0c-23.03125 0-45.28125 6.804688-64.34375 19.679688-.351562.234375-.679687.488281-.988281.757812-8.859375 6.144532-16.925781 13.582032-23.925781 22.183594-3.484375 4.285156-2.835938 10.582032 1.445312 14.066406 1.855469 1.511719 4.089844 2.246094 6.308594 2.246094 2.902344 0 5.785156-1.261718 7.761719-3.6875 18.207031-22.378906 45.113281-35.222656 73.828125-35.246094 28.714844.023438 55.621094 12.867188 73.828125 35.246094 1.976563 2.425782 4.855469 3.6875 7.761719 3.6875 2.21875 0 4.449218-.734375 6.304687-2.246094 4.285157-3.484374 4.929688-9.78125 1.445313-14.066406zm0 0" fill="#1e497d"/><path d="m313.753906 194.554688c-3.070312 0-6.101562-1.410157-8.058594-4.070313-11.621093-15.785156-30.199218-25.207031-49.695312-25.207031s-38.074219 9.421875-49.695312 25.207031c-3.273438 4.445313-9.53125 5.398437-13.980469 2.125s-5.398438-9.535156-2.125-13.980469c15.375-20.882812 39.972656-33.351562 65.800781-33.351562 25.824219 0 50.425781 12.46875 65.800781 33.351562 3.273438 4.445313 2.320313 10.707032-2.125 13.980469-1.785156 1.3125-3.863281 1.945313-5.921875 1.945313zm0 0" fill="#1e497d"/><path d="m220.246094 219.769531c-2.058594 0-4.136719-.632812-5.921875-1.945312-4.445313-3.277344-5.398438-9.535157-2.125-13.984375 10.234375-13.898438 26.605469-22.191406 43.800781-22.191406s33.566406 8.296874 43.796875 22.191406c3.273437 4.449218 2.324219 10.710937-2.121094 13.984375-4.449219 3.273437-10.710937 2.320312-13.984375-2.125-6.476562-8.800781-16.828125-14.050781-27.691406-14.050781s-21.214844 5.25-27.691406 14.050781c-1.960938 2.660156-4.992188 4.070312-8.0625 4.070312zm0 0" fill="#1e497d"/><path d="m256 275.4375c-15.902344 0-28.84375-12.9375-28.84375-28.839844 0-15.90625 12.941406-28.84375 28.84375-28.84375s28.84375 12.9375 28.84375 28.84375c0 15.902344-12.941406 28.839844-28.84375 28.839844zm0-37.683594c-4.875 0-8.84375 3.96875-8.84375 8.84375s3.96875 8.84375 8.84375 8.84375 8.84375-3.96875 8.84375-8.84375-3.96875-8.84375-8.84375-8.84375zm0 0" fill="#1e497d"/></svg>
