<?xml version="1.0" encoding="utf-8"?>
<!-- Generator: Adobe Illustrator 23.0.2, SVG Export Plug-In . SVG Version: 6.00 Build 0)  -->
<svg version="1.1" id="Capa_1" xmlns="http://www.w3.org/2000/svg" xmlns:xlink="http://www.w3.org/1999/xlink" x="0px" y="0px"
	 viewBox="0 0 215.4 312.7" style="enable-background:new 0 0 215.4 312.7;" xml:space="preserve">
<style type="text/css">
	.st0{fill:#5966AD;}
	.st1{fill:#ED751C;}
	.st2{enable-background:new    ;}
	.st3{fill:#FFFFFF;}
</style>
<title>Recurso 16</title>
<g>
	<g id="Capa_1-2">
		<g>
			<rect class="st0" width="215.4" height="312.7"/>
		</g>
		<g>
			<rect x="20.5" y="191.8" class="st1" width="164.4" height="22.6"/>
		</g>
		<g>
			<rect x="50" y="162.5" class="st1" width="108.3" height="22.6"/>
		</g>
		<g class="st2">
			<g>
				<path class="st3" d="M80.2,20.7v14h-3.3V29h-5.5v5.6H68v-14h3.3V26h5.5v-5.4H80.2z"/>
			</g>
			<g>
				<path class="st3" d="M82,29.6c0-3.1,2.2-5.4,5-5.4c1.3,0,2.2,0.5,2.9,1.2v-0.9h3.2v10.2h-3.2v-0.9c-0.7,0.7-1.7,1.2-2.9,1.2
					C84.2,35,82,32.7,82,29.6z M89.9,29.5c0-1.5-1.1-2.5-2.4-2.5c-1.4,0-2.4,1-2.4,2.5c0,1.5,1,2.6,2.4,2.6
					C88.9,32.1,89.9,31.1,89.9,29.5z"/>
			</g>
			<g>
				<path class="st3" d="M94.9,29.6c0-3.1,2.3-5.4,5.4-5.4c2.9,0,4.7,1.9,5.1,3.5l-3,0.8c-0.2-0.7-1-1.5-2.1-1.5
					c-1.4,0-2.3,1.2-2.3,2.5c0,1.4,0.9,2.6,2.3,2.6c1.1,0,1.9-0.7,2.1-1.4l3,0.8c-0.4,1.6-2.2,3.4-5.1,3.4
					C97.2,35,94.9,32.6,94.9,29.6z"/>
			</g>
			<g>
				<path class="st3" d="M106.8,21.5c0-1,0.8-1.8,1.8-1.8s1.8,0.8,1.8,1.8c0,1-0.8,1.8-1.8,1.8S106.8,22.5,106.8,21.5z M107,24.5
					h3.2v10.2H107V24.5z"/>
			</g>
			<g>
				<path class="st3" d="M112,29.6c0-3.1,2.2-5.4,5-5.4c1.3,0,2.2,0.5,2.9,1.2v-0.9h3.2v10.2h-3.2v-0.9c-0.7,0.7-1.7,1.2-2.9,1.2
					C114.2,35,112,32.7,112,29.6z M120,29.5c0-1.5-1.1-2.5-2.4-2.5s-2.4,1-2.4,2.5c0,1.5,1,2.6,2.4,2.6S120,31.1,120,29.5z"/>
			</g>
			<g>
				<path class="st3" d="M130.3,20.1h3.2v14.6h-3.2V20.1z"/>
			</g>
			<g>
				<path class="st3" d="M135.3,29.6c0-3.1,2.2-5.4,5-5.4c1.3,0,2.2,0.5,2.9,1.2v-0.9h3.2v10.2h-3.2v-0.9c-0.7,0.7-1.7,1.2-2.9,1.2
					C137.5,35,135.3,32.7,135.3,29.6z M143.3,29.5c0-1.5-1.1-2.5-2.4-2.5c-1.4,0-2.4,1-2.4,2.5c0,1.5,1,2.6,2.4,2.6
					C142.3,32.1,143.3,31.1,143.3,29.5z"/>
			</g>
		</g>
		<g class="st2">
			<g>
				<path class="st3" d="M15.4,54.6c0-3.1,2.1-5.4,5.4-5.4c3.4,0,5.3,2.3,5.3,5.3c0,0.4,0,0.7-0.1,1.1h-7.5c0.2,1,0.9,1.8,2.5,1.8
					c1.1,0,1.7-0.4,2-1l2.9,0.8c-0.5,1.3-2.3,2.9-5,2.9C17.7,60,15.4,57.8,15.4,54.6z M23,53.6c-0.1-0.9-0.9-1.7-2.2-1.7
					s-2.1,0.9-2.3,1.7H23z"/>
			</g>
			<g>
				<path class="st3" d="M38.4,49.5v14.4h-3.2v-5.1c-0.7,0.7-1.7,1.2-2.9,1.2c-2.8,0-5-2.3-5-5.4c0-3.1,2.2-5.4,5-5.4
					c1.3,0,2.2,0.5,2.9,1.2v-0.9H38.4z M35.3,54.5c0-1.5-1.1-2.5-2.4-2.5c-1.4,0-2.4,1-2.4,2.5c0,1.5,1,2.6,2.4,2.6
					C34.2,57.1,35.3,56.1,35.3,54.5z"/>
			</g>
			<g>
				<path class="st3" d="M50.9,49.5v10.2h-3.2v-1.1C47,59.4,46,60,44.7,60c-2.7,0-4-1.8-4-4.5v-5.9h3.2v5.3c0,1.3,0.6,2.2,1.8,2.2
					c1.2,0,2-1,2-2.5v-5H50.9z"/>
			</g>
			<g>
				<path class="st3" d="M53.1,46.5c0-1,0.8-1.8,1.8-1.8c1,0,1.8,0.8,1.8,1.8c0,1-0.8,1.8-1.8,1.8C53.9,48.3,53.1,47.5,53.1,46.5z
					 M53.3,49.5h3.2v10.2h-3.2V49.5z"/>
			</g>
			<g>
				<path class="st3" d="M69.4,45.1v14.6h-3.2v-0.9c-0.7,0.7-1.7,1.2-2.9,1.2c-2.8,0-5-2.3-5-5.4c0-3.1,2.2-5.4,5-5.4
					c1.3,0,2.2,0.5,2.9,1.2v-5.3H69.4z M66.3,54.5c0-1.5-1.1-2.5-2.4-2.5c-1.4,0-2.4,1-2.4,2.5c0,1.5,1,2.6,2.4,2.6
					C65.2,57.1,66.3,56.1,66.3,54.5z"/>
			</g>
			<g>
				<path class="st3" d="M71.2,54.6c0-3.1,2.2-5.4,5-5.4c1.3,0,2.2,0.5,2.9,1.2v-0.9h3.2v10.2h-3.2v-0.9c-0.7,0.7-1.7,1.2-2.9,1.2
					C73.4,60,71.2,57.7,71.2,54.6z M79.2,54.5c0-1.5-1.1-2.5-2.4-2.5c-1.4,0-2.4,1-2.4,2.5c0,1.5,1,2.6,2.4,2.6
					C78.1,57.1,79.2,56.1,79.2,54.5z"/>
			</g>
			<g>
				<path class="st3" d="M95.2,45.1v14.6H92v-0.9C91.3,59.5,90.3,60,89,60c-2.8,0-5-2.3-5-5.4c0-3.1,2.2-5.4,5-5.4
					c1.3,0,2.2,0.5,2.9,1.2v-5.3H95.2z M92.1,54.5c0-1.5-1.1-2.5-2.4-2.5c-1.4,0-2.4,1-2.4,2.5c0,1.5,1,2.6,2.4,2.6
					C91,57.1,92.1,56.1,92.1,54.5z"/>
			</g>
			<g>
				<path class="st3" d="M112.9,45.1v14.6h-3.2v-0.9c-0.7,0.7-1.7,1.2-2.9,1.2c-2.8,0-5-2.3-5-5.4c0-3.1,2.2-5.4,5-5.4
					c1.3,0,2.2,0.5,2.9,1.2v-5.3H112.9z M109.8,54.5c0-1.5-1.1-2.5-2.4-2.5c-1.4,0-2.4,1-2.4,2.5c0,1.5,1,2.6,2.4,2.6
					C108.7,57.1,109.8,56.1,109.8,54.5z"/>
			</g>
			<g>
				<path class="st3" d="M114.7,54.6c0-3.1,2.1-5.4,5.4-5.4c3.4,0,5.3,2.3,5.3,5.3c0,0.4,0,0.7-0.1,1.1h-7.5c0.2,1,0.9,1.8,2.5,1.8
					c1.1,0,1.7-0.4,2-1l2.9,0.8c-0.5,1.3-2.3,2.9-5,2.9C117,60,114.7,57.8,114.7,54.6z M122.3,53.6c-0.1-0.9-0.9-1.7-2.2-1.7
					s-2.1,0.9-2.3,1.7H122.3z"/>
			</g>
			<g>
				<path class="st3" d="M142.4,49.5v9.8c0,2.9-2.1,4.9-5.4,4.9c-2.5,0-4.1-1.1-4.9-2.7l2.8-1c0.4,0.7,1.2,1.1,2.3,1.1
					c1.4,0,2.1-1,2.1-2.2v-1c-0.7,0.8-1.7,1.2-2.8,1.2c-2.9,0-5-2.3-5-5.2c0-3.1,2.1-5.2,5-5.2c1.1,0,2.1,0.4,2.8,1.2v-0.9H142.4z
					 M139.3,54.4c0-1.4-0.9-2.3-2.3-2.3c-1.4,0-2.4,0.9-2.4,2.3s1,2.3,2.4,2.3C138.4,56.7,139.3,55.8,139.3,54.4z"/>
			</g>
			<g>
				<path class="st3" d="M144.2,54.6c0-3.1,2.1-5.4,5.4-5.4c3.4,0,5.3,2.3,5.3,5.3c0,0.4,0,0.7-0.1,1.1h-7.5c0.2,1,0.9,1.8,2.5,1.8
					c1.1,0,1.7-0.4,2-1l2.9,0.8c-0.5,1.3-2.3,2.9-5,2.9C146.5,60,144.2,57.8,144.2,54.6z M151.8,53.6c-0.1-0.9-0.9-1.7-2.2-1.7
					s-2.1,0.9-2.3,1.7H151.8z M149.5,45.1h3.5l-2.3,2.8H148L149.5,45.1z"/>
			</g>
			<g>
				<path class="st3" d="M167,53.7v5.9h-3.2v-5.3c0-1.3-0.6-2.2-1.8-2.2c-1.2,0-2,1-2,2.5v5h-3.2V49.5h3.2v1.1
					c0.7-0.8,1.7-1.3,3-1.3C165.7,49.2,167,51,167,53.7z"/>
			</g>
			<g>
				<path class="st3" d="M168.7,54.6c0-3.1,2.1-5.4,5.4-5.4c3.4,0,5.3,2.3,5.3,5.3c0,0.4,0,0.7-0.1,1.1h-7.5c0.2,1,0.9,1.8,2.5,1.8
					c1.1,0,1.7-0.4,2-1l2.9,0.8c-0.5,1.3-2.3,2.9-5,2.9C170.9,60,168.7,57.8,168.7,54.6z M176.3,53.6c-0.1-0.9-0.9-1.7-2.2-1.7
					s-2.1,0.9-2.3,1.7H176.3z"/>
			</g>
		</g>
		<g class="st2">
			<path class="st3" d="M187.6,49.3v3c-2.2-0.4-3.2,0.6-3.2,3.1v4.3h-3.2V49.5h3.2v1.4C185,49.7,186.1,49.1,187.6,49.3z"/>
		</g>
		<g class="st2">
			<path class="st3" d="M188.1,54.6c0-3.1,2.3-5.4,5.5-5.4s5.5,2.3,5.5,5.4c0,3.1-2.3,5.4-5.5,5.4S188.1,57.6,188.1,54.6z M196,54.6
				c0-1.4-0.9-2.5-2.4-2.5s-2.4,1.1-2.4,2.5c0,1.4,0.9,2.5,2.4,2.5S196,56,196,54.6z"/>
		</g>
		<g class="st2">
			<g>
				<path class="st3" d="M52.9,79.6c0-3.1,2.1-5.4,5.4-5.4c3.4,0,5.3,2.3,5.3,5.3c0,0.4,0,0.7-0.1,1.1h-7.5c0.2,1,0.9,1.8,2.5,1.8
					c1.1,0,1.7-0.4,2-1l2.9,0.8c-0.5,1.3-2.3,2.9-5,2.9C55.2,85,52.9,82.8,52.9,79.6z M60.6,78.6c-0.1-0.9-0.9-1.7-2.2-1.7
					s-2.1,0.9-2.3,1.7H60.6z"/>
			</g>
			<g>
				<path class="st3" d="M75.7,78.7v5.9h-3.2v-5.3c0-1.3-0.6-2.2-1.8-2.2c-1.2,0-2,1-2,2.5v5h-3.2V74.5h3.2v1.1
					c0.7-0.8,1.7-1.3,3-1.3C74.4,74.2,75.7,76,75.7,78.7z"/>
			</g>
			<g>
				<path class="st3" d="M82.2,79.6c0-3.1,2.3-5.4,5.5-5.4c3.2,0,5.5,2.3,5.5,5.4c0,3.1-2.3,5.4-5.5,5.4
					C84.5,85,82.2,82.6,82.2,79.6z M90,79.6c0-1.4-0.9-2.5-2.4-2.5c-1.5,0-2.4,1.1-2.4,2.5c0,1.4,0.9,2.5,2.4,2.5
					C89.1,82.1,90,81,90,79.6z M87.6,70.1H91l-2.3,2.8h-2.7L87.6,70.1z"/>
			</g>
		</g>
		<g class="st2">
			<path class="st3" d="M101.3,74.3v3c-2.2-0.4-3.2,0.6-3.2,3.1v4.3h-3.2V74.5h3.2v1.4C98.7,74.7,99.8,74.1,101.3,74.3z"/>
		</g>
		<g class="st2">
			<g>
				<path class="st3" d="M112.8,74.5v9.8c0,2.9-2.1,4.9-5.4,4.9c-2.5,0-4.1-1.1-4.9-2.7l2.8-1c0.4,0.7,1.2,1.1,2.3,1.1
					c1.4,0,2.1-1,2.1-2.2v-1c-0.7,0.8-1.7,1.2-2.8,1.2c-2.9,0-5-2.3-5-5.2c0-3.1,2.1-5.2,5-5.2c1.1,0,2.1,0.4,2.8,1.2v-0.9H112.8z
					 M109.7,79.4c0-1.4-0.9-2.3-2.3-2.3c-1.4,0-2.4,0.9-2.4,2.3s1,2.3,2.4,2.3C108.8,81.7,109.7,80.8,109.7,79.4z"/>
			</g>
			<g>
				<path class="st3" d="M114.6,79.6c0-3.1,2.2-5.4,5-5.4c1.3,0,2.2,0.5,2.9,1.2v-0.9h3.2v10.2h-3.2v-0.9c-0.7,0.7-1.7,1.2-2.9,1.2
					C116.8,85,114.6,82.7,114.6,79.6z M122.6,79.5c0-1.5-1.1-2.5-2.4-2.5c-1.4,0-2.4,1-2.4,2.5c0,1.5,1,2.6,2.4,2.6
					C121.6,82.1,122.6,81.1,122.6,79.5z"/>
			</g>
			<g>
				<path class="st3" d="M138.3,78.7v5.9h-3.2v-5.3c0-1.3-0.6-2.2-1.8-2.2c-1.2,0-2,1-2,2.5v5h-3.2V74.5h3.2v1.1
					c0.7-0.8,1.7-1.3,3-1.3C137.1,74.2,138.3,76,138.3,78.7z"/>
			</g>
			<g>
				<path class="st3" d="M140,79.6c0-3.1,2.3-5.4,5.5-5.4c3.2,0,5.5,2.3,5.5,5.4c0,3.1-2.3,5.4-5.5,5.4C142.3,85,140,82.6,140,79.6z
					 M147.9,79.6c0-1.4-0.9-2.5-2.4-2.5c-1.5,0-2.4,1.1-2.4,2.5c0,1.4,0.9,2.5,2.4,2.5C147,82.1,147.9,81,147.9,79.6z"/>
			</g>
			<g>
				<path class="st3" d="M151.8,81.8l2.9-0.8c0.3,0.8,1.2,1.5,2.4,1.5c0.8,0,1.3-0.4,1.3-0.7c0-0.4-0.3-0.6-1-0.8l-2.4-0.7
					c-1.5-0.5-2.6-1.4-2.6-2.8c0-1.8,2-3.2,4.2-3.2c2.2,0,4,1,4.6,2.6l-2.8,0.8c-0.4-0.5-1-1-1.8-1c-0.6,0-1.1,0.3-1.1,0.6
					c0,0.3,0.2,0.5,0.6,0.6l2.4,0.7c1.6,0.5,3,1.1,3,3c0,2-1.9,3.4-4.5,3.4C154.3,85,152.3,83.4,151.8,81.8z"/>
			</g>
		</g>
		<g class="st2">
			<path class="st3" d="M43.7,95.1v14.6h-3.2v-0.9c-0.7,0.7-1.7,1.2-2.9,1.2c-2.8,0-5-2.3-5-5.4c0-3.1,2.2-5.4,5-5.4
				c1.3,0,2.2,0.5,2.9,1.2v-5.3H43.7z M40.6,104.5c0-1.5-1.1-2.5-2.4-2.5c-1.4,0-2.4,1-2.4,2.5c0,1.5,1,2.6,2.4,2.6
				C39.5,107.1,40.6,106.1,40.6,104.5z"/>
			<path class="st3" d="M45.8,96.5c0-1,0.8-1.8,1.8-1.8c1,0,1.8,0.8,1.8,1.8c0,1-0.8,1.8-1.8,1.8C46.7,98.3,45.8,97.5,45.8,96.5z
				 M46,99.5h3.2v10.2H46V99.5z"/>
		</g>
		<g class="st2">
			<path class="st3" d="M58.1,99.3v3c-2.2-0.4-3.2,0.6-3.2,3.1v4.3h-3.2V99.5h3.2v1.4C55.5,99.7,56.6,99.1,58.1,99.3z"/>
		</g>
		<g class="st2">
			<g>
				<path class="st3" d="M58.6,104.6c0-3.1,2.1-5.4,5.4-5.4c3.4,0,5.3,2.3,5.3,5.3c0,0.4,0,0.7-0.1,1.1h-7.5c0.2,1,0.9,1.8,2.5,1.8
					c1.1,0,1.7-0.4,2-1l2.9,0.8c-0.5,1.3-2.3,2.9-5,2.9C60.8,110,58.6,107.8,58.6,104.6z M66.2,103.6c-0.1-0.9-0.9-1.7-2.2-1.7
					s-2.1,0.9-2.3,1.7H66.2z"/>
			</g>
			<g>
				<path class="st3" d="M70.5,104.6c0-3.1,2.3-5.4,5.4-5.4c2.9,0,4.7,1.9,5.1,3.5l-3,0.8c-0.2-0.7-1-1.5-2.1-1.5
					c-1.4,0-2.3,1.2-2.3,2.5c0,1.4,0.9,2.6,2.3,2.6c1.1,0,1.9-0.7,2.1-1.4l3,0.8c-0.4,1.6-2.2,3.4-5.1,3.4
					C72.8,110,70.5,107.6,70.5,104.6z"/>
			</g>
			<g>
				<path class="st3" d="M89.4,109.3c-0.9,0.3-1.6,0.5-2.5,0.5c-2.5,0-3.6-1.5-3.6-3.8v-3.7h-1.6v-2.8h1.6v-3.2h3.2v3.2h2.7v2.8
					h-2.7v3.7c0,0.7,0.3,1.1,1.1,1.1c0.4,0,0.7-0.1,1.1-0.3L89.4,109.3z"/>
			</g>
			<g>
				<path class="st3" d="M90.7,96.5c0-1,0.8-1.8,1.8-1.8c1,0,1.8,0.8,1.8,1.8c0,1-0.8,1.8-1.8,1.8C91.6,98.3,90.7,97.5,90.7,96.5z
					 M90.9,99.5h3.2v10.2h-3.2V99.5z"/>
			</g>
		</g>
		<g class="st2">
			<g>
				<path class="st3" d="M107.2,99.5l-4.1,10.2h-3.6l-4.1-10.2h3.5l2.4,6.6l2.4-6.6H107.2z"/>
			</g>
		</g>
		<g class="st2">
			<g>
				<path class="st3" d="M107.5,104.6c0-3.1,2.3-5.4,5.5-5.4c3.2,0,5.5,2.3,5.5,5.4c0,3.1-2.3,5.4-5.5,5.4
					C109.8,110,107.5,107.6,107.5,104.6z M115.3,104.6c0-1.4-0.9-2.5-2.4-2.5c-1.5,0-2.4,1.1-2.4,2.5c0,1.4,0.9,2.5,2.4,2.5
					C114.4,107.1,115.3,106,115.3,104.6z"/>
			</g>
			<g>
				<path class="st3" d="M119.3,106.8l2.9-0.8c0.3,0.8,1.2,1.5,2.4,1.5c0.8,0,1.3-0.4,1.3-0.7c0-0.4-0.3-0.6-1-0.8l-2.4-0.7
					c-1.5-0.5-2.6-1.4-2.6-2.8c0-1.8,2-3.2,4.2-3.2c2.2,0,4,1,4.6,2.6l-2.8,0.8c-0.4-0.5-1-1-1.8-1c-0.6,0-1.1,0.3-1.1,0.6
					c0,0.3,0.2,0.5,0.6,0.6l2.4,0.7c1.6,0.5,3,1.1,3,3c0,2-1.9,3.4-4.5,3.4C121.8,110,119.8,108.4,119.3,106.8z"/>
			</g>
			<g>
				<path class="st3" d="M146,95.1v14.6h-3.2v-0.9c-0.7,0.7-1.7,1.2-2.9,1.2c-2.8,0-5-2.3-5-5.4c0-3.1,2.2-5.4,5-5.4
					c1.3,0,2.2,0.5,2.9,1.2v-5.3H146z M142.9,104.5c0-1.5-1.1-2.5-2.4-2.5s-2.4,1-2.4,2.5c0,1.5,1,2.6,2.4,2.6
					S142.9,106.1,142.9,104.5z"/>
			</g>
			<g>
				<path class="st3" d="M147.8,104.6c0-3.1,2.1-5.4,5.4-5.4c3.4,0,5.3,2.3,5.3,5.3c0,0.4,0,0.7-0.1,1.1h-7.5c0.2,1,0.9,1.8,2.5,1.8
					c1.1,0,1.7-0.4,2-1l2.9,0.8c-0.5,1.3-2.3,2.9-5,2.9C150.1,110,147.8,107.8,147.8,104.6z M155.4,103.6c-0.1-0.9-0.9-1.7-2.2-1.7
					s-2.1,0.9-2.3,1.7H155.4z"/>
			</g>
			<g>
				<path class="st3" d="M165.2,95.1h3.2v14.6h-3.2V95.1z"/>
			</g>
			<g>
				<path class="st3" d="M170.2,104.6c0-3.1,2.2-5.4,5-5.4c1.3,0,2.2,0.5,2.9,1.2v-0.9h3.2v10.2h-3.2v-0.9c-0.7,0.7-1.7,1.2-2.9,1.2
					C172.4,110,170.2,107.7,170.2,104.6z M178.1,104.5c0-1.5-1.1-2.5-2.4-2.5s-2.4,1-2.4,2.5c0,1.5,1,2.6,2.4,2.6
					S178.1,106.1,178.1,104.5z"/>
			</g>
		</g>
		<g class="st2">
			<path class="st3" d="M15.1,123.7v2.4h6.3v2.9h-6.3v2.7h7.3v3H11.8v-14h10.5v3H15.1z"/>
		</g>
		<g class="st2">
			<g>
				<path class="st3" d="M34.7,120.1v14.6h-3.2v-0.9c-0.7,0.7-1.7,1.2-2.9,1.2c-2.8,0-5-2.3-5-5.4c0-3.1,2.2-5.4,5-5.4
					c1.3,0,2.2,0.5,2.9,1.2v-5.3H34.7z M31.6,129.5c0-1.5-1.1-2.5-2.4-2.5c-1.4,0-2.4,1-2.4,2.5c0,1.5,1,2.6,2.4,2.6
					C30.5,132.1,31.6,131.1,31.6,129.5z"/>
			</g>
			<g>
				<path class="st3" d="M47.2,124.5v10.2H44v-1.1c-0.7,0.8-1.7,1.3-3,1.3c-2.7,0-4-1.8-4-4.5v-5.9h3.2v5.3c0,1.3,0.6,2.2,1.8,2.2
					c1.2,0,2-1,2-2.5v-5H47.2z"/>
			</g>
			<g>
				<path class="st3" d="M49,129.6c0-3.1,2.3-5.4,5.4-5.4c2.9,0,4.7,1.9,5.1,3.5l-3,0.8c-0.2-0.7-1-1.5-2.1-1.5
					c-1.4,0-2.3,1.2-2.3,2.5c0,1.4,0.9,2.6,2.3,2.6c1.1,0,1.9-0.7,2.1-1.4l3,0.8c-0.4,1.6-2.2,3.4-5.1,3.4
					C51.3,135,49,132.6,49,129.6z"/>
			</g>
			<g>
				<path class="st3" d="M60.6,129.6c0-3.1,2.2-5.4,5-5.4c1.3,0,2.2,0.5,2.9,1.2v-0.9h3.2v10.2h-3.2v-0.9c-0.7,0.7-1.7,1.2-2.9,1.2
					C62.8,135,60.6,132.7,60.6,129.6z M68.6,129.5c0-1.5-1.1-2.5-2.4-2.5c-1.4,0-2.4,1-2.4,2.5c0,1.5,1,2.6,2.4,2.6
					C67.5,132.1,68.6,131.1,68.6,129.5z"/>
			</g>
			<g>
				<path class="st3" d="M73.5,129.6c0-3.1,2.3-5.4,5.4-5.4c2.9,0,4.7,1.9,5.1,3.5l-3,0.8c-0.2-0.7-1-1.5-2.1-1.5
					c-1.4,0-2.3,1.2-2.3,2.5c0,1.4,0.9,2.6,2.3,2.6c1.1,0,1.9-0.7,2.1-1.4l3,0.8c-0.4,1.6-2.2,3.4-5.1,3.4
					C75.8,135,73.5,132.6,73.5,129.6z"/>
			</g>
			<g>
				<path class="st3" d="M85.5,121.5c0-1,0.8-1.8,1.8-1.8c1,0,1.8,0.8,1.8,1.8c0,1-0.8,1.8-1.8,1.8
					C86.3,123.3,85.5,122.5,85.5,121.5z M85.7,124.5h3.2v10.2h-3.2V124.5z"/>
			</g>
			<g>
				<path class="st3" d="M90.7,129.6c0-3.1,2.3-5.4,5.5-5.4c3.2,0,5.5,2.3,5.5,5.4c0,3.1-2.3,5.4-5.5,5.4
					C93,135,90.7,132.6,90.7,129.6z M98.5,129.6c0-1.4-0.9-2.5-2.4-2.5c-1.5,0-2.4,1.1-2.4,2.5c0,1.4,0.9,2.5,2.4,2.5
					C97.6,132.1,98.5,131,98.5,129.6z M96.1,120.1h3.5l-2.3,2.8h-2.7L96.1,120.1z"/>
			</g>
			<g>
				<path class="st3" d="M113.6,128.7v5.9h-3.2v-5.3c0-1.3-0.6-2.2-1.8-2.2c-1.2,0-2,1-2,2.5v5h-3.2v-10.2h3.2v1.1
					c0.7-0.8,1.7-1.3,3-1.3C112.4,124.2,113.6,126,113.6,128.7z"/>
			</g>
		</g>
		<g class="st2">
			<path class="st3" d="M120,130.7l3.2-1c0.5,1.3,1.8,2.3,3.6,2.3c1.3,0,2.2-0.6,2.2-1.3c0-0.6-0.4-1-1.5-1.3l-3.6-1.1
				c-1.8-0.6-3.2-1.9-3.2-3.7c0-2.3,2.2-4.2,5.2-4.2c3.1,0,5.4,1.7,6.2,3.7L129,125c-0.5-1-1.7-1.7-3.1-1.7c-1.1,0-1.9,0.5-1.9,1.2
				c0,0.5,0.3,0.8,0.9,1l3.5,1.1c2.1,0.7,3.8,1.6,3.8,3.9c0,2.5-2.3,4.4-5.7,4.4C123.1,135,120.8,132.9,120,130.7z"/>
		</g>
		<g class="st2">
			<g>
				<path class="st3" d="M144.1,124.5v10.2h-3.2v-1.1c-0.7,0.8-1.7,1.3-3,1.3c-2.7,0-4-1.8-4-4.5v-5.9h3.2v5.3
					c0,1.3,0.6,2.2,1.8,2.2c1.2,0,2-1,2-2.5v-5H144.1z"/>
			</g>
			<g>
				<path class="st3" d="M157.6,129.6c0,3.1-2.2,5.4-5,5.4c-1.3,0-2.2-0.5-2.9-1.2v5.1h-3.2v-14.4h3.2v0.9c0.7-0.8,1.7-1.2,2.9-1.2
					C155.4,124.2,157.6,126.5,157.6,129.6z M154.4,129.5c0-1.5-1-2.5-2.4-2.5s-2.4,1-2.4,2.5c0,1.5,1.1,2.6,2.4,2.6
					S154.4,131.1,154.4,129.5z"/>
			</g>
			<g>
				<path class="st3" d="M158.8,129.6c0-3.1,2.1-5.4,5.4-5.4c3.4,0,5.3,2.3,5.3,5.3c0,0.4,0,0.7-0.1,1.1h-7.5c0.2,1,0.9,1.8,2.5,1.8
					c1.1,0,1.7-0.4,2-1l2.9,0.8c-0.5,1.3-2.3,2.9-5,2.9C161,135,158.8,132.8,158.8,129.6z M166.4,128.6c-0.1-0.9-0.9-1.7-2.2-1.7
					s-2.1,0.9-2.3,1.7H166.4z"/>
			</g>
			<g>
				<path class="st3" d="M177.7,124.3v3c-2.2-0.4-3.2,0.6-3.2,3.1v4.3h-3.2v-10.2h3.2v1.4C175.1,124.7,176.2,124.1,177.7,124.3z"/>
			</g>
			<g>
				<path class="st3" d="M179,121.5c0-1,0.8-1.8,1.8-1.8s1.8,0.8,1.8,1.8c0,1-0.8,1.8-1.8,1.8S179,122.5,179,121.5z M179.2,124.5
					h3.2v10.2h-3.2V124.5z"/>
			</g>
			<g>
				<path class="st3" d="M184.3,129.6c0-3.1,2.3-5.4,5.5-5.4c3.2,0,5.5,2.3,5.5,5.4c0,3.1-2.3,5.4-5.5,5.4
					C186.6,135,184.3,132.6,184.3,129.6z M192.1,129.6c0-1.4-0.9-2.5-2.4-2.5c-1.5,0-2.4,1.1-2.4,2.5c0,1.4,0.9,2.5,2.4,2.5
					C191.2,132.1,192.1,131,192.1,129.6z"/>
			</g>
			<g>
				<path class="st3" d="M203.4,124.3v3c-2.2-0.4-3.2,0.6-3.2,3.1v4.3H197v-10.2h3.2v1.4C200.8,124.7,201.9,124.1,203.4,124.3z"/>
			</g>
		</g>
		<g class="st2">
			<g>
				<path class="st3" d="M63.8,172.1c0,0.9-0.8,1.7-1.7,1.7c-0.9,0-1.7-0.7-1.7-1.7c0-1,0.8-1.7,1.7-1.7
					C63,170.4,63.8,171.1,63.8,172.1z M63.6,185.2h-3l0.4-9.9h2.3L63.6,185.2z"/>
			</g>
			<g>
				<path class="st3" d="M69,169.1v3.7h6.7v2.6H69v5.8h-2.9v-14.7h10.7v2.6H69z"/>
			</g>
			<g>
				<path class="st3" d="M78.2,167.4c0-0.9,0.7-1.6,1.7-1.6s1.7,0.7,1.7,1.6c0,0.9-0.7,1.6-1.7,1.6S78.2,168.3,78.2,167.4z
					 M78.5,170.5h2.8v10.6h-2.8V170.5z"/>
			</g>
			<g>
				<path class="st3" d="M90.3,170.4v2.6c-2.3-0.4-3.5,0.7-3.5,3.5v4.6H84v-10.6h2.8v1.6C87.4,170.9,88.7,170.2,90.3,170.4z"/>
			</g>
			<g>
				<path class="st3" d="M109,174.8v6.3h-2.8v-5.7c0-1.6-0.6-2.6-2-2.6c-1.5,0-2.2,1.1-2.2,2.9v5.4h-2.8v-5.7c0-1.6-0.6-2.6-2-2.6
					c-1.5,0-2.3,1.1-2.3,3v5.3h-2.8v-10.6h2.8v1.3c0.7-0.9,1.7-1.6,3.1-1.6c1.5,0,2.5,0.6,3.2,1.6c0.7-0.9,1.9-1.6,3.6-1.6
					C107.4,170.3,109,171.9,109,174.8z"/>
			</g>
			<g>
				<path class="st3" d="M111,175.9c0-3.2,2.3-5.6,5.2-5.6c1.5,0,2.7,0.6,3.4,1.6v-1.3h2.8v10.6h-2.8v-1.3c-0.8,1-1.9,1.6-3.4,1.6
					C113.3,181.5,111,179.1,111,175.9z M119.8,175.8c0-1.8-1.3-3.1-3-3.1c-1.7,0-3,1.3-3,3.1c0,1.8,1.2,3.1,3,3.1
					C118.4,179,119.8,177.7,119.8,175.8z"/>
			</g>
			<g>
				<path class="st3" d="M129.7,175.9c0-3.2,2.2-5.6,5.6-5.6c3.5,0,5.5,2.4,5.5,5.5c0,0.3,0,0.7-0.1,1h-8.3c0.2,1.4,1.2,2.4,3.1,2.4
					c1.3,0,2.2-0.6,2.6-1.4l2.5,0.7c-0.6,1.4-2.3,3-5.1,3C132.1,181.5,129.7,179.2,129.7,175.9z M138,175c-0.1-1.3-1.1-2.4-2.8-2.4
					c-1.6,0-2.7,1.1-2.8,2.4H138z"/>
			</g>
			<g>
				<path class="st3" d="M142.9,165.8h2.8v15.3h-2.8V165.8z"/>
			</g>
		</g>
		<g class="st2">
			<g>
				<path class="st3" d="M37.5,204.8c0-3.2,2.4-5.6,5.6-5.6c2.9,0,4.8,1.9,5.2,3.5l-2.6,0.7c-0.2-0.9-1.2-1.8-2.6-1.8
					c-1.8,0-2.9,1.4-2.9,3.1c0,1.7,1.1,3.1,2.9,3.1c1.4,0,2.4-0.8,2.6-1.7l2.6,0.7c-0.4,1.6-2.2,3.5-5.2,3.5
					C39.9,210.5,37.5,208,37.5,204.8z"/>
			</g>
			<g>
				<path class="st3" d="M49.7,204.9c0-3.2,2.4-5.6,5.7-5.6s5.7,2.4,5.7,5.6c0,3.2-2.4,5.6-5.7,5.6S49.7,208,49.7,204.9z
					 M58.4,204.9c0-1.8-1.2-3.1-3-3.1c-1.8,0-3,1.3-3,3.1s1.2,3.1,3,3.1C57.1,207.9,58.4,206.6,58.4,204.9z"/>
			</g>
			<g>
				<path class="st3" d="M80.1,203.8v6.3h-2.8v-5.7c0-1.6-0.6-2.6-2-2.6c-1.5,0-2.2,1.1-2.2,2.9v5.4h-2.8v-5.7c0-1.6-0.6-2.6-2-2.6
					c-1.5,0-2.3,1.1-2.3,3v5.3h-2.8v-10.6h2.8v1.3c0.7-0.9,1.7-1.6,3.1-1.6c1.5,0,2.5,0.6,3.2,1.6c0.7-0.9,1.9-1.6,3.6-1.6
					C78.4,199.3,80.1,200.9,80.1,203.8z"/>
			</g>
			<g>
				<path class="st3" d="M94.1,204.9c0,3.2-2.3,5.6-5.2,5.6c-1.5,0-2.7-0.6-3.4-1.6v5.7h-2.8v-15h2.8v1.3c0.8-1,1.9-1.6,3.4-1.6
					C91.8,199.3,94.1,201.6,94.1,204.9z M91.4,204.8c0-1.8-1.2-3.1-3-3.1c-1.7,0-3,1.3-3,3.1c0,1.8,1.3,3.1,3,3.1
					C90.2,208,91.4,206.7,91.4,204.8z"/>
			</g>
		</g>
		<g class="st2">
			<path class="st3" d="M102.5,199.4v2.6c-2.3-0.4-3.5,0.7-3.5,3.5v4.6h-2.8v-10.6H99v1.6C99.6,199.9,100.8,199.2,102.5,199.4z"/>
		</g>
		<g class="st2">
			<g>
				<path class="st3" d="M103.1,204.9c0-3.2,2.4-5.6,5.7-5.6s5.7,2.4,5.7,5.6c0,3.2-2.4,5.6-5.7,5.6S103.1,208,103.1,204.9z
					 M111.7,204.9c0-1.8-1.2-3.1-3-3.1c-1.8,0-3,1.3-3,3.1s1.2,3.1,3,3.1C110.5,207.9,111.7,206.6,111.7,204.9z"/>
			</g>
			<g>
				<path class="st3" d="M133.4,203.8v6.3h-2.8v-5.7c0-1.6-0.6-2.6-2-2.6c-1.5,0-2.2,1.1-2.2,2.9v5.4h-2.8v-5.7c0-1.6-0.6-2.6-2-2.6
					c-1.5,0-2.3,1.1-2.3,3v5.3h-2.8v-10.6h2.8v1.3c0.7-0.9,1.7-1.6,3.1-1.6c1.5,0,2.5,0.6,3.2,1.6c0.7-0.9,1.9-1.6,3.6-1.6
					C131.8,199.3,133.4,200.9,133.4,203.8z"/>
			</g>
			<g>
				<path class="st3" d="M135.8,196.4c0-0.9,0.7-1.6,1.7-1.6s1.7,0.7,1.7,1.6c0,0.9-0.7,1.6-1.7,1.6S135.8,197.3,135.8,196.4z
					 M136,199.5h2.8v10.6H136V199.5z"/>
			</g>
		</g>
		<g class="st2">
			<g>
				<path class="st3" d="M140.6,207.2l2.5-0.7c0.4,1,1.4,1.8,2.8,1.8c1.1,0,1.8-0.5,1.8-1.1c0-0.5-0.4-0.8-1.2-1l-2.7-0.8
					c-1.5-0.4-2.6-1.3-2.6-2.8c0-1.8,1.9-3.2,4.3-3.2c2.3,0,4,1.1,4.7,2.7l-2.5,0.7c-0.4-0.7-1.2-1.2-2.3-1.2c-0.9,0-1.5,0.5-1.5,1
					c0,0.4,0.3,0.7,0.9,0.8l2.6,0.8c1.6,0.5,3,1.1,3,3c0,2-1.9,3.5-4.6,3.5C143.2,210.5,141.1,208.9,140.6,207.2z"/>
			</g>
		</g>
		<g class="st2">
			<g>
				<path class="st3" d="M151.8,204.9c0-3.2,2.4-5.6,5.7-5.6s5.7,2.4,5.7,5.6c0,3.2-2.4,5.6-5.7,5.6S151.8,208,151.8,204.9z
					 M160.4,204.9c0-1.8-1.2-3.1-3-3.1c-1.8,0-3,1.3-3,3.1s1.2,3.1,3,3.1C159.2,207.9,160.4,206.6,160.4,204.9z"/>
			</g>
			<g>
				<path class="st3" d="M165,208.6c0-0.9,0.8-1.6,1.7-1.6s1.7,0.7,1.7,1.6c0,1-0.8,1.7-1.7,1.7S165,209.6,165,208.6z M165.3,195.5
					h3l-0.4,9.9h-2.3L165.3,195.5z"/>
			</g>
		</g>
	</g>
</g>
<g>
	<path class="st3" d="M103,294.6c-1.3,0-2.5-0.5-3.5-1.4c-1.1-1.1-1.6-2.6-1.4-4c-1.8,0.7-3.9,0.4-5.4-1.1c-1.4-1.4-1.8-3.4-1.2-5.1
		c-1.7,0.6-3.7,0.2-5-1.2c-0.9-0.9-1.5-2.2-1.5-3.5c0-0.1,0-0.2,0-0.2c-1.6,0.4-3.5,0-4.8-1.3c-1.6-1.6-1.9-4-0.9-5.8
		c-0.4,0.2-0.9,0.2-1.2-0.1l-14.9-11.2c-0.5-0.4-0.6-1.1-0.2-1.6c0.4-0.5,1.1-0.6,1.6-0.2l14.9,11.2c0.3,0.3,0.5,0.7,0.4,1
		c0.1-0.1,0.2-0.2,0.3-0.3l1-1c1.9-1.9,5-1.9,7,0c0.8,0.8,1.3,1.8,1.4,2.8l0.9-0.9c0.9-0.9,2.2-1.5,3.5-1.5c1.3,0,2.6,0.5,3.5,1.5
		c0.9,0.9,1.5,2.2,1.5,3.5c0,0.2,0,0.4,0,0.7c1.9-1.7,4.9-1.6,6.7,0.3c0.9,0.9,1.5,2.2,1.5,3.5c0,1.3-0.5,2.5-1.4,3.5
		c1.3,0,2.5,0.5,3.5,1.5c0.9,0.9,1.5,2.2,1.5,3.5s-0.5,2.6-1.5,3.5l-2.7,2.7l0,0C105.5,294.1,104.3,294.6,103,294.6z M105.7,284.3
		c-0.7,0-1.4,0.3-1.9,0.8l-2.7,2.7c-1.1,1.1-1.1,2.8,0,3.8c1.1,1.1,2.8,1.1,3.8,0l2.7-2.7c0.5-0.5,0.8-1.2,0.8-1.9s-0.3-1.4-0.8-1.9
		S106.4,284.3,105.7,284.3z M105.7,292.4L105.7,292.4L105.7,292.4z M102.2,275.9c-0.7,0-1.4,0.3-1.9,0.8l-6,6
		c-1.1,1.1-1.1,2.8,0,3.8c1,1,2.8,1,3.8,0l6-6c0.5-0.5,0.8-1.2,0.8-1.9c0-0.7-0.3-1.4-0.8-1.9C103.6,276.2,102.9,275.9,102.2,275.9z
		 M94.1,271.5c-0.7,0-1.4,0.3-1.9,0.8l-4.1,4.1c-1.1,1.1-1.1,2.8,0,3.8c1.1,1.1,2.8,1.1,3.8,0l4.1-4.1c1.1-1.1,1.1-2.8,0-3.8
		C95.5,271.8,94.8,271.5,94.1,271.5z M84.8,269.6c-0.7,0-1.4,0.3-1.9,0.8l-1,1c-0.5,0.5-0.8,1.2-0.8,1.9s0.3,1.4,0.8,1.9
		c1,1,2.8,1,3.8,0l1-1c1.1-1.1,1.1-2.8,0-3.8C86.2,269.8,85.5,269.6,84.8,269.6z M116.1,288.7c-1.3,0-2.5-0.5-3.5-1.4
		c-0.4-0.4-0.4-1.1,0-1.6c0.4-0.4,1.1-0.4,1.6,0c1.1,1.1,2.8,1.1,3.8,0c0.5-0.5,0.8-1.2,0.8-1.9s-0.3-1.4-0.8-1.9l-4.2-4.2
		c-0.4-0.4-0.4-1.1,0-1.6c0.4-0.4,1.1-0.4,1.6,0l4.1,4.1c0,0,0,0,0,0c1,1,2.8,1,3.8,0c1.1-1.1,1.1-2.8,0-3.8l-5.9-5.9
		c-0.2-0.2-0.3-0.5-0.3-0.8c0-0.3,0.1-0.6,0.3-0.8c0.4-0.4,1.1-0.4,1.6,0l7.1,7.1c1,1,2.8,1,3.8,0c1.1-1.1,1.1-2.8,0-3.8l-8-8
		c-0.4-0.4-0.4-1.1,0-1.6c0.4-0.4,1-0.4,1.4-0.2c0.1,0.1,0.3,0.1,0.4,0.3l9.5,9.5c1.1,1.1,2.8,1.1,3.8,0c1.1-1.1,1.1-2.8,0-3.8
		l-0.8-0.8c0,0,0,0,0,0l-16.4-16.4c-0.4-0.4-0.4-1.1,0-1.6c0.4-0.4,1.1-0.4,1.6,0l15.6,15.6l13.6-13.8c0.4-0.4,1.1-0.4,1.6,0
		c0.4,0.4,0.4,1.1,0,1.6l-13.6,13.8l0,0c1.9,1.9,1.9,5,0,7c-1.5,1.5-3.8,1.8-5.7,0.9c-0.1,1.1-0.6,2.1-1.4,2.9
		c-1.4,1.4-3.4,1.8-5.2,1.2c-0.1,1.2-0.6,2.3-1.4,3.1c-1.1,1.1-2.5,1.5-3.9,1.4c0.2,1.5-0.3,3-1.4,4.1
		C118.6,288.2,117.4,288.7,116.1,288.7z M91.4,257.7c-0.3,0-0.6,0-0.9-0.1c-1.3-0.2-2.4-1-3.2-2.1c-1.5-2.3-1-5.3,1.3-6.8
		c0,0,0.1-0.1,0.1-0.1l6.8-3.3l-12.5-1.7c-0.2,0-0.3-0.1-0.5-0.2l-17.6-11.9c-0.5-0.3-0.6-1-0.3-1.5c0.3-0.5,1-0.6,1.5-0.3
		l17.4,11.8l14.3,2c0.3,0,0.5,0.2,0.7,0.4l5.9-2.8c0.2-0.1,0.3-0.2,0.6-0.3l15.2-2.5c0.2,0,0.5,0,0.7,0.1l7.9,3.9l11.9-8
		c0.5-0.3,1.2-0.2,1.5,0.3c0.3,0.5,0.2,1.2-0.3,1.5l-12.4,8.4c-0.3,0.2-0.8,0.3-1.1,0.1l-8.2-4l-14.5,2.4l-16,7.7
		c-1.2,0.9-1.5,2.4-0.6,3.7c0.4,0.6,1,1,1.7,1.1c0.7,0.1,1.4,0,2-0.4c0.5-0.4,1.2-0.2,1.5,0.3c0.4,0.5,0.2,1.2-0.3,1.5
		C93.4,257.4,92.4,257.7,91.4,257.7z"/>
</g>
</svg>
