<svg xmlns="http://www.w3.org/2000/svg" viewBox="0 0 287.59 54.33"><defs><style>.cls-1{fill:#ffdb00;}.cls-2{fill:#1d1d1b;}.cls-3{fill:#000003;}</style></defs><title>obs-Recurso 8</title><g id="Capa_2" data-name="Capa 2"><g id="Capa_1-2" data-name="Capa 1"><path class="cls-1" d="M8.91,0S0,0,0,8.91V45.42s0,8.91,8.91,8.91H278.68s8.91,0,8.91-8.91V8.91s0-8.91-8.91-8.91Z"/><path class="cls-2" d="M163.89,38.72c1.43,0,2.43-.78,2.43-1.81s-.7-1.35-1.52-1.58l-1.55-.45c-.39-.13-.62-.29-.62-.58s.4-.7,1-.7a1.56,1.56,0,0,1,1.45.8l1.07-.31a2.59,2.59,0,0,0-2.51-1.46,2,2,0,0,0-2.21,1.68c0,.83.61,1.26,1.38,1.49l1.55.46c.52.15.75.33.75.69s-.47.78-1.21.78a1.71,1.71,0,0,1-1.67-1.09l-1.09.32a2.78,2.78,0,0,0,2.73,1.76m-8.31-3.48a1.75,1.75,0,0,1,1.8-1.57,1.64,1.64,0,0,1,1.76,1.56Zm1.9,3.48a3,3,0,0,0,2.78-1.64l-1.11-.33a1.72,1.72,0,0,1-1.65.94,1.74,1.74,0,0,1-1.92-1.64h4.71a3.89,3.89,0,0,0,0-.49,2.79,2.79,0,0,0-3-2.93,3,3,0,0,0,.1,6.09m-7.55-1.08a2,2,0,0,1,0-3.93,2,2,0,0,1,0,3.93m1.89-7.48v3.49a2.46,2.46,0,0,0-2.09-1,3,3,0,0,0,0,6.09,2.46,2.46,0,0,0,2.09-1v.88H153V30.16Zm-9.43,7.48a2,2,0,0,1,0-3.93,2,2,0,0,1,0,3.93m-.2,1.08a2.46,2.46,0,0,0,2.09-1v.88h1.2v-5.8h-1.2v.87a2.46,2.46,0,0,0-2.09-1,3,3,0,0,0,0,6.09m-7.34-1.08a2,2,0,0,1,0-3.93,2,2,0,0,1,0,3.93m1.89-7.48v3.49a2.45,2.45,0,0,0-2.08-1,3,3,0,0,0,0,6.09,2.45,2.45,0,0,0,2.08-1v.88h1.2V30.16Zm-7.57,8.42h1.2v-5.8h-1.2Zm.61-6.75a.74.74,0,1,0-.76-.75.74.74,0,0,0,.76.75m-4.48,6.89c1.43,0,2.43-.78,2.43-1.81s-.7-1.35-1.52-1.58l-1.55-.45c-.39-.13-.62-.29-.62-.58s.4-.7,1-.7a1.57,1.57,0,0,1,1.46.8l1.07-.31a2.59,2.59,0,0,0-2.51-1.46,2,2,0,0,0-2.22,1.68c0,.83.61,1.26,1.38,1.49l1.56.46c.52.15.75.33.75.69s-.47.78-1.21.78a1.71,1.71,0,0,1-1.67-1.09l-1.1.32a2.79,2.79,0,0,0,2.74,1.76m-5.28-5v-.92h-1.21v5.8H120V36c0-1.69.75-2.31,2-2.12V32.71a1.79,1.79,0,0,0-2,1m-7.32,1.54a1.75,1.75,0,0,1,1.8-1.57,1.64,1.64,0,0,1,1.76,1.56Zm1.9,3.48a3,3,0,0,0,2.78-1.64l-1.11-.33a1.72,1.72,0,0,1-1.65.94,1.74,1.74,0,0,1-1.92-1.64h4.71a3.89,3.89,0,0,0,0-.49,2.79,2.79,0,0,0-3-2.93,3,3,0,0,0,.1,6.09m-4.84-5.94-1.82,4.48-1.81-4.48h-1.32l2.46,5.8h1.35l2.45-5.8Zm-7.19,5.8h1.19v-5.8h-1.19Zm.61-6.75a.74.74,0,1,0-.76-.75.74.74,0,0,0,.76.75m-4.61.8a2.37,2.37,0,0,0-2,1v-.86H95.36v5.8h1.21V35.69a1.71,1.71,0,0,1,1.67-1.93c1,0,1.43.62,1.43,1.63v3.19h1.2v-3.4c0-1.57-.82-2.55-2.3-2.55m-6.11-2.12v4.78a2.15,2.15,0,1,1-4.29,0V30.51H86.91v4.8a3.41,3.41,0,1,0,6.81,0v-4.8Z"/><path class="cls-2" d="M216.64,21.68l1.49-3.82,1.49,3.82Zm4.18,3.06h1.3l-3.19-8.06h-1.6l-3.2,8.06h1.31l.77-2h3.84Zm-8.94-8.06v3.38h-4.2V16.68h-1.26v8.06h1.26V21.19h4.2v3.55h1.24V16.68Zm-10.63,8.21a3.86,3.86,0,0,0,3.81-2.5l-1.21-.31a2.66,2.66,0,0,1-2.62,1.64,2.9,2.9,0,0,1-2.92-3,2.88,2.88,0,0,1,2.92-3,2.71,2.71,0,0,1,2.63,1.66l1.21-.3a3.86,3.86,0,0,0-3.84-2.52,4.18,4.18,0,1,0,0,8.36m-6.85-.15h1.27V16.68H194.4Zm-1.13-6.92V16.68h-5.73v8.06h1.26v-3.4h3.88v-1.1H188.8V17.82ZM178,21.68l1.5-3.82L181,21.68Zm4.18,3.06h1.3l-3.19-8.06h-1.6l-3.19,8.06h1.3l.77-2h3.84ZM176,16.68h-6.94V17.8h2.85v6.94h1.25V17.8H176Zm-10.34,8.21c1.89,0,3.16-1.09,3.16-2.44s-.86-1.76-2.11-2.16l-2-.63c-.73-.22-1-.5-1-1s.62-1.07,1.53-1.07a2.4,2.4,0,0,1,2.23,1.25l1.16-.35a3.54,3.54,0,0,0-3.39-2c-1.62,0-2.78,1-2.78,2.21,0,1,.73,1.63,1.8,2l2,.64c.95.3,1.28.65,1.28,1.18s-.71,1.26-1.83,1.26a2.59,2.59,0,0,1-2.51-1.69l-1.19.36a3.73,3.73,0,0,0,3.63,2.43m-4.43-7.09V16.68h-5.8v8.06h5.79V23.6h-4.56V21.18h4V20.1h-4V17.8Zm-15.34,3.88,1.5-3.82,1.49,3.82Zm4.19,3.06h1.3l-3.19-8.06h-1.61l-3.19,8.06h1.3l.78-2h3.83Zm-6.94-4.38H139v1.08h2.81a2.5,2.5,0,0,1-2.7,2.3,3,3,0,0,1-3.08-3.05,2.91,2.91,0,0,1,3-3,2.73,2.73,0,0,1,2.64,1.58l1.17-.32A3.93,3.93,0,0,0,139,16.53a4.18,4.18,0,1,0,.06,8.36,3.76,3.76,0,0,0,4-3.88Zm-14.62-2.57h2.56a1.43,1.43,0,1,1,0,2.85h-2.53Zm4,7H134l-2.08-3.1a2.47,2.47,0,0,0,1.88-2.42,2.55,2.55,0,0,0-2.65-2.54h-3.84v8.06h1.24v-3h2Zm-11.75-3.06,1.49-3.82,1.49,3.82ZM125,24.74h1.3l-3.19-8.06h-1.6l-3.2,8.06h1.31l.77-2h3.84ZM114,24.89a3.86,3.86,0,0,0,3.82-2.5l-1.21-.31A2.66,2.66,0,0,1,114,23.72a2.91,2.91,0,0,1-2.93-3,2.89,2.89,0,0,1,2.93-3,2.71,2.71,0,0,1,2.63,1.66l1.21-.3A3.87,3.87,0,0,0,114,16.53a4.18,4.18,0,1,0,0,8.36m-8.23,0c1.89,0,3.16-1.09,3.16-2.44s-.86-1.76-2.11-2.16l-2-.63c-.73-.22-1-.5-1-1s.63-1.07,1.54-1.07a2.39,2.39,0,0,1,2.22,1.25l1.17-.35a3.56,3.56,0,0,0-3.39-2c-1.63,0-2.79,1-2.79,2.21,0,1,.73,1.63,1.81,2l2,.64c.94.3,1.28.65,1.28,1.18s-.72,1.26-1.84,1.26a2.59,2.59,0,0,1-2.51-1.69l-1.19.36a3.73,3.73,0,0,0,3.63,2.43m-4.42-7.09V16.68H95.57v8.06h5.79V23.6H96.8V21.18h4V20.1h-4V17.8ZM90.25,23.61h-2V17.8h2a2.64,2.64,0,0,1,2.69,2.89,2.65,2.65,0,0,1-2.69,2.92m0-6.93H87v8.06h3.29a3.76,3.76,0,0,0,3.92-4,3.76,3.76,0,0,0-3.92-4"/><path d="M59.87,35.78a10.87,10.87,0,0,0,0-15.5A33.94,33.94,0,0,1,70,28,33.94,33.94,0,0,1,59.87,35.78ZM34.52,28a33.94,33.94,0,0,1,10.09-7.75,10.87,10.87,0,0,0,0,15.5A33.94,33.94,0,0,1,34.52,28m27.32,0a9.6,9.6,0,1,1-9.6-9.6,9.6,9.6,0,0,1,9.6,9.6m9.46-.4a35.17,35.17,0,0,0-5.54-5.23c-3.15-2.4-8-5.25-13.52-5.25S41.87,20,38.72,22.4a34.72,34.72,0,0,0-5.54,5.23.63.63,0,0,0,0,.8,34.72,34.72,0,0,0,5.54,5.23c3.15,2.4,8,5.25,13.52,5.25s10.37-2.85,13.52-5.25a35.11,35.11,0,0,0,5.54-5.22.65.65,0,0,0,0-.81"/><rect x="51.6" y="11.39" width="1.28" height="4.48"/><rect x="57.45" y="13.95" width="4.29" height="1.28" transform="translate(19.91 61.38) rotate(-63.44)"/><rect x="44.24" y="12.44" width="1.28" height="4.29" transform="translate(-1.78 21.63) rotate(-26.59)"/><rect x="64.27" y="16.83" width="4.1" height="1.28" transform="translate(11.27 58.37) rotate(-51.37)"/><rect x="37.52" y="15.42" width="1.28" height="4.1" transform="translate(-2.55 27.66) rotate(-38.66)"/><rect x="51.6" y="40.19" width="1.28" height="4.48"/><rect x="58.96" y="39.33" width="1.28" height="4.29" transform="translate(-12.26 31.06) rotate(-26.59)"/><rect x="42.73" y="40.83" width="4.29" height="1.28" transform="translate(-12.29 63.06) rotate(-63.43)"/><rect x="65.7" y="36.54" width="1.28" height="4.1" transform="translate(-9.57 49.89) rotate(-38.66)"/><rect x="36.11" y="37.95" width="4.1" height="1.28" transform="matrix(0.62, -0.78, 0.78, 0.62, -15.81, 44.3)"/><path class="cls-3" d="M52.09,30.85V35.4a.6.6,0,0,1-.17.44.57.57,0,0,1-.43.16.64.64,0,0,1-.45-.16.55.55,0,0,1-.19-.44V30.85h-1.7l1.77-6h-.3l-.49,1.64c-.12.42-.24.83-.36,1.22s-.21.63-.22.71a.47.47,0,0,1-.51.38l-.13,0a.48.48,0,0,1-.37-.48.35.35,0,0,1,0-.17,2.83,2.83,0,0,0,.13-.45c.06-.25.16-.56.27-.93s.23-.78.35-1.21.25-.85.39-1.25a1.81,1.81,0,0,1,.56-.84,1.36,1.36,0,0,1,.9-.37h2.09a1.37,1.37,0,0,1,.92.37,2.12,2.12,0,0,1,.58.84l.35,1.25c.12.43.25.84.35,1.21l.27.93a2.39,2.39,0,0,0,.14.45l0,.14a.47.47,0,0,1-.37.5l-.13,0a.47.47,0,0,1-.51-.38l-.19-.71c-.12-.39-.24-.8-.38-1.22l-.49-1.64h-.3l1.77,6H53.63V35.4a.52.52,0,0,1-.19.44A.61.61,0,0,1,53,36a.55.55,0,0,1-.6-.6V30.85Z"/><path class="cls-3" d="M52.26,22.71a1.22,1.22,0,0,0,.9-.36,1.33,1.33,0,0,0,0-1.86,1.16,1.16,0,0,0-.9-.39,1.3,1.3,0,0,0-1,.39,1.33,1.33,0,0,0,0,1.86,1.38,1.38,0,0,0,1,.36"/></g></g></svg>