<svg xmlns="http://www.w3.org/2000/svg" viewBox="0 0 311.35 244.74"><defs><style>.cls-1{fill:#fff;}.cls-2{fill:#1d1d1b;}.cls-3{fill:#797979;}.cls-4{fill:#eb5954;}.cls-5{fill:#76bdac;}</style></defs><title>obs-Recurso 16</title><g id="Capa_2" data-name="Capa 2"><g id="Capa_1-2" data-name="Capa 1"><path class="cls-1" d="M8.91,0S0,0,0,8.91V235.83s0,8.91,8.91,8.91H302.44s8.91,0,8.91-8.91V8.91s0-8.91-8.91-8.91Z"/><path class="cls-2" d="M286.64,23.68l1.5-3.82,1.48,3.82Zm4.18,3.06h1.31l-3.2-8.07h-1.6l-3.19,8.07h1.3l.77-2h3.84Zm-8.95-8.07v5.85l-4.48-5.85h-1v8.07h1.25V20.9l4.48,5.84h1V18.67Zm-8.52,8.07h1.27V18.67h-1.27Zm-2.93-8.07-2.81,4.06-2.83-4.06h-1.19v8.07h1.25v-5.9l2.76,3.87,2.76-3.87v5.9h1.26V18.67ZM258,25.74a2.91,2.91,0,0,1-2.95-3,2.95,2.95,0,1,1,5.89,0,2.91,2.91,0,0,1-2.94,3m0,1.15a4.19,4.19,0,1,0-4.21-4.19A4.1,4.1,0,0,0,258,26.89m-.65-9.14h1.08l1.17-1.59h-1.35Zm-6.19.92v5.85l-4.47-5.85h-1.05v8.07h1.26V20.9l4.47,5.84h1.05V18.67Zm-11.45,0v4.79a2.15,2.15,0,1,1-4.29,0V18.67h-1.26v4.81a3.41,3.41,0,1,0,6.81,0V18.67Zm-9.94,8.22c1.89,0,3.16-1.09,3.16-2.44s-.87-1.76-2.11-2.16l-2-.63c-.73-.22-1-.5-1-1s.62-1.07,1.53-1.07a2.4,2.4,0,0,1,2.23,1.25l1.16-.35a3.53,3.53,0,0,0-3.39-2c-1.62,0-2.79,1-2.79,2.22,0,1,.74,1.63,1.81,2l2,.64c1,.3,1.28.65,1.28,1.18s-.71,1.26-1.83,1.26a2.59,2.59,0,0,1-2.51-1.69l-1.19.36a3.73,3.73,0,0,0,3.63,2.43m-9.21-8.22v5.85l-4.47-5.85h-1.05v8.07h1.25V20.9l4.48,5.84h1V18.67Zm-7,1.13V18.67h-5.81v8.07h5.8V25.6H209V23.18h4V22.1h-4V19.8Zm-13.43,7.09c1.89,0,3.16-1.09,3.16-2.44s-.87-1.76-2.11-2.16l-2-.63c-.73-.22-1-.5-1-1s.62-1.07,1.53-1.07a2.4,2.4,0,0,1,2.23,1.25l1.16-.35a3.53,3.53,0,0,0-3.39-2c-1.62,0-2.78,1-2.78,2.22,0,1,.73,1.63,1.8,2l2,.64c.95.3,1.28.65,1.28,1.18s-.71,1.26-1.83,1.26a2.59,2.59,0,0,1-2.51-1.69l-1.19.36a3.73,3.73,0,0,0,3.63,2.43m-9.43-3.21,1.5-3.82,1.49,3.82Zm4.19,3.06h1.3L193,18.67h-1.61l-3.19,8.07h1.3l.78-2h3.83ZM184,26.89a3.84,3.84,0,0,0,3.81-2.5l-1.21-.31A2.66,2.66,0,0,1,184,25.72a2.91,2.91,0,0,1-2.93-3,2.88,2.88,0,0,1,2.93-3,2.73,2.73,0,0,1,2.63,1.66l1.21-.3A3.88,3.88,0,0,0,184,18.52a4.19,4.19,0,1,0,0,8.37m-6.85-.15h1.27V18.67h-1.27Zm-2.92-8.07-2.82,4.06-2.82-4.06h-1.2v8.07h1.26v-5.9l2.75,3.87,2.77-3.87v5.9h1.25V18.67Zm-8.34,1.13V18.67h-5.81v8.07h5.8V25.6h-4.57V23.18h4V22.1h-4V19.8Zm-1.34-3.64h-1.35l-.89,1.59h1.07Zm-9.78,9.45h-2V19.8h2a2.64,2.64,0,0,1,2.68,2.89,2.65,2.65,0,0,1-2.68,2.92m0-6.94h-3.28v8.07h3.28a3.76,3.76,0,0,0,3.92-4,3.77,3.77,0,0,0-3.92-4m-9.79,5,1.5-3.82L148,23.68Zm4.19,3.06h1.3l-3.19-8.07h-1.6l-3.2,8.07h1.31l.77-2h3.84Zm-10.92.15a3.86,3.86,0,0,0,3.82-2.5l-1.21-.31a2.67,2.67,0,0,1-2.62,1.64,2.91,2.91,0,0,1-2.93-3,2.88,2.88,0,0,1,2.93-3,2.72,2.72,0,0,1,2.63,1.66l1.21-.3a3.88,3.88,0,0,0-3.84-2.53,4.19,4.19,0,1,0,0,8.37m-10-3.21,1.5-3.82,1.49,3.82Zm4.19,3.06h1.3l-3.19-8.07H129l-3.2,8.07h1.31l.77-2h3.84ZM122,19.8V18.67h-5.81v8.07H122V25.6H117.4V23.18h4V22.1h-4V19.8Zm-11.13,5.81h-2V19.8h2a2.64,2.64,0,0,1,2.69,2.89,2.65,2.65,0,0,1-2.69,2.92m0-6.94h-3.29v8.07h3.29a3.76,3.76,0,0,0,3.92-4,3.77,3.77,0,0,0-3.92-4m-10,7.23a1.29,1.29,0,0,1-1.32-1.29,1.28,1.28,0,0,1,1.32-1.29,1.26,1.26,0,0,1,1.3,1.29,1.28,1.28,0,0,1-1.3,1.29m0,.93a2.22,2.22,0,1,0-2.28-2.22,2.21,2.21,0,0,0,2.28,2.22m-6.2-4.72a1.3,1.3,0,1,1,0-2.6,1.3,1.3,0,0,1,0,2.6m0,4.63h1l5.22-8.07h-1Zm0-3.71a2.22,2.22,0,1,0-2.28-2.22A2.22,2.22,0,0,0,94.65,23M88,25.75c-1.33,0-2-1.21-2-3s.66-3.05,2-3.05,2,1.21,2,3.05-.65,3-2,3m0,1.14c2.1,0,3.24-1.78,3.24-4.18S90.13,18.52,88,18.52s-3.25,1.78-3.25,4.19,1.15,4.18,3.25,4.18M83.94,24h-1V22.11H81.63V24H79.06l2.78-5.28H80.49L77.6,24.14v.92h4v1.68h1.26V25.06h1ZM73.53,19.8V18.67H67.72v8.07h5.8V25.6H69V23.18h4V22.1H69V19.8ZM62.41,25.61h-2V19.8h2a2.64,2.64,0,0,1,2.68,2.89,2.65,2.65,0,0,1-2.68,2.92m0-6.94H59.15v8.07h3.28a3.76,3.76,0,0,0,3.92-4,3.77,3.77,0,0,0-3.92-4m-10.9,8.22c1.89,0,3.15-1.09,3.15-2.44s-.86-1.76-2.11-2.16l-2-.63c-.72-.22-1-.5-1-1s.62-1.07,1.53-1.07a2.38,2.38,0,0,1,2.22,1.25l1.17-.35a3.53,3.53,0,0,0-3.39-2c-1.63,0-2.79,1-2.79,2.22,0,1,.74,1.63,1.81,2l2,.64c.94.3,1.28.65,1.28,1.18s-.72,1.26-1.84,1.26a2.6,2.6,0,0,1-2.51-1.69l-1.18.36a3.71,3.71,0,0,0,3.63,2.43M43,25.74a2.91,2.91,0,0,1-3-3,3,3,0,1,1,5.9,0,2.91,2.91,0,0,1-2.94,3m0,1.15a4.19,4.19,0,1,0-4.21-4.19A4.1,4.1,0,0,0,43,26.89m-6.84-8.22v5.85l-4.47-5.85H30.64v8.07h1.25V20.9l4.48,5.84h1.05V18.67Zm-7,1.13V18.67H23.33v8.07h5.8V25.6H24.56V23.18h4V22.1h-4V19.8ZM20.4,18.67l-2.81,4.06-2.82-4.06h-1.2v8.07h1.25v-5.9l2.76,3.87,2.77-3.87v5.9H21.6V18.67Z"/><path class="cls-3" d="M276.67,210.78c1.17,0,2-.64,2-1.49s-.57-1.1-1.24-1.29l-1.26-.37c-.33-.1-.51-.24-.51-.47s.33-.58.83-.58a1.31,1.31,0,0,1,1.19.66l.87-.25a2.11,2.11,0,0,0-2.05-1.2,1.63,1.63,0,0,0-1.81,1.38c0,.68.49,1,1.13,1.22l1.27.37c.42.13.61.28.61.57s-.38.64-1,.64a1.41,1.41,0,0,1-1.37-.9l-.89.27a2.29,2.29,0,0,0,2.23,1.44m-5.74-.89a1.61,1.61,0,0,1,0-3.21,1.61,1.61,0,0,1,0,3.21m-.16.89a2,2,0,0,0,1.71-.84v.72h1v-4.74h-1v.71a2,2,0,0,0-1.71-.84,2.5,2.5,0,0,0,0,5m-5.42,0a2.24,2.24,0,0,0,2.24-1.48l-.91-.25a1.37,1.37,0,0,1-1.33.84,1.61,1.61,0,0,1,0-3.21,1.38,1.38,0,0,1,1.33.88l.91-.27a2.25,2.25,0,0,0-2.25-1.5,2.5,2.5,0,0,0,0,5m-4.62-.12h1v-4.75h-1Zm.5-5.52a.61.61,0,1,0,0-1.21.61.61,0,1,0,0,1.21m-3.75.65a1.92,1.92,0,0,0-1.66.81,1.53,1.53,0,0,0-1.46-.81,1.76,1.76,0,0,0-1.49.78v-.65h-1v4.74h1v-2.4c0-.95.46-1.54,1.22-1.54s1,.5,1,1.29v2.65h1v-2.48c0-.9.45-1.46,1.18-1.46s1.07.5,1.07,1.29v2.65h1v-2.84a1.8,1.8,0,0,0-1.86-2m-10.6,2.14a1.43,1.43,0,0,1,1.47-1.29,1.36,1.36,0,0,1,1.45,1.28Zm1.56,2.85a2.41,2.41,0,0,0,2.27-1.35l-.9-.26a1.59,1.59,0,0,1-2.93-.58h3.86a2.6,2.6,0,0,0,0-.4,2.29,2.29,0,0,0-2.42-2.4,2.5,2.5,0,0,0,.09,5m-.6-5.61h.88l1-1.3h-1.1Zm-5.58,4.72a1.61,1.61,0,0,1,0-3.21,1.61,1.61,0,0,1,0,3.21m1.55-6.12v2.86a2,2,0,0,0-1.71-.84,2.5,2.5,0,0,0,0,5,2,2,0,0,0,1.71-.84v.72h1v-6.89Zm-7.72,6.12a1.61,1.61,0,0,1,0-3.21,1.61,1.61,0,0,1,0,3.21m-.16.89a2,2,0,0,0,1.71-.84v.72h1v-4.74h-1v.71a2,2,0,0,0-1.71-.84,2.5,2.5,0,0,0,0,5m-5.42,0a2.24,2.24,0,0,0,2.24-1.48l-.91-.25a1.36,1.36,0,0,1-1.33.84,1.61,1.61,0,0,1,0-3.21,1.37,1.37,0,0,1,1.33.88l.91-.27a2.25,2.25,0,0,0-2.25-1.5,2.5,2.5,0,0,0,0,5m-6.14-.89a1.61,1.61,0,0,1,0-3.21,1.61,1.61,0,0,1,0,3.21m-.16.89a2,2,0,0,0,1.71-.84v.72h1v-4.74h-1v.71a2,2,0,0,0-1.71-.84,2.5,2.5,0,0,0,0,5m-9.55-2.85a1.44,1.44,0,0,1,1.48-1.29,1.36,1.36,0,0,1,1.44,1.28Zm1.56,2.85a2.4,2.4,0,0,0,2.27-1.35l-.9-.26a1.42,1.42,0,0,1-1.35.76,1.43,1.43,0,0,1-1.58-1.34h3.86a2.6,2.6,0,0,0,0-.4,2.28,2.28,0,0,0-2.41-2.4,2.5,2.5,0,0,0,.08,5m-6.18-.89a1.61,1.61,0,0,1,0-3.21,1.61,1.61,0,0,1,0,3.21m1.55-6.12v2.86a2,2,0,0,0-1.71-.84,2.5,2.5,0,0,0,0,5,2,2,0,0,0,1.71-.84v.72h1v-6.89ZM202.3,210a1.06,1.06,0,0,1-1.08-1.06A1.08,1.08,0,1,1,202.3,210m0,.76a1.82,1.82,0,1,0-1.87-1.82,1.82,1.82,0,0,0,1.87,1.82m-5.07-3.86a1.07,1.07,0,1,1,0-2.13,1.07,1.07,0,0,1,0,2.13m0,3.79h.85l4.27-6.6h-.84Zm0-3a1.82,1.82,0,1,0-1.87-1.82,1.81,1.81,0,0,0,1.87,1.82m-5.42,2.23c-1.08,0-1.63-1-1.63-2.49s.55-2.49,1.63-2.49,1.63,1,1.63,2.49-.54,2.49-1.63,2.49m0,.93c1.72,0,2.65-1.46,2.65-3.42s-.93-3.43-2.65-3.43-2.66,1.46-2.66,3.43.95,3.42,2.66,3.42m-3.35-2.4h-.85v-1.51h-1v1.51h-2.1l2.27-4.32h-1.1l-2.37,4.47v.75h3.3v1.38h1v-1.38h.85Zm-9.69,2.28h1v-6.89h-1Zm-5-2.73a1.43,1.43,0,0,1,1.47-1.29,1.36,1.36,0,0,1,1.45,1.28Zm1.56,2.85a2.41,2.41,0,0,0,2.27-1.35l-.9-.26a1.59,1.59,0,0,1-2.93-.58h3.86a2.6,2.6,0,0,0,0-.4,2.29,2.29,0,0,0-2.42-2.4,2.5,2.5,0,0,0,.09,5m-6.18-.89a1.61,1.61,0,0,1,0-3.21,1.61,1.61,0,0,1,0,3.21m1.55-6.12v2.86a2,2,0,0,0-1.71-.84,2.5,2.5,0,0,0,0,5,2,2,0,0,0,1.71-.84v.72h1v-6.89Zm-9.41,7c1.17,0,2-.64,2-1.49s-.57-1.1-1.24-1.29l-1.26-.37c-.33-.1-.51-.24-.51-.47s.33-.58.83-.58a1.31,1.31,0,0,1,1.19.66l.87-.25a2.11,2.11,0,0,0-2-1.2,1.63,1.63,0,0,0-1.81,1.38c0,.68.49,1,1.13,1.22l1.27.37c.42.13.61.28.61.57s-.38.64-1,.64a1.41,1.41,0,0,1-1.37-.9l-.89.27a2.29,2.29,0,0,0,2.23,1.44m-5.43-.89a1.6,1.6,0,1,1,1.56-1.6,1.53,1.53,0,0,1-1.56,1.6m0,.89a2.5,2.5,0,1,0-2.52-2.5,2.44,2.44,0,0,0,2.52,2.5m-5.48-5a1.94,1.94,0,0,0-1.63.83v-.7h-1v4.74h1V208.3a1.4,1.4,0,0,1,1.37-1.58c.77,0,1.17.5,1.17,1.33v2.61h1v-2.78c0-1.29-.67-2.09-1.89-2.09m-7.62,2.14a1.43,1.43,0,0,1,1.47-1.29,1.36,1.36,0,0,1,1.45,1.28Zm1.56,2.85a2.41,2.41,0,0,0,2.27-1.35l-.9-.26a1.59,1.59,0,0,1-2.93-.58h3.86a2.6,2.6,0,0,0,0-.4,2.29,2.29,0,0,0-2.42-2.4,2.5,2.5,0,0,0,.09,5m-5.46-5a1.92,1.92,0,0,0-1.66.81,1.54,1.54,0,0,0-1.46-.81,1.76,1.76,0,0,0-1.49.78v-.65h-1v4.74h1v-2.4c0-.95.46-1.54,1.21-1.54s1,.5,1,1.29v2.65h1v-2.48c0-.9.45-1.46,1.19-1.46s1.07.5,1.07,1.29v2.65h1v-2.84a1.8,1.8,0,0,0-1.86-2m-11.34,0a1.94,1.94,0,0,0-1.63.83v-.7h-1v4.74h1V208.3a1.4,1.4,0,0,1,1.37-1.58c.77,0,1.17.5,1.17,1.33v2.61h1v-2.78c0-1.29-.67-2.09-1.89-2.09m-6.25,4.1a1.6,1.6,0,1,1,1.56-1.6,1.53,1.53,0,0,1-1.56,1.6m0,.89a2.5,2.5,0,1,0-2.52-2.5,2.44,2.44,0,0,0,2.52,2.5m-5.58,0a2.24,2.24,0,0,0,2.24-1.48l-.92-.25a1.35,1.35,0,0,1-1.32.84,1.61,1.61,0,0,1,0-3.21,1.37,1.37,0,0,1,1.32.88l.92-.27a2.25,2.25,0,0,0-2.25-1.5,2.5,2.5,0,0,0,0,5m-7.83,0c1.17,0,2-.64,2-1.49s-.58-1.1-1.25-1.29l-1.26-.37c-.32-.1-.51-.24-.51-.47s.33-.58.83-.58a1.31,1.31,0,0,1,1.19.66l.87-.25a2.1,2.1,0,0,0-2-1.2,1.63,1.63,0,0,0-1.81,1.38c0,.68.5,1,1.13,1.22l1.27.37c.43.13.62.28.62.57s-.39.64-1,.64a1.41,1.41,0,0,1-1.37-.9l-.9.27a2.3,2.3,0,0,0,2.24,1.44m-6.8-2.85a1.43,1.43,0,0,1,1.47-1.29,1.34,1.34,0,0,1,1.44,1.28Zm1.55,2.85a2.43,2.43,0,0,0,2.28-1.35l-.91-.26a1.59,1.59,0,0,1-2.92-.58h3.85a2.6,2.6,0,0,0,0-.4,2.28,2.28,0,0,0-2.41-2.4,2.5,2.5,0,0,0,.08,5m-5.48-5a1.94,1.94,0,0,0-1.64.83v-.7h-1v4.74h1V208.3a1.4,1.4,0,0,1,1.37-1.58c.77,0,1.17.5,1.17,1.33v2.61h1v-2.78c0-1.29-.67-2.09-1.88-2.09m-6.26,4.1a1.6,1.6,0,1,1,1.56-1.6,1.53,1.53,0,0,1-1.56,1.6m0,.89a2.5,2.5,0,1,0-2.52-2.5,2.44,2.44,0,0,0,2.52,2.5m-4.65-.12h1v-4.75h-1Zm.5-5.52a.61.61,0,1,0-.62-.61.6.6,0,0,0,.62.61m-3.87,5.64a2.24,2.24,0,0,0,2.24-1.48l-.91-.25a1.38,1.38,0,0,1-1.33.84,1.61,1.61,0,0,1,0-3.21,1.39,1.39,0,0,1,1.33.88l.91-.27a2.25,2.25,0,0,0-2.25-1.5,2.5,2.5,0,0,0,0,5m-4.6-4.86v2.35c0,1-.54,1.59-1.36,1.59s-1.17-.51-1.17-1.34v-2.6h-1v2.78a1.82,1.82,0,0,0,1.88,2.08,1.93,1.93,0,0,0,1.64-.84v.72h1v-4.74Zm-4.74,3.78a1.38,1.38,0,0,1-.62.15c-.46,0-.68-.27-.68-.73v-2.33h1.51v-.87H72.21v-1.59h-1v1.59h-.87v.87h.87v2.33c0,1,.46,1.61,1.48,1.61a2.52,2.52,0,0,0,1-.22Zm-5.08,1h1v-4.75h-1Zm.5-5.52a.61.61,0,1,0,0-1.21.61.61,0,1,0,0,1.21M67.1,209.7a1.39,1.39,0,0,1-.63.15.64.64,0,0,1-.68-.73v-2.33H67.3v-.87H65.79v-1.59h-1v1.59H64v.87h.86v2.33c0,1,.47,1.61,1.48,1.61a2.57,2.57,0,0,0,1-.22Zm-5.72,1.08c1.17,0,2-.64,2-1.49s-.57-1.1-1.24-1.29l-1.27-.37c-.32-.1-.51-.24-.51-.47s.33-.58.83-.58a1.29,1.29,0,0,1,1.19.66l.88-.25a2.11,2.11,0,0,0-2.06-1.2,1.63,1.63,0,0,0-1.81,1.38c0,.68.5,1,1.13,1.22l1.28.37c.42.13.61.28.61.57s-.39.64-1,.64a1.41,1.41,0,0,1-1.37-.9l-.89.27a2.28,2.28,0,0,0,2.23,1.44m-5.05-5a1.94,1.94,0,0,0-1.64.83v-.7h-1v4.74h1V208.3a1.4,1.4,0,0,1,1.37-1.58c.78,0,1.17.5,1.17,1.33v2.61h1v-2.78c0-1.29-.67-2.09-1.88-2.09m-5,4.87h1v-4.75h-1Zm.5-5.52a.61.61,0,1,0-.62-.61.6.6,0,0,0,.62.61m-6,1.46,1.63-1.83v-.71H42.94V205H46l-1.62,2,.17.64a1.32,1.32,0,0,1,.77-.21,1.19,1.19,0,0,1,1.27,1.24,1.29,1.29,0,0,1-1.4,1.29,1.58,1.58,0,0,1-1.57-1.29l-.91.26a2.4,2.4,0,0,0,2.52,1.94,2.24,2.24,0,0,0,2.35-2.2,1.91,1.91,0,0,0-1.87-2m-5.69,0,1.63-1.83v-.71H37.26V205h3.09l-1.62,2,.18.64a1.27,1.27,0,0,1,.76-.21A1.2,1.2,0,0,1,41,208.6a1.3,1.3,0,0,1-1.41,1.29A1.59,1.59,0,0,1,38,208.6l-.91.26a2.41,2.41,0,0,0,2.53,1.94,2.23,2.23,0,0,0,2.34-2.2,1.91,1.91,0,0,0-1.87-2"/><path class="cls-3" d="M263.07,229c1.17,0,2-.64,2-1.49s-.57-1.1-1.24-1.29l-1.26-.37c-.33-.11-.51-.24-.51-.47s.33-.58.83-.58a1.29,1.29,0,0,1,1.19.66l.87-.25a2.11,2.11,0,0,0-2.05-1.2,1.63,1.63,0,0,0-1.81,1.38c0,.68.5,1,1.13,1.21l1.27.38c.43.12.61.27.61.57s-.38.64-1,.64a1.39,1.39,0,0,1-1.36-.9l-.9.27a2.29,2.29,0,0,0,2.23,1.44m-5.74-.89a1.61,1.61,0,0,1,0-3.21,1.61,1.61,0,0,1,0,3.21m-.16.89a2,2,0,0,0,1.71-.84v.72h1v-4.75h-1v.72a2,2,0,0,0-1.71-.84,2.5,2.5,0,0,0,0,5m-5.42,0a2.24,2.24,0,0,0,2.24-1.48l-.91-.26a1.35,1.35,0,0,1-1.33.85,1.61,1.61,0,0,1,0-3.21,1.38,1.38,0,0,1,1.33.87l.91-.26a2.25,2.25,0,0,0-2.25-1.5,2.5,2.5,0,0,0,0,5m-4.62-.12h1v-4.75h-1Zm.5-5.52a.61.61,0,0,0,.62-.61.61.61,0,0,0-.62-.61.62.62,0,0,0-.63.61.62.62,0,0,0,.63.61m-3.75.65a1.92,1.92,0,0,0-1.66.81,1.53,1.53,0,0,0-1.46-.81,1.76,1.76,0,0,0-1.49.78v-.66h-1v4.75h1v-2.4c0-.95.46-1.55,1.22-1.55s1,.5,1,1.3v2.65h1V226.4c0-.9.45-1.47,1.18-1.47s1.07.5,1.07,1.3v2.65h1V226a1.8,1.8,0,0,0-1.86-2m-10.6,2.14a1.43,1.43,0,0,1,1.47-1.29,1.35,1.35,0,0,1,1.45,1.28Zm1.56,2.85a2.41,2.41,0,0,0,2.27-1.35l-.9-.26a1.59,1.59,0,0,1-2.93-.58h3.86a2.69,2.69,0,0,0,0-.4,2.28,2.28,0,0,0-2.42-2.4,2.5,2.5,0,0,0,.09,5m-.6-5.61h.88l1-1.3H235Zm-5.58,4.72a1.61,1.61,0,0,1,0-3.21,1.61,1.61,0,0,1,0,3.21m1.55-6.12v2.86a2,2,0,0,0-1.71-.84,2.5,2.5,0,0,0,0,5,2,2,0,0,0,1.71-.84v.72h1V222Zm-7.72,6.12a1.61,1.61,0,0,1,0-3.21,1.61,1.61,0,0,1,0,3.21m-.16.89a2,2,0,0,0,1.71-.84v.72h1v-4.75h-1v.72a2,2,0,0,0-1.71-.84,2.5,2.5,0,0,0,0,5m-5.42,0a2.24,2.24,0,0,0,2.24-1.48l-.91-.26a1.35,1.35,0,0,1-1.33.85,1.61,1.61,0,0,1,0-3.21,1.38,1.38,0,0,1,1.33.87l.91-.26a2.25,2.25,0,0,0-2.25-1.5,2.5,2.5,0,0,0,0,5m-6.14-.89a1.61,1.61,0,0,1,0-3.21,1.61,1.61,0,0,1,0,3.21m-.16.89a2,2,0,0,0,1.71-.84v.72h1v-4.75h-1v.72a2,2,0,0,0-1.71-.84,2.5,2.5,0,0,0,0,5m-9.55-2.85a1.44,1.44,0,0,1,1.48-1.29,1.35,1.35,0,0,1,1.44,1.28Zm1.56,2.85a2.4,2.4,0,0,0,2.27-1.35l-.9-.26a1.42,1.42,0,0,1-1.35.76,1.44,1.44,0,0,1-1.58-1.34h3.86a2.69,2.69,0,0,0,0-.4,2.28,2.28,0,0,0-2.41-2.4,2.5,2.5,0,0,0,.08,5m-6.18-.89a1.61,1.61,0,0,1,0-3.21,1.61,1.61,0,0,1,0,3.21M198,222v2.86a2,2,0,0,0-1.71-.84,2.5,2.5,0,0,0,0,5,2,2,0,0,0,1.71-.84v.72h1V222Zm-9.29,6.2a1.06,1.06,0,1,1,1.07-1.06,1.05,1.05,0,0,1-1.07,1.06m0,.76a1.82,1.82,0,1,0-1.87-1.82A1.82,1.82,0,0,0,188.7,229m-5.07-3.86a1.06,1.06,0,0,1-1.08-1.07,1,1,0,0,1,1.08-1.06,1,1,0,0,1,1.06,1.06,1.05,1.05,0,0,1-1.06,1.07m0,3.79h.85l4.27-6.6h-.84Zm0-3a1.82,1.82,0,1,0-1.87-1.82,1.81,1.81,0,0,0,1.87,1.82m-5.42,2.23c-1.08,0-1.63-1-1.63-2.49s.55-2.49,1.63-2.49,1.63,1,1.63,2.49-.54,2.49-1.63,2.49m0,.93c1.72,0,2.65-1.46,2.65-3.42s-.93-3.43-2.65-3.43-2.66,1.45-2.66,3.43.95,3.42,2.66,3.42m-3.34-2.41H174v-1.5h-1v1.5h-2.1l2.27-4.31h-1.1l-2.37,4.47v.75H173v1.38h1V227.5h.86Zm-12.29-.44a1.43,1.43,0,0,1,1.47-1.29,1.34,1.34,0,0,1,1.44,1.28Zm1.55,2.85a2.43,2.43,0,0,0,2.28-1.35l-.91-.26a1.59,1.59,0,0,1-2.92-.58h3.85a2.69,2.69,0,0,0,0-.4,2.27,2.27,0,0,0-2.41-2.4,2.5,2.5,0,0,0,.08,5m-6.17-.89a1.61,1.61,0,0,1,0-3.21,1.61,1.61,0,0,1,0,3.21M159.5,222v2.86a2,2,0,0,0-1.7-.84,2.5,2.5,0,0,0,0,5,2,2,0,0,0,1.7-.84v.72h1V222Zm-9.4,7c1.17,0,2-.64,2-1.49s-.58-1.1-1.24-1.29l-1.27-.37c-.32-.11-.51-.24-.51-.47s.33-.58.83-.58a1.28,1.28,0,0,1,1.19.66l.88-.25a2.12,2.12,0,0,0-2.06-1.2,1.63,1.63,0,0,0-1.81,1.38c0,.68.5,1,1.13,1.21l1.28.38c.42.12.61.27.61.57s-.39.64-1,.64a1.41,1.41,0,0,1-1.37-.9l-.89.27A2.28,2.28,0,0,0,150.1,229m-5.74-.89a1.61,1.61,0,0,1,0-3.21,1.61,1.61,0,0,1,0,3.21m-.16.89a2,2,0,0,0,1.7-.84v.72h1v-4.75h-1v.72a2,2,0,0,0-1.7-.84,2.5,2.5,0,0,0,0,5m-.33-5.61h.87l1-1.3H144.6Zm-5,.62a1.94,1.94,0,0,0-1.67.81,1.53,1.53,0,0,0-1.46-.81,1.76,1.76,0,0,0-1.49.78v-.66h-1v4.75h1v-2.4c0-.95.46-1.55,1.22-1.55s1,.5,1,1.3v2.65h1V226.4c0-.9.45-1.47,1.19-1.47s1.06.5,1.06,1.3v2.65h1V226a1.8,1.8,0,0,0-1.85-2m-11.34,0a1.92,1.92,0,0,0-1.63.83v-.71h-1v4.75h1v-2.36c0-1,.53-1.59,1.36-1.59s1.17.51,1.17,1.34v2.61h1v-2.79c0-1.28-.66-2.08-1.88-2.08m-6.25,4.09a1.6,1.6,0,1,1,1.55-1.59,1.53,1.53,0,0,1-1.55,1.59m0,.9a2.5,2.5,0,1,0-2.52-2.5,2.44,2.44,0,0,0,2.52,2.5m-5.59,0a2.24,2.24,0,0,0,2.25-1.48l-.92-.26a1.35,1.35,0,0,1-1.33.85,1.61,1.61,0,0,1,0-3.21,1.38,1.38,0,0,1,1.33.87l.92-.26a2.26,2.26,0,0,0-2.26-1.5,2.5,2.5,0,0,0,0,5m-7.82,0c1.16,0,2-.64,2-1.49s-.57-1.1-1.24-1.29l-1.26-.37c-.32-.11-.51-.24-.51-.47s.33-.58.83-.58a1.29,1.29,0,0,1,1.19.66l.87-.25a2.11,2.11,0,0,0-2-1.2,1.63,1.63,0,0,0-1.81,1.38c0,.68.5,1,1.13,1.21l1.27.38c.43.12.61.27.61.57s-.38.64-1,.64a1.4,1.4,0,0,1-1.36-.9l-.9.27a2.29,2.29,0,0,0,2.24,1.44m-6.81-2.85a1.44,1.44,0,0,1,1.48-1.29,1.35,1.35,0,0,1,1.44,1.28Zm1.56,2.85a2.4,2.4,0,0,0,2.27-1.35l-.9-.26a1.42,1.42,0,0,1-1.35.76,1.44,1.44,0,0,1-1.58-1.34H105a2.69,2.69,0,0,0,0-.4,2.28,2.28,0,0,0-2.41-2.4,2.5,2.5,0,0,0,.08,5m-5.49-5a1.94,1.94,0,0,0-1.63.83v-.71h-1v4.75h1v-2.36a1.41,1.41,0,0,1,1.37-1.59c.77,0,1.17.51,1.17,1.34v2.61h1v-2.79A1.82,1.82,0,0,0,97.17,224m-6.25,4.09a1.6,1.6,0,1,1,1.56-1.59,1.53,1.53,0,0,1-1.56,1.59m0,.9a2.5,2.5,0,1,0-2.52-2.5,2.45,2.45,0,0,0,2.52,2.5m-4.65-.12h1v-4.75h-1Zm.5-5.52a.61.61,0,0,0,.62-.61.62.62,0,0,0-1.24,0,.61.61,0,0,0,.62.61M82.89,229a2.24,2.24,0,0,0,2.25-1.48l-.92-.26a1.35,1.35,0,0,1-1.33.85,1.61,1.61,0,0,1,0-3.21,1.38,1.38,0,0,1,1.33.87l.92-.26a2.26,2.26,0,0,0-2.26-1.5,2.5,2.5,0,0,0,0,5m-4.59-4.87v2.36a1.41,1.41,0,0,1-1.37,1.59c-.77,0-1.17-.51-1.17-1.34v-2.61h-1v2.79A1.83,1.83,0,0,0,76.66,229a1.94,1.94,0,0,0,1.64-.84v.72h1v-4.75Zm-4.74,3.78a1.28,1.28,0,0,1-.63.16.64.64,0,0,1-.68-.73V225h1.51v-.88H72.25v-1.58h-1v1.58h-.87V225h.87v2.33c0,1,.46,1.61,1.47,1.61a2.57,2.57,0,0,0,1-.22Zm-5.09,1h1v-4.75h-1Zm.5-5.52a.62.62,0,0,0,.63-.61.62.62,0,0,0-.63-.61.61.61,0,0,0-.62.61.61.61,0,0,0,.62.61m-1.83,4.55a1.22,1.22,0,0,1-.62.16.64.64,0,0,1-.68-.73V225h1.51v-.88H65.84v-1.58h-1v1.58H64V225h.87v2.33c0,1,.46,1.61,1.48,1.61a2.57,2.57,0,0,0,1-.22ZM61.43,229c1.17,0,2-.64,2-1.49s-.58-1.1-1.25-1.29l-1.26-.37c-.32-.11-.51-.24-.51-.47s.33-.58.83-.58a1.29,1.29,0,0,1,1.19.66l.88-.25a2.12,2.12,0,0,0-2.06-1.2,1.63,1.63,0,0,0-1.81,1.38c0,.68.5,1,1.13,1.21l1.27.38c.43.12.62.27.62.57s-.39.64-1,.64a1.41,1.41,0,0,1-1.37-.9l-.9.27A2.3,2.3,0,0,0,61.43,229m-5.06-5a1.94,1.94,0,0,0-1.63.83v-.71h-1v4.75h1v-2.36a1.41,1.41,0,0,1,1.37-1.59c.77,0,1.17.51,1.17,1.34v2.61h1v-2.79A1.82,1.82,0,0,0,56.37,224m-5,4.87h1v-4.75h-1Zm.5-5.52a.61.61,0,0,0,.62-.61.62.62,0,0,0-1.24,0,.61.61,0,0,0,.62.61m-4,3.23H47v-1.5H46v1.5h-2.1l2.27-4.31H45l-2.37,4.47v.75H46v1.38h1V227.5h.86Zm-8.17-2a2.65,2.65,0,0,0-1.27.3l.13-1.73h3v-.91H37.65l-.29,3.4.79.23a2.17,2.17,0,0,1,1.36-.46,1.28,1.28,0,0,1,1.42,1.32,1.31,1.31,0,0,1-1.41,1.32A1.53,1.53,0,0,1,38,227l-.92.26A2.4,2.4,0,0,0,39.57,229a2.22,2.22,0,0,0,2.35-2.22,2.12,2.12,0,0,0-2.23-2.16"/><path class="cls-4" d="M23.92,201.25s-5,0-5,5v3s0,5,5,5h3s5,0,5-5v-3s0-5-5-5Z"/><path class="cls-5" d="M23.92,219.67s-5,0-5,5v3s0,5,5,5h3s5,0,5-5v-3s0-5-5-5Z"/><path class="cls-4" d="M154.84,169.17a53.56,53.56,0,1,1,53.55-53.55,53.56,53.56,0,0,1-53.55,53.55m0-125.33a71.78,71.78,0,1,0,71.77,71.78,71.78,71.78,0,0,0-71.77-71.78"/><path class="cls-5" d="M191.54,155.28a54.37,54.37,0,0,1-36.79,14.23c-30,0-54.32-24.13-54.32-53.89a54.11,54.11,0,0,1,54.32-53.9V44.5c-39.6,0-71.69,31.84-71.69,71.12s32.09,71.12,71.68,71.12a71.72,71.72,0,0,0,48.73-19Z"/><path class="cls-5" d="M154.06,45.2c-38.83.37-70.3,31.81-70.3,70.42a69.65,69.65,0,0,0,20.79,49.79,71.42,71.42,0,0,0,97.94,2.34l-11-11.5a55.09,55.09,0,0,1-36.75,14c-30.34,0-55-24.49-55-54.59C99.73,85.75,124,61.4,154.06,61Zm.69,142.23h0a72.21,72.21,0,0,1-51.18-21,71.08,71.08,0,0,1-21.2-50.78c0-39.6,32.48-71.82,72.38-71.82h.7V62.41h-.69c-29.58,0-53.64,23.87-53.64,53.21s24.06,53.2,53.63,53.2a53.72,53.72,0,0,0,36.32-14l.5-.46,12.9,13.51-.52.48a72.52,72.52,0,0,1-49.2,19.13"/></g></g></svg>