<svg xmlns="http://www.w3.org/2000/svg" viewBox="0 0 231.72 62.87"><defs><style>.cls-1{fill:#1d1d1b;}</style></defs><title>obs-Recurso 1</title><g id="Capa_2" data-name="Capa 2"><g id="Capa_1-2" data-name="Capa 1"><path class="cls-1" d="M222.48,51.49h3.64A1.82,1.82,0,0,1,228,53.26a1.85,1.85,0,0,1-2,1.79h-3.5Zm5.41,11.1h3.83l-3.39-5.05a4.54,4.54,0,0,0,2.87-4.28,4.8,4.8,0,0,0-5-4.74h-7V62.59h3.3V58h2.41Zm-18-2.79a4.25,4.25,0,1,1,4.08-4.25,4,4,0,0,1-4.08,4.25m0,3.07a7.32,7.32,0,1,0-7.46-7.32,7.2,7.2,0,0,0,7.46,7.32m-12.71-.28h3.38V48.52h-3.38ZM186.3,51.49h3.64a1.82,1.82,0,0,1,1.85,1.77,1.85,1.85,0,0,1-2,1.79h-3.5Zm5.41,11.1h3.84l-3.4-5.05A4.54,4.54,0,0,0,195,53.26a4.8,4.8,0,0,0-5-4.74h-7V62.59h3.3V58h2.41ZM181,51.53v-3H170.4V62.59H181v-3h-7.31V56.9H180V54h-6.31V51.53Zm-17.36,4.15h-3.26V51.53h3.4a2,2,0,0,1,1.89,2.07,2,2,0,0,1-2,2.08m.22-7.16h-6.77V62.59h3.29V58.65h3.34a5.07,5.07,0,1,0,.14-10.13m-12.46,0v8.16c0,1.81-.95,3.14-2.88,3.14s-2.87-1.33-2.87-3.14V48.52h-3.38v8.22c0,3.6,2.19,6.13,6.25,6.13s6.25-2.53,6.25-6.13V48.52ZM135,62.87c3.47,0,5.77-1.95,5.77-4.46s-1.75-3.3-3.86-4l-3.54-1.13c-.6-.18-1-.52-1-1,0-.64.73-1.17,1.87-1.17a3.56,3.56,0,0,1,3.1,1.69l3.07-.9a6.49,6.49,0,0,0-6.21-3.7c-3,0-5.22,1.89-5.2,4.2,0,1.85,1.36,3.13,3.21,3.72l3.62,1.12c1.07.34,1.51.77,1.51,1.35S136.53,60,135.19,60a3.77,3.77,0,0,1-3.64-2.34l-3.18,1A6.8,6.8,0,0,0,135,62.87M118.51,48.52v8.06l-6.34-8.06h-2.71V62.59h3.34V54.53l6.33,8.06h2.71V48.52ZM100.14,59.8a4.25,4.25,0,1,1,4.08-4.25,4,4,0,0,1-4.08,4.25m0,3.07a7.32,7.32,0,1,0-7.46-7.32,7.2,7.2,0,0,0,7.46,7.32M98.53,47h2.71l2.29-2.85H100ZM87.43,62.59h3.38V48.52H87.43Zm-8.54.28c4,0,6.29-2.47,6.83-4.66l-3.25-.83a3.62,3.62,0,0,1-3.62,2.36,4,4,0,0,1-4-4.21,3.93,3.93,0,0,1,4-4.16,3.68,3.68,0,0,1,3.62,2.4L85.72,53c-.54-2.19-2.87-4.72-6.89-4.72a7.32,7.32,0,1,0,.06,14.63M62.19,57l1.91-5.26L66,57Zm5.87,5.61h3.43l-5.2-14.07H61.91L56.7,62.59h3.44l1-2.69h5.95Zm-18.29.28c4,0,6.29-2.47,6.83-4.66l-3.26-.83a3.61,3.61,0,0,1-3.61,2.36,4,4,0,0,1-4-4.21,3.93,3.93,0,0,1,4-4.16,3.66,3.66,0,0,1,3.61,2.4L56.6,53c-.54-2.19-2.87-4.72-6.89-4.72a7.32,7.32,0,1,0,.06,14.63M37.18,48.52v8.16c0,1.81-.94,3.14-2.87,3.14s-2.87-1.33-2.87-3.14V48.52H28.06v8.22c0,3.6,2.19,6.13,6.25,6.13s6.25-2.53,6.25-6.13V48.52ZM19.56,59.59H16.44V51.51h3.12c1.89,0,3.35,1.51,3.35,4s-1.46,4.1-3.35,4.1m.08-11.07H13.15V62.59h6.49c4,0,6.65-3,6.65-7s-2.69-7-6.65-7m-8.5,3v-3H.54V62.59H11.12v-3H3.8V56.9h6.31V54H3.8V51.53Z"/><path class="cls-1" d="M113.26,24.4v8.06l-6.33-8.06h-2.72V38.47h3.34V30.41l6.33,8.06h2.72V24.4Zm-11.06,3v-3H91.61V38.47h10.57v-3H94.87V32.78h6.31V29.87H94.87V27.42ZM77.46,35.68a4,4,0,0,1-4.08-4.24,4.08,4.08,0,1,1,8.16,0,4,4,0,0,1-4.08,4.24m0,3.07A7.32,7.32,0,1,0,70,31.44a7.2,7.2,0,0,0,7.45,7.31M59.9,27.38h3.63a1.81,1.81,0,0,1,1.85,1.76,1.84,1.84,0,0,1-2,1.79H59.9Zm5.4,11.09h3.84l-3.4-5a4.57,4.57,0,0,0,2.88-4.29,4.81,4.81,0,0,0-5-4.74h-7V38.47h3.3V33.85h2.41Zm-10.71-11v-3H44V38.47H54.57v-3H47.25V32.78h6.31V29.87H47.25V27.42Zm-16.34-3v8.06L31.92,24.4H29.2V38.47h3.34V30.41l6.33,8.06h2.72V24.4Zm-11.06,3v-3H16.6V38.47H27.17v-3H19.86V32.78h6.31V29.87H19.86V27.42Zm-2-7.44H21.75l-1.51,2.85H23ZM14.73,30.47H7.54v2.87l3.7,0a3.22,3.22,0,0,1-3.4,2.34,4.15,4.15,0,0,1-4.46-4.24,4,4,0,0,1,4.08-4.17,3.78,3.78,0,0,1,3.71,2.12l3.1-.89a7,7,0,0,0-6.85-4.36,7.32,7.32,0,1,0,.16,14.63c4.34,0,7.15-2.81,7.15-6.61Z"/><path class="cls-1" d="M191.45,3.3v-3h-10.6V14.35h10.58v-3h-7.32V8.66h6.31V5.75h-6.31V3.3Zm-19.2,8.06h-3.11V3.28h3.11c1.89,0,3.36,1.5,3.36,4s-1.47,4.1-3.36,4.1M172.33.28h-6.49V14.35h6.49c4,0,6.65-2.95,6.65-7s-2.69-7-6.65-7M151.69,11.56a4,4,0,0,1-4.08-4.24,4.08,4.08,0,1,1,8.16,0,4,4,0,0,1-4.08,4.24m0,3.07a7.2,7.2,0,0,0,7.46-7.31,7.46,7.46,0,0,0-14.92,0,7.2,7.2,0,0,0,7.46,7.31M139,14.35h3.37V.28H139ZM128.13,3.26h3.64A1.81,1.81,0,0,1,133.62,5a1.84,1.84,0,0,1-2,1.78h-3.5Zm5.41,11.09h3.84l-3.4-5A4.57,4.57,0,0,0,136.86,5a4.81,4.81,0,0,0-5-4.75h-7V14.35h3.29V9.73h2.41Zm-18-2.79a4,4,0,0,1-4.08-4.24,4.08,4.08,0,1,1,8.16,0,4,4,0,0,1-4.08,4.24m0,3.07A7.2,7.2,0,0,0,123,7.32a7.46,7.46,0,0,0-14.92,0,7.2,7.2,0,0,0,7.46,7.31M108.09.28H95.79v3h4.49V14.35h3.33V3.3h4.48ZM87.89,8.74,89.8,3.48l1.91,5.26Zm5.87,5.61H97.2L92,.28H87.61l-5.2,14.07h3.43l1-2.69h6ZM80.24.28,76.6,10.07,73,.28h-3.7l5.49,14.07h3.66L83.92.28ZM60,3.26h3.63A1.81,1.81,0,0,1,65.52,5a1.84,1.84,0,0,1-2,1.78H60Zm5.4,11.09h3.84l-3.39-5A4.56,4.56,0,0,0,68.76,5a4.81,4.81,0,0,0-5-4.75h-7V14.35H60V9.73h2.41ZM54.73,3.3v-3H44.14V14.35H54.71v-3H47.39V8.66h6.32V5.75H47.39V3.3ZM36.56,14.63c3.48,0,5.77-2,5.77-4.46s-1.75-3.3-3.86-4L34.93,5.08c-.6-.18-.94-.52-.94-1,0-.64.72-1.17,1.87-1.17A3.55,3.55,0,0,1,39,4.6L42,3.7A6.51,6.51,0,0,0,35.82,0c-3,0-5.23,1.89-5.21,4.2,0,1.85,1.37,3.14,3.22,3.72L37.45,9c1.06.35,1.5.77,1.5,1.35s-.84,1.33-2.19,1.33a3.79,3.79,0,0,1-3.64-2.33l-3.17,1a6.77,6.77,0,0,0,6.61,4.26M24,11.48H20V8.56h4A1.43,1.43,0,0,1,25.63,10,1.46,1.46,0,0,1,24,11.48m-.36-8.34A1.38,1.38,0,0,1,25.19,4.5,1.46,1.46,0,0,1,23.66,6H20V3.14ZM26.75,7A3.19,3.19,0,0,0,28.44,4.1c0-2.27-1.91-3.82-4.78-3.82H16.78V14.35H24c3.05,0,4.92-1.49,4.92-4A3.61,3.61,0,0,0,26.75,7M7.46,11.56A4,4,0,0,1,3.38,7.32,4,4,0,0,1,7.46,3.08a4,4,0,0,1,4.08,4.24,4,4,0,0,1-4.08,4.24m0,3.07a7.19,7.19,0,0,0,7.45-7.31A7.2,7.2,0,0,0,7.46,0,7.21,7.21,0,0,0,0,7.32a7.2,7.2,0,0,0,7.46,7.31"/></g></g></svg>