<svg xmlns="http://www.w3.org/2000/svg" viewBox="0 0 107.27 92.96"><defs><style>.cls-1{fill:#ffdb00;}.cls-2{fill:#000003;}</style></defs><title>obs-Recurso 2</title><g id="Capa_2" data-name="Capa 2"><g id="Capa_1-2" data-name="Capa 1"><path class="cls-1" d="M53.17,73.89A27.67,27.67,0,1,0,25.5,46.22,27.67,27.67,0,0,0,53.17,73.89"/><path d="M74.94,68.11a30.3,30.3,0,0,0,0-43.26,94.77,94.77,0,0,1,28.18,21.63A94.44,94.44,0,0,1,74.94,68.11ZM4.14,46.48A94.9,94.9,0,0,1,32.32,24.85a30.3,30.3,0,0,0,0,43.26A94.57,94.57,0,0,1,4.14,46.48m76.31,0A26.82,26.82,0,1,1,53.63,19.67,26.82,26.82,0,0,1,80.45,46.48m26.41-1.12a98.14,98.14,0,0,0-15.48-14.6c-8.79-6.69-22.46-14.67-37.75-14.67s-29,8-37.74,14.66A97.84,97.84,0,0,0,.4,45.36a1.79,1.79,0,0,0,0,2.25,98.23,98.23,0,0,0,15.49,14.6c8.78,6.69,22.45,14.66,37.74,14.66s29-8,37.75-14.66a98.54,98.54,0,0,0,15.48-14.59,1.78,1.78,0,0,0,0-2.26"/><path class="cls-2" d="M53.22,54.36V67.08a1.62,1.62,0,0,1-.47,1.21,1.64,1.64,0,0,1-1.21.46,1.78,1.78,0,0,1-1.26-.46,1.49,1.49,0,0,1-.52-1.21V54.36H45l5-16.74H49.1c-.54,1.88-1,3.39-1.36,4.58s-.68,2.33-1,3.42a20.09,20.09,0,0,0-.62,2,1.35,1.35,0,0,1-1.42,1.06l-.38-.09a1.37,1.37,0,0,1-1-1.33,1,1,0,0,1,.1-.46,12.75,12.75,0,0,0,.35-1.26c.19-.71.45-1.59.76-2.61s.65-2.17,1-3.37S46.2,37.15,46.6,36a4.65,4.65,0,0,1,1.57-2.33,3.71,3.71,0,0,1,2.51-1h5.83a3.72,3.72,0,0,1,2.56,1A5.61,5.61,0,0,1,60.69,36c.32,1.12.66,2.29,1,3.51s.69,2.33,1,3.37.56,1.9.75,2.61a9.75,9.75,0,0,0,.38,1.26l.09.37a1.31,1.31,0,0,1-1,1.41l-.35.1a1.31,1.31,0,0,1-1.42-1.06c-.06-.23-.27-.91-.55-2s-.67-2.22-1.05-3.42-.82-2.7-1.36-4.58h-.86l5,16.74H57.51V67.08A1.43,1.43,0,0,1,57,68.29a1.72,1.72,0,0,1-1.23.46,1.66,1.66,0,0,1-1.23-.46,1.61,1.61,0,0,1-.45-1.21V54.36Z"/><path class="cls-2" d="M53.69,31.63a3.37,3.37,0,0,0,2.52-1,3.73,3.73,0,0,0,0-5.17,3.27,3.27,0,0,0-2.52-1.09A3.64,3.64,0,0,0,51,25.44a3.68,3.68,0,0,0,0,5.17,3.75,3.75,0,0,0,2.68,1"/><rect x="51.84" width="3.58" height="12.51"/><rect x="68.2" y="7.15" width="11.99" height="3.58" transform="translate(33.02 71.3) rotate(-63.43)"/><rect x="31.28" y="2.94" width="3.58" height="11.99" transform="translate(-0.51 15.73) rotate(-26.57)"/><rect x="87.24" y="15.2" width="11.45" height="3.58" transform="translate(21.65 78.99) rotate(-51.36)"/><rect x="12.52" y="11.26" width="3.58" height="11.45" transform="translate(-7.47 12.66) rotate(-38.67)"/><rect x="51.84" y="80.45" width="3.58" height="12.51"/><rect x="72.4" y="78.03" width="3.58" height="11.99" transform="translate(-29.74 42.05) rotate(-26.57)"/><rect x="27.08" y="82.24" width="11.99" height="3.58" transform="translate(-56.87 76.03) rotate(-63.44)"/><rect x="91.21" y="70.24" width="3.58" height="11.45" transform="translate(-27.07 74.76) rotate(-38.67)"/><rect x="8.58" y="74.19" width="11.45" height="3.58" transform="translate(-53.98 39.71) rotate(-51.36)"/></g></g></svg>