<svg xmlns="http://www.w3.org/2000/svg" viewBox="0 0 307.17 263.5"><defs><style>.cls-1{fill:#fff;}.cls-2{fill:#1d1d1b;}.cls-3{fill:#797979;}.cls-4{fill:#eb5954;}.cls-5{fill:#76bdac;}</style></defs><title>obs-Recurso 10</title><g id="Capa_2" data-name="Capa 2"><g id="Capa_1-2" data-name="Capa 1"><path class="cls-1" d="M8.91,0S0,0,0,8.91V254.59s0,8.91,8.91,8.91H298.26s8.91,0,8.91-8.91V8.91s0-8.91-8.91-8.91Z"/><path class="cls-2" d="M284,22.07l1.5-3.82L287,22.07Zm4.18,3.06h1.3l-3.19-8.07h-1.6l-3.19,8.07h1.3l.77-2h3.84Zm-9-8.07v5.85l-4.48-5.85h-1v8.07H275V19.29l4.47,5.84h1V17.06Zm-8.52,8.07H272V17.06h-1.27Zm-2.93-8.07L265,21.12l-2.83-4.06H261v8.07h1.25v-5.9L265,23.1l2.76-3.87v5.9H269V17.06Zm-12.4,7.07a2.91,2.91,0,0,1-2.95-3.05,2.95,2.95,0,1,1,5.89,0,2.91,2.91,0,0,1-2.94,3.05m0,1.15a4.19,4.19,0,1,0-4.21-4.19,4.1,4.1,0,0,0,4.21,4.19m-.65-9.14h1.07L257,14.55h-1.35Zm-6.19.92v5.85l-4.47-5.85h-1.05v8.07h1.26V19.29l4.47,5.84h1.05V17.06Zm-11.45,0v4.79a2.15,2.15,0,1,1-4.29,0V17.06h-1.26v4.81a3.41,3.41,0,1,0,6.81,0V17.06Zm-9.94,8.22c1.89,0,3.16-1.09,3.16-2.44s-.87-1.76-2.11-2.16l-2-.63c-.72-.22-1-.5-1-1s.62-1.07,1.53-1.07A2.4,2.4,0,0,1,229,19.27l1.16-.35a3.53,3.53,0,0,0-3.39-2c-1.62,0-2.79,1-2.79,2.22,0,1,.74,1.63,1.81,2l2,.64c.95.3,1.28.65,1.28,1.18s-.71,1.26-1.83,1.26a2.61,2.61,0,0,1-2.52-1.69l-1.18.36a3.72,3.72,0,0,0,3.63,2.43M218,17.06v5.85l-4.47-5.85h-1v8.07h1.25V19.29l4.48,5.84h1V17.06Zm-7,1.13V17.06h-5.81v8.07H211V24h-4.57V21.57h4V20.49h-4v-2.3Zm-13.43,7.09c1.89,0,3.16-1.09,3.16-2.44s-.87-1.76-2.11-2.16l-2-.63c-.73-.22-1-.5-1-1S196.19,18,197.1,18a2.4,2.4,0,0,1,2.23,1.25l1.16-.35a3.53,3.53,0,0,0-3.39-2c-1.62,0-2.79,1-2.79,2.22,0,1,.74,1.63,1.81,2l2,.64c.95.3,1.28.65,1.28,1.18s-.71,1.26-1.83,1.26a2.59,2.59,0,0,1-2.51-1.69l-1.19.36a3.73,3.73,0,0,0,3.63,2.43m-9.43-3.21,1.5-3.82,1.49,3.82Zm4.18,3.06h1.31l-3.2-8.07h-1.6l-3.19,8.07h1.3l.77-2h3.84Zm-10.91.15a3.85,3.85,0,0,0,3.81-2.5L184,22.47a2.66,2.66,0,0,1-2.61,1.64,2.91,2.91,0,0,1-2.93-3,2.88,2.88,0,0,1,2.93-3A2.7,2.7,0,0,1,184,19.74l1.21-.3a3.85,3.85,0,0,0-3.83-2.53,4.19,4.19,0,1,0,0,8.37m-6.85-.15h1.27V17.06h-1.27Zm-2.93-8.07-2.81,4.06L166,17.06h-1.2v8.07H166v-5.9l2.76,3.87,2.77-3.87v5.9h1.25V17.06Zm-8.33,1.13V17.06h-5.81v8.07h5.8V24h-4.57V21.57h4V20.49h-4v-2.3Zm-1.34-3.64h-1.35l-.9,1.59h1.08ZM152.14,24h-2V18.19h2a2.64,2.64,0,0,1,2.68,2.89A2.65,2.65,0,0,1,152.14,24m0-6.94h-3.28v8.07h3.28a3.76,3.76,0,0,0,3.92-4,3.77,3.77,0,0,0-3.92-4m-9.79,5,1.5-3.82,1.49,3.82Zm4.19,3.06h1.3l-3.19-8.07h-1.61l-3.19,8.07h1.3l.78-2h3.83Zm-10.92.15a3.87,3.87,0,0,0,3.82-2.5l-1.21-.31a2.68,2.68,0,0,1-2.62,1.64,2.91,2.91,0,0,1-2.93-3,2.88,2.88,0,0,1,2.93-3,2.72,2.72,0,0,1,2.63,1.66l1.21-.3a3.88,3.88,0,0,0-3.84-2.53,4.19,4.19,0,1,0,0,8.37m-9.95-3.21,1.5-3.82,1.49,3.82Zm4.19,3.06h1.3L128,17.06h-1.6l-3.2,8.07h1.3l.78-2h3.83Zm-10.5-6.94V17.06h-5.81v8.07h5.79V24H114.8V21.57h4V20.49h-4v-2.3ZM108.25,24h-2V18.19h2a2.64,2.64,0,0,1,2.69,2.89A2.65,2.65,0,0,1,108.25,24m0-6.94H105v8.07h3.29a3.75,3.75,0,0,0,3.91-4,3.76,3.76,0,0,0-3.91-4m-10,7.23A1.29,1.29,0,0,1,96.93,23a1.28,1.28,0,0,1,1.32-1.29A1.26,1.26,0,0,1,99.55,23a1.28,1.28,0,0,1-1.3,1.29m0,.93A2.22,2.22,0,1,0,96,23a2.22,2.22,0,0,0,2.28,2.22m-6.2-4.72a1.3,1.3,0,1,1,0-2.6,1.3,1.3,0,0,1,0,2.6m0,4.63h1l5.22-8.07h-1Zm0-3.71a2.22,2.22,0,1,0-2.29-2.22,2.22,2.22,0,0,0,2.29,2.22m-6.62,2.72c-1.33,0-2-1.21-2-3s.66-3.05,2-3.05,2,1.21,2,3.05-.65,3-2,3m0,1.14c2.1,0,3.24-1.78,3.24-4.18s-1.14-4.19-3.24-4.19-3.25,1.78-3.25,4.19,1.15,4.18,3.25,4.18m-4.09-2.94h-1V20.5H79v1.84H76.46l2.78-5.28H77.89L75,22.53v.92h4v1.68h1.26V23.45h1ZM70.93,18.19V17.06H65.12v8.07h5.8V24H66.35V21.57h4V20.49h-4v-2.3ZM59.81,24h-2V18.19h2a2.64,2.64,0,0,1,2.68,2.89A2.65,2.65,0,0,1,59.81,24m0-6.94H56.54v8.07h3.29a3.76,3.76,0,0,0,3.92-4,3.77,3.77,0,0,0-3.92-4M48.92,25.28c1.9,0,3.16-1.09,3.16-2.44s-.86-1.76-2.11-2.16l-2-.63c-.73-.22-1-.5-1-1S47.59,18,48.5,18a2.39,2.39,0,0,1,2.22,1.25l1.17-.35a3.53,3.53,0,0,0-3.39-2c-1.63,0-2.79,1-2.79,2.22,0,1,.74,1.63,1.81,2l2,.64c.94.3,1.28.65,1.28,1.18s-.72,1.26-1.84,1.26a2.6,2.6,0,0,1-2.51-1.69l-1.19.36a3.73,3.73,0,0,0,3.63,2.43m-8.53-1.15a2.91,2.91,0,0,1-3-3.05,2.95,2.95,0,1,1,5.89,0,2.9,2.9,0,0,1-2.94,3.05m0,1.15a4.19,4.19,0,1,0-4.2-4.19,4.1,4.1,0,0,0,4.2,4.19m-6.83-8.22v5.85l-4.47-5.85H28v8.07h1.25V19.29l4.48,5.84h1V17.06Zm-7,1.13V17.06H20.73v8.07h5.8V24H22V21.57h4V20.49H22v-2.3ZM17.8,17.06,15,21.12l-2.83-4.06H11v8.07h1.25v-5.9L15,23.1l2.76-3.87v5.9H19V17.06Z"/><path class="cls-3" d="M277.75,222.51c1.17,0,2-.64,2-1.48s-.58-1.11-1.24-1.3l-1.27-.37c-.32-.1-.51-.23-.51-.47s.33-.57.83-.57a1.28,1.28,0,0,1,1.19.66l.88-.26a2.13,2.13,0,0,0-2.06-1.19,1.63,1.63,0,0,0-1.81,1.37c0,.68.5,1,1.13,1.22l1.28.38c.42.12.61.27.61.56s-.39.64-1,.64a1.4,1.4,0,0,1-1.37-.89l-.9.26a2.29,2.29,0,0,0,2.24,1.44m-5.74-.88a1.61,1.61,0,0,1,0-3.22,1.61,1.61,0,0,1,0,3.22m-.16.88a2,2,0,0,0,1.7-.83v.71h1v-4.74h-1v.71a2,2,0,0,0-1.7-.83,2.49,2.49,0,0,0,0,5m-5.43,0a2.24,2.24,0,0,0,2.25-1.48l-.92-.25a1.36,1.36,0,0,1-1.33.85,1.61,1.61,0,0,1,0-3.22,1.38,1.38,0,0,1,1.33.88l.92-.26a2.26,2.26,0,0,0-2.26-1.5,2.49,2.49,0,0,0,0,5m-4.62-.12h1v-4.74h-1Zm.5-5.52a.61.61,0,1,0-.62-.61.6.6,0,0,0,.62.61m-3.74.66a1.9,1.9,0,0,0-1.66.81,1.55,1.55,0,0,0-1.46-.81,1.79,1.79,0,0,0-1.5.78v-.66h-1v4.74h1V220c0-1,.47-1.55,1.22-1.55s1,.5,1,1.29v2.65h1v-2.48c0-.89.45-1.46,1.19-1.46s1.07.5,1.07,1.29v2.65h1v-2.84a1.79,1.79,0,0,0-1.85-2M248,219.66a1.43,1.43,0,0,1,1.47-1.29,1.35,1.35,0,0,1,1.44,1.28Zm1.55,2.85a2.42,2.42,0,0,0,2.28-1.34l-.91-.27a1.41,1.41,0,0,1-1.35.77,1.42,1.42,0,0,1-1.57-1.34h3.85a2.8,2.8,0,0,0,0-.4,2.27,2.27,0,0,0-2.41-2.4,2.49,2.49,0,0,0,.08,5m-.59-5.61h.88l1-1.3h-1.11Zm-5.58,4.73a1.61,1.61,0,0,1,0-3.22,1.61,1.61,0,0,1,0,3.22m1.54-6.12v2.85a2,2,0,0,0-1.7-.83,2.49,2.49,0,0,0,0,5,2,2,0,0,0,1.7-.83v.71h1v-6.88Zm-7.71,6.12a1.61,1.61,0,0,1,0-3.22,1.61,1.61,0,0,1,0,3.22m-.16.88a2,2,0,0,0,1.7-.83v.71h1v-4.74h-1v.71a2,2,0,0,0-1.7-.83,2.49,2.49,0,0,0,0,5m-5.43,0a2.24,2.24,0,0,0,2.25-1.48l-.92-.25a1.36,1.36,0,0,1-1.33.85,1.61,1.61,0,0,1,0-3.22,1.38,1.38,0,0,1,1.33.88l.92-.26a2.26,2.26,0,0,0-2.26-1.5,2.49,2.49,0,0,0,0,5m-6.14-.88a1.61,1.61,0,0,1,0-3.22,1.61,1.61,0,0,1,0,3.22m-.16.88a2,2,0,0,0,1.71-.83v.71h1v-4.74h-1v.71a2,2,0,0,0-1.71-.83,2.49,2.49,0,0,0,0,5m-9.54-2.85a1.44,1.44,0,0,1,1.47-1.29,1.34,1.34,0,0,1,1.44,1.28Zm1.56,2.85a2.41,2.41,0,0,0,2.27-1.34l-.91-.27a1.39,1.39,0,0,1-1.34.77,1.43,1.43,0,0,1-1.58-1.34h3.86a2.8,2.8,0,0,0,0-.4,2.28,2.28,0,0,0-2.42-2.4,2.49,2.49,0,0,0,.09,5m-6.18-.88a1.61,1.61,0,0,1,0-3.22,1.61,1.61,0,0,1,0,3.22m1.55-6.12v2.85a2,2,0,0,0-1.71-.83,2.49,2.49,0,0,0,0,5,2,2,0,0,0,1.71-.83v.71h1v-6.88Zm-9.29,6.19a1.06,1.06,0,1,1,0-2.11,1.06,1.06,0,1,1,0,2.11m0,.77a1.82,1.82,0,1,0-1.87-1.82,1.81,1.81,0,0,0,1.87,1.82m-5.08-3.87a1.06,1.06,0,1,1,1.07-1.06,1.05,1.05,0,0,1-1.07,1.06m0,3.79h.85l4.27-6.6h-.84Zm0-3a1.82,1.82,0,1,0-1.86-1.82,1.82,1.82,0,0,0,1.86,1.82m-5.41,2.22c-1.09,0-1.63-1-1.63-2.49s.54-2.49,1.63-2.49,1.62,1,1.62,2.49-.54,2.49-1.62,2.49m0,.93c1.72,0,2.65-1.46,2.65-3.42s-.93-3.42-2.65-3.42-2.66,1.45-2.66,3.42.94,3.42,2.66,3.42m-3.35-2.4h-.86V218.6h-1v1.51h-2.1l2.27-4.32h-1.1l-2.37,4.47V221h3.3v1.37h1V221h.86Zm-9.69,2.28h1v-6.88h-1Zm-5-2.73a1.43,1.43,0,0,1,1.47-1.29,1.34,1.34,0,0,1,1.44,1.28Zm1.55,2.85a2.42,2.42,0,0,0,2.28-1.34l-.91-.27a1.41,1.41,0,0,1-1.35.77,1.42,1.42,0,0,1-1.57-1.34h3.85a2.8,2.8,0,0,0,0-.4,2.27,2.27,0,0,0-2.41-2.4,2.49,2.49,0,0,0,.08,5m-6.17-.88a1.61,1.61,0,0,1,0-3.22,1.61,1.61,0,0,1,0,3.22m1.54-6.12v2.85a2,2,0,0,0-1.7-.83,2.49,2.49,0,0,0,0,5,2,2,0,0,0,1.7-.83v.71h1v-6.88Zm-9.4,7c1.17,0,2-.64,2-1.48s-.58-1.11-1.24-1.3l-1.27-.37c-.32-.1-.51-.23-.51-.47s.33-.57.83-.57a1.28,1.28,0,0,1,1.19.66l.88-.26a2.13,2.13,0,0,0-2.06-1.19,1.63,1.63,0,0,0-1.81,1.37c0,.68.5,1,1.13,1.22l1.28.38c.42.12.61.27.61.56s-.39.64-1,.64a1.4,1.4,0,0,1-1.37-.89l-.9.26a2.29,2.29,0,0,0,2.24,1.44m-5.43-.89a1.6,1.6,0,1,1,1.55-1.59,1.53,1.53,0,0,1-1.55,1.59m0,.89a2.49,2.49,0,1,0-2.52-2.49,2.43,2.43,0,0,0,2.52,2.49m-5.48-5a1.9,1.9,0,0,0-1.63.83v-.71h-1v4.74h1V220a1.39,1.39,0,0,1,1.36-1.58c.78,0,1.17.51,1.17,1.34v2.6h1v-2.78a1.82,1.82,0,0,0-1.88-2.08m-7.62,2.13a1.43,1.43,0,0,1,1.47-1.29,1.34,1.34,0,0,1,1.44,1.28Zm1.55,2.85a2.42,2.42,0,0,0,2.28-1.34l-.91-.27a1.41,1.41,0,0,1-1.35.77,1.42,1.42,0,0,1-1.57-1.34h3.85a2.8,2.8,0,0,0,0-.4,2.27,2.27,0,0,0-2.41-2.4,2.49,2.49,0,0,0,.08,5m-5.46-5a1.9,1.9,0,0,0-1.66.81,1.53,1.53,0,0,0-1.46-.81,1.76,1.76,0,0,0-1.49.78v-.66h-1v4.74h1V220c0-1,.46-1.55,1.22-1.55s1,.5,1,1.29v2.65h1v-2.48c0-.89.45-1.46,1.18-1.46s1.07.5,1.07,1.29v2.65h1v-2.84a1.79,1.79,0,0,0-1.86-2m-11.33,0a1.92,1.92,0,0,0-1.64.83v-.71h-1v4.74h1V220a1.4,1.4,0,0,1,1.37-1.58c.78,0,1.17.51,1.17,1.34v2.6h1v-2.78a1.82,1.82,0,0,0-1.88-2.08m-6.26,4.09A1.6,1.6,0,1,1,123.9,220a1.53,1.53,0,0,1-1.56,1.59m0,.89a2.49,2.49,0,1,0-2.51-2.49,2.44,2.44,0,0,0,2.51,2.49m-5.58,0A2.23,2.23,0,0,0,119,221l-.91-.25a1.36,1.36,0,0,1-1.33.85,1.61,1.61,0,0,1,0-3.22,1.38,1.38,0,0,1,1.33.88L119,219a2.24,2.24,0,0,0-2.25-1.5,2.49,2.49,0,0,0,0,5m-7.83,0c1.17,0,2-.64,2-1.48s-.57-1.11-1.24-1.3l-1.27-.37c-.32-.1-.51-.23-.51-.47s.33-.57.83-.57a1.28,1.28,0,0,1,1.19.66l.88-.26a2.12,2.12,0,0,0-2.06-1.19,1.63,1.63,0,0,0-1.81,1.37c0,.68.5,1,1.13,1.22l1.28.38c.42.12.61.27.61.56s-.38.64-1,.64a1.4,1.4,0,0,1-1.37-.89l-.89.26a2.26,2.26,0,0,0,2.23,1.44m-6.8-2.85a1.45,1.45,0,0,1,1.47-1.29,1.36,1.36,0,0,1,1.45,1.28Zm1.56,2.85a2.4,2.4,0,0,0,2.27-1.34l-.9-.27a1.41,1.41,0,0,1-1.35.77,1.44,1.44,0,0,1-1.58-1.34H106a2.8,2.8,0,0,0,0-.4,2.28,2.28,0,0,0-2.42-2.4,2.49,2.49,0,0,0,.09,5m-6.18-.88a1.61,1.61,0,0,1,0-3.22,1.61,1.61,0,0,1,0,3.22m1.55-6.12v2.85a2,2,0,0,0-1.71-.83,2.49,2.49,0,0,0,0,5,2,2,0,0,0,1.71-.83v.71h1v-6.88Zm-7.72,6.12a1.61,1.61,0,0,1,0-3.22,1.61,1.61,0,0,1,0,3.22m-.16.88a2,2,0,0,0,1.71-.83v.71h1v-4.74h-1v.71a2,2,0,0,0-1.71-.83,2.49,2.49,0,0,0,0,5m-6-.88a1.61,1.61,0,0,1,0-3.22,1.61,1.61,0,0,1,0,3.22m1.54-6.12v2.85a2,2,0,0,0-1.7-.83,2.49,2.49,0,0,0,0,5,2,2,0,0,0,1.7-.83v.71h1v-6.88Zm-6.19,6.88h1v-4.74h-1Zm.5-5.52a.61.61,0,1,0,0-1.21.61.61,0,1,0,0,1.21m-3.67,5.64c1.17,0,2-.64,2-1.48s-.58-1.11-1.25-1.3l-1.26-.37c-.32-.1-.51-.23-.51-.47s.33-.57.83-.57a1.29,1.29,0,0,1,1.19.66l.87-.26a2.11,2.11,0,0,0-2-1.19,1.63,1.63,0,0,0-1.81,1.37c0,.68.5,1,1.13,1.22l1.27.38c.43.12.62.27.62.56s-.39.64-1,.64a1.4,1.4,0,0,1-1.37-.89l-.9.26a2.28,2.28,0,0,0,2.24,1.44M73,218.4v-.75h-1v4.74h1v-2.14c0-1.38.61-1.89,1.62-1.74v-.92a1.48,1.48,0,0,0-1.62.81m-6,1.26a1.43,1.43,0,0,1,1.47-1.29A1.34,1.34,0,0,1,70,219.65Zm1.56,2.85a2.41,2.41,0,0,0,2.27-1.34L70,220.9a1.4,1.4,0,0,1-1.35.77,1.42,1.42,0,0,1-1.57-1.34h3.86a2.75,2.75,0,0,0,0-.4,2.27,2.27,0,0,0-2.41-2.4,2.49,2.49,0,0,0,.09,5m-4-4.86-1.49,3.67-1.48-3.67H60.6l2,4.74h1.1l2-4.74Zm-5.88,4.74h1v-4.74h-1Zm.5-5.52a.61.61,0,1,0-.62-.61.6.6,0,0,0,.62.61m-3.77.66a1.92,1.92,0,0,0-1.64.83v-.71h-1v4.74h1V220a1.4,1.4,0,0,1,1.37-1.58c.78,0,1.17.51,1.17,1.34v2.6h1v-2.78a1.82,1.82,0,0,0-1.88-2.08m-5,.12V220a1.4,1.4,0,0,1-1.37,1.58c-.77,0-1.17-.51-1.17-1.34v-2.6h-1v2.78a1.83,1.83,0,0,0,1.89,2.08,1.93,1.93,0,0,0,1.64-.83v.71h1v-4.74ZM40.2,221.46,42,219.8a2.88,2.88,0,0,0,1.24-2.1,2,2,0,0,0-2.27-2,2.21,2.21,0,0,0-2.27,1.85l.92.26a1.39,1.39,0,0,1,1.36-1.2,1.12,1.12,0,0,1,1.24,1.16c0,.53-.38.94-.91,1.45l-2.61,2.48v.72H43.3v-.93Zm-5.56,0,1.76-1.66a2.9,2.9,0,0,0,1.23-2.1,2,2,0,0,0-2.27-2,2.21,2.21,0,0,0-2.26,1.85l.91.26a1.39,1.39,0,0,1,1.37-1.2,1.12,1.12,0,0,1,1.24,1.16c0,.53-.38.94-.92,1.45l-2.6,2.48v.72h4.64v-.93Z"/><path class="cls-3" d="M264.48,242.15c1.17,0,2-.64,2-1.49s-.58-1.1-1.25-1.29L264,239c-.32-.1-.51-.24-.51-.47s.33-.58.83-.58a1.29,1.29,0,0,1,1.19.66l.88-.25a2.12,2.12,0,0,0-2.06-1.2,1.63,1.63,0,0,0-1.81,1.38c0,.68.5,1,1.13,1.22l1.28.37c.42.13.61.28.61.57s-.39.64-1,.64a1.41,1.41,0,0,1-1.37-.9l-.9.27a2.3,2.3,0,0,0,2.24,1.44m-5.74-.88a1.61,1.61,0,0,1,0-3.22,1.61,1.61,0,0,1,0,3.22m-.16.88a2,2,0,0,0,1.7-.84V242h1v-4.74h-1V238a2,2,0,0,0-1.7-.84,2.5,2.5,0,0,0,0,5m-5.43,0a2.24,2.24,0,0,0,2.25-1.48l-.92-.25a1.36,1.36,0,0,1-1.33.85,1.55,1.55,0,0,1-1.53-1.62,1.53,1.53,0,0,1,1.53-1.6,1.37,1.37,0,0,1,1.33.88l.92-.27a2.26,2.26,0,0,0-2.26-1.5,2.5,2.5,0,0,0,0,5m-4.62-.12h1v-4.75h-1Zm.5-5.52a.61.61,0,1,0-.62-.61.6.6,0,0,0,.62.61m-3.74.65a1.92,1.92,0,0,0-1.66.81,1.55,1.55,0,0,0-1.46-.81,1.79,1.79,0,0,0-1.5.78v-.65h-1V242h1v-2.4c0-.95.47-1.54,1.22-1.54s1,.5,1,1.29V242h1v-2.48c0-.9.45-1.46,1.19-1.46s1.07.5,1.07,1.29V242h1v-2.84a1.8,1.8,0,0,0-1.85-2m-10.6,2.14a1.43,1.43,0,0,1,1.47-1.29,1.35,1.35,0,0,1,1.44,1.28Zm1.55,2.85a2.43,2.43,0,0,0,2.28-1.35l-.91-.26a1.59,1.59,0,0,1-2.92-.58h3.85a2.6,2.6,0,0,0,0-.4,2.28,2.28,0,0,0-2.41-2.4,2.5,2.5,0,0,0,.08,5m-.59-5.61h.88l1-1.3h-1.1Zm-5.58,4.73a1.61,1.61,0,0,1,0-3.22,1.61,1.61,0,0,1,0,3.22m1.54-6.13V238a2,2,0,0,0-1.71-.84,2.5,2.5,0,0,0,0,5,2,2,0,0,0,1.71-.84V242h1v-6.89Zm-7.71,6.13a1.61,1.61,0,0,1,0-3.22,1.61,1.61,0,0,1,0,3.22m-.16.88a2,2,0,0,0,1.71-.84V242h1v-4.74h-1V238a2,2,0,0,0-1.71-.84,2.5,2.5,0,0,0,0,5m-5.43,0a2.24,2.24,0,0,0,2.25-1.48l-.92-.25a1.36,1.36,0,0,1-1.33.85,1.54,1.54,0,0,1-1.52-1.62,1.52,1.52,0,0,1,1.52-1.6,1.37,1.37,0,0,1,1.33.88l.92-.27a2.26,2.26,0,0,0-2.26-1.5,2.5,2.5,0,0,0,0,5m-6.14-.88a1.61,1.61,0,0,1,0-3.22,1.61,1.61,0,0,1,0,3.22m-.16.88a2,2,0,0,0,1.71-.84V242h1v-4.74h-1V238a2,2,0,0,0-1.71-.84,2.5,2.5,0,0,0,0,5m-9.54-2.85a1.43,1.43,0,0,1,1.47-1.29,1.36,1.36,0,0,1,1.45,1.28Zm1.56,2.85a2.41,2.41,0,0,0,2.27-1.35l-.91-.26a1.41,1.41,0,0,1-1.35.76,1.42,1.42,0,0,1-1.57-1.34h3.86a2.61,2.61,0,0,0,0-.4,2.28,2.28,0,0,0-2.41-2.4,2.5,2.5,0,0,0,.09,5m-6.18-.88a1.61,1.61,0,0,1,0-3.22,1.61,1.61,0,0,1,0,3.22m1.55-6.13V238a2,2,0,0,0-1.71-.84,2.5,2.5,0,0,0,0,5,2,2,0,0,0,1.71-.84V242h1v-6.89Zm-9.29,6.2a1.05,1.05,0,0,1-1.08-1.06,1,1,0,0,1,1.08-1.05,1,1,0,0,1,1.06,1.05,1,1,0,0,1-1.06,1.06m0,.76a1.82,1.82,0,1,0-1.87-1.82,1.81,1.81,0,0,0,1.87,1.82M185,238.24a1.07,1.07,0,1,1,1.07-1.07,1.05,1.05,0,0,1-1.07,1.07m0,3.79h.85l4.27-6.6h-.84Zm0-3a1.82,1.82,0,1,0-1.87-1.82A1.82,1.82,0,0,0,185,239m-5.41,2.23c-1.09,0-1.63-1-1.63-2.49s.54-2.49,1.63-2.49,1.62,1,1.62,2.49-.54,2.49-1.62,2.49m0,.93c1.72,0,2.65-1.46,2.65-3.42s-.93-3.43-2.65-3.43-2.66,1.46-2.66,3.43.94,3.42,2.66,3.42m-3.35-2.4h-.86v-1.51h-1v1.51h-2.11l2.27-4.32h-1.1l-2.37,4.47v.75h3.31V242h1v-1.38h.86ZM164,239.3a1.43,1.43,0,0,1,1.47-1.29,1.36,1.36,0,0,1,1.45,1.28Zm1.56,2.85a2.41,2.41,0,0,0,2.27-1.35l-.9-.26A1.59,1.59,0,0,1,164,240h3.86a2.6,2.6,0,0,0,0-.4,2.29,2.29,0,0,0-2.42-2.4,2.5,2.5,0,0,0,.09,5m-6.18-.88a1.61,1.61,0,0,1,0-3.22,1.61,1.61,0,0,1,0,3.22m1.55-6.13V238a2,2,0,0,0-1.71-.84,2.5,2.5,0,0,0,0,5,2,2,0,0,0,1.71-.84V242h1v-6.89Zm-9.4,7c1.16,0,2-.64,2-1.49s-.57-1.1-1.24-1.29L151,239c-.33-.1-.51-.24-.51-.47s.33-.58.83-.58a1.31,1.31,0,0,1,1.19.66l.87-.25a2.11,2.11,0,0,0-2.05-1.2,1.63,1.63,0,0,0-1.81,1.38c0,.68.5,1,1.13,1.22l1.27.37c.42.13.61.28.61.57s-.38.64-1,.64a1.41,1.41,0,0,1-1.37-.9l-.89.27a2.29,2.29,0,0,0,2.24,1.44m-5.75-.88a1.61,1.61,0,0,1,0-3.22,1.61,1.61,0,0,1,0,3.22m-.16.88a2,2,0,0,0,1.71-.84V242h1v-4.74h-1V238a2,2,0,0,0-1.71-.84,2.5,2.5,0,0,0,0,5m-.33-5.61h.88l1-1.3H146Zm-5,.62a1.92,1.92,0,0,0-1.66.81,1.53,1.53,0,0,0-1.46-.81,1.76,1.76,0,0,0-1.49.78v-.65h-1V242h1v-2.4c0-.95.46-1.54,1.21-1.54s1,.5,1,1.29V242h1v-2.48c0-.9.46-1.46,1.19-1.46s1.07.5,1.07,1.29V242h1v-2.84a1.8,1.8,0,0,0-1.86-2m-11.34,0a1.94,1.94,0,0,0-1.63.83v-.7h-1V242h1v-2.36a1.4,1.4,0,0,1,1.37-1.58c.77,0,1.17.5,1.17,1.33V242h1v-2.78c0-1.29-.67-2.09-1.89-2.09m-6.25,4.1a1.6,1.6,0,1,1,1.56-1.6,1.54,1.54,0,0,1-1.56,1.6m0,.89a2.5,2.5,0,1,0-2.52-2.5,2.44,2.44,0,0,0,2.52,2.5m-5.58,0a2.24,2.24,0,0,0,2.24-1.48l-.91-.25a1.37,1.37,0,0,1-1.33.85,1.54,1.54,0,0,1-1.53-1.62,1.52,1.52,0,0,1,1.53-1.6,1.38,1.38,0,0,1,1.33.88l.91-.27a2.25,2.25,0,0,0-2.25-1.5,2.5,2.5,0,0,0,0,5m-7.83,0c1.17,0,2-.64,2-1.49s-.58-1.1-1.24-1.29l-1.27-.37c-.32-.1-.51-.24-.51-.47s.33-.58.83-.58a1.29,1.29,0,0,1,1.19.66l.88-.25a2.12,2.12,0,0,0-2.06-1.2,1.63,1.63,0,0,0-1.81,1.38c0,.68.5,1,1.13,1.22l1.28.37c.42.13.61.28.61.57s-.39.64-1,.64a1.41,1.41,0,0,1-1.37-.9l-.9.27a2.3,2.3,0,0,0,2.24,1.44m-6.8-2.85A1.43,1.43,0,0,1,104,238a1.34,1.34,0,0,1,1.44,1.28Zm1.56,2.85a2.41,2.41,0,0,0,2.27-1.35l-.91-.26a1.41,1.41,0,0,1-1.35.76,1.42,1.42,0,0,1-1.57-1.34h3.86a2.61,2.61,0,0,0,0-.4,2.28,2.28,0,0,0-2.41-2.4,2.5,2.5,0,0,0,.09,5m-6.18-.88a1.61,1.61,0,0,1,0-3.22,1.61,1.61,0,0,1,0,3.22m1.55-6.13V238a2,2,0,0,0-1.71-.84,2.5,2.5,0,0,0,0,5,2,2,0,0,0,1.71-.84V242h1v-6.89Zm-7.72,6.13a1.61,1.61,0,0,1,0-3.22,1.61,1.61,0,0,1,0,3.22m-.16.88a2,2,0,0,0,1.71-.84V242h1v-4.74h-1V238a2,2,0,0,0-1.71-.84,2.5,2.5,0,0,0,0,5m-6-.88a1.61,1.61,0,0,1,0-3.22,1.61,1.61,0,0,1,0,3.22m1.55-6.13V238a2,2,0,0,0-1.71-.84,2.5,2.5,0,0,0,0,5,2,2,0,0,0,1.71-.84V242h1v-6.89ZM80.9,242h1v-4.75h-1Zm.5-5.52a.61.61,0,1,0-.62-.61.6.6,0,0,0,.62.61m-3.67,5.64c1.17,0,2-.64,2-1.49s-.57-1.1-1.24-1.29L77.22,239c-.33-.1-.51-.24-.51-.47s.33-.58.83-.58a1.31,1.31,0,0,1,1.19.66l.87-.25a2.11,2.11,0,0,0-2-1.2,1.63,1.63,0,0,0-1.81,1.38c0,.68.49,1,1.13,1.22l1.27.37c.43.13.61.28.61.57s-.38.64-1,.64a1.42,1.42,0,0,1-1.37-.9l-.89.27a2.29,2.29,0,0,0,2.23,1.44M73.41,238v-.75h-1V242h1v-2.14c0-1.38.62-1.89,1.63-1.74v-.92a1.48,1.48,0,0,0-1.63.81m-6,1.26A1.43,1.43,0,0,1,68.9,238a1.35,1.35,0,0,1,1.44,1.28ZM69,242.15a2.43,2.43,0,0,0,2.28-1.35l-.91-.26a1.59,1.59,0,0,1-2.92-.58h3.85a2.6,2.6,0,0,0,0-.4,2.28,2.28,0,0,0-2.41-2.4,2.5,2.5,0,0,0,.08,5m-4-4.86L63.53,241l-1.48-3.66H61L63,242h1.11l2-4.74ZM59.14,242h1v-4.75h-1Zm.5-5.52a.61.61,0,1,0,0-1.21.61.61,0,1,0,0,1.21m-3.78.65a1.94,1.94,0,0,0-1.63.83v-.7h-1V242h1v-2.36a1.4,1.4,0,0,1,1.37-1.58c.77,0,1.17.5,1.17,1.33V242h1v-2.78c0-1.29-.67-2.09-1.89-2.09m-5,.13v2.35a1.41,1.41,0,0,1-1.37,1.59c-.78,0-1.17-.51-1.17-1.34v-2.6h-1v2.78a1.82,1.82,0,0,0,1.88,2.08,1.94,1.94,0,0,0,1.65-.84V242h1v-4.74Zm-9.58,4c-.91,0-1.46-.51-1.46-1.19s.55-1.19,1.46-1.19,1.47.51,1.47,1.19-.57,1.19-1.47,1.19m0-5.14c.76,0,1.21.44,1.21,1s-.45,1-1.21,1-1.21-.45-1.21-1,.44-1,1.21-1m1.3,2.31a1.51,1.51,0,0,0,.9-1.39c0-1-.85-1.75-2.2-1.75s-2.2.79-2.2,1.75a1.51,1.51,0,0,0,.9,1.39,1.79,1.79,0,0,0-1.18,1.7c0,1.13,1,2,2.48,2s2.48-.88,2.48-2a1.79,1.79,0,0,0-1.18-1.7M36,238l1.63-1.83v-.71H33.23v.91h3.09l-1.62,2,.18.64a1.29,1.29,0,0,1,.76-.21A1.19,1.19,0,0,1,36.92,240a1.3,1.3,0,0,1-1.41,1.3A1.58,1.58,0,0,1,34,240l-.92.26a2.41,2.41,0,0,0,2.53,1.94,2.24,2.24,0,0,0,2.35-2.2A1.92,1.92,0,0,0,36,238"/><path class="cls-4" d="M19.89,213s-5,0-5,5v3s0,5,5,5h3s5,0,5-5v-3s0-5-5-5Z"/><path class="cls-5" d="M19.89,232.82s-5,0-5,5v3s0,5,5,5h3s5,0,5-5v-3s0-5-5-5Z"/><path class="cls-4" d="M154.49,177.19A55.47,55.47,0,1,1,210,121.72a55.48,55.48,0,0,1-55.47,55.47m0-128.66a73.19,73.19,0,1,0,73.2,73.19,73.19,73.19,0,0,0-73.2-73.19"/><path class="cls-5" d="M154.49,48.53a73.19,73.19,0,1,0,54.55,122L195.58,159a55.47,55.47,0,1,1-41.09-92.73Z"/></g></g></svg>