<svg xmlns="http://www.w3.org/2000/svg" viewBox="0 0 333.76 286.3"><defs><style>.cls-1{fill:#fff;}.cls-2{fill:#1d1d1b;}.cls-3{fill:#797979;}.cls-4{fill:#eb5954;}.cls-5{fill:#76bdac;}.cls-6{fill:#bb73ae;}.cls-7{fill:#ffdb00;}</style></defs><title>obs-Recurso 13</title><g id="Capa_2" data-name="Capa 2"><g id="Capa_1-2" data-name="Capa 1"><path class="cls-1" d="M8.91,0S0,0,0,8.91V277.39s0,8.91,8.91,8.91H324.85s8.91,0,8.91-8.91V8.91s0-8.91-8.91-8.91Z"/><path class="cls-2" d="M294.62,21.07v5.85l-4.47-5.85h-1v8.07h1.25V23.3l4.48,5.84h1V21.07Zm-11.09,7.07a2.91,2.91,0,0,1-2.95-3.06,2.95,2.95,0,1,1,5.89,0,2.91,2.91,0,0,1-2.94,3.06m0,1.15a4.19,4.19,0,1,0-4.21-4.2,4.11,4.11,0,0,0,4.21,4.2m-.65-9.14H284l1.17-1.59h-1.35Zm-6.2,9H278V21.07h-1.27Zm-5.17.15a3.86,3.86,0,0,0,3.81-2.5l-1.21-.31a2.66,2.66,0,0,1-2.61,1.64,2.91,2.91,0,0,1-2.93-3,2.88,2.88,0,0,1,2.93-3,2.7,2.7,0,0,1,2.62,1.66l1.21-.3a3.85,3.85,0,0,0-3.83-2.53,4.19,4.19,0,1,0,0,8.37m-6.76-8.22v4.79a2.15,2.15,0,1,1-4.29,0V21.07h-1.25v4.81a3.41,3.41,0,1,0,6.81,0V21.07Zm-6.56,0h-6.93V22.2h2.84v6.94h1.26V22.2h2.83Zm-9.3,8.07h1.27V21.07h-1.27Zm-1.09-8.07h-6.94V22.2h2.85v6.94H245V22.2h2.84Zm-10.34,8.22c1.89,0,3.15-1.09,3.15-2.44s-.86-1.77-2.1-2.16l-2-.63c-.72-.22-1-.5-1-1S236.12,22,237,22a2.41,2.41,0,0,1,2.23,1.24l1.16-.34a3.53,3.53,0,0,0-3.39-2c-1.63,0-2.79,1-2.79,2.21,0,1,.74,1.64,1.81,2l2,.64c.95.3,1.28.65,1.28,1.18s-.72,1.25-1.83,1.25A2.6,2.6,0,0,1,235,26.5l-1.18.36a3.71,3.71,0,0,0,3.63,2.43m-6.18-8.22v5.85l-4.47-5.85h-1.05v8.07H227V23.3l4.48,5.84h1V21.07Zm-8.52,8.07H224V21.07h-1.27ZM213,22.19h2.56a1.43,1.43,0,1,1,0,2.85H213Zm4,7h1.44L216.32,26a2.46,2.46,0,0,0,1.87-2.42,2.56,2.56,0,0,0-2.65-2.55h-3.83v8.07H213v-3h2Zm-10.82-1a2.91,2.91,0,0,1-2.95-3.06,2.95,2.95,0,1,1,5.89,0,2.91,2.91,0,0,1-2.94,3.06m0,1.15a4.19,4.19,0,1,0-4.21-4.2,4.1,4.1,0,0,0,4.21,4.2m-7.87-3.94h-2.35V22.2h2.4a1.58,1.58,0,0,1,0,3.15m.08-4.28h-3.67v8.07h1.24V26.48h2.37a2.71,2.71,0,1,0,.06-5.41m-11.29,8.22c1.89,0,3.16-1.09,3.16-2.44s-.86-1.77-2.11-2.16l-2-.63c-.73-.22-1-.5-1-1s.62-1.07,1.53-1.07a2.41,2.41,0,0,1,2.23,1.24l1.16-.34a3.53,3.53,0,0,0-3.39-2c-1.62,0-2.78,1-2.78,2.21,0,1,.73,1.64,1.8,2l2,.64c.95.3,1.28.65,1.28,1.18s-.71,1.25-1.83,1.25a2.58,2.58,0,0,1-2.51-1.68l-1.19.36a3.73,3.73,0,0,0,3.63,2.43m-9.43-3.21,1.5-3.82,1.49,3.82Zm4.19,3.06h1.3l-3.19-8.07h-1.61l-3.19,8.07h1.3l.78-2H181Zm-12.7-6.95h2.56a1.43,1.43,0,1,1,0,2.85h-2.53Zm4,7h1.44L172.49,26a2.47,2.47,0,0,0,1.88-2.42,2.56,2.56,0,0,0-2.65-2.55h-3.84v8.07h1.24v-3h2Zm-10.83-1a2.91,2.91,0,0,1-2.95-3.06,2.95,2.95,0,1,1,5.89,0,2.91,2.91,0,0,1-2.94,3.06m0,1.15a4.19,4.19,0,1,0-4.2-4.2,4.11,4.11,0,0,0,4.2,4.2m-4.37-8.22H151V22.2h2.84v6.94h1.26V22.2h2.83Zm-11.19,8.22a3.87,3.87,0,0,0,3.82-2.5l-1.21-.31a2.67,2.67,0,0,1-2.62,1.64,2.91,2.91,0,0,1-2.93-3,2.88,2.88,0,0,1,2.93-3,2.72,2.72,0,0,1,2.63,1.66l1.21-.3a3.88,3.88,0,0,0-3.84-2.53,4.19,4.19,0,1,0,0,8.37m-5.17-7.09V21.07h-5.81v8.07h5.79V28H137V25.58h4V24.5h-4V22.2Zm-12.59,0h2.56a1.43,1.43,0,1,1,0,2.85H129Zm4,7h1.44L132.36,26a2.46,2.46,0,0,0,1.87-2.42,2.56,2.56,0,0,0-2.65-2.55h-3.84v8.07H129v-3h2Zm-12-6.95h2.56a1.43,1.43,0,1,1,0,2.85H121Zm4,7h1.44L124.33,26a2.47,2.47,0,0,0,1.88-2.42,2.56,2.56,0,0,0-2.65-2.55h-3.84v8.07H121v-3h2Zm-6.76-6.94V21.07h-5.81v8.07h5.8V28h-4.56V25.58h4V24.5h-4V22.2Zm-11,7.09a3.86,3.86,0,0,0,3.81-2.5l-1.21-.31a2.66,2.66,0,0,1-2.61,1.64,2.91,2.91,0,0,1-2.93-3,2.88,2.88,0,0,1,2.93-3,2.7,2.7,0,0,1,2.62,1.66l1.21-.3a3.85,3.85,0,0,0-3.83-2.53,4.19,4.19,0,1,0,0,8.37m-6.85-.15h1.27V21.07h-1.27ZM98,21.07l-2.52,6.51-2.53-6.51H91.57l3.22,8.07h1.35l3.21-8.07ZM87.73,22.2V21.07h-5.8v8.07h5.79V28H83.16V25.58h4V24.5h-4V22.2ZM76.61,28h-2V22.2h2a2.64,2.64,0,0,1,2.69,2.88A2.66,2.66,0,0,1,76.61,28m0-6.94H73.35v8.07h3.28a3.75,3.75,0,0,0,3.92-4,3.77,3.77,0,0,0-3.92-4M64.75,28.14a2.91,2.91,0,0,1-3-3.06,2.95,2.95,0,1,1,5.89,0,2.91,2.91,0,0,1-2.94,3.06m0,1.15a4.19,4.19,0,1,0-4.21-4.2,4.1,4.1,0,0,0,4.21,4.2m-10.51-7.1H56.8a1.43,1.43,0,1,1,0,2.85H54.24Zm4,7h1.44L57.6,26a2.47,2.47,0,0,0,1.88-2.42,2.56,2.56,0,0,0-2.65-2.55H53v8.07h1.25v-3h2ZM51.49,22.2V21.07H45.68v8.07h5.8V28H46.92V25.58h4V24.5h-4V22.2Zm-8.73-1.13-2.82,4.06-2.82-4.06h-1.2v8.07h1.26v-5.9l2.75,3.87,2.77-3.87v5.9H44V21.07Zm-9.74,0v4.79a2.15,2.15,0,1,1-4.29,0V21.07H27.47v4.81a3.15,3.15,0,0,0,3.4,3.41,3.16,3.16,0,0,0,3.41-3.41V21.07Zm-.55-2.51H31.13l-.9,1.59H31.3Zm-7.9,2.51v5.85l-4.48-5.85h-1v8.07H20.3V23.3l4.47,5.84h1.05V21.07Z"/><path class="cls-3" d="M49.69,259.86c-1.84,0-2.77-1.68-2.77-4.22s.93-4.23,2.77-4.23,2.75,1.68,2.75,4.23-.91,4.22-2.75,4.22m0,1.58c2.91,0,4.5-2.48,4.5-5.8s-1.59-5.81-4.5-5.81-4.51,2.46-4.51,5.81,1.6,5.8,4.51,5.8"/><path class="cls-4" d="M28.44,66.65s-8.5,0-8.5,8.51V240.45H76.07V75.16s0-8.51-8.51-8.51Z"/><path class="cls-5" d="M90.24,74.61s-8.51,0-8.51,8.5V240.45h56.13V83.11s0-8.5-8.5-8.5Z"/><path class="cls-6" d="M152,161.89s-8.5,0-8.5,8.51v70h56.13v-70s0-8.51-8.51-8.51Z"/><path class="cls-7" d="M208.33,231.72a2.94,2.94,0,0,0-3,3v5.73h56.12v-5.73a2.94,2.94,0,0,0-3-3Z"/><path class="cls-3" d="M199.55,58a1.61,1.61,0,0,1,0-3.21,1.61,1.61,0,0,1,0,3.21m-.16.89a2,2,0,0,0,1.71-.84v.72h1V54h-1v.72a2,2,0,0,0-1.71-.84,2.5,2.5,0,0,0,0,5M195,54.8v-.75h-1v4.74h1V56.65c0-1.38.62-1.89,1.63-1.74V54a1.48,1.48,0,0,0-1.63.81M190.39,58A1.6,1.6,0,1,1,192,56.42,1.52,1.52,0,0,1,190.39,58m0,.9a2.5,2.5,0,1,0-2.52-2.5,2.44,2.44,0,0,0,2.52,2.5m-3.27-1.08a1.38,1.38,0,0,1-.62.15c-.46,0-.68-.27-.68-.73V54.92h1.51V54h-1.51V52.46h-1V54H184v.88h.87v2.33c0,1,.46,1.61,1.48,1.61a2.52,2.52,0,0,0,1-.22Zm-6,1.08a2.24,2.24,0,0,0,2.25-1.48l-.92-.25a1.36,1.36,0,0,1-1.33.84,1.61,1.61,0,0,1,0-3.21,1.38,1.38,0,0,1,1.33.87l.92-.26a2.26,2.26,0,0,0-2.26-1.5,2.5,2.5,0,0,0,0,5m-7.19-2.85a1.43,1.43,0,0,1,1.47-1.29,1.34,1.34,0,0,1,1.44,1.28Zm1.55,2.85a2.43,2.43,0,0,0,2.28-1.35l-.91-.26a1.59,1.59,0,0,1-2.92-.58h3.85a2.6,2.6,0,0,0,0-.4,2.28,2.28,0,0,0-2.41-2.4,2.5,2.5,0,0,0,.08,5m-4.54-4.11v-.75h-1v4.74h1V56.65c0-1.38.61-1.89,1.62-1.74V54a1.47,1.47,0,0,0-1.62.81m-3.59,0v-.75h-1v4.74h1V56.65c0-1.38.62-1.89,1.62-1.74V54a1.47,1.47,0,0,0-1.62.81m-6,1.26a1.44,1.44,0,0,1,1.48-1.29,1.35,1.35,0,0,1,1.44,1.28Zm1.56,2.85a2.4,2.4,0,0,0,2.27-1.35l-.9-.26a1.42,1.42,0,0,1-1.35.76,1.44,1.44,0,0,1-1.58-1.34h3.86a2.6,2.6,0,0,0,0-.4,2.28,2.28,0,0,0-2.41-2.4,2.5,2.5,0,0,0,.08,5m-5.59,0a2.24,2.24,0,0,0,2.24-1.48l-.91-.25a1.36,1.36,0,0,1-1.33.84,1.61,1.61,0,0,1,0-3.21,1.38,1.38,0,0,1,1.33.87l.91-.26a2.25,2.25,0,0,0-2.25-1.5,2.5,2.5,0,0,0,0,5m-4.62-.12h1V54h-1Zm.5-5.52a.6.6,0,0,0,.62-.61.61.61,0,0,0-.62-.61.62.62,0,0,0-.63.61.61.61,0,0,0,.63.61m-2.42.77-1.49,3.67L147.8,54h-1.07l2,4.75h1.1l2-4.75Zm-9.19-.12a2,2,0,0,0-1.64.83V54h-1v4.75h1V56.43a1.41,1.41,0,0,1,1.37-1.59c.78,0,1.17.51,1.17,1.34v2.61h1V56a1.82,1.82,0,0,0-1.88-2.08m-5.05,4.87h1V54h-1Zm.5-5.52a.6.6,0,0,0,.62-.61.62.62,0,0,0-1.24,0,.6.6,0,0,0,.62.61m-3.67,5.64c1.17,0,2-.64,2-1.49s-.57-1.1-1.24-1.29l-1.27-.37c-.32-.1-.51-.24-.51-.47s.33-.58.83-.58a1.28,1.28,0,0,1,1.19.66l.88-.25a2.11,2.11,0,0,0-2.06-1.2,1.63,1.63,0,0,0-1.81,1.38c0,.68.5,1,1.13,1.21l1.28.38c.42.12.61.28.61.57s-.39.64-1,.64a1.41,1.41,0,0,1-1.37-.9l-.89.27a2.28,2.28,0,0,0,2.23,1.44m-7.43,0c1.17,0,2-.64,2-1.49s-.57-1.1-1.24-1.29l-1.27-.37c-.32-.1-.51-.24-.51-.47s.33-.58.83-.58a1.28,1.28,0,0,1,1.19.66l.88-.25a2.11,2.11,0,0,0-2.06-1.2,1.63,1.63,0,0,0-1.81,1.38c0,.68.5,1,1.13,1.21l1.28.38c.42.12.61.28.61.57s-.39.64-1,.64a1.41,1.41,0,0,1-1.37-.9l-.89.27a2.28,2.28,0,0,0,2.23,1.44m-6.8-2.85a1.43,1.43,0,0,1,1.47-1.29,1.35,1.35,0,0,1,1.45,1.28Zm1.56,2.85A2.41,2.41,0,0,0,123,57.56l-.9-.26a1.59,1.59,0,0,1-2.93-.58H123a2.6,2.6,0,0,0,0-.4,2.29,2.29,0,0,0-2.42-2.4,2.5,2.5,0,0,0,.09,5m-5.49-5a1.92,1.92,0,0,0-1.63.83V54h-1v4.75h1V56.43c0-1,.53-1.59,1.36-1.59s1.17.51,1.17,1.34v2.61h1V56c0-1.28-.66-2.08-1.88-2.08M109,58a1.6,1.6,0,1,1,1.55-1.59A1.53,1.53,0,0,1,109,58m0,.9a2.5,2.5,0,1,0-2.52-2.5,2.44,2.44,0,0,0,2.52,2.5m-4.65-.12h1V54h-1Zm.5-5.52a.61.61,0,0,0,.62-.61.63.63,0,0,0-1.25,0,.61.61,0,0,0,.63.61m-3.88,5.64a2.24,2.24,0,0,0,2.24-1.48l-.91-.25a1.36,1.36,0,0,1-1.33.84,1.61,1.61,0,0,1,0-3.21,1.38,1.38,0,0,1,1.33.87l.91-.26a2.25,2.25,0,0,0-2.25-1.5,2.5,2.5,0,0,0,0,5M96.33,54V56.4A1.41,1.41,0,0,1,95,58c-.77,0-1.17-.51-1.17-1.34V54h-1v2.79a1.83,1.83,0,0,0,1.89,2.08,1.94,1.94,0,0,0,1.64-.84v.72h1V54Zm-4.75,3.79A1.32,1.32,0,0,1,91,58a.64.64,0,0,1-.68-.73V54.92h1.51V54H90.28V52.46h-1V54h-.87v.88h.87v2.33c0,1,.46,1.61,1.48,1.61a2.57,2.57,0,0,0,1-.22Zm-5.08,1h1V54h-1Zm.5-5.52a.6.6,0,0,0,.62-.61.62.62,0,0,0-1.24,0,.6.6,0,0,0,.62.61m-1.83,4.56a1.38,1.38,0,0,1-.62.15c-.46,0-.68-.27-.68-.73V54.92h1.51V54H83.87V52.46h-1V54H82v.88h.87v2.33c0,1,.46,1.61,1.48,1.61a2.52,2.52,0,0,0,1-.22Zm-5.72,1.08c1.17,0,2-.64,2-1.49s-.57-1.1-1.24-1.29l-1.26-.37c-.33-.1-.51-.24-.51-.47s.33-.58.83-.58a1.29,1.29,0,0,1,1.19.66l.87-.25a2.11,2.11,0,0,0-2-1.2,1.63,1.63,0,0,0-1.81,1.38c0,.68.49,1,1.13,1.21l1.27.38c.42.12.61.28.61.57s-.38.64-1,.64a1.39,1.39,0,0,1-1.36-.9l-.9.27a2.29,2.29,0,0,0,2.23,1.44m-5-5a1.92,1.92,0,0,0-1.63.83V54h-1v4.75h1V56.43a1.41,1.41,0,0,1,1.37-1.59c.77,0,1.17.51,1.17,1.34v2.61h1V56a1.82,1.82,0,0,0-1.89-2.08m-5.05,4.87h1V54h-1Zm.5-5.52a.61.61,0,0,0,.63-.61.63.63,0,0,0-1.25,0,.61.61,0,0,0,.62.61M63.07,58c-1.08,0-1.63-1-1.63-2.49S62,53,63.07,53s1.63,1,1.63,2.49S64.16,58,63.07,58m0,.93c1.72,0,2.65-1.46,2.65-3.42s-.93-3.43-2.65-3.43-2.66,1.46-2.66,3.43,1,3.42,2.66,3.42m-6.51-1.06,1.76-1.66a2.87,2.87,0,0,0,1.23-2.1,2,2,0,0,0-2.27-2A2.22,2.22,0,0,0,55,53.91l.91.27A1.39,1.39,0,0,1,57.3,53a1.12,1.12,0,0,1,1.24,1.16c0,.53-.38.93-.92,1.44L55,58.06v.73h4.64v-.94Z"/><path class="cls-4" d="M41.81,49.38s-5,0-5,5v3s0,5,5,5h3s5,0,5-5v-3s0-5-5-5Z"/><path class="cls-3" d="M247,94.58a1.61,1.61,0,0,1,0-3.22,1.61,1.61,0,0,1,0,3.22m-.16.88a2,2,0,0,0,1.71-.83v.71h1V90.6h-1v.71a2,2,0,0,0-1.71-.83,2.49,2.49,0,0,0,0,5m-4.37-4.11V90.6h-1v4.74h1V93.2c0-1.38.61-1.89,1.62-1.74v-.92a1.48,1.48,0,0,0-1.62.81m-4.62,3.22a1.6,1.6,0,1,1,1.55-1.6,1.53,1.53,0,0,1-1.55,1.6m0,.89A2.49,2.49,0,1,0,235.34,93a2.43,2.43,0,0,0,2.52,2.49m-3.28-1.08a1.32,1.32,0,0,1-.62.15c-.45,0-.68-.26-.68-.73V91.47h1.51V90.6h-1.51V89h-1V90.6h-.87v.87h.87V93.8c0,1,.46,1.62,1.48,1.62a2.58,2.58,0,0,0,1.05-.23Zm-6,1.08A2.24,2.24,0,0,0,230.81,94l-.91-.25a1.37,1.37,0,0,1-1.33.85,1.61,1.61,0,0,1,0-3.22,1.38,1.38,0,0,1,1.33.88l.91-.27a2.26,2.26,0,0,0-2.25-1.49,2.49,2.49,0,0,0,0,5m-7.2-2.85a1.44,1.44,0,0,1,1.47-1.29,1.36,1.36,0,0,1,1.45,1.28Zm1.56,2.85a2.41,2.41,0,0,0,2.27-1.34l-.9-.27a1.42,1.42,0,0,1-1.35.77,1.43,1.43,0,0,1-1.58-1.35h3.86a2.56,2.56,0,0,0,0-.39,2.28,2.28,0,0,0-2.42-2.4,2.49,2.49,0,0,0,.09,5m-4.55-4.11V90.6h-1v4.74h1V93.2c0-1.38.61-1.89,1.62-1.74v-.92a1.48,1.48,0,0,0-1.62.81m-3.58,0V90.6h-1v4.74h1V93.2c0-1.38.61-1.89,1.62-1.74v-.92a1.48,1.48,0,0,0-1.62.81m-6,1.26a1.43,1.43,0,0,1,1.47-1.29,1.34,1.34,0,0,1,1.44,1.28Zm1.56,2.85a2.41,2.41,0,0,0,2.27-1.34l-.91-.27a1.4,1.4,0,0,1-1.35.77,1.42,1.42,0,0,1-1.57-1.35h3.86c0-.14,0-.25,0-.39a2.27,2.27,0,0,0-2.41-2.4,2.49,2.49,0,0,0,.09,5m-5.6,0A2.24,2.24,0,0,0,207,94l-.92-.25a1.36,1.36,0,0,1-1.33.85,1.61,1.61,0,0,1,0-3.22,1.37,1.37,0,0,1,1.33.88L207,92a2.26,2.26,0,0,0-2.26-1.49,2.49,2.49,0,0,0,0,5m-4.62-.12h1V90.6h-1Zm.5-5.52a.61.61,0,1,0-.62-.61.6.6,0,0,0,.62.61m-2.41.78-1.49,3.67-1.48-3.67h-1.08l2,4.74h1.1l2-4.74Zm-9.27,6h1a8.51,8.51,0,0,0,0-8.3h-1a8.51,8.51,0,0,1,0,8.3m-2.14-7.89-2,1,.25.89,1.57-.76v5.45h1v-6.6Zm-2.49,7.89a8.45,8.45,0,0,1,0-8.3h-1a8.51,8.51,0,0,0,0,8.3Zm-8.34-2a1.61,1.61,0,0,1,0-3.22,1.61,1.61,0,0,1,0,3.22m-.16.88a2,2,0,0,0,1.71-.83v.71h1V90.6h-1v.71a2,2,0,0,0-1.71-.83,2.49,2.49,0,0,0,0,5m-5.32-5a1.92,1.92,0,0,0-1.63.82v-.7h-1v4.74h1V93a1.39,1.39,0,0,1,1.37-1.58c.77,0,1.17.51,1.17,1.34v2.6h1V92.56c0-1.28-.66-2.08-1.88-2.08m-5,.12V93a1.4,1.4,0,0,1-1.37,1.58c-.77,0-1.17-.51-1.17-1.34V90.6h-1v2.78a1.82,1.82,0,0,0,1.88,2.08,1.92,1.92,0,0,0,1.64-.83v.71h1V90.6Z"/><path class="cls-3" d="M250.46,79.16a2,2,0,0,0-1.64.83v-.71h-1V84h1V81.67a1.4,1.4,0,0,1,1.37-1.59c.78,0,1.17.51,1.17,1.34V84h1V81.24a1.82,1.82,0,0,0-1.88-2.08m-6.26,4.09a1.6,1.6,0,1,1,1.56-1.59,1.53,1.53,0,0,1-1.56,1.59m0,.9a2.5,2.5,0,1,0-2.51-2.5,2.44,2.44,0,0,0,2.51,2.5m-5.58,0a2.25,2.25,0,0,0,2.25-1.48l-.92-.26a1.35,1.35,0,0,1-1.33.85,1.61,1.61,0,0,1,0-3.22,1.38,1.38,0,0,1,1.33.88l.92-.26a2.27,2.27,0,0,0-2.26-1.5,2.5,2.5,0,0,0,0,5m-7.83,0c1.17,0,2-.64,2-1.49s-.57-1.11-1.24-1.29L230.28,81c-.33-.11-.52-.24-.52-.47s.34-.58.84-.58a1.3,1.3,0,0,1,1.19.66l.87-.25a2.11,2.11,0,0,0-2.06-1.2,1.64,1.64,0,0,0-1.81,1.37c0,.68.5,1,1.14,1.22l1.27.38c.42.12.61.27.61.57s-.38.64-1,.64a1.41,1.41,0,0,1-1.37-.9l-.89.26a2.27,2.27,0,0,0,2.23,1.45M224,81.3A1.44,1.44,0,0,1,225.47,80a1.35,1.35,0,0,1,1.44,1.28Zm1.56,2.85a2.4,2.4,0,0,0,2.27-1.35l-.9-.27a1.41,1.41,0,0,1-1.35.77A1.44,1.44,0,0,1,224,82h3.86a2.69,2.69,0,0,0,0-.4,2.28,2.28,0,0,0-2.41-2.4,2.5,2.5,0,0,0,.08,5m-5.49-5a1.94,1.94,0,0,0-1.63.83v-.71h-1V84h1V81.67a1.4,1.4,0,0,1,1.37-1.59c.77,0,1.17.51,1.17,1.34V84h1V81.24a1.82,1.82,0,0,0-1.89-2.08m-6.25,4.09a1.6,1.6,0,1,1,1.55-1.59,1.53,1.53,0,0,1-1.55,1.59m0,.9a2.5,2.5,0,1,0-2.52-2.5,2.45,2.45,0,0,0,2.52,2.5M209.16,84h1V79.28h-1Zm.5-5.51a.61.61,0,1,0-.62-.62.61.61,0,0,0,.62.62m-3.88,5.64A2.24,2.24,0,0,0,208,82.67l-.92-.26a1.35,1.35,0,0,1-1.33.85,1.61,1.61,0,0,1,0-3.22,1.38,1.38,0,0,1,1.33.88l.92-.26a2.26,2.26,0,0,0-2.26-1.5,2.5,2.5,0,0,0,0,5m-4.59-4.87v2.36a1.4,1.4,0,0,1-1.37,1.58c-.77,0-1.17-.51-1.17-1.34v-2.6h-1v2.78a1.83,1.83,0,0,0,1.89,2.09,1.94,1.94,0,0,0,1.64-.84V84h1V79.28Zm-4.75,3.78a1.21,1.21,0,0,1-.62.15.63.63,0,0,1-.68-.72V80.16h1.51v-.88h-1.51V77.7h-1v1.58h-.86v.88h.86v2.33c0,1,.47,1.61,1.48,1.61a2.58,2.58,0,0,0,1.05-.23Zm-5.08,1h1V79.28h-1Zm.5-5.51a.61.61,0,1,0-.62-.62.61.61,0,0,0,.62.62M190,83.06a1.26,1.26,0,0,1-.62.15.63.63,0,0,1-.68-.72V80.16h1.51v-.88h-1.51V77.7h-1v1.58h-.87v.88h.87v2.33c0,1,.46,1.61,1.48,1.61a2.58,2.58,0,0,0,1.05-.23Zm-5.71,1.09c1.17,0,2-.64,2-1.49s-.58-1.11-1.25-1.29L183.8,81c-.32-.11-.51-.24-.51-.47s.33-.58.83-.58a1.29,1.29,0,0,1,1.19.66l.87-.25a2.1,2.1,0,0,0-2.05-1.2,1.63,1.63,0,0,0-1.81,1.37c0,.68.5,1,1.13,1.22l1.27.38c.43.12.62.27.62.57s-.39.64-1,.64a1.41,1.41,0,0,1-1.37-.9l-.9.26a2.28,2.28,0,0,0,2.24,1.45m-5.06-5a1.94,1.94,0,0,0-1.63.83v-.71h-1V84h1V81.67A1.4,1.4,0,0,1,179,80.08c.77,0,1.17.51,1.17,1.34V84h1V81.24a1.82,1.82,0,0,0-1.89-2.08m-5,4.86h1V79.28h-1Zm.5-5.51a.61.61,0,1,0-.63-.62.62.62,0,0,0,.63.62m-4,3.23h-.86V80.23h-1v1.51h-2.1L169,77.42h-1.1l-2.37,4.47v.76h3.3V84h1V82.65h.86Zm-7.21-4.32-2,1,.26.89,1.56-.76V84h1v-6.6Z"/><path class="cls-5" d="M148.53,77.45s-5,0-5,5v3s0,5,5,5h3s5,0,5-5v-3s0-5-5-5Z"/><path class="cls-3" d="M260.17,153.82c1.17,0,2-.64,2-1.48s-.58-1.11-1.25-1.3l-1.26-.36c-.32-.11-.51-.24-.51-.48s.33-.57.83-.57a1.29,1.29,0,0,1,1.19.66L262,150a2.13,2.13,0,0,0-2.06-1.19,1.63,1.63,0,0,0-1.81,1.37c0,.68.5,1,1.13,1.22l1.27.38c.43.12.62.27.62.56s-.39.64-1,.64a1.4,1.4,0,0,1-1.37-.89l-.9.26a2.29,2.29,0,0,0,2.24,1.44m-5.75-.88a1.61,1.61,0,0,1,0-3.22,1.61,1.61,0,0,1,0,3.22m-.16.88A2,2,0,0,0,256,153v.71h1V149h-1v.72a2,2,0,0,0-1.71-.84,2.49,2.49,0,0,0,0,5m-4.37-4.11V149h-1v4.74h1v-2.14c0-1.38.61-1.89,1.62-1.74v-.92a1.48,1.48,0,0,0-1.62.81m-4.62,3.22a1.6,1.6,0,1,1,1.55-1.59,1.53,1.53,0,0,1-1.55,1.59m0,.89a2.49,2.49,0,1,0-2.52-2.49,2.43,2.43,0,0,0,2.52,2.49M242,152.74a1.21,1.21,0,0,1-.62.15.63.63,0,0,1-.68-.72v-2.33h1.51V149h-1.51v-1.59h-1V149h-.86v.88h.86v2.33c0,1,.46,1.61,1.48,1.61a2.58,2.58,0,0,0,1.05-.23Zm-6,1.08a2.24,2.24,0,0,0,2.24-1.48l-.91-.25a1.37,1.37,0,0,1-1.33.85,1.61,1.61,0,0,1,0-3.22,1.39,1.39,0,0,1,1.33.88l.91-.26a2.25,2.25,0,0,0-2.25-1.5,2.49,2.49,0,0,0,0,5m-7.2-2.85a1.44,1.44,0,0,1,1.47-1.29A1.36,1.36,0,0,1,231.7,151Zm1.56,2.85a2.41,2.41,0,0,0,2.27-1.34l-.9-.27a1.42,1.42,0,0,1-1.35.77,1.43,1.43,0,0,1-1.58-1.34h3.86a2.8,2.8,0,0,0,0-.4,2.28,2.28,0,0,0-2.42-2.4,2.49,2.49,0,0,0,.09,5m-4.55-4.11V149h-1v4.74h1v-2.14c0-1.38.61-1.89,1.62-1.74v-.92a1.48,1.48,0,0,0-1.62.81m-3.58,0V149h-1v4.74h1v-2.14c0-1.38.61-1.89,1.62-1.74v-.92a1.48,1.48,0,0,0-1.62.81m-6,1.26a1.43,1.43,0,0,1,1.47-1.29,1.34,1.34,0,0,1,1.44,1.28Zm1.56,2.85a2.41,2.41,0,0,0,2.27-1.34l-.91-.27a1.4,1.4,0,0,1-1.35.77,1.42,1.42,0,0,1-1.57-1.34h3.86a2.75,2.75,0,0,0,0-.4,2.27,2.27,0,0,0-2.41-2.4,2.49,2.49,0,0,0,.09,5m-5.6,0a2.24,2.24,0,0,0,2.25-1.48l-.92-.25a1.36,1.36,0,0,1-1.33.85,1.61,1.61,0,0,1,0-3.22,1.38,1.38,0,0,1,1.33.88l.92-.26a2.26,2.26,0,0,0-2.26-1.5,2.49,2.49,0,0,0,0,5m-4.62-.12h1V149h-1Zm.5-5.52a.61.61,0,1,0-.62-.61.6.6,0,0,0,.62.61m-2.41.78-1.49,3.67L202.68,149H201.6l2,4.74h1.1l2-4.74Zm-9.27,6h1a8.51,8.51,0,0,0,0-8.3h-1a8.51,8.51,0,0,1,0,8.3m-3.87-2.22,1.76-1.66a2.88,2.88,0,0,0,1.24-2.1,2,2,0,0,0-2.27-2,2.22,2.22,0,0,0-2.27,1.85l.92.26a1.39,1.39,0,0,1,1.37-1.2,1.11,1.11,0,0,1,1.23,1.16c0,.53-.38.94-.91,1.45L191,153v.72h4.64v-.93ZM190.28,155a8.51,8.51,0,0,1,0-8.3h-1a8.51,8.51,0,0,0,0,8.3Zm-7.54-1.17c1.17,0,2-.64,2-1.48s-.58-1.11-1.25-1.3l-1.26-.36c-.32-.11-.51-.24-.51-.48s.33-.57.83-.57a1.28,1.28,0,0,1,1.19.66l.88-.26a2.13,2.13,0,0,0-2.06-1.19,1.63,1.63,0,0,0-1.81,1.37c0,.68.5,1,1.13,1.22l1.28.38c.42.12.61.27.61.56s-.39.64-1,.64a1.4,1.4,0,0,1-1.37-.89l-.9.26a2.29,2.29,0,0,0,2.24,1.44m-5.43-.89a1.6,1.6,0,1,1,1.55-1.59,1.53,1.53,0,0,1-1.55,1.59m0,.89a2.49,2.49,0,1,0-2.52-2.49,2.43,2.43,0,0,0,2.52,2.49m-6.17-.88a1.61,1.61,0,0,1,0-3.22,1.61,1.61,0,0,1,0,3.22m1.55-6.12v2.86a2,2,0,0,0-1.71-.84,2.49,2.49,0,0,0,0,5,2,2,0,0,0,1.71-.83v.71h1v-6.88Z"/><path class="cls-3" d="M253.34,137.52a1.94,1.94,0,0,0-1.63.83v-.71h-1v4.74h1V140a1.4,1.4,0,0,1,1.37-1.59c.77,0,1.17.51,1.17,1.34v2.6h1V139.6a1.82,1.82,0,0,0-1.89-2.08m-6.25,4.09a1.6,1.6,0,1,1,1.55-1.59,1.53,1.53,0,0,1-1.55,1.59m0,.9a2.5,2.5,0,1,0-2.52-2.5,2.45,2.45,0,0,0,2.52,2.5m-5.59,0a2.24,2.24,0,0,0,2.25-1.48l-.92-.26a1.35,1.35,0,0,1-1.33.85,1.61,1.61,0,0,1,0-3.22,1.38,1.38,0,0,1,1.33.88l.92-.26a2.26,2.26,0,0,0-2.26-1.5,2.5,2.5,0,0,0,0,5m-7.82,0c1.17,0,2-.64,2-1.49s-.58-1.11-1.25-1.29l-1.26-.37c-.32-.11-.51-.24-.51-.47s.33-.58.83-.58a1.29,1.29,0,0,1,1.19.66l.87-.25a2.1,2.1,0,0,0-2-1.2,1.63,1.63,0,0,0-1.81,1.38c0,.67.5,1,1.13,1.21l1.27.38c.43.12.62.27.62.57s-.39.64-1,.64a1.41,1.41,0,0,1-1.37-.9l-.9.27a2.29,2.29,0,0,0,2.24,1.44m-6.8-2.85a1.43,1.43,0,0,1,1.47-1.29,1.34,1.34,0,0,1,1.44,1.28Zm1.55,2.85a2.43,2.43,0,0,0,2.28-1.35l-.91-.27a1.41,1.41,0,0,1-1.35.77,1.42,1.42,0,0,1-1.57-1.34h3.85a2.69,2.69,0,0,0,0-.4,2.27,2.27,0,0,0-2.41-2.4,2.5,2.5,0,0,0,.08,5m-5.49-5a1.94,1.94,0,0,0-1.63.83v-.71h-1v4.74h1V140a1.4,1.4,0,0,1,1.37-1.59c.77,0,1.17.51,1.17,1.34v2.6h1V139.6a1.82,1.82,0,0,0-1.89-2.08m-6.25,4.09a1.6,1.6,0,1,1,1.56-1.59,1.54,1.54,0,0,1-1.56,1.59m0,.9a2.5,2.5,0,1,0-2.52-2.5,2.45,2.45,0,0,0,2.52,2.5m-4.65-.13h1v-4.74h-1Zm.5-5.51a.61.61,0,0,0,.62-.61.62.62,0,0,0-1.24,0,.61.61,0,0,0,.62.61m-3.87,5.64a2.24,2.24,0,0,0,2.24-1.48l-.92-.26a1.34,1.34,0,0,1-1.32.85,1.61,1.61,0,0,1,0-3.22,1.38,1.38,0,0,1,1.32.88l.92-.26a2.25,2.25,0,0,0-2.25-1.5,2.5,2.5,0,0,0,0,5m-4.6-4.87V140a1.4,1.4,0,0,1-1.36,1.58c-.78,0-1.17-.51-1.17-1.33v-2.61h-1v2.78c0,1.29.67,2.09,1.88,2.09a1.93,1.93,0,0,0,1.64-.84v.71h1v-4.74Zm-4.74,3.78a1.26,1.26,0,0,1-.62.15c-.46,0-.68-.26-.68-.72v-2.33h1.51v-.88H198v-1.58h-1v1.58h-.87v.88h.87v2.33c0,1,.46,1.61,1.48,1.61a2.54,2.54,0,0,0,1-.23Zm-5.08,1h1v-4.74h-1Zm.5-5.51a.61.61,0,0,0,.62-.61.63.63,0,1,0-.62.61m-1.83,4.55a1.27,1.27,0,0,1-.63.15.63.63,0,0,1-.68-.72v-2.33h1.51v-.88h-1.51v-1.58h-1v1.58h-.86v.88h.86v2.33c0,1,.47,1.61,1.48,1.61a2.58,2.58,0,0,0,1-.23Zm-5.72,1.09c1.17,0,2-.64,2-1.49s-.57-1.11-1.24-1.29l-1.27-.37c-.32-.11-.51-.24-.51-.47s.33-.58.83-.58a1.28,1.28,0,0,1,1.19.66l.88-.25a2.12,2.12,0,0,0-2.06-1.2,1.63,1.63,0,0,0-1.81,1.38c0,.67.5,1,1.13,1.21l1.28.38c.42.12.61.27.61.57s-.39.64-1,.64a1.41,1.41,0,0,1-1.37-.9l-.89.27a2.28,2.28,0,0,0,2.23,1.44m-5-5a1.94,1.94,0,0,0-1.64.83v-.71h-1v4.74h1V140a1.4,1.4,0,0,1,1.37-1.59c.78,0,1.17.51,1.17,1.34v2.6h1V139.6a1.82,1.82,0,0,0-1.88-2.08m-5.05,4.86h1v-4.74h-1Zm.5-5.51a.61.61,0,0,0,.62-.61.62.62,0,0,0-1.24,0,.61.61,0,0,0,.62.61m-6,1.46,1.64-1.83v-.72h-4.44v.92h3.1l-1.63,2,.18.64a1.32,1.32,0,0,1,.77-.22,1.2,1.2,0,0,1,1.27,1.25,1.29,1.29,0,0,1-1.4,1.29,1.58,1.58,0,0,1-1.57-1.29l-.91.25a2.4,2.4,0,0,0,2.52,1.95,2.24,2.24,0,0,0,2.35-2.2,1.91,1.91,0,0,0-1.88-2"/><path class="cls-6" d="M155.42,132.41s-5,0-5,5v3s0,5,5,5h3s5,0,5-5v-3s0-5-5-5Z"/><path class="cls-3" d="M319.46,225c1.17,0,2-.64,2-1.49s-.57-1.1-1.24-1.29l-1.27-.37c-.32-.1-.51-.23-.51-.47s.33-.57.83-.57a1.28,1.28,0,0,1,1.19.66l.88-.26a2.11,2.11,0,0,0-2.06-1.19,1.63,1.63,0,0,0-1.81,1.37c0,.68.5,1,1.13,1.22l1.28.38c.42.12.61.27.61.56s-.39.64-1,.64a1.4,1.4,0,0,1-1.37-.89l-.89.26a2.26,2.26,0,0,0,2.23,1.44m-5.74-.88a1.61,1.61,0,0,1,0-3.22,1.61,1.61,0,0,1,0,3.22m-.16.88a2,2,0,0,0,1.7-.83v.71h1v-4.74h-1v.71a2,2,0,0,0-1.7-.83,2.49,2.49,0,0,0,0,5m-4.38-4.11v-.75h-1v4.74h1v-2.14c0-1.38.61-1.89,1.62-1.74v-.92a1.48,1.48,0,0,0-1.62.81m-4.62,3.22a1.6,1.6,0,1,1,1.56-1.6,1.53,1.53,0,0,1-1.56,1.6m0,.89a2.49,2.49,0,1,0-2.52-2.49,2.44,2.44,0,0,0,2.52,2.49m-3.27-1.08a1.39,1.39,0,0,1-.63.15c-.45,0-.68-.26-.68-.73V221h1.51v-.87H300v-1.59h-1v1.59h-.87V221H299v2.33c0,1,.46,1.62,1.47,1.62a2.58,2.58,0,0,0,1-.23Zm-6,1.08a2.24,2.24,0,0,0,2.24-1.48l-.91-.25a1.36,1.36,0,0,1-1.33.85,1.61,1.61,0,0,1,0-3.22,1.37,1.37,0,0,1,1.33.88l.91-.27a2.26,2.26,0,0,0-2.25-1.49,2.49,2.49,0,0,0,0,5m-7.2-2.85a1.45,1.45,0,0,1,1.48-1.29,1.36,1.36,0,0,1,1.44,1.28Zm1.56,2.85a2.4,2.4,0,0,0,2.27-1.34l-.9-.27a1.41,1.41,0,0,1-1.35.77,1.44,1.44,0,0,1-1.58-1.34h3.86a2.8,2.8,0,0,0,0-.4,2.28,2.28,0,0,0-2.41-2.4,2.49,2.49,0,0,0,.08,5m-4.55-4.11v-.75h-1v4.74h1v-2.14c0-1.38.62-1.89,1.63-1.74v-.92a1.49,1.49,0,0,0-1.63.81m-3.58,0v-.75h-1v4.74h1v-2.14c0-1.38.61-1.89,1.62-1.74v-.92a1.48,1.48,0,0,0-1.62.81m-6,1.26a1.44,1.44,0,0,1,1.47-1.29,1.36,1.36,0,0,1,1.45,1.28Zm1.56,2.85a2.41,2.41,0,0,0,2.27-1.34l-.9-.27a1.42,1.42,0,0,1-1.35.77,1.43,1.43,0,0,1-1.58-1.34h3.86a2.8,2.8,0,0,0,0-.4A2.28,2.28,0,0,0,277,220a2.49,2.49,0,0,0,.09,5m-5.6,0a2.24,2.24,0,0,0,2.25-1.48l-.92-.25a1.36,1.36,0,0,1-1.33.85,1.61,1.61,0,0,1,0-3.22,1.37,1.37,0,0,1,1.33.88l.92-.27a2.26,2.26,0,0,0-2.25-1.49,2.49,2.49,0,0,0,0,5m-4.62-.12h1v-4.74h-1Zm.5-5.52a.61.61,0,1,0-.62-.61.61.61,0,0,0,.62.61m-2.41.78-1.49,3.67L262,220.14h-1.08l2,4.74H264l2-4.74Zm-9.27,6h1a8.51,8.51,0,0,0,0-8.3h-1a8.51,8.51,0,0,1,0,8.3m-2.59-5.34,1.63-1.83v-.72h-4.44v.91h3.1l-1.62,2,.18.64a1.27,1.27,0,0,1,.76-.22,1.2,1.2,0,0,1,1.27,1.25,1.29,1.29,0,0,1-1.4,1.29,1.59,1.59,0,0,1-1.57-1.29l-.91.25A2.41,2.41,0,0,0,252.6,225a2.24,2.24,0,0,0,2.35-2.19,1.9,1.9,0,0,0-1.87-2m-3.72,5.34a8.45,8.45,0,0,1,0-8.3h-1a8.45,8.45,0,0,0,0,8.3ZM241.81,225c1.17,0,2-.64,2-1.49s-.57-1.1-1.24-1.29l-1.26-.37c-.33-.1-.51-.23-.51-.47s.33-.57.83-.57a1.29,1.29,0,0,1,1.19.66l.87-.26a2.1,2.1,0,0,0-2.05-1.19,1.63,1.63,0,0,0-1.81,1.37c0,.68.5,1,1.13,1.22l1.27.38c.43.12.61.27.61.56s-.38.64-1,.64a1.38,1.38,0,0,1-1.36-.89l-.9.26a2.27,2.27,0,0,0,2.23,1.44m-6.8-2.85a1.45,1.45,0,0,1,1.48-1.29,1.36,1.36,0,0,1,1.44,1.28Zm1.56,2.85a2.4,2.4,0,0,0,2.27-1.34l-.9-.27a1.41,1.41,0,0,1-1.35.77,1.44,1.44,0,0,1-1.58-1.34h3.86a2.8,2.8,0,0,0,0-.4,2.28,2.28,0,0,0-2.41-2.4,2.49,2.49,0,0,0,.08,5M232,220.89v-.75h-1v4.74h1v-2.14c0-1.38.62-1.89,1.63-1.74v-.92a1.49,1.49,0,0,0-1.63.81m-2.3,3a1.32,1.32,0,0,1-.62.15c-.45,0-.68-.26-.68-.73V221h1.51v-.87h-1.51v-1.59h-1v1.59h-.87V221h.87v2.33c0,1,.46,1.62,1.48,1.62a2.58,2.58,0,0,0,1.05-.23Z"/><path class="cls-3" d="M311.59,208.7a1.94,1.94,0,0,0-1.64.83v-.71h-1v4.74h1v-2.35a1.4,1.4,0,0,1,1.37-1.59c.78,0,1.17.51,1.17,1.34v2.6h1v-2.78a1.82,1.82,0,0,0-1.88-2.08m-6.26,4.09a1.6,1.6,0,1,1,1.56-1.59,1.53,1.53,0,0,1-1.56,1.59m0,.9a2.5,2.5,0,1,0-2.51-2.5,2.44,2.44,0,0,0,2.51,2.5m-5.58,0a2.24,2.24,0,0,0,2.24-1.48l-.91-.26a1.35,1.35,0,0,1-1.33.85,1.61,1.61,0,0,1,0-3.22,1.38,1.38,0,0,1,1.33.88l.91-.26a2.25,2.25,0,0,0-2.25-1.5,2.5,2.5,0,0,0,0,5m-7.83,0c1.17,0,2-.64,2-1.49s-.57-1.11-1.24-1.3l-1.27-.36c-.32-.11-.51-.24-.51-.48s.33-.57.83-.57a1.28,1.28,0,0,1,1.19.66l.88-.25a2.11,2.11,0,0,0-2.06-1.2,1.63,1.63,0,0,0-1.81,1.37c0,.68.5,1,1.13,1.22l1.28.38c.42.12.61.27.61.56s-.39.65-1,.65a1.41,1.41,0,0,1-1.37-.9l-.89.26a2.27,2.27,0,0,0,2.23,1.45m-6.8-2.85a1.43,1.43,0,0,1,1.47-1.29,1.35,1.35,0,0,1,1.45,1.28Zm1.56,2.85a2.41,2.41,0,0,0,2.27-1.35l-.9-.27a1.42,1.42,0,0,1-1.35.77,1.43,1.43,0,0,1-1.58-1.34H289a2.69,2.69,0,0,0,0-.4,2.28,2.28,0,0,0-2.42-2.4,2.5,2.5,0,0,0,.09,5m-5.49-5a1.92,1.92,0,0,0-1.63.83v-.71h-1v4.74h1v-2.35c0-1,.53-1.59,1.37-1.59s1.17.51,1.17,1.34v2.6h1v-2.78c0-1.28-.66-2.08-1.88-2.08m-6.25,4.09a1.6,1.6,0,1,1,1.55-1.59,1.53,1.53,0,0,1-1.55,1.59m0,.9a2.5,2.5,0,1,0-2.52-2.5,2.44,2.44,0,0,0,2.52,2.5m-4.65-.13h1v-4.74h-1Zm.5-5.51a.61.61,0,1,0-.63-.62.62.62,0,0,0,.63.62m-3.88,5.64a2.23,2.23,0,0,0,2.24-1.48l-.91-.26a1.35,1.35,0,0,1-1.33.85,1.61,1.61,0,0,1,0-3.22,1.38,1.38,0,0,1,1.33.88l.91-.26a2.24,2.24,0,0,0-2.25-1.5,2.5,2.5,0,0,0,0,5m-4.59-4.87v2.36a1.4,1.4,0,0,1-1.37,1.58c-.77,0-1.17-.51-1.17-1.34v-2.6h-1v2.78a1.83,1.83,0,0,0,1.89,2.09,1.94,1.94,0,0,0,1.64-.84v.71h1v-4.74Zm-4.75,3.78a1.21,1.21,0,0,1-.62.15.63.63,0,0,1-.68-.72V209.7h1.51v-.88h-1.51v-1.58h-1v1.58h-.87v.88h.87V212c0,1,.46,1.61,1.48,1.61a2.58,2.58,0,0,0,1.05-.23Zm-5.08,1h1v-4.74h-1Zm.5-5.51a.61.61,0,1,0-.62-.62.61.61,0,0,0,.62.62m-1.83,4.55a1.26,1.26,0,0,1-.62.15c-.46,0-.68-.26-.68-.72V209.7h1.51v-.88h-1.51v-1.58h-1v1.58H248v.88h.87V212c0,1,.46,1.61,1.48,1.61a2.58,2.58,0,0,0,1-.23Zm-5.71,1.09c1.17,0,2-.64,2-1.49s-.57-1.11-1.24-1.3l-1.26-.36c-.32-.11-.51-.24-.51-.48s.33-.57.83-.57a1.29,1.29,0,0,1,1.19.66l.87-.25a2.1,2.1,0,0,0-2.05-1.2,1.63,1.63,0,0,0-1.81,1.37c0,.68.5,1,1.13,1.22l1.27.38c.43.12.61.27.61.56s-.38.65-1,.65a1.4,1.4,0,0,1-1.36-.9l-.9.26a2.28,2.28,0,0,0,2.24,1.45m-5.06-5a1.94,1.94,0,0,0-1.63.83v-.71h-1v4.74h1v-2.35a1.4,1.4,0,0,1,1.37-1.59c.77,0,1.17.51,1.17,1.34v2.6h1v-2.78a1.82,1.82,0,0,0-1.89-2.08m-5,4.86h1v-4.74h-1Zm.49-5.51a.61.61,0,1,0,0-1.22.61.61,0,1,0,0,1.22m-4,3.23H231v-1.51h-1v1.51h-2.1l2.27-4.32h-1.11l-2.36,4.47v.76H230v1.37h1v-1.37h.85Z"/><path class="cls-7" d="M213.57,204.16s-5,0-5,5v3s0,5,5,5h3s5,0,5-5v-3s0-5-5-5Z"/><path class="cls-3" d="M109.63,257.6v5.32a.65.65,0,0,1-.21.51.77.77,0,0,1-.54.2.83.83,0,0,1-.56-.2.6.6,0,0,1-.23-.51V257.6H106l2.21-7h-.38c-.24.79-.45,1.42-.61,1.92s-.3,1-.44,1.43-.26.73-.27.83a.59.59,0,0,1-.63.44l-.17,0a.57.57,0,0,1-.45-.55.42.42,0,0,1,0-.2,5.34,5.34,0,0,0,.16-.52c.08-.3.2-.67.33-1.1l.45-1.41c.16-.51.3-1,.48-1.47a2,2,0,0,1,.7-1,1.66,1.66,0,0,1,1.11-.43h2.59a1.69,1.69,0,0,1,1.14.43,2.37,2.37,0,0,1,.72,1l.44,1.47c.15.51.31,1,.43,1.41s.26.8.34,1.1a2.92,2.92,0,0,0,.17.52l0,.16a.56.56,0,0,1-.47.59l-.15,0a.57.57,0,0,1-.63-.44c0-.1-.12-.38-.24-.83s-.3-.93-.47-1.43-.37-1.13-.61-1.92h-.38l2.2,7h-2.08v5.32a.6.6,0,0,1-.23.51.81.81,0,0,1-.55.2.79.79,0,0,1-.55-.2.64.64,0,0,1-.2-.51V257.6Z"/><path class="cls-3" d="M109.84,248.08a1.59,1.59,0,0,0,1.12-.42,1.49,1.49,0,0,0,.46-1.1,1.44,1.44,0,0,0-.46-1.07,1.49,1.49,0,0,0-1.12-.46,1.66,1.66,0,0,0-1.19.46,1.38,1.38,0,0,0-.47,1.07,1.43,1.43,0,0,0,.47,1.1,1.77,1.77,0,0,0,1.19.42"/><path class="cls-3" d="M165.16,257.6v5.32a.66.66,0,0,1-.22.51.72.72,0,0,1-.53.2.8.8,0,0,1-.56-.2.6.6,0,0,1-.23-.51V257.6H161.5l2.2-7h-.38c-.24.79-.44,1.42-.6,1.92s-.3,1-.44,1.43a6.61,6.61,0,0,0-.27.83.6.6,0,0,1-.64.44l-.16,0a.56.56,0,0,1-.46-.55.42.42,0,0,1,0-.2,2.47,2.47,0,0,0,.16-.52c.09-.3.2-.67.34-1.1s.29-.9.44-1.41.31-1,.49-1.47a1.87,1.87,0,0,1,.69-1,1.7,1.7,0,0,1,1.12-.43h2.59a1.71,1.71,0,0,1,1.14.43,2.26,2.26,0,0,1,.71,1c.15.47.3,1,.44,1.47s.31,1,.44,1.41.25.8.33,1.1a4.24,4.24,0,0,0,.17.52l0,.16a.56.56,0,0,1-.46.59l-.16,0a.59.59,0,0,1-.63-.44c0-.1-.12-.38-.24-.83s-.3-.93-.47-1.43-.36-1.13-.6-1.92H167l2.2,7h-2.09v5.32a.58.58,0,0,1-.23.51.81.81,0,0,1-.55.2.75.75,0,0,1-.54-.2.64.64,0,0,1-.2-.51V257.6Z"/><path class="cls-3" d="M165.36,248.08a1.56,1.56,0,0,0,1.12-.42,1.47,1.47,0,0,0,.47-1.1,1.42,1.42,0,0,0-.47-1.07,1.47,1.47,0,0,0-1.12-.46,1.66,1.66,0,0,0-1.19.46,1.42,1.42,0,0,0-.47,1.07,1.44,1.44,0,0,0,.48,1.1,1.72,1.72,0,0,0,1.18.42"/><path class="cls-3" d="M220.3,257.6v5.32a.65.65,0,0,1-.21.51.77.77,0,0,1-.54.2.83.83,0,0,1-.56-.2.63.63,0,0,1-.23-.51V257.6h-2.11l2.2-7h-.38c-.24.79-.45,1.42-.6,1.92s-.31,1-.45,1.43-.26.73-.27.83a.59.59,0,0,1-.63.44l-.17,0a.57.57,0,0,1-.45-.55.42.42,0,0,1,0-.2,5.34,5.34,0,0,0,.16-.52c.08-.3.2-.67.34-1.1s.28-.9.44-1.41.3-1,.48-1.47a2,2,0,0,1,.7-1,1.68,1.68,0,0,1,1.11-.43h2.6a1.67,1.67,0,0,1,1.13.43,2.37,2.37,0,0,1,.72,1c.15.47.29,1,.44,1.47s.31,1,.43,1.41.26.8.34,1.1a2.92,2.92,0,0,0,.17.52l0,.16a.56.56,0,0,1-.47.59l-.15,0a.57.57,0,0,1-.63-.44c0-.1-.12-.38-.24-.83s-.3-.93-.47-1.43-.37-1.13-.61-1.92h-.38l2.2,7h-2.08v5.32a.58.58,0,0,1-.23.51.81.81,0,0,1-.55.2.79.79,0,0,1-.55-.2.68.68,0,0,1-.2-.51V257.6Z"/><path class="cls-3" d="M220.51,248.08a1.59,1.59,0,0,0,1.12-.42,1.49,1.49,0,0,0,.46-1.1,1.44,1.44,0,0,0-.46-1.07,1.49,1.49,0,0,0-1.12-.46,1.66,1.66,0,0,0-1.19.46,1.38,1.38,0,0,0-.47,1.07,1.43,1.43,0,0,0,.47,1.1,1.77,1.77,0,0,0,1.19.42"/><path class="cls-3" d="M176.78,257.6v5.32a.68.68,0,0,1-.21.51.77.77,0,0,1-.54.2.83.83,0,0,1-.56-.2.6.6,0,0,1-.23-.51V257.6h-2.12l2.2-7H175l-.61,1.92c-.14.5-.3,1-.44,1.43a6.61,6.61,0,0,0-.27.83.6.6,0,0,1-.64.44l-.16,0a.56.56,0,0,1-.46-.55.33.33,0,0,1,0-.2,4,4,0,0,0,.15-.52c.09-.3.2-.67.34-1.1s.29-.9.44-1.41.31-1,.49-1.47a1.87,1.87,0,0,1,.69-1,1.7,1.7,0,0,1,1.12-.43h2.59a1.71,1.71,0,0,1,1.14.43,2.37,2.37,0,0,1,.72,1l.44,1.47c.15.51.3,1,.43,1.41s.25.8.34,1.1a3.37,3.37,0,0,0,.16.52l0,.16a.55.55,0,0,1-.46.59l-.15,0a.59.59,0,0,1-.64-.44c0-.1-.11-.38-.24-.83l-.46-1.43c-.17-.5-.37-1.13-.61-1.92h-.38l2.2,7h-2.09v5.32a.58.58,0,0,1-.23.51.78.78,0,0,1-.54.2.76.76,0,0,1-.55-.2.64.64,0,0,1-.2-.51V257.6Z"/><path class="cls-3" d="M177,248.08a1.59,1.59,0,0,0,1.12-.42,1.49,1.49,0,0,0,.46-1.1,1.44,1.44,0,0,0-.46-1.07A1.5,1.5,0,0,0,177,245a1.63,1.63,0,0,0-1.19.46,1.38,1.38,0,0,0-.47,1.07,1.43,1.43,0,0,0,.47,1.1,1.75,1.75,0,0,0,1.19.42"/><path class="cls-3" d="M231.92,257.6v5.32a.65.65,0,0,1-.21.51.72.72,0,0,1-.53.2.8.8,0,0,1-.56-.2.6.6,0,0,1-.23-.51V257.6h-2.12l2.2-7h-.38c-.24.79-.44,1.42-.6,1.92s-.31,1-.44,1.43a7.57,7.57,0,0,0-.28.83.59.59,0,0,1-.63.44l-.17,0a.57.57,0,0,1-.45-.55.42.42,0,0,1,0-.2,3.37,3.37,0,0,0,.16-.52c.09-.3.2-.67.34-1.1s.28-.9.44-1.41.3-1,.48-1.47a2,2,0,0,1,.7-1,1.7,1.7,0,0,1,1.12-.43h2.59a1.71,1.71,0,0,1,1.14.43,2.35,2.35,0,0,1,.71,1c.15.47.3,1,.44,1.47s.31,1,.44,1.41.25.8.33,1.1a4.24,4.24,0,0,0,.17.52l0,.16a.56.56,0,0,1-.46.59l-.16,0a.58.58,0,0,1-.63-.44c0-.1-.12-.38-.24-.83s-.3-.93-.47-1.43-.36-1.13-.61-1.92h-.38l2.2,7h-2.08v5.32a.58.58,0,0,1-.23.51.81.81,0,0,1-.55.2.79.79,0,0,1-.55-.2.67.67,0,0,1-.19-.51V257.6Z"/><path class="cls-3" d="M232.13,248.08a1.56,1.56,0,0,0,1.12-.42,1.49,1.49,0,0,0,.46-1.1,1.44,1.44,0,0,0-.46-1.07,1.47,1.47,0,0,0-1.12-.46,1.66,1.66,0,0,0-1.19.46,1.42,1.42,0,0,0-.47,1.07,1.47,1.47,0,0,0,.47,1.1,1.77,1.77,0,0,0,1.19.42"/><path class="cls-3" d="M244.68,257.6v5.32a.65.65,0,0,1-.21.51.77.77,0,0,1-.54.2.83.83,0,0,1-.56-.2.6.6,0,0,1-.23-.51V257.6H241l2.21-7h-.38c-.24.79-.45,1.42-.61,1.92s-.3,1-.44,1.43-.26.73-.27.83a.6.6,0,0,1-.63.44l-.17,0a.56.56,0,0,1-.45-.55.42.42,0,0,1,0-.2,5.34,5.34,0,0,0,.16-.52c.08-.3.2-.67.33-1.1l.45-1.41c.15-.51.3-1,.48-1.47a1.89,1.89,0,0,1,.7-1,1.66,1.66,0,0,1,1.11-.43h2.59a1.71,1.71,0,0,1,1.14.43,2.37,2.37,0,0,1,.72,1l.44,1.47c.15.51.31,1,.43,1.41s.26.8.34,1.1a2.92,2.92,0,0,0,.17.52l0,.16a.56.56,0,0,1-.47.59l-.15,0a.57.57,0,0,1-.63-.44c0-.1-.12-.38-.25-.83s-.29-.93-.46-1.43-.37-1.13-.61-1.92h-.38l2.2,7h-2.08v5.32a.6.6,0,0,1-.23.51.81.81,0,0,1-.55.2.79.79,0,0,1-.55-.2.64.64,0,0,1-.2-.51V257.6Z"/><path class="cls-3" d="M244.89,248.08a1.59,1.59,0,0,0,1.12-.42,1.49,1.49,0,0,0,.46-1.1,1.44,1.44,0,0,0-.46-1.07,1.5,1.5,0,0,0-1.12-.46,1.63,1.63,0,0,0-1.19.46,1.38,1.38,0,0,0-.47,1.07,1.43,1.43,0,0,0,.47,1.1,1.75,1.75,0,0,0,1.19.42"/></g></g></svg>