<svg xmlns="http://www.w3.org/2000/svg" viewBox="0 0 316.79 55.1"><defs><style>.cls-1{fill:#1d1d1b;}</style></defs><title>obs-Recurso 4</title><g id="Capa_2" data-name="Capa 2"><g id="Capa_1-2" data-name="Capa 1"><path class="cls-1" d="M306.28,55.1c6.31,0,10.51-3.64,10.51-8.15,0-4.28-3-6-7.05-7.21l-6.54-2.1c-1.72-.53-2.51-1.32-2.51-2.48,0-1.54,1.65-2.85,4.24-2.85a7.11,7.11,0,0,1,6.5,3.6l4.76-1.39c-1.42-3.64-5.63-6.76-11.3-6.76-5.48,0-9.46,3.46-9.42,7.55,0,3.38,2.48,5.6,5.93,6.68l6.72,2.11c2.52.82,3.46,1.76,3.46,3.15,0,1.73-1.92,3.31-5,3.31a7.77,7.77,0,0,1-7.51-4.92l-4.92,1.5c1.47,4.09,5.71,8,12.13,8M291.07,33V28.29H271.7V54.57H291V49.92H276.73V43.46h12.43V39H276.73V33Zm-37,17H247.9v-17h6.19c4.51,0,7.51,3.41,7.51,8.41s-3,8.6-7.51,8.6m.11-21.63H242.79V54.57H254.2c7.74,0,12.58-5.55,12.58-13.14s-4.92-13.14-12.58-13.14m-32.74,16,4.21-11.11,4.2,11.11Zm12.28,10.25h5.37L229,28.29h-6.68L212.26,54.57h5.34l2.17-5.7H231.6Zm-35.48-4.65h-6.2v-17h6.2c4.5,0,7.51,3.41,7.51,8.41s-3,8.6-7.51,8.6m.11-21.63H187V54.57h11.41C206.11,54.57,211,49,211,41.43S206,28.29,198.37,28.29M175.73,54.57H181V28.29h-5.22Zm-15.47.53c6.31,0,10.51-3.64,10.51-8.15,0-4.28-3-6-7.05-7.21l-6.54-2.1c-1.72-.53-2.51-1.32-2.51-2.48,0-1.54,1.65-2.85,4.24-2.85a7.11,7.11,0,0,1,6.5,3.6l4.76-1.39c-1.42-3.64-5.63-6.76-11.3-6.76-5.48,0-9.46,3.46-9.42,7.55,0,3.38,2.48,5.6,5.93,6.68l6.72,2.11c2.52.82,3.46,1.76,3.46,3.15,0,1.73-1.92,3.31-5,3.31a7.77,7.77,0,0,1-7.51-4.92l-4.92,1.5c1.47,4.09,5.71,8,12.13,8M128.08,32.91h7.55a4,4,0,0,1,4.17,3.94,4.07,4.07,0,0,1-4.36,4h-7.36Zm11.57,21.66h5.93l-6.53-9.72a8.35,8.35,0,0,0,5.74-8,8.68,8.68,0,0,0-9-8.56H123V54.57h5.1v-9.2h5.6ZM117.72,33V28.29H98.35V54.57h19.33V49.92h-14.3V43.46h12.43V39H103.38V33Zm-28.8-4.66L81.41,48,73.9,28.29H68.23L78.6,54.57h5.63L94.59,28.29ZM59.26,54.57h5.22V28.29H59.26ZM48.11,28.29V45.34L34.89,28.29H30.65V54.57h5.14V37.49L49,54.57h4.24V28.29Zm-28.42,0V43.72c0,3.87-2.07,6.65-6.2,6.65s-6.16-2.78-6.16-6.65V28.29H2.11V43.8c0,6.68,4,11.3,11.38,11.3s11.38-4.62,11.38-11.3V28.29Z"/><path class="cls-1" d="M269.63,18.86c3.4,0,5.66-2,5.66-4.39s-1.63-3.21-3.8-3.88L268,9.46c-.93-.29-1.36-.71-1.36-1.34,0-.82.89-1.53,2.29-1.53a3.82,3.82,0,0,1,3.49,1.94L275,7.78a6.35,6.35,0,0,0-6.08-3.64c-2.95,0-5.1,1.86-5.08,4.06,0,1.82,1.34,3,3.2,3.6l3.61,1.13c1.36.45,1.86,1,1.86,1.7,0,.93-1,1.78-2.68,1.78a4.18,4.18,0,0,1-4.05-2.65l-2.64.81a6.71,6.71,0,0,0,6.52,4.29m-15.44-2.57a4.53,4.53,0,0,1-4.62-4.81,4.63,4.63,0,1,1,9.25,0,4.55,4.55,0,0,1-4.63,4.81m0,2.57a7.23,7.23,0,0,0,7.42-7.38,7.43,7.43,0,0,0-14.85,0,7.23,7.23,0,0,0,7.43,7.38M246.13,4.43H233.86v2.5h4.75V18.57h2.77V6.93h4.75Zm-21,8.63,2.27-6,2.26,6Zm6.61,5.51h2.89L229.17,4.43h-3.59l-5.42,14.14H223l1.17-3.07h6.37Zm-19.1-2.5h-3.33V6.91h3.33c2.43,0,4,1.84,4,4.53s-1.61,4.63-4,4.63m.06-11.64h-6.14V18.57h6.14c4.17,0,6.77-3,6.77-7.07s-2.64-7.07-6.77-7.07m-14.55,2.5V4.43H187.7V18.57h10.41v-2.5h-7.7V12.59h6.69V10.17h-6.69V6.93Zm-19.9,9.14h-3.34V6.91h3.34c2.42,0,4,1.84,4,4.53s-1.62,4.63-4,4.63m.06-11.64h-6.15V18.57h6.15c4.16,0,6.77-3,6.77-7.07s-2.65-7.07-6.77-7.07m-17.73,0V13.6l-7.11-9.17h-2.28V18.57h2.77V9.38l7.11,9.19h2.28V4.43ZM141.1,16.29a4.54,4.54,0,0,1-4.63-4.81,4.63,4.63,0,1,1,9.26,0,4.55,4.55,0,0,1-4.63,4.81m0,2.57a7.23,7.23,0,0,0,7.42-7.38,7.43,7.43,0,0,0-14.85,0,7.23,7.23,0,0,0,7.43,7.38m-1.37-16H142L144.21,0h-2.93ZM128.21,18.57H131V4.43h-2.81Zm-9.32.29a6.77,6.77,0,0,0,6.77-4.55L123,13.62a4.18,4.18,0,0,1-4.12,2.63,4.57,4.57,0,0,1-4.57-4.79,4.51,4.51,0,0,1,4.57-4.71A4.22,4.22,0,0,1,123,9.4l2.71-.67a6.85,6.85,0,0,0-6.85-4.59,7.22,7.22,0,0,0-7.38,7.34,7.25,7.25,0,0,0,7.44,7.38m-17.62-5.8,2.26-6,2.27,6Zm6.61,5.51h2.89L105.33,4.43h-3.6L96.32,18.57h2.87l1.17-3.07h6.37ZM87.45,16.11l7.41-9.8V4.43H83.75V6.89H91l-7.43,9.82v1.86H95.06V16.11Zm-9.26,2.46H81V4.43H78.19ZM68.75,16V4.43H66V18.57h9.83V16Zm-14.25-3,2.27-6,2.26,6Zm6.61,5.51H64L58.57,4.43H55L49.55,18.57h2.87l1.17-3.07H60ZM45.49,4.43v8.3c0,2.08-1.11,3.58-3.33,3.58s-3.32-1.5-3.32-3.58V4.43H36v8.34c0,3.6,2.17,6.09,6.13,6.09s6.12-2.49,6.12-6.09V4.43ZM28,18.86c3.4,0,5.66-2,5.66-4.39s-1.64-3.21-3.8-3.88L26.37,9.46C25.44,9.17,25,8.75,25,8.12c0-.82.89-1.53,2.28-1.53a3.84,3.84,0,0,1,3.5,1.94l2.56-.75a6.34,6.34,0,0,0-6.08-3.64c-3,0-5.09,1.86-5.07,4.06,0,1.82,1.33,3,3.19,3.6L29,12.93c1.35.45,1.86,1,1.86,1.7,0,.93-1,1.78-2.69,1.78a4.18,4.18,0,0,1-4-2.65l-2.65.81A6.73,6.73,0,0,0,28,18.86m-11.82-.29H19V4.43H16.21ZM11.14,4.43,7.09,15.06l-4-10.63H0L5.58,18.57h3L14.19,4.43Z"/></g></g></svg>