<svg xmlns="http://www.w3.org/2000/svg" viewBox="0 0 355.02 194.16"><defs><style>.cls-1{fill:#fff;}.cls-2{fill:#1d1d1b;}.cls-3{fill:#797979;}.cls-4{fill:#d2d2d2;}.cls-5{fill:#76bdac;}.cls-6{fill:#eb5954;}</style></defs><title>obs-Recurso 6</title><g id="Capa_2" data-name="Capa 2"><g id="Capa_1-2" data-name="Capa 1"><path class="cls-1" d="M8.91,0S0,0,0,8.91V185.25s0,8.91,8.91,8.91h337.2s8.91,0,8.91-8.91V8.91S355,0,346.11,0Z"/><path class="cls-2" d="M186.34,41.43a3,3,0,1,1,2.94-3,2.91,2.91,0,0,1-2.94,3m0,1.15a4.19,4.19,0,1,0-4.2-4.19,4.1,4.1,0,0,0,4.2,4.19m-8.23,0c1.89,0,3.16-1.09,3.16-2.44s-.86-1.76-2.11-2.16l-2-.63c-.73-.22-1-.5-1-1s.62-1.07,1.54-1.07a2.41,2.41,0,0,1,2.22,1.24l1.16-.34a3.52,3.52,0,0,0-3.38-2c-1.63,0-2.79,1-2.79,2.22,0,1,.73,1.63,1.81,2l2,.64c1,.3,1.28.65,1.28,1.18s-.71,1.26-1.83,1.26a2.59,2.59,0,0,1-2.51-1.69l-1.19.36a3.73,3.73,0,0,0,3.63,2.43m-6.19-.15h1.27V34.36h-1.27ZM169,34.36l-2.81,4.06-2.82-4.06h-1.2v8.07h1.25v-5.9l2.76,3.87,2.77-3.87v5.9h1.25V34.36Zm-12.4,7.07a3,3,0,1,1,2.94-3,2.91,2.91,0,0,1-2.94,3m0,1.15a4.19,4.19,0,1,0-4.21-4.19,4.1,4.1,0,0,0,4.21,4.19m-10.51-7.1h2.56a1.43,1.43,0,1,1,0,2.85h-2.52Zm4,7h1.44l-2.09-3.1a2.46,2.46,0,0,0,1.88-2.42,2.56,2.56,0,0,0-2.65-2.55h-3.84v8.07h1.25v-3h2Zm-9.28-3.79h-2.34V35.49h2.4a1.58,1.58,0,0,1-.06,3.15m.08-4.28h-3.66v8.07h1.24V39.77h2.36a2.71,2.71,0,1,0,.06-5.41m-6.59,0-2.81,4.06-2.83-4.06h-1.2v8.07h1.26v-5.9l2.75,3.87,2.77-3.87v5.9h1.26V34.36Zm-12.4,7.07a3,3,0,1,1,2.94-3,2.91,2.91,0,0,1-2.94,3m0,1.15a4.19,4.19,0,1,0-4.21-4.19,4.1,4.1,0,0,0,4.21,4.19m-9,0a3.84,3.84,0,0,0,3.81-2.5l-1.21-.31a2.66,2.66,0,0,1-2.61,1.64,3,3,0,0,1,0-6A2.73,2.73,0,0,1,115.49,37l1.21-.3a3.88,3.88,0,0,0-3.84-2.53,4.19,4.19,0,1,0,0,8.37m-12.33-1.3V34.36H99.28v8.07h5.5V41.28Zm-7.76-1.91,1.5-3.82,1.48,3.82ZM97,42.43h1.3l-3.19-8.07h-1.6l-3.19,8.07h1.3l.77-2h3.84Zm-16.62.15c1.89,0,3.16-1.09,3.16-2.44s-.87-1.76-2.11-2.16l-2-.63c-.73-.22-1-.5-1-1s.62-1.07,1.53-1.07a2.41,2.41,0,0,1,2.23,1.24l1.16-.34a3.53,3.53,0,0,0-3.39-2c-1.62,0-2.78,1-2.78,2.22,0,1,.73,1.63,1.8,2L81,39c1,.3,1.28.65,1.28,1.18s-.71,1.26-1.83,1.26a2.59,2.59,0,0,1-2.51-1.69l-1.19.36a3.73,3.73,0,0,0,3.63,2.43m-9.43-3.21,1.5-3.82,1.49,3.82Zm4.19,3.06h1.3l-3.19-8.07H71.6l-3.19,8.07h1.3l.78-2h3.83Zm-6.21-8.07H62v1.13H64.8v6.94h1.26V35.49h2.83Zm-9.3,8.07h1.27V34.36H59.59Zm-6.78-7h2.56a1.43,1.43,0,1,1,0,2.85H52.81Zm4,7h1.44l-2.09-3.1a2.47,2.47,0,0,0,1.88-2.42,2.56,2.56,0,0,0-2.65-2.55H51.57v8.07h1.24v-3h2Zm-10.44.15a3.86,3.86,0,0,0,3.82-2.5L49,39.77a2.66,2.66,0,0,1-2.62,1.64,3,3,0,0,1,0-6A2.71,2.71,0,0,1,49,37l1.21-.3a3.88,3.88,0,0,0-3.84-2.53,4.19,4.19,0,1,0,0,8.37m-8.23,0c1.89,0,3.16-1.09,3.16-2.44s-.86-1.76-2.11-2.16l-2-.63c-.73-.22-1-.5-1-1s.63-1.07,1.54-1.07A2.4,2.4,0,0,1,40,36.56l1.17-.34a3.55,3.55,0,0,0-3.39-2c-1.63,0-2.79,1-2.79,2.22,0,1,.74,1.63,1.81,2l2,.64c.94.3,1.28.65,1.28,1.18s-.72,1.26-1.84,1.26a2.6,2.6,0,0,1-2.51-1.69l-1.19.36a3.73,3.73,0,0,0,3.63,2.43M29.89,41.3h-2V35.49h2a2.64,2.64,0,0,1,2.68,2.89,2.65,2.65,0,0,1-2.68,2.92m0-6.94H26.63v8.07h3.28a3.76,3.76,0,0,0,3.92-4,3.77,3.77,0,0,0-3.92-4m-9.79,5,1.5-3.82,1.49,3.82Zm4.19,3.06h1.3l-3.19-8.07h-1.6l-3.2,8.07h1.31l.77-2h3.84Z"/><polygon class="cls-2" points="292.48 20.85 292.48 29.26 315.95 29.26 298.72 68.33 308.62 68.33 326.6 27.29 326.6 20.85 292.48 20.85"/><path class="cls-2" d="M312.83,131.49l10.72-11.8v-6.24H290.92v8.34h20.42l-9.64,11.94,1.56,5.5a9.11,9.11,0,0,1,4.89-1.16c5.22,0,8.14,3.53,8.14,7.74s-3.12,7.93-8.68,7.93a10.13,10.13,0,0,1-9.84-8.61l-8.35,2.37c1.29,7.06,7.06,14.38,18.66,14.38,9.91,0,17.23-7.12,17.23-16.07,0-8-5.15-13.16-12.48-14.32M269.62,130a19.46,19.46,0,0,0-8.14,1.63l.74-9.84h21v-8.34H254l-2,24.42,7.33,2.24a13.72,13.72,0,0,1,8.41-2.72c5.7,0,8.82,3.6,8.82,8.14s-3.26,8.21-8.75,8.21c-4.62,0-8-3.25-9.36-7.26L250,148.79c1.83,6.65,7.6,13.09,18.25,13.09,10,0,17.16-7.12,17.16-16.21,0-8.89-6.58-15.67-15.8-15.67"/><path class="cls-2" d="M232.17,133.21a3,3,0,1,1,2.94-3.05,2.91,2.91,0,0,1-2.94,3.05m0,1.15a4.18,4.18,0,1,0-4.2-4.19,4.1,4.1,0,0,0,4.2,4.19m-8.23,0c1.89,0,3.16-1.09,3.16-2.44s-.86-1.76-2.11-2.16l-2-.63c-.73-.22-1-.5-1-1s.63-1.07,1.54-1.07a2.39,2.39,0,0,1,2.22,1.25l1.16-.35a3.52,3.52,0,0,0-3.38-2c-1.63,0-2.79,1-2.79,2.21,0,1,.73,1.63,1.81,2l2,.64c.94.3,1.28.65,1.28,1.18s-.72,1.26-1.84,1.26a2.59,2.59,0,0,1-2.51-1.69l-1.19.36a3.73,3.73,0,0,0,3.63,2.43m-6.19-.15H219v-8.07h-1.27Zm-2.92-8.07L212,130.2l-2.82-4.06H208v8.07h1.26v-5.9l2.75,3.87,2.77-3.87v5.9H216v-8.07Zm-12.41,7.07a3,3,0,1,1,2.94-3.05,2.91,2.91,0,0,1-2.94,3.05m0,1.15a4.18,4.18,0,1,0-4.2-4.19,4.1,4.1,0,0,0,4.2,4.19m-10.51-7.1h2.56a1.43,1.43,0,1,1,0,2.85h-2.52Zm4,7h1.44l-2.08-3.1a2.46,2.46,0,0,0,1.87-2.42,2.56,2.56,0,0,0-2.65-2.55h-3.83v8.07h1.24v-3h2Zm-9.28-3.79H184.3v-3.15h2.4a1.58,1.58,0,0,1-.06,3.15m.08-4.28h-3.66v8.07h1.24v-2.66h2.36a2.71,2.71,0,1,0,.06-5.41m-6.59,0-2.81,4.06-2.83-4.06h-1.2v8.07h1.26v-5.9l2.75,3.87,2.77-3.87v5.9h1.26v-8.07Zm-12.4,7.07a3,3,0,1,1,2.94-3.05,2.91,2.91,0,0,1-2.94,3.05m0,1.15a4.18,4.18,0,1,0-4.21-4.19,4.1,4.1,0,0,0,4.21,4.19m-9,0a3.86,3.86,0,0,0,3.82-2.5l-1.22-.31a2.66,2.66,0,0,1-2.61,1.64,3,3,0,0,1,0-6,2.72,2.72,0,0,1,2.63,1.66l1.21-.3a3.87,3.87,0,0,0-3.84-2.52,4.18,4.18,0,1,0,0,8.36m-12.33-1.3v-6.92h-1.26v8.07h5.5v-1.15Zm-7.76-1.91,1.5-3.82,1.48,3.82Zm4.18,3.06h1.31l-3.2-8.07h-1.6l-3.19,8.07h1.3l.77-2H142Zm-13.59.15c1.89,0,3.16-1.09,3.16-2.44s-.86-1.76-2.11-2.16l-2-.63c-.73-.22-1-.5-1-1s.63-1.07,1.54-1.07a2.39,2.39,0,0,1,2.22,1.25l1.17-.35a3.54,3.54,0,0,0-3.39-2c-1.63,0-2.79,1-2.79,2.21,0,1,.73,1.63,1.81,2l2,.64c.94.3,1.28.65,1.28,1.18s-.72,1.26-1.84,1.26a2.59,2.59,0,0,1-2.51-1.69l-1.19.36a3.73,3.73,0,0,0,3.63,2.43m-9.43-3.21,1.5-3.82,1.49,3.82Zm4.19,3.06h1.3l-3.19-8.07h-1.6l-3.2,8.07h1.31l.77-2h3.84Zm-6.2-8.07h-6.94v1.13h2.85v6.94h1.25v-6.94h2.84Zm-9.3,8.07h1.26v-8.07h-1.26Zm-6.78-7h2.56a1.43,1.43,0,1,1,0,2.85h-2.52Zm4,7h1.44l-2.09-3.1a2.47,2.47,0,0,0,1.88-2.42,2.56,2.56,0,0,0-2.65-2.55h-3.84v8.07h1.25v-3h2Zm-10.43.15a3.86,3.86,0,0,0,3.81-2.5l-1.21-.31a2.66,2.66,0,0,1-2.62,1.64,3,3,0,0,1,0-6,2.71,2.71,0,0,1,2.63,1.66l1.21-.3A3.86,3.86,0,0,0,95.24,126a4.18,4.18,0,1,0,0,8.36m-8.23,0c1.89,0,3.15-1.09,3.15-2.44s-.86-1.76-2.1-2.16l-2-.63c-.72-.22-1-.5-1-1s.62-1.07,1.53-1.07a2.38,2.38,0,0,1,2.22,1.25L90,128a3.52,3.52,0,0,0-3.39-2c-1.63,0-2.79,1-2.79,2.21,0,1,.74,1.63,1.81,2l2,.64c.94.3,1.28.65,1.28,1.18s-.72,1.26-1.83,1.26a2.61,2.61,0,0,1-2.52-1.69l-1.18.36A3.71,3.71,0,0,0,87,134.36m-8.28-1.28h-2v-5.81h2a2.91,2.91,0,0,1,0,5.81m0-6.94H75.49v8.07h3.28a4,4,0,0,0,0-8.07m-9.78,5,1.49-3.82L72,131.15Zm4.18,3.06h1.3l-3.19-8.07h-1.6l-3.19,8.07h1.3l.77-2H72.4Zm-14.57-1a3,3,0,1,1,2.94-3.05,2.91,2.91,0,0,1-2.94,3.05m0,1.15a4.18,4.18,0,1,0-4.21-4.19,4.1,4.1,0,0,0,4.21,4.19m-6.83-8.22V132l-4.48-5.85h-1v8.07H47.5v-5.84L52,134.21H53v-8.07Zm-11.54,0V132l-4.48-5.85h-1v8.07H36v-5.84l4.47,5.84h1v-8.07Zm-8.43,0v4.79a2.15,2.15,0,1,1-4.29,0v-4.79H26.26V131a3.15,3.15,0,0,0,3.4,3.41A3.16,3.16,0,0,0,33.07,131v-4.81Zm-.54-2.51H29.91l-.9,1.59h1.07Zm-11.14,7.52,1.5-3.82,1.49,3.82Zm4.19,3.06h1.3l-3.19-8.07h-1.6l-3.2,8.07h1.31l.77-2h3.84Z"/><path class="cls-3" d="M55.53,161.5c-1.08,0-1.63-1-1.63-2.49s.55-2.49,1.63-2.49,1.63,1,1.63,2.49-.54,2.49-1.63,2.49m0,.93c1.72,0,2.65-1.46,2.65-3.42s-.93-3.43-2.65-3.43S52.87,157,52.87,159s1,3.42,2.66,3.42m-5.84-.92a1.37,1.37,0,1,1,1.41-1.37,1.35,1.35,0,0,1-1.41,1.37m.12-3.63a1.84,1.84,0,0,0-.41,0l1.47-2.21H49.7l-1.94,3a2.61,2.61,0,0,0-.52,1.47,2.44,2.44,0,0,0,4.88,0,2.24,2.24,0,0,0-2.31-2.26m-9.67,1.7a1.43,1.43,0,0,1,1.47-1.29,1.35,1.35,0,0,1,1.45,1.28Zm1.56,2.85A2.41,2.41,0,0,0,44,161.08l-.9-.26a1.59,1.59,0,0,1-2.93-.58H44a2.6,2.6,0,0,0,0-.4,2.29,2.29,0,0,0-2.42-2.4,2.5,2.5,0,0,0,.09,5m-6.18-.89a1.61,1.61,0,0,1,0-3.21,1.61,1.61,0,0,1,0,3.21m1.55-6.12v2.86a2,2,0,0,0-1.71-.84,2.5,2.5,0,0,0,0,5,2,2,0,0,0,1.71-.84v.72h1v-6.89Zm-9.29,2.83,1.63-1.83v-.71H25v.91h3.09l-1.62,2,.18.64a1.27,1.27,0,0,1,.76-.21,1.19,1.19,0,0,1,1.27,1.24,1.29,1.29,0,0,1-1.4,1.29,1.59,1.59,0,0,1-1.57-1.29l-.91.26a2.41,2.41,0,0,0,2.53,1.94,2.23,2.23,0,0,0,2.34-2.2,1.91,1.91,0,0,0-1.87-2m-6-.2a2.54,2.54,0,0,0-1.27.31l.13-1.74h3v-.91H19.73l-.29,3.4.79.24a2.12,2.12,0,0,1,1.36-.47A1.28,1.28,0,0,1,23,160.2a1.31,1.31,0,0,1-1.41,1.33,1.53,1.53,0,0,1-1.49-1.14l-.92.26a2.4,2.4,0,0,0,2.46,1.78A2.22,2.22,0,0,0,24,160.21a2.12,2.12,0,0,0-2.23-2.16"/><path class="cls-4" d="M20,74.4s-4,0-4,4v2.49s0,4,4,4H327.78s4,0,4-4V78.4s0-4-4-4Z"/><path class="cls-4" d="M20,166.87s-4,0-4,4v2.49s0,4,4,4H327.78s4,0,4-4v-2.49s0-4-4-4Z"/><path class="cls-5" d="M20,74.4s-4,0-4,4v2.49s0,4,4,4H44s4,0,4-4V78.4s0-4-4-4Z"/><path class="cls-6" d="M20,166.87s-4,0-4,4v2.49s0,4,4,4H291.78s4,0,4-4v-2.49s0-4-4-4Z"/><path class="cls-3" d="M49.32,69.65c-1.09,0-1.63-1-1.63-2.49s.54-2.49,1.63-2.49,1.62,1,1.62,2.49-.54,2.49-1.62,2.49m0,.94C51,70.59,52,69.12,52,67.16s-.94-3.42-2.65-3.42-2.66,1.45-2.66,3.42.94,3.43,2.66,3.43m-5.85-.93a1.36,1.36,0,1,1,1.42-1.37,1.34,1.34,0,0,1-1.42,1.37M43.59,66a1.7,1.7,0,0,0-.4,0l1.46-2.22H43.49l-1.94,3A2.63,2.63,0,0,0,41,68.29a2.44,2.44,0,0,0,4.87,0A2.24,2.24,0,0,0,43.59,66m-9.66,1.69a1.43,1.43,0,0,1,1.47-1.28,1.34,1.34,0,0,1,1.44,1.28Zm1.55,2.86a2.4,2.4,0,0,0,2.27-1.35l-.9-.27a1.41,1.41,0,0,1-1.35.77,1.42,1.42,0,0,1-1.57-1.34h3.85a2.8,2.8,0,0,0,0-.4,2.27,2.27,0,0,0-2.41-2.4,2.5,2.5,0,0,0,.08,5m-6.17-.89a1.61,1.61,0,0,1,0-3.22,1.61,1.61,0,0,1,0,3.22m1.54-6.12v2.86a2,2,0,0,0-1.71-.84,2.5,2.5,0,0,0,0,5,2,2,0,0,0,1.71-.84v.71h1V63.58ZM19,63.86v.93h3.48L20,70.46H21l2.61-5.87v-.73Z"/></g></g></svg>