<svg xmlns="http://www.w3.org/2000/svg" viewBox="0 0 355.02 207.16"><defs><style>.cls-1{fill:#fff;}.cls-2{fill:#1d1d1b;}.cls-3{fill:#797979;}.cls-4{fill:#d2d2d2;}.cls-5{fill:#76bdac;}.cls-6{fill:#eb5954;}</style></defs><title>obs-Recurso 12</title><g id="Capa_2" data-name="Capa 2"><g id="Capa_1-2" data-name="Capa 1"><path class="cls-1" d="M8.91,0S0,0,0,8.91V198.25s0,8.91,8.91,8.91h337.2s8.91,0,8.91-8.91V8.91S355,0,346.11,0Z"/><path class="cls-2" d="M187.05,41.43a3,3,0,1,1,2.94-3,2.91,2.91,0,0,1-2.94,3m0,1.15a4.18,4.18,0,1,0-4.21-4.19,4.1,4.1,0,0,0,4.21,4.19m-8.23,0c1.89,0,3.16-1.09,3.16-2.44s-.87-1.76-2.11-2.16l-2-.63c-.73-.22-1-.5-1-1s.62-1.07,1.53-1.07a2.4,2.4,0,0,1,2.23,1.25l1.16-.35a3.52,3.52,0,0,0-3.39-2c-1.62,0-2.78,1-2.78,2.21,0,1,.73,1.63,1.8,2l2,.64c.95.3,1.28.65,1.28,1.18s-.71,1.26-1.83,1.26a2.59,2.59,0,0,1-2.51-1.69l-1.19.36a3.73,3.73,0,0,0,3.63,2.43m-6.19-.15h1.27V34.37h-1.27Zm-2.93-8.06-2.81,4.05-2.82-4.05h-1.2v8.06h1.25v-5.9l2.76,3.87,2.77-3.87v5.9h1.25V34.37Zm-12.4,7.06a3,3,0,1,1,2.94-3,2.91,2.91,0,0,1-2.94,3m0,1.15a4.18,4.18,0,1,0-4.21-4.19,4.1,4.1,0,0,0,4.21,4.19m-10.51-7.1h2.56a1.43,1.43,0,1,1,0,2.85h-2.52Zm4,7h1.44l-2.09-3.1A2.46,2.46,0,0,0,152,36.91a2.55,2.55,0,0,0-2.65-2.54h-3.84v8.06h1.25v-3h2Zm-9.28-3.79h-2.34V35.49h2.4a1.58,1.58,0,0,1-.06,3.15m.08-4.27h-3.66v8.06h1.24V39.77h2.36a2.7,2.7,0,1,0,.06-5.4m-6.59,0-2.82,4.05-2.82-4.05h-1.2v8.06h1.26v-5.9l2.75,3.87L135,36.53v5.9h1.26V34.37ZM122.6,41.43a3,3,0,1,1,2.94-3,2.91,2.91,0,0,1-2.94,3m0,1.15a4.18,4.18,0,1,0-4.2-4.19,4.1,4.1,0,0,0,4.2,4.19m-9,0a3.85,3.85,0,0,0,3.81-2.5l-1.21-.31a2.66,2.66,0,0,1-2.61,1.64,3,3,0,0,1,0-6A2.7,2.7,0,0,1,116.19,37l1.21-.3a3.85,3.85,0,0,0-3.83-2.52,4.18,4.18,0,1,0,0,8.36m-12.34-1.3V34.37H100v8.06h5.5V41.28Zm-7.75-1.91L95,35.55l1.48,3.82Zm4.18,3.06H99l-3.19-8.06h-1.6L91,42.43h1.3l.77-2H96.9Zm-16.62.15c1.89,0,3.16-1.09,3.16-2.44S83.34,38.38,82.1,38l-2-.63c-.73-.22-1-.5-1-1s.62-1.07,1.53-1.07a2.4,2.4,0,0,1,2.23,1.25L84,36.22a3.52,3.52,0,0,0-3.39-2c-1.62,0-2.79,1-2.79,2.21,0,1,.74,1.63,1.81,2l2,.64c1,.3,1.28.65,1.28,1.18s-.71,1.26-1.83,1.26a2.59,2.59,0,0,1-2.51-1.69l-1.19.36a3.73,3.73,0,0,0,3.63,2.43m-9.43-3.21,1.5-3.82,1.49,3.82Zm4.18,3.06h1.31l-3.2-8.06h-1.6l-3.19,8.06h1.3l.77-2H75Zm-6.2-8.06H62.66v1.12h2.85v6.94h1.26V35.49H69.6Zm-9.3,8.06h1.27V34.37H60.3Zm-6.78-7h2.56a1.43,1.43,0,1,1,0,2.85H53.52Zm4,7H59l-2.09-3.1a2.47,2.47,0,0,0,1.88-2.42,2.55,2.55,0,0,0-2.65-2.54H52.28v8.06h1.24v-3h2Zm-10.44.15a3.86,3.86,0,0,0,3.82-2.5l-1.21-.31a2.67,2.67,0,0,1-2.62,1.64,3,3,0,0,1,0-6A2.72,2.72,0,0,1,49.72,37l1.21-.3a3.87,3.87,0,0,0-3.84-2.52,4.18,4.18,0,1,0,0,8.36m-8.23,0c1.89,0,3.16-1.09,3.16-2.44s-.86-1.76-2.11-2.16l-2-.63c-.73-.22-1-.5-1-1s.62-1.07,1.54-1.07a2.39,2.39,0,0,1,2.22,1.25l1.16-.35a3.52,3.52,0,0,0-3.38-2c-1.63,0-2.79,1-2.79,2.21,0,1,.73,1.63,1.81,2l2,.64c.94.3,1.28.65,1.28,1.18s-.72,1.26-1.84,1.26a2.59,2.59,0,0,1-2.51-1.69l-1.19.36a3.73,3.73,0,0,0,3.63,2.43M30.6,41.3h-2V35.49h2a2.64,2.64,0,0,1,2.68,2.89A2.65,2.65,0,0,1,30.6,41.3m0-6.93H27.33v8.06h3.29a3.76,3.76,0,0,0,3.92-4,3.76,3.76,0,0,0-3.92-4m-9.79,5,1.5-3.82,1.49,3.82ZM25,42.43h1.3l-3.19-8.06H21.52l-3.19,8.06h1.3l.78-2h3.83Z"/><path class="cls-2" d="M305,59.92,315.75,50c5.42-5,8.68-9.23,8.68-15.2,0-9.56-7-14.92-16.89-14.92-9.43,0-15.88,6.65-16.83,13.77L299.06,36c1-4.68,4.27-7.8,8.68-7.8,4.68,0,7.46,2.72,7.46,7.06,0,3.39-2.3,6-5.83,9.22L290.85,62v6.37h34.33V59.92ZM274.36,20.85,260,28.24l2.24,7.94,10.65-4.95v37.1h9.43V20.85Z"/><path class="cls-2" d="M307.33,154c-5.69,0-9-3.32-9-7.53s3.33-7.53,9-7.53,9,3.26,9,7.53-3.4,7.53-9,7.53m0-34.12c4.62,0,7.33,2.78,7.33,6.11s-2.71,6.1-7.33,6.1S300,129.32,300,126s2.64-6.11,7.32-6.11m10.18,15.2a10.64,10.64,0,0,0,6.17-9.91c0-6.92-6.31-12.68-16.35-12.68S291,118.26,291,125.18a10.65,10.65,0,0,0,6.18,9.91c-5.09,2.24-8.21,6.37-8.21,12.14,0,8.21,7.19,14.65,18.38,14.65s18.39-6.44,18.39-14.65c0-5.77-3.19-9.9-8.21-12.14m-64.85-21.64v8.41h23.47L258.9,160.93h9.9l18-41v-6.44Z"/><path class="cls-2" d="M232.17,133.21a3,3,0,1,1,2.94-3.05,2.91,2.91,0,0,1-2.94,3.05m0,1.15a4.18,4.18,0,1,0-4.2-4.19,4.1,4.1,0,0,0,4.2,4.19m-8.23,0c1.89,0,3.16-1.09,3.16-2.44s-.86-1.76-2.11-2.16l-2-.63c-.73-.22-1-.5-1-1s.63-1.07,1.54-1.07a2.39,2.39,0,0,1,2.22,1.25l1.16-.35a3.52,3.52,0,0,0-3.38-2c-1.63,0-2.79,1-2.79,2.21,0,1,.73,1.63,1.81,2l2,.64c.94.3,1.28.65,1.28,1.18s-.72,1.26-1.84,1.26a2.59,2.59,0,0,1-2.51-1.69l-1.19.36a3.73,3.73,0,0,0,3.63,2.43m-6.19-.15H219v-8.06h-1.27Zm-2.92-8.06-2.82,4-2.82-4H208v8.06h1.26v-5.9l2.75,3.87,2.77-3.87v5.9H216v-8.06Zm-12.41,7.06a3,3,0,1,1,2.94-3.05,2.91,2.91,0,0,1-2.94,3.05m0,1.15a4.18,4.18,0,1,0-4.2-4.19,4.1,4.1,0,0,0,4.2,4.19m-10.51-7.1h2.56a1.43,1.43,0,1,1,0,2.85h-2.52Zm4,7h1.44l-2.08-3.1a2.46,2.46,0,0,0,1.87-2.42,2.55,2.55,0,0,0-2.65-2.54h-3.83v8.06h1.24v-3h2Zm-9.28-3.79H184.3v-3.15h2.4a1.58,1.58,0,0,1-.06,3.15m.08-4.27h-3.66v8.06h1.24v-2.66h2.36a2.7,2.7,0,1,0,.06-5.4m-6.59,0-2.81,4-2.83-4h-1.2v8.06h1.26v-5.9l2.75,3.87,2.77-3.87v5.9h1.26v-8.06Zm-12.4,7.06a3,3,0,1,1,2.94-3.05,2.91,2.91,0,0,1-2.94,3.05m0,1.15a4.18,4.18,0,1,0-4.21-4.19,4.1,4.1,0,0,0,4.21,4.19m-9,0a3.86,3.86,0,0,0,3.82-2.5l-1.22-.31a2.66,2.66,0,0,1-2.61,1.64,3,3,0,0,1,0-6,2.72,2.72,0,0,1,2.63,1.66l1.21-.3a3.87,3.87,0,0,0-3.84-2.52,4.18,4.18,0,1,0,0,8.36m-12.33-1.3v-6.91h-1.26v8.06h5.5v-1.15Zm-7.76-1.91,1.5-3.82,1.48,3.82Zm4.18,3.06h1.31l-3.2-8.06h-1.6l-3.19,8.06h1.3l.77-2H142Zm-13.59.15c1.89,0,3.16-1.09,3.16-2.44s-.86-1.76-2.11-2.16l-2-.63c-.73-.22-1-.5-1-1s.63-1.07,1.54-1.07a2.39,2.39,0,0,1,2.22,1.25l1.17-.35a3.54,3.54,0,0,0-3.39-2c-1.63,0-2.79,1-2.79,2.21,0,1,.73,1.63,1.81,2l2,.64c.94.3,1.28.65,1.28,1.18s-.72,1.26-1.84,1.26a2.59,2.59,0,0,1-2.51-1.69l-1.19.36a3.73,3.73,0,0,0,3.63,2.43m-9.43-3.21,1.5-3.82,1.49,3.82Zm4.19,3.06h1.3l-3.19-8.06h-1.6l-3.2,8.06h1.31l.77-2h3.84Zm-6.2-8.06h-6.94v1.12h2.85v6.94h1.25v-6.94h2.84Zm-9.3,8.06h1.26v-8.06h-1.26Zm-6.78-7h2.56a1.43,1.43,0,1,1,0,2.85h-2.52Zm4,7h1.44l-2.09-3.1a2.47,2.47,0,0,0,1.88-2.42,2.55,2.55,0,0,0-2.65-2.54h-3.84v8.06h1.25v-3h2Zm-10.43.15a3.86,3.86,0,0,0,3.81-2.5l-1.21-.31a2.66,2.66,0,0,1-2.62,1.64,3,3,0,0,1,0-6,2.71,2.71,0,0,1,2.63,1.66l1.21-.3A3.86,3.86,0,0,0,95.24,126a4.18,4.18,0,1,0,0,8.36m-8.23,0c1.89,0,3.15-1.09,3.15-2.44s-.86-1.76-2.1-2.16l-2-.63c-.72-.22-1-.5-1-1s.62-1.07,1.53-1.07a2.38,2.38,0,0,1,2.22,1.25L90,128a3.52,3.52,0,0,0-3.39-2c-1.63,0-2.79,1-2.79,2.21,0,1,.74,1.63,1.81,2l2,.64c.94.3,1.28.65,1.28,1.18s-.72,1.26-1.83,1.26a2.61,2.61,0,0,1-2.52-1.69l-1.18.36A3.71,3.71,0,0,0,87,134.36m-8.28-1.28h-2v-5.81h2a2.91,2.91,0,0,1,0,5.81m0-6.93H75.49v8.06h3.28a4,4,0,0,0,0-8.06m-9.78,5,1.49-3.82L72,131.15Zm4.18,3.06h1.3l-3.19-8.06h-1.6l-3.19,8.06h1.3l.77-2H72.4Zm-14.57-1a3,3,0,1,1,2.94-3.05,2.91,2.91,0,0,1-2.94,3.05m0,1.15a4.18,4.18,0,1,0-4.21-4.19,4.1,4.1,0,0,0,4.21,4.19m-6.83-8.21V132l-4.48-5.84h-1v8.06H47.5v-5.84L52,134.21H53v-8.06Zm-11.54,0V132l-4.48-5.84h-1v8.06H36v-5.84l4.47,5.84h1v-8.06Zm-8.43,0v4.78a2.15,2.15,0,1,1-4.29,0v-4.78H26.26V131a3.15,3.15,0,0,0,3.4,3.41A3.16,3.16,0,0,0,33.07,131v-4.8Zm-.54-2.52H29.91l-.9,1.59h1.07Zm-11.14,7.52,1.5-3.82,1.49,3.82Zm4.19,3.06h1.3l-3.19-8.06h-1.6l-3.2,8.06h1.31l.77-2h3.84Z"/><path class="cls-3" d="M55,161.5c-1.09,0-1.64-1-1.64-2.49s.55-2.49,1.64-2.49,1.62,1,1.62,2.49-.54,2.49-1.62,2.49m0,.93c1.71,0,2.64-1.46,2.64-3.42s-.93-3.43-2.64-3.43S52.34,157,52.34,159s.94,3.42,2.66,3.42m-5.85-3.2a1.35,1.35,0,0,1-1.43-1.37,1.42,1.42,0,1,1,1.43,1.37m0-3.65a2.29,2.29,0,0,0-2.43,2.28A2.25,2.25,0,0,0,49,160.13a1.77,1.77,0,0,0,.41,0L48,162.31h1.16l1.94-3a2.66,2.66,0,0,0,.52-1.49,2.3,2.3,0,0,0-2.44-2.28m-9.54,4a1.44,1.44,0,0,1,1.48-1.29,1.35,1.35,0,0,1,1.44,1.28Zm1.56,2.85a2.4,2.4,0,0,0,2.27-1.35l-.9-.26a1.42,1.42,0,0,1-1.35.76,1.44,1.44,0,0,1-1.58-1.34h3.86a2.69,2.69,0,0,0,0-.4,2.28,2.28,0,0,0-2.41-2.4,2.5,2.5,0,0,0,.08,5M35,161.54a1.61,1.61,0,0,1,0-3.21,1.61,1.61,0,0,1,0,3.21m1.55-6.12v2.86a2,2,0,0,0-1.71-.84,2.5,2.5,0,0,0,0,5,2,2,0,0,0,1.71-.84v.72h1v-6.89Zm-9.87,6.13c-.91,0-1.46-.52-1.46-1.2s.55-1.18,1.46-1.18,1.47.51,1.47,1.18-.57,1.2-1.47,1.2m0-5.14c.76,0,1.21.44,1.21,1s-.45,1-1.21,1-1.21-.44-1.21-1,.44-1,1.21-1m1.3,2.31a1.51,1.51,0,0,0,.9-1.39c0-1-.85-1.75-2.2-1.75s-2.2.78-2.2,1.75a1.51,1.51,0,0,0,.9,1.39,1.78,1.78,0,0,0-1.18,1.7c0,1.13,1,2,2.48,2s2.48-.88,2.48-2a1.78,1.78,0,0,0-1.18-1.7m-9-3v.92h3.48L20,162.31H21l2.61-5.88v-.72Z"/><path class="cls-4" d="M20,74.4s-4,0-4,4v2.49s0,4,4,4H327.78s4,0,4-4V78.4s0-4-4-4Z"/><path class="cls-4" d="M20,166.87s-4,0-4,4v2.49s0,4,4,4H327.78s4,0,4-4v-2.49s0-4-4-4Z"/><path class="cls-5" d="M20,74.4s-4,0-4,4v2.49s0,4,4,4H55.91s4,0,4-4V78.4s0-4-4-4Z"/><path class="cls-6" d="M20,166.87s-4,0-4,4v2.49s0,4,4,4H285s4,0,4-4v-2.49s0-4-4-4Z"/><path class="cls-3" d="M53.68,69.65c-1.08,0-1.63-1-1.63-2.49s.55-2.49,1.63-2.49,1.63,1,1.63,2.49-.54,2.49-1.63,2.49m0,.94c1.72,0,2.65-1.46,2.65-3.43s-.93-3.42-2.65-3.42S51,65.19,51,67.16s.94,3.43,2.65,3.43m-5.84-3.2A1.37,1.37,0,1,1,49.25,66a1.35,1.35,0,0,1-1.41,1.37m0-3.65A2.29,2.29,0,0,0,45.4,66a2.24,2.24,0,0,0,2.31,2.26,1.78,1.78,0,0,0,.41,0l-1.47,2.22h1.16l1.94-3A2.63,2.63,0,0,0,50.27,66a2.3,2.3,0,0,0-2.44-2.28m-9.54,4a1.44,1.44,0,0,1,1.47-1.28,1.35,1.35,0,0,1,1.45,1.28Zm1.56,2.86a2.4,2.4,0,0,0,2.27-1.35l-.9-.27a1.41,1.41,0,0,1-1.35.77,1.44,1.44,0,0,1-1.58-1.34h3.86a2.69,2.69,0,0,0,0-.4,2.28,2.28,0,0,0-2.42-2.4,2.5,2.5,0,0,0,.09,5m-6.18-.89a1.61,1.61,0,0,1,0-3.22,1.61,1.61,0,0,1,0,3.22m1.55-6.12v2.86a2,2,0,0,0-1.71-.84,2.5,2.5,0,0,0,0,5,2,2,0,0,0,1.71-.84v.71h1V63.58Zm-10.56,6,1.76-1.66a2.87,2.87,0,0,0,1.23-2.1,2,2,0,0,0-2.27-2,2.22,2.22,0,0,0-2.26,1.85l.91.26a1.4,1.4,0,0,1,1.37-1.2,1.12,1.12,0,0,1,1.24,1.16c0,.53-.38.94-.92,1.45l-2.6,2.48v.72h4.64v-.93ZM21,63.86l-2,1,.25.89L20.84,65v5.45h1v-6.6Z"/></g></g></svg>