<svg xmlns="http://www.w3.org/2000/svg" viewBox="0 0 288.57 194.16"><defs><style>.cls-1{fill:#fff;}.cls-2{fill:#1d1d1b;}.cls-3{fill:#797979;}.cls-4{fill:#76bdac;}.cls-5{fill:#eb5954;}</style></defs><title>obs-Recurso 9</title><g id="Capa_2" data-name="Capa 2"><g id="Capa_1-2" data-name="Capa 1"><path class="cls-1" d="M8.91,0S0,0,0,8.91V185.25s0,8.91,8.91,8.91H279.65s8.92,0,8.92-8.91V8.91s0-8.91-8.92-8.91Z"/><path class="cls-2" d="M172.82,29.12a.78.78,0,1,0,0-1.56.78.78,0,1,0,0,1.56m0-4.29a.77.77,0,1,0,0-1.54.77.77,0,1,0,0,1.54m-5,4.36c1.89,0,3.16-1.1,3.16-2.44s-.86-1.77-2.11-2.16l-2-.63c-.73-.22-1-.5-1-1s.63-1.07,1.54-1.07a2.38,2.38,0,0,1,2.22,1.24l1.17-.34a3.55,3.55,0,0,0-3.39-2c-1.63,0-2.79,1-2.79,2.21,0,1,.73,1.64,1.81,2l2,.64c.94.3,1.28.65,1.28,1.18s-.72,1.25-1.84,1.25a2.59,2.59,0,0,1-2.51-1.68l-1.19.36a3.73,3.73,0,0,0,3.63,2.43M158.41,26l1.5-3.81L161.4,26ZM162.6,29h1.3L160.71,21h-1.6L155.91,29h1.31l.77-2h3.84Zm-12.69-6.95h2.56a1.43,1.43,0,1,1,0,2.85h-2.52Zm4,7h1.44l-2.09-3.1a2.46,2.46,0,0,0,1.88-2.42A2.55,2.55,0,0,0,152.5,21h-3.84V29h1.25V26h2Zm-10.83-1a2.91,2.91,0,0,1-3-3.06,3,3,0,1,1,5.9,0A2.91,2.91,0,0,1,143.09,28m0,1.15a4.19,4.19,0,1,0-4.2-4.2,4.11,4.11,0,0,0,4.2,4.2M138.73,21h-6.94V22.1h2.84V29h1.26V22.1h2.84Zm-11.2,8.22a3.87,3.87,0,0,0,3.82-2.5l-1.21-.31A2.66,2.66,0,0,1,127.52,28a3,3,0,0,1,0-6,2.7,2.7,0,0,1,2.63,1.67l1.21-.31a3.88,3.88,0,0,0-3.84-2.52,4.19,4.19,0,1,0,0,8.37m-5.17-7.09V21h-5.81V29h5.8V27.9h-4.57V25.48h4V24.4h-4V22.1Zm-12.59,0h2.56a1.43,1.43,0,1,1,0,2.85h-2.53Zm4,7h1.44l-2.08-3.1A2.46,2.46,0,0,0,115,23.52,2.55,2.55,0,0,0,112.36,21h-3.83V29h1.24V26h2Zm-12.87.15c1.89,0,3.15-1.1,3.15-2.44S103.2,25,102,24.59L100,24c-.72-.22-1-.5-1-1s.62-1.07,1.53-1.07a2.4,2.4,0,0,1,2.23,1.24l1.16-.34a3.53,3.53,0,0,0-3.39-2c-1.63,0-2.79,1-2.79,2.21,0,1,.74,1.64,1.81,2l2,.64c.94.3,1.28.65,1.28,1.18s-.72,1.25-1.83,1.25a2.61,2.61,0,0,1-2.52-1.68l-1.18.36a3.71,3.71,0,0,0,3.63,2.43m-9.75.9h1l4.56-10.16h-1ZM90.54,21,88,27.48,85.5,21H84.12L87.34,29h1.35L91.9,21ZM77.2,29.19c1.89,0,3.15-1.1,3.15-2.44s-.86-1.77-2.1-2.16l-2-.63c-.72-.22-1-.5-1-1s.62-1.07,1.53-1.07A2.37,2.37,0,0,1,79,23.17l1.17-.34a3.53,3.53,0,0,0-3.39-2c-1.63,0-2.79,1-2.79,2.21,0,1,.74,1.64,1.81,2l2,.64c.94.3,1.28.65,1.28,1.18s-.72,1.25-1.83,1.25a2.61,2.61,0,0,1-2.52-1.68l-1.18.36a3.71,3.71,0,0,0,3.63,2.43M72.77,22.1V21H67V29h5.8V27.9H68.19V25.48h4V24.4h-4V22.1Zm-12.59,0h2.56a1.43,1.43,0,1,1,0,2.85H60.18Zm4,7h1.44l-2.08-3.1a2.47,2.47,0,0,0,1.88-2.42A2.56,2.56,0,0,0,62.78,21H58.94V29h1.24V26h2ZM53.37,28A2.91,2.91,0,0,1,50.42,25a2.95,2.95,0,1,1,5.89,0A2.91,2.91,0,0,1,53.37,28m0,1.15A4.19,4.19,0,1,0,49.16,25a4.1,4.1,0,0,0,4.21,4.2M49,21H42.06V22.1h2.85V29h1.25V22.1H49ZM37.81,29.19a3.86,3.86,0,0,0,3.81-2.5l-1.21-.31A2.65,2.65,0,0,1,37.8,28a3,3,0,0,1,0-6,2.7,2.7,0,0,1,2.62,1.67l1.21-.31a3.86,3.86,0,0,0-3.83-2.52,4.19,4.19,0,1,0,0,8.37M32.63,22.1V21H26.82V29h5.8V27.9H28.06V25.48h4V24.4h-4V22.1ZM20,22.09H22.6a1.43,1.43,0,1,1,0,2.85H20Zm4,7H25.5l-2.09-3.1a2.47,2.47,0,0,0,1.88-2.42A2.55,2.55,0,0,0,22.64,21H18.8V29H20V26h2.05Z"/><path class="cls-3" d="M149.48,50c1.17,0,2-.65,2-1.49s-.57-1.11-1.24-1.3L149,46.86c-.32-.11-.51-.24-.51-.48s.33-.57.83-.57a1.28,1.28,0,0,1,1.19.66l.88-.26A2.12,2.12,0,0,0,149.29,45a1.63,1.63,0,0,0-1.81,1.37c0,.68.5,1,1.13,1.22l1.28.38c.42.12.61.27.61.56s-.39.65-1,.65a1.41,1.41,0,0,1-1.37-.9l-.89.26A2.27,2.27,0,0,0,149.48,50m-5.74-.89a1.61,1.61,0,0,1,0-3.22,1.61,1.61,0,0,1,0,3.22m-.16.89a2,2,0,0,0,1.71-.84v.71h1V45.14h-1v.72a2,2,0,0,0-1.71-.84,2.5,2.5,0,0,0,0,5m-4.38-4.12v-.75h-1v4.74h1V47.74c0-1.38.61-1.89,1.62-1.73v-.93a1.48,1.48,0,0,0-1.62.81m-4.62,3.22a1.6,1.6,0,1,1,1.56-1.59,1.53,1.53,0,0,1-1.56,1.59m0,.9a2.5,2.5,0,1,0-2.52-2.5,2.45,2.45,0,0,0,2.52,2.5m-3.27-1.09a1.26,1.26,0,0,1-.62.15c-.46,0-.68-.26-.68-.72V46h1.5v-.88H130V43.56h-1v1.58h-.87V46H129v2.33c0,1,.46,1.61,1.48,1.61a2.57,2.57,0,0,0,1-.23Zm-6,1.09a2.26,2.26,0,0,0,2.25-1.48l-.92-.26a1.36,1.36,0,0,1-1.33.85,1.61,1.61,0,0,1,0-3.22,1.38,1.38,0,0,1,1.33.88l.92-.26a2.27,2.27,0,0,0-2.26-1.5,2.5,2.5,0,0,0,0,5m-7.2-2.86a1.45,1.45,0,0,1,1.48-1.29A1.36,1.36,0,0,1,121,47.15ZM119.65,50a2.4,2.4,0,0,0,2.27-1.35l-.9-.27a1.41,1.41,0,0,1-1.35.77,1.44,1.44,0,0,1-1.58-1.34H122a2.8,2.8,0,0,0,0-.4,2.28,2.28,0,0,0-2.41-2.4,2.5,2.5,0,0,0,.08,5m-4.55-4.12v-.75h-1v4.74h1V47.74c0-1.38.62-1.89,1.63-1.73v-.93a1.49,1.49,0,0,0-1.63.81M108.38,45a1.94,1.94,0,0,0-1.63.83v-.71h-1v4.74h1V47.53a1.4,1.4,0,0,1,1.37-1.59c.77,0,1.17.51,1.17,1.34v2.6h1V47.1A1.82,1.82,0,0,0,108.38,45m-6.25,4.09a1.6,1.6,0,1,1,1.56-1.59,1.53,1.53,0,0,1-1.56,1.59m0,.9a2.5,2.5,0,1,0-2.52-2.5,2.45,2.45,0,0,0,2.52,2.5m-5.59,0a2.25,2.25,0,0,0,2.25-1.48l-.92-.26a1.36,1.36,0,0,1-1.33.85,1.61,1.61,0,0,1,0-3.22,1.38,1.38,0,0,1,1.33.88l.92-.26A2.25,2.25,0,0,0,96.54,45a2.5,2.5,0,0,0,0,5m-7.82,0c1.17,0,2-.65,2-1.49s-.58-1.11-1.25-1.3l-1.26-.36c-.32-.11-.51-.24-.51-.48s.33-.57.83-.57a1.29,1.29,0,0,1,1.19.66l.87-.26a2.11,2.11,0,0,0-2-1.19,1.63,1.63,0,0,0-1.81,1.37c0,.68.5,1,1.13,1.22l1.27.38c.43.12.62.27.62.56s-.39.65-1,.65a1.41,1.41,0,0,1-1.37-.9l-.9.26A2.28,2.28,0,0,0,88.72,50m-6.8-2.86a1.43,1.43,0,0,1,1.47-1.29,1.34,1.34,0,0,1,1.44,1.29ZM83.47,50a2.43,2.43,0,0,0,2.28-1.35l-.91-.27a1.41,1.41,0,0,1-1.35.77,1.42,1.42,0,0,1-1.57-1.34h3.85a2.8,2.8,0,0,0,0-.4A2.27,2.27,0,0,0,83.39,45a2.5,2.5,0,0,0,.08,5m-6.17-.89a1.61,1.61,0,0,1,0-3.22,1.61,1.61,0,0,1,0,3.22M78.84,43v2.86a2,2,0,0,0-1.7-.84,2.5,2.5,0,0,0,0,5,2,2,0,0,0,1.7-.84v.71h1V43Zm-7.71,6.12a1.61,1.61,0,0,1,0-3.22,1.61,1.61,0,0,1,0,3.22M71,50a2,2,0,0,0,1.71-.84v.71h1V45.14h-1v.72A2,2,0,0,0,71,45a2.5,2.5,0,0,0,0,5m-6-.89a1.61,1.61,0,0,1,0-3.22,1.61,1.61,0,0,1,0,3.22M66.51,43v2.86A2,2,0,0,0,64.8,45a2.5,2.5,0,0,0,0,5,2,2,0,0,0,1.71-.84v.71h1V43Zm-6.2,6.88h1V45.14h-1Zm.5-5.51a.61.61,0,1,0-.62-.62.61.61,0,0,0,.62.62M57.14,50c1.17,0,2-.65,2-1.49s-.57-1.11-1.24-1.3l-1.27-.36c-.32-.11-.51-.24-.51-.48s.33-.57.83-.57a1.28,1.28,0,0,1,1.19.66l.88-.26A2.12,2.12,0,0,0,57,45a1.63,1.63,0,0,0-1.81,1.37c0,.68.5,1,1.13,1.22l1.28.38c.42.12.61.27.61.56s-.39.65-1,.65a1.41,1.41,0,0,1-1.37-.9l-.89.26A2.27,2.27,0,0,0,57.14,50m-4.32-4.12v-.75h-1v4.74h1V47.74c0-1.38.61-1.89,1.62-1.73v-.93a1.48,1.48,0,0,0-1.62.81m-6,1.26a1.45,1.45,0,0,1,1.47-1.29,1.36,1.36,0,0,1,1.45,1.29ZM48.39,50a2.4,2.4,0,0,0,2.27-1.35l-.9-.27a1.41,1.41,0,0,1-1.35.77,1.44,1.44,0,0,1-1.58-1.34h3.86a2.8,2.8,0,0,0,0-.4A2.28,2.28,0,0,0,48.3,45a2.5,2.5,0,0,0,.09,5m-4-4.87-1.49,3.67-1.48-3.67H40.38l2,4.74h1.1l2-4.74Zm-5.89,4.74h1V45.14h-1Zm.5-5.51a.61.61,0,1,0,0-1.22.61.61,0,1,0,0,1.22M35.27,45a1.94,1.94,0,0,0-1.63.83v-.71h-1v4.74h1V47.53A1.4,1.4,0,0,1,35,45.94c.77,0,1.17.51,1.17,1.34v2.6h1V47.1A1.82,1.82,0,0,0,35.27,45m-5,.12V47.5a1.4,1.4,0,0,1-1.36,1.58c-.78,0-1.17-.51-1.17-1.34v-2.6h-1v2.78A1.83,1.83,0,0,0,28.61,50a1.93,1.93,0,0,0,1.64-.84v.71h1V45.14Zm-9.31.49a2.58,2.58,0,0,0-1.28.3l.14-1.73h3v-.92H18.9l-.29,3.41.79.23a2.15,2.15,0,0,1,1.36-.46,1.28,1.28,0,0,1,1.41,1.32,1.3,1.3,0,0,1-1.4,1.32A1.52,1.52,0,0,1,19.28,48l-.93.25A2.42,2.42,0,0,0,20.81,50a2.23,2.23,0,0,0,2.35-2.22,2.11,2.11,0,0,0-2.22-2.16"/><path class="cls-3" d="M144.84,95.28v-.75h-1v4.74h1V97.13c0-1.38.61-1.89,1.62-1.74v-.92a1.48,1.48,0,0,0-1.62.81m-4.62,3.22a1.6,1.6,0,1,1,1.56-1.6,1.53,1.53,0,0,1-1.56,1.6m0,.89a2.5,2.5,0,1,0-2.52-2.5,2.44,2.44,0,0,0,2.52,2.5M137,98.31a1.39,1.39,0,0,1-.63.15c-.45,0-.67-.27-.67-.73V95.4h1.5v-.87h-1.5V92.94h-1v1.59h-.87v.87h.87v2.33c0,1,.46,1.61,1.48,1.61a2.56,2.56,0,0,0,1-.22Zm-6,1.08a2.23,2.23,0,0,0,2.24-1.48l-.91-.25a1.36,1.36,0,0,1-1.33.85,1.55,1.55,0,0,1-1.53-1.62,1.53,1.53,0,0,1,1.53-1.6,1.37,1.37,0,0,1,1.33.88l.91-.27a2.24,2.24,0,0,0-2.25-1.5,2.5,2.5,0,0,0,0,5m-7.2-2.85a1.44,1.44,0,0,1,1.48-1.29,1.36,1.36,0,0,1,1.44,1.28Zm1.56,2.85A2.4,2.4,0,0,0,127.56,98l-.9-.26a1.42,1.42,0,0,1-1.35.76,1.43,1.43,0,0,1-1.58-1.34h3.86a2.56,2.56,0,0,0,0-.39,2.29,2.29,0,0,0-2.41-2.41,2.5,2.5,0,0,0,.08,5m-4.55-4.11v-.75h-1v4.74h1V97.13c0-1.38.62-1.89,1.63-1.74v-.92a1.49,1.49,0,0,0-1.63.81M114,94.4a1.94,1.94,0,0,0-1.63.83v-.7h-1v4.74h1V96.91a1.4,1.4,0,0,1,1.37-1.58c.77,0,1.17.51,1.17,1.34v2.6h1V96.49c0-1.29-.67-2.09-1.89-2.09m-6.25,4.1a1.6,1.6,0,1,1,1.55-1.6,1.53,1.53,0,0,1-1.55,1.6m0,.89a2.5,2.5,0,1,0-2.52-2.5,2.44,2.44,0,0,0,2.52,2.5m-5.59,0a2.24,2.24,0,0,0,2.25-1.48l-.92-.25a1.36,1.36,0,0,1-1.33.85,1.54,1.54,0,0,1-1.52-1.62,1.52,1.52,0,0,1,1.52-1.6,1.37,1.37,0,0,1,1.33.88l.92-.27a2.26,2.26,0,0,0-2.26-1.5,2.5,2.5,0,0,0,0,5m-7.82,0c1.17,0,2-.64,2-1.49s-.58-1.1-1.25-1.29l-1.26-.37c-.32-.1-.51-.23-.51-.47s.33-.58.83-.58a1.31,1.31,0,0,1,1.19.66l.87-.25a2.1,2.1,0,0,0-2-1.2,1.63,1.63,0,0,0-1.81,1.38c0,.68.5,1,1.13,1.22l1.27.37c.43.13.62.28.62.57s-.39.64-1,.64A1.4,1.4,0,0,1,93,97.69l-.9.26a2.29,2.29,0,0,0,2.24,1.44m-6.8-2.85A1.43,1.43,0,0,1,89,95.25a1.34,1.34,0,0,1,1.44,1.28Zm1.55,2.85A2.43,2.43,0,0,0,91.39,98l-.91-.26a1.59,1.59,0,0,1-2.92-.58h3.85a2.56,2.56,0,0,0,0-.39A2.28,2.28,0,0,0,89,94.4a2.5,2.5,0,0,0,.08,5m-6.17-.88a1.61,1.61,0,0,1,0-3.22,1.61,1.61,0,0,1,0,3.22m1.54-6.12v2.85a2,2,0,0,0-1.7-.84,2.5,2.5,0,0,0,0,5,2,2,0,0,0,1.7-.84v.72h1V92.39Zm-7.71,6.12a1.61,1.61,0,0,1,0-3.22,1.61,1.61,0,0,1,0,3.22m-.16.88a2,2,0,0,0,1.71-.84v.72h1V94.53h-1v.71a2,2,0,0,0-1.71-.84,2.5,2.5,0,0,0,0,5m-6-.88a1.61,1.61,0,0,1,0-3.22,1.61,1.61,0,0,1,0,3.22m1.55-6.12v2.85a2,2,0,0,0-1.71-.84,2.5,2.5,0,0,0,0,5,2,2,0,0,0,1.71-.84v.72h1V92.39ZM66,99.27h1V94.53H66Zm.5-5.52a.61.61,0,1,0-.62-.61.6.6,0,0,0,.62.61m-3.67,5.64c1.17,0,2-.64,2-1.49s-.57-1.1-1.24-1.29l-1.27-.37c-.32-.1-.51-.23-.51-.47s.33-.58.83-.58a1.29,1.29,0,0,1,1.19.66l.88-.25a2.11,2.11,0,0,0-2.06-1.2,1.63,1.63,0,0,0-1.81,1.38c0,.68.5,1,1.13,1.22l1.28.37c.42.13.61.28.61.57s-.39.64-1,.64a1.4,1.4,0,0,1-1.37-.89l-.89.26a2.28,2.28,0,0,0,2.23,1.44m-4.32-4.11v-.75h-1v4.74h1V97.13c0-1.38.61-1.89,1.62-1.74v-.92a1.48,1.48,0,0,0-1.62.81m-6,1.26a1.44,1.44,0,0,1,1.47-1.29,1.36,1.36,0,0,1,1.45,1.28ZM54,99.39A2.4,2.4,0,0,0,56.3,98l-.9-.26a1.42,1.42,0,0,1-1.35.76,1.43,1.43,0,0,1-1.58-1.34h3.86a2.56,2.56,0,0,0,0-.39,2.29,2.29,0,0,0-2.42-2.41,2.5,2.5,0,0,0,.09,5m-4-4.86-1.49,3.66L47.1,94.53H46l2,4.74h1.1l2-4.74Zm-5.89,4.74h1V94.53h-1Zm.5-5.52a.61.61,0,1,0-.62-.61.6.6,0,0,0,.62.61m-3.77.65a1.94,1.94,0,0,0-1.63.83v-.7h-1v4.74h1V96.91a1.4,1.4,0,0,1,1.37-1.58c.77,0,1.17.51,1.17,1.34v2.6h1V96.49c0-1.29-.67-2.09-1.89-2.09m-5,.13v2.35c0,1-.54,1.59-1.36,1.59s-1.17-.51-1.17-1.34v-2.6h-1v2.78a1.82,1.82,0,0,0,1.88,2.08,1.93,1.93,0,0,0,1.64-.84v.72h1V94.53ZM26.58,95a2.58,2.58,0,0,0-1.28.3l.14-1.74h3v-.91H24.54l-.29,3.4.79.24a2.15,2.15,0,0,1,1.36-.46,1.28,1.28,0,0,1,1.41,1.32,1.31,1.31,0,0,1-1.4,1.32,1.51,1.51,0,0,1-1.49-1.14l-.93.26a2.41,2.41,0,0,0,2.46,1.78,2.22,2.22,0,0,0,2.35-2.21A2.11,2.11,0,0,0,26.58,95m-5.64,0a2.58,2.58,0,0,0-1.28.3l.14-1.74h3v-.91H18.9l-.29,3.4.79.24a2.15,2.15,0,0,1,1.36-.46,1.28,1.28,0,0,1,1.41,1.32,1.31,1.31,0,0,1-1.4,1.32,1.51,1.51,0,0,1-1.49-1.14l-.93.26a2.41,2.41,0,0,0,2.46,1.78,2.22,2.22,0,0,0,2.35-2.21A2.11,2.11,0,0,0,20.94,95"/><path class="cls-4" d="M24.86,70.08v6.57a.83.83,0,0,1-.26.63,1,1,0,0,1-.67.24,1,1,0,0,1-.69-.24.78.78,0,0,1-.28-.63V70.08H20.34l2.72-8.66h-.47c-.29,1-.54,1.75-.74,2.37s-.38,1.2-.55,1.77a8.82,8.82,0,0,0-.33,1,.74.74,0,0,1-.78.55l-.21,0a.7.7,0,0,1-.56-.69.43.43,0,0,1,0-.23,4.94,4.94,0,0,0,.2-.65c.1-.37.24-.83.41-1.35s.36-1.12.55-1.75.37-1.23.6-1.81a2.4,2.4,0,0,1,.86-1.21,2.12,2.12,0,0,1,1.37-.53h3.2a2.16,2.16,0,0,1,1.41.53A2.88,2.88,0,0,1,29,60.6c.18.58.37,1.18.55,1.81s.38,1.21.53,1.75.32,1,.42,1.35a4.35,4.35,0,0,0,.21.65l.05.19a.69.69,0,0,1-.58.73l-.19,0a.73.73,0,0,1-.78-.55c0-.12-.14-.47-.3-1s-.36-1.15-.57-1.77-.45-1.4-.75-2.37h-.47l2.71,8.66H27.21v6.57a.75.75,0,0,1-.28.63,1,1,0,0,1-.68.24,1,1,0,0,1-.68-.24.81.81,0,0,1-.24-.63V70.08Z"/><path class="cls-4" d="M25.11,58.32a2,2,0,0,0,1.39-.52,1.86,1.86,0,0,0,0-2.68,1.9,1.9,0,0,0-1.39-.56,2.11,2.11,0,0,0-1.47.56,1.83,1.83,0,0,0,0,2.68,2.12,2.12,0,0,0,1.46.52"/><path class="cls-4" d="M37.2,70.08v6.57a.83.83,0,0,1-.26.63.93.93,0,0,1-.67.24,1,1,0,0,1-.69-.24.78.78,0,0,1-.28-.63V70.08H32.68l2.72-8.66h-.46c-.3,1-.55,1.75-.75,2.37s-.37,1.2-.54,1.77a7.79,7.79,0,0,0-.34,1,.74.74,0,0,1-.78.55l-.21,0a.7.7,0,0,1-.56-.69.43.43,0,0,1,0-.23,4.94,4.94,0,0,0,.2-.65c.1-.37.24-.83.41-1.35s.36-1.12.55-1.75.38-1.23.6-1.81a2.4,2.4,0,0,1,.86-1.21,2.14,2.14,0,0,1,1.37-.53H39a2.16,2.16,0,0,1,1.41.53,3,3,0,0,1,.89,1.21c.17.58.36,1.18.54,1.81s.38,1.21.54,1.75.31,1,.41,1.35a4.35,4.35,0,0,0,.21.65l0,.19a.69.69,0,0,1-.58.73l-.19,0a.73.73,0,0,1-.78-.55c0-.12-.14-.47-.3-1s-.36-1.15-.57-1.77-.45-1.4-.75-2.37h-.47l2.72,8.66H39.55v6.57a.75.75,0,0,1-.28.63,1,1,0,0,1-.68.24.92.92,0,0,1-.67-.24.82.82,0,0,1-.25-.63V70.08Z"/><path class="cls-4" d="M37.45,58.32a2,2,0,0,0,1.39-.52,1.86,1.86,0,0,0,0-2.68,1.9,1.9,0,0,0-1.39-.56,2.11,2.11,0,0,0-1.47.56,1.83,1.83,0,0,0,0,2.68,2.12,2.12,0,0,0,1.46.52"/><path class="cls-4" d="M49.54,70.08v6.57a.83.83,0,0,1-.26.63.93.93,0,0,1-.67.24,1,1,0,0,1-.69-.24.78.78,0,0,1-.28-.63V70.08H45l2.72-8.66h-.46c-.3,1-.55,1.75-.75,2.37S46.16,65,46,65.56a7.79,7.79,0,0,0-.34,1,.74.74,0,0,1-.78.55l-.21,0a.7.7,0,0,1-.56-.69.43.43,0,0,1,0-.23,4.94,4.94,0,0,0,.2-.65c.1-.37.24-.83.41-1.35s.36-1.12.55-1.75.38-1.23.6-1.81a2.4,2.4,0,0,1,.86-1.21,2.14,2.14,0,0,1,1.37-.53h3.2a2.16,2.16,0,0,1,1.41.53,3,3,0,0,1,.89,1.21c.17.58.36,1.18.54,1.81s.38,1.21.54,1.75.31,1,.41,1.35a4.35,4.35,0,0,0,.21.65l0,.19a.69.69,0,0,1-.58.73l-.19,0a.73.73,0,0,1-.78-.55c0-.12-.14-.47-.3-1s-.36-1.15-.57-1.77-.45-1.4-.75-2.37h-.47l2.72,8.66H51.89v6.57a.75.75,0,0,1-.28.63,1,1,0,0,1-.68.24.92.92,0,0,1-.67-.24.82.82,0,0,1-.25-.63V70.08Z"/><path class="cls-4" d="M49.79,58.32a2,2,0,0,0,1.39-.52,1.86,1.86,0,0,0,0-2.68,1.9,1.9,0,0,0-1.39-.56,2.11,2.11,0,0,0-1.47.56,1.83,1.83,0,0,0,0,2.68,2.12,2.12,0,0,0,1.46.52"/><path class="cls-4" d="M61.88,70v6.57a.81.81,0,0,1-.26.63.93.93,0,0,1-.67.24,1,1,0,0,1-.69-.24.77.77,0,0,1-.28-.63V70H57.36l2.72-8.66h-.46c-.3,1-.55,1.75-.75,2.37s-.37,1.2-.54,1.77a7.7,7.7,0,0,0-.34,1,.74.74,0,0,1-.78.54L57,67a.7.7,0,0,1-.56-.69.46.46,0,0,1,.05-.23,4.44,4.44,0,0,0,.2-.65c.1-.37.24-.82.41-1.35s.36-1.12.55-1.75.38-1.23.6-1.81a2.34,2.34,0,0,1,.86-1.2,2.08,2.08,0,0,1,1.37-.53h3.2a2.11,2.11,0,0,1,1.41.53,2.9,2.9,0,0,1,.89,1.2c.17.58.36,1.19.54,1.81s.38,1.21.54,1.75.31,1,.41,1.35a3.94,3.94,0,0,0,.21.65l0,.19a.69.69,0,0,1-.58.73L67,67a.73.73,0,0,1-.78-.54c0-.12-.14-.48-.3-1s-.36-1.15-.57-1.77-.45-1.4-.75-2.37h-.47L66.81,70H64.23v6.57a.74.74,0,0,1-.28.63,1,1,0,0,1-.68.24.92.92,0,0,1-.67-.24.81.81,0,0,1-.25-.63V70Z"/><path class="cls-4" d="M62.14,58.19a1.94,1.94,0,0,0,1.38-.52,1.86,1.86,0,0,0,0-2.68,1.89,1.89,0,0,0-1.38-.56,2.07,2.07,0,0,0-1.47.56,1.82,1.82,0,0,0,0,2.68,2.13,2.13,0,0,0,1.47.52"/><path class="cls-4" d="M74.22,70v6.57a.81.81,0,0,1-.26.63.93.93,0,0,1-.67.24,1,1,0,0,1-.69-.24.77.77,0,0,1-.28-.63V70H69.7l2.72-8.66H72c-.3,1-.55,1.75-.75,2.37s-.37,1.2-.54,1.77a7.7,7.7,0,0,0-.34,1,.74.74,0,0,1-.78.54l-.21,0a.7.7,0,0,1-.56-.69.46.46,0,0,1,0-.23,4.44,4.44,0,0,0,.2-.65q.15-.55.42-1.35c.16-.54.35-1.12.54-1.75s.38-1.23.6-1.81a2.34,2.34,0,0,1,.86-1.2,2.09,2.09,0,0,1,1.38-.53H76a2.1,2.1,0,0,1,1.4.53,2.9,2.9,0,0,1,.89,1.2c.18.58.36,1.19.54,1.81s.38,1.21.54,1.75.31,1,.41,1.35A3.94,3.94,0,0,0,80,66l0,.19a.69.69,0,0,1-.57.73l-.2,0a.73.73,0,0,1-.78-.54c0-.12-.14-.48-.3-1s-.36-1.15-.57-1.77-.45-1.4-.75-2.37h-.47L79.15,70H76.57v6.57a.71.71,0,0,1-.28.63,1,1,0,0,1-.68.24,1,1,0,0,1-.67-.24.81.81,0,0,1-.25-.63V70Z"/><path class="cls-4" d="M74.48,58.19a1.94,1.94,0,0,0,1.38-.52,1.86,1.86,0,0,0,0-2.68,1.89,1.89,0,0,0-1.38-.56A2.07,2.07,0,0,0,73,55a1.82,1.82,0,0,0,0,2.68,2.13,2.13,0,0,0,1.47.52"/><path class="cls-5" d="M23.08,108a2.4,2.4,0,0,0-1.72.72,2.44,2.44,0,0,0-.73,1.72v6a.78.78,0,0,0,.25.59.8.8,0,0,0,.58.24.83.83,0,0,0,.62-.24.87.87,0,0,0,.21-.59v-5.32h.43v14.74a1,1,0,0,0,.36.75,1,1,0,0,0,.78.32,1,1,0,0,0,.79-.32,1,1,0,0,0,.33-.75v-8.55h.48v8.55a1,1,0,0,0,.32.75,1,1,0,0,0,.82.32,1,1,0,0,0,.75-.32,1,1,0,0,0,.31-.75V111.07h.45v5.32a.83.83,0,0,0,.22.59.86.86,0,0,0,.6.24.78.78,0,0,0,.61-.24.88.88,0,0,0,.22-.59v-6a2.38,2.38,0,0,0-.71-1.72,2.35,2.35,0,0,0-1.74-.73Z"/><path class="cls-5" d="M25.21,107.5a1.87,1.87,0,0,0,1.35-.53,1.82,1.82,0,0,0,.55-1.36,1.85,1.85,0,0,0-.55-1.34,1.83,1.83,0,0,0-1.35-.57,1.74,1.74,0,0,0-1.35.57,1.88,1.88,0,0,0,1.35,3.23"/><path class="cls-5" d="M35.33,108a2.48,2.48,0,0,0-2.45,2.44v6a.78.78,0,0,0,.25.59.8.8,0,0,0,.58.24.83.83,0,0,0,.62-.24.87.87,0,0,0,.21-.59v-5.32H35v14.74a1,1,0,0,0,.36.75,1,1,0,0,0,.78.32,1,1,0,0,0,.79-.32,1,1,0,0,0,.33-.75v-8.55h.48v8.55a1,1,0,0,0,.32.75,1,1,0,0,0,.82.32,1,1,0,0,0,.75-.32,1,1,0,0,0,.31-.75V111.07h.45v5.32a.83.83,0,0,0,.22.59.88.88,0,0,0,.6.24.8.8,0,0,0,.62-.24.93.93,0,0,0,.22-.59v-6a2.39,2.39,0,0,0-.72-1.72,2.33,2.33,0,0,0-1.73-.73Z"/><path class="cls-5" d="M37.46,107.5a1.87,1.87,0,0,0,1.35-.53,1.92,1.92,0,0,0-1.35-3.27,1.77,1.77,0,0,0-1.35.57,1.88,1.88,0,0,0,1.35,3.23"/><path class="cls-5" d="M47.59,108a2.38,2.38,0,0,0-1.72.72,2.41,2.41,0,0,0-.74,1.72v6a.78.78,0,0,0,.25.59.8.8,0,0,0,.58.24.83.83,0,0,0,.62-.24.87.87,0,0,0,.21-.59v-5.32h.43v14.74a1,1,0,0,0,.36.75,1,1,0,0,0,.78.32,1,1,0,0,0,.79-.32,1,1,0,0,0,.33-.75v-8.55H50v8.55a1,1,0,0,0,.32.75,1,1,0,0,0,.82.32,1,1,0,0,0,.76-.32,1,1,0,0,0,.3-.75V111.07h.45v5.32a.83.83,0,0,0,.22.59.89.89,0,0,0,.61.24.79.79,0,0,0,.61-.24.93.93,0,0,0,.22-.59v-6a2.39,2.39,0,0,0-.72-1.72,2.33,2.33,0,0,0-1.73-.73Z"/><path class="cls-5" d="M49.71,107.5a1.87,1.87,0,0,0,1.35-.53,1.92,1.92,0,0,0-1.35-3.27,1.77,1.77,0,0,0-1.35.57,1.88,1.88,0,0,0,1.35,3.23"/><path class="cls-5" d="M59.84,108a2.48,2.48,0,0,0-2.45,2.44v6a.77.77,0,0,0,.24.59.87.87,0,0,0,1.2,0,.88.88,0,0,0,.22-.59v-5.32h.43v14.74a1,1,0,0,0,.36.75,1.12,1.12,0,0,0,1.57,0,1,1,0,0,0,.32-.75v-8.55h.48v8.55a1,1,0,0,0,.32.75,1.06,1.06,0,0,0,.82.32,1,1,0,0,0,.76-.32,1,1,0,0,0,.3-.75V111.07h.45v5.32a.83.83,0,0,0,.22.59.91.91,0,0,0,.61.24.79.79,0,0,0,.61-.24.93.93,0,0,0,.22-.59v-6a2.39,2.39,0,0,0-.72-1.72,2.33,2.33,0,0,0-1.73-.73Z"/><path class="cls-5" d="M62,107.5a1.87,1.87,0,0,0,1.35-.53A1.92,1.92,0,0,0,62,103.7a1.77,1.77,0,0,0-1.35.57A1.88,1.88,0,0,0,62,107.5"/><path class="cls-5" d="M72.09,108a2.48,2.48,0,0,0-2.45,2.44v6a.77.77,0,0,0,.24.59.81.81,0,0,0,.59.24.79.79,0,0,0,.61-.24.88.88,0,0,0,.22-.59v-5.32h.43v14.74a1,1,0,0,0,.36.75,1,1,0,0,0,.78.32,1,1,0,0,0,.79-.32,1,1,0,0,0,.32-.75v-8.55h.48v8.55a1.11,1.11,0,0,0,1.14,1.07,1,1,0,0,0,.76-.32,1,1,0,0,0,.3-.75V111.07h.45v5.32a.83.83,0,0,0,.22.59.91.91,0,0,0,.61.24.79.79,0,0,0,.61-.24.93.93,0,0,0,.22-.59v-6a2.35,2.35,0,0,0-.72-1.72,2.33,2.33,0,0,0-1.73-.73Z"/><path class="cls-5" d="M74.22,107.5a1.9,1.9,0,0,0,0-3.8,1.74,1.74,0,0,0-1.35.57,1.93,1.93,0,0,0,0,2.7,1.78,1.78,0,0,0,1.35.53"/><path class="cls-5" d="M84.34,108a2.38,2.38,0,0,0-1.72.72,2.44,2.44,0,0,0-.73,1.72v6a.75.75,0,0,0,.25.59.78.78,0,0,0,.58.24.83.83,0,0,0,.62-.24.87.87,0,0,0,.21-.59v-5.32H84v14.74a1,1,0,0,0,.36.75,1,1,0,0,0,.78.32,1,1,0,0,0,.79-.32,1,1,0,0,0,.32-.75v-8.55h.49v8.55a1,1,0,0,0,.32.75,1,1,0,0,0,.81.32,1,1,0,0,0,.76-.32,1,1,0,0,0,.31-.75V111.07h.45v5.32a.83.83,0,0,0,.22.59.86.86,0,0,0,.6.24.79.79,0,0,0,.61-.24.88.88,0,0,0,.22-.59v-6a2.35,2.35,0,0,0-.72-1.72,2.31,2.31,0,0,0-1.73-.73Z"/><path class="cls-5" d="M86.47,107.5a1.85,1.85,0,0,0,1.9-1.89,1.93,1.93,0,0,0-1.9-1.91,1.74,1.74,0,0,0-1.35.57,1.93,1.93,0,0,0,0,2.7,1.78,1.78,0,0,0,1.35.53"/><path class="cls-5" d="M96.59,108a2.38,2.38,0,0,0-1.72.72,2.44,2.44,0,0,0-.73,1.72v6a.78.78,0,0,0,.25.59.8.8,0,0,0,.58.24.83.83,0,0,0,.62-.24.87.87,0,0,0,.21-.59v-5.32h.43v14.74a1,1,0,0,0,.36.75,1,1,0,0,0,.78.32,1,1,0,0,0,.79-.32,1,1,0,0,0,.33-.75v-8.55H99v8.55a1,1,0,0,0,.32.75,1,1,0,0,0,.82.32,1,1,0,0,0,.75-.32,1,1,0,0,0,.31-.75V111.07h.45v5.32a.83.83,0,0,0,.22.59.86.86,0,0,0,.6.24.78.78,0,0,0,.61-.24.88.88,0,0,0,.22-.59v-6a2.35,2.35,0,0,0-.72-1.72,2.31,2.31,0,0,0-1.73-.73Z"/><path class="cls-5" d="M98.72,107.5a1.87,1.87,0,0,0,1.35-.53,1.82,1.82,0,0,0,.55-1.36,1.85,1.85,0,0,0-.55-1.34,1.83,1.83,0,0,0-1.35-.57,1.74,1.74,0,0,0-1.35.57,1.88,1.88,0,0,0,1.35,3.23"/><path class="cls-5" d="M108.84,108a2.48,2.48,0,0,0-2.45,2.44v6a.78.78,0,0,0,.25.59.8.8,0,0,0,.58.24.83.83,0,0,0,.62-.24.87.87,0,0,0,.21-.59v-5.32h.43v14.74a1,1,0,0,0,.36.75,1,1,0,0,0,.78.32,1,1,0,0,0,.79-.32,1,1,0,0,0,.33-.75v-8.55h.48v8.55a1,1,0,0,0,.32.75,1,1,0,0,0,.82.32,1,1,0,0,0,.75-.32,1,1,0,0,0,.31-.75V111.07h.45v5.32a.83.83,0,0,0,.22.59.88.88,0,0,0,.6.24.76.76,0,0,0,.61-.24.88.88,0,0,0,.22-.59v-6a2.38,2.38,0,0,0-.71-1.72,2.34,2.34,0,0,0-1.73-.73Z"/><path class="cls-5" d="M111,107.5a1.87,1.87,0,0,0,1.35-.53A1.92,1.92,0,0,0,111,103.7a1.77,1.77,0,0,0-1.35.57A1.88,1.88,0,0,0,111,107.5"/><path class="cls-5" d="M121.1,108a2.38,2.38,0,0,0-1.72.72,2.41,2.41,0,0,0-.74,1.72v6a.78.78,0,0,0,.25.59.8.8,0,0,0,.58.24.83.83,0,0,0,.62-.24.87.87,0,0,0,.21-.59v-5.32h.43v14.74a1,1,0,0,0,.36.75,1,1,0,0,0,.78.32,1,1,0,0,0,.79-.32,1,1,0,0,0,.33-.75v-8.55h.48v8.55a1,1,0,0,0,.32.75,1,1,0,0,0,.82.32,1,1,0,0,0,.76-.32,1,1,0,0,0,.3-.75V111.07h.45v5.32a.83.83,0,0,0,.22.59.89.89,0,0,0,.61.24.79.79,0,0,0,.61-.24.93.93,0,0,0,.22-.59v-6a2.39,2.39,0,0,0-.72-1.72,2.33,2.33,0,0,0-1.73-.73Z"/><path class="cls-5" d="M123.22,107.5a1.87,1.87,0,0,0,1.35-.53,1.92,1.92,0,0,0-1.35-3.27,1.77,1.77,0,0,0-1.35.57,1.88,1.88,0,0,0,1.35,3.23"/><path class="cls-5" d="M133.35,108a2.38,2.38,0,0,0-1.72.72,2.41,2.41,0,0,0-.74,1.72v6a.78.78,0,0,0,.25.59.81.81,0,0,0,.59.24.82.82,0,0,0,.61-.24.87.87,0,0,0,.21-.59v-5.32H133v14.74a1,1,0,0,0,.36.75,1,1,0,0,0,.78.32,1,1,0,0,0,.8-.32,1,1,0,0,0,.32-.75v-8.55h.48v8.55a1,1,0,0,0,.32.75,1,1,0,0,0,.82.32,1,1,0,0,0,.76-.32,1,1,0,0,0,.3-.75V111.07h.45v5.32a.83.83,0,0,0,.22.59.89.89,0,0,0,.61.24.79.79,0,0,0,.61-.24.93.93,0,0,0,.22-.59v-6a2.39,2.39,0,0,0-.72-1.72,2.33,2.33,0,0,0-1.73-.73Z"/><path class="cls-5" d="M135.47,107.5a1.87,1.87,0,0,0,1.35-.53,1.92,1.92,0,0,0-1.35-3.27,1.77,1.77,0,0,0-1.35.57,1.88,1.88,0,0,0,1.35,3.23"/><path class="cls-5" d="M145.6,108a2.48,2.48,0,0,0-2.45,2.44v6a.77.77,0,0,0,.24.59.81.81,0,0,0,.59.24.79.79,0,0,0,.61-.24.88.88,0,0,0,.22-.59v-5.32h.43v14.74a1,1,0,0,0,.36.75,1,1,0,0,0,.78.32,1,1,0,0,0,.79-.32,1,1,0,0,0,.32-.75v-8.55H148v8.55a1.11,1.11,0,0,0,1.14,1.07,1,1,0,0,0,.76-.32,1,1,0,0,0,.3-.75V111.07h.45v5.32a.83.83,0,0,0,.22.59.91.91,0,0,0,.61.24.79.79,0,0,0,.61-.24.93.93,0,0,0,.22-.59v-6a2.35,2.35,0,0,0-.72-1.72,2.33,2.33,0,0,0-1.73-.73Z"/><path class="cls-5" d="M147.73,107.5a1.86,1.86,0,0,0,1.9-1.89,1.93,1.93,0,0,0-1.9-1.91,1.77,1.77,0,0,0-1.36.57,2,2,0,0,0,0,2.7,1.82,1.82,0,0,0,1.36.53"/><path class="cls-5" d="M157.85,108a2.38,2.38,0,0,0-1.72.72,2.44,2.44,0,0,0-.73,1.72v6a.75.75,0,0,0,.25.59.78.78,0,0,0,.58.24.83.83,0,0,0,.62-.24.92.92,0,0,0,.21-.59v-5.32h.43v14.74a1,1,0,0,0,.36.75,1,1,0,0,0,.78.32,1,1,0,0,0,.79-.32,1,1,0,0,0,.32-.75v-8.55h.49v8.55a1,1,0,0,0,.32.75,1,1,0,0,0,.81.32,1.06,1.06,0,0,0,1.06-1.07V111.07h.45v5.32a.88.88,0,0,0,.22.59.91.91,0,0,0,.61.24.79.79,0,0,0,.61-.24.88.88,0,0,0,.22-.59v-6a2.35,2.35,0,0,0-.72-1.72,2.31,2.31,0,0,0-1.73-.73Z"/><path class="cls-5" d="M160,107.5a1.85,1.85,0,0,0,1.9-1.89,1.93,1.93,0,0,0-1.9-1.91,1.74,1.74,0,0,0-1.35.57,1.93,1.93,0,0,0,0,2.7,1.78,1.78,0,0,0,1.35.53"/><path class="cls-5" d="M170.1,108a2.38,2.38,0,0,0-1.72.72,2.44,2.44,0,0,0-.73,1.72v6a.78.78,0,0,0,.25.59.8.8,0,0,0,.58.24.83.83,0,0,0,.62-.24.87.87,0,0,0,.21-.59v-5.32h.43v14.74a1,1,0,0,0,.36.75,1,1,0,0,0,.78.32,1,1,0,0,0,.79-.32,1,1,0,0,0,.33-.75v-8.55h.48v8.55a1,1,0,0,0,.32.75,1,1,0,0,0,.82.32,1,1,0,0,0,.75-.32,1,1,0,0,0,.31-.75V111.07h.45v5.32a.83.83,0,0,0,.22.59.86.86,0,0,0,.6.24.78.78,0,0,0,.61-.24.88.88,0,0,0,.22-.59v-6a2.35,2.35,0,0,0-.72-1.72,2.31,2.31,0,0,0-1.73-.73Z"/><path class="cls-5" d="M172.23,107.5a1.87,1.87,0,0,0,1.35-.53,1.93,1.93,0,0,0-1.35-3.27,1.74,1.74,0,0,0-1.35.57,1.88,1.88,0,0,0,1.35,3.23"/><path class="cls-5" d="M182.35,108a2.48,2.48,0,0,0-2.45,2.44v6a.78.78,0,0,0,.25.59.8.8,0,0,0,.58.24.83.83,0,0,0,.62-.24.87.87,0,0,0,.21-.59v-5.32H182v14.74a1,1,0,0,0,.36.75,1,1,0,0,0,.78.32,1,1,0,0,0,.79-.32,1,1,0,0,0,.33-.75v-8.55h.48v8.55a1,1,0,0,0,.32.75,1,1,0,0,0,.82.32,1,1,0,0,0,.75-.32,1,1,0,0,0,.31-.75V111.07h.45v5.32a.83.83,0,0,0,.22.59.88.88,0,0,0,.6.24.76.76,0,0,0,.61-.24.88.88,0,0,0,.22-.59v-6a2.38,2.38,0,0,0-.71-1.72,2.34,2.34,0,0,0-1.73-.73Z"/><path class="cls-5" d="M184.48,107.5a1.87,1.87,0,0,0,1.35-.53,1.92,1.92,0,0,0-1.35-3.27,1.75,1.75,0,0,0-1.35.57,1.88,1.88,0,0,0,1.35,3.23"/><path class="cls-5" d="M194.6,108a2.48,2.48,0,0,0-2.45,2.44v6a.78.78,0,0,0,.25.59.8.8,0,0,0,.58.24.83.83,0,0,0,.62-.24.87.87,0,0,0,.21-.59v-5.32h.43v14.74a1,1,0,0,0,.36.75,1,1,0,0,0,.78.32,1,1,0,0,0,.79-.32,1,1,0,0,0,.33-.75v-8.55H197v8.55a1,1,0,0,0,.32.75,1,1,0,0,0,.82.32,1,1,0,0,0,.75-.32,1,1,0,0,0,.31-.75V111.07h.45v5.32a.83.83,0,0,0,.22.59.89.89,0,0,0,.61.24.79.79,0,0,0,.61-.24.93.93,0,0,0,.22-.59v-6a2.39,2.39,0,0,0-.72-1.72,2.33,2.33,0,0,0-1.73-.73Z"/><path class="cls-5" d="M196.73,107.5a1.87,1.87,0,0,0,1.35-.53,1.92,1.92,0,0,0-1.35-3.27,1.77,1.77,0,0,0-1.35.57,1.88,1.88,0,0,0,1.35,3.23"/><path class="cls-5" d="M206.86,108a2.38,2.38,0,0,0-1.72.72,2.41,2.41,0,0,0-.74,1.72v6a.78.78,0,0,0,.25.59.81.81,0,0,0,.59.24.82.82,0,0,0,.61-.24.87.87,0,0,0,.21-.59v-5.32h.43v14.74a1,1,0,0,0,.36.75,1,1,0,0,0,.78.32,1,1,0,0,0,.8-.32,1,1,0,0,0,.32-.75v-8.55h.48v8.55a1,1,0,0,0,.32.75,1,1,0,0,0,.82.32,1,1,0,0,0,.76-.32,1,1,0,0,0,.3-.75V111.07h.45v5.32a.83.83,0,0,0,.22.59.89.89,0,0,0,.61.24.79.79,0,0,0,.61-.24.93.93,0,0,0,.22-.59v-6a2.39,2.39,0,0,0-.72-1.72,2.33,2.33,0,0,0-1.73-.73Z"/><path class="cls-5" d="M209,107.5a1.87,1.87,0,0,0,1.35-.53A1.92,1.92,0,0,0,209,103.7a1.77,1.77,0,0,0-1.35.57A1.88,1.88,0,0,0,209,107.5"/><path class="cls-5" d="M219.11,108a2.48,2.48,0,0,0-2.45,2.44v6a.77.77,0,0,0,.24.59.87.87,0,0,0,1.2,0,.88.88,0,0,0,.22-.59v-5.32h.43v14.74a1,1,0,0,0,.36.75,1.12,1.12,0,0,0,1.57,0,1,1,0,0,0,.32-.75v-8.55h.48v8.55a1,1,0,0,0,.32.75,1.06,1.06,0,0,0,.82.32,1,1,0,0,0,.76-.32,1,1,0,0,0,.3-.75V111.07h.45v5.32a.83.83,0,0,0,.22.59.91.91,0,0,0,.61.24.79.79,0,0,0,.61-.24.93.93,0,0,0,.22-.59v-6a2.39,2.39,0,0,0-.72-1.72,2.33,2.33,0,0,0-1.73-.73Z"/><path class="cls-5" d="M221.24,107.5a1.86,1.86,0,0,0,1.9-1.89,1.93,1.93,0,0,0-1.9-1.91,1.77,1.77,0,0,0-1.36.57,2,2,0,0,0,0,2.7,1.82,1.82,0,0,0,1.36.53"/><path class="cls-5" d="M231.36,108a2.38,2.38,0,0,0-1.72.72,2.44,2.44,0,0,0-.73,1.72v6a.75.75,0,0,0,.25.59.78.78,0,0,0,.58.24.83.83,0,0,0,.62-.24.92.92,0,0,0,.21-.59v-5.32H231v14.74a1,1,0,0,0,.36.75,1,1,0,0,0,.78.32,1,1,0,0,0,.79-.32,1,1,0,0,0,.32-.75v-8.55h.49v8.55a1,1,0,0,0,.32.75,1,1,0,0,0,.81.32,1.06,1.06,0,0,0,1.06-1.07V111.07h.45v5.32a.88.88,0,0,0,.22.59.91.91,0,0,0,.61.24.79.79,0,0,0,.61-.24.88.88,0,0,0,.22-.59v-6a2.35,2.35,0,0,0-.72-1.72,2.31,2.31,0,0,0-1.73-.73Z"/><path class="cls-5" d="M233.49,107.5a1.9,1.9,0,0,0,0-3.8,1.74,1.74,0,0,0-1.35.57,1.93,1.93,0,0,0,0,2.7,1.78,1.78,0,0,0,1.35.53"/><path class="cls-5" d="M243.61,108a2.38,2.38,0,0,0-1.72.72,2.44,2.44,0,0,0-.73,1.72v6a.78.78,0,0,0,.25.59.8.8,0,0,0,.58.24.83.83,0,0,0,.62-.24.87.87,0,0,0,.21-.59v-5.32h.43v14.74a1,1,0,0,0,.36.75,1,1,0,0,0,.78.32,1,1,0,0,0,.79-.32,1,1,0,0,0,.33-.75v-8.55H246v8.55a1,1,0,0,0,.32.75,1,1,0,0,0,.82.32,1,1,0,0,0,.75-.32,1,1,0,0,0,.31-.75V111.07h.45v5.32a.83.83,0,0,0,.22.59.86.86,0,0,0,.6.24.78.78,0,0,0,.61-.24.88.88,0,0,0,.22-.59v-6a2.35,2.35,0,0,0-.72-1.72,2.31,2.31,0,0,0-1.73-.73Z"/><path class="cls-5" d="M245.74,107.5a1.87,1.87,0,0,0,1.35-.53,1.93,1.93,0,0,0-1.35-3.27,1.74,1.74,0,0,0-1.35.57,1.88,1.88,0,0,0,1.35,3.23"/><path class="cls-5" d="M255.86,108a2.4,2.4,0,0,0-1.72.72,2.44,2.44,0,0,0-.73,1.72v6a.78.78,0,0,0,.25.59.8.8,0,0,0,.58.24.83.83,0,0,0,.62-.24.87.87,0,0,0,.21-.59v-5.32h.43v14.74a1,1,0,0,0,.36.75,1,1,0,0,0,.78.32,1,1,0,0,0,.79-.32,1,1,0,0,0,.33-.75v-8.55h.48v8.55a1,1,0,0,0,.32.75,1,1,0,0,0,.82.32,1,1,0,0,0,.75-.32,1,1,0,0,0,.31-.75V111.07h.45v5.32a.83.83,0,0,0,.22.59.86.86,0,0,0,.6.24.78.78,0,0,0,.61-.24.88.88,0,0,0,.22-.59v-6a2.38,2.38,0,0,0-.71-1.72,2.35,2.35,0,0,0-1.74-.73Z"/><path class="cls-5" d="M258,107.5a1.87,1.87,0,0,0,1.35-.53A1.92,1.92,0,0,0,258,103.7a1.75,1.75,0,0,0-1.35.57A1.88,1.88,0,0,0,258,107.5"/><path class="cls-5" d="M23.08,134a2.4,2.4,0,0,0-1.72.72,2.44,2.44,0,0,0-.73,1.72v6a.82.82,0,0,0,.83.82.82.82,0,0,0,.62-.23.89.89,0,0,0,.21-.59V137h.43v14.75a1,1,0,0,0,.36.75,1.06,1.06,0,0,0,.78.32,1,1,0,0,0,.79-.32,1,1,0,0,0,.33-.75v-8.55h.48v8.55a1,1,0,0,0,.32.75,1.07,1.07,0,0,0,.82.32,1,1,0,0,0,.75-.32,1,1,0,0,0,.31-.75V137h.45v5.33a.77.77,0,0,0,.82.82.77.77,0,0,0,.61-.23.9.9,0,0,0,.22-.59v-6a2.41,2.41,0,0,0-.71-1.72,2.38,2.38,0,0,0-1.74-.72Z"/><path class="cls-5" d="M25.21,133.46a1.87,1.87,0,0,0,1.35-.53,1.92,1.92,0,0,0-1.35-3.27,1.74,1.74,0,0,0-1.35.57,1.8,1.8,0,0,0-.54,1.33,1.83,1.83,0,0,0,1.89,1.9"/><path class="cls-5" d="M35.33,134a2.48,2.48,0,0,0-2.45,2.44v6a.82.82,0,0,0,.83.82.82.82,0,0,0,.62-.23.89.89,0,0,0,.21-.59V137H35v14.75a1,1,0,0,0,.36.75,1.06,1.06,0,0,0,.78.32,1,1,0,0,0,.79-.32,1,1,0,0,0,.33-.75v-8.55h.48v8.55a1,1,0,0,0,.32.75,1.08,1.08,0,0,0,.82.32,1,1,0,0,0,.75-.32,1,1,0,0,0,.31-.75V137h.45v5.33a.85.85,0,0,0,.22.59.87.87,0,0,0,.6.23.79.79,0,0,0,.62-.23,1,1,0,0,0,.22-.59v-6a2.42,2.42,0,0,0-.72-1.72,2.35,2.35,0,0,0-1.73-.72Z"/><path class="cls-5" d="M37.46,133.46a1.86,1.86,0,0,0,1.91-1.9,1.93,1.93,0,0,0-1.91-1.9,1.77,1.77,0,0,0-1.35.57,1.8,1.8,0,0,0-.54,1.33,1.83,1.83,0,0,0,1.89,1.9"/><path class="cls-5" d="M47.59,134a2.38,2.38,0,0,0-1.72.72,2.41,2.41,0,0,0-.74,1.72v6a.82.82,0,0,0,.83.82.82.82,0,0,0,.62-.23.89.89,0,0,0,.21-.59V137h.43v14.75a1,1,0,0,0,.36.75,1.07,1.07,0,0,0,.78.32,1,1,0,0,0,.79-.32,1,1,0,0,0,.33-.75v-8.55H50v8.55a1,1,0,0,0,.32.75,1.08,1.08,0,0,0,.82.32,1.06,1.06,0,0,0,.76-.32,1,1,0,0,0,.3-.75V137h.45v5.33a.85.85,0,0,0,.22.59.88.88,0,0,0,.61.23.78.78,0,0,0,.61-.23,1,1,0,0,0,.22-.59v-6a2.42,2.42,0,0,0-.72-1.72,2.35,2.35,0,0,0-1.73-.72Z"/><path class="cls-5" d="M49.71,133.46a1.86,1.86,0,0,0,1.91-1.9,1.93,1.93,0,0,0-1.91-1.9,1.77,1.77,0,0,0-1.35.57,1.8,1.8,0,0,0-.54,1.33,1.83,1.83,0,0,0,1.89,1.9"/><path class="cls-5" d="M59.84,134a2.48,2.48,0,0,0-2.45,2.44v6a.78.78,0,0,0,.24.59.9.9,0,0,0,1.2,0,.9.9,0,0,0,.22-.59V137h.43v14.75a1,1,0,0,0,.36.75,1.12,1.12,0,0,0,1.57,0,1,1,0,0,0,.32-.75v-8.55h.48v8.55a1,1,0,0,0,.32.75,1.1,1.1,0,0,0,.82.32,1,1,0,0,0,.76-.32,1,1,0,0,0,.3-.75V137h.45v5.33a.85.85,0,0,0,.22.59.9.9,0,0,0,.61.23.78.78,0,0,0,.61-.23,1,1,0,0,0,.22-.59v-6a2.42,2.42,0,0,0-.72-1.72,2.35,2.35,0,0,0-1.73-.72Z"/><path class="cls-5" d="M62,133.46a1.86,1.86,0,0,0,1.91-1.9,1.93,1.93,0,0,0-1.91-1.9,1.77,1.77,0,0,0-1.35.57,1.8,1.8,0,0,0-.54,1.33,1.83,1.83,0,0,0,1.89,1.9"/><path class="cls-5" d="M72.09,134a2.48,2.48,0,0,0-2.45,2.44v6a.78.78,0,0,0,.24.59.8.8,0,0,0,.59.23.78.78,0,0,0,.61-.23.9.9,0,0,0,.22-.59V137h.43v14.75a1,1,0,0,0,.36.75,1.06,1.06,0,0,0,.78.32,1,1,0,0,0,.79-.32,1,1,0,0,0,.32-.75v-8.55h.48v8.55a1,1,0,0,0,.33.75,1.06,1.06,0,0,0,.81.32,1,1,0,0,0,.76-.32,1,1,0,0,0,.3-.75V137h.45v5.33a.85.85,0,0,0,.22.59.9.9,0,0,0,.61.23.78.78,0,0,0,.61-.23,1,1,0,0,0,.22-.59v-6a2.38,2.38,0,0,0-.72-1.72,2.35,2.35,0,0,0-1.73-.72Z"/><path class="cls-5" d="M74.22,133.46a1.83,1.83,0,0,0,1.34-.53,1.85,1.85,0,0,0,.56-1.37,1.93,1.93,0,0,0-1.9-1.9,1.74,1.74,0,0,0-1.35.57,1.8,1.8,0,0,0-.55,1.33,1.83,1.83,0,0,0,.55,1.37,1.78,1.78,0,0,0,1.35.53"/><path class="cls-5" d="M84.34,134a2.38,2.38,0,0,0-1.72.72,2.44,2.44,0,0,0-.73,1.72v6a.76.76,0,0,0,.25.59.78.78,0,0,0,.58.23.82.82,0,0,0,.62-.23.89.89,0,0,0,.21-.59V137H84v14.75a1,1,0,0,0,.36.75,1.06,1.06,0,0,0,.78.32,1,1,0,0,0,.79-.32,1,1,0,0,0,.32-.75v-8.55h.49v8.55a1,1,0,0,0,.32.75,1.06,1.06,0,0,0,.81.32,1,1,0,0,0,.76-.32,1,1,0,0,0,.31-.75V137h.45v5.33a.77.77,0,0,0,.82.82.78.78,0,0,0,.61-.23.9.9,0,0,0,.22-.59v-6a2.38,2.38,0,0,0-.72-1.72,2.34,2.34,0,0,0-1.73-.72Z"/><path class="cls-5" d="M86.47,133.46a1.85,1.85,0,0,0,1.9-1.9,1.93,1.93,0,0,0-1.9-1.9,1.74,1.74,0,0,0-1.35.57,1.8,1.8,0,0,0-.55,1.33,1.83,1.83,0,0,0,.55,1.37,1.78,1.78,0,0,0,1.35.53"/><path class="cls-5" d="M96.59,134a2.38,2.38,0,0,0-1.72.72,2.44,2.44,0,0,0-.73,1.72v6a.82.82,0,0,0,.83.82.82.82,0,0,0,.62-.23.89.89,0,0,0,.21-.59V137h.43v14.75a1,1,0,0,0,.36.75,1.06,1.06,0,0,0,.78.32,1,1,0,0,0,.79-.32,1,1,0,0,0,.33-.75v-8.55H99v8.55a1,1,0,0,0,.32.75,1.07,1.07,0,0,0,.82.32,1,1,0,0,0,.75-.32,1,1,0,0,0,.31-.75V137h.45v5.33a.77.77,0,0,0,.82.82.77.77,0,0,0,.61-.23.9.9,0,0,0,.22-.59v-6a2.38,2.38,0,0,0-.72-1.72,2.34,2.34,0,0,0-1.73-.72Z"/><path class="cls-5" d="M98.72,133.46a1.87,1.87,0,0,0,1.35-.53,1.92,1.92,0,0,0-1.35-3.27,1.74,1.74,0,0,0-1.35.57,1.8,1.8,0,0,0-.54,1.33,1.83,1.83,0,0,0,1.89,1.9"/><path class="cls-5" d="M108.84,134a2.48,2.48,0,0,0-2.45,2.44v6a.82.82,0,0,0,.83.82.82.82,0,0,0,.62-.23.89.89,0,0,0,.21-.59V137h.43v14.75a1,1,0,0,0,.36.75,1.06,1.06,0,0,0,.78.32,1,1,0,0,0,.79-.32,1,1,0,0,0,.33-.75v-8.55h.48v8.55a1,1,0,0,0,.32.75,1.07,1.07,0,0,0,.82.32,1,1,0,0,0,.75-.32,1,1,0,0,0,.31-.75V137h.45v5.33a.85.85,0,0,0,.22.59.87.87,0,0,0,.6.23.76.76,0,0,0,.61-.23.9.9,0,0,0,.22-.59v-6a2.41,2.41,0,0,0-.71-1.72,2.37,2.37,0,0,0-1.73-.72Z"/><path class="cls-5" d="M111,133.46a1.86,1.86,0,0,0,1.91-1.9,1.93,1.93,0,0,0-1.91-1.9,1.77,1.77,0,0,0-1.35.57,1.8,1.8,0,0,0-.54,1.33,1.83,1.83,0,0,0,1.89,1.9"/><path class="cls-5" d="M121.1,134a2.38,2.38,0,0,0-1.72.72,2.41,2.41,0,0,0-.74,1.72v6a.82.82,0,0,0,.83.82.82.82,0,0,0,.62-.23.89.89,0,0,0,.21-.59V137h.43v14.75a1,1,0,0,0,.36.75,1.07,1.07,0,0,0,.78.32,1,1,0,0,0,.79-.32,1,1,0,0,0,.33-.75v-8.55h.48v8.55a1,1,0,0,0,.32.75,1.08,1.08,0,0,0,.82.32,1.06,1.06,0,0,0,.76-.32,1,1,0,0,0,.3-.75V137h.45v5.33a.85.85,0,0,0,.22.59.88.88,0,0,0,.61.23.78.78,0,0,0,.61-.23,1,1,0,0,0,.22-.59v-6a2.42,2.42,0,0,0-.72-1.72,2.35,2.35,0,0,0-1.73-.72Z"/><path class="cls-5" d="M123.22,133.46a1.86,1.86,0,0,0,1.91-1.9,1.93,1.93,0,0,0-1.91-1.9,1.77,1.77,0,0,0-1.35.57,1.8,1.8,0,0,0-.54,1.33,1.83,1.83,0,0,0,1.89,1.9"/><path class="cls-5" d="M133.35,134a2.38,2.38,0,0,0-1.72.72,2.41,2.41,0,0,0-.74,1.72v6a.82.82,0,0,0,.84.82.81.81,0,0,0,.61-.23.89.89,0,0,0,.21-.59V137H133v14.75a1,1,0,0,0,.36.75,1.09,1.09,0,0,0,.78.32,1.06,1.06,0,0,0,.8-.32,1,1,0,0,0,.32-.75v-8.55h.48v8.55a1,1,0,0,0,.32.75,1.08,1.08,0,0,0,.82.32,1.06,1.06,0,0,0,.76-.32,1,1,0,0,0,.3-.75V137h.45v5.33a.85.85,0,0,0,.22.59.88.88,0,0,0,.61.23.78.78,0,0,0,.61-.23,1,1,0,0,0,.22-.59v-6a2.42,2.42,0,0,0-.72-1.72,2.35,2.35,0,0,0-1.73-.72Z"/><path class="cls-5" d="M135.47,133.46a1.86,1.86,0,0,0,1.91-1.9,1.93,1.93,0,0,0-1.91-1.9,1.77,1.77,0,0,0-1.35.57,1.8,1.8,0,0,0-.54,1.33,1.83,1.83,0,0,0,1.89,1.9"/><path class="cls-5" d="M145.6,134a2.48,2.48,0,0,0-2.45,2.44v6a.78.78,0,0,0,.24.59.8.8,0,0,0,.59.23.78.78,0,0,0,.61-.23.9.9,0,0,0,.22-.59V137h.43v14.75a1,1,0,0,0,.36.75,1.06,1.06,0,0,0,.78.32,1,1,0,0,0,.79-.32,1,1,0,0,0,.32-.75v-8.55H148v8.55a1,1,0,0,0,.33.75,1.06,1.06,0,0,0,.81.32,1,1,0,0,0,.76-.32,1,1,0,0,0,.3-.75V137h.45v5.33a.85.85,0,0,0,.22.59.9.9,0,0,0,.61.23.78.78,0,0,0,.61-.23,1,1,0,0,0,.22-.59v-6a2.38,2.38,0,0,0-.72-1.72,2.35,2.35,0,0,0-1.73-.72Z"/><path class="cls-5" d="M147.73,133.46a1.86,1.86,0,0,0,1.9-1.9,1.93,1.93,0,0,0-1.9-1.9,1.77,1.77,0,0,0-1.36.57,1.83,1.83,0,0,0-.54,1.33,1.86,1.86,0,0,0,.54,1.37,1.82,1.82,0,0,0,1.36.53"/><path class="cls-5" d="M157.85,134a2.38,2.38,0,0,0-1.72.72,2.44,2.44,0,0,0-.73,1.72v6a.76.76,0,0,0,.25.59.78.78,0,0,0,.58.23.82.82,0,0,0,.62-.23.94.94,0,0,0,.21-.59V137h.43v14.75a1,1,0,0,0,.36.75,1.06,1.06,0,0,0,.78.32,1,1,0,0,0,.79-.32,1,1,0,0,0,.32-.75v-8.55h.49v8.55a1,1,0,0,0,.32.75,1.06,1.06,0,0,0,.81.32,1,1,0,0,0,.76-.32,1,1,0,0,0,.3-.75V137h.45v5.33a.77.77,0,0,0,.83.82.78.78,0,0,0,.61-.23.9.9,0,0,0,.22-.59v-6a2.38,2.38,0,0,0-.72-1.72,2.34,2.34,0,0,0-1.73-.72Z"/><path class="cls-5" d="M160,133.46a1.85,1.85,0,0,0,1.9-1.9,1.93,1.93,0,0,0-1.9-1.9,1.74,1.74,0,0,0-1.35.57,1.8,1.8,0,0,0-.55,1.33,1.83,1.83,0,0,0,.55,1.37,1.78,1.78,0,0,0,1.35.53"/><path class="cls-5" d="M170.1,134a2.38,2.38,0,0,0-1.72.72,2.44,2.44,0,0,0-.73,1.72v6a.82.82,0,0,0,.83.82.82.82,0,0,0,.62-.23.89.89,0,0,0,.21-.59V137h.43v14.75a1,1,0,0,0,.36.75,1.06,1.06,0,0,0,.78.32,1,1,0,0,0,.79-.32,1,1,0,0,0,.33-.75v-8.55h.48v8.55a1,1,0,0,0,.32.75,1.07,1.07,0,0,0,.82.32,1,1,0,0,0,.75-.32,1,1,0,0,0,.31-.75V137h.45v5.33a.77.77,0,0,0,.82.82.77.77,0,0,0,.61-.23.9.9,0,0,0,.22-.59v-6a2.38,2.38,0,0,0-.72-1.72,2.34,2.34,0,0,0-1.73-.72Z"/><path class="cls-5" d="M172.23,133.46a1.87,1.87,0,0,0,1.35-.53,1.85,1.85,0,0,0,.55-1.37,1.93,1.93,0,0,0-1.9-1.9,1.74,1.74,0,0,0-1.35.57,1.8,1.8,0,0,0-.54,1.33,1.83,1.83,0,0,0,1.89,1.9"/><path class="cls-5" d="M182.35,134a2.48,2.48,0,0,0-2.45,2.44v6a.82.82,0,0,0,.83.82.82.82,0,0,0,.62-.23.89.89,0,0,0,.21-.59V137H182v14.75a1,1,0,0,0,.36.75,1.06,1.06,0,0,0,.78.32,1,1,0,0,0,.79-.32,1,1,0,0,0,.33-.75v-8.55h.48v8.55a1,1,0,0,0,.32.75,1.07,1.07,0,0,0,.82.32,1,1,0,0,0,.75-.32,1,1,0,0,0,.31-.75V137h.45v5.33a.85.85,0,0,0,.22.59.87.87,0,0,0,.6.23.76.76,0,0,0,.61-.23.9.9,0,0,0,.22-.59v-6a2.41,2.41,0,0,0-.71-1.72,2.37,2.37,0,0,0-1.73-.72Z"/><path class="cls-5" d="M184.48,133.46a1.86,1.86,0,0,0,1.91-1.9,1.93,1.93,0,0,0-1.91-1.9,1.75,1.75,0,0,0-1.35.57,1.8,1.8,0,0,0-.54,1.33,1.83,1.83,0,0,0,1.89,1.9"/><path class="cls-5" d="M194.6,134a2.48,2.48,0,0,0-2.45,2.44v6a.82.82,0,0,0,.83.82.82.82,0,0,0,.62-.23.89.89,0,0,0,.21-.59V137h.43v14.75a1,1,0,0,0,.36.75,1.06,1.06,0,0,0,.78.32,1,1,0,0,0,.79-.32,1,1,0,0,0,.33-.75v-8.55H197v8.55a1,1,0,0,0,.32.75,1.08,1.08,0,0,0,.82.32,1,1,0,0,0,.75-.32,1,1,0,0,0,.31-.75V137h.45v5.33a.85.85,0,0,0,.22.59.88.88,0,0,0,.61.23.78.78,0,0,0,.61-.23,1,1,0,0,0,.22-.59v-6a2.42,2.42,0,0,0-.72-1.72,2.35,2.35,0,0,0-1.73-.72Z"/><path class="cls-5" d="M196.73,133.46a1.86,1.86,0,0,0,1.91-1.9,1.93,1.93,0,0,0-1.91-1.9,1.77,1.77,0,0,0-1.35.57,1.8,1.8,0,0,0-.54,1.33,1.83,1.83,0,0,0,1.89,1.9"/><path class="cls-5" d="M206.86,134a2.38,2.38,0,0,0-1.72.72,2.41,2.41,0,0,0-.74,1.72v6a.82.82,0,0,0,.84.82.81.81,0,0,0,.61-.23.89.89,0,0,0,.21-.59V137h.43v14.75a1,1,0,0,0,.36.75,1.09,1.09,0,0,0,.78.32,1.06,1.06,0,0,0,.8-.32,1,1,0,0,0,.32-.75v-8.55h.48v8.55a1,1,0,0,0,.32.75,1.08,1.08,0,0,0,.82.32,1.06,1.06,0,0,0,.76-.32,1,1,0,0,0,.3-.75V137h.45v5.33a.85.85,0,0,0,.22.59.88.88,0,0,0,.61.23.78.78,0,0,0,.61-.23,1,1,0,0,0,.22-.59v-6a2.42,2.42,0,0,0-.72-1.72,2.35,2.35,0,0,0-1.73-.72Z"/><path class="cls-5" d="M209,133.46a1.86,1.86,0,0,0,1.91-1.9,1.93,1.93,0,0,0-1.91-1.9,1.77,1.77,0,0,0-1.35.57,1.8,1.8,0,0,0-.54,1.33,1.83,1.83,0,0,0,1.89,1.9"/><path class="cls-5" d="M219.11,134a2.48,2.48,0,0,0-2.45,2.44v6a.78.78,0,0,0,.24.59.9.9,0,0,0,1.2,0,.9.9,0,0,0,.22-.59V137h.43v14.75a1,1,0,0,0,.36.75,1.12,1.12,0,0,0,1.57,0,1,1,0,0,0,.32-.75v-8.55h.48v8.55a1,1,0,0,0,.32.75,1.1,1.1,0,0,0,.82.32,1,1,0,0,0,.76-.32,1,1,0,0,0,.3-.75V137h.45v5.33a.85.85,0,0,0,.22.59.9.9,0,0,0,.61.23.78.78,0,0,0,.61-.23,1,1,0,0,0,.22-.59v-6a2.42,2.42,0,0,0-.72-1.72,2.35,2.35,0,0,0-1.73-.72Z"/><path class="cls-5" d="M221.24,133.46a1.86,1.86,0,0,0,1.9-1.9,1.93,1.93,0,0,0-1.9-1.9,1.77,1.77,0,0,0-1.36.57,1.83,1.83,0,0,0-.54,1.33,1.86,1.86,0,0,0,.54,1.37,1.82,1.82,0,0,0,1.36.53"/><path class="cls-5" d="M231.36,134a2.38,2.38,0,0,0-1.72.72,2.44,2.44,0,0,0-.73,1.72v6a.76.76,0,0,0,.25.59.78.78,0,0,0,.58.23.82.82,0,0,0,.62-.23.94.94,0,0,0,.21-.59V137H231v14.75a1,1,0,0,0,.36.75,1.06,1.06,0,0,0,.78.32,1,1,0,0,0,.79-.32,1,1,0,0,0,.32-.75v-8.55h.49v8.55a1,1,0,0,0,.32.75,1.06,1.06,0,0,0,.81.32,1,1,0,0,0,.76-.32,1,1,0,0,0,.3-.75V137h.45v5.33a.77.77,0,0,0,.83.82.78.78,0,0,0,.61-.23.9.9,0,0,0,.22-.59v-6a2.38,2.38,0,0,0-.72-1.72,2.34,2.34,0,0,0-1.73-.72Z"/><path class="cls-5" d="M233.49,133.46a1.83,1.83,0,0,0,1.34-.53,1.85,1.85,0,0,0,.56-1.37,1.93,1.93,0,0,0-1.9-1.9,1.74,1.74,0,0,0-1.35.57,1.8,1.8,0,0,0-.55,1.33,1.83,1.83,0,0,0,.55,1.37,1.78,1.78,0,0,0,1.35.53"/><path class="cls-5" d="M243.61,134a2.38,2.38,0,0,0-1.72.72,2.44,2.44,0,0,0-.73,1.72v6a.82.82,0,0,0,.83.82.82.82,0,0,0,.62-.23.89.89,0,0,0,.21-.59V137h.43v14.75a1,1,0,0,0,.36.75,1.06,1.06,0,0,0,.78.32,1,1,0,0,0,.79-.32,1,1,0,0,0,.33-.75v-8.55H246v8.55a1,1,0,0,0,.32.75,1.07,1.07,0,0,0,.82.32,1,1,0,0,0,.75-.32,1,1,0,0,0,.31-.75V137h.45v5.33a.77.77,0,0,0,.82.82.77.77,0,0,0,.61-.23.9.9,0,0,0,.22-.59v-6a2.38,2.38,0,0,0-.72-1.72,2.34,2.34,0,0,0-1.73-.72Z"/><path class="cls-5" d="M245.74,133.46a1.87,1.87,0,0,0,1.35-.53,1.85,1.85,0,0,0,.55-1.37,1.93,1.93,0,0,0-1.9-1.9,1.74,1.74,0,0,0-1.35.57,1.8,1.8,0,0,0-.54,1.33,1.82,1.82,0,0,0,.54,1.37,1.79,1.79,0,0,0,1.35.53"/><path class="cls-5" d="M255.86,134a2.4,2.4,0,0,0-1.72.72,2.44,2.44,0,0,0-.73,1.72v6a.82.82,0,0,0,.83.82.82.82,0,0,0,.62-.23.89.89,0,0,0,.21-.59V137h.43v14.75a1,1,0,0,0,.36.75,1.06,1.06,0,0,0,.78.32,1,1,0,0,0,.79-.32,1,1,0,0,0,.33-.75v-8.55h.48v8.55a1,1,0,0,0,.32.75,1.07,1.07,0,0,0,.82.32,1,1,0,0,0,.75-.32,1,1,0,0,0,.31-.75V137h.45v5.33a.77.77,0,0,0,.82.82.77.77,0,0,0,.61-.23.9.9,0,0,0,.22-.59v-6a2.41,2.41,0,0,0-.71-1.72,2.38,2.38,0,0,0-1.74-.72Z"/><path class="cls-5" d="M258,133.46a1.86,1.86,0,0,0,1.91-1.9,1.93,1.93,0,0,0-1.91-1.9,1.75,1.75,0,0,0-1.35.57,1.8,1.8,0,0,0-.54,1.33,1.83,1.83,0,0,0,1.89,1.9"/><path class="cls-5" d="M23.08,159.91a2.36,2.36,0,0,0-1.72.72,2.44,2.44,0,0,0-.73,1.72v6a.81.81,0,0,0,.25.59.79.79,0,0,0,.58.23.82.82,0,0,0,.62-.23.91.91,0,0,0,.21-.59V163h.43v14.75a1,1,0,0,0,.36.75,1.06,1.06,0,0,0,.78.32,1,1,0,0,0,.79-.32,1,1,0,0,0,.33-.75v-8.55h.48v8.55a1,1,0,0,0,.32.75,1.07,1.07,0,0,0,.82.32,1.08,1.08,0,0,0,1.06-1.07V163h.45v5.33a.87.87,0,0,0,.22.59.85.85,0,0,0,.6.23.77.77,0,0,0,.61-.23.92.92,0,0,0,.22-.59v-6a2.41,2.41,0,0,0-.71-1.72,2.34,2.34,0,0,0-1.74-.72Z"/><path class="cls-5" d="M25.21,159.42a1.87,1.87,0,0,0,1.35-.53,1.85,1.85,0,0,0,.55-1.37,1.91,1.91,0,0,0-1.9-1.9,1.74,1.74,0,0,0-1.35.57,1.78,1.78,0,0,0-.54,1.33,1.84,1.84,0,0,0,.54,1.37,1.81,1.81,0,0,0,1.35.53"/><path class="cls-5" d="M35.33,159.91a2.37,2.37,0,0,0-1.72.72,2.44,2.44,0,0,0-.73,1.72v6a.81.81,0,0,0,.25.59.79.79,0,0,0,.58.23.82.82,0,0,0,.62-.23.91.91,0,0,0,.21-.59V163H35v14.75a1,1,0,0,0,.36.75,1.06,1.06,0,0,0,.78.32,1,1,0,0,0,.79-.32,1,1,0,0,0,.33-.75v-8.55h.48v8.55a1,1,0,0,0,.32.75,1.08,1.08,0,0,0,.82.32,1.08,1.08,0,0,0,1.06-1.07V163h.45v5.33a.77.77,0,0,0,.82.82.79.79,0,0,0,.62-.23,1,1,0,0,0,.22-.59v-6a2.42,2.42,0,0,0-.72-1.72,2.32,2.32,0,0,0-1.73-.72Z"/><path class="cls-5" d="M37.46,159.42a1.86,1.86,0,0,0,1.91-1.9,1.8,1.8,0,0,0-.56-1.33,1.83,1.83,0,0,0-1.35-.57,1.89,1.89,0,0,0-1.89,1.9,1.84,1.84,0,0,0,.54,1.37,1.81,1.81,0,0,0,1.35.53"/><path class="cls-5" d="M47.59,159.91a2.34,2.34,0,0,0-1.72.72,2.41,2.41,0,0,0-.74,1.72v6a.81.81,0,0,0,.25.59.79.79,0,0,0,.58.23.82.82,0,0,0,.62-.23.91.91,0,0,0,.21-.59V163h.43v14.75a1,1,0,0,0,.36.75,1.07,1.07,0,0,0,.78.32,1,1,0,0,0,.79-.32,1,1,0,0,0,.33-.75v-8.55H50v8.55a1,1,0,0,0,.32.75,1.08,1.08,0,0,0,.82.32,1.06,1.06,0,0,0,.76-.32,1.05,1.05,0,0,0,.3-.75V163h.45v5.33a.87.87,0,0,0,.22.59.88.88,0,0,0,.61.23.78.78,0,0,0,.61-.23,1,1,0,0,0,.22-.59v-6a2.42,2.42,0,0,0-.72-1.72,2.32,2.32,0,0,0-1.73-.72Z"/><path class="cls-5" d="M49.71,159.42a1.86,1.86,0,0,0,1.91-1.9,1.8,1.8,0,0,0-.56-1.33,1.83,1.83,0,0,0-1.35-.57,1.89,1.89,0,0,0-1.89,1.9,1.84,1.84,0,0,0,.54,1.37,1.81,1.81,0,0,0,1.35.53"/><path class="cls-5" d="M59.84,159.91a2.34,2.34,0,0,0-1.72.72,2.39,2.39,0,0,0-.73,1.72v6a.86.86,0,0,0,1.44.59.92.92,0,0,0,.22-.59V163h.43v14.75a1,1,0,0,0,.36.75,1.12,1.12,0,0,0,1.57,0,1,1,0,0,0,.32-.75v-8.55h.48v8.55a1,1,0,0,0,.32.75,1.1,1.1,0,0,0,.82.32,1,1,0,0,0,.76-.32,1,1,0,0,0,.3-.75V163h.45v5.33a.87.87,0,0,0,.22.59.9.9,0,0,0,.61.23.78.78,0,0,0,.61-.23,1,1,0,0,0,.22-.59v-6a2.42,2.42,0,0,0-.72-1.72,2.32,2.32,0,0,0-1.73-.72Z"/><path class="cls-5" d="M62,159.42a1.86,1.86,0,0,0,1.91-1.9,1.8,1.8,0,0,0-.56-1.33,1.83,1.83,0,0,0-1.35-.57,1.89,1.89,0,0,0-1.89,1.9,1.84,1.84,0,0,0,.54,1.37,1.81,1.81,0,0,0,1.35.53"/><path class="cls-5" d="M72.09,159.91a2.34,2.34,0,0,0-1.72.72,2.39,2.39,0,0,0-.73,1.72v6a.8.8,0,0,0,.83.82.78.78,0,0,0,.61-.23.92.92,0,0,0,.22-.59V163h.43v14.75a1,1,0,0,0,.36.75,1.06,1.06,0,0,0,.78.32,1,1,0,0,0,.79-.32,1,1,0,0,0,.32-.75v-8.55h.48v8.55a1,1,0,0,0,.33.75,1.06,1.06,0,0,0,.81.32,1,1,0,0,0,.76-.32,1,1,0,0,0,.3-.75V163h.45v5.33a.87.87,0,0,0,.22.59.9.9,0,0,0,.61.23.78.78,0,0,0,.61-.23,1,1,0,0,0,.22-.59v-6a2.38,2.38,0,0,0-.72-1.72,2.32,2.32,0,0,0-1.73-.72Z"/><path class="cls-5" d="M74.22,159.42a1.83,1.83,0,0,0,1.34-.53,1.85,1.85,0,0,0,.56-1.37,1.8,1.8,0,0,0-.56-1.33,1.82,1.82,0,0,0-1.34-.57,1.74,1.74,0,0,0-1.35.57,1.79,1.79,0,0,0-.55,1.33,1.85,1.85,0,0,0,.55,1.37,1.78,1.78,0,0,0,1.35.53"/><path class="cls-5" d="M84.34,159.91a2.34,2.34,0,0,0-1.72.72,2.44,2.44,0,0,0-.73,1.72v6a.82.82,0,0,0,.83.82.82.82,0,0,0,.62-.23.91.91,0,0,0,.21-.59V163H84v14.75a1,1,0,0,0,.36.75,1.06,1.06,0,0,0,.78.32,1,1,0,0,0,.79-.32,1,1,0,0,0,.32-.75v-8.55h.49v8.55a1,1,0,0,0,.32.75,1.06,1.06,0,0,0,.81.32,1.08,1.08,0,0,0,1.07-1.07V163h.45v5.33a.87.87,0,0,0,.22.59.85.85,0,0,0,.6.23.78.78,0,0,0,.61-.23.92.92,0,0,0,.22-.59v-6a2.38,2.38,0,0,0-.72-1.72,2.3,2.3,0,0,0-1.73-.72Z"/><path class="cls-5" d="M86.47,159.42a1.85,1.85,0,0,0,1.9-1.9,1.93,1.93,0,0,0-1.9-1.9,1.74,1.74,0,0,0-1.35.57,1.79,1.79,0,0,0-.55,1.33,1.85,1.85,0,0,0,.55,1.37,1.78,1.78,0,0,0,1.35.53"/><path class="cls-5" d="M96.59,159.91a2.34,2.34,0,0,0-1.72.72,2.44,2.44,0,0,0-.73,1.72v6a.81.81,0,0,0,.25.59.79.79,0,0,0,.58.23.82.82,0,0,0,.62-.23.91.91,0,0,0,.21-.59V163h.43v14.75a1,1,0,0,0,.36.75,1.06,1.06,0,0,0,.78.32,1,1,0,0,0,.79-.32,1,1,0,0,0,.33-.75v-8.55H99v8.55a1,1,0,0,0,.32.75,1.07,1.07,0,0,0,.82.32,1.08,1.08,0,0,0,1.06-1.07V163h.45v5.33a.87.87,0,0,0,.22.59.85.85,0,0,0,.6.23.77.77,0,0,0,.61-.23.92.92,0,0,0,.22-.59v-6a2.38,2.38,0,0,0-.72-1.72,2.3,2.3,0,0,0-1.73-.72Z"/><path class="cls-5" d="M98.72,159.42a1.87,1.87,0,0,0,1.35-.53,1.85,1.85,0,0,0,.55-1.37,1.91,1.91,0,0,0-1.9-1.9,1.74,1.74,0,0,0-1.35.57,1.78,1.78,0,0,0-.54,1.33,1.84,1.84,0,0,0,.54,1.37,1.81,1.81,0,0,0,1.35.53"/><path class="cls-5" d="M108.84,159.91a2.37,2.37,0,0,0-1.72.72,2.44,2.44,0,0,0-.73,1.72v6a.81.81,0,0,0,.25.59.79.79,0,0,0,.58.23.82.82,0,0,0,.62-.23.91.91,0,0,0,.21-.59V163h.43v14.75a1,1,0,0,0,.36.75,1.06,1.06,0,0,0,.78.32,1,1,0,0,0,.79-.32,1,1,0,0,0,.33-.75v-8.55h.48v8.55a1,1,0,0,0,.32.75,1.07,1.07,0,0,0,.82.32,1.08,1.08,0,0,0,1.06-1.07V163h.45v5.33a.77.77,0,0,0,.82.82.76.76,0,0,0,.61-.23.92.92,0,0,0,.22-.59v-6a2.41,2.41,0,0,0-.71-1.72,2.33,2.33,0,0,0-1.73-.72Z"/><path class="cls-5" d="M111,159.42a1.86,1.86,0,0,0,1.91-1.9,1.8,1.8,0,0,0-.56-1.33,1.83,1.83,0,0,0-1.35-.57,1.89,1.89,0,0,0-1.89,1.9,1.84,1.84,0,0,0,.54,1.37,1.81,1.81,0,0,0,1.35.53"/><path class="cls-5" d="M121.1,159.91a2.34,2.34,0,0,0-1.72.72,2.41,2.41,0,0,0-.74,1.72v6a.81.81,0,0,0,.25.59.79.79,0,0,0,.58.23.82.82,0,0,0,.62-.23.91.91,0,0,0,.21-.59V163h.43v14.75a1,1,0,0,0,.36.75,1.07,1.07,0,0,0,.78.32,1,1,0,0,0,.79-.32,1,1,0,0,0,.33-.75v-8.55h.48v8.55a1,1,0,0,0,.32.75,1.08,1.08,0,0,0,.82.32,1.06,1.06,0,0,0,.76-.32,1.05,1.05,0,0,0,.3-.75V163h.45v5.33a.87.87,0,0,0,.22.59.88.88,0,0,0,.61.23.78.78,0,0,0,.61-.23,1,1,0,0,0,.22-.59v-6a2.42,2.42,0,0,0-.72-1.72,2.32,2.32,0,0,0-1.73-.72Z"/><path class="cls-5" d="M123.22,159.42a1.86,1.86,0,0,0,1.91-1.9,1.8,1.8,0,0,0-.56-1.33,1.83,1.83,0,0,0-1.35-.57,1.89,1.89,0,0,0-1.89,1.9,1.84,1.84,0,0,0,.54,1.37,1.81,1.81,0,0,0,1.35.53"/><path class="cls-5" d="M133.35,159.91a2.34,2.34,0,0,0-1.72.72,2.41,2.41,0,0,0-.74,1.72v6a.81.81,0,0,0,.25.59.8.8,0,0,0,.59.23.81.81,0,0,0,.61-.23.91.91,0,0,0,.21-.59V163H133v14.75a1,1,0,0,0,.36.75,1.09,1.09,0,0,0,.78.32,1.06,1.06,0,0,0,.8-.32,1,1,0,0,0,.32-.75v-8.55h.48v8.55a1,1,0,0,0,.32.75,1.08,1.08,0,0,0,.82.32,1.06,1.06,0,0,0,.76-.32,1,1,0,0,0,.3-.75V163h.45v5.33a.87.87,0,0,0,.22.59.88.88,0,0,0,.61.23.78.78,0,0,0,.61-.23,1,1,0,0,0,.22-.59v-6a2.42,2.42,0,0,0-.72-1.72,2.32,2.32,0,0,0-1.73-.72Z"/><path class="cls-5" d="M135.47,159.42a1.86,1.86,0,0,0,1.91-1.9,1.8,1.8,0,0,0-.56-1.33,1.83,1.83,0,0,0-1.35-.57,1.89,1.89,0,0,0-1.89,1.9,1.84,1.84,0,0,0,.54,1.37,1.81,1.81,0,0,0,1.35.53"/><path class="cls-5" d="M145.6,159.91a2.34,2.34,0,0,0-1.72.72,2.39,2.39,0,0,0-.73,1.72v6a.8.8,0,0,0,.83.82.78.78,0,0,0,.61-.23.92.92,0,0,0,.22-.59V163h.43v14.75a1,1,0,0,0,.36.75,1.06,1.06,0,0,0,.78.32,1,1,0,0,0,.79-.32,1,1,0,0,0,.32-.75v-8.55H148v8.55a1,1,0,0,0,.33.75,1.06,1.06,0,0,0,.81.32,1,1,0,0,0,.76-.32,1,1,0,0,0,.3-.75V163h.45v5.33a.87.87,0,0,0,.22.59.9.9,0,0,0,.61.23.78.78,0,0,0,.61-.23,1,1,0,0,0,.22-.59v-6a2.38,2.38,0,0,0-.72-1.72,2.32,2.32,0,0,0-1.73-.72Z"/><path class="cls-5" d="M147.73,159.42a1.86,1.86,0,0,0,1.9-1.9,1.8,1.8,0,0,0-.56-1.33,1.82,1.82,0,0,0-1.34-.57,1.77,1.77,0,0,0-1.36.57,1.82,1.82,0,0,0-.54,1.33,1.88,1.88,0,0,0,.54,1.37,1.82,1.82,0,0,0,1.36.53"/><path class="cls-5" d="M157.85,159.91a2.34,2.34,0,0,0-1.72.72,2.44,2.44,0,0,0-.73,1.72v6a.82.82,0,0,0,.83.82.82.82,0,0,0,.62-.23,1,1,0,0,0,.21-.59V163h.43v14.75a1,1,0,0,0,.36.75,1.06,1.06,0,0,0,.78.32,1,1,0,0,0,.79-.32,1,1,0,0,0,.32-.75v-8.55h.49v8.55a1,1,0,0,0,.32.75,1.06,1.06,0,0,0,.81.32,1,1,0,0,0,.76-.32,1,1,0,0,0,.3-.75V163h.45v5.33a.92.92,0,0,0,.22.59.9.9,0,0,0,.61.23.78.78,0,0,0,.61-.23.92.92,0,0,0,.22-.59v-6a2.38,2.38,0,0,0-.72-1.72,2.3,2.3,0,0,0-1.73-.72Z"/><path class="cls-5" d="M160,159.42a1.85,1.85,0,0,0,1.9-1.9,1.93,1.93,0,0,0-1.9-1.9,1.74,1.74,0,0,0-1.35.57,1.79,1.79,0,0,0-.55,1.33,1.85,1.85,0,0,0,.55,1.37,1.78,1.78,0,0,0,1.35.53"/><path class="cls-5" d="M170.1,159.91a2.34,2.34,0,0,0-1.72.72,2.44,2.44,0,0,0-.73,1.72v6a.81.81,0,0,0,.25.59.79.79,0,0,0,.58.23.82.82,0,0,0,.62-.23.91.91,0,0,0,.21-.59V163h.43v14.75a1,1,0,0,0,.36.75,1.06,1.06,0,0,0,.78.32,1,1,0,0,0,.79-.32,1,1,0,0,0,.33-.75v-8.55h.48v8.55a1,1,0,0,0,.32.75,1.07,1.07,0,0,0,.82.32,1.08,1.08,0,0,0,1.06-1.07V163h.45v5.33a.87.87,0,0,0,.22.59.85.85,0,0,0,.6.23.77.77,0,0,0,.61-.23.92.92,0,0,0,.22-.59v-6a2.38,2.38,0,0,0-.72-1.72,2.3,2.3,0,0,0-1.73-.72Z"/><path class="cls-5" d="M172.23,159.42a1.87,1.87,0,0,0,1.35-.53,1.85,1.85,0,0,0,.55-1.37,1.93,1.93,0,0,0-1.9-1.9,1.74,1.74,0,0,0-1.35.57,1.78,1.78,0,0,0-.54,1.33,1.84,1.84,0,0,0,.54,1.37,1.81,1.81,0,0,0,1.35.53"/><path class="cls-5" d="M182.35,159.91a2.37,2.37,0,0,0-1.72.72,2.44,2.44,0,0,0-.73,1.72v6a.81.81,0,0,0,.25.59.79.79,0,0,0,.58.23.82.82,0,0,0,.62-.23.91.91,0,0,0,.21-.59V163H182v14.75a1,1,0,0,0,.36.75,1.06,1.06,0,0,0,.78.32,1,1,0,0,0,.79-.32,1,1,0,0,0,.33-.75v-8.55h.48v8.55a1,1,0,0,0,.32.75,1.07,1.07,0,0,0,.82.32,1.08,1.08,0,0,0,1.06-1.07V163h.45v5.33a.77.77,0,0,0,.82.82.76.76,0,0,0,.61-.23.92.92,0,0,0,.22-.59v-6a2.41,2.41,0,0,0-.71-1.72,2.33,2.33,0,0,0-1.73-.72Z"/><path class="cls-5" d="M184.48,159.42a1.86,1.86,0,0,0,1.91-1.9,1.8,1.8,0,0,0-.56-1.33,1.83,1.83,0,0,0-1.35-.57,1.75,1.75,0,0,0-1.35.57,1.78,1.78,0,0,0-.54,1.33,1.84,1.84,0,0,0,.54,1.37,1.81,1.81,0,0,0,1.35.53"/><path class="cls-5" d="M194.6,159.91a2.37,2.37,0,0,0-1.72.72,2.44,2.44,0,0,0-.73,1.72v6a.81.81,0,0,0,.25.59.79.79,0,0,0,.58.23.82.82,0,0,0,.62-.23.91.91,0,0,0,.21-.59V163h.43v14.75a1,1,0,0,0,.36.75,1.06,1.06,0,0,0,.78.32,1,1,0,0,0,.79-.32,1,1,0,0,0,.33-.75v-8.55H197v8.55a1,1,0,0,0,.32.75,1.08,1.08,0,0,0,.82.32,1.08,1.08,0,0,0,1.06-1.07V163h.45v5.33a.87.87,0,0,0,.22.59.88.88,0,0,0,.61.23.78.78,0,0,0,.61-.23,1,1,0,0,0,.22-.59v-6a2.42,2.42,0,0,0-.72-1.72,2.32,2.32,0,0,0-1.73-.72Z"/><path class="cls-5" d="M196.73,159.42a1.86,1.86,0,0,0,1.91-1.9,1.8,1.8,0,0,0-.56-1.33,1.83,1.83,0,0,0-1.35-.57,1.89,1.89,0,0,0-1.89,1.9,1.84,1.84,0,0,0,.54,1.37,1.81,1.81,0,0,0,1.35.53"/></g></g></svg>