<svg xmlns="http://www.w3.org/2000/svg" viewBox="0 0 99.3 90.57"><defs><style>.cls-1{fill:#1d1d1b;}</style></defs><title>obs-Recurso 3</title><g id="Capa_2" data-name="Capa 2"><g id="Capa_1-2" data-name="Capa 1"><path class="cls-1" d="M48.53,84.24a3.62,3.62,0,0,1-1.6.39c-1.28,0-1.88-.9-1.88-2.25s.65-2.18,2-2.18a2.39,2.39,0,0,1,1.4.38l-.35.63A1.9,1.9,0,0,0,47,80.93c-.76,0-1.11.59-1.11,1.44s.36,1.55,1.09,1.55a1.68,1.68,0,0,0,.74-.15V83h-.59l0-.62h1.4Z"/><path class="cls-1" d="M51.14,83c0-.75-.22-1-.6-1s-.61.27-.61,1,.2,1,.61,1,.6-.27.6-1M52,83c0,1.06-.53,1.62-1.45,1.62s-1.46-.55-1.46-1.62A1.46,1.46,0,1,1,52,83"/><path class="cls-1" d="M53.44,83.71A.73.73,0,0,0,54,84c.36,0,.63-.26.63-1s-.24-1-.61-1a.88.88,0,0,0-.58.25Zm-.06-1.93a1.1,1.1,0,0,1,.82-.38c.73,0,1.26.52,1.26,1.61s-.63,1.62-1.36,1.62a1,1,0,0,1-.9-.43l-.15.37h-.44V80.2h.83v1.08Z"/><path class="cls-1" d="M56.32,80.2h.83V81h-.83Zm0,4.37v-2.5L56,82v-.53h1.17v3.1Z"/><path class="cls-1" d="M59.2,82c-.41,0-.57.37-.57.74h1.13c0-.4-.12-.74-.56-.74m-.57,1.23a.71.71,0,0,0,.8.77,2.14,2.14,0,0,0,.9-.27l.16.58a2.47,2.47,0,0,1-1.16.31A1.44,1.44,0,0,1,57.79,83c0-1,.46-1.61,1.45-1.61s1.31.7,1.31,1.48v.36Z"/><path class="cls-1" d="M62.94,82.16a1.09,1.09,0,0,0-.38,0,.87.87,0,0,0-.56.21v2.25h-.82v-3.1h.57c0,.14.07.28.09.41h0a.82.82,0,0,1,.74-.47,1.33,1.33,0,0,1,.35,0c0,.24,0,.47,0,.71"/><path class="cls-1" d="M65.37,84.57V82.73c0-.47-.18-.69-.56-.69a1,1,0,0,0-.54.19v2.34h-.83v-3.1H64l.13.35a1.26,1.26,0,0,1,1-.42c.78,0,1.09.47,1.09,1.25v1.92Z"/><path class="cls-1" d="M68.83,83c0-.75-.22-1-.61-1s-.6.27-.6,1,.2,1,.6,1,.61-.27.61-1m.85,0c0,1.06-.53,1.62-1.46,1.62s-1.45-.55-1.45-1.62a1.46,1.46,0,1,1,2.91,0"/><path class="cls-1" d="M73.63,82.18a1.06,1.06,0,0,0-.56-.16c-.4,0-.64.27-.64,1s.23,1,.62,1a.84.84,0,0,0,.58-.26Zm.08-.47a1.67,1.67,0,0,1-.08-.57V80.2h.82v4.37h-.67l-.09-.34a1,1,0,0,1-.83.4c-.7,0-1.26-.5-1.26-1.61s.58-1.62,1.33-1.62a1,1,0,0,1,.78.31"/><path class="cls-1" d="M76.49,82c-.41,0-.57.37-.57.74h1.13c0-.4-.13-.74-.56-.74m-.57,1.23a.71.71,0,0,0,.79.77,2.15,2.15,0,0,0,.91-.27l.16.58a2.48,2.48,0,0,1-1.17.31A1.44,1.44,0,0,1,75.08,83c0-1,.46-1.61,1.45-1.61s1.31.7,1.31,1.48v.36Z"/><path class="cls-1" d="M81.62,84.63c-1.21,0-1.85-.81-1.85-2.23s.64-2.2,1.85-2.2a2.7,2.7,0,0,1,1.45.36l-.32.66a1.77,1.77,0,0,0-1-.29c-.71,0-1.06.52-1.06,1.46s.35,1.52,1,1.52a2,2,0,0,0,1.13-.4l.26.67a2.5,2.5,0,0,1-1.46.45"/><path class="cls-1" d="M83.66,84.57V80.2h.82v1.15a1.63,1.63,0,0,1-.08.48,1.07,1.07,0,0,1,.88-.43c.9,0,1.15.47,1.15,1.25v1.92h-.84V82.73a.26.26,0,0,0,0-.19A.46.46,0,0,0,85,82a1,1,0,0,0-.55.19v2.34Z"/><path class="cls-1" d="M87.33,80.2h.84V81h-.84Zm0,4.37v-2.5L87,82v-.53h1.18v3.1Z"/><path class="cls-1" d="M88.94,83.75V80.2h.81v3.5c0,.26.16.3.5.3v.58a2.6,2.6,0,0,1-.45,0c-.64,0-.86-.33-.86-.88"/><path class="cls-1" d="M92.08,82c-.41,0-.57.37-.57.74h1.13c0-.4-.13-.74-.56-.74m-.57,1.23a.71.71,0,0,0,.8.77,2.14,2.14,0,0,0,.9-.27l.16.58a2.47,2.47,0,0,1-1.16.31A1.44,1.44,0,0,1,90.67,83c0-1,.46-1.61,1.45-1.61s1.31.7,1.31,1.48v.36Z"/><path class="cls-1" d="M97.76,89h-56V1.54h56ZM1.54,1.54H40.19V89H1.54ZM97.75,0H0V90.57H99.3V0Z"/><path class="cls-1" d="M22.07,13.54A.39.39,0,0,0,22.2,13c-.07-.14-.26-.15-.18-.17,1-.23,1.52-1.67,1.49-2.22a2,2,0,0,0,2.47-.1A1.77,1.77,0,0,0,25.86,8a1.62,1.62,0,0,0-1.81,0,1,1,0,0,0-.76-.48,1.75,1.75,0,0,0-.37-1.16,1.9,1.9,0,0,0-2.39,0,1.68,1.68,0,0,0-2.22,1.77,2.9,2.9,0,0,0-1.47-.25,1.74,1.74,0,0,0-1,.56,2.8,2.8,0,0,0-.21.34,1.45,1.45,0,0,0-.17.85,1.53,1.53,0,0,0,.73,1.25,2.63,2.63,0,0,0,1.51.22,1.11,1.11,0,0,0,.62-.34c.07-.07.11-.17.21-.17a1.19,1.19,0,0,0,.78,1.24s0,.07,0,.13a1.13,1.13,0,0,0,1,1,.41.41,0,0,0-.1.6,3.29,3.29,0,0,1,.93-.17,3.24,3.24,0,0,1,.92.17"/><path class="cls-1" d="M23.88,16.64l-1.8,1.29.69,2L21,18.66,19.31,20l.69-2-1.8-1.29h2.21L21,14.58l.62,2.06Zm.54,0a3.11,3.11,0,0,1,.7-1.84.26.26,0,0,0,.08-.22.27.27,0,0,0-.1-.17L24.45,14l0,0h0c-.05,0-.09,0-.15.08a1.16,1.16,0,0,1-.75.27h-.23a2.45,2.45,0,0,1-.56-.21L22.38,14h0a2.92,2.92,0,0,0-2.41,0h0l-.14.06-.35.17a2.14,2.14,0,0,1-.38.13h-.22a1.17,1.17,0,0,1-.76-.27C18,14,18,14,17.91,14h-.05s-.46.28-.65.41a.29.29,0,0,0-.12.18.26.26,0,0,0,.08.22,3.1,3.1,0,0,1,.7,1.86,2.68,2.68,0,0,1-.46,1.65,2.08,2.08,0,0,0,0,2.05,2.05,2.05,0,0,0,1.88.88c.11,0,1.14,0,1.5.68,0,0,.18.29.25.42l.08.16.07-.16a4.26,4.26,0,0,1,.26-.42c.35-.66,1.38-.68,1.49-.68a1.94,1.94,0,0,0,1.91-2.93,2.71,2.71,0,0,1-.46-1.67"/><path class="cls-1" d="M27.86,26.22a2,2,0,0,1-.15-.46,4.08,4.08,0,0,0-.21-.56c.24-.06.46-.14.68-.21a3,3,0,0,1-.32,1.23M25,27c-.23,0-.35-.73-.41-1.27a21.34,21.34,0,0,0,2.48-.46,5.52,5.52,0,0,1,.33,1.28A2.33,2.33,0,0,1,25,27m.3-3.22a1.63,1.63,0,0,1,1.11.46c-.54.12-1.17.23-1.86.33.12-.8.75-.79.75-.79m-1-.95a3,3,0,0,1,3.38.65,2.67,2.67,0,0,1,.22.36c-.31.09-.69.2-1.12.3A3.2,3.2,0,0,0,25,23.36c-.59-.13-.73-.48-.69-.5m-2.49,2c.34-.69,1.07-1.14,1.34-1.52a.52.52,0,0,1,.38-.21c.32,0,.38.72.47,1.58-.66.08-1.4.13-2.19.15m-3.42-.15c.09-.86.15-1.59.46-1.58a.5.5,0,0,1,.38.21c.27.38,1,.83,1.34,1.52-.78,0-1.52-.07-2.18-.15m-1-1.31a3.21,3.21,0,0,0-1.78.81c-.43-.11-.82-.21-1.12-.31a1.86,1.86,0,0,1,.22-.35,3,3,0,0,1,3.37-.65c.05,0-.09.37-.69.5m-1.42.9a1.67,1.67,0,0,1,1.11-.45s.63,0,.75.79c-.7-.1-1.32-.21-1.86-.34M17.41,27a2.33,2.33,0,0,1-2.4-.45,5.66,5.66,0,0,1,.33-1.29,19.61,19.61,0,0,0,2.47.47c0,.54-.17,1.24-.4,1.27m-2.67-1.27a2.61,2.61,0,0,1-.15.46A3.09,3.09,0,0,1,14.26,25c.23.08.45.16.68.22a4.08,4.08,0,0,0-.2.56m-3.35-1s-.07.06-.14,0c-.71-.87.37-1.85.71-1.25,0,0-.4,0-.36.3,0,0,0,.29.37.28,0,0,.51-.06.39-.67a.53.53,0,0,0-.37-.37,1.12,1.12,0,0,0-1.28.53,1.66,1.66,0,0,0-.08.47.88.88,0,0,0-.35-.17A4.33,4.33,0,0,1,10,21.55a2.35,2.35,0,0,0,1.84-1.73.78.78,0,0,1,.46.54c0,.19-.07.38,0,.53a3.12,3.12,0,0,0,.73.57,14.09,14.09,0,0,0,1.2.84c.15,0,.23-.07.36-.05a.34.34,0,0,1,.11.07,1.41,1.41,0,0,0,.17.14,10.51,10.51,0,0,0-1.06.83,8.42,8.42,0,0,1-2.47,1.5m25.08.42c-.22-.27-.82-.13-.82-.13a.9.9,0,0,0-.57-1.22.8.8,0,0,0-.66.07h0l-.06,0a.48.48,0,0,0-.13.32.45.45,0,0,0,.46.46.45.45,0,0,0,.26-.08.42.42,0,0,0,.18-.27.42.42,0,0,1,.17.21c.26.82-.66,1.11-.66,1.11a3.57,3.57,0,0,1-3.26-.44l.35-.19A.84.84,0,0,1,32,25s0,0,0,.06a.41.41,0,0,0,.41.4.4.4,0,0,0,.4-.4.35.35,0,0,0-.08-.24c-.24-.36-1.06-.12-1.06-.12a1.5,1.5,0,0,0,0-1.16,1.11,1.11,0,0,0-1.27-.53.56.56,0,0,0-.38.37c-.12.61.39.67.39.67.37,0,.37-.28.37-.28.05-.29-.36-.3-.36-.3.35-.6,1.42.38.72,1.25-.07.09-.14,0-.14,0a14.6,14.6,0,0,1-2.2-1.26c0-.35-.33-.52-.27-.61s.23.06.33-.08.12-.6.18-1a3.51,3.51,0,0,0,2.27.29.26.26,0,0,0,.17-.25c0-.43-1.08-2.93-1.11-3.81.52.25.84-.55.94-.79.7.31.94,6.81,1.48,7,.26.11.37-.33.4-.42a21.29,21.29,0,0,0,.83-6.66,17.56,17.56,0,0,0-.56-4c-.22-.75-.64-2.29-1.63-2.49a.7.7,0,0,0-.81.72c0,.33.24.5.14.83a2.52,2.52,0,0,0-.31.69c-.06.24.15.34.08.6-.31-.05-.47.22-1,.1.32-.15.33-1.07-.07-1.22-.06,0-.12,0-.13-.09a1.37,1.37,0,0,0,.19-.27,1.22,1.22,0,0,0,0-1.17c.16,0,.33-.29.36-.53h0v0h0a1,1,0,0,1,.09-.46.13.13,0,0,0-.06-.17.12.12,0,0,0-.16.06c-.1.21-.33.09-.23-.11A.13.13,0,0,0,30,9.52a.13.13,0,0,0-.16.06c-.09.2-.32.09-.22-.11a.12.12,0,0,0-.06-.16.12.12,0,0,0-.16.06c-.09.2-.33.09-.23-.11a.13.13,0,0,0-.05-.17.15.15,0,0,0-.17.06.85.85,0,0,1-.28.39c-.22,0-.16.29-.13.46a.6.6,0,0,0-.73.51h0c-.34,0-.66.18-.64.49a.53.53,0,0,0,.3.4s0-.18.16-.19a.45.45,0,0,1,.43.28c0,.17-.11.59.44.65,0,0,0,.09,0,.18a1.36,1.36,0,0,0-.45,0c-.34.06-.82.25-.94.6a.72.72,0,0,0,0,.26c0,.07.07.16.06.25a.57.57,0,0,1-.11.16,1.11,1.11,0,0,1-.65.31.83.83,0,0,1-.63-.3c-.35-.48.11-1.29.1-1.6,0-.81-1.05-.33-1.45-.11A3.92,3.92,0,0,0,23.16,13a3.53,3.53,0,0,0-.48.73c0,.05-.06.05-.1.05a2.47,2.47,0,0,0,.86.24,1.39,1.39,0,0,0,1-.27.24.24,0,0,1,.14,0,.26.26,0,0,1,.16.07l.11.1.13.1L25,14l.21.16,0,0,.23.18.21.15h0a.15.15,0,0,1,0,.06.14.14,0,0,1,0,.1l-.11.13a3.79,3.79,0,0,0-.54.93,1.23,1.23,0,0,0,1,.73.52.52,0,0,0,.58-.42l0,0c.05,0,.25,1.06.52,1.36-.25.12-.64.51-.43,1.6a9.78,9.78,0,0,1-.77-.65,1.16,1.16,0,0,0-.93-.8,4.68,4.68,0,0,0,.41.92A2.56,2.56,0,0,1,25.7,20c.26-.27.22-1,.22-1L26,19c.05,0,.31.49.75.6a5.77,5.77,0,0,0,1.86,2c0,.24,0,.81-.14.81-.49.11-.95-.23-1.38-.21l-.08,0c-1.88-.91-4.35,1-4.77,1.41-.21.2-.46-.07-.46-.07a.61.61,0,0,0-.54-.25.59.59,0,0,0-.53.25s-.25.27-.47.07c-.39-.35-2.63-2.09-4.47-1.5,0-.1-.25-.15-.32-.18a1.71,1.71,0,0,1-.36-.2,2.33,2.33,0,0,0-.75-.06,1.08,1.08,0,0,1-.3-.11,2.79,2.79,0,0,1-.81-.67l-.12-.16a1.22,1.22,0,0,1-.21-.38A2.84,2.84,0,0,1,13,19.18c0-.27,0-.29.06-.58A3.47,3.47,0,0,0,15,16.86a1.88,1.88,0,0,0,.1-.19l.16,0c.46,0,.78-.26,1.29-.2,0,0,.06.25.39.38a2,2,0,0,0,.17.87s.06.08.08.12a3.6,3.6,0,0,0,.29-1.21.19.19,0,0,1,0-.1,1.09,1.09,0,0,0-.63-.86,3.14,3.14,0,0,1-.37-.18,1.28,1.28,0,0,1-.49-.49l.12-.13a2.91,2.91,0,0,0,.61-1.39c.24-.34.94-.21,1.2-.16a.56.56,0,0,1,.23.07c.08.06.1.17.2.22a.87.87,0,0,0,.36,0,.64.64,0,0,1,.11.2l.11.14a2.83,2.83,0,0,0,.94-.27l-.05,0a1.14,1.14,0,0,0-.57-.42c-.26,0-.31-.27-.56-.32a.82.82,0,0,0-.35,0,6.17,6.17,0,0,1-1.44-.18c-.49,0-.5.3-.68.57a1.46,1.46,0,0,1-.22.3c-.14.13-.29.14-.45.26l-.08-.2a1.61,1.61,0,0,0-.22-.51A1.7,1.7,0,0,0,14,12.27a.76.76,0,0,1-.2-.12.1.1,0,0,1,0-.17c.17-.09.46-.06.65-.15.46-.21.3-.61.11-.64a5.08,5.08,0,0,1-.74-.21c-.11-.07-.31-.42-.49-.51s-.14-.39-.32-.46a.54.54,0,0,0-.34.09c0-.07-.06-.45-.27-.57s-.21.05-.2.14.23.19.27.55a.41.41,0,0,0-.11.07.73.73,0,0,0-.25-.47c-.16-.09-.22,0-.21.14s.2.18.26.48l-.13.12c-.31-.09-.4-.3-.48-.31s-.23,0-.15.19.31.25.45.3l-.09.1c-.36-.07-.45-.31-.53-.33s-.23,0-.16.19.52.32.56.33a.45.45,0,0,0-.09.25c-.28,0-.78.12-.68.46.09.06.42-.21.73-.06.2.32.53.33.6.39a.82.82,0,0,1,.18.4,3.63,3.63,0,0,0,.44.73c.18.26.36.54.54.77a.51.51,0,0,1,0,.23,7.35,7.35,0,0,1-1.08,1c-.26.24-2.69,2.1-3,2.9a1.7,1.7,0,0,0-.1.66c-.14.08-.47.2-.57.06s.18-.46.1-.71a.2.2,0,0,0-.27-.1.82.82,0,0,0,.09,1.38c.42.17.48-.28.8-.1.08.05.85.74.72,1.28a.29.29,0,0,1-.05.13c-.17.21-.45.37-.64.57-.4.25.38,1.86.31,2.68,0,.31.26.27.45.76a.58.58,0,0,0-.47.2.35.35,0,0,0-.08.24.4.4,0,0,0,.8,0,.13.13,0,0,0,0-.06.89.89,0,0,1,.33.07l.35.19a3.59,3.59,0,0,1-3.27.44s-.92-.29-.66-1.11a.49.49,0,0,1,.17-.21.47.47,0,0,0,.18.27.5.5,0,0,0,.27.08.46.46,0,0,0,.46-.46A.48.48,0,0,0,8.1,24l-.06,0H8a.79.79,0,0,0-.66-.07.89.89,0,0,0-.56,1.22s-.6-.14-.83.13a.4.4,0,0,0-.07.23h0a.56.56,0,0,0,.07.19.33.33,0,0,0,.28.15.34.34,0,0,0,.27-.13h0s.1-.07.21,0c1.34,1.4,3.54.82,4.75-.12a7.44,7.44,0,0,1,1.43-1.09c.29.13.6.22.9.33a3,3,0,0,0,.55,1.79.65.65,0,0,1-.92.28.49.49,0,0,1-.06-.73s.24-.2.35.06a.23.23,0,0,0-.23.23.24.24,0,0,0,.24.24.24.24,0,0,0,.23-.23.57.57,0,0,0-.19-.51.6.6,0,0,0-.53-.14c-.51.08-.8,1.14.2,1.58,0,0,.8.36,1.2-.23,0,0,0-.08.15.07.84.81,2.71.57,3.45,0a4.37,4.37,0,0,1,.4-.22.58.58,0,1,0,.68-.59,1.26,1.26,0,0,0-.93.22,4.53,4.53,0,0,1-.54.31,3.26,3.26,0,0,0,.4-1.15c.82.09,1.65.14,2.52.16a2.69,2.69,0,0,1-.14.8s-.31.13-.32.34c0,0,0,.16.24.38a1.53,1.53,0,0,1,.26.39s0,.24.34.24h.13c.32,0,.34-.24.34-.24a1.6,1.6,0,0,1,.25-.39c.28-.22.24-.38.24-.38,0-.21-.31-.34-.31-.34a2.4,2.4,0,0,1-.14-.8c.86,0,1.7-.07,2.52-.16A3.46,3.46,0,0,0,24.58,27a5.49,5.49,0,0,1-.54-.31,1.26,1.26,0,0,0-.93-.22.59.59,0,0,0-.48.58.59.59,0,0,0,1.17,0c.2.1.39.22.39.22.74.55,2.62.79,3.46,0,.15-.15.14-.07.14-.07.41.59,1.2.23,1.2.23,1-.44.72-1.5.21-1.58a.59.59,0,0,0-.53.14.55.55,0,0,0-.19.51.23.23,0,0,0,.23.23.23.23,0,0,0,.23-.24.22.22,0,0,0-.22-.23c.1-.26.35-.06.35-.06a.48.48,0,0,1-.07.73.65.65,0,0,1-.92-.28,2.92,2.92,0,0,0,.56-1.79c.3-.11.61-.2.9-.33A7.84,7.84,0,0,1,31,25.58c1.21.94,3.4,1.52,4.75.12.1-.11.18-.07.2,0h0a.37.37,0,0,0,.27.13.35.35,0,0,0,.29-.15.38.38,0,0,0,.06-.19h0a.33.33,0,0,0-.07-.23"/><path class="cls-1" d="M50.08,15.84,50,11.26h0c-.1.58-.19,1-.27,1.31l-.77,3.27H47.36l-.74-3.27c-.07-.31-.17-.73-.28-1.31h0l-.07,4.58h-1l.21-5.42h1.8s.6,2.73.91,4.48h0c.36-1.74,1.07-4.48,1.07-4.48h1.77l.21,5.42Z"/><path class="cls-1" d="M52.47,10.3h1.06v1H52.47Zm0,5.54V12.66l-.46-.1v-.65h1.5v3.93Z"/><path class="cls-1" d="M56.93,15.84V13.5c0-.59-.22-.87-.7-.87a1.27,1.27,0,0,0-.69.24v3h-1V11.91h.72l.16.45a1.61,1.61,0,0,1,1.24-.53c1,0,1.39.58,1.39,1.58v2.43Z"/><path class="cls-1" d="M59.15,10.3h1.06v1H59.15Zm0,5.54V12.66l-.46-.1v-.65h1.5v3.93Z"/><path class="cls-1" d="M62.08,12.94c0,.61,1.71.43,1.71,1.71,0,.71-.53,1.27-1.55,1.27a2.49,2.49,0,0,1-1.18-.29l.21-.73a1.84,1.84,0,0,0,.94.27c.34,0,.57-.19.57-.43,0-.71-1.67-.47-1.67-1.82,0-.57.44-1.09,1.5-1.09a3.15,3.15,0,0,1,1.1.19l-.14.76a2.37,2.37,0,0,0-1-.2c-.36,0-.54.14-.54.36"/><path class="cls-1" d="M66.06,15.92c-.69,0-1.15-.33-1.15-1.32V12.65h-.59v-.74h.59v-.69l1-.33v1h1v.74h-1v1.93a.4.4,0,0,0,.42.45,1.4,1.4,0,0,0,.6-.15l.16.77a2.2,2.2,0,0,1-1.06.27"/><path class="cls-1" d="M69.23,12.6c-.52,0-.74.47-.74.93h1.44c0-.5-.15-.93-.7-.93m-.74,1.55a.9.9,0,0,0,1,1,2.55,2.55,0,0,0,1.15-.33l.2.74a3.19,3.19,0,0,1-1.48.39,1.84,1.84,0,0,1-1.94-2.06c0-1.21.59-2,1.85-2s1.65.88,1.65,1.86v.46Z"/><path class="cls-1" d="M74,12.78a1.83,1.83,0,0,0-.49-.06,1.18,1.18,0,0,0-.71.26v2.86h-1V11.91h.73l.11.53h0a1.05,1.05,0,0,1,.94-.61,2,2,0,0,1,.46.06Z"/><path class="cls-1" d="M74.89,10.3H76v1H74.89Zm0,5.54V12.66l-.46-.1v-.65H76v3.93Z"/><path class="cls-1" d="M79.37,13.86c0-.94-.28-1.27-.77-1.27s-.76.33-.76,1.27.25,1.29.76,1.29.77-.35.77-1.29m1.08,0c0,1.34-.68,2.06-1.85,2.06s-1.84-.71-1.84-2.06a1.85,1.85,0,1,1,3.69,0"/><path class="cls-1" d="M85.45,12.81a1.4,1.4,0,0,0-.72-.2c-.5,0-.81.34-.81,1.25s.3,1.3.8,1.3a1.06,1.06,0,0,0,.73-.34Zm.09-.6a2.53,2.53,0,0,1-.09-.72V10.3h1v5.54h-.85l-.12-.44a1.29,1.29,0,0,1-1,.52c-.89,0-1.6-.64-1.6-2.05s.74-2,1.69-2a1.28,1.28,0,0,1,1,.38"/><path class="cls-1" d="M89.07,12.6c-.52,0-.74.47-.74.93h1.44c0-.5-.15-.93-.7-.93m-.74,1.55a.89.89,0,0,0,1,1,2.59,2.59,0,0,0,1.16-.33l.2.74a3.19,3.19,0,0,1-1.48.39,1.83,1.83,0,0,1-1.94-2.06c0-1.21.59-2,1.85-2s1.65.88,1.65,1.86v.46Z"/><polygon class="cls-1" points="45.38 23.4 45.38 17.98 48.71 17.98 48.71 18.87 46.43 18.87 46.43 20.2 48.17 20.2 48.09 21.14 46.43 21.14 46.43 22.52 48.71 22.52 48.71 23.4 45.38 23.4"/><path class="cls-1" d="M51.64,20.36a1.47,1.47,0,0,0-.71-.19c-.5,0-.81.34-.81,1.25s.29,1.29.79,1.29a1,1,0,0,0,.73-.33Zm.1-.59a2.2,2.2,0,0,1-.1-.72V17.86h1V23.4h-.85L51.71,23a1.28,1.28,0,0,1-1,.52c-.89,0-1.61-.64-1.61-2.05s.74-2,1.7-2a1.29,1.29,0,0,1,1,.38"/><path class="cls-1" d="M56.37,23.4l-.16-.48a1.54,1.54,0,0,1-1.23.56c-1,0-1.42-.55-1.42-1.63V19.47h1v2.39c0,.6.22.82.69.82a1.29,1.29,0,0,0,.71-.24v-3h1.06V23.4Z"/><path class="cls-1" d="M61.07,23.13a3.09,3.09,0,0,1-1.35.35c-1.17,0-1.88-.67-1.88-2.05a1.8,1.8,0,0,1,1.87-2,2.65,2.65,0,0,1,1.35.32l-.27.71a2,2,0,0,0-1-.24c-.55,0-.89.37-.89,1.25s.33,1.25.9,1.25a2.29,2.29,0,0,0,1.06-.29Z"/><path class="cls-1" d="M63.89,21.68h-.65c-.43,0-.63.21-.63.51a.52.52,0,0,0,.58.57,1.18,1.18,0,0,0,.7-.26Zm.3,1.72L64,22.93a1.38,1.38,0,0,1-1.14.55,1.22,1.22,0,0,1-1.32-1.26c0-.73.54-1.17,1.48-1.17h.83v-.2c0-.5-.29-.66-.69-.66a2.94,2.94,0,0,0-1.18.26l-.26-.74a3.92,3.92,0,0,1,1.54-.32c1.12,0,1.6.51,1.6,1.51v2.5Z"/><path class="cls-1" d="M68.94,23.13a3,3,0,0,1-1.34.35c-1.17,0-1.88-.67-1.88-2.05a1.8,1.8,0,0,1,1.87-2,2.65,2.65,0,0,1,1.35.32l-.28.71a1.92,1.92,0,0,0-1-.24c-.55,0-.89.37-.89,1.25s.33,1.25.89,1.25a2.33,2.33,0,0,0,1.07-.29Z"/><path class="cls-1" d="M69.93,17.86H71v1H69.93Zm0,5.54V20.22l-.45-.1v-.65H71V23.4Z"/><path class="cls-1" d="M74.42,21.42c0-.94-.29-1.27-.77-1.27s-.77.33-.77,1.27.25,1.29.77,1.29.77-.35.77-1.29m-1.75-2.56-.1-.61,2-.57.14.78Zm2.82,2.56c0,1.34-.67,2.06-1.84,2.06s-1.85-.71-1.85-2.06a1.85,1.85,0,1,1,3.69,0"/><path class="cls-1" d="M78.72,23.4V21.06c0-.59-.23-.87-.71-.87a1.27,1.27,0,0,0-.69.24v3h-1V19.47H77l.16.45a1.62,1.62,0,0,1,1.24-.53c1,0,1.39.58,1.39,1.58V23.4Z"/></g></g></svg>