<svg xmlns="http://www.w3.org/2000/svg" viewBox="0 0 287.59 54.33"><defs><style>.cls-1{fill:#ffdb00;}.cls-2{fill:#1d1d1b;}.cls-3{fill:#000003;}</style></defs><title>obs-Recurso 14</title><g id="Capa_2" data-name="Capa 2"><g id="Capa_1-2" data-name="Capa 1"><path class="cls-1" d="M8.91,0S0,0,0,8.91V45.42s0,8.91,8.91,8.91H278.68s8.91,0,8.91-8.91V8.91s0-8.91-8.91-8.91Z"/><path class="cls-2" d="M129.55,36.28h-2.34V33.13h2.4a1.58,1.58,0,0,1-.06,3.15m.08-4.28H126v8.07h1.24V37.41h2.36a2.71,2.71,0,1,0,.06-5.41M123,40.07h1.26V32H123Zm-4.71-4.53h-1.94v-2h-1v2h-2v1h2v2h1v-2h1.94Zm-9-3.54h-6.94v1.13h2.85v6.94h1.25V33.13h2.84Zm-7.55,1.14V32H96v8.07h1.25v-3.4h3.89V35.56H97.27V33.14ZM90.84,40.22a3.87,3.87,0,0,0,3.82-2.5l-1.21-.31a2.67,2.67,0,0,1-2.62,1.64,2.91,2.91,0,0,1-2.93-3,2.88,2.88,0,0,1,2.93-3,2.72,2.72,0,0,1,2.63,1.66l1.21-.3a3.88,3.88,0,0,0-3.84-2.53,4.19,4.19,0,1,0,0,8.37"/><path class="cls-2" d="M216.64,23.17l1.49-3.81,1.49,3.81Zm4.18,3.07h1.3l-3.19-8.07h-1.6l-3.2,8.07h1.31l.77-2h3.84Zm-8.94-8.07v3.39h-4.2V18.17h-1.26v8.07h1.26V22.69h4.2v3.55h1.24V18.17Zm-10.63,8.22a3.87,3.87,0,0,0,3.81-2.5l-1.21-.31a2.66,2.66,0,0,1-2.62,1.63,2.9,2.9,0,0,1-2.92-3,2.89,2.89,0,0,1,2.92-3,2.71,2.71,0,0,1,2.63,1.66l1.21-.3A3.87,3.87,0,0,0,201.23,18a4.19,4.19,0,1,0,0,8.37m-6.85-.15h1.27V18.17H194.4Zm-1.13-6.93V18.17h-5.73v8.07h1.26v-3.4h3.88V21.73H188.8V19.31ZM178,23.17l1.5-3.81L181,23.17Zm4.18,3.07h1.3l-3.19-8.07h-1.6l-3.19,8.07h1.3l.77-2h3.84ZM176,18.17h-6.94V19.3h2.85v6.94h1.25V19.3H176Zm-10.34,8.22c1.89,0,3.16-1.1,3.16-2.44s-.86-1.77-2.11-2.16l-2-.63c-.73-.22-1-.5-1-1s.62-1.07,1.53-1.07a2.4,2.4,0,0,1,2.23,1.24l1.16-.34a3.53,3.53,0,0,0-3.39-2c-1.62,0-2.78,1-2.78,2.21,0,1,.73,1.64,1.8,2l2,.65c.95.3,1.28.65,1.28,1.18s-.71,1.25-1.83,1.25a2.59,2.59,0,0,1-2.51-1.68L162,24a3.73,3.73,0,0,0,3.63,2.43m-4.43-7.09V18.17h-5.8v8.07h5.79V25.1h-4.56V22.68h4V21.59h-4V19.3Zm-15.34,3.87,1.5-3.81,1.49,3.81Zm4.19,3.07h1.3l-3.19-8.07h-1.61l-3.19,8.07h1.3l.78-2h3.83Zm-6.94-4.38H139v1.08l2.81,0a2.5,2.5,0,0,1-2.7,2.31,3,3,0,0,1-3.08-3.05,2.92,2.92,0,0,1,3-3,2.73,2.73,0,0,1,2.64,1.58l1.17-.32A3.94,3.94,0,0,0,139,18a4.19,4.19,0,1,0,.06,8.37,3.76,3.76,0,0,0,4-3.89Zm-14.62-2.57h2.56a1.43,1.43,0,1,1,0,2.85h-2.53Zm4,7H134l-2.08-3.1a2.48,2.48,0,0,0,1.88-2.42,2.56,2.56,0,0,0-2.65-2.55h-3.84v8.07h1.24v-3h2Zm-11.75-3.07,1.49-3.81,1.49,3.81ZM125,26.24h1.3l-3.19-8.07h-1.6l-3.2,8.07h1.31l.77-2h3.84ZM114,26.39a3.87,3.87,0,0,0,3.82-2.5l-1.21-.31A2.66,2.66,0,0,1,114,25.21a2.91,2.91,0,0,1-2.93-3,2.89,2.89,0,0,1,2.93-3,2.71,2.71,0,0,1,2.63,1.66l1.21-.3A3.88,3.88,0,0,0,114,18a4.19,4.19,0,1,0,0,8.37m-8.23,0c1.89,0,3.16-1.1,3.16-2.44s-.86-1.77-2.11-2.16l-2-.63c-.73-.22-1-.5-1-1s.63-1.07,1.54-1.07a2.38,2.38,0,0,1,2.22,1.24l1.17-.34a3.55,3.55,0,0,0-3.39-2c-1.63,0-2.79,1-2.79,2.21,0,1,.73,1.64,1.81,2l2,.65c.94.3,1.28.65,1.28,1.18s-.72,1.25-1.84,1.25a2.59,2.59,0,0,1-2.51-1.68l-1.19.36a3.73,3.73,0,0,0,3.63,2.43m-4.42-7.09V18.17H95.57v8.07h5.79V25.1H96.8V22.68h4V21.59h-4V19.3ZM90.25,25.11h-2V19.3h2a2.64,2.64,0,0,1,2.69,2.88,2.66,2.66,0,0,1-2.69,2.93m0-6.94H87v8.07h3.29a3.76,3.76,0,0,0,3.92-4,3.76,3.76,0,0,0-3.92-4"/><path d="M59.87,35.78a10.87,10.87,0,0,0,0-15.5A33.94,33.94,0,0,1,70,28,34.1,34.1,0,0,1,59.87,35.78ZM34.52,28a33.94,33.94,0,0,1,10.09-7.75,10.87,10.87,0,0,0,0,15.5A34.1,34.1,0,0,1,34.52,28m27.32,0a9.6,9.6,0,1,1-9.6-9.6,9.6,9.6,0,0,1,9.6,9.6m9.46-.4a35.17,35.17,0,0,0-5.54-5.23c-3.15-2.4-8-5.25-13.52-5.25S41.87,20,38.72,22.4a34.72,34.72,0,0,0-5.54,5.23.63.63,0,0,0,0,.8,34.72,34.72,0,0,0,5.54,5.23c3.15,2.4,8,5.25,13.52,5.25s10.37-2.85,13.52-5.25a35.11,35.11,0,0,0,5.54-5.22.65.65,0,0,0,0-.81"/><rect x="51.6" y="11.39" width="1.28" height="4.48"/><rect x="57.45" y="13.95" width="4.29" height="1.28" transform="translate(19.91 61.38) rotate(-63.44)"/><rect x="44.24" y="12.44" width="1.28" height="4.29" transform="translate(-1.78 21.63) rotate(-26.59)"/><rect x="64.27" y="16.83" width="4.1" height="1.28" transform="translate(11.27 58.37) rotate(-51.37)"/><rect x="37.52" y="15.42" width="1.28" height="4.1" transform="translate(-2.55 27.67) rotate(-38.66)"/><rect x="51.6" y="40.19" width="1.28" height="4.48"/><rect x="58.96" y="39.33" width="1.28" height="4.29" transform="translate(-12.26 31.06) rotate(-26.59)"/><rect x="42.73" y="40.83" width="4.29" height="1.28" transform="translate(-12.29 63.06) rotate(-63.43)"/><rect x="65.7" y="36.54" width="1.28" height="4.1" transform="translate(-9.57 49.9) rotate(-38.66)"/><rect x="36.11" y="37.95" width="4.1" height="1.28" transform="translate(-15.81 44.31) rotate(-51.37)"/><path class="cls-3" d="M52.09,30.85V35.4a.6.6,0,0,1-.17.44.57.57,0,0,1-.43.16.64.64,0,0,1-.45-.16.55.55,0,0,1-.19-.44V30.85h-1.7l1.77-6h-.3l-.49,1.64c-.12.42-.24.83-.36,1.22s-.21.63-.22.71a.47.47,0,0,1-.51.38l-.13,0a.48.48,0,0,1-.37-.48.35.35,0,0,1,0-.17,2.83,2.83,0,0,0,.13-.45c.06-.25.16-.56.27-.93s.23-.78.35-1.21.25-.85.39-1.25a1.81,1.81,0,0,1,.56-.84,1.36,1.36,0,0,1,.9-.37h2.09a1.37,1.37,0,0,1,.92.37,2.12,2.12,0,0,1,.58.84l.35,1.25c.12.43.25.84.35,1.21l.27.93a2.39,2.39,0,0,0,.14.45l0,.14a.47.47,0,0,1-.37.5l-.13,0a.47.47,0,0,1-.51-.38l-.19-.71c-.12-.39-.24-.8-.38-1.22l-.49-1.65h-.3l1.77,6H53.63V35.4a.52.52,0,0,1-.19.44A.61.61,0,0,1,53,36a.55.55,0,0,1-.6-.6V30.85Z"/><path class="cls-3" d="M52.26,22.71a1.22,1.22,0,0,0,.9-.36,1.33,1.33,0,0,0,0-1.86,1.16,1.16,0,0,0-.9-.39,1.3,1.3,0,0,0-1,.39,1.33,1.33,0,0,0,0,1.86,1.38,1.38,0,0,0,1,.36"/></g></g></svg>