<svg xmlns="http://www.w3.org/2000/svg" viewBox="0 0 275.29 55.1"><defs><style>.cls-1{fill:#1d1d1b;}</style></defs><title>obs-Recurso 11</title><g id="Capa_2" data-name="Capa 2"><g id="Capa_1-2" data-name="Capa 1"><path class="cls-1" d="M147,42h-6.83V33h7.06a4.39,4.39,0,0,1,4.28,4.5A4.45,4.45,0,0,1,147,42m.38-13.67H135.1V54.57h5.11v-8h7a9.13,9.13,0,1,0,.23-18.25M123.88,54.57h5.22V28.29h-5.22ZM107.7,39.44h-6.24V33.17H97.52v6.27H91.25v3.94h6.27v6.24h3.94V43.38h6.24ZM77,28.29H54.15V33H63V54.57h5.14V33H77ZM51.49,33V28.29H32.38V54.57h5.14V44.13h12V39.52h-12V33ZM15.07,55.1c6.94,0,11.37-4.24,12.58-8.45l-5-1.28C21.79,48,19,50.25,15,50.25c-5.18,0-8.48-4.16-8.48-8.89s3.3-8.75,8.48-8.75a7.85,7.85,0,0,1,7.66,4.92l5-1.24c-1.2-4.17-5.63-8.53-12.73-8.53A13.4,13.4,0,0,0,1.25,41.39,13.46,13.46,0,0,0,15.07,55.1"/><path class="cls-1" d="M269.63,18.86c3.4,0,5.66-2,5.66-4.39s-1.63-3.21-3.8-3.88L268,9.46c-.93-.29-1.36-.71-1.36-1.34,0-.82.89-1.53,2.29-1.53a3.82,3.82,0,0,1,3.49,1.94L275,7.78a6.35,6.35,0,0,0-6.08-3.64c-2.95,0-5.1,1.86-5.08,4.07,0,1.81,1.34,3,3.2,3.59l3.61,1.13c1.36.45,1.86,1,1.86,1.7,0,.93-1,1.78-2.68,1.78a4.18,4.18,0,0,1-4.05-2.65l-2.64.81a6.71,6.71,0,0,0,6.52,4.29m-15.44-2.57a4.53,4.53,0,0,1-4.62-4.81,4.63,4.63,0,1,1,9.25,0,4.55,4.55,0,0,1-4.63,4.81m0,2.57a7.23,7.23,0,0,0,7.42-7.38,7.43,7.43,0,0,0-14.85,0,7.23,7.23,0,0,0,7.43,7.38M246.13,4.43H233.86v2.5h4.75V18.57h2.77V6.93h4.75Zm-21,8.63,2.27-6,2.26,6Zm6.61,5.51h2.89L229.17,4.43h-3.59l-5.42,14.14H223l1.17-3.07h6.37Zm-19.1-2.5h-3.33V6.91h3.33c2.43,0,4,1.84,4,4.53s-1.61,4.63-4,4.63m.06-11.64h-6.14V18.57h6.14c4.17,0,6.77-3,6.77-7.07s-2.64-7.07-6.77-7.07m-14.55,2.5V4.43H187.7V18.57h10.41v-2.5h-7.7V12.59h6.69V10.17h-6.69V6.93Zm-19.9,9.14h-3.34V6.91h3.34c2.42,0,4,1.84,4,4.53s-1.62,4.63-4,4.63m.06-11.64h-6.15V18.57h6.15c4.16,0,6.77-3,6.77-7.07s-2.65-7.07-6.77-7.07m-17.73,0V13.6l-7.11-9.17h-2.28V18.57h2.77V9.38l7.11,9.19h2.28V4.43ZM141.1,16.29a4.54,4.54,0,0,1-4.63-4.81,4.63,4.63,0,1,1,9.26,0,4.55,4.55,0,0,1-4.63,4.81m0,2.57a7.23,7.23,0,0,0,7.42-7.38,7.43,7.43,0,0,0-14.85,0,7.23,7.23,0,0,0,7.43,7.38m-1.37-16H142L144.21,0h-2.93ZM128.21,18.57H131V4.43h-2.81Zm-9.32.29a6.77,6.77,0,0,0,6.77-4.55L123,13.62a4.18,4.18,0,0,1-4.12,2.63,4.57,4.57,0,0,1-4.57-4.79,4.51,4.51,0,0,1,4.57-4.71A4.22,4.22,0,0,1,123,9.4l2.71-.67a6.85,6.85,0,0,0-6.85-4.59,7.22,7.22,0,0,0-7.38,7.34,7.25,7.25,0,0,0,7.44,7.38m-17.62-5.8,2.26-6,2.27,6Zm6.61,5.51h2.89L105.33,4.43h-3.6L96.32,18.57h2.87l1.17-3.07h6.37ZM87.45,16.11l7.41-9.8V4.43H83.75V6.89H91l-7.43,9.82v1.86H95.06V16.11Zm-9.26,2.46H81V4.43H78.19ZM68.75,16V4.43H66V18.57h9.83V16Zm-14.25-3,2.27-6,2.26,6Zm6.61,5.51H64L58.57,4.43H55L49.55,18.57h2.87l1.17-3.07H60ZM45.49,4.43v8.3c0,2.08-1.11,3.58-3.33,3.58s-3.32-1.5-3.32-3.58V4.43H36v8.34c0,3.6,2.17,6.09,6.13,6.09s6.12-2.49,6.12-6.09V4.43ZM28,18.86c3.4,0,5.66-2,5.66-4.39s-1.64-3.21-3.8-3.88L26.37,9.46C25.44,9.17,25,8.75,25,8.12c0-.82.89-1.53,2.28-1.53a3.84,3.84,0,0,1,3.5,1.94l2.56-.75a6.34,6.34,0,0,0-6.08-3.64c-3,0-5.09,1.86-5.07,4.07,0,1.81,1.33,3,3.19,3.59L29,12.93c1.35.45,1.86,1,1.86,1.7,0,.93-1,1.78-2.69,1.78a4.18,4.18,0,0,1-4-2.65l-2.65.81A6.73,6.73,0,0,0,28,18.86m-11.82-.29H19V4.43H16.21ZM11.14,4.43,7.09,15.06l-4-10.63H0L5.58,18.57h3L14.19,4.43Z"/></g></g></svg>