<svg xmlns="http://www.w3.org/2000/svg" viewBox="0 0 333.76 263.5"><defs><style>.cls-1{fill:#fff;}.cls-2{fill:#1d1d1b;}.cls-3{fill:#797979;}.cls-4{fill:#eb5954;}.cls-5{fill:#76bdac;}.cls-6{fill:#bb73ae;}.cls-7{fill:#ffdb00;}</style></defs><title>obs-Recurso 7</title><g id="Capa_2" data-name="Capa 2"><g id="Capa_1-2" data-name="Capa 1"><path class="cls-1" d="M8.91,0S0,0,0,8.91V254.59s0,8.91,8.91,8.91H324.85s8.91,0,8.91-8.91V8.91s0-8.91-8.91-8.91Z"/><path class="cls-2" d="M299.17,24h-2V18.19h2a2.64,2.64,0,0,1,2.68,2.89A2.65,2.65,0,0,1,299.17,24m0-6.94H295.9v8.07h3.29a3.76,3.76,0,0,0,3.92-4,3.77,3.77,0,0,0-3.92-4m-9.79,5,1.5-3.82,1.49,3.82Zm4.19,3.06h1.3l-3.19-8.07h-1.61l-3.19,8.07h1.3l.78-2h3.83ZM282.71,24h-2V18.19h2a2.64,2.64,0,0,1,2.68,2.89A2.65,2.65,0,0,1,282.71,24m0-6.94h-3.29v8.07h3.29a3.76,3.76,0,0,0,3.92-4,3.77,3.77,0,0,0-3.92-4m-6.28,8.07h1.26V17.06h-1.26Zm-4.59.15c1.89,0,3.16-1.09,3.16-2.44s-.87-1.76-2.11-2.16l-2-.63c-.72-.22-1-.5-1-1s.62-1.07,1.53-1.07a2.4,2.4,0,0,1,2.23,1.25l1.16-.35a3.53,3.53,0,0,0-3.39-2c-1.62,0-2.79,1-2.79,2.22,0,1,.74,1.63,1.81,2l2,.64c.95.3,1.28.65,1.28,1.18s-.71,1.26-1.83,1.26a2.61,2.61,0,0,1-2.52-1.69l-1.18.36a3.72,3.72,0,0,0,3.63,2.43m-9.8-7.1h2.56a1.43,1.43,0,1,1,0,2.85h-2.53Zm4,7h1.44L265.43,22a2.46,2.46,0,0,0,1.87-2.42,2.56,2.56,0,0,0-2.65-2.55h-3.83v8.07h1.24v-3h2Zm-6.75-6.94V17.06h-5.81v8.07h5.8V24h-4.57V21.57h4V20.49h-4v-2.3Zm-8.21-1.13-2.52,6.52-2.53-6.52h-1.37l3.22,8.07h1.34l3.22-8.07Zm-8.72,8.07h1.26V17.06h-1.26Zm-3-8.07v5.85l-4.47-5.85h-1.05v8.07h1.25V19.29l4.48,5.84h1V17.06Zm-8.43,0v4.79a2.15,2.15,0,1,1-4.29,0V17.06h-1.25v4.81a3.41,3.41,0,1,0,6.81,0V17.06ZM215.7,18.18h2.56a1.43,1.43,0,1,1,0,2.85H215.7Zm4,7h1.44L219.07,22a2.46,2.46,0,0,0,1.87-2.42,2.56,2.56,0,0,0-2.65-2.55h-3.83v8.07h1.24v-3h2Zm-10.82-1a2.91,2.91,0,0,1-2.95-3.05,2.95,2.95,0,1,1,5.89,0,2.91,2.91,0,0,1-2.94,3.05m0,1.15a4.19,4.19,0,1,0-4.21-4.19,4.1,4.1,0,0,0,4.21,4.19M201,21.34h-2.34V18.19h2.4a1.58,1.58,0,1,1-.06,3.15m.09-4.28h-3.67v8.07h1.24V22.47H201a2.71,2.71,0,1,0,.06-5.41m-11.29,8.22c1.89,0,3.16-1.09,3.16-2.44s-.87-1.76-2.11-2.16l-2-.63c-.73-.22-1-.5-1-1s.62-1.07,1.53-1.07a2.4,2.4,0,0,1,2.23,1.25l1.16-.35a3.53,3.53,0,0,0-3.39-2c-1.62,0-2.78,1-2.78,2.22,0,1,.73,1.63,1.8,2l2,.64c.95.3,1.28.65,1.28,1.18s-.71,1.26-1.83,1.26a2.59,2.59,0,0,1-2.51-1.69l-1.19.36a3.73,3.73,0,0,0,3.63,2.43m-9.43-3.21,1.5-3.82,1.49,3.82Zm4.19,3.06h1.3l-3.19-8.07h-1.61l-3.19,8.07h1.3l.78-2h3.83Zm-12.7-6.95h2.56a1.43,1.43,0,1,1,0,2.85h-2.53Zm4,7h1.44L175.24,22a2.47,2.47,0,0,0,1.88-2.42,2.56,2.56,0,0,0-2.65-2.55h-3.84v8.07h1.24v-3h2Zm-10.83-1a2.91,2.91,0,0,1-2.95-3.05,2.95,2.95,0,1,1,5.89,0,2.9,2.9,0,0,1-2.94,3.05m0,1.15a4.19,4.19,0,1,0-4.2-4.19,4.1,4.1,0,0,0,4.2,4.19m-4.37-8.22h-6.94v1.13h2.85v6.94h1.26V18.19h2.83ZM149.5,25.28a3.87,3.87,0,0,0,3.82-2.5l-1.21-.31a2.68,2.68,0,0,1-2.62,1.64,2.91,2.91,0,0,1-2.93-3,2.88,2.88,0,0,1,2.93-3,2.72,2.72,0,0,1,2.63,1.66l1.21-.3a3.88,3.88,0,0,0-3.84-2.53,4.19,4.19,0,1,0,0,8.37m-5.18-7.09V17.06h-5.8v8.07h5.79V24h-4.56V21.57h4V20.49h-4v-2.3Zm-12.58,0h2.56a1.43,1.43,0,1,1,0,2.85h-2.52Zm4,7h1.44L135.1,22A2.46,2.46,0,0,0,137,19.61a2.56,2.56,0,0,0-2.65-2.55h-3.84v8.07h1.25v-3h2Zm-12-6.95h2.56a1.43,1.43,0,1,1,0,2.85h-2.53Zm4,7h1.44L127.08,22A2.47,2.47,0,0,0,129,19.61a2.56,2.56,0,0,0-2.65-2.55h-3.84v8.07h1.24v-3h2.05ZM121,18.19V17.06h-5.81v8.07H121V24h-4.57V21.57h4V20.49h-4v-2.3Zm-11,7.09a3.87,3.87,0,0,0,3.81-2.5l-1.21-.31A2.66,2.66,0,0,1,110,24.11a2.9,2.9,0,0,1-2.92-3,2.88,2.88,0,0,1,2.92-3,2.71,2.71,0,0,1,2.63,1.66l1.21-.3A3.87,3.87,0,0,0,110,16.91a4.19,4.19,0,1,0,0,8.37m-6.85-.15h1.27V17.06h-1.27Zm-2.4-8.07-2.52,6.52-2.53-6.52H94.32l3.22,8.07h1.35l3.21-8.07ZM90.48,18.19V17.06H84.67v8.07h5.8V24H85.91V21.57h4V20.49h-4v-2.3ZM79.36,24h-2V18.19h2a2.64,2.64,0,0,1,2.69,2.89A2.66,2.66,0,0,1,79.36,24m0-6.94H76.1v8.07h3.28a3.75,3.75,0,0,0,3.92-4,3.77,3.77,0,0,0-3.92-4M67.5,24.13a2.91,2.91,0,0,1-3-3.05,2.95,2.95,0,1,1,5.89,0,2.91,2.91,0,0,1-2.94,3.05m0,1.15a4.19,4.19,0,1,0-4.21-4.19,4.1,4.1,0,0,0,4.21,4.19M57,18.18h2.56a1.43,1.43,0,1,1,0,2.85H57Zm4,7h1.44L60.35,22a2.47,2.47,0,0,0,1.88-2.42,2.56,2.56,0,0,0-2.65-2.55H55.74v8.07H57v-3h2Zm-6.76-6.94V17.06H48.43v8.07h5.8V24H49.67V21.57h4V20.49h-4v-2.3Zm-8.73-1.13-2.82,4.06-2.82-4.06h-1.2v8.07h1.26v-5.9l2.75,3.87,2.77-3.87v5.9H46.7V17.06Zm-9.74,0v4.79a2.15,2.15,0,1,1-4.29,0V17.06H30.22v4.81a3.15,3.15,0,0,0,3.4,3.41A3.16,3.16,0,0,0,37,21.87V17.06Zm-.55-2.51H33.87L33,16.14h1.07Zm-7.9,2.51v5.85l-4.48-5.85h-1v8.07h1.25V19.29l4.47,5.84h1.05V17.06Z"/><path class="cls-3" d="M49.69,249.57c-1.84,0-2.77-1.68-2.77-4.23s.93-4.22,2.77-4.22,2.75,1.68,2.75,4.22-.91,4.23-2.75,4.23m0,1.58c2.91,0,4.5-2.48,4.5-5.81s-1.59-5.81-4.5-5.81-4.51,2.47-4.51,5.81,1.6,5.81,4.51,5.81"/><path class="cls-4" d="M28.44,45.81s-8.5,0-8.5,8.51V231.48H76.07V54.32s0-8.51-8.51-8.51Z"/><path class="cls-5" d="M90.24,95.8s-8.51,0-8.51,8.5V231.48h56.13V104.3s0-8.5-8.5-8.5Z"/><path class="cls-6" d="M152,167.21s-8.5,0-8.5,8.51v55.76h56.13V175.72s0-8.51-8.51-8.51Z"/><path class="cls-7" d="M207.33,224.34a2,2,0,0,0-2,2v5.14h56.12v-5.14a2,2,0,0,0-2-2Z"/><path class="cls-3" d="M248.24,53.63a1.61,1.61,0,0,1,0-3.22,1.61,1.61,0,0,1,0,3.22m-.16.88a2,2,0,0,0,1.7-.83v.71h1V49.65h-1v.71a2,2,0,0,0-1.7-.83,2.49,2.49,0,0,0,0,5M243.7,50.4v-.75h-1v4.74h1V52.25c0-1.38.61-1.89,1.62-1.74v-.92a1.48,1.48,0,0,0-1.62.81m-4.62,3.22A1.6,1.6,0,1,1,240.64,52a1.53,1.53,0,0,1-1.56,1.59m0,.89A2.49,2.49,0,1,0,236.56,52a2.44,2.44,0,0,0,2.52,2.49m-3.27-1.08a1.39,1.39,0,0,1-.63.15c-.45,0-.67-.26-.67-.72V50.53H236v-.88h-1.5V48.06h-1v1.59h-.87v.88h.87v2.33c0,1,.46,1.61,1.48,1.61a2.57,2.57,0,0,0,1-.23Zm-6,1.08A2.23,2.23,0,0,0,232,53l-.91-.25a1.36,1.36,0,0,1-1.33.85,1.61,1.61,0,0,1,0-3.22,1.38,1.38,0,0,1,1.33.88L232,51a2.24,2.24,0,0,0-2.25-1.5,2.49,2.49,0,0,0,0,5m-7.2-2.85a1.45,1.45,0,0,1,1.48-1.29,1.36,1.36,0,0,1,1.44,1.28Zm1.56,2.85a2.4,2.4,0,0,0,2.27-1.34l-.9-.27a1.41,1.41,0,0,1-1.35.77,1.44,1.44,0,0,1-1.58-1.34h3.86a2.8,2.8,0,0,0,0-.4,2.28,2.28,0,0,0-2.41-2.4,2.49,2.49,0,0,0,.08,5M219.6,50.4v-.75h-1v4.74h1V52.25c0-1.38.62-1.89,1.63-1.74v-.92a1.49,1.49,0,0,0-1.63.81m-3.58,0v-.75h-1v4.74h1V52.25c0-1.38.61-1.89,1.62-1.74v-.92a1.48,1.48,0,0,0-1.62.81m-6,1.26a1.44,1.44,0,0,1,1.47-1.29A1.36,1.36,0,0,1,213,51.65Zm1.56,2.85a2.41,2.41,0,0,0,2.27-1.34l-.9-.27a1.42,1.42,0,0,1-1.35.77A1.43,1.43,0,0,1,210,52.33h3.86a2.8,2.8,0,0,0,0-.4,2.28,2.28,0,0,0-2.42-2.4,2.49,2.49,0,0,0,.09,5m-5.6,0A2.24,2.24,0,0,0,208.24,53l-.92-.25a1.36,1.36,0,0,1-1.33.85,1.61,1.61,0,0,1,0-3.22,1.38,1.38,0,0,1,1.33.88l.92-.26a2.25,2.25,0,0,0-2.25-1.5,2.49,2.49,0,0,0,0,5m-4.62-.12h1V49.65h-1Zm.5-5.52a.61.61,0,1,0-.62-.61.61.61,0,0,0,.62.61m-2.41.78L198,53.32l-1.48-3.67h-1.08l2,4.74h1.11l2-4.74Zm-9.2-.12a1.91,1.91,0,0,0-1.63.83v-.71h-1v4.74h1V52A1.4,1.4,0,0,1,190,50.45c.77,0,1.17.51,1.17,1.34v2.6h1V51.61a1.82,1.82,0,0,0-1.89-2.08m-5,4.86h1V49.65h-1Zm.5-5.52a.61.61,0,1,0-.62-.61.6.6,0,0,0,.62.61m-3.67,5.64c1.17,0,2-.64,2-1.48s-.58-1.11-1.24-1.3l-1.27-.37c-.32-.1-.51-.23-.51-.47s.33-.57.83-.57A1.28,1.28,0,0,1,183,51l.88-.26a2.13,2.13,0,0,0-2.06-1.19,1.63,1.63,0,0,0-1.81,1.37c0,.68.5,1,1.13,1.22l1.28.38c.42.12.61.27.61.56s-.39.64-1,.64a1.4,1.4,0,0,1-1.37-.89l-.89.26a2.26,2.26,0,0,0,2.23,1.44m-7.43,0c1.17,0,2-.64,2-1.48s-.58-1.11-1.25-1.3l-1.26-.37c-.32-.1-.51-.23-.51-.47s.33-.57.83-.57a1.29,1.29,0,0,1,1.19.66l.88-.26a2.13,2.13,0,0,0-2.06-1.19,1.63,1.63,0,0,0-1.81,1.37c0,.68.5,1,1.13,1.22l1.27.38c.43.12.62.27.62.56s-.39.64-1,.64a1.4,1.4,0,0,1-1.37-.89l-.9.26a2.29,2.29,0,0,0,2.24,1.44m-6.8-2.85a1.43,1.43,0,0,1,1.47-1.29,1.34,1.34,0,0,1,1.44,1.28Zm1.55,2.85a2.41,2.41,0,0,0,2.28-1.34l-.91-.27a1.41,1.41,0,0,1-1.35.77,1.42,1.42,0,0,1-1.57-1.34h3.86c0-.15,0-.26,0-.4a2.27,2.27,0,0,0-2.41-2.4,2.49,2.49,0,0,0,.08,5m-6.17-.88a1.61,1.61,0,0,1,0-3.22,1.61,1.61,0,0,1,0,3.22m1.54-6.12v2.85a2,2,0,0,0-1.7-.83,2.49,2.49,0,0,0,0,5,2,2,0,0,0,1.7-.83v.71h1V47.51ZM157,53.63a1.61,1.61,0,0,1,0-3.22,1.61,1.61,0,0,1,0,3.22m-.16.88a2,2,0,0,0,1.71-.83v.71h1V49.65h-1v.71a2,2,0,0,0-1.71-.83,2.49,2.49,0,0,0,0,5m-6-.88a1.61,1.61,0,0,1,0-3.22,1.61,1.61,0,0,1,0,3.22m1.55-6.12v2.85a2,2,0,0,0-1.71-.83,2.49,2.49,0,0,0,0,5,2,2,0,0,0,1.71-.83v.71h1V47.51Zm-6.2,6.88h1V49.65h-1Zm.5-5.52a.61.61,0,1,0-.62-.61.6.6,0,0,0,.62.61M143,54.51c1.17,0,2-.64,2-1.48s-.57-1.11-1.24-1.3l-1.27-.37c-.32-.1-.51-.23-.51-.47s.33-.57.83-.57A1.28,1.28,0,0,1,144,51l.88-.26a2.12,2.12,0,0,0-2.06-1.19A1.63,1.63,0,0,0,141,50.9c0,.68.5,1,1.13,1.22l1.28.38c.42.12.61.27.61.56s-.38.64-1,.64a1.4,1.4,0,0,1-1.37-.89l-.89.26A2.26,2.26,0,0,0,143,54.51m-4.32-4.11v-.75h-1v4.74h1V52.25c0-1.38.62-1.89,1.63-1.74v-.92a1.49,1.49,0,0,0-1.63.81m-6,1.26a1.45,1.45,0,0,1,1.48-1.29,1.36,1.36,0,0,1,1.44,1.28Zm1.56,2.85a2.4,2.4,0,0,0,2.27-1.34l-.9-.27a1.41,1.41,0,0,1-1.35.77,1.44,1.44,0,0,1-1.58-1.34h3.86a2.8,2.8,0,0,0,0-.4,2.28,2.28,0,0,0-2.41-2.4,2.49,2.49,0,0,0,.08,5m-4-4.86-1.49,3.67-1.48-3.67h-1.08l2,4.74h1.11l2-4.74Zm-5.88,4.74h1V49.65h-1Zm.49-5.52a.61.61,0,1,0-.62-.61.61.61,0,0,0,.62.61m-3.77.66a1.91,1.91,0,0,0-1.63.83v-.71h-1v4.74h1V52a1.4,1.4,0,0,1,1.37-1.58c.77,0,1.17.51,1.17,1.34v2.6h1V51.61a1.82,1.82,0,0,0-1.89-2.08m-5,.12V52a1.4,1.4,0,0,1-1.37,1.58c-.78,0-1.17-.51-1.17-1.34v-2.6h-1v2.78a1.82,1.82,0,0,0,1.88,2.08,1.94,1.94,0,0,0,1.65-.83v.71h1V49.65Zm-9.44,3.94a1.37,1.37,0,1,1,1.42-1.37,1.34,1.34,0,0,1-1.42,1.37m.13-3.62a1.73,1.73,0,0,0-.41,0l1.46-2.22h-1.16l-1.94,3a2.63,2.63,0,0,0-.52,1.47,2.44,2.44,0,0,0,4.88,0A2.25,2.25,0,0,0,106.85,50m-6.36,3.49,1.76-1.66a2.88,2.88,0,0,0,1.24-2.1,2,2,0,0,0-2.27-2A2.22,2.22,0,0,0,99,49.52l.92.26a1.39,1.39,0,0,1,1.37-1.2,1.11,1.11,0,0,1,1.23,1.16c0,.53-.38.94-.91,1.45L99,53.67v.72h4.64v-.93Z"/><path class="cls-4" d="M86.45,45s-5,0-5,5v3s0,5,5,5h3s5,0,5-5V50s0-5-5-5Z"/><path class="cls-3" d="M298.87,85.75a1.61,1.61,0,0,1,0-3.21,1.61,1.61,0,0,1,0,3.21m-.16.89a2,2,0,0,0,1.71-.84v.72h1V81.77h-1v.72a2,2,0,0,0-1.71-.84,2.5,2.5,0,0,0,0,5m-4.38-4.11v-.76h-1v4.75h1V84.37c0-1.37.62-1.88,1.62-1.73v-.92a1.46,1.46,0,0,0-1.62.81m-4.62,3.21a1.6,1.6,0,1,1,1.56-1.59,1.53,1.53,0,0,1-1.56,1.59m0,.9a2.5,2.5,0,1,0-2.52-2.5,2.45,2.45,0,0,0,2.52,2.5m-3.27-1.08a1.38,1.38,0,0,1-.62.15c-.46,0-.68-.27-.68-.73V82.65h1.51v-.88h-1.51V80.19h-1v1.58h-.87v.88h.87V85c0,1,.46,1.61,1.48,1.61a2.52,2.52,0,0,0,1-.22Zm-6,1.08a2.24,2.24,0,0,0,2.25-1.48l-.92-.26a1.35,1.35,0,0,1-1.33.85,1.61,1.61,0,0,1,0-3.21,1.38,1.38,0,0,1,1.33.87l.92-.26a2.26,2.26,0,0,0-2.26-1.5,2.5,2.5,0,0,0,0,5m-7.19-2.85a1.43,1.43,0,0,1,1.47-1.29,1.34,1.34,0,0,1,1.44,1.28Zm1.55,2.85a2.4,2.4,0,0,0,2.27-1.35l-.9-.26a1.59,1.59,0,0,1-2.92-.58h3.85a2.69,2.69,0,0,0,0-.4,2.28,2.28,0,0,0-2.41-2.4,2.5,2.5,0,0,0,.08,5m-4.54-4.11v-.76h-1v4.75h1V84.37c0-1.37.61-1.88,1.62-1.73v-.92a1.45,1.45,0,0,0-1.62.81m-3.59,0v-.76h-1v4.75h1V84.37c0-1.37.61-1.88,1.62-1.73v-.92a1.45,1.45,0,0,0-1.62.81m-6,1.26a1.44,1.44,0,0,1,1.47-1.29,1.35,1.35,0,0,1,1.45,1.28Zm1.56,2.85a2.4,2.4,0,0,0,2.27-1.35l-.9-.26a1.42,1.42,0,0,1-1.35.76,1.44,1.44,0,0,1-1.58-1.34h3.86a2.69,2.69,0,0,0,0-.4,2.28,2.28,0,0,0-2.42-2.4,2.5,2.5,0,0,0,.09,5m-5.59,0a2.24,2.24,0,0,0,2.24-1.48L258,84.9a1.36,1.36,0,0,1-1.33.85,1.61,1.61,0,0,1,0-3.21,1.39,1.39,0,0,1,1.33.87l.91-.26a2.25,2.25,0,0,0-2.25-1.5,2.5,2.5,0,0,0,0,5M252,86.52h1V81.77h-1Zm.5-5.52a.61.61,0,0,0,.62-.61.63.63,0,0,0-1.25,0,.61.61,0,0,0,.63.61m-2.42.77-1.49,3.67-1.48-3.67h-1.07l2,4.75h1.11l2-4.75Zm-9.27,6h1a8.46,8.46,0,0,0,0-8.31h-1a8.46,8.46,0,0,1,0,8.31m-2.14-7.89-2,1,.26.89,1.56-.75v5.45h1v-6.6Zm-2.49,7.89a8.53,8.53,0,0,1,0-8.31h-1a8.46,8.46,0,0,0,0,8.31Zm-8.34-2.06a1.61,1.61,0,0,1,0-3.21,1.61,1.61,0,0,1,0,3.21m-.16.89a2,2,0,0,0,1.71-.84v.72h1V81.77h-1v.72a2,2,0,0,0-1.71-.84,2.5,2.5,0,0,0,0,5m-5.32-5a1.94,1.94,0,0,0-1.63.83v-.71h-1v4.75h1V84.16a1.41,1.41,0,0,1,1.37-1.59c.77,0,1.17.51,1.17,1.34v2.61h1V83.73a1.82,1.82,0,0,0-1.89-2.08m-5,.12v2.36A1.41,1.41,0,0,1,216,85.72c-.77,0-1.17-.51-1.17-1.34V81.77h-1v2.79a1.83,1.83,0,0,0,1.89,2.08,1.94,1.94,0,0,0,1.64-.84v.72h1V81.77Zm-9.22-.12a1.94,1.94,0,0,0-1.63.83v-.71h-1v4.75h1V84.16a1.41,1.41,0,0,1,1.37-1.59c.77,0,1.17.51,1.17,1.34v2.61h1V83.73a1.82,1.82,0,0,0-1.89-2.08m-6.25,4.09a1.6,1.6,0,1,1,1.56-1.59,1.53,1.53,0,0,1-1.56,1.59m0,.9a2.5,2.5,0,1,0-2.52-2.5,2.45,2.45,0,0,0,2.52,2.5m-5.58,0a2.24,2.24,0,0,0,2.24-1.48l-.91-.26a1.37,1.37,0,0,1-1.33.85,1.61,1.61,0,0,1,0-3.21,1.4,1.4,0,0,1,1.33.87l.91-.26a2.25,2.25,0,0,0-2.25-1.5,2.5,2.5,0,0,0,0,5m-7.83,0c1.17,0,2-.64,2-1.49s-.58-1.1-1.25-1.29L188,83.49c-.32-.1-.51-.24-.51-.47s.33-.58.83-.58a1.29,1.29,0,0,1,1.19.66l.88-.25a2.12,2.12,0,0,0-2.06-1.2A1.63,1.63,0,0,0,186.48,83c0,.68.5,1,1.13,1.21l1.27.38c.43.12.62.27.62.57s-.39.64-1,.64a1.41,1.41,0,0,1-1.37-.9l-.9.27a2.3,2.3,0,0,0,2.24,1.44m-6.8-2.85a1.43,1.43,0,0,1,1.47-1.29,1.34,1.34,0,0,1,1.44,1.28Zm1.55,2.85a2.42,2.42,0,0,0,2.28-1.35L184.6,85a1.59,1.59,0,0,1-2.92-.58h3.86c0-.14,0-.26,0-.4a2.27,2.27,0,0,0-2.41-2.4,2.5,2.5,0,0,0,.08,5m-6.17-.89a1.61,1.61,0,0,1,0-3.21,1.61,1.61,0,0,1,0,3.21m1.54-6.12v2.86a2,2,0,0,0-1.7-.84,2.5,2.5,0,0,0,0,5,2,2,0,0,0,1.7-.84v.72h1V79.63Zm-7.71,6.12a1.61,1.61,0,0,1,0-3.21,1.61,1.61,0,0,1,0,3.21m-.16.89a2,2,0,0,0,1.71-.84v.72h1V81.77h-1v.72a2,2,0,0,0-1.71-.84,2.5,2.5,0,0,0,0,5m-6-.89a1.61,1.61,0,0,1,0-3.21,1.61,1.61,0,0,1,0,3.21m1.55-6.12v2.86a2,2,0,0,0-1.71-.84,2.5,2.5,0,0,0,0,5,2,2,0,0,0,1.71-.84v.72h1V79.63Zm-6.2,6.89h1V81.77h-1Zm.5-5.52a.6.6,0,0,0,.62-.61.62.62,0,0,0-1.24,0,.6.6,0,0,0,.62.61m-3.67,5.64c1.17,0,2-.64,2-1.49s-.57-1.1-1.24-1.29l-1.27-.37c-.32-.1-.51-.24-.51-.47s.33-.58.84-.58a1.27,1.27,0,0,1,1.18.66l.88-.25a2.11,2.11,0,0,0-2.06-1.2A1.64,1.64,0,0,0,154.9,83c0,.68.5,1,1.14,1.21l1.27.38c.42.12.61.27.61.57s-.38.64-1,.64a1.41,1.41,0,0,1-1.37-.9l-.89.27a2.28,2.28,0,0,0,2.23,1.44m-4.32-4.11v-.76h-1v4.75h1V84.37c0-1.37.62-1.88,1.63-1.73v-.92a1.47,1.47,0,0,0-1.63.81m-6,1.26a1.44,1.44,0,0,1,1.48-1.29,1.35,1.35,0,0,1,1.44,1.28Zm1.56,2.85a2.4,2.4,0,0,0,2.27-1.35l-.9-.26a1.42,1.42,0,0,1-1.35.76,1.44,1.44,0,0,1-1.58-1.34h3.86a2.69,2.69,0,0,0,0-.4,2.28,2.28,0,0,0-2.41-2.4,2.5,2.5,0,0,0,.08,5m-4-4.87-1.49,3.67-1.48-3.67h-1.08l2,4.75h1.11l2-4.75Zm-5.88,4.75h1V81.77h-1ZM138.8,81a.61.61,0,0,0,.63-.61.63.63,0,0,0-1.25,0,.61.61,0,0,0,.62.61m-3.77.65a1.94,1.94,0,0,0-1.63.83v-.71h-1v4.75h1V84.16a1.41,1.41,0,0,1,1.37-1.59c.77,0,1.17.51,1.17,1.34v2.61h1V83.73A1.82,1.82,0,0,0,135,81.65m-5,.12v2.36a1.41,1.41,0,0,1-1.37,1.59c-.78,0-1.17-.51-1.17-1.34V81.77h-1v2.79a1.82,1.82,0,0,0,1.88,2.08A1.94,1.94,0,0,0,130,85.8v.72h1V81.77Zm-9.44,1.67a1.35,1.35,0,0,1-1.42-1.37,1.42,1.42,0,0,1,2.84,0,1.35,1.35,0,0,1-1.42,1.37m0-3.65a2.3,2.3,0,0,0-2.43,2.28,2.25,2.25,0,0,0,2.31,2.27,1.93,1.93,0,0,0,.42,0l-1.47,2.23h1.16l1.94-3a2.66,2.66,0,0,0,.52-1.49,2.3,2.3,0,0,0-2.45-2.28m-4.45.13-2,1,.26.89,1.56-.75v5.45h1v-6.6Z"/><path class="cls-5" d="M102.53,77.11s-5,0-5,5v3s0,5,5,5h3s5,0,5-5v-3s0-5-5-5Z"/><path class="cls-3" d="M270.7,161.51c1.17,0,2-.64,2-1.48s-.57-1.11-1.24-1.3l-1.27-.36c-.32-.11-.51-.24-.51-.48s.33-.57.83-.57a1.28,1.28,0,0,1,1.19.66l.88-.26a2.13,2.13,0,0,0-2.06-1.19,1.63,1.63,0,0,0-1.81,1.37c0,.68.5,1,1.13,1.22l1.28.38c.42.12.61.27.61.56s-.39.64-1,.64a1.4,1.4,0,0,1-1.37-.89l-.89.26a2.26,2.26,0,0,0,2.23,1.44m-5.74-.88a1.61,1.61,0,0,1,0-3.22,1.61,1.61,0,0,1,0,3.22m-.16.88a2,2,0,0,0,1.7-.83v.71h1v-4.74h-1v.72a2,2,0,0,0-1.7-.84,2.49,2.49,0,0,0,0,5m-4.38-4.11v-.75h-1v4.74h1v-2.14c0-1.38.61-1.89,1.62-1.74v-.92a1.48,1.48,0,0,0-1.62.81m-4.62,3.22a1.6,1.6,0,1,1,1.56-1.59,1.53,1.53,0,0,1-1.56,1.59m0,.89a2.49,2.49,0,1,0-2.52-2.49,2.44,2.44,0,0,0,2.52,2.49m-3.27-1.08a1.39,1.39,0,0,1-.63.15.63.63,0,0,1-.68-.72v-2.33h1.51v-.88h-1.51v-1.59h-1v1.59h-.86v.88h.86v2.33c0,1,.47,1.61,1.48,1.61a2.58,2.58,0,0,0,1.05-.23Zm-6,1.08a2.24,2.24,0,0,0,2.24-1.48l-.91-.25a1.36,1.36,0,0,1-1.33.85,1.61,1.61,0,0,1,0-3.22,1.38,1.38,0,0,1,1.33.88l.91-.26a2.25,2.25,0,0,0-2.25-1.5,2.49,2.49,0,0,0,0,5m-7.2-2.85a1.45,1.45,0,0,1,1.48-1.29,1.36,1.36,0,0,1,1.44,1.28Zm1.56,2.85a2.4,2.4,0,0,0,2.27-1.34l-.9-.27a1.41,1.41,0,0,1-1.35.77,1.44,1.44,0,0,1-1.58-1.34h3.86a2.8,2.8,0,0,0,0-.4,2.28,2.28,0,0,0-2.41-2.4,2.49,2.49,0,0,0,.08,5m-4.55-4.11v-.75h-1v4.74h1v-2.14c0-1.38.62-1.89,1.63-1.74v-.92a1.49,1.49,0,0,0-1.63.81m-3.58,0v-.75h-1v4.74h1v-2.14c0-1.38.61-1.89,1.62-1.74v-.92a1.48,1.48,0,0,0-1.62.81m-6,1.26a1.44,1.44,0,0,1,1.47-1.29,1.36,1.36,0,0,1,1.45,1.28Zm1.56,2.85a2.41,2.41,0,0,0,2.27-1.34l-.9-.27a1.42,1.42,0,0,1-1.35.77,1.43,1.43,0,0,1-1.58-1.34h3.86a2.8,2.8,0,0,0,0-.4,2.28,2.28,0,0,0-2.42-2.4,2.49,2.49,0,0,0,.09,5m-5.6,0A2.24,2.24,0,0,0,225,160l-.92-.25a1.36,1.36,0,0,1-1.33.85,1.61,1.61,0,0,1,0-3.22,1.38,1.38,0,0,1,1.33.88L225,158a2.25,2.25,0,0,0-2.25-1.5,2.49,2.49,0,0,0,0,5m-4.62-.12h1v-4.74h-1Zm.5-5.52a.61.61,0,1,0-.62-.61.61.61,0,0,0,.62.61m-2.41.78-1.49,3.67-1.48-3.67h-1.08l2,4.74h1.11l2-4.74Zm-9.27,6h1a8.51,8.51,0,0,0,0-8.3h-1a8.51,8.51,0,0,1,0,8.3M203,160.46l1.77-1.66a2.9,2.9,0,0,0,1.23-2.1,2,2,0,0,0-2.27-2,2.2,2.2,0,0,0-2.26,1.85l.91.26a1.39,1.39,0,0,1,1.37-1.2,1.11,1.11,0,0,1,1.23,1.16c0,.53-.37.94-.91,1.45l-2.6,2.48v.72h4.63v-.93Zm-2.22,2.22a8.45,8.45,0,0,1,0-8.3h-1a8.51,8.51,0,0,0,0,8.3Zm-7.55-1.17c1.17,0,2-.64,2-1.48s-.57-1.11-1.24-1.3l-1.27-.36c-.32-.11-.51-.24-.51-.48s.33-.57.83-.57a1.28,1.28,0,0,1,1.19.66l.88-.26a2.12,2.12,0,0,0-2.06-1.19,1.63,1.63,0,0,0-1.81,1.37c0,.68.5,1,1.13,1.22l1.28.38c.42.12.61.27.61.56s-.39.64-1,.64a1.4,1.4,0,0,1-1.37-.89l-.89.26a2.26,2.26,0,0,0,2.23,1.44m-5.43-.89A1.6,1.6,0,1,1,189.4,159a1.53,1.53,0,0,1-1.56,1.59m0,.89a2.49,2.49,0,1,0-2.52-2.49,2.44,2.44,0,0,0,2.52,2.49m-6.17-.88a1.61,1.61,0,0,1,0-3.22,1.61,1.61,0,0,1,0,3.22m1.55-6.12v2.86a2,2,0,0,0-1.71-.84,2.49,2.49,0,0,0,0,5,2,2,0,0,0,1.71-.83v.71h1v-6.88Z"/><path class="cls-3" d="M269.07,145.21a1.92,1.92,0,0,0-1.63.83v-.71h-1v4.74h1v-2.35c0-1,.53-1.59,1.37-1.59s1.17.51,1.17,1.34v2.6h1v-2.78c0-1.28-.66-2.08-1.88-2.08m-6.25,4.09a1.6,1.6,0,1,1,1.55-1.59,1.53,1.53,0,0,1-1.55,1.59m0,.9a2.5,2.5,0,1,0-2.52-2.5,2.44,2.44,0,0,0,2.52,2.5m-5.59,0a2.24,2.24,0,0,0,2.25-1.48l-.92-.26a1.35,1.35,0,0,1-1.33.85,1.61,1.61,0,0,1,0-3.22,1.38,1.38,0,0,1,1.33.88l.92-.26a2.26,2.26,0,0,0-2.26-1.5,2.5,2.5,0,0,0,0,5m-7.82,0c1.17,0,2-.64,2-1.49s-.57-1.11-1.24-1.29l-1.26-.37c-.32-.11-.51-.24-.51-.47s.33-.58.83-.58a1.29,1.29,0,0,1,1.19.66l.87-.25a2.1,2.1,0,0,0-2.05-1.2,1.63,1.63,0,0,0-1.81,1.38c0,.67.5,1,1.13,1.21l1.27.38c.43.12.61.27.61.57s-.38.64-1,.64a1.4,1.4,0,0,1-1.36-.9l-.9.27a2.29,2.29,0,0,0,2.24,1.44m-6.8-2.85a1.43,1.43,0,0,1,1.47-1.29,1.35,1.35,0,0,1,1.44,1.28Zm1.55,2.85a2.4,2.4,0,0,0,2.27-1.35l-.9-.27a1.41,1.41,0,0,1-1.35.77,1.42,1.42,0,0,1-1.57-1.34h3.85a2.69,2.69,0,0,0,0-.4,2.28,2.28,0,0,0-2.41-2.4,2.5,2.5,0,0,0,.08,5m-6.18-.89a1.61,1.61,0,0,1,0-3.22,1.61,1.61,0,0,1,0,3.22m1.55-6.12v2.86a2,2,0,0,0-1.71-.84,2.5,2.5,0,0,0,0,5,2,2,0,0,0,1.71-.84v.71h1v-6.88Zm-7.71,6.12a1.61,1.61,0,0,1,0-3.22,1.61,1.61,0,0,1,0,3.22m-.16.89a2,2,0,0,0,1.7-.84v.71h1v-4.74h-1v.72a2,2,0,0,0-1.7-.84,2.5,2.5,0,0,0,0,5m-6-.89a1.61,1.61,0,0,1,0-3.22,1.61,1.61,0,0,1,0,3.22m1.55-6.12v2.86a2,2,0,0,0-1.71-.84,2.5,2.5,0,0,0,0,5,2,2,0,0,0,1.71-.84v.71h1v-6.88Zm-6.2,6.88h1v-4.74h-1Zm.5-5.51a.61.61,0,0,0,.62-.61.62.62,0,0,0-1.24,0,.61.61,0,0,0,.62.61m-3.67,5.64c1.17,0,2-.64,2-1.49s-.58-1.11-1.24-1.29l-1.27-.37c-.32-.11-.51-.24-.51-.47s.33-.58.83-.58a1.28,1.28,0,0,1,1.19.66l.88-.25a2.12,2.12,0,0,0-2.06-1.2,1.63,1.63,0,0,0-1.81,1.38c0,.67.5,1,1.13,1.21l1.28.38c.42.12.61.27.61.57s-.39.64-1,.64a1.41,1.41,0,0,1-1.37-.9l-.89.27a2.28,2.28,0,0,0,2.23,1.44m-4.32-4.12v-.75h-1v4.74h1v-2.14c0-1.37.61-1.88,1.62-1.73v-.92a1.46,1.46,0,0,0-1.62.8m-6,1.27a1.43,1.43,0,0,1,1.47-1.29,1.35,1.35,0,0,1,1.45,1.28Zm1.56,2.85a2.41,2.41,0,0,0,2.27-1.35l-.9-.27a1.42,1.42,0,0,1-1.35.77,1.43,1.43,0,0,1-1.58-1.34h3.86a2.69,2.69,0,0,0,0-.4,2.28,2.28,0,0,0-2.42-2.4,2.5,2.5,0,0,0,.09,5m-4-4.87L203.63,149l-1.48-3.67h-1.08l2,4.74h1.1l2-4.74Zm-5.89,4.74h1v-4.74h-1Zm.5-5.51a.61.61,0,0,0,.62-.61.62.62,0,0,0-1.24,0,.61.61,0,0,0,.62.61m-3.77.65a1.92,1.92,0,0,0-1.63.83v-.71h-1v4.74h1v-2.35c0-1,.53-1.59,1.37-1.59s1.17.51,1.17,1.34v2.6h1v-2.78c0-1.28-.66-2.08-1.88-2.08m-5,.12v2.36a1.4,1.4,0,0,1-1.37,1.58c-.77,0-1.17-.5-1.17-1.33v-2.61h-1v2.78c0,1.29.67,2.09,1.88,2.09a1.93,1.93,0,0,0,1.64-.84v.71h1v-4.74ZM181.51,147a1.34,1.34,0,0,1-1.42-1.37,1.33,1.33,0,0,1,1.41-1.36,1.37,1.37,0,1,1,0,2.73m0-3.65a2.3,2.3,0,0,0-2.43,2.28,2.25,2.25,0,0,0,2.31,2.27,1.77,1.77,0,0,0,.41-.05l-1.47,2.22h1.16l2-3a2.69,2.69,0,0,0,.51-1.48,2.3,2.3,0,0,0-2.44-2.28"/><path class="cls-6" d="M167.37,140.1s-5,0-5,5v3s0,5,5,5h3s5,0,5-5v-3s0-5-5-5Z"/><path class="cls-3" d="M317.63,217.28c1.17,0,2-.64,2-1.49s-.57-1.1-1.24-1.29l-1.27-.37c-.32-.1-.51-.24-.51-.47s.33-.58.83-.58a1.28,1.28,0,0,1,1.19.66l.88-.25a2.11,2.11,0,0,0-2.06-1.2,1.63,1.63,0,0,0-1.81,1.38c0,.68.5,1,1.13,1.21l1.28.38c.42.12.61.28.61.57s-.39.64-1,.64a1.41,1.41,0,0,1-1.37-.9l-.89.27a2.28,2.28,0,0,0,2.23,1.44m-5.74-.89a1.61,1.61,0,0,1,0-3.21,1.61,1.61,0,0,1,0,3.21m-.16.89a2,2,0,0,0,1.7-.84v.72h1v-4.75h-1v.72a2,2,0,0,0-1.7-.84,2.5,2.5,0,0,0,0,5m-4.38-4.11v-.75h-1v4.74h1V215c0-1.37.61-1.88,1.62-1.73v-.92a1.45,1.45,0,0,0-1.62.81m-4.62,3.21a1.6,1.6,0,1,1,1.56-1.59,1.53,1.53,0,0,1-1.56,1.59m0,.9a2.5,2.5,0,1,0-2.52-2.5,2.45,2.45,0,0,0,2.52,2.5m-3.27-1.08a1.39,1.39,0,0,1-.63.15.64.64,0,0,1-.68-.73v-2.33h1.51v-.88h-1.51v-1.58h-1v1.58h-.87v.88h.87v2.33c0,1,.46,1.61,1.47,1.61a2.57,2.57,0,0,0,1.05-.22Zm-6,1.08a2.24,2.24,0,0,0,2.24-1.48l-.91-.26a1.35,1.35,0,0,1-1.33.85,1.61,1.61,0,0,1,0-3.21,1.38,1.38,0,0,1,1.33.87l.91-.26a2.25,2.25,0,0,0-2.25-1.5,2.5,2.5,0,0,0,0,5m-7.2-2.85a1.44,1.44,0,0,1,1.48-1.29,1.35,1.35,0,0,1,1.44,1.28Zm1.56,2.85a2.4,2.4,0,0,0,2.27-1.35l-.9-.26a1.42,1.42,0,0,1-1.35.76,1.44,1.44,0,0,1-1.58-1.34h3.86a2.69,2.69,0,0,0,0-.4,2.28,2.28,0,0,0-2.41-2.4,2.5,2.5,0,0,0,.08,5m-4.55-4.11v-.75h-1v4.74h1V215c0-1.37.62-1.88,1.63-1.73v-.92a1.47,1.47,0,0,0-1.63.81m-3.58,0v-.75h-1v4.74h1V215c0-1.37.61-1.88,1.62-1.73v-.92a1.45,1.45,0,0,0-1.62.81m-6,1.26a1.43,1.43,0,0,1,1.47-1.29,1.35,1.35,0,0,1,1.45,1.28Zm1.56,2.85a2.41,2.41,0,0,0,2.27-1.35l-.9-.26a1.59,1.59,0,0,1-2.93-.58h3.86a2.69,2.69,0,0,0,0-.4,2.29,2.29,0,0,0-2.42-2.4,2.5,2.5,0,0,0,.09,5m-5.6,0a2.24,2.24,0,0,0,2.25-1.48l-.92-.26a1.35,1.35,0,0,1-1.33.85,1.61,1.61,0,0,1,0-3.21,1.38,1.38,0,0,1,1.33.87l.92-.26a2.25,2.25,0,0,0-2.25-1.5,2.5,2.5,0,0,0,0,5m-4.62-.12h1v-4.75h-1Zm.5-5.52a.61.61,0,0,0,.63-.61.63.63,0,0,0-1.25,0,.61.61,0,0,0,.62.61m-2.41.77-1.49,3.67-1.48-3.67h-1.08l2,4.75h1.11l2-4.75Zm-9.27,6h1a8.53,8.53,0,0,0,0-8.31h-1a8.53,8.53,0,0,1,0,8.31m-2.59-5.35,1.63-1.83v-.71h-4.44v.91h3.1l-1.62,2,.18.64a1.27,1.27,0,0,1,.76-.21,1.19,1.19,0,0,1,1.27,1.24,1.29,1.29,0,0,1-1.4,1.29,1.58,1.58,0,0,1-1.57-1.29l-.91.26a2.41,2.41,0,0,0,2.52,1.94,2.24,2.24,0,0,0,2.35-2.2,1.91,1.91,0,0,0-1.87-2m-3.72,5.35a8.46,8.46,0,0,1,0-8.31h-1a8.46,8.46,0,0,0,0,8.31ZM240,217.28c1.17,0,2-.64,2-1.49s-.57-1.1-1.24-1.29l-1.26-.37c-.33-.1-.51-.24-.51-.47s.33-.58.83-.58a1.29,1.29,0,0,1,1.19.66l.87-.25a2.11,2.11,0,0,0-2-1.2,1.63,1.63,0,0,0-1.81,1.38c0,.68.5,1,1.13,1.21l1.27.38c.43.12.61.28.61.57s-.38.64-1,.64a1.39,1.39,0,0,1-1.36-.9l-.9.27a2.29,2.29,0,0,0,2.23,1.44m-6.8-2.85a1.44,1.44,0,0,1,1.48-1.29,1.35,1.35,0,0,1,1.44,1.28Zm1.56,2.85a2.4,2.4,0,0,0,2.27-1.35l-.9-.26a1.42,1.42,0,0,1-1.35.76,1.44,1.44,0,0,1-1.58-1.34H237a2.69,2.69,0,0,0,0-.4,2.28,2.28,0,0,0-2.41-2.4,2.5,2.5,0,0,0,.08,5m-4.55-4.11v-.75h-1v4.74h1V215c0-1.37.62-1.88,1.63-1.73v-.92a1.47,1.47,0,0,0-1.63.81m-2.3,3a1.32,1.32,0,0,1-.62.15.64.64,0,0,1-.68-.73v-2.33h1.51v-.88h-1.51v-1.58h-1v1.58h-.87v.88h.87v2.33c0,1,.46,1.61,1.48,1.61a2.57,2.57,0,0,0,1-.22Z"/><path class="cls-3" d="M313.24,201a1.94,1.94,0,0,0-1.64.83v-.7h-1v4.74h1v-2.36A1.4,1.4,0,0,1,313,201.9c.78,0,1.17.51,1.17,1.34v2.6h1v-2.78c0-1.29-.67-2.09-1.88-2.09m-6.26,4.1a1.6,1.6,0,1,1,1.56-1.6,1.53,1.53,0,0,1-1.56,1.6m0,.89a2.5,2.5,0,1,0-2.51-2.5A2.44,2.44,0,0,0,307,206m-5.58,0a2.23,2.23,0,0,0,2.24-1.48l-.91-.25a1.36,1.36,0,0,1-1.33.85,1.55,1.55,0,0,1-1.53-1.62,1.53,1.53,0,0,1,1.53-1.6,1.37,1.37,0,0,1,1.33.88l.91-.27a2.24,2.24,0,0,0-2.25-1.5,2.5,2.5,0,0,0,0,5m-7.83,0c1.17,0,2-.64,2-1.49s-.57-1.1-1.24-1.29l-1.27-.37c-.32-.1-.51-.23-.51-.47s.33-.58.83-.58a1.28,1.28,0,0,1,1.19.67l.88-.26a2.11,2.11,0,0,0-2.06-1.2,1.64,1.64,0,0,0-1.81,1.38c0,.68.5,1,1.13,1.22l1.28.37c.42.13.61.28.61.57s-.39.64-1,.64a1.4,1.4,0,0,1-1.37-.89l-.89.26a2.28,2.28,0,0,0,2.23,1.44m-6.8-2.85a1.43,1.43,0,0,1,1.47-1.29,1.36,1.36,0,0,1,1.45,1.28Zm1.56,2.85a2.4,2.4,0,0,0,2.27-1.35l-.9-.26a1.42,1.42,0,0,1-1.35.76,1.43,1.43,0,0,1-1.58-1.34h3.86a2.56,2.56,0,0,0,0-.39,2.29,2.29,0,0,0-2.42-2.41,2.5,2.5,0,0,0,.09,5m-6.18-.88a1.61,1.61,0,0,1,0-3.22,1.61,1.61,0,0,1,0,3.22M283.7,199v2.85A2,2,0,0,0,282,201a2.5,2.5,0,0,0,0,5,2,2,0,0,0,1.71-.84v.72h1V199ZM276,205.08a1.61,1.61,0,0,1,0-3.22,1.61,1.61,0,0,1,0,3.22m-.16.88a2,2,0,0,0,1.71-.84v.72h1V201.1h-1v.71a2,2,0,0,0-1.71-.84,2.5,2.5,0,0,0,0,5m-6-.88a1.61,1.61,0,0,1,0-3.22,1.61,1.61,0,0,1,0,3.22m1.54-6.12v2.85a2,2,0,0,0-1.7-.84,2.5,2.5,0,0,0,0,5,2,2,0,0,0,1.7-.84v.72h1V199Zm-6.19,6.88h1V201.1h-1Zm.5-5.52a.61.61,0,1,0,0-1.21.61.61,0,1,0,0,1.21M262,206c1.17,0,2-.64,2-1.49s-.58-1.1-1.25-1.29l-1.26-.37c-.32-.1-.51-.23-.51-.47s.33-.58.83-.58a1.29,1.29,0,0,1,1.19.67l.87-.26a2.1,2.1,0,0,0-2.05-1.2,1.64,1.64,0,0,0-1.81,1.38c0,.68.5,1,1.13,1.22l1.27.37c.43.13.62.28.62.57s-.39.64-1,.64a1.4,1.4,0,0,1-1.37-.89l-.9.26A2.29,2.29,0,0,0,262,206m-4.32-4.11v-.75h-1v4.74h1V203.7c0-1.38.61-1.89,1.62-1.74V201a1.48,1.48,0,0,0-1.62.81m-6,1.26a1.43,1.43,0,0,1,1.47-1.29,1.34,1.34,0,0,1,1.44,1.28Zm1.56,2.85a2.4,2.4,0,0,0,2.27-1.35l-.91-.26a1.59,1.59,0,0,1-2.92-.58h3.86c0-.14,0-.25,0-.39a2.28,2.28,0,0,0-2.41-2.41,2.5,2.5,0,0,0,.09,5m-4-4.86-1.49,3.67-1.48-3.67h-1.07l2,4.74h1.1l2-4.74Zm-5.88,4.74h1V201.1h-1Zm.5-5.52a.61.61,0,1,0-.62-.61.6.6,0,0,0,.62.61m-3.77.65a1.94,1.94,0,0,0-1.64.83v-.7h-1v4.74h1v-2.36a1.4,1.4,0,0,1,1.37-1.58c.78,0,1.17.51,1.17,1.34v2.6h1v-2.78c0-1.29-.67-2.09-1.88-2.09m-5,.13v2.35a1.41,1.41,0,0,1-1.37,1.59c-.77,0-1.17-.51-1.17-1.34v-2.6h-1v2.78a1.83,1.83,0,0,0,1.89,2.08,1.94,1.94,0,0,0,1.64-.84v.72h1V201.1Zm-8.36-1.86-2,1,.26.88,1.56-.75v5.45h1v-6.6Z"/><path class="cls-7" d="M212.45,196.43s-5,0-5,5v3s0,5,5,5h3s5,0,5-5v-3s0-5-5-5Z"/><path class="cls-3" d="M109.63,247.31v5.32a.66.66,0,0,1-.21.51.76.76,0,0,1-.54.19.83.83,0,0,1-.56-.19.62.62,0,0,1-.23-.51v-5.32H106l2.21-7h-.38c-.24.78-.45,1.41-.61,1.92s-.3,1-.44,1.42-.26.74-.27.84a.6.6,0,0,1-.63.44l-.17,0a.58.58,0,0,1-.45-.56.41.41,0,0,1,0-.19s.08-.23.16-.53.2-.66.33-1.09l.45-1.41c.16-.51.3-1,.48-1.47a2,2,0,0,1,.7-1,1.71,1.71,0,0,1,1.11-.43h2.59a1.75,1.75,0,0,1,1.14.43,2.47,2.47,0,0,1,.72,1l.44,1.47c.15.5.31,1,.43,1.41s.26.8.34,1.09a3.18,3.18,0,0,0,.17.53l0,.16a.56.56,0,0,1-.47.59l-.15,0a.58.58,0,0,1-.63-.44c0-.1-.12-.39-.24-.84s-.3-.93-.47-1.42-.37-1.14-.61-1.93h-.38l2.2,7h-2.08v5.32a.62.62,0,0,1-.23.51.8.8,0,0,1-.55.19.78.78,0,0,1-.55-.19.66.66,0,0,1-.2-.51v-5.32Z"/><path class="cls-3" d="M109.84,237.79a1.55,1.55,0,0,0,1.12-.43,1.46,1.46,0,0,0,.46-1.09,1.48,1.48,0,0,0-.46-1.08,1.52,1.52,0,0,0-1.12-.45,1.7,1.7,0,0,0-1.19.45,1.42,1.42,0,0,0-.47,1.08,1.4,1.4,0,0,0,.47,1.09,1.73,1.73,0,0,0,1.19.43"/><path class="cls-3" d="M165.16,247.31v5.32a.67.67,0,0,1-.22.51.72.72,0,0,1-.53.19.79.79,0,0,1-.56-.19.62.62,0,0,1-.23-.51v-5.32H161.5l2.2-7h-.38c-.24.78-.44,1.41-.6,1.92s-.3,1-.44,1.42a6.52,6.52,0,0,0-.27.84.61.61,0,0,1-.64.44l-.16,0a.57.57,0,0,1-.46-.56.41.41,0,0,1,0-.19,2.67,2.67,0,0,0,.16-.53c.09-.29.2-.66.34-1.09s.29-.91.44-1.41.31-1,.49-1.47a1.93,1.93,0,0,1,.69-1,1.75,1.75,0,0,1,1.12-.43h2.59a1.76,1.76,0,0,1,1.14.43,2.35,2.35,0,0,1,.71,1c.15.47.3,1,.44,1.47s.31,1,.44,1.41.25.8.33,1.09a4.74,4.74,0,0,0,.17.53l0,.16a.56.56,0,0,1-.46.59l-.16,0a.59.59,0,0,1-.63-.44c0-.1-.12-.39-.24-.84s-.3-.93-.47-1.42-.36-1.14-.6-1.93H167l2.2,7h-2.09v5.32a.59.59,0,0,1-.23.51.8.8,0,0,1-.55.19.74.74,0,0,1-.54-.19.66.66,0,0,1-.2-.51v-5.32Z"/><path class="cls-3" d="M165.36,237.79a1.52,1.52,0,0,0,1.12-.43,1.43,1.43,0,0,0,.47-1.09,1.45,1.45,0,0,0-.47-1.08,1.5,1.5,0,0,0-1.12-.45,1.7,1.7,0,0,0-1.19.45,1.45,1.45,0,0,0-.47,1.08,1.4,1.4,0,0,0,.48,1.09,1.68,1.68,0,0,0,1.18.43"/><path class="cls-3" d="M220.3,247.31v5.32a.66.66,0,0,1-.21.51.76.76,0,0,1-.54.19.83.83,0,0,1-.56-.19.65.65,0,0,1-.23-.51v-5.32h-2.11l2.2-7h-.38c-.24.78-.45,1.41-.6,1.92s-.31,1-.45,1.42-.26.74-.27.84a.59.59,0,0,1-.63.44l-.17,0a.58.58,0,0,1-.45-.56.41.41,0,0,1,0-.19s.08-.23.16-.53.2-.66.34-1.09.28-.91.44-1.41.3-1,.48-1.47a2,2,0,0,1,.7-1,1.73,1.73,0,0,1,1.11-.43h2.6a1.72,1.72,0,0,1,1.13.43,2.47,2.47,0,0,1,.72,1c.15.47.29,1,.44,1.47s.31,1,.43,1.41.26.8.34,1.09a3.18,3.18,0,0,0,.17.53l0,.16a.56.56,0,0,1-.47.59l-.15,0a.58.58,0,0,1-.63-.44c0-.1-.12-.39-.24-.84s-.3-.93-.47-1.42-.37-1.14-.61-1.93h-.38l2.2,7h-2.08v5.32a.59.59,0,0,1-.23.51.8.8,0,0,1-.55.19.78.78,0,0,1-.55-.19.69.69,0,0,1-.2-.51v-5.32Z"/><path class="cls-3" d="M220.51,237.79a1.55,1.55,0,0,0,1.12-.43,1.46,1.46,0,0,0,.46-1.09,1.48,1.48,0,0,0-.46-1.08,1.52,1.52,0,0,0-1.12-.45,1.7,1.7,0,0,0-1.19.45,1.42,1.42,0,0,0-.47,1.08,1.4,1.4,0,0,0,.47,1.09,1.73,1.73,0,0,0,1.19.43"/><path class="cls-3" d="M176.78,247.31v5.32a.7.7,0,0,1-.21.51.76.76,0,0,1-.54.19.83.83,0,0,1-.56-.19.62.62,0,0,1-.23-.51v-5.32h-2.12l2.2-7H175l-.61,1.92c-.14.49-.3,1-.44,1.42a6.52,6.52,0,0,0-.27.84.61.61,0,0,1-.64.44l-.16,0a.57.57,0,0,1-.46-.56.32.32,0,0,1,0-.19,4.46,4.46,0,0,0,.15-.53c.09-.29.2-.66.34-1.09s.29-.91.44-1.41.31-1,.49-1.47a1.93,1.93,0,0,1,.69-1,1.75,1.75,0,0,1,1.12-.43h2.59a1.76,1.76,0,0,1,1.14.43,2.47,2.47,0,0,1,.72,1l.44,1.47.43,1.41c.14.43.25.8.34,1.09a3.7,3.7,0,0,0,.16.53l0,.16a.55.55,0,0,1-.46.59l-.15,0a.6.6,0,0,1-.64-.44c0-.1-.11-.39-.24-.84s-.3-.93-.46-1.42-.37-1.14-.61-1.93h-.38l2.2,7h-2.09v5.32a.59.59,0,0,1-.23.51.78.78,0,0,1-.54.19.75.75,0,0,1-.55-.19.66.66,0,0,1-.2-.51v-5.32Z"/><path class="cls-3" d="M177,237.79a1.55,1.55,0,0,0,1.12-.43,1.46,1.46,0,0,0,.46-1.09,1.48,1.48,0,0,0-.46-1.08,1.53,1.53,0,0,0-1.12-.45,1.66,1.66,0,0,0-1.19.45,1.42,1.42,0,0,0-.47,1.08,1.4,1.4,0,0,0,.47,1.09,1.71,1.71,0,0,0,1.19.43"/><path class="cls-3" d="M231.92,247.31v5.32a.66.66,0,0,1-.21.51.72.72,0,0,1-.53.19.79.79,0,0,1-.56-.19.62.62,0,0,1-.23-.51v-5.32h-2.12l2.2-7h-.38c-.24.78-.44,1.41-.6,1.92s-.31,1-.44,1.42a7.42,7.42,0,0,0-.28.84.59.59,0,0,1-.63.44l-.17,0a.58.58,0,0,1-.45-.56.41.41,0,0,1,0-.19,3.7,3.7,0,0,0,.16-.53c.09-.29.2-.66.34-1.09s.28-.91.44-1.41.3-1,.48-1.47a2,2,0,0,1,.7-1,1.75,1.75,0,0,1,1.12-.43h2.59a1.76,1.76,0,0,1,1.14.43,2.44,2.44,0,0,1,.71,1c.15.47.3,1,.44,1.47s.31,1,.44,1.41.25.8.33,1.09a4.74,4.74,0,0,0,.17.53l0,.16a.56.56,0,0,1-.46.59l-.16,0a.59.59,0,0,1-.63-.44c0-.1-.12-.39-.24-.84s-.3-.93-.47-1.42-.36-1.14-.61-1.93h-.38l2.2,7h-2.08v5.32a.59.59,0,0,1-.23.51.8.8,0,0,1-.55.19.78.78,0,0,1-.55-.19.69.69,0,0,1-.19-.51v-5.32Z"/><path class="cls-3" d="M232.13,237.79a1.52,1.52,0,0,0,1.12-.43,1.46,1.46,0,0,0,.46-1.09,1.48,1.48,0,0,0-.46-1.08,1.5,1.5,0,0,0-1.12-.45,1.7,1.7,0,0,0-1.19.45,1.45,1.45,0,0,0-.47,1.08,1.43,1.43,0,0,0,.47,1.09,1.73,1.73,0,0,0,1.19.43"/><path class="cls-3" d="M244.68,247.31v5.32a.66.66,0,0,1-.21.51.76.76,0,0,1-.54.19.83.83,0,0,1-.56-.19.62.62,0,0,1-.23-.51v-5.32H241l2.21-7h-.38c-.24.78-.45,1.41-.61,1.92s-.3,1-.44,1.42-.26.74-.27.84a.61.61,0,0,1-.63.44l-.17,0a.57.57,0,0,1-.45-.56.41.41,0,0,1,0-.19s.08-.23.16-.53.2-.66.33-1.09l.45-1.41c.15-.51.3-1,.48-1.47a2,2,0,0,1,.7-1,1.71,1.71,0,0,1,1.11-.43h2.59a1.76,1.76,0,0,1,1.14.43,2.47,2.47,0,0,1,.72,1l.44,1.47c.15.5.31,1,.43,1.41s.26.8.34,1.09a3.18,3.18,0,0,0,.17.53l0,.16a.56.56,0,0,1-.47.59l-.15,0a.58.58,0,0,1-.63-.44c0-.1-.12-.39-.25-.84s-.29-.93-.46-1.42-.37-1.14-.61-1.93h-.38l2.2,7h-2.08v5.32a.62.62,0,0,1-.23.51.8.8,0,0,1-.55.19.78.78,0,0,1-.55-.19.66.66,0,0,1-.2-.51v-5.32Z"/><path class="cls-3" d="M244.89,237.79a1.55,1.55,0,0,0,1.12-.43,1.46,1.46,0,0,0,.46-1.09,1.48,1.48,0,0,0-.46-1.08,1.53,1.53,0,0,0-1.12-.45,1.66,1.66,0,0,0-1.19.45,1.42,1.42,0,0,0-.47,1.08,1.4,1.4,0,0,0,.47,1.09,1.71,1.71,0,0,0,1.19.43"/></g></g></svg>