<svg xmlns="http://www.w3.org/2000/svg" viewBox="0 0 288.57 249.4"><defs><style>.cls-1{fill:#fff;}.cls-2{fill:#1d1d1b;}.cls-3{fill:#797979;}.cls-4{fill:#76bdac;}.cls-5{fill:#eb5954;}</style></defs><title>obs-Recurso 15</title><g id="Capa_2" data-name="Capa 2"><g id="Capa_1-2" data-name="Capa 1"><path class="cls-1" d="M8.91,0S0,0,0,8.91V240.49s0,8.91,8.91,8.91H279.65s8.92,0,8.92-8.91V8.91s0-8.91-8.92-8.91Z"/><path class="cls-2" d="M172.82,29.12a.79.79,0,0,0,.8-.78.78.78,0,0,0-.8-.77.77.77,0,0,0-.79.77.78.78,0,0,0,.79.78m0-4.29a.77.77,0,1,0,0-1.54.77.77,0,1,0,0,1.54m-5,4.36c1.89,0,3.16-1.09,3.16-2.44s-.86-1.77-2.11-2.16l-2-.63c-.73-.22-1-.5-1-1s.63-1.07,1.54-1.07a2.38,2.38,0,0,1,2.22,1.24l1.17-.34a3.55,3.55,0,0,0-3.39-2c-1.63,0-2.79,1-2.79,2.21,0,1,.73,1.64,1.81,2l2,.64c.94.3,1.28.65,1.28,1.18s-.72,1.25-1.84,1.25a2.59,2.59,0,0,1-2.51-1.68l-1.19.36a3.73,3.73,0,0,0,3.63,2.43M158.41,26l1.5-3.81L161.4,26ZM162.6,29h1.3L160.71,21h-1.6L155.91,29h1.31l.77-2h3.84Zm-12.69-6.95h2.56a1.43,1.43,0,1,1,0,2.85h-2.52Zm4,7h1.44l-2.09-3.1a2.46,2.46,0,0,0,1.88-2.42A2.55,2.55,0,0,0,152.5,21h-3.84V29h1.25V26h2Zm-10.83-1a2.91,2.91,0,0,1-3-3.06,3,3,0,1,1,5.9,0A2.91,2.91,0,0,1,143.09,28m0,1.15a4.19,4.19,0,1,0-4.2-4.2,4.11,4.11,0,0,0,4.2,4.2M138.73,21h-6.94V22.1h2.84V29h1.26V22.1h2.84Zm-11.2,8.22a3.87,3.87,0,0,0,3.82-2.5l-1.21-.31A2.66,2.66,0,0,1,127.52,28a3,3,0,0,1,0-6,2.71,2.71,0,0,1,2.63,1.67l1.21-.3a3.88,3.88,0,0,0-3.84-2.53,4.19,4.19,0,1,0,0,8.37m-5.17-7.09V21h-5.81V29h5.8V27.9h-4.57V25.48h4V24.4h-4V22.1Zm-12.59,0h2.56a1.43,1.43,0,1,1,0,2.85h-2.53Zm4,7h1.44l-2.08-3.1A2.46,2.46,0,0,0,115,23.52,2.55,2.55,0,0,0,112.36,21h-3.83V29h1.24V26h2Zm-12.87.15c1.89,0,3.15-1.09,3.15-2.44S103.2,25,102,24.59L100,24c-.72-.22-1-.5-1-1s.62-1.07,1.53-1.07a2.4,2.4,0,0,1,2.23,1.24l1.16-.34a3.53,3.53,0,0,0-3.39-2c-1.63,0-2.79,1-2.79,2.21,0,1,.74,1.64,1.81,2l2,.64c.94.3,1.28.65,1.28,1.18s-.72,1.25-1.83,1.25a2.61,2.61,0,0,1-2.52-1.68l-1.18.36a3.71,3.71,0,0,0,3.63,2.43m-9.75.9h1l4.56-10.16h-1ZM90.54,21,88,27.48,85.5,21H84.12L87.34,29h1.35L91.9,21ZM77.2,29.19c1.89,0,3.15-1.09,3.15-2.44s-.86-1.77-2.1-2.16l-2-.63c-.72-.22-1-.5-1-1s.62-1.07,1.53-1.07A2.37,2.37,0,0,1,79,23.17l1.17-.34a3.53,3.53,0,0,0-3.39-2c-1.63,0-2.79,1-2.79,2.21,0,1,.74,1.64,1.81,2l2,.64c.94.3,1.28.65,1.28,1.18s-.72,1.25-1.83,1.25a2.61,2.61,0,0,1-2.52-1.68l-1.18.36a3.71,3.71,0,0,0,3.63,2.43M72.77,22.1V21H67V29h5.8V27.9H68.19V25.48h4V24.4h-4V22.1Zm-12.59,0h2.56a1.43,1.43,0,1,1,0,2.85H60.18Zm4,7h1.44l-2.08-3.1a2.47,2.47,0,0,0,1.88-2.42A2.56,2.56,0,0,0,62.78,21H58.94V29h1.24V26h2ZM53.37,28A2.91,2.91,0,0,1,50.42,25a2.95,2.95,0,1,1,5.89,0A2.91,2.91,0,0,1,53.37,28m0,1.15A4.19,4.19,0,1,0,49.16,25a4.1,4.1,0,0,0,4.21,4.2M49,21H42.06V22.1h2.85V29h1.25V22.1H49ZM37.81,29.19a3.86,3.86,0,0,0,3.81-2.5l-1.21-.31A2.66,2.66,0,0,1,37.8,28a3,3,0,0,1,0-6,2.71,2.71,0,0,1,2.62,1.67l1.21-.3a3.85,3.85,0,0,0-3.83-2.53,4.19,4.19,0,1,0,0,8.37M32.63,22.1V21H26.82V29h5.8V27.9H28.06V25.48h4V24.4h-4V22.1ZM20,22.09H22.6a1.43,1.43,0,1,1,0,2.85H20Zm4,7H25.5l-2.09-3.1a2.47,2.47,0,0,0,1.88-2.42A2.55,2.55,0,0,0,22.64,21H18.8V29H20V26h2.05Z"/><path class="cls-3" d="M149.7,50c1.17,0,2-.64,2-1.49s-.58-1.11-1.25-1.3l-1.26-.36c-.32-.11-.51-.24-.51-.48s.33-.57.83-.57a1.28,1.28,0,0,1,1.19.66l.88-.26A2.13,2.13,0,0,0,149.51,45a1.63,1.63,0,0,0-1.81,1.37c0,.68.5,1,1.13,1.22l1.27.38c.43.12.62.27.62.56s-.39.65-1,.65a1.41,1.41,0,0,1-1.37-.9l-.9.26A2.29,2.29,0,0,0,149.7,50M144,49.12a1.61,1.61,0,0,1,0-3.22,1.61,1.61,0,0,1,0,3.22m-.16.89a2,2,0,0,0,1.71-.84v.71h1V45.14h-1v.72a2,2,0,0,0-1.71-.84,2.5,2.5,0,0,0,0,5m-4.37-4.12v-.75h-1v4.74h1V47.74c0-1.38.61-1.88,1.62-1.73v-.93a1.48,1.48,0,0,0-1.62.81m-4.62,3.22a1.6,1.6,0,1,1,1.55-1.59,1.53,1.53,0,0,1-1.55,1.59m0,.9a2.5,2.5,0,1,0-2.52-2.5A2.44,2.44,0,0,0,134.8,50m-3.28-1.09a1.21,1.21,0,0,1-.62.15.63.63,0,0,1-.68-.72V46h1.51v-.88h-1.51V43.56h-1v1.58h-.86V46h.86v2.33c0,1,.46,1.61,1.48,1.61a2.58,2.58,0,0,0,1.05-.23Zm-6,1.09a2.25,2.25,0,0,0,2.24-1.48l-.91-.26a1.36,1.36,0,0,1-1.33.85,1.61,1.61,0,0,1,0-3.22,1.39,1.39,0,0,1,1.33.88l.91-.26A2.25,2.25,0,0,0,125.5,45a2.5,2.5,0,0,0,0,5m-7.2-2.86a1.43,1.43,0,0,1,1.47-1.28,1.35,1.35,0,0,1,1.45,1.28ZM119.87,50a2.41,2.41,0,0,0,2.27-1.35l-.9-.27a1.42,1.42,0,0,1-1.35.77,1.43,1.43,0,0,1-1.58-1.34h3.86a2.8,2.8,0,0,0,0-.4,2.28,2.28,0,0,0-2.42-2.4,2.5,2.5,0,0,0,.09,5m-4.55-4.12v-.75h-1v4.74h1V47.74c0-1.38.61-1.88,1.62-1.73v-.93a1.48,1.48,0,0,0-1.62.81M108.6,45a1.92,1.92,0,0,0-1.63.83v-.71h-1v4.74h1V47.53c0-1,.53-1.59,1.36-1.59s1.17.51,1.17,1.34v2.6h1V47.1A1.82,1.82,0,0,0,108.6,45m-6.26,4.09a1.6,1.6,0,1,1,1.56-1.59,1.53,1.53,0,0,1-1.56,1.59m0,.9a2.5,2.5,0,1,0-2.51-2.5,2.44,2.44,0,0,0,2.51,2.5m-5.58,0A2.26,2.26,0,0,0,99,48.53l-.92-.26a1.35,1.35,0,0,1-1.33.85,1.61,1.61,0,0,1,0-3.22,1.38,1.38,0,0,1,1.33.88l.92-.26A2.27,2.27,0,0,0,96.75,45a2.5,2.5,0,0,0,0,5m-7.83,0c1.17,0,2-.64,2-1.49s-.57-1.11-1.24-1.3l-1.27-.36c-.32-.11-.5-.24-.5-.48s.33-.57.83-.57a1.26,1.26,0,0,1,1.18.66l.88-.26a2.12,2.12,0,0,0-2-1.19,1.63,1.63,0,0,0-1.81,1.37c0,.68.49,1,1.13,1.22l1.27.38c.42.12.61.27.61.56s-.38.65-1,.65a1.41,1.41,0,0,1-1.37-.9l-.89.26A2.28,2.28,0,0,0,88.93,50m-6.8-2.86a1.44,1.44,0,0,1,1.48-1.28,1.35,1.35,0,0,1,1.44,1.28ZM83.69,50A2.4,2.4,0,0,0,86,48.66l-.9-.27a1.41,1.41,0,0,1-1.35.77,1.44,1.44,0,0,1-1.58-1.34H86a2.8,2.8,0,0,0,0-.4A2.28,2.28,0,0,0,83.61,45a2.5,2.5,0,0,0,.08,5M78.2,45a1.94,1.94,0,0,0-1.63.83v-.71h-1v4.74h1V47.53a1.4,1.4,0,0,1,1.37-1.59c.77,0,1.17.51,1.17,1.34v2.6h1V47.1A1.82,1.82,0,0,0,78.2,45M72,49.11a1.6,1.6,0,1,1,1.56-1.59A1.53,1.53,0,0,1,72,49.11m0,.9a2.5,2.5,0,1,0-2.52-2.5A2.45,2.45,0,0,0,72,50m-4.65-.13h1V45.14h-1Zm.5-5.51a.61.61,0,1,0-.62-.62.61.61,0,0,0,.62.62M63.92,50a2.25,2.25,0,0,0,2.25-1.48l-.92-.26a1.35,1.35,0,0,1-1.33.85,1.61,1.61,0,0,1,0-3.22,1.38,1.38,0,0,1,1.33.88l.92-.26A2.26,2.26,0,0,0,63.91,45a2.5,2.5,0,0,0,0,5m-4.59-4.87V47.5A1.4,1.4,0,0,1,58,49.08c-.77,0-1.17-.51-1.17-1.34v-2.6h-1v2.78A1.83,1.83,0,0,0,57.69,50a1.94,1.94,0,0,0,1.64-.84v.71h1V45.14Zm-4.74,3.78a1.27,1.27,0,0,1-.63.15.63.63,0,0,1-.68-.72V46h1.51v-.88H53.28V43.56h-1v1.58h-.86V46h.86v2.33c0,1,.47,1.61,1.48,1.61a2.58,2.58,0,0,0,1-.23Zm-5.09,1h1V45.14h-1Zm.5-5.51a.61.61,0,1,0-.62-.62.61.61,0,0,0,.62.62m-1.83,4.55a1.21,1.21,0,0,1-.62.15.63.63,0,0,1-.68-.72V46h1.51v-.88H46.87V43.56h-1v1.58H45V46h.87v2.33c0,1,.46,1.61,1.48,1.61a2.58,2.58,0,0,0,1.05-.23ZM42.46,50c1.17,0,2-.64,2-1.49s-.58-1.11-1.25-1.3l-1.26-.36c-.32-.11-.51-.24-.51-.48s.33-.57.83-.57a1.29,1.29,0,0,1,1.19.66l.87-.26a2.11,2.11,0,0,0-2-1.19,1.63,1.63,0,0,0-1.81,1.37c0,.68.5,1,1.13,1.22l1.27.38c.43.12.62.27.62.56s-.39.65-1,.65a1.41,1.41,0,0,1-1.37-.9l-.9.26A2.28,2.28,0,0,0,42.46,50M37.4,45a1.94,1.94,0,0,0-1.63.83v-.71h-1v4.74h1V47.53a1.4,1.4,0,0,1,1.37-1.59c.77,0,1.17.51,1.17,1.34v2.6h1V47.1A1.82,1.82,0,0,0,37.4,45m-5,4.86h1V45.14h-1Zm.5-5.51a.61.61,0,1,0-.63-.62.62.62,0,0,0,.63.62M26.5,45.63a2.54,2.54,0,0,0-1.27.3l.13-1.73h3.05v-.92H24.46l-.29,3.41.79.23a2.17,2.17,0,0,1,1.36-.46,1.28,1.28,0,0,1,1.42,1.32,1.31,1.31,0,0,1-1.41,1.32A1.53,1.53,0,0,1,24.84,48l-.92.25A2.4,2.4,0,0,0,26.38,50a2.23,2.23,0,0,0,2.35-2.22,2.11,2.11,0,0,0-2.23-2.16M19.91,49l1.76-1.66a2.88,2.88,0,0,0,1.24-2.1,2,2,0,0,0-2.28-2A2.22,2.22,0,0,0,18.37,45l.92.26a1.4,1.4,0,0,1,1.36-1.2,1.12,1.12,0,0,1,1.24,1.16c0,.53-.38.94-.92,1.45l-2.6,2.48v.72H23V49Z"/><path class="cls-3" d="M139.39,117.84v-.75h-1v4.74h1v-2.14c0-1.38.61-1.89,1.62-1.74V117a1.48,1.48,0,0,0-1.62.81m-4.62,3.22a1.6,1.6,0,1,1,1.56-1.6,1.53,1.53,0,0,1-1.56,1.6m0,.89a2.5,2.5,0,1,0-2.52-2.5,2.44,2.44,0,0,0,2.52,2.5m-3.27-1.08a1.39,1.39,0,0,1-.63.15c-.45,0-.67-.27-.67-.73V118h1.5v-.87h-1.5V115.5h-1v1.59h-.87V118h.87v2.33c0,1,.46,1.61,1.48,1.61a2.56,2.56,0,0,0,1-.22Zm-6,1.08a2.23,2.23,0,0,0,2.24-1.48l-.91-.25a1.36,1.36,0,0,1-1.33.85,1.55,1.55,0,0,1-1.53-1.62,1.53,1.53,0,0,1,1.53-1.6,1.37,1.37,0,0,1,1.33.88l.91-.27a2.24,2.24,0,0,0-2.25-1.5,2.5,2.5,0,0,0,0,5m-7.2-2.85a1.44,1.44,0,0,1,1.48-1.29,1.36,1.36,0,0,1,1.44,1.28Zm1.56,2.85a2.4,2.4,0,0,0,2.27-1.35l-.9-.26a1.42,1.42,0,0,1-1.35.76,1.43,1.43,0,0,1-1.58-1.34h3.86a2.56,2.56,0,0,0,0-.39,2.29,2.29,0,0,0-2.41-2.41,2.5,2.5,0,0,0,.08,5m-4.55-4.11v-.75h-1v4.74h1v-2.14c0-1.38.62-1.89,1.63-1.74V117a1.49,1.49,0,0,0-1.63.81m-6.72-.88a1.94,1.94,0,0,0-1.63.83v-.7h-1v4.74h1v-2.36a1.4,1.4,0,0,1,1.37-1.58c.77,0,1.17.51,1.17,1.34v2.6h1v-2.78c0-1.29-.67-2.09-1.89-2.09m-6.25,4.1a1.6,1.6,0,1,1,1.55-1.6,1.53,1.53,0,0,1-1.55,1.6m0,.89a2.5,2.5,0,1,0-2.52-2.5,2.44,2.44,0,0,0,2.52,2.5m-5.59,0A2.24,2.24,0,0,0,99,120.47l-.92-.25a1.36,1.36,0,0,1-1.33.85,1.54,1.54,0,0,1-1.52-1.62,1.52,1.52,0,0,1,1.52-1.6,1.37,1.37,0,0,1,1.33.88l.92-.27a2.26,2.26,0,0,0-2.26-1.5,2.5,2.5,0,0,0,0,5m-7.82,0c1.17,0,2-.64,2-1.49s-.58-1.1-1.25-1.29l-1.26-.37c-.32-.1-.51-.23-.51-.47s.33-.58.83-.58a1.31,1.31,0,0,1,1.19.66l.87-.25a2.1,2.1,0,0,0-2-1.2,1.63,1.63,0,0,0-1.81,1.38c0,.68.5,1,1.13,1.22l1.27.37c.43.13.62.28.62.57s-.39.64-1,.64a1.39,1.39,0,0,1-1.36-.9l-.9.27A2.29,2.29,0,0,0,88.91,122m-6.8-2.85a1.43,1.43,0,0,1,1.47-1.29A1.35,1.35,0,0,1,85,119.09ZM83.66,122a2.43,2.43,0,0,0,2.28-1.35l-.91-.26a1.59,1.59,0,0,1-2.92-.58H86a2.56,2.56,0,0,0,0-.39A2.28,2.28,0,0,0,83.58,117a2.5,2.5,0,0,0,.08,5m-5.49-5a1.94,1.94,0,0,0-1.63.83v-.7h-1v4.74h1v-2.36a1.4,1.4,0,0,1,1.37-1.58c.77,0,1.17.51,1.17,1.34v2.6h1v-2.78c0-1.29-.67-2.09-1.89-2.09m-6.25,4.1a1.6,1.6,0,1,1,1.56-1.6,1.54,1.54,0,0,1-1.56,1.6m0,.89a2.5,2.5,0,1,0-2.52-2.5,2.44,2.44,0,0,0,2.52,2.5m-4.65-.12h1v-4.74h-1Zm.5-5.52a.61.61,0,1,0-.62-.61.6.6,0,0,0,.62.61M63.89,122a2.24,2.24,0,0,0,2.25-1.48l-.92-.25a1.36,1.36,0,0,1-1.33.85,1.54,1.54,0,0,1-1.52-1.62,1.52,1.52,0,0,1,1.52-1.6,1.37,1.37,0,0,1,1.33.88l.92-.27a2.25,2.25,0,0,0-2.25-1.5,2.5,2.5,0,0,0,0,5m-4.59-4.86v2.35A1.4,1.4,0,0,1,57.93,121c-.77,0-1.17-.51-1.17-1.34v-2.6h-1v2.78A1.82,1.82,0,0,0,57.66,122a1.93,1.93,0,0,0,1.64-.84v.72h1v-4.74Zm-4.74,3.78a1.38,1.38,0,0,1-.62.15c-.46,0-.68-.27-.68-.73V118h1.51v-.87H53.26V115.5h-1v1.59h-.87V118h.87v2.33c0,1,.46,1.61,1.48,1.61a2.56,2.56,0,0,0,1-.22Zm-5.08,1h1v-4.74h-1Zm.5-5.52a.61.61,0,1,0,0-1.21.61.61,0,1,0,0,1.21m-1.84,4.56a1.32,1.32,0,0,1-.62.15.64.64,0,0,1-.68-.73V118h1.51v-.87H46.84V115.5h-1v1.59H45V118h.86v2.33c0,1,.47,1.61,1.48,1.61a2.57,2.57,0,0,0,1-.22ZM42.43,122c1.17,0,2-.64,2-1.49s-.58-1.1-1.24-1.29l-1.27-.37c-.32-.1-.51-.23-.51-.47s.33-.58.83-.58a1.29,1.29,0,0,1,1.19.66l.88-.25a2.12,2.12,0,0,0-2.06-1.2,1.63,1.63,0,0,0-1.81,1.38c0,.68.5,1,1.13,1.22l1.28.37c.42.13.61.28.61.57s-.39.64-1,.64a1.4,1.4,0,0,1-1.37-.9l-.89.27A2.28,2.28,0,0,0,42.43,122m-5-5a1.94,1.94,0,0,0-1.64.83v-.7h-1v4.74h1v-2.36a1.4,1.4,0,0,1,1.37-1.58c.77,0,1.17.51,1.17,1.34v2.6h1v-2.78c0-1.29-.67-2.09-1.88-2.09m-5.05,4.87h1v-4.74h-1Zm.5-5.52a.61.61,0,1,0-.62-.61.6.6,0,0,0,.62.61m-6.36,1.27a2.54,2.54,0,0,0-1.27.3l.13-1.74h3.05v-.91H24.44l-.3,3.4.8.24a2.12,2.12,0,0,1,1.35-.46,1.28,1.28,0,0,1,1.42,1.32,1.31,1.31,0,0,1-1.41,1.32,1.53,1.53,0,0,1-1.49-1.14l-.92.26A2.4,2.4,0,0,0,26.35,122a2.22,2.22,0,0,0,2.35-2.21,2.11,2.11,0,0,0-2.23-2.16M20.72,121a1.37,1.37,0,1,1,1.42-1.37A1.34,1.34,0,0,1,20.72,121m.12-3.62a2.5,2.5,0,0,0-.4,0l1.46-2.21H20.74l-1.94,3a2.63,2.63,0,0,0-.52,1.47A2.3,2.3,0,0,0,20.72,122a2.31,2.31,0,0,0,2.43-2.29,2.24,2.24,0,0,0-2.31-2.25"/><path class="cls-4" d="M24.15,69.59v6.58a.83.83,0,0,1-.26.63.93.93,0,0,1-.67.23,1,1,0,0,1-.69-.23.78.78,0,0,1-.28-.63V69.59H19.63l2.72-8.65h-.46c-.3,1-.55,1.75-.75,2.37s-.37,1.2-.54,1.76a8.23,8.23,0,0,0-.34,1,.74.74,0,0,1-.78.55l-.21-.05a.7.7,0,0,1-.56-.69.49.49,0,0,1,.05-.24A4,4,0,0,0,19,65c.1-.36.24-.82.42-1.35s.35-1.12.54-1.74.38-1.23.6-1.82a2.38,2.38,0,0,1,.86-1.2,2.14,2.14,0,0,1,1.38-.53H26a2.15,2.15,0,0,1,1.4.53,3,3,0,0,1,.89,1.2c.18.59.36,1.19.54,1.82s.38,1.21.54,1.74.31,1,.41,1.35a3.6,3.6,0,0,0,.21.65l.05.2a.7.7,0,0,1-.57.73l-.2.05a.73.73,0,0,1-.78-.55c0-.12-.14-.47-.3-1s-.36-1.15-.57-1.76-.45-1.4-.75-2.37h-.47l2.72,8.65H26.5v6.58a.72.72,0,0,1-.28.63,1,1,0,0,1-.68.23.94.94,0,0,1-.67-.23.82.82,0,0,1-.25-.63V69.59Z"/><path class="cls-4" d="M24.41,57.84a1.94,1.94,0,0,0,1.38-.52A1.86,1.86,0,0,0,26.36,56a1.8,1.8,0,0,0-.57-1.32,1.86,1.86,0,0,0-1.38-.56,2,2,0,0,0-1.47.56A1.75,1.75,0,0,0,22.35,56a1.8,1.8,0,0,0,.59,1.36,2.13,2.13,0,0,0,1.47.52"/><path class="cls-4" d="M85.85,69.59v6.58a.83.83,0,0,1-.26.63.92.92,0,0,1-.66.23,1,1,0,0,1-.7-.23.78.78,0,0,1-.28-.63V69.59H81.34l2.72-8.65h-.47c-.3,1-.55,1.75-.75,2.37s-.37,1.2-.54,1.76a8.23,8.23,0,0,0-.34,1,.74.74,0,0,1-.78.55L81,66.6a.71.71,0,0,1-.56-.69.64.64,0,0,1,0-.24,4,4,0,0,0,.2-.65c.1-.36.25-.82.42-1.35s.35-1.12.54-1.74.38-1.23.6-1.82a2.44,2.44,0,0,1,.86-1.2,2.14,2.14,0,0,1,1.38-.53h3.2a2.15,2.15,0,0,1,1.4.53,3,3,0,0,1,.89,1.2c.18.59.36,1.19.54,1.82s.38,1.21.54,1.74.31,1,.41,1.35a3.6,3.6,0,0,0,.21.65l0,.2a.7.7,0,0,1-.57.73l-.2.05a.73.73,0,0,1-.78-.55c0-.12-.14-.47-.29-1s-.37-1.15-.58-1.76-.45-1.4-.75-2.37h-.47l2.72,8.65H88.2v6.58a.72.72,0,0,1-.28.63,1,1,0,0,1-.68.23.94.94,0,0,1-.67-.23.82.82,0,0,1-.25-.63V69.59Z"/><path class="cls-4" d="M86.11,57.84a1.91,1.91,0,0,0,1.38-.52A1.86,1.86,0,0,0,88.06,56a1.8,1.8,0,0,0-.57-1.32,1.82,1.82,0,0,0-1.38-.56,2,2,0,0,0-1.47.56A1.74,1.74,0,0,0,84.06,56a1.79,1.79,0,0,0,.58,1.36,2.15,2.15,0,0,0,1.47.52"/><path class="cls-4" d="M147.55,69.59v6.58a.83.83,0,0,1-.26.63.92.92,0,0,1-.66.23,1,1,0,0,1-.69-.23.76.76,0,0,1-.29-.63V69.59H143l2.72-8.65h-.47c-.3,1-.55,1.75-.75,2.37s-.37,1.2-.54,1.76a10.61,10.61,0,0,0-.34,1,.73.73,0,0,1-.78.55l-.21-.05a.71.71,0,0,1-.56-.69.5.5,0,0,1,.06-.24c0-.06.1-.28.19-.65s.25-.82.42-1.35.35-1.12.54-1.74.38-1.23.6-1.82a2.44,2.44,0,0,1,.86-1.2,2.14,2.14,0,0,1,1.38-.53h3.2a2.15,2.15,0,0,1,1.4.53,3,3,0,0,1,.89,1.2c.18.59.36,1.19.54,1.82s.38,1.21.54,1.74.31,1,.41,1.35a4.77,4.77,0,0,0,.21.65l.05.2a.7.7,0,0,1-.57.73l-.19.05a.71.71,0,0,1-.78-.55c0-.12-.15-.47-.3-1s-.37-1.15-.58-1.76-.45-1.4-.75-2.37h-.47l2.72,8.65h-2.57v6.58a.73.73,0,0,1-.29.63,1,1,0,0,1-.68.23.94.94,0,0,1-.67-.23.82.82,0,0,1-.25-.63V69.59Z"/><path class="cls-4" d="M147.81,57.84a1.91,1.91,0,0,0,1.38-.52,1.82,1.82,0,0,0,.57-1.36,1.76,1.76,0,0,0-.57-1.32,1.82,1.82,0,0,0-1.38-.56,2,2,0,0,0-1.47.56,1.74,1.74,0,0,0-.58,1.32,1.79,1.79,0,0,0,.58,1.36,2.15,2.15,0,0,0,1.47.52"/><path class="cls-4" d="M209.25,69.59v6.58a.83.83,0,0,1-.26.63.92.92,0,0,1-.66.23,1,1,0,0,1-.69-.23.76.76,0,0,1-.29-.63V69.59h-2.61l2.72-8.65H207c-.3,1-.55,1.75-.74,2.37s-.38,1.2-.55,1.76-.32.91-.34,1a.73.73,0,0,1-.78.55l-.2-.05a.7.7,0,0,1-.56-.69.49.49,0,0,1,.05-.24c0-.06.1-.28.19-.65s.25-.82.42-1.35.35-1.12.55-1.74.37-1.23.59-1.82a2.44,2.44,0,0,1,.86-1.2,2.14,2.14,0,0,1,1.38-.53h3.2a2.16,2.16,0,0,1,1.41.53,3,3,0,0,1,.88,1.2c.18.59.36,1.19.54,1.82s.38,1.21.54,1.74.31,1,.42,1.35a5.58,5.58,0,0,0,.2.65l0,.2a.69.69,0,0,1-.57.73l-.19.05a.71.71,0,0,1-.78-.55c0-.12-.15-.47-.3-1s-.37-1.15-.58-1.76-.45-1.4-.75-2.37h-.46l2.71,8.65h-2.57v6.58a.73.73,0,0,1-.29.63,1.11,1.11,0,0,1-1.35,0,.81.81,0,0,1-.24-.63V69.59Z"/><path class="cls-4" d="M209.51,57.84a1.91,1.91,0,0,0,1.38-.52,1.82,1.82,0,0,0,.57-1.36,1.76,1.76,0,0,0-.57-1.32,1.82,1.82,0,0,0-1.38-.56,2,2,0,0,0-1.47.56,1.74,1.74,0,0,0-.58,1.32,1.79,1.79,0,0,0,.58,1.36,2.17,2.17,0,0,0,1.47.52"/><path class="cls-4" d="M36.49,69.59v6.58a.83.83,0,0,1-.26.63.93.93,0,0,1-.67.23,1,1,0,0,1-.69-.23.78.78,0,0,1-.28-.63V69.59H32l2.72-8.65h-.46c-.3,1-.55,1.75-.75,2.37s-.37,1.2-.54,1.76a8.23,8.23,0,0,0-.34,1,.74.74,0,0,1-.78.55l-.21-.05a.7.7,0,0,1-.56-.69.49.49,0,0,1,.05-.24,4,4,0,0,0,.2-.65c.1-.36.24-.82.42-1.35s.35-1.12.54-1.74.38-1.23.6-1.82a2.38,2.38,0,0,1,.86-1.2,2.14,2.14,0,0,1,1.38-.53h3.2a2.15,2.15,0,0,1,1.4.53,3,3,0,0,1,.89,1.2c.18.59.36,1.19.54,1.82s.38,1.21.54,1.74.31,1,.41,1.35a3.6,3.6,0,0,0,.21.65l.05.2a.7.7,0,0,1-.57.73l-.2.05a.73.73,0,0,1-.78-.55c0-.12-.14-.47-.3-1s-.36-1.15-.57-1.76-.45-1.4-.75-2.37H38.7l2.72,8.65H38.84v6.58a.72.72,0,0,1-.28.63,1,1,0,0,1-.68.23.94.94,0,0,1-.67-.23.82.82,0,0,1-.25-.63V69.59Z"/><path class="cls-4" d="M36.75,57.84a1.94,1.94,0,0,0,1.38-.52A1.86,1.86,0,0,0,38.7,56a1.8,1.8,0,0,0-.57-1.32,1.86,1.86,0,0,0-1.38-.56,2,2,0,0,0-1.47.56A1.75,1.75,0,0,0,34.69,56a1.8,1.8,0,0,0,.59,1.36,2.13,2.13,0,0,0,1.47.52"/><path class="cls-4" d="M98.19,69.59v6.58a.83.83,0,0,1-.26.63.92.92,0,0,1-.66.23,1,1,0,0,1-.69-.23.76.76,0,0,1-.29-.63V69.59H93.68l2.72-8.65h-.47c-.3,1-.55,1.75-.75,2.37s-.37,1.2-.54,1.76a8.23,8.23,0,0,0-.34,1,.74.74,0,0,1-.78.55l-.21-.05a.71.71,0,0,1-.56-.69.64.64,0,0,1,0-.24A4,4,0,0,0,93,65c.11-.36.25-.82.42-1.35s.35-1.12.54-1.74.38-1.23.6-1.82a2.44,2.44,0,0,1,.86-1.2,2.14,2.14,0,0,1,1.38-.53H100a2.15,2.15,0,0,1,1.4.53,3,3,0,0,1,.89,1.2c.18.59.36,1.19.54,1.82s.38,1.21.54,1.74.31,1,.41,1.35a4.77,4.77,0,0,0,.21.65l.05.2a.7.7,0,0,1-.57.73l-.19.05a.71.71,0,0,1-.78-.55c0-.12-.15-.47-.3-1s-.37-1.15-.58-1.76-.45-1.4-.75-2.37h-.47l2.72,8.65h-2.57v6.58a.73.73,0,0,1-.29.63,1,1,0,0,1-.68.23.94.94,0,0,1-.67-.23.82.82,0,0,1-.25-.63V69.59Z"/><path class="cls-4" d="M98.45,57.84a1.91,1.91,0,0,0,1.38-.52A1.86,1.86,0,0,0,100.4,56a1.8,1.8,0,0,0-.57-1.32,1.82,1.82,0,0,0-1.38-.56,2,2,0,0,0-1.47.56A1.74,1.74,0,0,0,96.4,56,1.79,1.79,0,0,0,97,57.32a2.15,2.15,0,0,0,1.47.52"/><path class="cls-4" d="M159.89,69.59v6.58a.83.83,0,0,1-.26.63A.92.92,0,0,1,159,77a1,1,0,0,1-.69-.23.76.76,0,0,1-.29-.63V69.59h-2.61l2.72-8.65h-.47c-.3,1-.55,1.75-.75,2.37s-.37,1.2-.54,1.76a10.61,10.61,0,0,0-.34,1,.73.73,0,0,1-.78.55L155,66.6a.71.71,0,0,1-.56-.69.5.5,0,0,1,.06-.24c0-.06.1-.28.19-.65s.25-.82.42-1.35.35-1.12.54-1.74.38-1.23.6-1.82a2.44,2.44,0,0,1,.86-1.2,2.14,2.14,0,0,1,1.38-.53h3.2a2.15,2.15,0,0,1,1.4.53,3,3,0,0,1,.89,1.2c.18.59.36,1.19.54,1.82s.38,1.21.54,1.74.31,1,.41,1.35a4.77,4.77,0,0,0,.21.65l.05.2a.7.7,0,0,1-.57.73l-.19.05a.71.71,0,0,1-.78-.55c0-.12-.15-.47-.3-1s-.37-1.15-.58-1.76-.45-1.4-.75-2.37h-.47l2.72,8.65h-2.57v6.58a.73.73,0,0,1-.29.63,1,1,0,0,1-.68.23.94.94,0,0,1-.67-.23.82.82,0,0,1-.25-.63V69.59Z"/><path class="cls-4" d="M160.15,57.84a1.91,1.91,0,0,0,1.38-.52A1.82,1.82,0,0,0,162.1,56a1.76,1.76,0,0,0-.57-1.32,1.82,1.82,0,0,0-1.38-.56,2,2,0,0,0-1.47.56A1.74,1.74,0,0,0,158.1,56a1.79,1.79,0,0,0,.58,1.36,2.15,2.15,0,0,0,1.47.52"/><path class="cls-4" d="M221.59,69.59v6.58a.83.83,0,0,1-.26.63.92.92,0,0,1-.66.23,1,1,0,0,1-.69-.23.76.76,0,0,1-.29-.63V69.59h-2.61l2.72-8.65h-.47c-.3,1-.55,1.75-.74,2.37s-.38,1.2-.55,1.76-.32.91-.34,1a.73.73,0,0,1-.78.55l-.2-.05a.7.7,0,0,1-.56-.69.49.49,0,0,1,.05-.24c0-.06.1-.28.19-.65s.25-.82.42-1.35.35-1.12.55-1.74.37-1.23.59-1.82a2.44,2.44,0,0,1,.86-1.2,2.14,2.14,0,0,1,1.38-.53h3.2a2.16,2.16,0,0,1,1.41.53,3,3,0,0,1,.88,1.2c.18.59.36,1.19.54,1.82s.38,1.21.54,1.74.31,1,.42,1.35a5.58,5.58,0,0,0,.2.65l.05.2a.69.69,0,0,1-.57.73l-.19.05a.71.71,0,0,1-.78-.55c0-.12-.15-.47-.3-1s-.37-1.15-.58-1.76-.45-1.4-.75-2.37h-.46l2.71,8.65H224v6.58a.73.73,0,0,1-.29.63,1.11,1.11,0,0,1-1.35,0,.81.81,0,0,1-.24-.63V69.59Z"/><path class="cls-4" d="M221.85,57.84a1.91,1.91,0,0,0,1.38-.52A1.82,1.82,0,0,0,223.8,56a1.76,1.76,0,0,0-.57-1.32,1.82,1.82,0,0,0-1.38-.56,2,2,0,0,0-1.47.56A1.74,1.74,0,0,0,219.8,56a1.79,1.79,0,0,0,.58,1.36,2.17,2.17,0,0,0,1.47.52"/><path class="cls-4" d="M48.83,69.59v6.58a.83.83,0,0,1-.26.63.93.93,0,0,1-.67.23,1,1,0,0,1-.69-.23.78.78,0,0,1-.28-.63V69.59H44.31L47,60.94h-.46c-.3,1-.55,1.75-.75,2.37s-.37,1.2-.54,1.76a8.23,8.23,0,0,0-.34,1,.74.74,0,0,1-.78.55L44,66.6a.7.7,0,0,1-.56-.69.49.49,0,0,1,0-.24,4,4,0,0,0,.2-.65c.1-.36.24-.82.42-1.35s.35-1.12.54-1.74.38-1.23.6-1.82a2.38,2.38,0,0,1,.86-1.2,2.14,2.14,0,0,1,1.38-.53h3.2a2.15,2.15,0,0,1,1.4.53,3,3,0,0,1,.89,1.2c.18.59.36,1.19.54,1.82s.38,1.21.54,1.74.31,1,.41,1.35a3.6,3.6,0,0,0,.21.65l0,.2a.7.7,0,0,1-.57.73l-.2.05a.73.73,0,0,1-.78-.55c0-.12-.14-.47-.3-1s-.36-1.15-.57-1.76-.45-1.4-.75-2.37H51l2.72,8.65H51.18v6.58a.72.72,0,0,1-.28.63,1,1,0,0,1-.68.23.94.94,0,0,1-.67-.23.82.82,0,0,1-.25-.63V69.59Z"/><path class="cls-4" d="M49.09,57.84a1.94,1.94,0,0,0,1.38-.52A1.86,1.86,0,0,0,51,56a1.8,1.8,0,0,0-.57-1.32,1.84,1.84,0,0,0-1.38-.56,2,2,0,0,0-1.47.56A1.74,1.74,0,0,0,47,56a1.79,1.79,0,0,0,.58,1.36,2.13,2.13,0,0,0,1.47.52"/><path class="cls-4" d="M110.53,69.59v6.58a.83.83,0,0,1-.26.63.92.92,0,0,1-.66.23,1,1,0,0,1-.69-.23.76.76,0,0,1-.29-.63V69.59H106l2.72-8.65h-.47c-.3,1-.55,1.75-.75,2.37s-.37,1.2-.54,1.76a8.23,8.23,0,0,0-.34,1,.74.74,0,0,1-.78.55l-.21-.05a.71.71,0,0,1-.56-.69.64.64,0,0,1,0-.24,4,4,0,0,0,.2-.65c.11-.36.25-.82.42-1.35s.35-1.12.54-1.74.38-1.23.6-1.82a2.44,2.44,0,0,1,.86-1.2,2.14,2.14,0,0,1,1.38-.53h3.2a2.15,2.15,0,0,1,1.4.53,3,3,0,0,1,.89,1.2c.18.59.36,1.19.54,1.82s.38,1.21.54,1.74.31,1,.41,1.35a4.77,4.77,0,0,0,.21.65l0,.2a.7.7,0,0,1-.57.73l-.19.05a.71.71,0,0,1-.78-.55c0-.12-.15-.47-.3-1s-.37-1.15-.58-1.76-.45-1.4-.75-2.37h-.47l2.72,8.65h-2.57v6.58a.73.73,0,0,1-.29.63,1,1,0,0,1-.68.23.94.94,0,0,1-.67-.23.82.82,0,0,1-.25-.63V69.59Z"/><path class="cls-4" d="M110.79,57.84a1.91,1.91,0,0,0,1.38-.52,1.86,1.86,0,0,0,.57-1.36,1.8,1.8,0,0,0-.57-1.32,1.82,1.82,0,0,0-1.38-.56,2,2,0,0,0-1.47.56,1.74,1.74,0,0,0-.58,1.32,1.79,1.79,0,0,0,.58,1.36,2.15,2.15,0,0,0,1.47.52"/><path class="cls-4" d="M172.23,69.59v6.58a.83.83,0,0,1-.26.63.92.92,0,0,1-.66.23,1,1,0,0,1-.69-.23.76.76,0,0,1-.29-.63V69.59h-2.61l2.72-8.65H170c-.3,1-.55,1.75-.75,2.37s-.37,1.2-.54,1.76-.32.91-.34,1a.73.73,0,0,1-.78.55l-.2-.05a.71.71,0,0,1-.57-.69.5.5,0,0,1,.06-.24c0-.06.1-.28.19-.65s.25-.82.42-1.35.35-1.12.54-1.74.38-1.23.6-1.82a2.44,2.44,0,0,1,.86-1.2,2.14,2.14,0,0,1,1.38-.53H174a2.18,2.18,0,0,1,1.41.53,3,3,0,0,1,.88,1.2c.18.59.36,1.19.54,1.82s.38,1.21.54,1.74.31,1,.41,1.35a4.77,4.77,0,0,0,.21.65l.05.2a.69.69,0,0,1-.57.73l-.19.05a.71.71,0,0,1-.78-.55c0-.12-.15-.47-.3-1s-.37-1.15-.58-1.76-.45-1.4-.75-2.37h-.47l2.72,8.65h-2.57v6.58a.73.73,0,0,1-.29.63,1.11,1.11,0,0,1-1.35,0,.82.82,0,0,1-.25-.63V69.59Z"/><path class="cls-4" d="M172.49,57.84a1.91,1.91,0,0,0,1.38-.52,1.82,1.82,0,0,0,.57-1.36,1.76,1.76,0,0,0-.57-1.32,1.82,1.82,0,0,0-1.38-.56,2,2,0,0,0-1.47.56,1.74,1.74,0,0,0-.58,1.32,1.79,1.79,0,0,0,.58,1.36,2.15,2.15,0,0,0,1.47.52"/><path class="cls-4" d="M233.93,69.59v6.58a.83.83,0,0,1-.26.63A.92.92,0,0,1,233,77a1,1,0,0,1-.69-.23.76.76,0,0,1-.29-.63V69.59h-2.61l2.72-8.65h-.47c-.3,1-.55,1.75-.74,2.37s-.38,1.2-.55,1.76-.32.91-.34,1a.73.73,0,0,1-.78.55l-.2-.05a.7.7,0,0,1-.56-.69.49.49,0,0,1,.05-.24c0-.06.1-.28.19-.65s.25-.82.42-1.35.35-1.12.55-1.74.37-1.23.59-1.82a2.44,2.44,0,0,1,.86-1.2,2.14,2.14,0,0,1,1.38-.53h3.2a2.16,2.16,0,0,1,1.41.53,3,3,0,0,1,.88,1.2c.18.59.36,1.19.54,1.82s.38,1.21.54,1.74.31,1,.42,1.35a5.58,5.58,0,0,0,.2.65l.05.2a.69.69,0,0,1-.57.73l-.19.05a.71.71,0,0,1-.78-.55c0-.12-.15-.47-.3-1s-.37-1.15-.58-1.76-.45-1.4-.75-2.37h-.46l2.71,8.65h-2.57v6.58a.73.73,0,0,1-.29.63,1.11,1.11,0,0,1-1.35,0,.81.81,0,0,1-.24-.63V69.59Z"/><path class="cls-4" d="M234.19,57.84a1.91,1.91,0,0,0,1.38-.52,1.83,1.83,0,0,0,.58-1.36,1.77,1.77,0,0,0-.58-1.32,1.82,1.82,0,0,0-1.38-.56,2,2,0,0,0-1.47.56,1.74,1.74,0,0,0-.58,1.32,1.79,1.79,0,0,0,.58,1.36,2.17,2.17,0,0,0,1.47.52"/><path class="cls-4" d="M61.17,69.47V76a.83.83,0,0,1-.26.63.92.92,0,0,1-.66.24,1,1,0,0,1-.7-.24.78.78,0,0,1-.28-.63V69.47H56.66l2.72-8.66h-.47c-.3,1-.55,1.75-.75,2.37s-.37,1.2-.54,1.76a8.23,8.23,0,0,0-.34,1,.74.74,0,0,1-.78.55l-.21,0a.71.71,0,0,1-.56-.69.64.64,0,0,1,.05-.24,4,4,0,0,0,.2-.65c.1-.36.25-.82.42-1.35s.35-1.11.54-1.74.38-1.23.6-1.81a2.42,2.42,0,0,1,.86-1.21,2.14,2.14,0,0,1,1.38-.53H63a2.15,2.15,0,0,1,1.4.53A3,3,0,0,1,65.27,60c.18.58.36,1.18.54,1.81s.38,1.21.54,1.74.31,1,.41,1.35a3.6,3.6,0,0,0,.21.65l0,.2a.7.7,0,0,1-.57.73l-.2,0a.73.73,0,0,1-.78-.55c0-.12-.14-.47-.29-1s-.37-1.14-.58-1.76-.45-1.4-.75-2.37h-.47l2.72,8.66H63.52V76a.72.72,0,0,1-.28.63,1,1,0,0,1-.68.24,1,1,0,0,1-.67-.24.82.82,0,0,1-.25-.63V69.47Z"/><path class="cls-4" d="M61.43,57.71a1.94,1.94,0,0,0,1.38-.52A1.9,1.9,0,0,0,61.43,54a2,2,0,0,0-1.47.56,1.74,1.74,0,0,0-.58,1.32A1.76,1.76,0,0,0,60,57.19a2.13,2.13,0,0,0,1.47.52"/><path class="cls-4" d="M122.87,69.47V76a.83.83,0,0,1-.26.63.92.92,0,0,1-.66.24,1,1,0,0,1-.69-.24A.76.76,0,0,1,121,76V69.47h-2.61l2.72-8.66h-.47c-.3,1-.55,1.75-.75,2.37s-.37,1.2-.54,1.76a8.23,8.23,0,0,0-.34,1,.74.74,0,0,1-.78.55l-.21,0a.71.71,0,0,1-.56-.69.64.64,0,0,1,0-.24,4,4,0,0,0,.2-.65c.11-.36.25-.82.42-1.35s.35-1.11.54-1.74.38-1.23.6-1.81a2.42,2.42,0,0,1,.86-1.21,2.14,2.14,0,0,1,1.38-.53h3.2a2.15,2.15,0,0,1,1.4.53A3,3,0,0,1,127,60c.18.58.36,1.18.54,1.81s.38,1.21.54,1.74.31,1,.41,1.35a4.77,4.77,0,0,0,.21.65l.05.2a.7.7,0,0,1-.57.73l-.19,0a.71.71,0,0,1-.78-.55c0-.12-.15-.47-.3-1s-.37-1.14-.58-1.76-.45-1.4-.75-2.37h-.47l2.72,8.66h-2.57V76a.73.73,0,0,1-.29.63,1,1,0,0,1-.68.24,1,1,0,0,1-.67-.24.82.82,0,0,1-.25-.63V69.47Z"/><path class="cls-4" d="M123.13,57.71a1.91,1.91,0,0,0,1.38-.52,1.86,1.86,0,0,0,0-2.68,1.82,1.82,0,0,0-1.38-.56,2,2,0,0,0-1.47.56,1.74,1.74,0,0,0-.58,1.32,1.76,1.76,0,0,0,.58,1.36,2.15,2.15,0,0,0,1.47.52"/><path class="cls-4" d="M184.57,69.47V76a.83.83,0,0,1-.26.63.92.92,0,0,1-.66.24,1,1,0,0,1-.69-.24.76.76,0,0,1-.29-.63V69.47h-2.61l2.72-8.66h-.47c-.3,1-.55,1.75-.75,2.37s-.37,1.2-.54,1.76-.32.91-.34,1a.73.73,0,0,1-.78.55l-.2,0a.71.71,0,0,1-.57-.69.5.5,0,0,1,.06-.24c0-.06.1-.28.19-.65s.25-.82.42-1.35.35-1.11.54-1.74.38-1.23.6-1.81a2.42,2.42,0,0,1,.86-1.21,2.14,2.14,0,0,1,1.38-.53h3.2a2.18,2.18,0,0,1,1.41.53,3.06,3.06,0,0,1,.88,1.21c.18.58.36,1.18.54,1.81s.38,1.21.54,1.74.31,1,.41,1.35a4.77,4.77,0,0,0,.21.65l0,.2a.69.69,0,0,1-.57.73l-.19,0a.71.71,0,0,1-.78-.55c0-.12-.15-.47-.3-1s-.37-1.14-.58-1.76-.45-1.4-.75-2.37h-.47l2.72,8.66h-2.57V76a.73.73,0,0,1-.29.63,1.07,1.07,0,0,1-1.35,0A.82.82,0,0,1,185,76V69.47Z"/><path class="cls-4" d="M184.83,57.71a1.91,1.91,0,0,0,1.38-.52,1.86,1.86,0,0,0,0-2.68,1.82,1.82,0,0,0-1.38-.56,2,2,0,0,0-1.47.56,1.74,1.74,0,0,0-.58,1.32,1.76,1.76,0,0,0,.58,1.36,2.15,2.15,0,0,0,1.47.52"/><path class="cls-4" d="M246.27,69.47V76a.83.83,0,0,1-.26.63.92.92,0,0,1-.66.24,1,1,0,0,1-.69-.24.75.75,0,0,1-.28-.63V69.47h-2.62l2.72-8.66H244c-.3,1-.55,1.75-.74,2.37s-.38,1.2-.55,1.76-.32.91-.34,1a.73.73,0,0,1-.78.55l-.2,0a.7.7,0,0,1-.56-.69.49.49,0,0,1,0-.24,4.58,4.58,0,0,0,.19-.65c.11-.36.25-.82.42-1.35l.55-1.74c.19-.63.37-1.23.59-1.81a2.42,2.42,0,0,1,.86-1.21,2.14,2.14,0,0,1,1.38-.53h3.2a2.16,2.16,0,0,1,1.41.53,3.06,3.06,0,0,1,.88,1.21c.18.58.36,1.18.55,1.81s.38,1.21.53,1.74.31,1,.42,1.35a5.58,5.58,0,0,0,.2.65l.05.2a.69.69,0,0,1-.57.73l-.19,0a.71.71,0,0,1-.78-.55c0-.12-.15-.47-.3-1l-.57-1.76c-.21-.62-.46-1.4-.75-2.37h-.47l2.71,8.66h-2.57V76a.73.73,0,0,1-.29.63,1.07,1.07,0,0,1-1.35,0,.81.81,0,0,1-.24-.63V69.47Z"/><path class="cls-4" d="M246.53,57.71a1.91,1.91,0,0,0,1.38-.52,1.84,1.84,0,0,0,0-2.68,1.82,1.82,0,0,0-1.38-.56,2,2,0,0,0-1.47.56,1.74,1.74,0,0,0-.58,1.32,1.76,1.76,0,0,0,.58,1.36,2.17,2.17,0,0,0,1.47.52"/><path class="cls-4" d="M73.51,69.47V76a.83.83,0,0,1-.26.63.92.92,0,0,1-.66.24,1,1,0,0,1-.7-.24.78.78,0,0,1-.28-.63V69.47H69l2.72-8.66h-.47c-.3,1-.55,1.75-.75,2.37s-.37,1.2-.54,1.76a8.23,8.23,0,0,0-.34,1,.74.74,0,0,1-.78.55l-.21,0a.71.71,0,0,1-.56-.69.64.64,0,0,1,.05-.24,4,4,0,0,0,.2-.65c.1-.36.25-.82.42-1.35s.35-1.11.54-1.74.38-1.23.6-1.81a2.42,2.42,0,0,1,.86-1.21,2.14,2.14,0,0,1,1.38-.53h3.2a2.15,2.15,0,0,1,1.4.53A3,3,0,0,1,77.61,60c.18.58.36,1.18.54,1.81s.38,1.21.54,1.74.31,1,.41,1.35a3.6,3.6,0,0,0,.21.65l0,.2a.7.7,0,0,1-.57.73l-.2,0a.73.73,0,0,1-.78-.55c0-.12-.14-.47-.29-1s-.37-1.14-.58-1.76-.45-1.4-.75-2.37h-.47l2.72,8.66H75.86V76a.72.72,0,0,1-.28.63,1,1,0,0,1-.68.24,1,1,0,0,1-.67-.24A.82.82,0,0,1,74,76V69.47Z"/><path class="cls-4" d="M73.77,57.71a1.94,1.94,0,0,0,1.38-.52A1.9,1.9,0,0,0,73.77,54a2,2,0,0,0-1.47.56,1.74,1.74,0,0,0-.58,1.32,1.76,1.76,0,0,0,.58,1.36,2.13,2.13,0,0,0,1.47.52"/><path class="cls-4" d="M135.21,69.47V76a.83.83,0,0,1-.26.63.92.92,0,0,1-.66.24,1,1,0,0,1-.69-.24.76.76,0,0,1-.29-.63V69.47H130.7l2.72-8.66H133c-.3,1-.55,1.75-.75,2.37s-.37,1.2-.54,1.76a10.61,10.61,0,0,0-.34,1,.73.73,0,0,1-.78.55l-.21,0a.71.71,0,0,1-.56-.69.5.5,0,0,1,.06-.24c0-.06.1-.28.19-.65s.25-.82.42-1.35.35-1.11.54-1.74.38-1.23.6-1.81a2.42,2.42,0,0,1,.86-1.21,2.14,2.14,0,0,1,1.38-.53H137a2.15,2.15,0,0,1,1.4.53,3,3,0,0,1,.89,1.21c.18.58.36,1.18.54,1.81s.38,1.21.54,1.74.31,1,.41,1.35a4.77,4.77,0,0,0,.21.65l.05.2a.7.7,0,0,1-.57.73l-.19,0a.71.71,0,0,1-.78-.55c0-.12-.15-.47-.3-1s-.37-1.14-.58-1.76-.45-1.4-.75-2.37h-.47l2.72,8.66h-2.57V76a.73.73,0,0,1-.29.63,1,1,0,0,1-.68.24,1,1,0,0,1-.67-.24.82.82,0,0,1-.25-.63V69.47Z"/><path class="cls-4" d="M135.47,57.71a1.91,1.91,0,0,0,1.38-.52,1.86,1.86,0,0,0,0-2.68,1.82,1.82,0,0,0-1.38-.56,2,2,0,0,0-1.47.56,1.74,1.74,0,0,0-.58,1.32,1.76,1.76,0,0,0,.58,1.36,2.15,2.15,0,0,0,1.47.52"/><path class="cls-4" d="M196.91,69.47V76a.83.83,0,0,1-.26.63.92.92,0,0,1-.66.24,1,1,0,0,1-.69-.24A.76.76,0,0,1,195,76V69.47H192.4l2.72-8.66h-.47c-.3,1-.55,1.75-.75,2.37s-.37,1.2-.54,1.76-.32.91-.34,1a.73.73,0,0,1-.78.55l-.2,0a.71.71,0,0,1-.57-.69.5.5,0,0,1,.06-.24c0-.06.1-.28.19-.65s.25-.82.42-1.35.35-1.11.54-1.74.38-1.23.6-1.81a2.42,2.42,0,0,1,.86-1.21,2.14,2.14,0,0,1,1.38-.53h3.2a2.18,2.18,0,0,1,1.41.53A3.06,3.06,0,0,1,201,60c.18.58.36,1.18.54,1.81s.38,1.21.54,1.74.31,1,.41,1.35a4.77,4.77,0,0,0,.21.65l0,.2a.69.69,0,0,1-.57.73l-.19,0a.71.71,0,0,1-.78-.55c0-.12-.15-.47-.3-1s-.37-1.14-.58-1.76-.45-1.4-.75-2.37h-.47l2.72,8.66h-2.57V76a.73.73,0,0,1-.29.63,1.07,1.07,0,0,1-1.35,0,.82.82,0,0,1-.25-.63V69.47Z"/><path class="cls-4" d="M197.17,57.71a1.91,1.91,0,0,0,1.38-.52,1.86,1.86,0,0,0,0-2.68,1.82,1.82,0,0,0-1.38-.56,2,2,0,0,0-1.47.56,1.74,1.74,0,0,0-.58,1.32,1.76,1.76,0,0,0,.58,1.36,2.17,2.17,0,0,0,1.47.52"/><path class="cls-4" d="M258.61,69.47V76a.83.83,0,0,1-.26.63.92.92,0,0,1-.66.24,1,1,0,0,1-.69-.24.75.75,0,0,1-.28-.63V69.47H254.1l2.72-8.66h-.47c-.3,1-.55,1.75-.74,2.37s-.38,1.2-.55,1.76-.32.91-.34,1a.73.73,0,0,1-.78.55l-.2,0a.7.7,0,0,1-.56-.69.49.49,0,0,1,0-.24,4.58,4.58,0,0,0,.19-.65c.11-.36.25-.82.42-1.35l.55-1.74c.19-.63.37-1.23.59-1.81a2.42,2.42,0,0,1,.86-1.21,2.14,2.14,0,0,1,1.38-.53h3.2a2.16,2.16,0,0,1,1.41.53,3.06,3.06,0,0,1,.88,1.21c.18.58.36,1.18.55,1.81s.38,1.21.53,1.74.31,1,.42,1.35a5.58,5.58,0,0,0,.2.65l0,.2a.69.69,0,0,1-.57.73l-.19,0a.71.71,0,0,1-.78-.55c0-.12-.15-.47-.3-1l-.57-1.76c-.21-.62-.46-1.4-.75-2.37h-.47l2.71,8.66H261V76a.73.73,0,0,1-.29.63,1.07,1.07,0,0,1-1.35,0,.81.81,0,0,1-.24-.63V69.47Z"/><path class="cls-4" d="M258.87,57.71a1.91,1.91,0,0,0,1.38-.52,1.84,1.84,0,0,0,0-2.68,1.82,1.82,0,0,0-1.38-.56,2,2,0,0,0-1.47.56,1.74,1.74,0,0,0-.58,1.32,1.76,1.76,0,0,0,.58,1.36,2.17,2.17,0,0,0,1.47.52"/><path class="cls-4" d="M24.15,94.56v6.57a.83.83,0,0,1-.26.63.93.93,0,0,1-.67.24,1,1,0,0,1-.69-.24.78.78,0,0,1-.28-.63V94.56H19.63l2.72-8.66h-.46c-.3,1-.55,1.75-.75,2.37s-.37,1.2-.54,1.77a7.79,7.79,0,0,0-.34,1,.74.74,0,0,1-.78.55l-.21,0a.7.7,0,0,1-.56-.69.43.43,0,0,1,.05-.23A4.44,4.44,0,0,0,19,90q.15-.55.42-1.35c.16-.54.35-1.12.54-1.75s.38-1.23.6-1.81a2.34,2.34,0,0,1,.86-1.2,2.1,2.1,0,0,1,1.38-.54H26a2.11,2.11,0,0,1,1.4.54,2.9,2.9,0,0,1,.89,1.2c.18.58.36,1.19.54,1.81s.38,1.21.54,1.75.31,1,.41,1.35a3.94,3.94,0,0,0,.21.65l.05.19a.69.69,0,0,1-.57.73l-.2,0a.73.73,0,0,1-.78-.55c0-.12-.14-.47-.3-1s-.36-1.15-.57-1.77-.45-1.4-.75-2.37h-.47l2.72,8.66H26.5v6.57a.71.71,0,0,1-.28.63,1,1,0,0,1-.68.24,1,1,0,0,1-.67-.24.81.81,0,0,1-.25-.63V94.56Z"/><path class="cls-4" d="M24.41,82.8a1.94,1.94,0,0,0,1.38-.52,1.86,1.86,0,0,0,0-2.68A1.89,1.89,0,0,0,24.41,79a2.07,2.07,0,0,0-1.47.56,1.82,1.82,0,0,0,0,2.68,2.13,2.13,0,0,0,1.47.52"/><path class="cls-4" d="M85.85,94.56v6.57a.83.83,0,0,1-.26.63.92.92,0,0,1-.66.24,1,1,0,0,1-.7-.24.78.78,0,0,1-.28-.63V94.56H81.34l2.72-8.66h-.47c-.3,1-.55,1.75-.75,2.37s-.37,1.2-.54,1.77a7.79,7.79,0,0,0-.34,1,.74.74,0,0,1-.78.55l-.21,0a.71.71,0,0,1-.56-.69.56.56,0,0,1,0-.23,4.44,4.44,0,0,0,.2-.65c.1-.37.25-.82.42-1.35s.35-1.12.54-1.75.38-1.23.6-1.81a2.39,2.39,0,0,1,.86-1.2,2.1,2.1,0,0,1,1.38-.54h3.2a2.11,2.11,0,0,1,1.4.54,2.9,2.9,0,0,1,.89,1.2c.18.58.36,1.19.54,1.81s.38,1.21.54,1.75.31,1,.41,1.35a3.94,3.94,0,0,0,.21.65l0,.19a.69.69,0,0,1-.57.73l-.2,0a.73.73,0,0,1-.78-.55c0-.12-.14-.47-.29-1s-.37-1.15-.58-1.77-.45-1.4-.75-2.37h-.47l2.72,8.66H88.2v6.57a.71.71,0,0,1-.28.63,1,1,0,0,1-.68.24,1,1,0,0,1-.67-.24.81.81,0,0,1-.25-.63V94.56Z"/><path class="cls-4" d="M86.11,82.8a1.91,1.91,0,0,0,1.38-.52,1.86,1.86,0,0,0,0-2.68A1.86,1.86,0,0,0,86.11,79a2.07,2.07,0,0,0-1.47.56,1.84,1.84,0,0,0,0,2.68,2.15,2.15,0,0,0,1.47.52"/><path class="cls-4" d="M36.49,94.56v6.57a.83.83,0,0,1-.26.63.93.93,0,0,1-.67.24,1,1,0,0,1-.69-.24.78.78,0,0,1-.28-.63V94.56H32l2.72-8.66h-.46c-.3,1-.55,1.75-.75,2.37s-.37,1.2-.54,1.77a7.79,7.79,0,0,0-.34,1,.74.74,0,0,1-.78.55l-.21,0a.7.7,0,0,1-.56-.69.43.43,0,0,1,.05-.23,4.44,4.44,0,0,0,.2-.65q.15-.55.42-1.35c.16-.54.35-1.12.54-1.75s.38-1.23.6-1.81a2.34,2.34,0,0,1,.86-1.2,2.1,2.1,0,0,1,1.38-.54h3.2a2.11,2.11,0,0,1,1.4.54,2.9,2.9,0,0,1,.89,1.2c.18.58.36,1.19.54,1.81s.38,1.21.54,1.75.31,1,.41,1.35a3.94,3.94,0,0,0,.21.65l.05.19a.69.69,0,0,1-.57.73l-.2,0a.73.73,0,0,1-.78-.55c0-.12-.14-.47-.3-1s-.36-1.15-.57-1.77-.45-1.4-.75-2.37H38.7l2.72,8.66H38.84v6.57a.71.71,0,0,1-.28.63,1,1,0,0,1-.68.24,1,1,0,0,1-.67-.24.81.81,0,0,1-.25-.63V94.56Z"/><path class="cls-4" d="M36.75,82.8a1.94,1.94,0,0,0,1.38-.52,1.86,1.86,0,0,0,0-2.68A1.89,1.89,0,0,0,36.75,79a2.07,2.07,0,0,0-1.47.56,1.82,1.82,0,0,0,0,2.68,2.13,2.13,0,0,0,1.47.52"/><path class="cls-4" d="M48.83,94.56v6.57a.83.83,0,0,1-.26.63.93.93,0,0,1-.67.24,1,1,0,0,1-.69-.24.78.78,0,0,1-.28-.63V94.56H44.31L47,85.9h-.46c-.3,1-.55,1.75-.75,2.37s-.37,1.2-.54,1.77a7.79,7.79,0,0,0-.34,1,.74.74,0,0,1-.78.55l-.21,0a.7.7,0,0,1-.56-.69.43.43,0,0,1,0-.23,4.44,4.44,0,0,0,.2-.65q.15-.55.42-1.35c.16-.54.35-1.12.54-1.75s.38-1.23.6-1.81a2.34,2.34,0,0,1,.86-1.2,2.1,2.1,0,0,1,1.38-.54h3.2a2.11,2.11,0,0,1,1.4.54,2.9,2.9,0,0,1,.89,1.2c.18.58.36,1.19.54,1.81s.38,1.21.54,1.75.31,1,.41,1.35a3.94,3.94,0,0,0,.21.65l0,.19a.69.69,0,0,1-.57.73l-.2,0a.73.73,0,0,1-.78-.55c0-.12-.14-.47-.3-1s-.36-1.15-.57-1.77-.45-1.4-.75-2.37H51l2.72,8.66H51.18v6.57a.71.71,0,0,1-.28.63,1,1,0,0,1-.68.24,1,1,0,0,1-.67-.24.81.81,0,0,1-.25-.63V94.56Z"/><path class="cls-4" d="M49.09,82.8a1.94,1.94,0,0,0,1.38-.52,1.86,1.86,0,0,0,0-2.68A1.88,1.88,0,0,0,49.09,79a2.07,2.07,0,0,0-1.47.56,1.84,1.84,0,0,0,0,2.68,2.13,2.13,0,0,0,1.47.52"/><path class="cls-4" d="M61.17,94.43V101a.81.81,0,0,1-.26.63.92.92,0,0,1-.66.24,1,1,0,0,1-.7-.24.77.77,0,0,1-.28-.63V94.43H56.66l2.72-8.66h-.47c-.3,1-.55,1.75-.75,2.37s-.37,1.21-.54,1.77a7.7,7.7,0,0,0-.34,1,.74.74,0,0,1-.78.54l-.21,0a.71.71,0,0,1-.56-.68.6.6,0,0,1,.05-.24,4,4,0,0,0,.2-.65c.1-.37.25-.82.42-1.35s.35-1.12.54-1.75.38-1.23.6-1.81a2.39,2.39,0,0,1,.86-1.2,2.09,2.09,0,0,1,1.38-.53H63a2.1,2.1,0,0,1,1.4.53,2.9,2.9,0,0,1,.89,1.2c.18.58.36,1.19.54,1.81s.38,1.21.54,1.75.31,1,.41,1.35a3.6,3.6,0,0,0,.21.65l0,.19a.69.69,0,0,1-.57.73l-.2,0a.73.73,0,0,1-.78-.54c0-.12-.14-.48-.29-1s-.37-1.15-.58-1.77-.45-1.4-.75-2.37h-.47l2.72,8.66H63.52V101a.71.71,0,0,1-.28.63,1,1,0,0,1-.68.24,1,1,0,0,1-.67-.24.81.81,0,0,1-.25-.63V94.43Z"/><path class="cls-4" d="M61.43,82.68a1.91,1.91,0,0,0,1.38-.53,1.86,1.86,0,0,0,0-2.68,1.88,1.88,0,0,0-1.38-.56,2.07,2.07,0,0,0-1.47.56,1.84,1.84,0,0,0,0,2.68,2.09,2.09,0,0,0,1.47.53"/><path class="cls-4" d="M73.51,94.43V101a.81.81,0,0,1-.26.63.92.92,0,0,1-.66.24,1,1,0,0,1-.7-.24.77.77,0,0,1-.28-.63V94.43H69l2.72-8.66h-.47c-.3,1-.55,1.75-.75,2.37s-.37,1.21-.54,1.77a7.7,7.7,0,0,0-.34,1,.74.74,0,0,1-.78.54l-.21,0a.71.71,0,0,1-.56-.68.6.6,0,0,1,.05-.24,4,4,0,0,0,.2-.65c.1-.37.25-.82.42-1.35s.35-1.12.54-1.75.38-1.23.6-1.81a2.39,2.39,0,0,1,.86-1.2,2.09,2.09,0,0,1,1.38-.53h3.2a2.1,2.1,0,0,1,1.4.53,2.9,2.9,0,0,1,.89,1.2c.18.58.36,1.19.54,1.81s.38,1.21.54,1.75.31,1,.41,1.35a3.6,3.6,0,0,0,.21.65l0,.19a.69.69,0,0,1-.57.73l-.2,0a.73.73,0,0,1-.78-.54c0-.12-.14-.48-.29-1s-.37-1.15-.58-1.77-.45-1.4-.75-2.37h-.47l2.72,8.66H75.86V101a.71.71,0,0,1-.28.63,1,1,0,0,1-.68.24,1,1,0,0,1-.67-.24A.81.81,0,0,1,74,101V94.43Z"/><path class="cls-4" d="M73.77,82.68a1.91,1.91,0,0,0,1.38-.53,1.86,1.86,0,0,0,0-2.68,1.88,1.88,0,0,0-1.38-.56,2.07,2.07,0,0,0-1.47.56,1.84,1.84,0,0,0,0,2.68,2.09,2.09,0,0,0,1.47.53"/><path class="cls-5" d="M21.55,133.76a2.48,2.48,0,0,0-2.45,2.44v6a.78.78,0,0,0,.25.59.8.8,0,0,0,.58.24.83.83,0,0,0,.62-.24.87.87,0,0,0,.21-.59v-5.32h.43v14.74a1,1,0,0,0,.36.75,1,1,0,0,0,.78.32,1,1,0,0,0,.79-.32,1,1,0,0,0,.33-.75V143h.48v8.55a1,1,0,0,0,.32.75,1,1,0,0,0,.82.32,1,1,0,0,0,.75-.32,1,1,0,0,0,.31-.75V136.84h.45v5.32a.83.83,0,0,0,.22.59.89.89,0,0,0,.61.24.79.79,0,0,0,.61-.24.93.93,0,0,0,.22-.59v-5.95a2.39,2.39,0,0,0-.72-1.72,2.33,2.33,0,0,0-1.73-.73Z"/><path class="cls-5" d="M23.68,133.27a1.87,1.87,0,0,0,1.35-.53,1.92,1.92,0,0,0-1.35-3.27,1.77,1.77,0,0,0-1.35.57,1.88,1.88,0,0,0,1.35,3.23"/><path class="cls-5" d="M33.81,133.76a2.38,2.38,0,0,0-1.72.72,2.41,2.41,0,0,0-.74,1.72v6a.78.78,0,0,0,.25.59.81.81,0,0,0,.59.24.82.82,0,0,0,.61-.24.87.87,0,0,0,.21-.59v-5.32h.43v14.74a1,1,0,0,0,.36.75,1,1,0,0,0,.78.32,1,1,0,0,0,.8-.32,1,1,0,0,0,.32-.75V143h.48v8.55a1,1,0,0,0,.32.75,1,1,0,0,0,.82.32,1,1,0,0,0,.76-.32,1,1,0,0,0,.3-.75V136.84h.45v5.32a.83.83,0,0,0,.22.59.89.89,0,0,0,.61.24.79.79,0,0,0,.61-.24.93.93,0,0,0,.22-.59v-5.95a2.39,2.39,0,0,0-.72-1.72,2.33,2.33,0,0,0-1.73-.73Z"/><path class="cls-5" d="M35.93,133.27a1.87,1.87,0,0,0,1.35-.53,1.92,1.92,0,0,0-1.35-3.27,1.77,1.77,0,0,0-1.35.57,1.88,1.88,0,0,0,1.35,3.23"/><path class="cls-5" d="M46.06,133.76a2.48,2.48,0,0,0-2.45,2.44v6a.77.77,0,0,0,.24.59.87.87,0,0,0,1.2,0,.88.88,0,0,0,.22-.59v-5.32h.43v14.74a1,1,0,0,0,.36.75,1.12,1.12,0,0,0,1.57,0,1,1,0,0,0,.32-.75V143h.48v8.55a1,1,0,0,0,.32.75,1.06,1.06,0,0,0,.82.32,1,1,0,0,0,.76-.32,1,1,0,0,0,.3-.75V136.84h.45v5.32a.83.83,0,0,0,.22.59.91.91,0,0,0,.61.24.79.79,0,0,0,.61-.24.93.93,0,0,0,.22-.59v-5.95a2.39,2.39,0,0,0-.72-1.72,2.33,2.33,0,0,0-1.73-.73Z"/><path class="cls-5" d="M48.19,133.27a1.86,1.86,0,0,0,1.9-1.89,1.93,1.93,0,0,0-1.9-1.91,1.77,1.77,0,0,0-1.36.57,2,2,0,0,0,0,2.7,1.82,1.82,0,0,0,1.36.53"/><path class="cls-5" d="M58.31,133.76a2.38,2.38,0,0,0-1.72.72,2.44,2.44,0,0,0-.73,1.72v6a.75.75,0,0,0,.25.59.78.78,0,0,0,.58.24.83.83,0,0,0,.62-.24.92.92,0,0,0,.21-.59v-5.32H58v14.74a1,1,0,0,0,.36.75,1,1,0,0,0,.78.32,1,1,0,0,0,.79-.32,1,1,0,0,0,.32-.75V143h.49v8.55a1,1,0,0,0,.32.75,1,1,0,0,0,.81.32,1.06,1.06,0,0,0,1.06-1.07V136.84h.45v5.32a.88.88,0,0,0,.22.59.91.91,0,0,0,.61.24.79.79,0,0,0,.61-.24.88.88,0,0,0,.22-.59v-5.95a2.35,2.35,0,0,0-.72-1.72,2.31,2.31,0,0,0-1.73-.73Z"/><path class="cls-5" d="M60.44,133.27a1.9,1.9,0,0,0,0-3.8,1.74,1.74,0,0,0-1.35.57,1.93,1.93,0,0,0,0,2.7,1.78,1.78,0,0,0,1.35.53"/><path class="cls-5" d="M70.56,133.76a2.38,2.38,0,0,0-1.72.72,2.44,2.44,0,0,0-.73,1.72v6a.78.78,0,0,0,.25.59.8.8,0,0,0,.58.24.83.83,0,0,0,.62-.24.87.87,0,0,0,.21-.59v-5.32h.43v14.74a1,1,0,0,0,.36.75,1,1,0,0,0,.78.32,1,1,0,0,0,.79-.32,1,1,0,0,0,.33-.75V143h.48v8.55a1,1,0,0,0,.32.75,1,1,0,0,0,.82.32,1,1,0,0,0,.75-.32,1,1,0,0,0,.31-.75V136.84h.45v5.32a.83.83,0,0,0,.22.59.86.86,0,0,0,.6.24.78.78,0,0,0,.61-.24.88.88,0,0,0,.22-.59v-5.95a2.35,2.35,0,0,0-.72-1.72,2.31,2.31,0,0,0-1.73-.73Z"/><path class="cls-5" d="M72.69,133.27a1.87,1.87,0,0,0,1.35-.53,1.93,1.93,0,0,0-1.35-3.27,1.74,1.74,0,0,0-1.35.57,1.88,1.88,0,0,0,1.35,3.23"/><path class="cls-5" d="M82.81,133.76a2.4,2.4,0,0,0-1.72.72,2.44,2.44,0,0,0-.73,1.72v6a.78.78,0,0,0,.25.59.8.8,0,0,0,.58.24.83.83,0,0,0,.62-.24.87.87,0,0,0,.21-.59v-5.32h.43v14.74a1,1,0,0,0,.36.75,1,1,0,0,0,.78.32,1,1,0,0,0,.79-.32,1,1,0,0,0,.33-.75V143h.48v8.55a1,1,0,0,0,.32.75,1,1,0,0,0,.82.32,1,1,0,0,0,.75-.32,1,1,0,0,0,.31-.75V136.84h.45v5.32a.83.83,0,0,0,.22.59.86.86,0,0,0,.6.24.78.78,0,0,0,.61-.24.88.88,0,0,0,.22-.59v-5.95a2.38,2.38,0,0,0-.71-1.72,2.35,2.35,0,0,0-1.74-.73Z"/><path class="cls-5" d="M84.94,133.27a1.87,1.87,0,0,0,1.35-.53,1.92,1.92,0,0,0-1.35-3.27,1.75,1.75,0,0,0-1.35.57,1.88,1.88,0,0,0,1.35,3.23"/><path class="cls-5" d="M95.06,133.76a2.48,2.48,0,0,0-2.45,2.44v6a.78.78,0,0,0,.25.59.8.8,0,0,0,.58.24.83.83,0,0,0,.62-.24.87.87,0,0,0,.21-.59v-5.32h.43v14.74a1,1,0,0,0,.36.75,1,1,0,0,0,.78.32,1,1,0,0,0,.79-.32,1,1,0,0,0,.33-.75V143h.48v8.55a1,1,0,0,0,.32.75,1,1,0,0,0,.82.32,1,1,0,0,0,.75-.32,1,1,0,0,0,.31-.75V136.84h.45v5.32a.83.83,0,0,0,.22.59.89.89,0,0,0,.61.24.79.79,0,0,0,.61-.24.93.93,0,0,0,.22-.59v-5.95a2.39,2.39,0,0,0-.72-1.72,2.33,2.33,0,0,0-1.73-.73Z"/><path class="cls-5" d="M97.19,133.27a1.87,1.87,0,0,0,1.35-.53,1.92,1.92,0,0,0-1.35-3.27,1.77,1.77,0,0,0-1.35.57,1.88,1.88,0,0,0,1.35,3.23"/><path class="cls-5" d="M107.32,133.76a2.38,2.38,0,0,0-1.72.72,2.41,2.41,0,0,0-.74,1.72v6a.78.78,0,0,0,.25.59.8.8,0,0,0,.58.24.83.83,0,0,0,.62-.24.87.87,0,0,0,.21-.59v-5.32H107v14.74a1,1,0,0,0,.36.75,1,1,0,0,0,.78.32,1,1,0,0,0,.79-.32,1,1,0,0,0,.33-.75V143h.48v8.55a1,1,0,0,0,.32.75,1,1,0,0,0,.82.32,1,1,0,0,0,.76-.32,1,1,0,0,0,.3-.75V136.84h.45v5.32a.83.83,0,0,0,.22.59.89.89,0,0,0,.61.24.79.79,0,0,0,.61-.24.93.93,0,0,0,.22-.59v-5.95a2.39,2.39,0,0,0-.72-1.72,2.33,2.33,0,0,0-1.73-.73Z"/><path class="cls-5" d="M109.44,133.27a1.87,1.87,0,0,0,1.35-.53,1.92,1.92,0,0,0-1.35-3.27,1.77,1.77,0,0,0-1.35.57,1.88,1.88,0,0,0,1.35,3.23"/><path class="cls-5" d="M119.57,133.76a2.48,2.48,0,0,0-2.45,2.44v6a.77.77,0,0,0,.24.59.87.87,0,0,0,1.2,0,.88.88,0,0,0,.22-.59v-5.32h.43v14.74a1,1,0,0,0,.36.75,1.12,1.12,0,0,0,1.57,0,1,1,0,0,0,.32-.75V143h.48v8.55a1,1,0,0,0,.32.75,1.06,1.06,0,0,0,.82.32,1,1,0,0,0,.76-.32,1,1,0,0,0,.3-.75V136.84h.45v5.32a.83.83,0,0,0,.22.59.91.91,0,0,0,.61.24.79.79,0,0,0,.61-.24.93.93,0,0,0,.22-.59v-5.95a2.39,2.39,0,0,0-.72-1.72,2.33,2.33,0,0,0-1.73-.73Z"/><path class="cls-5" d="M121.69,133.27a1.87,1.87,0,0,0,1.35-.53,1.92,1.92,0,0,0-1.35-3.27,1.77,1.77,0,0,0-1.35.57,1.88,1.88,0,0,0,1.35,3.23"/><path class="cls-5" d="M131.82,133.76a2.38,2.38,0,0,0-1.72.72,2.44,2.44,0,0,0-.73,1.72v6a.75.75,0,0,0,.25.59.78.78,0,0,0,.58.24.83.83,0,0,0,.62-.24.92.92,0,0,0,.21-.59v-5.32h.43v14.74a1,1,0,0,0,.36.75,1,1,0,0,0,.78.32,1,1,0,0,0,.79-.32,1,1,0,0,0,.32-.75V143h.49v8.55a1,1,0,0,0,.32.75,1,1,0,0,0,.81.32,1.06,1.06,0,0,0,1.06-1.07V136.84h.45v5.32a.88.88,0,0,0,.22.59.91.91,0,0,0,.61.24.79.79,0,0,0,.61-.24.88.88,0,0,0,.22-.59v-5.95a2.35,2.35,0,0,0-.72-1.72,2.31,2.31,0,0,0-1.73-.73Z"/><path class="cls-5" d="M134,133.27a1.9,1.9,0,0,0,0-3.8,1.74,1.74,0,0,0-1.35.57,1.93,1.93,0,0,0,0,2.7,1.78,1.78,0,0,0,1.35.53"/><path class="cls-5" d="M144.07,133.76a2.38,2.38,0,0,0-1.72.72,2.44,2.44,0,0,0-.73,1.72v6a.75.75,0,0,0,.25.59.78.78,0,0,0,.58.24.83.83,0,0,0,.62-.24.87.87,0,0,0,.21-.59v-5.32h.43v14.74a1,1,0,0,0,.36.75,1,1,0,0,0,.78.32,1,1,0,0,0,.79-.32,1,1,0,0,0,.32-.75V143h.49v8.55a1,1,0,0,0,.32.75,1,1,0,0,0,.81.32,1,1,0,0,0,.76-.32,1,1,0,0,0,.31-.75V136.84h.45v5.32a.83.83,0,0,0,.22.59.86.86,0,0,0,.6.24.79.79,0,0,0,.61-.24.88.88,0,0,0,.22-.59v-5.95a2.35,2.35,0,0,0-.72-1.72,2.31,2.31,0,0,0-1.73-.73Z"/><path class="cls-5" d="M146.2,133.27a1.87,1.87,0,0,0,1.35-.53,1.93,1.93,0,0,0-1.35-3.27,1.74,1.74,0,0,0-1.35.57,1.88,1.88,0,0,0,1.35,3.23"/><path class="cls-5" d="M156.32,133.76a2.4,2.4,0,0,0-1.72.72,2.44,2.44,0,0,0-.73,1.72v6a.78.78,0,0,0,.25.59.8.8,0,0,0,.58.24.83.83,0,0,0,.62-.24.87.87,0,0,0,.21-.59v-5.32H156v14.74a1,1,0,0,0,.36.75,1,1,0,0,0,.78.32,1,1,0,0,0,.79-.32,1,1,0,0,0,.33-.75V143h.48v8.55a1,1,0,0,0,.32.75,1,1,0,0,0,.82.32,1,1,0,0,0,.75-.32,1,1,0,0,0,.31-.75V136.84h.45v5.32a.83.83,0,0,0,.22.59.86.86,0,0,0,.6.24.78.78,0,0,0,.61-.24.88.88,0,0,0,.22-.59v-5.95a2.38,2.38,0,0,0-.71-1.72,2.35,2.35,0,0,0-1.74-.73Z"/><path class="cls-5" d="M158.45,133.27a1.87,1.87,0,0,0,1.35-.53,1.82,1.82,0,0,0,.55-1.36,1.85,1.85,0,0,0-.55-1.34,1.83,1.83,0,0,0-1.35-.57,1.74,1.74,0,0,0-1.35.57,1.88,1.88,0,0,0,1.35,3.23"/><path class="cls-5" d="M168.57,133.76a2.48,2.48,0,0,0-2.45,2.44v6a.78.78,0,0,0,.25.59.8.8,0,0,0,.58.24.83.83,0,0,0,.62-.24.87.87,0,0,0,.21-.59v-5.32h.43v14.74a1,1,0,0,0,.36.75,1,1,0,0,0,.78.32,1,1,0,0,0,.79-.32,1,1,0,0,0,.33-.75V143H171v8.55a1,1,0,0,0,.32.75,1,1,0,0,0,.82.32,1,1,0,0,0,.75-.32,1,1,0,0,0,.31-.75V136.84h.45v5.32a.83.83,0,0,0,.22.59.88.88,0,0,0,.6.24.76.76,0,0,0,.61-.24.88.88,0,0,0,.22-.59v-5.95a2.38,2.38,0,0,0-.71-1.72,2.34,2.34,0,0,0-1.73-.73Z"/><path class="cls-5" d="M170.7,133.27a1.87,1.87,0,0,0,1.35-.53,1.92,1.92,0,0,0-1.35-3.27,1.77,1.77,0,0,0-1.35.57,1.88,1.88,0,0,0,1.35,3.23"/><path class="cls-5" d="M180.83,133.76a2.38,2.38,0,0,0-1.72.72,2.41,2.41,0,0,0-.74,1.72v6a.78.78,0,0,0,.25.59.8.8,0,0,0,.58.24.83.83,0,0,0,.62-.24.87.87,0,0,0,.21-.59v-5.32h.43v14.74a1,1,0,0,0,.36.75,1,1,0,0,0,.78.32,1,1,0,0,0,.79-.32,1,1,0,0,0,.33-.75V143h.48v8.55a1,1,0,0,0,.32.75,1,1,0,0,0,.82.32,1,1,0,0,0,.76-.32,1,1,0,0,0,.3-.75V136.84h.45v5.32a.83.83,0,0,0,.22.59.89.89,0,0,0,.61.24.79.79,0,0,0,.61-.24.93.93,0,0,0,.22-.59v-5.95a2.39,2.39,0,0,0-.72-1.72,2.33,2.33,0,0,0-1.73-.73Z"/><path class="cls-5" d="M183,133.27a1.87,1.87,0,0,0,1.35-.53,1.92,1.92,0,0,0-1.35-3.27,1.77,1.77,0,0,0-1.35.57,1.88,1.88,0,0,0,1.35,3.23"/><path class="cls-5" d="M193.08,133.76a2.48,2.48,0,0,0-2.45,2.44v6a.77.77,0,0,0,.24.59.87.87,0,0,0,1.2,0,.88.88,0,0,0,.22-.59v-5.32h.43v14.74a1,1,0,0,0,.36.75,1.12,1.12,0,0,0,1.57,0,1,1,0,0,0,.32-.75V143h.48v8.55a1,1,0,0,0,.32.75,1.06,1.06,0,0,0,.82.32,1,1,0,0,0,.76-.32,1,1,0,0,0,.3-.75V136.84h.45v5.32a.83.83,0,0,0,.22.59.91.91,0,0,0,.61.24.79.79,0,0,0,.61-.24.93.93,0,0,0,.22-.59v-5.95a2.39,2.39,0,0,0-.72-1.72,2.33,2.33,0,0,0-1.73-.73Z"/><path class="cls-5" d="M195.2,133.27a1.87,1.87,0,0,0,1.35-.53,1.92,1.92,0,0,0-1.35-3.27,1.77,1.77,0,0,0-1.35.57,1.88,1.88,0,0,0,1.35,3.23"/><path class="cls-5" d="M205.33,133.76a2.48,2.48,0,0,0-2.45,2.44v6a.77.77,0,0,0,.24.59.81.81,0,0,0,.59.24.79.79,0,0,0,.61-.24.88.88,0,0,0,.22-.59v-5.32H205v14.74a1,1,0,0,0,.36.75,1,1,0,0,0,.78.32,1,1,0,0,0,.79-.32,1,1,0,0,0,.32-.75V143h.48v8.55a1.11,1.11,0,0,0,1.14,1.07,1,1,0,0,0,.76-.32,1,1,0,0,0,.3-.75V136.84h.45v5.32a.83.83,0,0,0,.22.59.91.91,0,0,0,.61.24.79.79,0,0,0,.61-.24.93.93,0,0,0,.22-.59v-5.95a2.35,2.35,0,0,0-.72-1.72,2.33,2.33,0,0,0-1.73-.73Z"/><path class="cls-5" d="M207.46,133.27a1.9,1.9,0,0,0,0-3.8,1.74,1.74,0,0,0-1.35.57,1.93,1.93,0,0,0,0,2.7,1.78,1.78,0,0,0,1.35.53"/><path class="cls-5" d="M217.58,133.76a2.38,2.38,0,0,0-1.72.72,2.44,2.44,0,0,0-.73,1.72v6a.75.75,0,0,0,.25.59.78.78,0,0,0,.58.24.83.83,0,0,0,.62-.24.87.87,0,0,0,.21-.59v-5.32h.43v14.74a1,1,0,0,0,.36.75,1,1,0,0,0,.78.32,1,1,0,0,0,.79-.32,1,1,0,0,0,.32-.75V143H220v8.55a1,1,0,0,0,.32.75,1,1,0,0,0,.81.32,1,1,0,0,0,.76-.32,1,1,0,0,0,.31-.75V136.84h.45v5.32a.83.83,0,0,0,.22.59.86.86,0,0,0,.6.24.79.79,0,0,0,.61-.24.88.88,0,0,0,.22-.59v-5.95a2.35,2.35,0,0,0-.72-1.72,2.31,2.31,0,0,0-1.73-.73Z"/><path class="cls-5" d="M219.71,133.27a1.85,1.85,0,0,0,1.9-1.89,1.93,1.93,0,0,0-1.9-1.91,1.74,1.74,0,0,0-1.35.57,1.93,1.93,0,0,0,0,2.7,1.78,1.78,0,0,0,1.35.53"/><path class="cls-5" d="M229.83,133.76a2.38,2.38,0,0,0-1.72.72,2.44,2.44,0,0,0-.73,1.72v6a.78.78,0,0,0,.25.59.8.8,0,0,0,.58.24.83.83,0,0,0,.62-.24.87.87,0,0,0,.21-.59v-5.32h.43v14.74a1,1,0,0,0,.36.75,1,1,0,0,0,.78.32,1,1,0,0,0,.79-.32,1,1,0,0,0,.33-.75V143h.48v8.55a1,1,0,0,0,.32.75,1,1,0,0,0,.82.32,1,1,0,0,0,.75-.32,1,1,0,0,0,.31-.75V136.84h.45v5.32a.83.83,0,0,0,.22.59.86.86,0,0,0,.6.24.78.78,0,0,0,.61-.24.88.88,0,0,0,.22-.59v-5.95a2.35,2.35,0,0,0-.72-1.72,2.31,2.31,0,0,0-1.73-.73Z"/><path class="cls-5" d="M232,133.27a1.87,1.87,0,0,0,1.35-.53,1.82,1.82,0,0,0,.55-1.36,1.85,1.85,0,0,0-.55-1.34,1.83,1.83,0,0,0-1.35-.57,1.74,1.74,0,0,0-1.35.57,1.88,1.88,0,0,0,1.35,3.23"/><path class="cls-5" d="M242.08,133.76a2.48,2.48,0,0,0-2.45,2.44v6a.78.78,0,0,0,.25.59.8.8,0,0,0,.58.24.83.83,0,0,0,.62-.24.87.87,0,0,0,.21-.59v-5.32h.43v14.74a1,1,0,0,0,.36.75,1,1,0,0,0,.78.32,1,1,0,0,0,.79-.32,1,1,0,0,0,.33-.75V143h.48v8.55a1,1,0,0,0,.32.75,1,1,0,0,0,.82.32,1,1,0,0,0,.75-.32,1,1,0,0,0,.31-.75V136.84h.45v5.32a.83.83,0,0,0,.22.59.88.88,0,0,0,.6.24.76.76,0,0,0,.61-.24.88.88,0,0,0,.22-.59v-5.95a2.38,2.38,0,0,0-.71-1.72,2.34,2.34,0,0,0-1.73-.73Z"/><path class="cls-5" d="M244.21,133.27a1.87,1.87,0,0,0,1.35-.53,1.92,1.92,0,0,0-1.35-3.27,1.75,1.75,0,0,0-1.35.57,1.88,1.88,0,0,0,1.35,3.23"/><path class="cls-5" d="M254.34,133.76a2.38,2.38,0,0,0-1.72.72,2.41,2.41,0,0,0-.74,1.72v6a.78.78,0,0,0,.25.59.8.8,0,0,0,.58.24.83.83,0,0,0,.62-.24.87.87,0,0,0,.21-.59v-5.32H254v14.74a1,1,0,0,0,.36.75,1,1,0,0,0,.78.32,1,1,0,0,0,.79-.32,1,1,0,0,0,.33-.75V143h.48v8.55a1,1,0,0,0,.32.75,1,1,0,0,0,.82.32,1,1,0,0,0,.76-.32,1,1,0,0,0,.3-.75V136.84h.45v5.32a.83.83,0,0,0,.22.59.89.89,0,0,0,.61.24.79.79,0,0,0,.61-.24.93.93,0,0,0,.22-.59v-5.95a2.39,2.39,0,0,0-.72-1.72,2.33,2.33,0,0,0-1.73-.73Z"/><path class="cls-5" d="M256.46,133.27a1.87,1.87,0,0,0,1.35-.53,1.92,1.92,0,0,0-1.35-3.27,1.77,1.77,0,0,0-1.35.57,1.88,1.88,0,0,0,1.35,3.23"/><path class="cls-5" d="M21.55,159.72a2.48,2.48,0,0,0-2.45,2.44v6a.82.82,0,0,0,.83.82.82.82,0,0,0,.62-.23.89.89,0,0,0,.21-.59v-5.33h.43v14.75a1,1,0,0,0,.36.75,1.06,1.06,0,0,0,.78.32,1,1,0,0,0,.79-.32,1,1,0,0,0,.33-.75V169h.48v8.55a1,1,0,0,0,.32.75,1.08,1.08,0,0,0,.82.32,1,1,0,0,0,.75-.32,1,1,0,0,0,.31-.75V162.79h.45v5.33a.85.85,0,0,0,.22.59.88.88,0,0,0,.61.23.78.78,0,0,0,.61-.23,1,1,0,0,0,.22-.59v-6a2.42,2.42,0,0,0-.72-1.72,2.35,2.35,0,0,0-1.73-.72Z"/><path class="cls-5" d="M23.68,159.23a1.86,1.86,0,0,0,1.91-1.9,1.93,1.93,0,0,0-1.91-1.9,1.77,1.77,0,0,0-1.35.57,1.8,1.8,0,0,0-.54,1.33,1.83,1.83,0,0,0,1.89,1.9"/><path class="cls-5" d="M33.81,159.72a2.38,2.38,0,0,0-1.72.72,2.41,2.41,0,0,0-.74,1.72v6a.82.82,0,0,0,.84.82.81.81,0,0,0,.61-.23.89.89,0,0,0,.21-.59v-5.33h.43v14.75a1,1,0,0,0,.36.75,1.09,1.09,0,0,0,.78.32,1.06,1.06,0,0,0,.8-.32,1,1,0,0,0,.32-.75V169h.48v8.55a1,1,0,0,0,.32.75,1.08,1.08,0,0,0,.82.32,1.06,1.06,0,0,0,.76-.32,1,1,0,0,0,.3-.75V162.79h.45v5.33a.85.85,0,0,0,.22.59.88.88,0,0,0,.61.23.78.78,0,0,0,.61-.23,1,1,0,0,0,.22-.59v-6a2.42,2.42,0,0,0-.72-1.72,2.35,2.35,0,0,0-1.73-.72Z"/><path class="cls-5" d="M35.93,159.23a1.86,1.86,0,0,0,1.91-1.9,1.93,1.93,0,0,0-1.91-1.9,1.77,1.77,0,0,0-1.35.57,1.8,1.8,0,0,0-.54,1.33,1.83,1.83,0,0,0,1.89,1.9"/><path class="cls-5" d="M46.06,159.72a2.48,2.48,0,0,0-2.45,2.44v6a.78.78,0,0,0,.24.59.9.9,0,0,0,1.2,0,.9.9,0,0,0,.22-.59v-5.33h.43v14.75a1,1,0,0,0,.36.75,1.12,1.12,0,0,0,1.57,0,1,1,0,0,0,.32-.75V169h.48v8.55a1,1,0,0,0,.32.75,1.1,1.1,0,0,0,.82.32,1,1,0,0,0,.76-.32,1,1,0,0,0,.3-.75V162.79h.45v5.33a.85.85,0,0,0,.22.59.9.9,0,0,0,.61.23.78.78,0,0,0,.61-.23,1,1,0,0,0,.22-.59v-6a2.42,2.42,0,0,0-.72-1.72,2.35,2.35,0,0,0-1.73-.72Z"/><path class="cls-5" d="M48.19,159.23a1.86,1.86,0,0,0,1.9-1.9,1.93,1.93,0,0,0-1.9-1.9,1.77,1.77,0,0,0-1.36.57,1.83,1.83,0,0,0-.54,1.33,1.86,1.86,0,0,0,.54,1.37,1.82,1.82,0,0,0,1.36.53"/><path class="cls-5" d="M58.31,159.72a2.38,2.38,0,0,0-1.72.72,2.44,2.44,0,0,0-.73,1.72v6a.76.76,0,0,0,.25.59.78.78,0,0,0,.58.23.82.82,0,0,0,.62-.23.94.94,0,0,0,.21-.59v-5.33H58v14.75a1,1,0,0,0,.36.75,1.06,1.06,0,0,0,.78.32,1,1,0,0,0,.79-.32,1,1,0,0,0,.32-.75V169h.49v8.55a1,1,0,0,0,.32.75,1.06,1.06,0,0,0,.81.32,1,1,0,0,0,.76-.32,1,1,0,0,0,.3-.75V162.79h.45v5.33a.77.77,0,0,0,.83.82.78.78,0,0,0,.61-.23.9.9,0,0,0,.22-.59v-6a2.38,2.38,0,0,0-.72-1.72,2.34,2.34,0,0,0-1.73-.72Z"/><path class="cls-5" d="M60.44,159.23a1.83,1.83,0,0,0,1.34-.53,1.85,1.85,0,0,0,.56-1.37,1.93,1.93,0,0,0-1.9-1.9,1.74,1.74,0,0,0-1.35.57,1.8,1.8,0,0,0-.55,1.33,1.83,1.83,0,0,0,.55,1.37,1.78,1.78,0,0,0,1.35.53"/><path class="cls-5" d="M70.56,159.72a2.38,2.38,0,0,0-1.72.72,2.44,2.44,0,0,0-.73,1.72v6a.82.82,0,0,0,.83.82.82.82,0,0,0,.62-.23.89.89,0,0,0,.21-.59v-5.33h.43v14.75a1,1,0,0,0,.36.75,1.06,1.06,0,0,0,.78.32,1,1,0,0,0,.79-.32,1,1,0,0,0,.33-.75V169h.48v8.55a1,1,0,0,0,.32.75,1.07,1.07,0,0,0,.82.32,1,1,0,0,0,.75-.32,1,1,0,0,0,.31-.75V162.79h.45v5.33a.77.77,0,0,0,.82.82.77.77,0,0,0,.61-.23.9.9,0,0,0,.22-.59v-6a2.38,2.38,0,0,0-.72-1.72,2.34,2.34,0,0,0-1.73-.72Z"/><path class="cls-5" d="M72.69,159.23A1.87,1.87,0,0,0,74,158.7a1.85,1.85,0,0,0,.55-1.37,1.93,1.93,0,0,0-1.9-1.9,1.74,1.74,0,0,0-1.35.57,1.8,1.8,0,0,0-.54,1.33,1.82,1.82,0,0,0,.54,1.37,1.79,1.79,0,0,0,1.35.53"/><path class="cls-5" d="M82.81,159.72a2.4,2.4,0,0,0-1.72.72,2.44,2.44,0,0,0-.73,1.72v6a.82.82,0,0,0,.83.82.82.82,0,0,0,.62-.23.89.89,0,0,0,.21-.59v-5.33h.43v14.75a1,1,0,0,0,.36.75,1.06,1.06,0,0,0,.78.32,1,1,0,0,0,.79-.32,1,1,0,0,0,.33-.75V169h.48v8.55a1,1,0,0,0,.32.75,1.07,1.07,0,0,0,.82.32,1,1,0,0,0,.75-.32,1,1,0,0,0,.31-.75V162.79h.45v5.33a.77.77,0,0,0,.82.82.77.77,0,0,0,.61-.23.9.9,0,0,0,.22-.59v-6a2.41,2.41,0,0,0-.71-1.72,2.38,2.38,0,0,0-1.74-.72Z"/><path class="cls-5" d="M84.94,159.23a1.86,1.86,0,0,0,1.91-1.9,1.93,1.93,0,0,0-1.91-1.9,1.75,1.75,0,0,0-1.35.57,1.8,1.8,0,0,0-.54,1.33,1.83,1.83,0,0,0,1.89,1.9"/><path class="cls-5" d="M95.06,159.72a2.48,2.48,0,0,0-2.45,2.44v6a.82.82,0,0,0,.83.82.82.82,0,0,0,.62-.23.89.89,0,0,0,.21-.59v-5.33h.43v14.75a1,1,0,0,0,.36.75,1.06,1.06,0,0,0,.78.32,1,1,0,0,0,.79-.32,1,1,0,0,0,.33-.75V169h.48v8.55a1,1,0,0,0,.32.75,1.08,1.08,0,0,0,.82.32,1,1,0,0,0,.75-.32,1,1,0,0,0,.31-.75V162.79h.45v5.33a.85.85,0,0,0,.22.59.88.88,0,0,0,.61.23.78.78,0,0,0,.61-.23,1,1,0,0,0,.22-.59v-6a2.42,2.42,0,0,0-.72-1.72,2.35,2.35,0,0,0-1.73-.72Z"/><path class="cls-5" d="M97.19,159.23a1.86,1.86,0,0,0,1.91-1.9,1.93,1.93,0,0,0-1.91-1.9,1.77,1.77,0,0,0-1.35.57,1.8,1.8,0,0,0-.54,1.33,1.83,1.83,0,0,0,1.89,1.9"/><path class="cls-5" d="M107.32,159.72a2.38,2.38,0,0,0-1.72.72,2.41,2.41,0,0,0-.74,1.72v6a.82.82,0,0,0,.83.82.82.82,0,0,0,.62-.23.89.89,0,0,0,.21-.59v-5.33H107v14.75a1,1,0,0,0,.36.75,1.07,1.07,0,0,0,.78.32,1,1,0,0,0,.79-.32,1,1,0,0,0,.33-.75V169h.48v8.55a1,1,0,0,0,.32.75,1.08,1.08,0,0,0,.82.32,1.06,1.06,0,0,0,.76-.32,1,1,0,0,0,.3-.75V162.79h.45v5.33a.85.85,0,0,0,.22.59.88.88,0,0,0,.61.23.78.78,0,0,0,.61-.23,1,1,0,0,0,.22-.59v-6a2.42,2.42,0,0,0-.72-1.72,2.35,2.35,0,0,0-1.73-.72Z"/><path class="cls-5" d="M109.44,159.23a1.86,1.86,0,0,0,1.91-1.9,1.93,1.93,0,0,0-1.91-1.9,1.77,1.77,0,0,0-1.35.57,1.8,1.8,0,0,0-.54,1.33,1.83,1.83,0,0,0,1.89,1.9"/><path class="cls-5" d="M119.57,159.72a2.48,2.48,0,0,0-2.45,2.44v6a.78.78,0,0,0,.24.59.9.9,0,0,0,1.2,0,.9.9,0,0,0,.22-.59v-5.33h.43v14.75a1,1,0,0,0,.36.75,1.12,1.12,0,0,0,1.57,0,1,1,0,0,0,.32-.75V169h.48v8.55a1,1,0,0,0,.32.75,1.1,1.1,0,0,0,.82.32,1,1,0,0,0,.76-.32,1,1,0,0,0,.3-.75V162.79h.45v5.33a.85.85,0,0,0,.22.59.9.9,0,0,0,.61.23.78.78,0,0,0,.61-.23,1,1,0,0,0,.22-.59v-6a2.42,2.42,0,0,0-.72-1.72,2.35,2.35,0,0,0-1.73-.72Z"/><path class="cls-5" d="M121.69,159.23a1.86,1.86,0,0,0,1.91-1.9,1.93,1.93,0,0,0-1.91-1.9,1.77,1.77,0,0,0-1.35.57,1.8,1.8,0,0,0-.54,1.33,1.83,1.83,0,0,0,1.89,1.9"/><path class="cls-5" d="M131.82,159.72a2.38,2.38,0,0,0-1.72.72,2.44,2.44,0,0,0-.73,1.72v6a.76.76,0,0,0,.25.59.78.78,0,0,0,.58.23.82.82,0,0,0,.62-.23.94.94,0,0,0,.21-.59v-5.33h.43v14.75a1,1,0,0,0,.36.75,1.06,1.06,0,0,0,.78.32,1,1,0,0,0,.79-.32,1,1,0,0,0,.32-.75V169h.49v8.55a1,1,0,0,0,.32.75,1.06,1.06,0,0,0,.81.32,1,1,0,0,0,.76-.32,1,1,0,0,0,.3-.75V162.79h.45v5.33a.77.77,0,0,0,.83.82.78.78,0,0,0,.61-.23.9.9,0,0,0,.22-.59v-6a2.38,2.38,0,0,0-.72-1.72,2.34,2.34,0,0,0-1.73-.72Z"/><path class="cls-5" d="M134,159.23a1.83,1.83,0,0,0,1.34-.53,1.85,1.85,0,0,0,.56-1.37,1.93,1.93,0,0,0-1.9-1.9,1.74,1.74,0,0,0-1.35.57,1.8,1.8,0,0,0-.55,1.33,1.83,1.83,0,0,0,.55,1.37,1.78,1.78,0,0,0,1.35.53"/><path class="cls-5" d="M144.07,159.72a2.38,2.38,0,0,0-1.72.72,2.44,2.44,0,0,0-.73,1.72v6a.76.76,0,0,0,.25.59.78.78,0,0,0,.58.23.82.82,0,0,0,.62-.23.89.89,0,0,0,.21-.59v-5.33h.43v14.75a1,1,0,0,0,.36.75,1.06,1.06,0,0,0,.78.32,1,1,0,0,0,.79-.32,1,1,0,0,0,.32-.75V169h.49v8.55a1,1,0,0,0,.32.75,1.06,1.06,0,0,0,.81.32,1,1,0,0,0,.76-.32,1,1,0,0,0,.31-.75V162.79h.45v5.33a.77.77,0,0,0,.82.82.78.78,0,0,0,.61-.23.9.9,0,0,0,.22-.59v-6a2.38,2.38,0,0,0-.72-1.72,2.34,2.34,0,0,0-1.73-.72Z"/><path class="cls-5" d="M146.2,159.23a1.87,1.87,0,0,0,1.35-.53,1.85,1.85,0,0,0,.55-1.37,1.93,1.93,0,0,0-1.9-1.9,1.74,1.74,0,0,0-1.35.57,1.8,1.8,0,0,0-.54,1.33,1.82,1.82,0,0,0,.54,1.37,1.79,1.79,0,0,0,1.35.53"/><path class="cls-5" d="M156.32,159.72a2.4,2.4,0,0,0-1.72.72,2.44,2.44,0,0,0-.73,1.72v6a.82.82,0,0,0,.83.82.82.82,0,0,0,.62-.23.89.89,0,0,0,.21-.59v-5.33H156v14.75a1,1,0,0,0,.36.75,1.06,1.06,0,0,0,.78.32,1,1,0,0,0,.79-.32,1,1,0,0,0,.33-.75V169h.48v8.55a1,1,0,0,0,.32.75,1.07,1.07,0,0,0,.82.32,1,1,0,0,0,.75-.32,1,1,0,0,0,.31-.75V162.79h.45v5.33a.77.77,0,0,0,.82.82.77.77,0,0,0,.61-.23.9.9,0,0,0,.22-.59v-6a2.41,2.41,0,0,0-.71-1.72,2.38,2.38,0,0,0-1.74-.72Z"/><path class="cls-5" d="M158.45,159.23a1.87,1.87,0,0,0,1.35-.53,1.92,1.92,0,0,0-1.35-3.27,1.74,1.74,0,0,0-1.35.57,1.8,1.8,0,0,0-.54,1.33,1.83,1.83,0,0,0,1.89,1.9"/><path class="cls-5" d="M168.57,159.72a2.48,2.48,0,0,0-2.45,2.44v6a.82.82,0,0,0,.83.82.82.82,0,0,0,.62-.23.89.89,0,0,0,.21-.59v-5.33h.43v14.75a1,1,0,0,0,.36.75,1.06,1.06,0,0,0,.78.32,1,1,0,0,0,.79-.32,1,1,0,0,0,.33-.75V169H171v8.55a1,1,0,0,0,.32.75,1.07,1.07,0,0,0,.82.32,1,1,0,0,0,.75-.32,1,1,0,0,0,.31-.75V162.79h.45v5.33a.85.85,0,0,0,.22.59.87.87,0,0,0,.6.23.76.76,0,0,0,.61-.23.9.9,0,0,0,.22-.59v-6a2.41,2.41,0,0,0-.71-1.72,2.37,2.37,0,0,0-1.73-.72Z"/><path class="cls-5" d="M170.7,159.23a1.86,1.86,0,0,0,1.91-1.9,1.93,1.93,0,0,0-1.91-1.9,1.77,1.77,0,0,0-1.35.57,1.8,1.8,0,0,0-.54,1.33,1.83,1.83,0,0,0,1.89,1.9"/><path class="cls-5" d="M180.83,159.72a2.38,2.38,0,0,0-1.72.72,2.41,2.41,0,0,0-.74,1.72v6a.82.82,0,0,0,.83.82.82.82,0,0,0,.62-.23.89.89,0,0,0,.21-.59v-5.33h.43v14.75a1,1,0,0,0,.36.75,1.07,1.07,0,0,0,.78.32,1,1,0,0,0,.79-.32,1,1,0,0,0,.33-.75V169h.48v8.55a1,1,0,0,0,.32.75,1.08,1.08,0,0,0,.82.32,1.06,1.06,0,0,0,.76-.32,1,1,0,0,0,.3-.75V162.79h.45v5.33a.85.85,0,0,0,.22.59.88.88,0,0,0,.61.23.78.78,0,0,0,.61-.23,1,1,0,0,0,.22-.59v-6a2.42,2.42,0,0,0-.72-1.72,2.35,2.35,0,0,0-1.73-.72Z"/><path class="cls-5" d="M183,159.23a1.86,1.86,0,0,0,1.91-1.9,1.93,1.93,0,0,0-1.91-1.9,1.77,1.77,0,0,0-1.35.57,1.8,1.8,0,0,0-.54,1.33,1.83,1.83,0,0,0,1.89,1.9"/><path class="cls-5" d="M193.08,159.72a2.48,2.48,0,0,0-2.45,2.44v6a.78.78,0,0,0,.24.59.9.9,0,0,0,1.2,0,.9.9,0,0,0,.22-.59v-5.33h.43v14.75a1,1,0,0,0,.36.75,1.12,1.12,0,0,0,1.57,0,1,1,0,0,0,.32-.75V169h.48v8.55a1,1,0,0,0,.32.75,1.1,1.1,0,0,0,.82.32,1,1,0,0,0,.76-.32,1,1,0,0,0,.3-.75V162.79h.45v5.33a.85.85,0,0,0,.22.59.9.9,0,0,0,.61.23.78.78,0,0,0,.61-.23,1,1,0,0,0,.22-.59v-6a2.42,2.42,0,0,0-.72-1.72,2.35,2.35,0,0,0-1.73-.72Z"/><path class="cls-5" d="M195.2,159.23a1.86,1.86,0,0,0,1.91-1.9,1.93,1.93,0,0,0-1.91-1.9,1.77,1.77,0,0,0-1.35.57,1.8,1.8,0,0,0-.54,1.33,1.83,1.83,0,0,0,1.89,1.9"/><path class="cls-5" d="M205.33,159.72a2.48,2.48,0,0,0-2.45,2.44v6a.78.78,0,0,0,.24.59.8.8,0,0,0,.59.23.78.78,0,0,0,.61-.23.9.9,0,0,0,.22-.59v-5.33H205v14.75a1,1,0,0,0,.36.75,1.06,1.06,0,0,0,.78.32,1,1,0,0,0,.79-.32,1,1,0,0,0,.32-.75V169h.48v8.55a1,1,0,0,0,.33.75,1.06,1.06,0,0,0,.81.32,1,1,0,0,0,.76-.32,1,1,0,0,0,.3-.75V162.79h.45v5.33a.85.85,0,0,0,.22.59.9.9,0,0,0,.61.23.78.78,0,0,0,.61-.23,1,1,0,0,0,.22-.59v-6a2.38,2.38,0,0,0-.72-1.72,2.35,2.35,0,0,0-1.73-.72Z"/><path class="cls-5" d="M207.46,159.23a1.83,1.83,0,0,0,1.34-.53,1.85,1.85,0,0,0,.56-1.37,1.93,1.93,0,0,0-1.9-1.9,1.74,1.74,0,0,0-1.35.57,1.8,1.8,0,0,0-.55,1.33,1.83,1.83,0,0,0,.55,1.37,1.78,1.78,0,0,0,1.35.53"/><path class="cls-5" d="M217.58,159.72a2.38,2.38,0,0,0-1.72.72,2.44,2.44,0,0,0-.73,1.72v6a.76.76,0,0,0,.25.59.78.78,0,0,0,.58.23.82.82,0,0,0,.62-.23.89.89,0,0,0,.21-.59v-5.33h.43v14.75a1,1,0,0,0,.36.75,1.06,1.06,0,0,0,.78.32,1,1,0,0,0,.79-.32,1,1,0,0,0,.32-.75V169H220v8.55a1,1,0,0,0,.32.75,1.06,1.06,0,0,0,.81.32,1,1,0,0,0,.76-.32,1,1,0,0,0,.31-.75V162.79h.45v5.33a.77.77,0,0,0,.82.82.78.78,0,0,0,.61-.23.9.9,0,0,0,.22-.59v-6a2.38,2.38,0,0,0-.72-1.72,2.34,2.34,0,0,0-1.73-.72Z"/><path class="cls-5" d="M219.71,159.23a1.85,1.85,0,0,0,1.9-1.9,1.93,1.93,0,0,0-1.9-1.9,1.74,1.74,0,0,0-1.35.57,1.8,1.8,0,0,0-.55,1.33,1.83,1.83,0,0,0,.55,1.37,1.78,1.78,0,0,0,1.35.53"/><path class="cls-5" d="M229.83,159.72a2.38,2.38,0,0,0-1.72.72,2.44,2.44,0,0,0-.73,1.72v6a.82.82,0,0,0,.83.82.82.82,0,0,0,.62-.23.89.89,0,0,0,.21-.59v-5.33h.43v14.75a1,1,0,0,0,.36.75,1.06,1.06,0,0,0,.78.32,1,1,0,0,0,.79-.32,1,1,0,0,0,.33-.75V169h.48v8.55a1,1,0,0,0,.32.75,1.07,1.07,0,0,0,.82.32,1,1,0,0,0,.75-.32,1,1,0,0,0,.31-.75V162.79h.45v5.33a.77.77,0,0,0,.82.82.77.77,0,0,0,.61-.23.9.9,0,0,0,.22-.59v-6a2.38,2.38,0,0,0-.72-1.72,2.34,2.34,0,0,0-1.73-.72Z"/><path class="cls-5" d="M232,159.23a1.87,1.87,0,0,0,1.35-.53,1.92,1.92,0,0,0-1.35-3.27,1.74,1.74,0,0,0-1.35.57,1.8,1.8,0,0,0-.54,1.33,1.83,1.83,0,0,0,1.89,1.9"/><path class="cls-5" d="M242.08,159.72a2.48,2.48,0,0,0-2.45,2.44v6a.82.82,0,0,0,.83.82.82.82,0,0,0,.62-.23.89.89,0,0,0,.21-.59v-5.33h.43v14.75a1,1,0,0,0,.36.75,1.06,1.06,0,0,0,.78.32,1,1,0,0,0,.79-.32,1,1,0,0,0,.33-.75V169h.48v8.55a1,1,0,0,0,.32.75,1.07,1.07,0,0,0,.82.32,1,1,0,0,0,.75-.32,1,1,0,0,0,.31-.75V162.79h.45v5.33a.85.85,0,0,0,.22.59.87.87,0,0,0,.6.23.76.76,0,0,0,.61-.23.9.9,0,0,0,.22-.59v-6a2.41,2.41,0,0,0-.71-1.72,2.37,2.37,0,0,0-1.73-.72Z"/><path class="cls-5" d="M244.21,159.23a1.86,1.86,0,0,0,1.91-1.9,1.93,1.93,0,0,0-1.91-1.9,1.75,1.75,0,0,0-1.35.57,1.8,1.8,0,0,0-.54,1.33,1.83,1.83,0,0,0,1.89,1.9"/><path class="cls-5" d="M254.34,159.72a2.38,2.38,0,0,0-1.72.72,2.41,2.41,0,0,0-.74,1.72v6a.82.82,0,0,0,.83.82.82.82,0,0,0,.62-.23.89.89,0,0,0,.21-.59v-5.33H254v14.75a1,1,0,0,0,.36.75,1.07,1.07,0,0,0,.78.32,1,1,0,0,0,.79-.32,1,1,0,0,0,.33-.75V169h.48v8.55a1,1,0,0,0,.32.75,1.08,1.08,0,0,0,.82.32,1.06,1.06,0,0,0,.76-.32,1,1,0,0,0,.3-.75V162.79h.45v5.33a.85.85,0,0,0,.22.59.88.88,0,0,0,.61.23.78.78,0,0,0,.61-.23,1,1,0,0,0,.22-.59v-6a2.42,2.42,0,0,0-.72-1.72,2.35,2.35,0,0,0-1.73-.72Z"/><path class="cls-5" d="M256.46,159.23a1.86,1.86,0,0,0,1.91-1.9,1.93,1.93,0,0,0-1.91-1.9,1.77,1.77,0,0,0-1.35.57,1.8,1.8,0,0,0-.54,1.33,1.83,1.83,0,0,0,1.89,1.9"/><path class="cls-5" d="M21.55,186.83a2.48,2.48,0,0,0-2.45,2.44v6a.81.81,0,0,0,.25.59.79.79,0,0,0,.58.23.82.82,0,0,0,.62-.23.91.91,0,0,0,.21-.59V189.9h.43v14.75a1,1,0,0,0,.36.75,1.06,1.06,0,0,0,.78.32,1,1,0,0,0,.79-.32,1,1,0,0,0,.33-.75V196.1h.48v8.55a1,1,0,0,0,.32.75,1.08,1.08,0,0,0,.82.32,1,1,0,0,0,.75-.32,1,1,0,0,0,.31-.75V189.9h.45v5.33a.87.87,0,0,0,.22.59.88.88,0,0,0,.61.23.78.78,0,0,0,.61-.23,1,1,0,0,0,.22-.59v-6a2.42,2.42,0,0,0-.72-1.72,2.35,2.35,0,0,0-1.73-.72Z"/><path class="cls-5" d="M23.68,186.34a1.86,1.86,0,0,0,1.91-1.9,1.8,1.8,0,0,0-.56-1.33,1.83,1.83,0,0,0-1.35-.57,1.89,1.89,0,0,0-1.89,1.9,1.84,1.84,0,0,0,.54,1.37,1.81,1.81,0,0,0,1.35.53"/><path class="cls-5" d="M33.81,186.83a2.38,2.38,0,0,0-1.72.72,2.41,2.41,0,0,0-.74,1.72v6a.81.81,0,0,0,.25.59.8.8,0,0,0,.59.23.81.81,0,0,0,.61-.23.91.91,0,0,0,.21-.59V189.9h.43v14.75a1,1,0,0,0,.36.75,1.09,1.09,0,0,0,.78.32,1.06,1.06,0,0,0,.8-.32,1,1,0,0,0,.32-.75V196.1h.48v8.55a1,1,0,0,0,.32.75,1.08,1.08,0,0,0,.82.32,1.06,1.06,0,0,0,.76-.32,1,1,0,0,0,.3-.75V189.9h.45v5.33a.87.87,0,0,0,.22.59.88.88,0,0,0,.61.23.78.78,0,0,0,.61-.23,1,1,0,0,0,.22-.59v-6a2.42,2.42,0,0,0-.72-1.72,2.35,2.35,0,0,0-1.73-.72Z"/><path class="cls-5" d="M35.93,186.34a1.86,1.86,0,0,0,1.91-1.9,1.8,1.8,0,0,0-.56-1.33,1.83,1.83,0,0,0-1.35-.57,1.89,1.89,0,0,0-1.89,1.9,1.84,1.84,0,0,0,.54,1.37,1.81,1.81,0,0,0,1.35.53"/><path class="cls-5" d="M46.06,186.83a2.48,2.48,0,0,0-2.45,2.44v6a.86.86,0,0,0,1.44.59.92.92,0,0,0,.22-.59V189.9h.43v14.75a1,1,0,0,0,.36.75,1.12,1.12,0,0,0,1.57,0,1,1,0,0,0,.32-.75V196.1h.48v8.55a1,1,0,0,0,.32.75,1.1,1.1,0,0,0,.82.32,1,1,0,0,0,.76-.32,1,1,0,0,0,.3-.75V189.9h.45v5.33a.87.87,0,0,0,.22.59.9.9,0,0,0,.61.23.78.78,0,0,0,.61-.23,1,1,0,0,0,.22-.59v-6a2.42,2.42,0,0,0-.72-1.72,2.35,2.35,0,0,0-1.73-.72Z"/><path class="cls-5" d="M48.19,186.34a1.86,1.86,0,0,0,1.9-1.9,1.8,1.8,0,0,0-.56-1.33,1.82,1.82,0,0,0-1.34-.57,1.77,1.77,0,0,0-1.36.57,1.82,1.82,0,0,0-.54,1.33,1.88,1.88,0,0,0,.54,1.37,1.82,1.82,0,0,0,1.36.53"/><path class="cls-5" d="M58.31,186.83a2.38,2.38,0,0,0-1.72.72,2.44,2.44,0,0,0-.73,1.72v6a.82.82,0,0,0,.83.82.82.82,0,0,0,.62-.23,1,1,0,0,0,.21-.59V189.9H58v14.75a1,1,0,0,0,.36.75,1.06,1.06,0,0,0,.78.32,1,1,0,0,0,.79-.32,1,1,0,0,0,.32-.75V196.1h.49v8.55a1,1,0,0,0,.32.75,1.06,1.06,0,0,0,.81.32,1,1,0,0,0,.76-.32,1,1,0,0,0,.3-.75V189.9h.45v5.33a.92.92,0,0,0,.22.59.9.9,0,0,0,.61.23.78.78,0,0,0,.61-.23.92.92,0,0,0,.22-.59v-6a2.38,2.38,0,0,0-.72-1.72,2.34,2.34,0,0,0-1.73-.72Z"/><path class="cls-5" d="M60.44,186.34a1.83,1.83,0,0,0,1.34-.53,1.85,1.85,0,0,0,.56-1.37,1.8,1.8,0,0,0-.56-1.33,1.82,1.82,0,0,0-1.34-.57,1.74,1.74,0,0,0-1.35.57,1.79,1.79,0,0,0-.55,1.33,1.85,1.85,0,0,0,.55,1.37,1.78,1.78,0,0,0,1.35.53"/><path class="cls-5" d="M70.56,186.83a2.38,2.38,0,0,0-1.72.72,2.44,2.44,0,0,0-.73,1.72v6a.81.81,0,0,0,.25.59.79.79,0,0,0,.58.23.82.82,0,0,0,.62-.23.91.91,0,0,0,.21-.59V189.9h.43v14.75a1,1,0,0,0,.36.75,1.06,1.06,0,0,0,.78.32,1,1,0,0,0,.79-.32,1,1,0,0,0,.33-.75V196.1h.48v8.55a1,1,0,0,0,.32.75,1.07,1.07,0,0,0,.82.32,1,1,0,0,0,.75-.32,1,1,0,0,0,.31-.75V189.9h.45v5.33a.87.87,0,0,0,.22.59.85.85,0,0,0,.6.23.77.77,0,0,0,.61-.23.92.92,0,0,0,.22-.59v-6a2.38,2.38,0,0,0-.72-1.72,2.34,2.34,0,0,0-1.73-.72Z"/><path class="cls-5" d="M72.69,186.34a1.87,1.87,0,0,0,1.35-.53,1.85,1.85,0,0,0,.55-1.37,1.93,1.93,0,0,0-1.9-1.9,1.74,1.74,0,0,0-1.35.57,1.78,1.78,0,0,0-.54,1.33,1.84,1.84,0,0,0,.54,1.37,1.79,1.79,0,0,0,1.35.53"/><path class="cls-5" d="M82.81,186.83a2.4,2.4,0,0,0-1.72.72,2.44,2.44,0,0,0-.73,1.72v6a.81.81,0,0,0,.25.59.79.79,0,0,0,.58.23.82.82,0,0,0,.62-.23.91.91,0,0,0,.21-.59V189.9h.43v14.75a1,1,0,0,0,.36.75,1.06,1.06,0,0,0,.78.32,1,1,0,0,0,.79-.32,1,1,0,0,0,.33-.75V196.1h.48v8.55a1,1,0,0,0,.32.75,1.07,1.07,0,0,0,.82.32,1,1,0,0,0,.75-.32,1,1,0,0,0,.31-.75V189.9h.45v5.33a.87.87,0,0,0,.22.59.85.85,0,0,0,.6.23.77.77,0,0,0,.61-.23.92.92,0,0,0,.22-.59v-6a2.41,2.41,0,0,0-.71-1.72,2.38,2.38,0,0,0-1.74-.72Z"/><path class="cls-5" d="M84.94,186.34a1.86,1.86,0,0,0,1.91-1.9,1.8,1.8,0,0,0-.56-1.33,1.83,1.83,0,0,0-1.35-.57,1.75,1.75,0,0,0-1.35.57,1.78,1.78,0,0,0-.54,1.33,1.84,1.84,0,0,0,.54,1.37,1.81,1.81,0,0,0,1.35.53"/><path class="cls-5" d="M95.06,186.83a2.48,2.48,0,0,0-2.45,2.44v6a.81.81,0,0,0,.25.59.79.79,0,0,0,.58.23.82.82,0,0,0,.62-.23.91.91,0,0,0,.21-.59V189.9h.43v14.75a1,1,0,0,0,.36.75,1.06,1.06,0,0,0,.78.32,1,1,0,0,0,.79-.32,1,1,0,0,0,.33-.75V196.1h.48v8.55a1,1,0,0,0,.32.75,1.08,1.08,0,0,0,.82.32,1,1,0,0,0,.75-.32,1,1,0,0,0,.31-.75V189.9h.45v5.33a.87.87,0,0,0,.22.59.88.88,0,0,0,.61.23.78.78,0,0,0,.61-.23,1,1,0,0,0,.22-.59v-6a2.42,2.42,0,0,0-.72-1.72,2.35,2.35,0,0,0-1.73-.72Z"/><path class="cls-5" d="M97.19,186.34a1.86,1.86,0,0,0,1.91-1.9,1.8,1.8,0,0,0-.56-1.33,1.83,1.83,0,0,0-1.35-.57,1.89,1.89,0,0,0-1.89,1.9,1.84,1.84,0,0,0,.54,1.37,1.81,1.81,0,0,0,1.35.53"/><path class="cls-5" d="M107.32,186.83a2.38,2.38,0,0,0-1.72.72,2.41,2.41,0,0,0-.74,1.72v6a.81.81,0,0,0,.25.59.79.79,0,0,0,.58.23.82.82,0,0,0,.62-.23.91.91,0,0,0,.21-.59V189.9H107v14.75a1,1,0,0,0,.36.75,1.07,1.07,0,0,0,.78.32,1,1,0,0,0,.79-.32,1,1,0,0,0,.33-.75V196.1h.48v8.55a1,1,0,0,0,.32.75,1.08,1.08,0,0,0,.82.32,1.06,1.06,0,0,0,.76-.32,1,1,0,0,0,.3-.75V189.9h.45v5.33a.87.87,0,0,0,.22.59.88.88,0,0,0,.61.23.78.78,0,0,0,.61-.23,1,1,0,0,0,.22-.59v-6a2.42,2.42,0,0,0-.72-1.72,2.35,2.35,0,0,0-1.73-.72Z"/><path class="cls-5" d="M109.44,186.34a1.86,1.86,0,0,0,1.91-1.9,1.8,1.8,0,0,0-.56-1.33,1.83,1.83,0,0,0-1.35-.57,1.89,1.89,0,0,0-1.89,1.9,1.84,1.84,0,0,0,.54,1.37,1.81,1.81,0,0,0,1.35.53"/><path class="cls-5" d="M119.57,186.83a2.48,2.48,0,0,0-2.45,2.44v6a.86.86,0,0,0,1.44.59.92.92,0,0,0,.22-.59V189.9h.43v14.75a1,1,0,0,0,.36.75,1.12,1.12,0,0,0,1.57,0,1,1,0,0,0,.32-.75V196.1h.48v8.55a1,1,0,0,0,.32.75,1.1,1.1,0,0,0,.82.32,1,1,0,0,0,.76-.32,1,1,0,0,0,.3-.75V189.9h.45v5.33a.87.87,0,0,0,.22.59.9.9,0,0,0,.61.23.78.78,0,0,0,.61-.23,1,1,0,0,0,.22-.59v-6a2.42,2.42,0,0,0-.72-1.72,2.35,2.35,0,0,0-1.73-.72Z"/><path class="cls-5" d="M121.69,186.34a1.86,1.86,0,0,0,1.91-1.9,1.8,1.8,0,0,0-.56-1.33,1.83,1.83,0,0,0-1.35-.57,1.89,1.89,0,0,0-1.89,1.9,1.84,1.84,0,0,0,.54,1.37,1.81,1.81,0,0,0,1.35.53"/><path class="cls-5" d="M131.82,186.83a2.38,2.38,0,0,0-1.72.72,2.44,2.44,0,0,0-.73,1.72v6a.82.82,0,0,0,.83.82.82.82,0,0,0,.62-.23,1,1,0,0,0,.21-.59V189.9h.43v14.75a1,1,0,0,0,.36.75,1.06,1.06,0,0,0,.78.32,1,1,0,0,0,.79-.32,1,1,0,0,0,.32-.75V196.1h.49v8.55a1,1,0,0,0,.32.75,1.06,1.06,0,0,0,.81.32,1,1,0,0,0,.76-.32,1,1,0,0,0,.3-.75V189.9h.45v5.33a.92.92,0,0,0,.22.59.9.9,0,0,0,.61.23.78.78,0,0,0,.61-.23.92.92,0,0,0,.22-.59v-6a2.38,2.38,0,0,0-.72-1.72,2.34,2.34,0,0,0-1.73-.72Z"/><path class="cls-5" d="M134,186.34a1.83,1.83,0,0,0,1.34-.53,1.85,1.85,0,0,0,.56-1.37,1.8,1.8,0,0,0-.56-1.33,1.82,1.82,0,0,0-1.34-.57,1.74,1.74,0,0,0-1.35.57,1.79,1.79,0,0,0-.55,1.33,1.85,1.85,0,0,0,.55,1.37,1.78,1.78,0,0,0,1.35.53"/><path class="cls-5" d="M144.07,186.83a2.38,2.38,0,0,0-1.72.72,2.44,2.44,0,0,0-.73,1.72v6a.82.82,0,0,0,.83.82.82.82,0,0,0,.62-.23.91.91,0,0,0,.21-.59V189.9h.43v14.75a1,1,0,0,0,.36.75,1.06,1.06,0,0,0,.78.32,1,1,0,0,0,.79-.32,1,1,0,0,0,.32-.75V196.1h.49v8.55a1,1,0,0,0,.32.75,1.06,1.06,0,0,0,.81.32,1,1,0,0,0,.76-.32,1,1,0,0,0,.31-.75V189.9h.45v5.33a.87.87,0,0,0,.22.59.85.85,0,0,0,.6.23.78.78,0,0,0,.61-.23.92.92,0,0,0,.22-.59v-6a2.38,2.38,0,0,0-.72-1.72,2.34,2.34,0,0,0-1.73-.72Z"/><path class="cls-5" d="M146.2,186.34a1.87,1.87,0,0,0,1.35-.53,1.85,1.85,0,0,0,.55-1.37,1.93,1.93,0,0,0-1.9-1.9,1.74,1.74,0,0,0-1.35.57,1.78,1.78,0,0,0-.54,1.33,1.84,1.84,0,0,0,.54,1.37,1.79,1.79,0,0,0,1.35.53"/><path class="cls-5" d="M156.32,186.83a2.4,2.4,0,0,0-1.72.72,2.44,2.44,0,0,0-.73,1.72v6a.81.81,0,0,0,.25.59.79.79,0,0,0,.58.23.82.82,0,0,0,.62-.23.91.91,0,0,0,.21-.59V189.9H156v14.75a1,1,0,0,0,.36.75,1.06,1.06,0,0,0,.78.32,1,1,0,0,0,.79-.32,1,1,0,0,0,.33-.75V196.1h.48v8.55a1,1,0,0,0,.32.75,1.07,1.07,0,0,0,.82.32,1,1,0,0,0,.75-.32,1,1,0,0,0,.31-.75V189.9h.45v5.33a.87.87,0,0,0,.22.59.85.85,0,0,0,.6.23.77.77,0,0,0,.61-.23.92.92,0,0,0,.22-.59v-6a2.41,2.41,0,0,0-.71-1.72,2.38,2.38,0,0,0-1.74-.72Z"/><path class="cls-5" d="M158.45,186.34a1.87,1.87,0,0,0,1.35-.53,1.85,1.85,0,0,0,.55-1.37,1.91,1.91,0,0,0-1.9-1.9,1.74,1.74,0,0,0-1.35.57,1.78,1.78,0,0,0-.54,1.33,1.84,1.84,0,0,0,.54,1.37,1.81,1.81,0,0,0,1.35.53"/><path class="cls-5" d="M168.57,186.83a2.48,2.48,0,0,0-2.45,2.44v6a.81.81,0,0,0,.25.59.79.79,0,0,0,.58.23.82.82,0,0,0,.62-.23.91.91,0,0,0,.21-.59V189.9h.43v14.75a1,1,0,0,0,.36.75,1.06,1.06,0,0,0,.78.32,1,1,0,0,0,.79-.32,1,1,0,0,0,.33-.75V196.1H171v8.55a1,1,0,0,0,.32.75,1.07,1.07,0,0,0,.82.32,1,1,0,0,0,.75-.32,1,1,0,0,0,.31-.75V189.9h.45v5.33a.77.77,0,0,0,.82.82.76.76,0,0,0,.61-.23.92.92,0,0,0,.22-.59v-6a2.41,2.41,0,0,0-.71-1.72,2.37,2.37,0,0,0-1.73-.72Z"/><path class="cls-5" d="M170.7,186.34a1.86,1.86,0,0,0,1.91-1.9,1.8,1.8,0,0,0-.56-1.33,1.83,1.83,0,0,0-1.35-.57,1.89,1.89,0,0,0-1.89,1.9,1.84,1.84,0,0,0,.54,1.37,1.81,1.81,0,0,0,1.35.53"/><path class="cls-5" d="M180.83,186.83a2.38,2.38,0,0,0-1.72.72,2.41,2.41,0,0,0-.74,1.72v6a.81.81,0,0,0,.25.59.79.79,0,0,0,.58.23.82.82,0,0,0,.62-.23.91.91,0,0,0,.21-.59V189.9h.43v14.75a1,1,0,0,0,.36.75,1.07,1.07,0,0,0,.78.32,1,1,0,0,0,.79-.32,1,1,0,0,0,.33-.75V196.1h.48v8.55a1,1,0,0,0,.32.75,1.08,1.08,0,0,0,.82.32,1.06,1.06,0,0,0,.76-.32,1,1,0,0,0,.3-.75V189.9h.45v5.33a.87.87,0,0,0,.22.59.88.88,0,0,0,.61.23.78.78,0,0,0,.61-.23,1,1,0,0,0,.22-.59v-6a2.42,2.42,0,0,0-.72-1.72,2.35,2.35,0,0,0-1.73-.72Z"/><path class="cls-5" d="M183,186.34a1.86,1.86,0,0,0,1.91-1.9,1.8,1.8,0,0,0-.56-1.33,1.83,1.83,0,0,0-1.35-.57,1.89,1.89,0,0,0-1.89,1.9,1.84,1.84,0,0,0,.54,1.37,1.81,1.81,0,0,0,1.35.53"/><path class="cls-5" d="M193.08,186.83a2.48,2.48,0,0,0-2.45,2.44v6a.86.86,0,0,0,1.44.59.92.92,0,0,0,.22-.59V189.9h.43v14.75a1,1,0,0,0,.36.75,1.12,1.12,0,0,0,1.57,0,1,1,0,0,0,.32-.75V196.1h.48v8.55a1,1,0,0,0,.32.75,1.1,1.1,0,0,0,.82.32,1,1,0,0,0,.76-.32,1,1,0,0,0,.3-.75V189.9h.45v5.33a.87.87,0,0,0,.22.59.9.9,0,0,0,.61.23.78.78,0,0,0,.61-.23,1,1,0,0,0,.22-.59v-6a2.42,2.42,0,0,0-.72-1.72,2.35,2.35,0,0,0-1.73-.72Z"/><path class="cls-5" d="M195.2,186.34a1.86,1.86,0,0,0,1.91-1.9,1.8,1.8,0,0,0-.56-1.33,1.83,1.83,0,0,0-1.35-.57,1.89,1.89,0,0,0-1.89,1.9,1.84,1.84,0,0,0,.54,1.37,1.81,1.81,0,0,0,1.35.53"/><path class="cls-5" d="M205.33,186.83a2.48,2.48,0,0,0-2.45,2.44v6a.8.8,0,0,0,.83.82.78.78,0,0,0,.61-.23.92.92,0,0,0,.22-.59V189.9H205v14.75a1,1,0,0,0,.36.75,1.06,1.06,0,0,0,.78.32,1,1,0,0,0,.79-.32,1,1,0,0,0,.32-.75V196.1h.48v8.55a1,1,0,0,0,.33.75,1.06,1.06,0,0,0,.81.32,1,1,0,0,0,.76-.32,1,1,0,0,0,.3-.75V189.9h.45v5.33a.87.87,0,0,0,.22.59.9.9,0,0,0,.61.23.78.78,0,0,0,.61-.23,1,1,0,0,0,.22-.59v-6a2.38,2.38,0,0,0-.72-1.72,2.35,2.35,0,0,0-1.73-.72Z"/><path class="cls-5" d="M207.46,186.34a1.83,1.83,0,0,0,1.34-.53,1.85,1.85,0,0,0,.56-1.37,1.8,1.8,0,0,0-.56-1.33,1.82,1.82,0,0,0-1.34-.57,1.74,1.74,0,0,0-1.35.57,1.79,1.79,0,0,0-.55,1.33,1.85,1.85,0,0,0,.55,1.37,1.78,1.78,0,0,0,1.35.53"/><path class="cls-5" d="M217.58,186.83a2.38,2.38,0,0,0-1.72.72,2.44,2.44,0,0,0-.73,1.72v6a.82.82,0,0,0,.83.82.82.82,0,0,0,.62-.23.91.91,0,0,0,.21-.59V189.9h.43v14.75a1,1,0,0,0,.36.75,1.06,1.06,0,0,0,.78.32,1,1,0,0,0,.79-.32,1,1,0,0,0,.32-.75V196.1H220v8.55a1,1,0,0,0,.32.75,1.06,1.06,0,0,0,.81.32,1,1,0,0,0,.76-.32,1,1,0,0,0,.31-.75V189.9h.45v5.33a.87.87,0,0,0,.22.59.85.85,0,0,0,.6.23.78.78,0,0,0,.61-.23.92.92,0,0,0,.22-.59v-6a2.38,2.38,0,0,0-.72-1.72,2.34,2.34,0,0,0-1.73-.72Z"/><path class="cls-5" d="M219.71,186.34a1.85,1.85,0,0,0,1.9-1.9,1.93,1.93,0,0,0-1.9-1.9,1.74,1.74,0,0,0-1.35.57,1.79,1.79,0,0,0-.55,1.33,1.85,1.85,0,0,0,.55,1.37,1.78,1.78,0,0,0,1.35.53"/><path class="cls-5" d="M229.83,186.83a2.38,2.38,0,0,0-1.72.72,2.44,2.44,0,0,0-.73,1.72v6a.81.81,0,0,0,.25.59.79.79,0,0,0,.58.23.82.82,0,0,0,.62-.23.91.91,0,0,0,.21-.59V189.9h.43v14.75a1,1,0,0,0,.36.75,1.06,1.06,0,0,0,.78.32,1,1,0,0,0,.79-.32,1,1,0,0,0,.33-.75V196.1h.48v8.55a1,1,0,0,0,.32.75,1.07,1.07,0,0,0,.82.32,1,1,0,0,0,.75-.32,1,1,0,0,0,.31-.75V189.9h.45v5.33a.87.87,0,0,0,.22.59.85.85,0,0,0,.6.23.77.77,0,0,0,.61-.23.92.92,0,0,0,.22-.59v-6a2.38,2.38,0,0,0-.72-1.72,2.34,2.34,0,0,0-1.73-.72Z"/><path class="cls-5" d="M232,186.34a1.87,1.87,0,0,0,1.35-.53,1.85,1.85,0,0,0,.55-1.37,1.91,1.91,0,0,0-1.9-1.9,1.74,1.74,0,0,0-1.35.57,1.78,1.78,0,0,0-.54,1.33,1.84,1.84,0,0,0,.54,1.37,1.81,1.81,0,0,0,1.35.53"/><path class="cls-5" d="M242.08,186.83a2.48,2.48,0,0,0-2.45,2.44v6a.81.81,0,0,0,.25.59.79.79,0,0,0,.58.23.82.82,0,0,0,.62-.23.91.91,0,0,0,.21-.59V189.9h.43v14.75a1,1,0,0,0,.36.75,1.06,1.06,0,0,0,.78.32,1,1,0,0,0,.79-.32,1,1,0,0,0,.33-.75V196.1h.48v8.55a1,1,0,0,0,.32.75,1.07,1.07,0,0,0,.82.32,1,1,0,0,0,.75-.32,1,1,0,0,0,.31-.75V189.9h.45v5.33a.77.77,0,0,0,.82.82.76.76,0,0,0,.61-.23.92.92,0,0,0,.22-.59v-6a2.41,2.41,0,0,0-.71-1.72,2.37,2.37,0,0,0-1.73-.72Z"/><path class="cls-5" d="M244.21,186.34a1.86,1.86,0,0,0,1.91-1.9,1.8,1.8,0,0,0-.56-1.33,1.83,1.83,0,0,0-1.35-.57,1.75,1.75,0,0,0-1.35.57,1.78,1.78,0,0,0-.54,1.33,1.84,1.84,0,0,0,.54,1.37,1.81,1.81,0,0,0,1.35.53"/><path class="cls-5" d="M254.34,186.83a2.38,2.38,0,0,0-1.72.72,2.41,2.41,0,0,0-.74,1.72v6a.81.81,0,0,0,.25.59.79.79,0,0,0,.58.23.82.82,0,0,0,.62-.23.91.91,0,0,0,.21-.59V189.9H254v14.75a1,1,0,0,0,.36.75,1.07,1.07,0,0,0,.78.32,1,1,0,0,0,.79-.32,1,1,0,0,0,.33-.75V196.1h.48v8.55a1,1,0,0,0,.32.75,1.08,1.08,0,0,0,.82.32,1.06,1.06,0,0,0,.76-.32,1,1,0,0,0,.3-.75V189.9h.45v5.33a.87.87,0,0,0,.22.59.88.88,0,0,0,.61.23.78.78,0,0,0,.61-.23,1,1,0,0,0,.22-.59v-6a2.42,2.42,0,0,0-.72-1.72,2.35,2.35,0,0,0-1.73-.72Z"/><path class="cls-5" d="M256.46,186.34a1.86,1.86,0,0,0,1.91-1.9,1.8,1.8,0,0,0-.56-1.33,1.83,1.83,0,0,0-1.35-.57,1.89,1.89,0,0,0-1.89,1.9,1.84,1.84,0,0,0,.54,1.37,1.81,1.81,0,0,0,1.35.53"/><path class="cls-5" d="M21.55,213.76a2.37,2.37,0,0,0-1.72.72,2.44,2.44,0,0,0-.73,1.72v6a.81.81,0,0,0,.25.59.79.79,0,0,0,.58.23.82.82,0,0,0,.62-.23.91.91,0,0,0,.21-.59v-5.33h.43v14.75a1,1,0,0,0,.36.75,1.06,1.06,0,0,0,.78.32,1,1,0,0,0,.79-.32,1,1,0,0,0,.33-.75V223h.48v8.55a1,1,0,0,0,.32.75,1.08,1.08,0,0,0,.82.32,1.08,1.08,0,0,0,1.06-1.07V216.83h.45v5.33a.87.87,0,0,0,.22.59.88.88,0,0,0,.61.23.78.78,0,0,0,.61-.23,1,1,0,0,0,.22-.59v-6a2.42,2.42,0,0,0-.72-1.72,2.32,2.32,0,0,0-1.73-.72Z"/><path class="cls-5" d="M23.68,213.27a1.86,1.86,0,0,0,1.91-1.9A1.8,1.8,0,0,0,25,210a1.83,1.83,0,0,0-1.35-.57,1.89,1.89,0,0,0-1.89,1.9,1.84,1.84,0,0,0,.54,1.37,1.81,1.81,0,0,0,1.35.53"/><path class="cls-5" d="M33.81,213.76a2.34,2.34,0,0,0-1.72.72,2.41,2.41,0,0,0-.74,1.72v6a.81.81,0,0,0,.25.59.8.8,0,0,0,.59.23.81.81,0,0,0,.61-.23.91.91,0,0,0,.21-.59v-5.33h.43v14.75a1,1,0,0,0,.36.75,1.09,1.09,0,0,0,.78.32,1.06,1.06,0,0,0,.8-.32,1,1,0,0,0,.32-.75V223h.48v8.55a1,1,0,0,0,.32.75,1.08,1.08,0,0,0,.82.32,1.06,1.06,0,0,0,.76-.32,1,1,0,0,0,.3-.75V216.83h.45v5.33a.87.87,0,0,0,.22.59.88.88,0,0,0,.61.23.78.78,0,0,0,.61-.23,1,1,0,0,0,.22-.59v-6a2.42,2.42,0,0,0-.72-1.72,2.32,2.32,0,0,0-1.73-.72Z"/><path class="cls-5" d="M35.93,213.27a1.86,1.86,0,0,0,1.91-1.9,1.8,1.8,0,0,0-.56-1.33,1.83,1.83,0,0,0-1.35-.57,1.89,1.89,0,0,0-1.89,1.9,1.84,1.84,0,0,0,.54,1.37,1.81,1.81,0,0,0,1.35.53"/><path class="cls-5" d="M46.06,213.76a2.34,2.34,0,0,0-1.72.72,2.39,2.39,0,0,0-.73,1.72v6a.86.86,0,0,0,1.44.59.92.92,0,0,0,.22-.59v-5.33h.43v14.75a1,1,0,0,0,.36.75,1.12,1.12,0,0,0,1.57,0,1,1,0,0,0,.32-.75V223h.48v8.55a1,1,0,0,0,.32.75,1.1,1.1,0,0,0,.82.32,1,1,0,0,0,.76-.32,1,1,0,0,0,.3-.75V216.83h.45v5.33a.87.87,0,0,0,.22.59.9.9,0,0,0,.61.23.78.78,0,0,0,.61-.23,1,1,0,0,0,.22-.59v-6a2.42,2.42,0,0,0-.72-1.72,2.32,2.32,0,0,0-1.73-.72Z"/><path class="cls-5" d="M48.19,213.27a1.86,1.86,0,0,0,1.9-1.9,1.8,1.8,0,0,0-.56-1.33,1.82,1.82,0,0,0-1.34-.57,1.77,1.77,0,0,0-1.36.57,1.82,1.82,0,0,0-.54,1.33,1.88,1.88,0,0,0,.54,1.37,1.82,1.82,0,0,0,1.36.53"/><path class="cls-5" d="M58.31,213.76a2.34,2.34,0,0,0-1.72.72,2.44,2.44,0,0,0-.73,1.72v6a.82.82,0,0,0,.83.82.82.82,0,0,0,.62-.23,1,1,0,0,0,.21-.59v-5.33H58v14.75a1,1,0,0,0,.36.75,1.06,1.06,0,0,0,.78.32,1,1,0,0,0,.79-.32,1,1,0,0,0,.32-.75V223h.49v8.55a1,1,0,0,0,.32.75,1.06,1.06,0,0,0,.81.32,1,1,0,0,0,.76-.32,1,1,0,0,0,.3-.75V216.83h.45v5.33a.92.92,0,0,0,.22.59.9.9,0,0,0,.61.23.78.78,0,0,0,.61-.23.92.92,0,0,0,.22-.59v-6a2.38,2.38,0,0,0-.72-1.72,2.3,2.3,0,0,0-1.73-.72Z"/><path class="cls-5" d="M60.44,213.27a1.83,1.83,0,0,0,1.34-.53,1.85,1.85,0,0,0,.56-1.37,1.8,1.8,0,0,0-.56-1.33,1.82,1.82,0,0,0-1.34-.57,1.74,1.74,0,0,0-1.35.57,1.79,1.79,0,0,0-.55,1.33,1.85,1.85,0,0,0,.55,1.37,1.78,1.78,0,0,0,1.35.53"/><path class="cls-5" d="M70.56,213.76a2.34,2.34,0,0,0-1.72.72,2.44,2.44,0,0,0-.73,1.72v6a.81.81,0,0,0,.25.59.79.79,0,0,0,.58.23.82.82,0,0,0,.62-.23.91.91,0,0,0,.21-.59v-5.33h.43v14.75a1,1,0,0,0,.36.75,1.06,1.06,0,0,0,.78.32,1,1,0,0,0,.79-.32,1,1,0,0,0,.33-.75V223h.48v8.55a1,1,0,0,0,.32.75,1.07,1.07,0,0,0,.82.32,1.08,1.08,0,0,0,1.06-1.07V216.83h.45v5.33a.87.87,0,0,0,.22.59.85.85,0,0,0,.6.23.77.77,0,0,0,.61-.23.92.92,0,0,0,.22-.59v-6a2.38,2.38,0,0,0-.72-1.72,2.3,2.3,0,0,0-1.73-.72Z"/><path class="cls-5" d="M72.69,213.27a1.87,1.87,0,0,0,1.35-.53,1.85,1.85,0,0,0,.55-1.37,1.93,1.93,0,0,0-1.9-1.9,1.74,1.74,0,0,0-1.35.57,1.78,1.78,0,0,0-.54,1.33,1.84,1.84,0,0,0,.54,1.37,1.79,1.79,0,0,0,1.35.53"/></g></g></svg>