<svg xmlns="http://www.w3.org/2000/svg" viewBox="0 0 160.41 33.12"><defs><style>.cls-1{fill:#1d1d1b;}.cls-2{fill:#000003;}</style></defs><title>obs-Recurso 17</title><g id="Capa_2" data-name="Capa 2"><g id="Capa_1-2" data-name="Capa 1"><path class="cls-1" d="M107.71,24.93h1.77a.88.88,0,0,1,.89.86.89.89,0,0,1-1,.86h-1.7Zm2.62,5.37h1.86l-1.64-2.44a2.21,2.21,0,0,0,1.39-2.07,2.33,2.33,0,0,0-2.42-2.3h-3.4V30.3h1.59V28.06h1.17ZM101.6,29a2.06,2.06,0,1,1,2-2.05,1.93,1.93,0,0,1-2,2.05m0,1.49A3.55,3.55,0,1,0,98,26.9a3.48,3.48,0,0,0,3.61,3.54m-6.15-.14h1.64V23.49H95.45ZM90.2,24.93H92a.88.88,0,0,1,.9.86.9.9,0,0,1-1,.86H90.2Zm2.62,5.37h1.85L93,27.86a2.21,2.21,0,0,0,1.39-2.07A2.32,2.32,0,0,0,92,23.49H88.6V30.3h1.6V28.06h1.17ZM87.63,25V23.49H82.5V30.3h5.12V28.84H84.08V27.55h3V26.14h-3V25Zm-8.41,2H77.64V25h1.65a1,1,0,0,1,.91,1,1,1,0,0,1-1,1m.11-3.47H76.05V30.3h1.59V28.39h1.62a2.45,2.45,0,1,0,.07-4.9m-6,0v4a1.4,1.4,0,1,1-2.79,0v-4H68.88v4a3,3,0,0,0,6.05,0v-4Zm-8,7c1.69,0,2.8-1,2.8-2.16s-.85-1.6-1.87-1.92l-1.71-.54c-.3-.09-.46-.26-.46-.49s.35-.57.9-.57a1.72,1.72,0,0,1,1.5.82L68,25.14a3.16,3.16,0,0,0-3-1.79,2.27,2.27,0,0,0-2.52,2A2,2,0,0,0,64,27.19l1.75.54c.52.17.73.37.73.66s-.41.64-1.06.64a1.83,1.83,0,0,1-1.76-1.13l-1.54.48a3.28,3.28,0,0,0,3.2,2.06m-8-7v3.9l-3.07-3.9H53V30.3h1.61V26.4l3.07,3.9H59V23.49ZM48.48,29a2.06,2.06,0,1,1,2-2.05,1.94,1.94,0,0,1-2,2.05m0,1.49a3.55,3.55,0,1,0-3.61-3.54,3.49,3.49,0,0,0,3.61,3.54m-.78-7.71H49l1.11-1.38h-1.7ZM42.33,30.3H44V23.49H42.33Zm-4.14.14a3.25,3.25,0,0,0,3.31-2.26l-1.57-.4a1.76,1.76,0,0,1-1.76,1.14,1.93,1.93,0,0,1-1.92-2,1.91,1.91,0,0,1,1.92-2A1.8,1.8,0,0,1,39.93,26l1.57-.39a3.28,3.28,0,0,0-3.33-2.29,3.55,3.55,0,1,0,0,7.09m-8.08-2.85L31,25,32,27.59ZM33,30.3h1.66l-2.52-6.81H30L27.45,30.3h1.67l.47-1.3h2.88Zm-8.86.14a3.25,3.25,0,0,0,3.31-2.26l-1.57-.4a1.76,1.76,0,0,1-1.76,1.14,1.93,1.93,0,0,1-1.92-2,1.91,1.91,0,0,1,1.92-2A1.8,1.8,0,0,1,25.83,26l1.57-.39a3.28,3.28,0,0,0-3.34-2.29,3.55,3.55,0,1,0,0,7.09m-6.09-7v4a1.4,1.4,0,1,1-2.78,0v-4H13.59v4a2.78,2.78,0,0,0,3,3,2.78,2.78,0,0,0,3-3v-4ZM9.47,28.85H8V24.94H9.47a1.71,1.71,0,0,1,1.62,1.93,1.76,1.76,0,0,1-1.62,2m0-5.36H6.36V30.3H9.51a3.16,3.16,0,0,0,3.22-3.4,3.16,3.16,0,0,0-3.22-3.41M5.39,25V23.49H.26V30.3H5.38V28.84H1.84V27.55H4.89V26.14h-3V25Z"/><path class="cls-1" d="M70.54,11.81v3.91l-3.07-3.91H66.16v6.81h1.62v-3.9l3.06,3.9h1.32V11.81Zm-5.35,1.46V11.81H60.06v6.81h5.12V17.17H61.64v-1.3h3V14.46h-3V13.27Zm-12,4a1.93,1.93,0,0,1-2-2,2,2,0,1,1,4,0,1.93,1.93,0,0,1-2,2m0,1.49a3.54,3.54,0,1,0-3.61-3.54,3.49,3.49,0,0,0,3.61,3.54M44.7,13.25h1.77a.88.88,0,0,1,.89.86.89.89,0,0,1-1,.87H44.7Zm2.62,5.37h1.86l-1.64-2.44a2.2,2.2,0,0,0,1.39-2.07,2.33,2.33,0,0,0-2.42-2.3h-3.4v6.81H44.7V16.39h1.17Zm-5.19-5.35V11.81H37v6.81h5.11V17.17H38.58v-1.3h3.06V14.46H38.58V13.27Zm-7.91-1.46v3.91l-3.06-3.91H29.85v6.81h1.61v-3.9l3.07,3.9h1.31V11.81Zm-5.35,1.46V11.81H23.74v6.81h5.12V17.17H25.32v-1.3h3.05V14.46H25.32V13.27Zm-.94-3.6h-1.7l-.73,1.38h1.32Zm-5.09,5.08H19.35v1.4h1.79a1.54,1.54,0,0,1-1.64,1.12,2,2,0,0,1-2.16-2.05,2,2,0,0,1,2-2,1.84,1.84,0,0,1,1.8,1l1.49-.43a3.37,3.37,0,0,0-3.31-2.11,3.54,3.54,0,1,0,.07,7.08,3.19,3.19,0,0,0,3.47-3.2ZM12.66,13.27V11.81H7.53v6.81h5.12V17.17H9.11v-1.3h3.05V14.46H9.11V13.27ZM3.37,17.18H1.86V13.26H3.37A1.71,1.71,0,0,1,5,15.19c0,1.2-.71,2-1.62,2m0-5.37H.26v6.81H3.41a3.16,3.16,0,0,0,3.22-3.4,3.16,3.16,0,0,0-3.22-3.41"/><path class="cls-1" d="M73.44,5.6a1.93,1.93,0,0,1-2-2.06,2,2,0,1,1,4,0,1.94,1.94,0,0,1-2,2.06m0,1.48a3.48,3.48,0,0,0,3.61-3.54,3.61,3.61,0,0,0-7.22,0,3.48,3.48,0,0,0,3.61,3.54M67.29,7h1.63V.14H67.29ZM62,1.58H63.8a.88.88,0,0,1,.89.85.89.89,0,0,1-1,.87H62ZM64.65,7h1.86L64.87,4.5a2.19,2.19,0,0,0,1.39-2.07A2.32,2.32,0,0,0,63.85.14H60.44V7H62V4.71H63.2ZM55.92,5.6a1.94,1.94,0,0,1-2-2.06,2,2,0,1,1,3.95,0,1.94,1.94,0,0,1-2,2.06m0,1.48a3.48,3.48,0,0,0,3.61-3.54,3.61,3.61,0,0,0-7.22,0,3.48,3.48,0,0,0,3.61,3.54M52.33.14H46.38V1.6h2.17V7h1.61V1.6h2.17ZM42.55,4.23l.93-2.55.92,2.55ZM45.4,7h1.66L44.54.14H42.42L39.9,7h1.66L42,5.64h2.88ZM38.85.14,37.08,4.87,35.33.14H33.54L36.2,7H38L40.63.14ZM29.07,1.58h1.76a.87.87,0,0,1,.89.85.89.89,0,0,1-1,.87H29.07ZM31.69,7h1.85L31.9,4.5a2.19,2.19,0,0,0,1.39-2.07A2.32,2.32,0,0,0,30.88.14H27.47V7h1.6V4.71h1.16ZM26.5,1.6V.14H21.37V7h5.12V5.49H22.94V4.19H26V2.78H22.94V1.6ZM17.7,7.08c1.68,0,2.79-.94,2.79-2.16S19.65,3.33,18.63,3l-1.72-.55c-.29-.09-.46-.25-.46-.49s.36-.56.91-.56a1.71,1.71,0,0,1,1.5.82l1.49-.44a3.16,3.16,0,0,0-3-1.79,2.26,2.26,0,0,0-2.52,2,1.93,1.93,0,0,0,1.56,1.8l1.75.55c.52.16.73.37.73.65s-.41.64-1.06.64A1.81,1.81,0,0,1,16,4.54L14.5,5a3.28,3.28,0,0,0,3.2,2.06M11.63,5.56H9.7V4.14h1.93a.7.7,0,0,1,.78.71.71.71,0,0,1-.78.71m-.18-4a.67.67,0,0,1,.74.66.71.71,0,0,1-.74.7H9.7V1.52ZM13,3.39A1.56,1.56,0,0,0,13.77,2c0-1.09-.93-1.84-2.32-1.84H8.13V7h3.5C13.11,7,14,6.23,14,5A1.74,1.74,0,0,0,13,3.39M3.61,5.6a1.94,1.94,0,0,1-2-2.06,1.94,1.94,0,0,1,2-2,1.94,1.94,0,0,1,2,2.05,1.94,1.94,0,0,1-2,2.06m0,1.48A3.48,3.48,0,0,0,7.22,3.54,3.49,3.49,0,0,0,3.61,0,3.49,3.49,0,0,0,0,3.54,3.48,3.48,0,0,0,3.61,7.08"/><path d="M149.48,24.72a10.25,10.25,0,0,0,0-14.63A32.07,32.07,0,0,1,159,17.41,32,32,0,0,1,149.48,24.72Zm-23.94-7.31a32.12,32.12,0,0,1,9.53-7.32,10.25,10.25,0,0,0,0,14.63,32.08,32.08,0,0,1-9.53-7.31m25.8,0a9.07,9.07,0,1,1-9.07-9.07,9.07,9.07,0,0,1,9.07,9.07m8.93-.38A33.12,33.12,0,0,0,155,12.09c-3-2.26-7.59-5-12.76-5s-9.79,2.7-12.76,5A33.06,33.06,0,0,0,124.28,17a.6.6,0,0,0,0,.76,33.52,33.52,0,0,0,5.23,4.94c3,2.26,7.59,4.95,12.76,4.95S152.06,25,155,22.73a33.12,33.12,0,0,0,5.24-4.94.6.6,0,0,0,0-.76"/><rect x="141.67" y="1.69" width="1.21" height="4.23"/><rect x="147.2" y="4.11" width="4.05" height="1.21" transform="translate(78.27 136.08) rotate(-63.44)"/><rect x="134.72" y="2.69" width="1.21" height="4.05" transform="translate(12.2 61.06) rotate(-26.59)"/><rect x="153.63" y="6.83" width="3.87" height="1.21" transform="translate(52.64 124.32) rotate(-51.37)"/><rect x="128.38" y="5.5" width="1.21" height="3.87" transform="translate(23.61 82.19) rotate(-38.65)"/><rect x="141.67" y="28.89" width="1.21" height="4.23"/><rect x="148.62" y="28.07" width="1.21" height="4.05" transform="translate(2.31 69.97) rotate(-26.59)"/><rect x="133.29" y="29.5" width="4.05" height="1.21" transform="translate(47.88 137.67) rotate(-63.44)"/><rect x="154.98" y="25.44" width="1.21" height="3.87" transform="translate(16.98 103.17) rotate(-38.65)"/><rect x="127.04" y="26.78" width="3.87" height="1.21" transform="translate(27.07 111.04) rotate(-51.37)"/><path class="cls-2" d="M142.13,20.07v4.3a.55.55,0,0,1-.57.57.58.58,0,0,1-.42-.16.51.51,0,0,1-.18-.41v-4.3h-1.61L141,14.41h-.29c-.18.64-.34,1.15-.46,1.55s-.23.79-.33,1.15-.2.6-.21.68a.46.46,0,0,1-.48.35l-.13,0a.45.45,0,0,1-.35-.45.26.26,0,0,1,0-.15s.06-.19.12-.43.15-.54.25-.88.22-.73.34-1.14.23-.81.37-1.19a1.52,1.52,0,0,1,.53-.78,1.25,1.25,0,0,1,.85-.35h2a1.25,1.25,0,0,1,.86.35,2,2,0,0,1,.55.78c.11.38.22.78.33,1.19s.24.79.33,1.14.2.64.26.88a2.06,2.06,0,0,0,.13.43l0,.12a.45.45,0,0,1-.36.48l-.11,0a.44.44,0,0,1-.48-.35c0-.08-.09-.31-.19-.68s-.22-.75-.35-1.15-.28-.91-.46-1.55h-.29l1.67,5.66h-1.59v4.3a.47.47,0,0,1-.17.41.57.57,0,0,1-.42.16.54.54,0,0,1-.41-.16.53.53,0,0,1-.16-.41v-4.3Z"/><path class="cls-2" d="M142.29,12.39a1.14,1.14,0,0,0,.85-.35,1.24,1.24,0,0,0,0-1.75,1.12,1.12,0,0,0-.85-.37,1.23,1.23,0,0,0-.9.37,1.24,1.24,0,0,0,0,1.75,1.27,1.27,0,0,0,.9.35"/></g></g></svg>