<?xml version="1.0" encoding="utf-8"?>
<!-- Generator: Adobe Illustrator 23.0.3, SVG Export Plug-In . SVG Version: 6.00 Build 0)  -->
<svg version="1.1" id="Capa_1" xmlns="http://www.w3.org/2000/svg" xmlns:xlink="http://www.w3.org/1999/xlink" x="0px" y="0px"
	 viewBox="0 0 249.9 182.2" style="enable-background:new 0 0 249.9 182.2;" xml:space="preserve">
<style type="text/css">
	.st0{clip-path:url(#SVGID_2_);fill:#D1D2D7;}
	.st1{clip-path:url(#SVGID_2_);fill:#F8DF00;}
	.st2{clip-path:url(#SVGID_2_);fill:#211915;}
	.st3{clip-path:url(#SVGID_2_);}
	.st4{clip-path:url(#SVGID_4_);fill:#000003;}
</style>
<title>Recurso 2</title>
<g>
	<defs>
		<rect id="SVGID_1_" width="249.9" height="186"/>
	</defs>
	<clipPath id="SVGID_2_">
		<use xlink:href="#SVGID_1_"  style="overflow:visible;"/>
	</clipPath>
	<path class="st0" d="M-10.8-10.7c0,0-2.8,0-2.8,2.8v205.5c0,0,0,2.8,2.8,2.8h281.3c0,0,2.8,0,2.8-2.8V-7.9c0,0,0-2.8-2.8-2.8H-10.8
		z"/>
	<path class="st1" d="M63,84.1c12.8,0,23.1-10.4,23.1-23.2c0-12.8-10.3-23.2-23.1-23.2S39.9,48.1,39.9,60.9
		C39.9,73.7,50.2,84.1,63,84.1"/>
	<path class="st2" d="M197,154.8h2.9c0.8,0,1.5,0.6,1.5,1.4c0,0.8-0.6,1.4-1.6,1.4H197V154.8z M201.3,163.7h3.1l-2.7-4.1
		c1.5-0.6,2.3-2,2.3-3.4c0-1.9-1.5-3.8-4-3.8h-5.6v11.3h2.6V160h1.9L201.3,163.7z M186.9,161.5c-2,0-3.3-1.5-3.3-3.4
		c0-1.9,1.3-3.4,3.3-3.4c2,0,3.3,1.5,3.3,3.4C190.2,160,188.9,161.5,186.9,161.5 M186.9,163.9c3.4,0,6-2.5,6-5.9
		c0-3.3-2.5-5.9-6-5.9c-3.4,0-6,2.5-6,5.9C181,161.4,183.5,163.9,186.9,163.9 M176.8,163.7h2.7v-11.3h-2.7V163.7z M168.1,154.8h2.9
		c0.8,0,1.5,0.6,1.5,1.4c0,0.8-0.6,1.4-1.6,1.4h-2.8V154.8z M172.4,163.7h3.1l-2.7-4.1c1.5-0.6,2.3-2,2.3-3.4c0-1.9-1.5-3.8-4-3.8
		h-5.6v11.3h2.6V160h1.9L172.4,163.7z M163.8,154.8v-2.4h-8.5v11.3h8.5v-2.4H158v-2.1h5v-2.3h-5v-2H163.8z M150,158.1h-2.6v-3.3h2.7
		c0.9,0,1.5,0.8,1.5,1.7C151.6,157.3,150.9,158.1,150,158.1 M150.1,152.4h-5.4v11.3h2.6v-3.2h2.7c2.7,0,4.1-2.1,4.1-4.1
		C154.2,154.5,152.7,152.4,150.1,152.4 M140.2,152.4v6.6c0,1.5-0.8,2.5-2.3,2.5s-2.3-1.1-2.3-2.5v-6.6h-2.7v6.6c0,2.9,1.8,4.9,5,4.9
		c3.2,0,5-2,5-4.9v-6.6H140.2z M127.1,163.9c2.8,0,4.6-1.6,4.6-3.6c0-1.9-1.4-2.6-3.1-3.2l-2.8-0.9c-0.5-0.1-0.8-0.4-0.8-0.8
		c0-0.5,0.6-0.9,1.5-0.9c1.1,0,2,0.6,2.5,1.4l2.5-0.7c-0.6-1.6-2.5-3-5-3c-2.4,0-4.2,1.5-4.2,3.4c0,1.5,1.1,2.5,2.6,3l2.9,0.9
		c0.9,0.3,1.2,0.6,1.2,1.1c0,0.6-0.7,1.1-1.8,1.1c-1.5,0-2.5-0.8-2.9-1.9l-2.5,0.8C122.4,162.2,124.2,163.9,127.1,163.9
		 M113.9,152.4v6.5l-5.1-6.5h-2.2v11.3h2.7v-6.5l5.1,6.5h2.2v-11.3H113.9z M99.2,161.5c-2,0-3.3-1.5-3.3-3.4c0-1.9,1.3-3.4,3.3-3.4
		c2,0,3.3,1.5,3.3,3.4C102.5,160,101.2,161.5,99.2,161.5 M99.2,163.9c3.4,0,6-2.5,6-5.9c0-3.3-2.5-5.9-6-5.9c-3.4,0-6,2.5-6,5.9
		C93.2,161.4,95.8,163.9,99.2,163.9 M97.9,151.1h2.2l1.8-2.3h-2.8L97.9,151.1z M89,163.7h2.7v-11.3H89V163.7z M82.2,163.9
		c3.2,0,5-2,5.5-3.7l-2.6-0.7c-0.3,1-1.3,1.9-2.9,1.9c-2,0-3.2-1.6-3.2-3.4c0-1.8,1.2-3.3,3.2-3.3c1.5,0,2.6,1,2.9,1.9l2.6-0.6
		c-0.4-1.8-2.3-3.8-5.5-3.8c-3.4,0-5.9,2.5-5.9,5.9C76.3,161.4,78.8,163.9,82.2,163.9 M68.9,159.2l1.5-4.2l1.5,4.2H68.9z
		 M73.5,163.7h2.7l-4.2-11.3h-3.5l-4.2,11.3h2.7l0.8-2.2h4.8L73.5,163.7z M58.9,163.9c3.2,0,5-2,5.5-3.7l-2.6-0.7
		c-0.3,1-1.4,1.9-2.9,1.9c-2,0-3.2-1.6-3.2-3.4c0-1.8,1.2-3.3,3.2-3.3c1.5,0,2.6,1,2.9,1.9l2.6-0.6c-0.4-1.8-2.3-3.8-5.5-3.8
		c-3.4,0-5.9,2.5-5.9,5.9C53,161.4,55.5,163.9,58.9,163.9 M48.9,152.4v6.6c0,1.5-0.8,2.5-2.3,2.5s-2.3-1.1-2.3-2.5v-6.6h-2.7v6.6
		c0,2.9,1.8,4.9,5,4.9c3.2,0,5-2,5-4.9v-6.6H48.9z M34.8,161.3h-2.5v-6.5h2.5c1.5,0,2.7,1.2,2.7,3.2C37.4,160,36.3,161.3,34.8,161.3
		 M34.8,152.4h-5.2v11.3h5.2c3.2,0,5.3-2.4,5.3-5.7C40.1,154.7,38,152.4,34.8,152.4 M28,154.8v-2.4h-8.5v11.3H28v-2.4h-5.8v-2.1h5
		v-2.3h-5v-2H28z"/>
	<path class="st2" d="M109.7,133v6.5l-5.1-6.5h-2.2v11.3h2.7v-6.5l5.1,6.5h2.2V133H109.7z M100.8,135.4V133h-8.5v11.3h8.5v-2.4H95
		v-2.1h5v-2.3h-5v-2H100.8z M81.1,142.1c-2,0-3.3-1.5-3.3-3.4c0-1.9,1.3-3.4,3.3-3.4c2,0,3.3,1.5,3.3,3.4
		C84.3,140.6,83,142.1,81.1,142.1 M81.1,144.5c3.4,0,6-2.5,6-5.9c0-3.3-2.5-5.9-6-5.9c-3.4,0-6,2.5-6,5.9
		C75.1,142,77.6,144.5,81.1,144.5 M67,135.4h2.9c0.8,0,1.5,0.6,1.5,1.4c0,0.8-0.6,1.4-1.6,1.4H67V135.4z M71.3,144.3h3.1l-2.7-4.1
		c1.5-0.6,2.3-2,2.3-3.4c0-1.9-1.5-3.8-4-3.8h-5.6v11.3H67v-3.7h1.9L71.3,144.3z M62.8,135.4V133h-8.5v11.3h8.5v-2.4h-5.8v-2.1h5
		v-2.3h-5v-2H62.8z M49.7,133v6.5l-5.1-6.5h-2.2v11.3h2.7v-6.5l5.1,6.5h2.2V133H49.7z M40.9,135.4V133h-8.5v11.3h8.5v-2.4H35v-2.1h5
		v-2.3h-5v-2H40.9z M39.3,129.5h-2.8l-1.2,2.3h2.2L39.3,129.5z M30.9,137.9h-5.8v2.3l3,0c-0.2,0.9-1.1,1.9-2.7,1.9
		c-2.4,0-3.6-1.6-3.6-3.4c0-1.8,1.3-3.3,3.3-3.3c1.6,0,2.4,0.7,3,1.7l2.5-0.7c-0.7-1.9-2.6-3.5-5.5-3.5c-3.4,0-5.9,2.5-5.9,5.9
		c0,3.3,2.6,5.9,6.1,5.9c3.5,0,5.7-2.3,5.7-5.3V137.9z"/>
	<path class="st2" d="M172.2,116.1v-2.4h-8.5v11.3h8.5v-2.4h-5.8v-2.1h5V118h-5v-2H172.2z M156.9,122.5h-2.5V116h2.5
		c1.5,0,2.7,1.2,2.7,3.2S158.4,122.5,156.9,122.5 M156.9,113.6h-5.2v11.3h5.2c3.2,0,5.3-2.4,5.3-5.7
		C162.2,115.9,160.1,113.6,156.9,113.6 M140.4,122.7c-2,0-3.3-1.5-3.3-3.4c0-1.9,1.3-3.4,3.3-3.4c2,0,3.3,1.5,3.3,3.4
		C143.7,121.2,142.4,122.7,140.4,122.7 M140.4,125.2c3.4,0,6-2.5,6-5.9c0-3.3-2.5-5.9-6-5.9c-3.4,0-6,2.5-6,5.9
		C134.5,122.6,137,125.2,140.4,125.2 M130.3,124.9h2.7v-11.3h-2.7V124.9z M121.6,116h2.9c0.8,0,1.5,0.6,1.5,1.4
		c0,0.8-0.6,1.4-1.6,1.4h-2.8V116z M125.9,124.9h3.1l-2.7-4.1c1.5-0.6,2.3-2,2.3-3.4c0-1.9-1.5-3.8-4-3.8h-5.6v11.3h2.6v-3.7h1.9
		L125.9,124.9z M111.5,122.7c-2,0-3.3-1.5-3.3-3.4c0-1.9,1.3-3.4,3.3-3.4c2,0,3.3,1.5,3.3,3.4C114.7,121.2,113.5,122.7,111.5,122.7
		 M111.5,125.2c3.4,0,6-2.5,6-5.9c0-3.3-2.5-5.9-6-5.9c-3.4,0-6,2.5-6,5.9C105.5,122.6,108,125.2,111.5,125.2 M105.6,113.6h-9.8v2.4
		h3.6v8.9h2.7v-8.9h3.6V113.6z M89.4,120.4l1.5-4.2l1.5,4.2H89.4z M94.1,124.9h2.7l-4.2-11.3h-3.5L85,124.9h2.7l0.8-2.2h4.8
		L94.1,124.9z M83.3,113.6l-2.9,7.9l-2.9-7.9h-3l4.4,11.3h2.9l4.4-11.3H83.3z M67.1,116H70c0.8,0,1.5,0.6,1.5,1.4
		c0,0.8-0.6,1.4-1.6,1.4h-2.8V116z M71.5,124.9h3.1l-2.7-4.1c1.5-0.6,2.3-2,2.3-3.4c0-1.9-1.5-3.8-4-3.8h-5.6v11.3h2.6v-3.7h1.9
		L71.5,124.9z M62.9,116.1v-2.4h-8.5v11.3h8.5v-2.4H57v-2.1h5V118h-5v-2H62.9z M48.4,125.2c2.8,0,4.6-1.6,4.6-3.6
		c0-1.9-1.4-2.6-3.1-3.2l-2.8-0.9c-0.5-0.1-0.8-0.4-0.8-0.8c0-0.5,0.6-0.9,1.5-0.9c1.1,0,2,0.6,2.5,1.4l2.5-0.7c-0.6-1.6-2.5-3-5-3
		c-2.4,0-4.2,1.5-4.2,3.4c0,1.5,1.1,2.5,2.6,3l2.9,0.9c0.9,0.3,1.2,0.6,1.2,1.1c0,0.6-0.7,1.1-1.8,1.1c-1.5,0-2.5-0.8-2.9-1.9
		l-2.5,0.8C43.7,123.5,45.5,125.2,48.4,125.2 M38.3,122.6h-3.2v-2.3h3.2c0.8,0,1.3,0.5,1.3,1.2C39.6,122.1,39.2,122.6,38.3,122.6
		 M38,115.9c0.7,0,1.2,0.5,1.2,1.1s-0.5,1.2-1.2,1.2h-2.9v-2.3H38z M40.5,119c0.8-0.5,1.3-1.3,1.3-2.3c0-1.8-1.5-3.1-3.8-3.1h-5.5
		v11.3h5.8c2.4,0,3.9-1.2,3.9-3.2C42.3,120.5,41.6,119.5,40.5,119 M25.1,122.7c-2,0-3.3-1.5-3.3-3.4c0-1.9,1.3-3.4,3.3-3.4
		c2,0,3.3,1.5,3.3,3.4C28.4,121.2,27.1,122.7,25.1,122.7 M25.1,125.2c3.4,0,6-2.5,6-5.9c0-3.3-2.5-5.9-6-5.9s-6,2.5-6,5.9
		C19.1,122.6,21.6,125.2,25.1,125.2"/>
	<path class="st3" d="M81.2,79.2c4.8-4.8,7.6-11.3,7.6-18.1c0-6.8-2.7-13.4-7.6-18.1c8.9,4.5,16.9,10.7,23.5,18.1
		C98.1,68.6,90.1,74.7,81.2,79.2L81.2,79.2z M22.1,61.1c6.6-7.5,14.6-13.6,23.5-18.1C40.7,47.7,38,54.3,38,61.1
		c0,6.8,2.7,13.4,7.6,18.1C36.7,74.7,28.7,68.6,22.1,61.1 M85.8,61.1c0,12.4-10,22.5-22.4,22.5S41,73.5,41,61.1s10-22.5,22.4-22.5
		C75.7,38.6,85.8,48.7,85.8,61.1 M107.8,60.1c-3.9-4.5-8.2-8.6-12.9-12.2c-7.3-5.6-18.7-12.3-31.5-12.3c-12.8,0-24.2,6.7-31.5,12.3
		c-4.7,3.6-9.1,7.7-12.9,12.3c-0.4,0.6-0.4,1.3,0,1.9c3.9,4.5,8.2,8.7,12.9,12.3c7.3,5.6,18.7,12.3,31.5,12.3
		c12.8,0,24.2-6.7,31.5-12.3c4.7-3.6,9.1-7.7,12.9-12.2C108.3,61.5,108.3,60.7,107.8,60.1"/>
</g>
<rect x="61" y="21.7" width="2.9" height="10.3"/>
<rect x="74.5" y="27.6" transform="matrix(0.4472 -0.8944 0.8944 0.4472 17.9309 87.124)" width="9.9" height="2.9"/>
<rect x="44.1" y="24.1" transform="matrix(0.8944 -0.4472 0.4472 0.8944 -8.1812 23.4509)" width="2.9" height="9.9"/>
<rect x="90.2" y="34.2" transform="matrix(0.6244 -0.7811 0.7811 0.6244 7.7766 87.5384)" width="9.4" height="2.9"/>
<rect x="28.7" y="31" transform="matrix(0.7808 -0.6248 0.6248 0.7808 -15.6872 26.6506)" width="2.9" height="9.4"/>
<rect x="61" y="88" width="2.9" height="10.3"/>
<rect x="78" y="86" transform="matrix(0.8944 -0.4473 0.4473 0.8944 -32.266 45.1339)" width="2.9" height="9.9"/>
<rect x="40.6" y="89.4" transform="matrix(0.4472 -0.8944 0.8944 0.4472 -56.1049 91.0195)" width="9.9" height="2.9"/>
<rect x="93.5" y="79.5" transform="matrix(0.7808 -0.6248 0.6248 0.7808 -31.8309 77.7877)" width="2.9" height="9.4"/>
<rect x="25.4" y="82.8" transform="matrix(0.6244 -0.7811 0.7811 0.6244 -54.5133 55.1821)" width="9.4" height="2.9"/>
<g>
	<defs>
		<rect id="SVGID_3_" width="246.5" height="182.6"/>
	</defs>
	<clipPath id="SVGID_4_">
		<use xlink:href="#SVGID_3_"  style="overflow:visible;"/>
	</clipPath>
	<path class="st4" d="M62.2,66.5v10.5c0,0.4-0.1,0.8-0.4,1c-0.3,0.3-0.6,0.4-1,0.4c-0.4,0-0.8-0.1-1-0.4c-0.3-0.2-0.4-0.6-0.4-1
		V66.5h-3.9l4.1-13.8h-0.7c-0.4,1.5-0.8,2.8-1.1,3.8c-0.3,1-0.6,1.9-0.8,2.8c-0.3,0.9-0.5,1.4-0.5,1.6c-0.2,0.6-0.6,0.9-1.2,0.9
		l-0.3-0.1c-0.6-0.2-0.8-0.6-0.8-1.1c0-0.1,0-0.3,0.1-0.4c0-0.1,0.2-0.4,0.3-1c0.2-0.6,0.4-1.3,0.6-2.2c0.3-0.9,0.5-1.8,0.8-2.8
		c0.3-1,0.6-2,0.9-2.9c0.2-0.7,0.6-1.4,1.3-1.9c0.7-0.6,1.4-0.8,2.1-0.8h4.8c0.7,0,1.5,0.3,2.1,0.8c0.6,0.6,1.1,1.2,1.3,1.9
		c0.3,0.9,0.5,1.9,0.8,2.9c0.3,1,0.6,1.9,0.8,2.8c0.2,0.8,0.5,1.6,0.6,2.2c0.2,0.6,0.3,0.9,0.3,1l0.1,0.3c0,0.6-0.3,1-0.9,1.2
		l-0.3,0.1c-0.6,0-1-0.3-1.2-0.9c0-0.2-0.2-0.8-0.4-1.6c-0.3-0.9-0.6-1.8-0.9-2.8c-0.3-1-0.7-2.2-1.1-3.8h-0.7l4.1,13.8h-3.9v10.5
		c0,0.4-0.1,0.8-0.4,1c-0.3,0.3-0.6,0.4-1,0.4c-0.4,0-0.7-0.1-1-0.4c-0.3-0.2-0.4-0.6-0.4-1V66.5H62.2z"/>
	<path class="st4" d="M62.6,47.7c0.8,0,1.5-0.3,2.1-0.8c0.6-0.6,0.9-1.3,0.9-2.2c0-0.8-0.3-1.5-0.9-2.1c-0.5-0.6-1.3-0.9-2.1-0.9
		c-0.9,0-1.6,0.3-2.2,0.9c-0.6,0.6-0.9,1.3-0.9,2.1c0,0.9,0.3,1.6,0.9,2.2C61,47.5,61.7,47.7,62.6,47.7"/>
</g>
</svg>
