<svg xmlns="http://www.w3.org/2000/svg" xmlns:xlink="http://www.w3.org/1999/xlink" viewBox="0 0 878.56 643.47"><defs><style>.cls-1{fill:none;}.cls-2{clip-path:url(#clip-path);}.cls-3{fill:#d1d2d7;}.cls-4{fill:#f8df00;}.cls-5{fill:#211915;}.cls-6{fill:#000003;}</style><clipPath id="clip-path"><rect class="cls-1" x="56.61" y="20" width="765.35" height="566.93"/></clipPath></defs><title>observatorio_banner</title><g id="Capa_2" data-name="Capa 2"><g id="Capa_1-2" data-name="Capa 1"><g class="cls-2"><path class="cls-3" d="M8.5,0S0,0,0,8.5V635s0,8.51,8.5,8.51H870.06s8.5,0,8.5-8.51V8.5s0-8.5-8.5-8.5Z"/><path class="cls-4" d="M249.52,276.31a70.76,70.76,0,1,0-70.76-70.76,70.76,70.76,0,0,0,70.76,70.76"/><path class="cls-5" d="M660,491.78h8.91a4.45,4.45,0,0,1,4.53,4.33c0,2.42-2,4.38-4.87,4.38H660ZM673.23,519h9.4l-8.31-12.35a11.15,11.15,0,0,0,7-10.49,11.76,11.76,0,0,0-12.2-11.61H651.92V519H660V507.63h5.91Zm-44.15-6.84c-6.05,0-10-4.48-10-10.38s3.94-10.39,10-10.39,10,4.53,10,10.39-3.93,10.38-10,10.38m0,7.53c10.54,0,18.26-7.73,18.26-17.91s-7.72-17.92-18.26-17.92-18.26,7.73-18.26,17.92,7.73,17.91,18.26,17.91M598,519h8.27V484.5H598ZM571.4,491.78h8.91a4.44,4.44,0,0,1,4.52,4.33c0,2.42-2,4.38-4.87,4.38H571.4ZM584.64,519H594l-8.32-12.35a11.15,11.15,0,0,0,7-10.49,11.77,11.77,0,0,0-12.21-11.61H563.33V519h8.07V507.63h5.9ZM558.4,491.88V484.5H532.47V519h25.89v-7.38H540.44V505h15.45v-7.13H540.44v-6ZM515.88,502h-8V491.88h8.32a4.92,4.92,0,0,1,4.63,5.07,5,5,0,0,1-5,5.07m.54-17.52H499.83V519h8.07v-9.64h8.18a12.41,12.41,0,1,0,.34-24.81m-30.52,0v20c0,4.43-2.31,7.68-7,7.68s-7-3.25-7-7.68v-20h-8.27v20.13c0,8.81,5.36,15,15.31,15s15.3-6.2,15.3-15V484.5Zm-40.16,35.14c8.52,0,14.13-4.77,14.13-10.93,0-5.8-4.28-8.07-9.45-9.69l-8.67-2.76c-1.47-.44-2.31-1.28-2.31-2.46,0-1.57,1.77-2.85,4.58-2.85a8.68,8.68,0,0,1,7.58,4.13l7.53-2.21c-1.82-4.83-7.63-9.06-15.21-9.06s-12.8,4.63-12.75,10.29c-.05,4.52,3.35,7.67,7.88,9.1l8.86,2.76c2.61.84,3.69,1.87,3.69,3.3,0,1.72-2.07,3.24-5.37,3.24a9.26,9.26,0,0,1-8.91-5.7l-7.77,2.41c2,5.31,7.48,10.43,16.19,10.43M405.38,484.5v19.74l-15.5-19.74h-6.65V519h8.17V499.22L406.91,519h6.64V484.5Zm-45,27.61c-6.06,0-10-4.48-10-10.38s3.94-10.39,10-10.39,10,4.53,10,10.39-3.94,10.38-10,10.38m0,7.53c10.53,0,18.25-7.73,18.25-17.91s-7.72-17.92-18.25-17.92-18.27,7.73-18.27,17.92,7.73,17.91,18.27,17.91m-3.94-39h6.64l5.61-7h-8.56ZM329.29,519h8.27V484.5h-8.27Zm-20.92.69c9.7,0,15.4-6,16.73-11.42l-8-2c-.84,3-4.13,5.76-8.86,5.76-6,0-9.74-4.87-9.74-10.28,0-5.57,3.74-10.19,9.74-10.19,4.73,0,8,2.95,8.86,5.85l8-2c-1.33-5.37-7-11.57-16.88-11.57a17.59,17.59,0,0,0-18.06,17.92c0,10.18,7.73,17.91,18.21,17.91m-40.9-14.42,4.67-12.9,4.68,12.9ZM281.84,519h8.42L277.51,484.5H266.78L254,519h8.42l2.41-6.59h14.57Zm-44.79.69c9.7,0,15.4-6,16.73-11.42l-8-2c-.84,3-4.13,5.76-8.86,5.76-6,0-9.74-4.87-9.74-10.28,0-5.57,3.74-10.19,9.74-10.19,4.73,0,8,2.95,8.86,5.85l8-2c-1.33-5.37-7-11.57-16.88-11.57a17.59,17.59,0,0,0-18.06,17.92c0,10.18,7.73,17.91,18.21,17.91M206.24,484.5v20c0,4.43-2.32,7.68-7,7.68s-7-3.25-7-7.68v-20h-8.27v20.13c0,8.81,5.37,15,15.31,15s15.31-6.2,15.31-15V484.5Zm-43.17,27.12h-7.63V491.83h7.63c4.63,0,8.22,3.69,8.22,9.75s-3.59,10-8.22,10m.2-27.12h-15.9V519h15.9c9.84,0,16.29-7.23,16.29-17.22,0-10.24-6.59-17.23-16.29-17.23m-20.82,7.38V484.5H116.51V519H142.4v-7.38H124.49V505h15.45v-7.13H124.49v-6Z"/><path class="cls-5" d="M392.53,425.43v19.74L377,425.43h-6.64v34.46h8.17V440.15l15.5,19.74h6.64V425.43Zm-27.07,7.39v-7.39H339.52v34.46h25.89V452.5H347.5V446H363v-7.14H347.5v-6Zm-60.59,20.23c-6.05,0-10-4.48-10-10.39s3.94-10.38,10-10.38,10,4.52,10,10.38-3.94,10.39-10,10.39m0,7.53c10.54,0,18.27-7.73,18.27-17.92s-7.73-17.91-18.27-17.91-18.26,7.72-18.26,17.91,7.73,17.92,18.26,17.92m-43-27.86h8.91a4.44,4.44,0,0,1,4.52,4.33c0,2.41-2,4.38-4.87,4.38h-8.56Zm13.24,27.17h9.4l-8.32-12.36a11.14,11.14,0,0,0,7-10.48A11.77,11.77,0,0,0,271,425.43H253.78v34.46h8.08V448.57h5.9Zm-26.24-27.07v-7.39H222.92v34.46h25.89V452.5H230.9V446h15.45v-7.14H230.9v-6Zm-40-7.39v19.74l-15.51-19.74H186.7v34.46h8.17V440.15l15.5,19.74H217V425.43Zm-27.07,7.39v-7.39H155.84v34.46h25.89V452.5H163.81V446h15.46v-7.14H163.81v-6ZM177,414.61h-8.56l-3.69,7h6.64ZM151.26,440.3H133.64v7l9.06,0c-.64,2.85-3.35,5.71-8.32,5.71-7.24,0-10.93-5-10.93-10.39a9.86,9.86,0,0,1,10-10.19c4.83,0,7.48,2.07,9.11,5.17l7.58-2.16c-2.12-5.71-8-10.68-16.79-10.68-10.28,0-18.16,7.72-18.16,17.91s7.83,17.92,18.56,17.92,17.52-6.89,17.52-16.2Z"/><path class="cls-5" d="M584,373.75v-7.38H558.06v34.45H584v-7.38H566V386.9h15.46v-7.14H566v-6Zm-47,19.74h-7.62V373.7H537c4.63,0,8.22,3.7,8.22,9.75s-3.59,10-8.22,10m.2-27.12h-15.9v34.45h15.9c9.85,0,16.29-7.23,16.29-17.22,0-10.24-6.59-17.23-16.29-17.23M486.64,394c-6.05,0-10-4.48-10-10.38s3.94-10.39,10-10.39,10,4.53,10,10.39S492.7,394,486.64,394m0,7.53c10.54,0,18.26-7.72,18.26-17.91s-7.72-17.92-18.26-17.92-18.26,7.73-18.26,17.92,7.73,17.91,18.26,17.91m-31.1-.69h8.27V366.37h-8.27ZM429,373.66h8.91A4.44,4.44,0,0,1,442.4,378c0,2.41-2,4.38-4.88,4.38H429Zm13.24,27.16h9.4l-8.32-12.35a11.14,11.14,0,0,0,7-10.48,11.77,11.77,0,0,0-12.21-11.62H420.89v34.45H429V389.5h5.9ZM398.05,394c-6.06,0-10-4.48-10-10.38s3.93-10.39,10-10.39,10,4.53,10,10.39S404.1,394,398.05,394m0,7.53c10.53,0,18.26-7.72,18.26-17.91s-7.73-17.92-18.26-17.92-18.26,7.73-18.26,17.92,7.73,17.91,18.26,17.91m-18.16-35.14H349.76v7.38h11v27.07h8.17V373.75h11Zm-49.47,20.72,4.68-12.89,4.67,12.89Zm14.37,13.73h8.42l-12.75-34.45H329.73L317,400.82h8.42l2.41-6.59h14.57Zm-33.12-34.45-8.91,24-8.86-24h-9.06l13.44,34.45h9l13.43-34.45Zm-49.47,7.29h8.91a4.44,4.44,0,0,1,4.53,4.33c0,2.41-2,4.38-4.87,4.38H262.2Zm13.24,27.16h9.4l-8.32-12.35a11.14,11.14,0,0,0,7-10.48,11.77,11.77,0,0,0-12.2-11.62H254.13v34.45h8.07V389.5h5.91Zm-26.23-27.07v-7.38H223.27v34.45h25.89v-7.38H231.24V386.9H246.7v-7.14H231.24v-6Zm-44.5,27.76c8.52,0,14.13-4.77,14.13-10.92,0-5.81-4.28-8.08-9.45-9.7l-8.66-2.76c-1.48-.44-2.32-1.28-2.32-2.46,0-1.57,1.77-2.85,4.58-2.85a8.68,8.68,0,0,1,7.58,4.13l7.53-2.21c-1.82-4.83-7.63-9.06-15.21-9.06-7.43,0-12.8,4.63-12.75,10.29,0,4.53,3.35,7.68,7.88,9.1l8.86,2.76c2.61.84,3.69,1.87,3.69,3.3,0,1.72-2.07,3.25-5.37,3.25a9.24,9.24,0,0,1-8.9-5.71l-7.78,2.41c2,5.31,7.48,10.43,16.19,10.43M174,393.79h-9.75v-7.14H174c2.51,0,3.94,1.43,3.94,3.54s-1.43,3.6-3.94,3.6m-.89-20.43a3.4,3.4,0,0,1,3.74,3.35,3.57,3.57,0,0,1-3.74,3.54h-8.86v-6.89Zm7.58,9.45a7.88,7.88,0,0,0,4.14-7.09c0-5.56-4.68-9.35-11.72-9.35H156.28v34.45H174c7.48,0,12.06-3.64,12.06-9.84a8.84,8.84,0,0,0-5.37-8.17M133.44,394c-6,0-10-4.48-10-10.38s3.94-10.39,10-10.39,10,4.53,10,10.39S139.5,394,133.44,394m0,7.53c10.54,0,18.26-7.72,18.26-17.91s-7.72-17.92-18.26-17.92-18.26,7.73-18.26,17.92,7.73,17.91,18.26,17.91"/><path d="M305.19,261.53a77.5,77.5,0,0,0,0-110.63,242,242,0,0,1,72.06,55.31,242.14,242.14,0,0,1-72.05,55.32Zm-181-55.32a242.27,242.27,0,0,1,72.05-55.31,77.52,77.52,0,0,0,0,110.63,242.14,242.14,0,0,1-72.05-55.32m195.12,0a68.58,68.58,0,1,1-68.58-68.57,68.57,68.57,0,0,1,68.58,68.57m67.55-2.88A250.85,250.85,0,0,0,347.22,166c-22.46-17.12-57.42-37.51-96.52-37.51S176.64,148.89,154.19,166a251,251,0,0,0-39.61,37.35,4.58,4.58,0,0,0,0,5.76,251,251,0,0,0,39.61,37.35c22.45,17.09,57.41,37.49,96.51,37.49s74.06-20.4,96.52-37.49a250.91,250.91,0,0,0,39.61-37.33,4.58,4.58,0,0,0,0-5.78"/></g><rect x="246.13" y="87.35" width="9.14" height="32"/><rect x="287.95" y="105.64" width="30.67" height="9.14" transform="translate(69.07 332.18) rotate(-63.43)"/><rect x="193.56" y="94.88" width="9.14" height="30.66" transform="translate(-28.37 100.23) rotate(-26.56)"/><rect x="336.64" y="126.21" width="29.27" height="9.14" transform="translate(29.78 323.51) rotate(-51.36)"/><rect x="145.58" y="116.13" width="9.15" height="29.28" transform="translate(-48.79 122.5) rotate(-38.67)"/><rect x="246.13" y="293.07" width="9.14" height="32"/><rect x="298.71" y="286.88" width="9.14" height="30.67" transform="translate(-103.14 167.56) rotate(-26.57)"/><rect x="182.79" y="297.64" width="30.67" height="9.14" transform="translate(-160.79 344.27) rotate(-63.43)"/><rect x="346.8" y="266.95" width="9.15" height="29.28" transform="translate(-98.91 281.26) rotate(-38.67)"/><rect x="135.49" y="277.08" width="29.27" height="9.14" transform="translate(-163.61 223.05) rotate(-51.36)"/><g class="cls-2"><path class="cls-6" d="M249.65,226.36v32.52a4.19,4.19,0,0,1-1.21,3.1,4.14,4.14,0,0,1-3.09,1.18,4.51,4.51,0,0,1-3.22-1.18,3.86,3.86,0,0,1-1.33-3.1V226.36H228.62l12.67-42.81h-2.18c-1.39,4.8-2.56,8.66-3.48,11.72s-1.74,5.94-2.53,8.73a48.34,48.34,0,0,0-1.57,5.08,3.47,3.47,0,0,1-3.64,2.7l-1-.23a3.47,3.47,0,0,1-2.62-3.41,2.51,2.51,0,0,1,.24-1.17,26.12,26.12,0,0,0,.92-3.22c.49-1.81,1.15-4.06,1.94-6.68s1.64-5.53,2.54-8.62,1.75-6.09,2.78-9a11.93,11.93,0,0,1,4-6,9.54,9.54,0,0,1,6.42-2.62h14.91a9.61,9.61,0,0,1,6.55,2.62,14.54,14.54,0,0,1,4.13,6c.83,2.88,1.68,5.87,2.53,9s1.77,6,2.5,8.62,1.45,4.87,1.93,6.68a24.75,24.75,0,0,0,1,3.22l.24.95a3.38,3.38,0,0,1-2.67,3.61l-.89.25a3.38,3.38,0,0,1-3.64-2.7c-.13-.59-.67-2.34-1.39-5.08s-1.71-5.68-2.68-8.73-2.11-6.92-3.49-11.73H260l12.66,42.82h-12v32.52a3.67,3.67,0,0,1-1.34,3.1,4.37,4.37,0,0,1-3.15,1.18A4.22,4.22,0,0,1,253,262a4.12,4.12,0,0,1-1.15-3.1V226.36Z"/><path class="cls-6" d="M250.85,168.23a8.64,8.64,0,0,0,6.44-2.59,9.22,9.22,0,0,0,2.66-6.7,9.13,9.13,0,0,0-2.66-6.55,8.39,8.39,0,0,0-6.44-2.78,9.31,9.31,0,0,0-6.85,2.78,9.44,9.44,0,0,0,0,13.25,9.6,9.6,0,0,0,6.84,2.59"/></g></g></g></svg>