<?xml version="1.0"?>
<svg xmlns="http://www.w3.org/2000/svg" height="512px" viewBox="0 0 511 511.99964" width="512px"><path d="m42.585938 255.664062c0 57.21875 22.28125 111.007813 62.738281 151.464844 83.714843 83.714844 219.207031 83.722656 302.929687 0 40.457032-40.457031 62.738282-94.246094 62.738282-151.464844 0-118.390624-95.804688-214.203124-214.203126-214.203124-118.390624 0-214.203124 95.804687-214.203124 214.203124zm295.429687-140.6875c3.585937 2.074219 8.179687.847657 10.253906-2.746093l1.578125-2.734375c21.324219 13.625 39.484375 31.785156 53.109375 53.109375l-2.734375 1.578125c-3.589844 2.070312-4.820312 6.664062-2.746094 10.253906 2.074219 3.597656 6.667969 4.824219 10.257813 2.75l2.746094-1.585938c11.441406 21.875 18.347656 46.476563 19.464843 72.554688h-3.195312c-4.148438 0-7.511719 3.363281-7.511719 7.507812 0 4.148438 3.363281 7.507813 7.511719 7.507813h3.195312c-1.117187 26.082031-8.023437 50.683594-19.464843 72.558594l-2.746094-1.589844c-3.59375-2.074219-8.1875-.84375-10.257813 2.75-2.074218 3.589844-.84375 8.183594 2.746094 10.257813l2.734375 1.578124c-68.394531 107.046876-224.082031 106.832032-292.339843 0l2.734374-1.578124c3.589844-2.074219 4.820313-6.667969 2.75-10.257813-2.074218-3.59375-6.667968-4.824219-10.257812-2.75l-2.75 1.589844c-11.441406-21.875-18.347656-46.476563-19.464844-72.558594h3.199219c4.148437 0 7.507813-3.359375 7.507813-7.507813 0-4.144531-3.359376-7.507812-7.507813-7.507812h-3.199219c1.117188-26.078125 8.023438-50.679688 19.464844-72.554688l2.75 1.585938c3.59375 2.074219 8.1875.839844 10.257812-2.75 2.070313-3.589844.839844-8.183594-2.75-10.253906l-2.734374-1.578125c13.625-21.324219 31.785156-39.484375 53.109374-53.109375l1.578126 2.734375c2.074218 3.589843 6.664062 4.820312 10.257812 2.746093 3.589844-2.070312 4.820312-6.664062 2.746094-10.253906l-1.585938-2.75c21.875-11.441406 46.476563-18.347656 72.554688-19.464844v3.195313c0 4.148437 3.363281 7.511719 7.507812 7.511719 4.148438 0 7.511719-3.363282 7.511719-7.511719v-3.195313c26.078125 1.117188 50.679687 8.023438 72.554687 19.464844l-1.585937 2.746094c-2.074219 3.59375-.84375 8.183594 2.75 10.257812zm117.804687 133.179688h-10.847656c-1.132812-28.808594-8.769531-55.972656-21.476562-80.066406l9.390625-5.421875c13.625 25.695312 21.785156 54.707031 22.933593 85.488281zm-22.9375 100.507812-9.390624-5.421874c12.710937-24.09375 20.34375-51.257813 21.480468-80.066407h10.84375c-1.144531 30.777344-9.304687 59.792969-22.933594 85.488281zm-375.125-85.488281h10.84375c1.136719 28.808594 8.769532 55.972657 21.480469 80.066407l-9.390625 5.421874c-13.625-25.695312-21.785156-54.710937-22.933594-85.488281zm22.933594-100.507812 9.390625 5.417969c-12.707031 24.097656-20.34375 51.261718-21.476562 80.070312h-10.847657c1.148438-30.78125 9.308594-59.792969 22.933594-85.488281zm168.585938-95.1875c-28.808594 1.132812-55.972656 8.769531-80.066406 21.480469l-5.421876-9.390626c25.695313-13.628906 54.710938-21.789062 85.488282-22.9375zm15.019531 0v-10.84375c30.78125 1.144531 59.792969 9.308593 85.488281 22.933593l-5.417968 9.390626c-24.097657-12.710938-51.261719-20.34375-80.070313-21.480469zm-113.5 19.617187 5.417969 9.386719c-23.59375 14.960937-43.644532 35.015625-58.605469 58.609375l-9.386719-5.421875c15.921875-25.230469 37.34375-46.652344 62.574219-62.574219zm-62.574219 274.5625 9.386719-5.421875c74.113281 116.886719 244.167969 117.003907 318.355469 0l9.390625 5.421875c-78.339844 124.140625-258.769531 124.183594-337.132813 0zm337.132813-211.988281-9.386719 5.421875c-14.960938-23.59375-35.015625-43.648438-58.609375-58.605469l5.421875-9.390625c25.230469 15.921875 46.652344 37.34375 62.574219 62.574219zm0 0" fill="#1e497d"/><path d="m135.527344 326.492188c2.09375 3.578124 6.695312 4.78125 10.273437 2.6875s4.78125-6.695313 2.6875-10.273438c-48.691406-83.191406 11.332031-188.640625 108.300781-188.640625 97.148438 0 156.917969 105.574219 108.300782 188.640625-2.09375 3.578125-.890625 8.179688 2.6875 10.273438s8.179687.894531 10.273437-2.6875c54.519531-93.152344-12.578125-211.246094-121.261719-211.246094-108.601562 0-175.796874 118.066406-121.261718 211.246094zm0 0" fill="#1e497d"/><path d="m358.652344 304.574219-70.023438-62.757813-7.6875-13.316406c-2.609375-4.523438-7.480468-7.335938-12.703125-7.335938h-22.898437c-5.226563 0-10.09375 2.808594-12.707032 7.335938l-11.449218 19.828125v.003906c-2.609375 4.523438-2.609375 10.144531 0 14.667969l11.449218 19.832031c2.613282 4.523438 7.484376 7.335938 12.707032 7.335938h13.527344l90.917968 29.769531c4.09375 1.339844 8.457032-.363281 10.621094-4.109375 2.167969-3.757813 1.445312-8.386719-1.753906-11.253906zm-124.363282-48.910157 11.25-19.480468h22.496094c10.566406 18.292968 9.539063 16.519531 11.25 19.484375l-11.25 19.480469c-.488281 0-9.378906 0-22.496094 0zm47.253907 26.125 9.953125-17.238281 36.039062 32.300781zm0 0" fill="#1e497d"/><path d="m497.453125 238.675781c.277344 3.957031 3.574219 6.988281 7.484375 6.988281.175781 0 .351562-.007812.527344-.019531 4.136718-.289062 7.257812-3.875 6.972656-8.011719-8.851562-127.257812-110.59375-228.777343-237.609375-237.6132808-4.117187-.2851562-7.722656 2.8320308-8.011719 6.9687498-.289062 4.136719 2.832032 7.722657 6.96875 8.011719 119.222656 8.296875 215.378906 104.453125 223.667969 223.675781zm0 0" fill="#1e497d"/><path d="m238.746094.0195312c-133.554688 9.2929688-238.246094 120.5312498-238.246094 255.6445308 0 68.457032 26.660156 132.816407 75.066406 181.222657 98.773438 98.777343 256.402344 99.511719 356.371094 5.867187 47.410156-44.40625 76-104.441406 80.496094-169.039062.289062-4.136719-2.832032-7.722656-6.96875-8.011719-4.09375-.277344-7.722656 2.832031-8.011719 6.96875-8.753906 125.757813-114.46875 224.265625-240.664063 224.265625-133.039062 0-241.269531-108.234375-241.269531-241.273438 0-126.199218 98.511719-231.914062 224.269531-240.664062 4.136719-.289062 7.257813-3.875 6.96875-8.011719-.289062-4.136719-3.894531-7.257812-8.011718-6.9687498zm0 0" fill="#1e497d"/></svg>
