<svg xmlns="http://www.w3.org/2000/svg" viewBox="0 0 324.88 148.59"><defs><style>.cls-1,.cls-3{fill:#fff;}.cls-1{opacity:0.4;}.cls-2{fill:#5867ad;}.cls-4{fill:#f18f7c;}.cls-5{fill:#ed751c;}.cls-6{fill:#132b3b;}</style></defs><title>Recurso 11</title><g id="Capa_2" data-name="Capa 2"><g id="Capa_1-2" data-name="Capa 1"><rect class="cls-1" x="88.15" y="-88.15" width="148.59" height="324.88" transform="translate(236.73 -88.15) rotate(90)"/><path class="cls-2" d="M192.42,14.69v11h-2v-.93A3,3,0,0,1,188,25.85a3.82,3.82,0,0,1-3.75-4,3.8,3.8,0,0,1,3.75-4A3,3,0,0,1,190.43,19V14.69Zm-1.93,7.14a2.13,2.13,0,0,0-2.16-2.22,2.08,2.08,0,0,0-2.13,2.22,2.1,2.1,0,0,0,2.13,2.25A2.15,2.15,0,0,0,190.49,21.83Z"/><path class="cls-2" d="M193.91,21.84a3.84,3.84,0,0,1,4-4,3.7,3.7,0,0,1,3.91,3.9,4.11,4.11,0,0,1,0,.7h-5.89a2,2,0,0,0,2.2,1.73,2,2,0,0,0,1.85-1l1.78.53a4.14,4.14,0,0,1-7.78-1.85Zm6-.64a1.86,1.86,0,0,0-2-1.68,1.94,1.94,0,0,0-2,1.68Z"/><path class="cls-2" d="M207,14.69h2v11h-2Z"/><path class="cls-2" d="M210.45,21.84a3.8,3.8,0,0,1,3.75-4A3,3,0,0,1,216.64,19v-.91h2v7.59h-2v-.93a3,3,0,0,1-2.44,1.14A3.82,3.82,0,0,1,210.45,21.84Zm6.25,0a2.13,2.13,0,0,0-2.16-2.22,2.09,2.09,0,0,0-2.13,2.22,2.11,2.11,0,0,0,2.13,2.25A2.15,2.15,0,0,0,216.7,21.83Z"/><path class="cls-2" d="M219.88,23.51l1.79-.53a2,2,0,0,0,2,1.26c.76,0,1.26-.36,1.26-.78s-.29-.58-.84-.75l-1.94-.57c-1.08-.31-1.87-.94-1.87-2,0-1.28,1.38-2.28,3-2.28a3.46,3.46,0,0,1,3.36,1.92l-1.75.51a1.81,1.81,0,0,0-1.62-.89c-.62,0-1.08.33-1.08.69s.21.48.63.6l1.89.54c1.14.33,2.13.8,2.13,2.16s-1.35,2.48-3.29,2.48A3.78,3.78,0,0,1,219.88,23.51Z"/><path class="cls-2" d="M192,35.05v7.59h-2v-1a3,3,0,0,1-2.43,1.17c-2,0-3-1.34-3-3.38V35.05h2V39.1c0,1.15.52,1.9,1.62,1.9s1.83-.87,1.83-2.22V35.05Z"/><path class="cls-2" d="M201.39,38.2v4.44h-2V38.57c0-1.15-.53-1.89-1.62-1.89s-1.83.87-1.83,2.21v3.75h-2V35.05h2v1a3,3,0,0,1,2.45-1.17C200.38,34.84,201.39,36.17,201.39,38.2Z"/><path class="cls-2" d="M203.08,32.81A1.19,1.19,0,1,1,204.27,34,1.17,1.17,0,0,1,203.08,32.81Zm.17,2.24h2v7.59h-2Z"/><path class="cls-2" d="M214.81,35.05l-3.13,7.59h-2.23l-3.14-7.59h2.17l2.09,5.4,2.08-5.4Z"/><path class="cls-2" d="M215.13,38.84a3.84,3.84,0,0,1,4-4,3.7,3.7,0,0,1,3.91,3.9,3.3,3.3,0,0,1-.05.7h-5.89a2,2,0,0,0,2.2,1.73,2,2,0,0,0,1.85-1l1.78.53a4.14,4.14,0,0,1-7.78-1.85Zm6-.64a1.85,1.85,0,0,0-2-1.68,2,2,0,0,0-2,1.68Z"/><path class="cls-2" d="M229,34.94V36.8c-1.62-.25-2.5.5-2.5,2.54v3.3h-2V35.05h2v1.12A2.29,2.29,0,0,1,229,34.94Z"/><path class="cls-2" d="M229.53,40.51l1.78-.53a2,2,0,0,0,2,1.26c.77,0,1.26-.36,1.26-.78s-.28-.58-.84-.75l-1.93-.57c-1.08-.31-1.88-.94-1.88-2,0-1.28,1.38-2.28,3-2.28a3.47,3.47,0,0,1,3.36,1.92l-1.76.51a1.8,1.8,0,0,0-1.62-.89c-.61,0-1.08.33-1.08.69s.21.48.63.6l1.89.54c1.14.33,2.13.8,2.13,2.16s-1.35,2.48-3.28,2.48A3.76,3.76,0,0,1,229.53,40.51Z"/><path class="cls-2" d="M237.84,32.81a1.19,1.19,0,0,1,2.37,0,1.19,1.19,0,0,1-2.37,0Zm.16,2.24h2v7.59h-2Z"/><path class="cls-2" d="M249.7,31.69v11h-2v-.93a3,3,0,0,1-2.45,1.14,3.82,3.82,0,0,1-3.75-4,3.8,3.8,0,0,1,3.75-4A3,3,0,0,1,247.71,36V31.69Zm-1.93,7.14a2.13,2.13,0,0,0-2.16-2.22,2.24,2.24,0,0,0,0,4.47A2.15,2.15,0,0,0,247.77,38.83Z"/><path class="cls-2" d="M251.19,38.84a3.8,3.8,0,0,1,3.75-4A3,3,0,0,1,257.38,36v-.91h2v7.59h-2v-.93a3,3,0,0,1-2.44,1.14A3.82,3.82,0,0,1,251.19,38.84Zm6.25,0a2.13,2.13,0,0,0-2.16-2.22,2.24,2.24,0,0,0,0,4.47A2.15,2.15,0,0,0,257.44,38.83Z"/><path class="cls-2" d="M269.05,31.69v11h-2v-.93a3,3,0,0,1-2.45,1.14,3.82,3.82,0,0,1-3.75-4,3.8,3.8,0,0,1,3.75-4A3,3,0,0,1,267.06,36V31.69Zm-1.93,7.14A2.13,2.13,0,0,0,265,36.61a2.24,2.24,0,0,0,0,4.47A2.15,2.15,0,0,0,267.12,38.83Z"/><path class="cls-2" d="M270.54,38.84a3.84,3.84,0,0,1,4-4,3.7,3.7,0,0,1,3.92,3.9,3.3,3.3,0,0,1-.05.7h-5.89a2,2,0,0,0,2.2,1.73,2,2,0,0,0,1.85-1l1.78.53a4.14,4.14,0,0,1-7.78-1.85Zm5.95-.64a1.86,1.86,0,0,0-2-1.68,1.94,1.94,0,0,0-2,1.68Z"/><path class="cls-2" d="M279.22,40.51,281,40a2,2,0,0,0,2,1.26c.76,0,1.26-.36,1.26-.78s-.29-.58-.84-.75l-1.94-.57c-1.08-.31-1.87-.94-1.87-2,0-1.28,1.38-2.28,3-2.28A3.46,3.46,0,0,1,286,36.76l-1.75.51a1.81,1.81,0,0,0-1.62-.89c-.62,0-1.08.33-1.08.69s.21.48.63.6l1.89.54c1.14.33,2.13.8,2.13,2.16s-1.35,2.48-3.29,2.48A3.78,3.78,0,0,1,279.22,40.51Z"/><path class="cls-2" d="M184.23,55.83a3.91,3.91,0,0,1,4-4,3.7,3.7,0,0,1,3.7,2.49l-1.84.52a1.87,1.87,0,0,0-1.86-1.26,2.25,2.25,0,0,0,0,4.49,1.85,1.85,0,0,0,1.86-1.22l1.84.51a3.66,3.66,0,0,1-3.68,2.48A3.93,3.93,0,0,1,184.23,55.83Z"/><path class="cls-2" d="M200.73,55.2v4.44h-2V55.57c0-1.15-.52-1.89-1.62-1.89s-1.83.87-1.83,2.21v3.75h-2v-11h2V53a3,3,0,0,1,2.45-1.17C199.73,51.84,200.73,53.17,200.73,55.2Z"/><path class="cls-2" d="M202.43,49.81a1.18,1.18,0,0,1,2.36,0,1.18,1.18,0,0,1-2.36,0Zm.16,2.24h2v7.59h-2Z"/><path class="cls-2" d="M206.57,48.69h2v11h-2Z"/><path class="cls-2" d="M210,55.84a3.84,3.84,0,0,1,4-4,3.7,3.7,0,0,1,3.92,3.9,3.3,3.3,0,0,1,0,.7H212a2,2,0,0,0,2.21,1.73,1.94,1.94,0,0,0,1.84-1l1.78.53A4.14,4.14,0,0,1,210,55.84ZM216,55.2a1.86,1.86,0,0,0-2-1.68,1.94,1.94,0,0,0-2,1.68Z"/><path class="cls-2" d="M226.83,55.2v4.44h-2V55.57c0-1.15-.53-1.89-1.62-1.89s-1.83.87-1.83,2.21v3.75h-2V52.05h2v1a3,3,0,0,1,2.44-1.17C225.82,51.84,226.83,53.17,226.83,55.2Z"/><path class="cls-2" d="M228.24,55.84a3.8,3.8,0,0,1,3.75-4A3,3,0,0,1,234.43,53v-.91h2v7.59h-2v-.93A3,3,0,0,1,232,59.85,3.82,3.82,0,0,1,228.24,55.84Zm6.25,0a2.13,2.13,0,0,0-2.16-2.22,2.24,2.24,0,0,0,0,4.47A2.15,2.15,0,0,0,234.49,55.83Z"/><path class="cls-2" d="M237.67,57.51l1.79-.53a2,2,0,0,0,2,1.26c.76,0,1.26-.36,1.26-.78s-.29-.58-.84-.75l-1.94-.57c-1.08-.31-1.87-.94-1.87-2,0-1.28,1.38-2.28,3-2.28a3.46,3.46,0,0,1,3.36,1.92l-1.75.51a1.81,1.81,0,0,0-1.62-.89c-.62,0-1.08.33-1.08.69s.21.48.63.6l1.89.54c1.14.33,2.13.8,2.13,2.16s-1.35,2.48-3.29,2.48A3.78,3.78,0,0,1,237.67,57.51Z"/><path class="cls-2" d="M254.67,59.4a4.55,4.55,0,0,1-1.77.36c-1.74,0-2.54-1.08-2.54-2.72V53.79h-1.27V52.05h1.27V49.59h2v2.46h2.22v1.74h-2.22V57a.84.84,0,0,0,.93,1,1.86,1.86,0,0,0,.9-.21Z"/><path class="cls-2" d="M255.85,49.81A1.19,1.19,0,1,1,257,51,1.17,1.17,0,0,1,255.85,49.81Zm.17,2.24h2v7.59h-2Z"/><path class="cls-2" d="M259.53,55.84a3.84,3.84,0,0,1,4-4,3.7,3.7,0,0,1,3.92,3.9,3.3,3.3,0,0,1-.05.7h-5.89a2,2,0,0,0,2.2,1.73,2,2,0,0,0,1.85-1l1.78.53a4.14,4.14,0,0,1-7.78-1.85Zm6-.64a1.86,1.86,0,0,0-2-1.68,1.94,1.94,0,0,0-2,1.68Z"/><path class="cls-2" d="M276.33,55.2v4.44h-2V55.57c0-1.15-.53-1.89-1.62-1.89s-1.83.87-1.83,2.21v3.75h-2V52.05h2v1a3,3,0,0,1,2.44-1.17C275.32,51.84,276.33,53.17,276.33,55.2Z"/><path class="cls-2" d="M277.74,55.84a3.84,3.84,0,0,1,4-4,3.7,3.7,0,0,1,3.92,3.9,3.3,3.3,0,0,1-.05.7h-5.89a2,2,0,0,0,2.2,1.73,2,2,0,0,0,1.85-1l1.78.53a4.14,4.14,0,0,1-7.78-1.85Zm5.95-.64a1.86,1.86,0,0,0-2-1.68,1.94,1.94,0,0,0-2,1.68Z"/><path class="cls-2" d="M290.35,55.84a3.8,3.8,0,0,1,3.75-4A3,3,0,0,1,296.55,53v-.91h2v7.59h-2v-.93a3,3,0,0,1-2.45,1.14A3.82,3.82,0,0,1,290.35,55.84Zm6.26,0a2.13,2.13,0,0,0-2.16-2.22,2.24,2.24,0,0,0,0,4.47A2.15,2.15,0,0,0,296.61,55.83Z"/><path class="cls-2" d="M192,69.05v7.59h-2v-1a3,3,0,0,1-2.43,1.17c-2,0-3-1.34-3-3.38V69.05h2v4c0,1.15.52,1.9,1.62,1.9s1.83-.87,1.83-2.22V69.05Z"/><path class="cls-2" d="M201.39,72.2v4.44h-2V72.57c0-1.15-.53-1.89-1.62-1.89s-1.83.87-1.83,2.21v3.75h-2V69.05h2v1a3,3,0,0,1,2.45-1.17C200.38,68.84,201.39,70.17,201.39,72.2Z"/><path class="cls-2" d="M202.8,72.84a3.8,3.8,0,0,1,3.75-4A3,3,0,0,1,209,70v-.91h2v7.59h-2v-.93a3,3,0,0,1-2.44,1.14A3.82,3.82,0,0,1,202.8,72.84Zm6.25,0a2.13,2.13,0,0,0-2.16-2.22,2.24,2.24,0,0,0,0,4.47A2.15,2.15,0,0,0,209.05,72.83Z"/><path class="cls-2" d="M228.7,72.12v4.52h-2v-4.1c0-1.14-.42-1.86-1.45-1.86s-1.61.8-1.61,2.09v3.87h-2v-4.1c0-1.12-.41-1.86-1.43-1.86s-1.63.81-1.63,2.15v3.81h-2V69.05h2V70a2.73,2.73,0,0,1,2.25-1.11A2.55,2.55,0,0,1,223.14,70a3.15,3.15,0,0,1,2.56-1.14C227.52,68.84,228.7,70,228.7,72.12Z"/><path class="cls-2" d="M237.84,69.05v7.59h-2v-1a3,3,0,0,1-2.43,1.17c-2,0-3-1.34-3-3.38V69.05h2v4c0,1.15.52,1.9,1.62,1.9s1.83-.87,1.83-2.22V69.05Z"/><path class="cls-2" d="M239.79,69.05h2v7.83c0,1.9-.81,3.12-2.63,3.12a3.65,3.65,0,0,1-1.42-.33l.45-1.53a1.58,1.58,0,0,0,.67.18c.65,0,.95-.51.95-1.28Zm-.18-2.24a1.19,1.19,0,0,1,2.37,0,1.19,1.19,0,0,1-2.37,0Z"/><path class="cls-2" d="M243.28,72.84a3.84,3.84,0,0,1,4-4,3.7,3.7,0,0,1,3.91,3.9,4.11,4.11,0,0,1,0,.7h-5.9a2,2,0,0,0,2.21,1.73,1.93,1.93,0,0,0,1.84-1l1.79.53a4.15,4.15,0,0,1-7.79-1.85Zm6-.64a1.86,1.86,0,0,0-2-1.68,2,2,0,0,0-2,1.68Z"/><path class="cls-2" d="M257.16,68.94V70.8c-1.62-.25-2.51.5-2.51,2.54v3.3h-2V69.05h2v1.12A2.3,2.3,0,0,1,257.16,68.94Z"/><path class="cls-2" d="M261.67,72.84a3.84,3.84,0,0,1,4-4,3.7,3.7,0,0,1,3.91,3.9,4.11,4.11,0,0,1,0,.7h-5.9a2,2,0,0,0,2.21,1.73,1.93,1.93,0,0,0,1.84-1l1.79.53a4.15,4.15,0,0,1-7.79-1.85Zm6-.64a1.86,1.86,0,0,0-2-1.68,2,2,0,0,0-2,1.68Z"/><path class="cls-2" d="M278.47,72.2v4.44h-2V72.57c0-1.15-.52-1.89-1.62-1.89s-1.83.87-1.83,2.21v3.75h-2V69.05h2v1a3,3,0,0,1,2.45-1.17C277.47,68.84,278.47,70.17,278.47,72.2Z"/><path class="cls-2" d="M283.57,72.84a3.84,3.84,0,0,1,4-4,3.7,3.7,0,0,1,3.91,3.9,4.11,4.11,0,0,1,0,.7h-5.9a2,2,0,0,0,2.21,1.73,1.93,1.93,0,0,0,1.84-1l1.79.53a4.15,4.15,0,0,1-7.79-1.85Zm6-.64a1.86,1.86,0,0,0-2-1.68,2,2,0,0,0-2,1.68Z"/><path class="cls-2" d="M293,65.69h2v11h-2Z"/><path class="cls-2" d="M184.23,89.83a3.91,3.91,0,0,1,4-4,3.7,3.7,0,0,1,3.7,2.49l-1.84.52a1.87,1.87,0,0,0-1.86-1.26,2.25,2.25,0,0,0,0,4.49,1.85,1.85,0,0,0,1.86-1.22l1.84.51a3.66,3.66,0,0,1-3.68,2.48A3.93,3.93,0,0,1,184.23,89.83Z"/><path class="cls-2" d="M192.93,89.84a3.8,3.8,0,0,1,3.75-4A3,3,0,0,1,199.12,87v-.91h2v7.59h-2v-.93a3,3,0,0,1-2.44,1.14A3.82,3.82,0,0,1,192.93,89.84Zm6.26,0A2.14,2.14,0,0,0,197,87.61a2.24,2.24,0,0,0,0,4.47A2.16,2.16,0,0,0,199.19,89.83Z"/><path class="cls-2" d="M207.55,85.94V87.8c-1.61-.25-2.5.5-2.5,2.54v3.3h-2V86.05h2v1.12A2.29,2.29,0,0,1,207.55,85.94Z"/><path class="cls-2" d="M216.09,86.05v7.32A3.6,3.6,0,0,1,212.17,97a3.89,3.89,0,0,1-3.65-2l1.72-.61a2.17,2.17,0,0,0,2,1,1.83,1.83,0,0,0,1.89-2v-.92a3,3,0,0,1-2.4,1.1A3.72,3.72,0,0,1,208,89.69a3.64,3.64,0,0,1,3.75-3.85,3,3,0,0,1,2.4,1.09v-.88Zm-1.94,3.64a2.11,2.11,0,1,0-2.1,2.07A2,2,0,0,0,214.15,89.69Z"/><path class="cls-2" d="M217.57,89.84a4.06,4.06,0,1,1,4.07,4A3.94,3.94,0,0,1,217.57,89.84Zm6.2,0a2.13,2.13,0,1,0-2.13,2.21A2.09,2.09,0,0,0,223.77,89.84Z"/><path class="cls-2" d="M238.6,82.69v11h-2v-.93a3,3,0,0,1-2.45,1.14,4,4,0,0,1,0-8A3,3,0,0,1,236.61,87V82.69Zm-1.93,7.14a2.13,2.13,0,0,0-2.16-2.22,2.24,2.24,0,0,0,0,4.47A2.15,2.15,0,0,0,236.67,89.83Z"/><path class="cls-2" d="M240.09,89.84a3.84,3.84,0,0,1,4-4,3.7,3.7,0,0,1,3.92,3.9,3.3,3.3,0,0,1,0,.7H242a2,2,0,0,0,2.2,1.73,2,2,0,0,0,1.85-1l1.78.53a4.14,4.14,0,0,1-7.78-1.85ZM246,89.2a1.86,1.86,0,0,0-2-1.68,1.94,1.94,0,0,0-2,1.68Z"/><path class="cls-2" d="M257.65,85.94V87.8c-1.62-.25-2.5.5-2.5,2.54v3.3h-2V86.05h2v1.12A2.29,2.29,0,0,1,257.65,85.94Z"/><path class="cls-2" d="M258.06,89.84a3.84,3.84,0,0,1,4-4,3.7,3.7,0,0,1,3.92,3.9,3.3,3.3,0,0,1-.05.7H260a2,2,0,0,0,2.2,1.73,2,2,0,0,0,1.85-1l1.78.53a4.14,4.14,0,0,1-7.78-1.85ZM264,89.2a1.86,1.86,0,0,0-2-1.68,1.94,1.94,0,0,0-2,1.68Z"/><path class="cls-2" d="M267,89.83a3.91,3.91,0,0,1,4-4,3.72,3.72,0,0,1,3.71,2.49l-1.85.52A1.87,1.87,0,0,0,271,87.59a2.25,2.25,0,0,0,0,4.49,1.85,1.85,0,0,0,1.86-1.22l1.85.51A3.68,3.68,0,0,1,271,93.85,3.93,3.93,0,0,1,267,89.83Z"/><path class="cls-2" d="M281,93.4a4.55,4.55,0,0,1-1.77.36c-1.74,0-2.53-1.08-2.53-2.72V87.79h-1.28V86.05h1.28V83.59h2v2.46h2.22v1.74h-2.22V91a.84.84,0,0,0,.93,1,1.84,1.84,0,0,0,.9-.21Z"/><path class="cls-2" d="M281.5,89.84a4.06,4.06,0,1,1,4.07,4A3.94,3.94,0,0,1,281.5,89.84Zm6.2,0a2.13,2.13,0,1,0-2.13,2.21A2.09,2.09,0,0,0,287.7,89.84Z"/><path class="cls-2" d="M295.6,85.94V87.8c-1.62-.25-2.5.5-2.5,2.54v3.3h-2V86.05h2v1.12A2.29,2.29,0,0,1,295.6,85.94Z"/><path class="cls-2" d="M296,89.84a3.8,3.8,0,0,1,3.75-4A3,3,0,0,1,302.2,87v-.91h2v7.59h-2v-.93a3,3,0,0,1-2.44,1.14A3.82,3.82,0,0,1,296,89.84Zm6.25,0a2.13,2.13,0,0,0-2.16-2.22,2.24,2.24,0,0,0,0,4.47A2.15,2.15,0,0,0,302.26,89.83Z"/><path class="cls-2" d="M305.85,92.53a1.22,1.22,0,0,1,2.44,0,1.22,1.22,0,1,1-2.44,0Z"/><path class="cls-3" d="M15.83,24.4l2.84-.88a3.39,3.39,0,0,0,3.26,2.08c1.21,0,2-.55,2-1.18s-.4-.9-1.36-1.21l-3.24-1c-1.65-.52-2.89-1.67-2.88-3.33,0-2.07,1.95-3.76,4.67-3.76a5.82,5.82,0,0,1,5.56,3.31l-2.75.81a3.19,3.19,0,0,0-2.78-1.51c-1,0-1.67.47-1.67,1s.3.74.84.9l3.17,1c1.89.59,3.46,1.42,3.46,3.55s-2.05,4-5.17,4A6.08,6.08,0,0,1,15.83,24.4Z"/><path class="cls-3" d="M28,23.37a4.75,4.75,0,0,1,4.93-4.84,4.84,4.84,0,1,1,0,9.68A4.75,4.75,0,0,1,28,23.37Zm7.07,0a2.14,2.14,0,1,0-4.28,0,2.14,2.14,0,1,0,4.28,0Z"/><path class="cls-3" d="M39.48,14.82h2.88V28H39.48Z"/><path class="cls-3" d="M44,23.37a4.94,4.94,0,1,1,4.93,4.84A4.75,4.75,0,0,1,44,23.37Zm7.08,0a2.15,2.15,0,1,0-4.29,0,2.15,2.15,0,1,0,4.29,0Z"/><path class="cls-3" d="M59.24,23.39a4.67,4.67,0,0,1,4.86-4.86,4.53,4.53,0,0,1,4.81,4.75,6.11,6.11,0,0,1-.07,1H62.05c.18.86.81,1.58,2.29,1.58a1.91,1.91,0,0,0,1.84-.94l2.59.76a4.83,4.83,0,0,1-4.49,2.57A4.7,4.7,0,0,1,59.24,23.39Zm6.86-.88a1.87,1.87,0,0,0-2-1.57,2,2,0,0,0-2,1.57Z"/><path class="cls-3" d="M70.53,14.82h2.88V28H70.53Z"/><path class="cls-2" d="M49.43,75.79c0,7.72-6.89,13.86-17.59,13.86S14.25,83.51,14.25,75.79c0-5.37,2.78-9.11,7.34-11.2a9.75,9.75,0,0,1-5.44-9.05c0-6.51,6-11.95,15.69-11.95S47.53,49,47.53,55.54a9.75,9.75,0,0,1-5.44,9.05C46.59,66.68,49.43,70.42,49.43,75.79Zm-10.56-.88c0-3.42-2.6-6.08-7-6.08s-7,2.66-7,6.08,2.53,6,7,6S38.87,78.26,38.87,74.91ZM26.27,56.49c0,2.53,2,4.81,5.57,4.81s5.57-2.28,5.57-4.81-2.09-4.74-5.57-4.74S26.27,54,26.27,56.49Z"/><path class="cls-2" d="M56.65,78.77H67.09L61.71,97.43H53.86Z"/><path class="cls-2" d="M105.62,74.34c0,8.54-7,15.31-16.32,15.31-11.27,0-16.65-7.09-17.78-13.92l9.3-2.66c.69,3.86,3.79,7.47,7.84,7.47,4.43,0,6.84-3,6.84-6.2s-2.28-6.14-6.65-6.14a8.19,8.19,0,0,0-4,.82L83.16,63l7.15-9.11H72.91V44.47H104.1v6.9l-9,9.74C101.13,62.57,105.62,67.19,105.62,74.34Z"/><path class="cls-2" d="M109.1,56.94A12.93,12.93,0,0,1,122.39,44c7.53,0,13.29,5.63,13.29,12.91a13.3,13.3,0,0,1-26.58,0Zm19,0a5.69,5.69,0,1,0-5.69,5.63A5.5,5.5,0,0,0,128.08,56.94Zm23.1-12.47H159l-28.67,44.3h-7.91Zm-5.31,31.89a12.93,12.93,0,0,1,13.28-12.91c7.53,0,13.29,5.64,13.29,12.91a13.29,13.29,0,0,1-26.57,0Zm19,0a5.7,5.7,0,1,0-5.7,5.63A5.51,5.51,0,0,0,164.85,76.36Z"/><path class="cls-3" d="M44.14,117.86h-.8a.46.46,0,0,1-.37-.18.44.44,0,0,1-.08-.4l1.16-4.67a.48.48,0,0,1,.46-.36H68.08a.48.48,0,0,1,.46.36l1.16,4.67a.44.44,0,0,1-.08.4.46.46,0,0,1-.37.18Z"/><path class="cls-3" d="M68.62,117.86v15.89H44.32V117.86H48a.94.94,0,0,0,.66-.27l1.78-1.79,4-4,1.73-1.74a.47.47,0,0,1,.66,0l1.73,1.74,4,4,1.78,1.79a.94.94,0,0,0,.66.27Z"/><path class="cls-4" d="M53.67,127.39l.92-2.19a.15.15,0,0,0,0-.17,3.25,3.25,0,0,1-1.09-2.34s-.24-3.14,2.76-3.14h0c3,0,2.76,3.14,2.76,3.14A3.29,3.29,0,0,1,57.93,125a.15.15,0,0,0,0,.17l.92,2.19Z"/><path class="cls-5" d="M63,133.65v-4.5a2.83,2.83,0,0,0-2.14-2.65H52.13A2.83,2.83,0,0,0,50,129.15v4.5Z"/><path class="cls-6" d="M53.45,120.79a10.38,10.38,0,0,0,2.79.46,7.36,7.36,0,0,0,2.78-.69s0-1.63-2.78-1.62S53.45,120.79,53.45,120.79Z"/><polygon class="cls-6" points="53.92 122.68 53.4 122.69 53.45 120.79 54.18 120.99 53.92 122.68"/><polygon class="cls-6" points="58.56 122.45 59.11 122.46 59.02 120.56 58.29 120.75 58.56 122.45"/><path class="cls-3" d="M13.75,117.86h-.81a.43.43,0,0,1-.36-.18.48.48,0,0,1-.09-.4l1.17-4.67a.47.47,0,0,1,.45-.36H37.69a.47.47,0,0,1,.45.36l1.17,4.67a.48.48,0,0,1-.09.4.44.44,0,0,1-.36.18Z"/><path class="cls-3" d="M38.23,117.86v15.89H13.92V117.86h3.63a1,1,0,0,0,.67-.27L20,115.8l4-4,1.73-1.74a.48.48,0,0,1,.67,0l1.73,1.74,4,4,1.78,1.79a1,1,0,0,0,.67.27Z"/><path class="cls-6" d="M25.78,117.4h-.05c-4.62-.21-4.33,6.78-4.33,6.78a7.55,7.55,0,0,0,1.74.89,13.46,13.46,0,0,0,2.62.49,13.48,13.48,0,0,0,2.61-.49,7.79,7.79,0,0,0,1.75-.89S30.4,117.19,25.78,117.4Z"/><path class="cls-4" d="M23.17,127.14l.95-2.28a.15.15,0,0,0,0-.18A3.42,3.42,0,0,1,23,122.24S22.7,119,25.83,119h0c3.13,0,2.87,3.27,2.87,3.27a3.42,3.42,0,0,1-1.13,2.44.15.15,0,0,0,0,.18l.95,2.28Z"/><path class="cls-2" d="M24.84,126.3H21.57a3,3,0,0,0-2.24,2.76v4.69H26V126.3Z"/><polygon class="cls-2" points="30.12 126.3 27.34 126.3 26.03 126.3 26.03 133.75 30.12 133.75 30.12 126.3"/><path class="cls-5" d="M32.84,129.06a2.94,2.94,0,0,0-2.23-2.76h-.49v7.45h2.72Z"/><path class="cls-6" d="M22.94,120.26a10.81,10.81,0,0,0,2.91.48,7.67,7.67,0,0,0,2.9-.72s-1.74-1.88-2.9-1.69S22.94,120.26,22.94,120.26Z"/><polygon class="cls-6" points="23.43 122.23 22.89 122.24 22.94 120.26 23.7 120.47 23.43 122.23"/><polygon class="cls-6" points="28.26 121.99 28.84 122 28.75 120.02 27.99 120.23 28.26 121.99"/><path class="cls-3" d="M74.54,117.86h-.8a.45.45,0,0,1-.37-.18.48.48,0,0,1-.09-.4l1.17-4.67a.47.47,0,0,1,.45-.36H98.48a.47.47,0,0,1,.45.36l1.17,4.67a.48.48,0,0,1-.09.4.43.43,0,0,1-.36.18Z"/><path class="cls-3" d="M99,117.86v15.89H74.71V117.86h3.64a1,1,0,0,0,.66-.27l1.78-1.79,4-4,1.72-1.74a.48.48,0,0,1,.67,0l1.73,1.74,4,4,1.78,1.79a1,1,0,0,0,.67.27Z"/><path class="cls-4" d="M84.06,127.39,85,125.2a.14.14,0,0,0,0-.17,3.29,3.29,0,0,1-1.09-2.34s-.24-3.14,2.76-3.14h0c3,0,2.76,3.14,2.76,3.14A3.25,3.25,0,0,1,88.32,125a.15.15,0,0,0,0,.17l.91,2.19Z"/><path class="cls-5" d="M93.35,133.65v-4.5a2.83,2.83,0,0,0-2.14-2.65H82.53a2.83,2.83,0,0,0-2.14,2.65v4.5Z"/><path class="cls-6" d="M83.85,120.79a10.36,10.36,0,0,0,2.78.46,7.37,7.37,0,0,0,2.79-.69s0-1.63-2.79-1.62S83.85,120.79,83.85,120.79Z"/><polygon class="cls-6" points="84.32 122.68 83.8 122.69 83.85 120.79 84.58 120.99 84.32 122.68"/><polygon class="cls-6" points="88.95 122.45 89.5 122.46 89.42 120.56 88.69 120.75 88.95 122.45"/><path class="cls-3" d="M104.93,117.86h-.8a.46.46,0,0,1-.37-.18.44.44,0,0,1-.08-.4l1.17-4.67a.46.46,0,0,1,.45-.36h23.57a.47.47,0,0,1,.46.36l1.17,4.67a.48.48,0,0,1-.09.4.45.45,0,0,1-.37.18Z"/><path class="cls-3" d="M129.41,117.86v15.89h-24.3V117.86h3.63a1,1,0,0,0,.67-.27l1.78-1.79,4-4,1.73-1.74a.47.47,0,0,1,.66,0l1.73,1.74,4,4,1.78,1.79a.94.94,0,0,0,.66.27Z"/><path class="cls-4" d="M114.46,127.39l.92-2.19a.15.15,0,0,0,0-.17,3.25,3.25,0,0,1-1.09-2.34s-.24-3.14,2.76-3.14h0c3,0,2.76,3.14,2.76,3.14a3.29,3.29,0,0,1-1.09,2.34.15.15,0,0,0,0,.17l.92,2.19Z"/><path class="cls-5" d="M123.74,133.65v-4.5a2.83,2.83,0,0,0-2.14-2.65h-8.68a2.83,2.83,0,0,0-2.14,2.65v4.5Z"/><path class="cls-6" d="M114.25,120.79a10.26,10.26,0,0,0,2.78.46,7.29,7.29,0,0,0,2.78-.69s0-1.63-2.78-1.62S114.25,120.79,114.25,120.79Z"/><polygon class="cls-6" points="114.71 122.68 114.19 122.69 114.25 120.79 114.97 120.99 114.71 122.68"/><polygon class="cls-6" points="119.35 122.45 119.9 122.46 119.81 120.56 119.08 120.75 119.35 122.45"/><path class="cls-3" d="M135.33,117.86h-.8a.45.45,0,0,1-.37-.18.48.48,0,0,1-.09-.4l1.17-4.67a.47.47,0,0,1,.45-.36h23.58a.47.47,0,0,1,.45.36l1.17,4.67a.47.47,0,0,1-.08.4.46.46,0,0,1-.37.18Z"/><path class="cls-3" d="M159.81,117.86v15.89h-24.3V117.86h3.63a.94.94,0,0,0,.66-.27l1.78-1.79,4-4,1.73-1.74a.47.47,0,0,1,.66,0l1.73,1.74,4,4,1.78,1.79a1,1,0,0,0,.67.27Z"/><path class="cls-4" d="M144.86,127.39l.91-2.19a.14.14,0,0,0,0-.17,3.29,3.29,0,0,1-1.08-2.34s-.25-3.14,2.76-3.14h0c3,0,2.76,3.14,2.76,3.14a3.29,3.29,0,0,1-1.08,2.34.14.14,0,0,0,0,.17l.91,2.19Z"/><path class="cls-5" d="M154.14,133.65v-4.5A2.83,2.83,0,0,0,152,126.5h-8.68a2.83,2.83,0,0,0-2.14,2.65v4.5Z"/><path class="cls-6" d="M144.64,120.79a10.38,10.38,0,0,0,2.79.46,7.36,7.36,0,0,0,2.78-.69s0-1.63-2.78-1.62S144.64,120.79,144.64,120.79Z"/><polygon class="cls-6" points="145.11 122.68 144.59 122.69 144.64 120.79 145.37 120.99 145.11 122.68"/><polygon class="cls-6" points="149.74 122.45 150.29 122.46 150.21 120.56 149.48 120.75 149.74 122.45"/><path class="cls-3" d="M196.12,117.86h-.8a.45.45,0,0,1-.37-.18.48.48,0,0,1-.09-.4l1.17-4.67a.47.47,0,0,1,.46-.36h23.57a.46.46,0,0,1,.45.36l1.17,4.67a.44.44,0,0,1-.08.4.46.46,0,0,1-.37.18Z"/><path class="cls-3" d="M220.6,117.86v15.89H196.3V117.86h3.63a.94.94,0,0,0,.66-.27l1.78-1.79,4-4,1.73-1.74a.47.47,0,0,1,.66,0l1.73,1.74,4,4,1.79,1.79a.94.94,0,0,0,.66.27Z"/><path class="cls-4" d="M205.65,127.39l.91-2.19a.15.15,0,0,0,0-.17,3.25,3.25,0,0,1-1.09-2.34s-.25-3.14,2.76-3.14h0c3,0,2.76,3.14,2.76,3.14a3.29,3.29,0,0,1-1.09,2.34.14.14,0,0,0,0,.17l.92,2.19Z"/><path class="cls-5" d="M214.93,133.65v-4.5a2.83,2.83,0,0,0-2.14-2.65h-8.68a2.83,2.83,0,0,0-2.14,2.65v4.5Z"/><path class="cls-6" d="M205.43,120.79a10.38,10.38,0,0,0,2.79.46,7.36,7.36,0,0,0,2.78-.69s0-1.63-2.78-1.62S205.43,120.79,205.43,120.79Z"/><polygon class="cls-6" points="205.9 122.68 205.38 122.69 205.43 120.79 206.16 120.99 205.9 122.68"/><polygon class="cls-6" points="210.53 122.45 211.09 122.46 211 120.56 210.27 120.75 210.53 122.45"/><path class="cls-3" d="M165.73,117.86h-.81a.46.46,0,0,1-.37-.18.47.47,0,0,1-.08-.4l1.17-4.67a.47.47,0,0,1,.45-.36h23.58a.47.47,0,0,1,.45.36l1.17,4.67a.48.48,0,0,1-.09.4.45.45,0,0,1-.37.18Z"/><path class="cls-3" d="M190.2,117.86v15.89H165.9V117.86h3.63a1,1,0,0,0,.67-.27L172,115.8l4-4,1.73-1.74a.47.47,0,0,1,.66,0l1.73,1.74,4,4,1.78,1.79a1,1,0,0,0,.66.27Z"/><path class="cls-4" d="M175.25,127.39l.92-2.19a.15.15,0,0,0,0-.17,3.29,3.29,0,0,1-1.09-2.34s-.24-3.14,2.76-3.14h0c3,0,2.76,3.14,2.76,3.14a3.25,3.25,0,0,1-1.09,2.34.15.15,0,0,0,0,.17l.92,2.19Z"/><path class="cls-5" d="M184.53,133.65v-4.5a2.83,2.83,0,0,0-2.14-2.65h-8.68a2.83,2.83,0,0,0-2.14,2.65v4.5Z"/><path class="cls-6" d="M175,120.79a10.26,10.26,0,0,0,2.78.46,7.29,7.29,0,0,0,2.78-.69s0-1.63-2.78-1.62S175,120.79,175,120.79Z"/><polygon class="cls-6" points="175.5 122.68 174.98 122.69 175.04 120.79 175.77 120.99 175.5 122.68"/><polygon class="cls-6" points="180.14 122.45 180.69 122.46 180.6 120.56 179.88 120.75 180.14 122.45"/><path class="cls-3" d="M226.52,117.86h-.81a.43.43,0,0,1-.36-.18.48.48,0,0,1-.09-.4l1.17-4.67a.47.47,0,0,1,.45-.36h23.58a.47.47,0,0,1,.45.36l1.17,4.67a.48.48,0,0,1-.09.4.45.45,0,0,1-.37.18Z"/><path class="cls-3" d="M251,117.86v15.89H226.69V117.86h3.63a1,1,0,0,0,.67-.27l1.78-1.79,4-4,1.73-1.74a.48.48,0,0,1,.67,0l1.73,1.74,4,4,1.78,1.79a1,1,0,0,0,.66.27Z"/><path class="cls-4" d="M236,127.39l.92-2.19a.15.15,0,0,0,0-.17,3.29,3.29,0,0,1-1.09-2.34s-.24-3.14,2.76-3.14h0c3,0,2.76,3.14,2.76,3.14A3.25,3.25,0,0,1,240.3,125a.15.15,0,0,0,0,.17l.92,2.19Z"/><path class="cls-5" d="M245.32,133.65v-4.5a2.83,2.83,0,0,0-2.14-2.65h-8.67a2.83,2.83,0,0,0-2.15,2.65v4.5Z"/><path class="cls-6" d="M235.83,120.79a10.36,10.36,0,0,0,2.78.46,7.37,7.37,0,0,0,2.79-.69s0-1.63-2.79-1.62S235.83,120.79,235.83,120.79Z"/><polygon class="cls-6" points="236.29 122.68 235.77 122.69 235.83 120.79 236.56 120.99 236.29 122.68"/><polygon class="cls-6" points="240.93 122.45 241.48 122.46 241.4 120.56 240.67 120.75 240.93 122.45"/><path class="cls-3" d="M256.91,117.86h-.8a.46.46,0,0,1-.37-.18.44.44,0,0,1-.08-.4l1.16-4.67a.48.48,0,0,1,.46-.36h23.57a.48.48,0,0,1,.46.36l1.16,4.67a.44.44,0,0,1-.08.4.46.46,0,0,1-.37.18Z"/><path class="cls-3" d="M281.39,117.86v15.89h-24.3V117.86h3.63a.94.94,0,0,0,.66-.27l1.78-1.79,4-4,1.73-1.74a.47.47,0,0,1,.66,0l1.73,1.74,4,4,1.78,1.79a.94.94,0,0,0,.66.27Z"/><path class="cls-4" d="M266.44,127.39l.92-2.19a.15.15,0,0,0,0-.17,3.25,3.25,0,0,1-1.09-2.34s-.25-3.14,2.76-3.14h0c3,0,2.76,3.14,2.76,3.14A3.29,3.29,0,0,1,270.7,125a.14.14,0,0,0,0,.17l.92,2.19Z"/><path class="cls-5" d="M275.72,133.65v-4.5a2.83,2.83,0,0,0-2.14-2.65H264.9a2.83,2.83,0,0,0-2.14,2.65v4.5Z"/><path class="cls-6" d="M266.22,120.79a10.38,10.38,0,0,0,2.79.46,7.36,7.36,0,0,0,2.78-.69s0-1.63-2.78-1.62S266.22,120.79,266.22,120.79Z"/><polygon class="cls-6" points="266.69 122.68 266.17 122.69 266.22 120.79 266.95 120.99 266.69 122.68"/><polygon class="cls-6" points="271.32 122.45 271.88 122.46 271.79 120.56 271.06 120.75 271.32 122.45"/><path class="cls-3" d="M287.31,117.4h-.81a.47.47,0,0,1-.36-.18.48.48,0,0,1-.09-.4l1.17-4.68a.46.46,0,0,1,.45-.35h23.58a.46.46,0,0,1,.45.35l1.17,4.68a.48.48,0,0,1-.09.4.47.47,0,0,1-.36.18Z"/><path class="cls-3" d="M311.79,117.4v15.89H287.48V117.4h3.64a.94.94,0,0,0,.66-.28l1.78-1.79,4-4,1.73-1.73a.47.47,0,0,1,.67,0l1.73,1.73,4,4,1.78,1.79a1,1,0,0,0,.67.28Z"/><path class="cls-4" d="M296.83,126.92l.92-2.19a.14.14,0,0,0,0-.17,3.29,3.29,0,0,1-1.09-2.34s-.24-3.13,2.76-3.13h0c3,0,2.76,3.13,2.76,3.13a3.25,3.25,0,0,1-1.09,2.34.17.17,0,0,0,0,.17l.92,2.19Z"/><path class="cls-5" d="M306.12,133.19v-4.51A2.81,2.81,0,0,0,304,126H295.3a2.81,2.81,0,0,0-2.15,2.64v4.51Z"/><path class="cls-6" d="M296.62,120.32a10.36,10.36,0,0,0,2.78.46,7.37,7.37,0,0,0,2.79-.69s0-1.63-2.79-1.62S296.62,120.32,296.62,120.32Z"/><polygon class="cls-6" points="297.08 122.22 296.56 122.22 296.62 120.32 297.35 120.52 297.08 122.22"/><polygon class="cls-6" points="301.72 121.98 302.27 121.99 302.19 120.09 301.46 120.29 301.72 121.98"/></g></g></svg>