<svg xmlns="http://www.w3.org/2000/svg" viewBox="0 0 324.88 148.59"><defs><style>.cls-1,.cls-2{fill:#fff;}.cls-1{opacity:0.4;}.cls-3{fill:#5867ad;}.cls-4{fill:#132b3b;}.cls-5{fill:#f18f7c;}.cls-6{fill:#ed751c;}</style></defs><title>Recurso 10</title><g id="Capa_2" data-name="Capa 2"><g id="Capa_1-2" data-name="Capa 1"><rect class="cls-1" x="88.15" y="-88.15" width="148.59" height="324.88" transform="translate(236.73 -88.15) rotate(90)"/><path class="cls-2" d="M71.82,117.86H71a.45.45,0,0,1-.37-.18.48.48,0,0,1-.09-.4l1.17-4.67a.47.47,0,0,1,.45-.36H95.76a.47.47,0,0,1,.45.36l1.17,4.67a.47.47,0,0,1-.08.4.46.46,0,0,1-.37.18Z"/><path class="cls-2" d="M96.3,117.86v15.89H72V117.86h3.63a1,1,0,0,0,.66-.27l1.78-1.79,4-4,1.73-1.74a.47.47,0,0,1,.66,0l1.73,1.74,4,4L92,117.59a1,1,0,0,0,.67.27Z"/><path class="cls-2" d="M17,24.4l2.85-.88a3.37,3.37,0,0,0,3.26,2.08c1.2,0,2-.55,2-1.18s-.4-.9-1.35-1.21l-3.24-1c-1.66-.52-2.9-1.67-2.88-3.33,0-2.07,1.94-3.76,4.66-3.76a5.83,5.83,0,0,1,5.57,3.31l-2.76.81a3.18,3.18,0,0,0-2.77-1.51c-1,0-1.68.47-1.68,1s.31.74.85.9l3.17,1c1.89.59,3.45,1.42,3.45,3.55s-2.05,4-5.16,4A6.08,6.08,0,0,1,17,24.4Z"/><path class="cls-2" d="M29.15,23.37a4.76,4.76,0,0,1,4.94-4.84,4.84,4.84,0,1,1,0,9.68A4.75,4.75,0,0,1,29.15,23.37Zm7.08,0a2.15,2.15,0,1,0-4.29,0,2.15,2.15,0,1,0,4.29,0Z"/><path class="cls-2" d="M40.64,14.82h2.88V28H40.64Z"/><path class="cls-2" d="M45.14,23.37a4.93,4.93,0,1,1,4.93,4.84A4.75,4.75,0,0,1,45.14,23.37Zm7.07,0a2.14,2.14,0,1,0-4.28,0,2.14,2.14,0,1,0,4.28,0Z"/><path class="cls-2" d="M60.4,23.39a4.66,4.66,0,0,1,4.86-4.86,4.54,4.54,0,0,1,4.81,4.75,5.11,5.11,0,0,1-.08,1H63.21c.18.86.81,1.58,2.28,1.58a1.9,1.9,0,0,0,1.84-.94l2.59.76a4.8,4.8,0,0,1-4.48,2.57A4.7,4.7,0,0,1,60.4,23.39Zm6.86-.88a1.88,1.88,0,0,0-2-1.57,2,2,0,0,0-2,1.57Z"/><path class="cls-2" d="M71.68,14.82h2.88V28H71.68Z"/><path class="cls-3" d="M45.7,79.78v9.6H12.49v-7.1L29.77,66.21c2.94-2.68,4.8-4.8,4.8-7.55,0-3.39-2.11-5.5-5.76-5.5s-6.21,2.69-7,6.65l-9.54-2.75c.9-7,7.17-13.37,16.32-13.37,9.79,0,16.58,5.05,16.58,14.33,0,5.63-2.82,9.6-8.07,14.34l-8.25,7.42Z"/><path class="cls-3" d="M82.12,44.58v7.23L65.74,89.38H54.47L70,54.18H49.23v-9.6Z"/><path class="cls-3" d="M82.38,79.27H92.94L87.5,98.15H79.56Z"/><path class="cls-3" d="M133,76.26c0,7.81-7,14-17.79,14s-17.79-6.21-17.79-14c0-5.44,2.81-9.21,7.42-11.33a9.85,9.85,0,0,1-5.5-9.15c0-6.59,6-12.09,15.87-12.09s15.87,5.5,15.87,12.09a9.86,9.86,0,0,1-5.51,9.15C130.12,67.05,133,70.82,133,76.26Zm-10.69-.9c0-3.45-2.62-6.14-7.1-6.14s-7.11,2.69-7.11,6.14,2.56,6.08,7.11,6.08S122.31,78.76,122.31,75.36ZM109.58,56.74c0,2.56,2,4.87,5.63,4.87s5.63-2.31,5.63-4.87-2.11-4.8-5.63-4.8S109.58,54.18,109.58,56.74Z"/><path class="cls-3" d="M137.16,57.19a13.07,13.07,0,0,1,13.44-13c7.61,0,13.44,5.69,13.44,13a13.45,13.45,0,0,1-26.88,0Zm19.2,0a5.76,5.76,0,1,0-5.76,5.7A5.57,5.57,0,0,0,156.36,57.19Zm23.36-12.61h7.93l-29,44.8h-8Zm-5.38,32.26a13.08,13.08,0,0,1,13.44-13.06c7.62,0,13.44,5.7,13.44,13.06a13.45,13.45,0,0,1-26.88,0Zm19.2,0a5.76,5.76,0,1,0-5.76,5.69A5.57,5.57,0,0,0,193.54,76.84Z"/><path class="cls-3" d="M230,29.11v11h-2v-.93a3,3,0,0,1-2.44,1.14,3.81,3.81,0,0,1-3.75-4,3.81,3.81,0,0,1,3.75-4A3,3,0,0,1,228,33.39V29.11ZM228,36.25A2.14,2.14,0,0,0,225.86,34a2.24,2.24,0,0,0,0,4.47A2.15,2.15,0,0,0,228,36.25Z"/><path class="cls-3" d="M231.44,36.27a3.85,3.85,0,0,1,4-4,3.7,3.7,0,0,1,3.91,3.9,4.23,4.23,0,0,1,0,.71h-5.9a2,2,0,0,0,2.21,1.72,1.93,1.93,0,0,0,1.84-1l1.79.52a3.91,3.91,0,0,1-3.66,2.16A3.87,3.87,0,0,1,231.44,36.27Zm6-.65a1.86,1.86,0,0,0-2-1.68,2,2,0,0,0-2,1.68Z"/><path class="cls-3" d="M244.52,29.11h2v11h-2Z"/><path class="cls-3" d="M248,36.27a4.06,4.06,0,1,1,4.06,4A3.94,3.94,0,0,1,248,36.27Zm6.19,0a2.13,2.13,0,1,0-2.13,2.2A2.1,2.1,0,0,0,254.18,36.27Z"/><path class="cls-3" d="M256.9,37.93l1.78-.52a2,2,0,0,0,2,1.26c.77,0,1.26-.36,1.26-.78s-.28-.59-.84-.75l-1.93-.57c-1.08-.32-1.88-1-1.88-2,0-1.27,1.38-2.28,3.05-2.28a3.47,3.47,0,0,1,3.36,1.92l-1.76.51a1.79,1.79,0,0,0-1.62-.88c-.61,0-1.08.33-1.08.69s.21.48.63.6l1.89.54c1.14.33,2.13.79,2.13,2.16s-1.35,2.47-3.28,2.47A3.76,3.76,0,0,1,256.9,37.93Z"/><path class="cls-3" d="M272.33,34.8a5.36,5.36,0,0,1,5.48-5.45,5.08,5.08,0,0,1,5.08,3.41l-2,.49a3.13,3.13,0,0,0-3.06-2,3.34,3.34,0,0,0-3.39,3.49,3.4,3.4,0,0,0,3.39,3.56,3.11,3.11,0,0,0,3.06-2l2,.51a5,5,0,0,1-5,3.37A5.38,5.38,0,0,1,272.33,34.8Z"/><path class="cls-3" d="M286.37,31.44v2.61h4.82v1.84h-4.82v4.17h-2.06V29.56H292v1.88Z"/><path class="cls-3" d="M301.67,31.42h-3.52v8.64h-2.06V31.42h-3.53V29.56h9.11Z"/><path class="cls-3" d="M221.77,53.27a3.84,3.84,0,0,1,4-4,3.71,3.71,0,0,1,3.92,3.9,3.4,3.4,0,0,1,0,.71h-5.89a2,2,0,0,0,2.2,1.72,1.94,1.94,0,0,0,1.85-1l1.78.52a4.14,4.14,0,0,1-7.78-1.84Zm5.95-.65a1.86,1.86,0,0,0-2-1.68,1.94,1.94,0,0,0-2,1.68Z"/><path class="cls-3" d="M234.85,46.56h2.08v10.5h-2.08Z"/><path class="cls-3" d="M247.45,50.21a3.61,3.61,0,0,1-3.74,3.64h-2.79v3.21h-2V46.56h4.92A3.63,3.63,0,0,1,247.45,50.21Zm-2,0a1.75,1.75,0,0,0-1.71-1.8h-2.82V52h2.73A1.77,1.77,0,0,0,245.45,50.22Z"/><path class="cls-3" d="M257.23,56.82a4.55,4.55,0,0,1-1.77.36c-1.74,0-2.54-1.08-2.54-2.71V51.21h-1.27V49.47h1.27V47h2v2.46h2.22v1.74h-2.22v3.26a.84.84,0,0,0,.93,1,1.86,1.86,0,0,0,.9-.21Z"/><path class="cls-3" d="M258.41,47.24a1.19,1.19,0,1,1,1.19,1.17A1.16,1.16,0,0,1,258.41,47.24Zm.17,2.23h2v7.59h-2Z"/><path class="cls-3" d="M262.09,53.27a3.84,3.84,0,0,1,4-4,3.71,3.71,0,0,1,3.92,3.9,3.4,3.4,0,0,1-.05.71H264a2,2,0,0,0,2.2,1.72,1.94,1.94,0,0,0,1.85-1l1.78.52a4.14,4.14,0,0,1-7.78-1.84Zm6-.65a1.86,1.86,0,0,0-2-1.68,1.94,1.94,0,0,0-2,1.68Z"/><path class="cls-3" d="M278.89,52.62v4.44h-2V53c0-1.16-.53-1.89-1.62-1.89s-1.83.87-1.83,2.2v3.75h-2V49.47h2v1a3,3,0,0,1,2.44-1.17C277.88,49.26,278.89,50.6,278.89,52.62Z"/><path class="cls-3" d="M280.3,53.27a3.84,3.84,0,0,1,4-4,3.71,3.71,0,0,1,3.92,3.9,3.4,3.4,0,0,1-.05.71h-5.89a2,2,0,0,0,2.2,1.72,1.94,1.94,0,0,0,1.85-1l1.78.52a4.14,4.14,0,0,1-7.78-1.84Zm5.95-.65a1.86,1.86,0,0,0-2-1.68,1.94,1.94,0,0,0-2,1.68Z"/><path class="cls-3" d="M292.91,53.27a3.81,3.81,0,0,1,3.75-4,3,3,0,0,1,2.45,1.13v-.92h2v7.59h-2v-.93a3,3,0,0,1-2.45,1.14A3.81,3.81,0,0,1,292.91,53.27Zm6.26,0A2.14,2.14,0,0,0,297,51a2.24,2.24,0,0,0,0,4.47A2.15,2.15,0,0,0,299.17,53.25Z"/><path class="cls-3" d="M229.57,66.47v7.59h-2v-1a3,3,0,0,1-2.43,1.17c-2,0-3-1.33-3-3.37V66.47h2v4c0,1.16.52,1.91,1.62,1.91s1.83-.87,1.83-2.22V66.47Z"/><path class="cls-3" d="M238.93,69.62v4.44h-2V70c0-1.16-.53-1.89-1.62-1.89s-1.83.87-1.83,2.2v3.75h-2V66.47h2v1a3,3,0,0,1,2.44-1.17C237.92,66.26,238.93,67.6,238.93,69.62Z"/><path class="cls-3" d="M240.34,70.27a3.81,3.81,0,0,1,3.75-4,3,3,0,0,1,2.44,1.13v-.92h2v7.59h-2v-.93a3,3,0,0,1-2.44,1.14A3.81,3.81,0,0,1,240.34,70.27Zm6.25,0A2.14,2.14,0,0,0,244.43,68a2.24,2.24,0,0,0,0,4.47A2.15,2.15,0,0,0,246.59,70.25Z"/><path class="cls-3" d="M266.24,69.55v4.51h-2V70c0-1.14-.42-1.86-1.45-1.86s-1.61.79-1.61,2.08v3.87h-2V70c0-1.13-.41-1.86-1.43-1.86s-1.63.81-1.63,2.14v3.81h-2V66.47h2v.9a2.75,2.75,0,0,1,2.25-1.11,2.55,2.55,0,0,1,2.28,1.14,3.15,3.15,0,0,1,2.56-1.14C265.06,66.26,266.24,67.43,266.24,69.55Z"/><path class="cls-3" d="M275.38,66.47v7.59h-2v-1A3,3,0,0,1,271,74.27c-2,0-3-1.33-3-3.37V66.47h2v4c0,1.16.52,1.91,1.62,1.91s1.83-.87,1.83-2.22V66.47Z"/><path class="cls-3" d="M277.33,66.47h2V74.3c0,1.91-.81,3.12-2.63,3.12a3.65,3.65,0,0,1-1.42-.33l.45-1.53a1.58,1.58,0,0,0,.67.18c.65,0,.95-.51.95-1.27Zm-.18-2.23a1.19,1.19,0,0,1,2.37,0,1.19,1.19,0,0,1-2.37,0Z"/><path class="cls-3" d="M280.82,70.27a3.85,3.85,0,0,1,4-4,3.7,3.7,0,0,1,3.91,3.9,4.23,4.23,0,0,1,0,.71h-5.9A2,2,0,0,0,285,72.59a1.93,1.93,0,0,0,1.84-1l1.79.52A3.91,3.91,0,0,1,285,74.27,3.87,3.87,0,0,1,280.82,70.27Zm6-.65a1.86,1.86,0,0,0-2-1.68,2,2,0,0,0-2,1.68Z"/><path class="cls-3" d="M294.7,66.37v1.86c-1.62-.26-2.51.49-2.51,2.53v3.3h-2V66.47h2V67.6A2.27,2.27,0,0,1,294.7,66.37Z"/><path class="cls-3" d="M230,80.11v11h-2v-.93a3,3,0,0,1-2.44,1.14,4,4,0,0,1,0-8A3,3,0,0,1,228,84.39V80.11ZM228,87.25A2.14,2.14,0,0,0,225.86,85a2.24,2.24,0,0,0,0,4.47A2.15,2.15,0,0,0,228,87.25Z"/><path class="cls-3" d="M231.44,87.27a3.85,3.85,0,0,1,4-4,3.7,3.7,0,0,1,3.91,3.9,4.23,4.23,0,0,1,0,.71h-5.9a2,2,0,0,0,2.21,1.72,1.93,1.93,0,0,0,1.84-1l1.79.52a3.91,3.91,0,0,1-3.66,2.16A3.87,3.87,0,0,1,231.44,87.27Zm6-.65a1.86,1.86,0,0,0-2-1.68,2,2,0,0,0-2,1.68Z"/><path class="cls-3" d="M249,83.37v1.86c-1.62-.26-2.51.49-2.51,2.53v3.3h-2V83.47h2V84.6A2.27,2.27,0,0,1,249,83.37Z"/><path class="cls-3" d="M249.41,87.27a3.85,3.85,0,0,1,4-4,3.7,3.7,0,0,1,3.91,3.9,4.23,4.23,0,0,1,0,.71h-5.9a2,2,0,0,0,2.21,1.72,1.93,1.93,0,0,0,1.84-1l1.79.52a3.91,3.91,0,0,1-3.66,2.16A3.87,3.87,0,0,1,249.41,87.27Zm6-.65a1.86,1.86,0,0,0-2-1.68,2,2,0,0,0-2,1.68Z"/><path class="cls-3" d="M258.34,87.25a3.92,3.92,0,0,1,4-4,3.71,3.71,0,0,1,3.7,2.49l-1.84.53A1.88,1.88,0,0,0,262.36,85a2.1,2.1,0,0,0-2.07,2.23,2.12,2.12,0,0,0,2.07,2.25,1.85,1.85,0,0,0,1.86-1.21l1.84.51a3.68,3.68,0,0,1-3.69,2.47A3.93,3.93,0,0,1,258.34,87.25Z"/><path class="cls-3" d="M272.32,90.82a4.55,4.55,0,0,1-1.77.36c-1.74,0-2.54-1.08-2.54-2.71V85.21h-1.27V83.47H268V81h2v2.46h2.22v1.74H270v3.26a.84.84,0,0,0,.93,1,1.86,1.86,0,0,0,.9-.21Z"/><path class="cls-3" d="M272.86,87.27a4.06,4.06,0,1,1,4.06,4A3.94,3.94,0,0,1,272.86,87.27Zm6.19,0a2.13,2.13,0,1,0-2.13,2.2A2.1,2.1,0,0,0,279.05,87.27Z"/><path class="cls-3" d="M287,83.37v1.86c-1.62-.26-2.51.49-2.51,2.53v3.3h-2V83.47h2V84.6A2.27,2.27,0,0,1,287,83.37Z"/><path class="cls-3" d="M287.36,87.27a3.81,3.81,0,0,1,3.75-4,3,3,0,0,1,2.45,1.13v-.92h2v7.59h-2v-.93a3,3,0,0,1-2.45,1.14A3.81,3.81,0,0,1,287.36,87.27Zm6.26,0A2.14,2.14,0,0,0,291.46,85a2.24,2.24,0,0,0,0,4.47A2.15,2.15,0,0,0,293.62,87.25Z"/><path class="cls-3" d="M297.2,90a1.23,1.23,0,0,1,2.45,0,1.23,1.23,0,1,1-2.45,0Z"/><path class="cls-2" d="M41.42,117.86h-.8a.46.46,0,0,1-.37-.18.44.44,0,0,1-.08-.4l1.17-4.67a.46.46,0,0,1,.45-.36H65.36a.47.47,0,0,1,.46.36L67,117.28a.48.48,0,0,1-.09.4.45.45,0,0,1-.37.18Z"/><path class="cls-2" d="M65.9,117.86v15.89H41.6V117.86h3.63a1,1,0,0,0,.67-.27l1.78-1.79,4-4,1.73-1.74a.47.47,0,0,1,.66,0l1.73,1.74,4,4,1.78,1.79a.94.94,0,0,0,.66.27Z"/><path class="cls-4" d="M83.71,117.39h0c-4.62-.21-4.34,6.78-4.34,6.78a7.79,7.79,0,0,0,1.75.89,13.31,13.31,0,0,0,2.61.49,13.46,13.46,0,0,0,2.62-.49,7.55,7.55,0,0,0,1.74-.89S88.34,117.18,83.71,117.39Z"/><path class="cls-5" d="M81.1,127.13l1-2.28a.15.15,0,0,0,0-.18,3.38,3.38,0,0,1-1.13-2.44S80.63,119,83.76,119h0c3.13,0,2.88,3.27,2.88,3.27a3.42,3.42,0,0,1-1.13,2.44.14.14,0,0,0,0,.18l.95,2.28Z"/><polygon class="cls-6" points="88.06 126.29 85.28 126.29 83.97 126.29 83.97 133.74 88.06 133.74 88.06 126.29"/><path class="cls-6" d="M90.78,129.05a2.94,2.94,0,0,0-2.23-2.76h-.49v7.45h2.72Z"/><path class="cls-4" d="M80.88,120.25a10.79,10.79,0,0,0,2.9.48,7.68,7.68,0,0,0,2.91-.72s-1.74-1.88-2.91-1.68S80.88,120.25,80.88,120.25Z"/><polygon class="cls-4" points="81.37 122.23 80.83 122.23 80.88 120.25 81.64 120.46 81.37 122.23"/><polygon class="cls-4" points="86.2 121.98 86.77 121.99 86.69 120.01 85.92 120.22 86.2 121.98"/><path class="cls-3" d="M84,126.29H80s-2.72.54-2.72,2.76v4.69h8.15v-7.45Z"/><path class="cls-2" d="M11,117.86h-.8a.45.45,0,0,1-.37-.18.48.48,0,0,1-.09-.4l1.17-4.67a.47.47,0,0,1,.45-.36H35a.47.47,0,0,1,.45.36l1.17,4.67a.48.48,0,0,1-.09.4.43.43,0,0,1-.36.18Z"/><path class="cls-2" d="M35.51,117.86v15.89H11.2V117.86h3.64a1,1,0,0,0,.66-.27l1.78-1.79,4-4L23,110.05a.48.48,0,0,1,.67,0l1.73,1.74,4,4,1.78,1.79a1,1,0,0,0,.67.27Z"/><path class="cls-4" d="M23.06,117.4h0c-4.63-.21-4.34,6.78-4.34,6.78a7.75,7.75,0,0,0,1.74.89,13.46,13.46,0,0,0,2.62.49,13.31,13.31,0,0,0,2.61-.49,7.79,7.79,0,0,0,1.75-.89S27.68,117.19,23.06,117.4Z"/><path class="cls-5" d="M20.45,127.14l.95-2.28a.15.15,0,0,0,0-.18,3.42,3.42,0,0,1-1.13-2.44S20,119,23.11,119h0c3.13,0,2.87,3.27,2.87,3.27a3.38,3.38,0,0,1-1.13,2.44.15.15,0,0,0,0,.18l.95,2.28Z"/><path class="cls-3" d="M22.12,126.3H18.85a3,3,0,0,0-2.24,2.76v4.69h6.7V126.3Z"/><polygon class="cls-3" points="27.4 126.3 24.62 126.3 23.31 126.3 23.31 133.75 27.4 133.75 27.4 126.3"/><path class="cls-3" d="M30.12,129.06a2.94,2.94,0,0,0-2.23-2.76H27.4v7.45h2.72Z"/><path class="cls-4" d="M20.22,120.26a10.81,10.81,0,0,0,2.91.48A7.67,7.67,0,0,0,26,120s-1.74-1.88-2.9-1.69S20.22,120.26,20.22,120.26Z"/><polygon class="cls-4" points="20.71 122.23 20.17 122.24 20.22 120.26 20.98 120.47 20.71 122.23"/><polygon class="cls-4" points="25.54 121.99 26.12 122 26.03 120.02 25.27 120.23 25.54 121.99"/><path class="cls-4" d="M53.33,117.4h0c-4.62-.21-4.34,6.78-4.34,6.78a7.79,7.79,0,0,0,1.75.89,13.48,13.48,0,0,0,2.61.49,13.46,13.46,0,0,0,2.62-.49,7.79,7.79,0,0,0,1.75-.89S58,117.19,53.33,117.4Z"/><path class="cls-5" d="M50.72,127.14l1-2.28a.15.15,0,0,0,0-.18,3.42,3.42,0,0,1-1.13-2.44S50.24,119,53.37,119h0c3.13,0,2.88,3.27,2.88,3.27a3.42,3.42,0,0,1-1.13,2.44.15.15,0,0,0,0,.18l1,2.28Z"/><path class="cls-3" d="M52.39,126.3H49.11a2.94,2.94,0,0,0-2.23,2.76v4.69h6.7V126.3Z"/><polygon class="cls-3" points="57.67 126.3 54.89 126.3 53.58 126.3 53.58 133.75 57.67 133.75 57.67 126.3"/><path class="cls-3" d="M60.39,129.06a2.94,2.94,0,0,0-2.23-2.76h-.49v7.45h2.72Z"/><path class="cls-4" d="M50.49,120.26a10.79,10.79,0,0,0,2.9.48A7.68,7.68,0,0,0,56.3,120s-1.74-1.88-2.91-1.69S50.49,120.26,50.49,120.26Z"/><polygon class="cls-4" points="50.98 122.23 50.44 122.24 50.49 120.26 51.25 120.47 50.98 122.23"/><polygon class="cls-4" points="55.81 121.99 56.38 122 56.3 120.02 55.54 120.23 55.81 121.99"/><path class="cls-2" d="M102.22,117.86h-.81a.46.46,0,0,1-.37-.18.47.47,0,0,1-.08-.4l1.17-4.67a.47.47,0,0,1,.45-.36h23.57a.47.47,0,0,1,.46.36l1.17,4.67a.48.48,0,0,1-.09.4.45.45,0,0,1-.37.18Z"/><path class="cls-2" d="M126.69,117.86v15.89h-24.3V117.86H106a1,1,0,0,0,.67-.27l1.78-1.79,4-4,1.73-1.74a.47.47,0,0,1,.66,0l1.73,1.74,4,4,1.78,1.79a1,1,0,0,0,.66.27Z"/><path class="cls-5" d="M111.74,127.39l.92-2.19a.15.15,0,0,0,0-.17,3.29,3.29,0,0,1-1.09-2.34s-.24-3.14,2.76-3.14h0c3,0,2.76,3.14,2.76,3.14A3.25,3.25,0,0,1,116,125a.15.15,0,0,0,0,.17l.92,2.19Z"/><path class="cls-6" d="M121,133.65v-4.5a2.83,2.83,0,0,0-2.14-2.65H110.2a2.83,2.83,0,0,0-2.14,2.65v4.5Z"/><path class="cls-4" d="M111.53,120.79a10.26,10.26,0,0,0,2.78.46,7.29,7.29,0,0,0,2.78-.69s0-1.63-2.78-1.62S111.53,120.79,111.53,120.79Z"/><polygon class="cls-4" points="111.99 122.68 111.47 122.69 111.53 120.79 112.26 120.99 111.99 122.68"/><polygon class="cls-4" points="116.63 122.45 117.18 122.46 117.09 120.56 116.36 120.75 116.63 122.45"/><path class="cls-2" d="M132.61,117.86h-.8a.45.45,0,0,1-.37-.18.48.48,0,0,1-.09-.4l1.17-4.67a.47.47,0,0,1,.46-.36h23.57a.46.46,0,0,1,.45.36l1.17,4.67a.44.44,0,0,1-.08.4.46.46,0,0,1-.37.18Z"/><path class="cls-2" d="M157.09,117.86v15.89h-24.3V117.86h3.63a.94.94,0,0,0,.66-.27l1.78-1.79,4-4,1.73-1.74a.47.47,0,0,1,.66,0l1.73,1.74,4,4,1.79,1.79a.94.94,0,0,0,.66.27Z"/><path class="cls-5" d="M142.14,127.39l.91-2.19a.15.15,0,0,0,0-.17,3.25,3.25,0,0,1-1.09-2.34s-.25-3.14,2.76-3.14h0c3,0,2.76,3.14,2.76,3.14A3.29,3.29,0,0,1,146.4,125a.14.14,0,0,0,0,.17l.92,2.19Z"/><path class="cls-6" d="M151.42,133.65v-4.5a2.83,2.83,0,0,0-2.14-2.65H140.6a2.83,2.83,0,0,0-2.14,2.65v4.5Z"/><path class="cls-4" d="M141.92,120.79a10.38,10.38,0,0,0,2.79.46,7.36,7.36,0,0,0,2.78-.69s0-1.63-2.78-1.62S141.92,120.79,141.92,120.79Z"/><polygon class="cls-4" points="142.39 122.68 141.87 122.69 141.92 120.79 142.65 120.99 142.39 122.68"/><polygon class="cls-4" points="147.02 122.45 147.57 122.46 147.49 120.56 146.76 120.75 147.02 122.45"/><path class="cls-2" d="M193.4,117.86h-.8a.46.46,0,0,1-.37-.18.44.44,0,0,1-.08-.4l1.16-4.67a.48.48,0,0,1,.46-.36h23.57a.48.48,0,0,1,.46.36l1.16,4.67a.44.44,0,0,1-.08.4.46.46,0,0,1-.37.18Z"/><path class="cls-2" d="M217.88,117.86v15.89h-24.3V117.86h3.63a.94.94,0,0,0,.66-.27l1.78-1.79,4-4,1.73-1.74a.47.47,0,0,1,.66,0l1.73,1.74,4,4,1.78,1.79a.94.94,0,0,0,.66.27Z"/><path class="cls-5" d="M202.93,127.39l.92-2.19a.15.15,0,0,0,0-.17,3.25,3.25,0,0,1-1.09-2.34s-.25-3.14,2.76-3.14h0c3,0,2.76,3.14,2.76,3.14a3.29,3.29,0,0,1-1.09,2.34.14.14,0,0,0,0,.17l.92,2.19Z"/><path class="cls-6" d="M212.21,133.65v-4.5a2.83,2.83,0,0,0-2.14-2.65h-8.68a2.83,2.83,0,0,0-2.14,2.65v4.5Z"/><path class="cls-4" d="M202.71,120.79a10.38,10.38,0,0,0,2.79.46,7.36,7.36,0,0,0,2.78-.69s0-1.63-2.78-1.62S202.71,120.79,202.71,120.79Z"/><polygon class="cls-4" points="203.18 122.68 202.66 122.69 202.71 120.79 203.44 120.99 203.18 122.68"/><polygon class="cls-4" points="207.81 122.45 208.37 122.46 208.28 120.56 207.55 120.75 207.81 122.45"/><path class="cls-2" d="M163,117.86h-.81a.43.43,0,0,1-.36-.18.48.48,0,0,1-.09-.4l1.17-4.67a.47.47,0,0,1,.45-.36H187a.47.47,0,0,1,.45.36l1.17,4.67a.48.48,0,0,1-.09.4.45.45,0,0,1-.37.18Z"/><path class="cls-2" d="M187.49,117.86v15.89H163.18V117.86h3.63a1,1,0,0,0,.67-.27l1.78-1.79,4-4,1.73-1.74a.48.48,0,0,1,.67,0l1.73,1.74,4,4,1.78,1.79a1,1,0,0,0,.66.27Z"/><path class="cls-5" d="M172.53,127.39l.92-2.19a.15.15,0,0,0,0-.17,3.29,3.29,0,0,1-1.09-2.34s-.24-3.14,2.76-3.14h0c3,0,2.76,3.14,2.76,3.14a3.25,3.25,0,0,1-1.09,2.34.15.15,0,0,0,0,.17l.92,2.19Z"/><path class="cls-6" d="M181.81,133.65v-4.5a2.83,2.83,0,0,0-2.14-2.65H171a2.83,2.83,0,0,0-2.15,2.65v4.5Z"/><path class="cls-4" d="M172.32,120.79a10.36,10.36,0,0,0,2.78.46,7.37,7.37,0,0,0,2.79-.69s0-1.63-2.79-1.62S172.32,120.79,172.32,120.79Z"/><polygon class="cls-4" points="172.78 122.68 172.26 122.69 172.32 120.79 173.05 120.99 172.78 122.68"/><polygon class="cls-4" points="177.42 122.45 177.97 122.46 177.89 120.56 177.16 120.75 177.42 122.45"/><path class="cls-2" d="M223.8,117.86H223a.43.43,0,0,1-.36-.18.48.48,0,0,1-.09-.4l1.17-4.67a.47.47,0,0,1,.45-.36h23.58a.47.47,0,0,1,.45.36l1.17,4.67a.48.48,0,0,1-.09.4.44.44,0,0,1-.36.18Z"/><path class="cls-2" d="M248.28,117.86v15.89H224V117.86h3.63a1,1,0,0,0,.67-.27l1.78-1.79,4-4,1.73-1.74a.48.48,0,0,1,.67,0l1.73,1.74,4,4,1.78,1.79a1,1,0,0,0,.67.27Z"/><path class="cls-5" d="M233.32,127.39l.92-2.19a.14.14,0,0,0,0-.17,3.29,3.29,0,0,1-1.09-2.34s-.24-3.14,2.76-3.14h0c3,0,2.76,3.14,2.76,3.14a3.25,3.25,0,0,1-1.09,2.34.17.17,0,0,0,0,.17l.92,2.19Z"/><path class="cls-6" d="M242.61,133.65v-4.5a2.83,2.83,0,0,0-2.15-2.65h-8.67a2.83,2.83,0,0,0-2.15,2.65v4.5Z"/><path class="cls-4" d="M233.11,120.79a10.36,10.36,0,0,0,2.78.46,7.37,7.37,0,0,0,2.79-.69s0-1.63-2.79-1.62S233.11,120.79,233.11,120.79Z"/><polygon class="cls-4" points="233.57 122.68 233.06 122.69 233.11 120.79 233.84 120.99 233.57 122.68"/><polygon class="cls-4" points="238.21 122.45 238.76 122.46 238.68 120.56 237.95 120.75 238.21 122.45"/><path class="cls-2" d="M254.19,117.86h-.8a.46.46,0,0,1-.37-.18.44.44,0,0,1-.08-.4l1.16-4.67a.48.48,0,0,1,.46-.36h23.57a.48.48,0,0,1,.46.36l1.16,4.67a.44.44,0,0,1-.08.4.46.46,0,0,1-.37.18Z"/><path class="cls-2" d="M278.67,117.86v15.89h-24.3V117.86H258a.94.94,0,0,0,.66-.27l1.78-1.79,4-4,1.73-1.74a.47.47,0,0,1,.66,0l1.73,1.74,4,4,1.78,1.79a.94.94,0,0,0,.66.27Z"/><path class="cls-5" d="M263.72,127.39l.92-2.19a.15.15,0,0,0,0-.17,3.25,3.25,0,0,1-1.09-2.34s-.24-3.14,2.76-3.14h0c3,0,2.76,3.14,2.76,3.14A3.29,3.29,0,0,1,268,125a.15.15,0,0,0,0,.17l.92,2.19Z"/><path class="cls-6" d="M273,133.65v-4.5a2.83,2.83,0,0,0-2.14-2.65h-8.68a2.83,2.83,0,0,0-2.14,2.65v4.5Z"/><path class="cls-4" d="M263.5,120.79a10.38,10.38,0,0,0,2.79.46,7.36,7.36,0,0,0,2.78-.69s0-1.63-2.78-1.62S263.5,120.79,263.5,120.79Z"/><polygon class="cls-4" points="263.97 122.68 263.45 122.69 263.5 120.79 264.23 120.99 263.97 122.68"/><polygon class="cls-4" points="268.61 122.45 269.16 122.46 269.07 120.56 268.34 120.75 268.61 122.45"/><path class="cls-2" d="M284.59,117.4h-.8a.47.47,0,0,1-.37-.18.48.48,0,0,1-.09-.4l1.17-4.68a.46.46,0,0,1,.45-.35h23.58a.46.46,0,0,1,.45.35l1.17,4.68a.48.48,0,0,1-.09.4.45.45,0,0,1-.36.18Z"/><path class="cls-2" d="M309.07,117.4v15.89H284.76V117.4h3.64a.92.92,0,0,0,.66-.28l1.78-1.79,4-4,1.72-1.73a.47.47,0,0,1,.67,0l1.73,1.73,4,4,1.78,1.79a1,1,0,0,0,.67.28Z"/><path class="cls-5" d="M294.11,126.92l.92-2.19a.14.14,0,0,0,0-.17,3.29,3.29,0,0,1-1.09-2.34s-.24-3.13,2.76-3.13h0c3,0,2.76,3.13,2.76,3.13a3.25,3.25,0,0,1-1.09,2.34.15.15,0,0,0,0,.17l.91,2.19Z"/><path class="cls-6" d="M303.4,133.19v-4.51a2.81,2.81,0,0,0-2.14-2.64h-8.68a2.81,2.81,0,0,0-2.14,2.64v4.51Z"/><path class="cls-4" d="M293.9,120.32a10.36,10.36,0,0,0,2.78.46,7.37,7.37,0,0,0,2.79-.69s0-1.63-2.79-1.62S293.9,120.32,293.9,120.32Z"/><polygon class="cls-4" points="294.37 122.22 293.85 122.22 293.9 120.32 294.63 120.52 294.37 122.22"/><polygon class="cls-4" points="299 121.98 299.55 121.99 299.47 120.09 298.74 120.29 299 121.98"/></g></g></svg>