<svg xmlns="http://www.w3.org/2000/svg" viewBox="0 0 302.46 61.14"><defs><style>.cls-1{fill:#2f438d;}.cls-2{fill:#81b67b;}.cls-3{font-size:37.46px;font-family:Gilmer-Bold, Gilmer Bold;font-weight:700;}.cls-3,.cls-6{fill:#fff;}.cls-4{fill:#e5bf47;}.cls-5{fill:#cf6466;}.cls-7{fill:none;}</style></defs><title>Recurso 7</title><g id="Capa_2" data-name="Capa 2"><g id="Capa_1-2" data-name="Capa 1"><polygon class="cls-1" points="158.94 13.72 140.46 27.15 147.52 48.88 170.37 48.88 177.43 27.15 158.94 13.72"/><polygon class="cls-2" points="302.46 49.44 270.07 49.44 270.07 13.94 302.46 13.49 302.46 49.44"/><text class="cls-3" transform="matrix(1, 0, 0, 1, 275.81, 45.18)">=</text><circle class="cls-4" cx="199.23" cy="31.76" r="17.21"/><polygon class="cls-5" points="252.23 13.78 232 13.78 221.88 31.3 232 48.83 252.23 48.83 262.35 31.3 252.23 13.78"/><text class="cls-3" transform="matrix(1, 0, 0, 1, 148.28, 45.07)">=</text><text class="cls-3" transform="matrix(1, 0, 0, 1, 188.41, 45.07)">=</text><text class="cls-3" transform="matrix(1, 0, 0, 1, 231.32, 45.07)">=</text><path class="cls-6" d="M32.76,56.86a2.33,2.33,0,0,1-1.08.27c-.86,0-1.27-.61-1.27-1.52s.44-1.48,1.34-1.48a1.63,1.63,0,0,1,1,.26l-.24.42a1.37,1.37,0,0,0-.71-.18c-.51,0-.75.39-.75,1s.25,1,.74,1a1.31,1.31,0,0,0,.5-.1V56h-.4l0-.42h.95Z"/><path class="cls-6" d="M35.1,56c0,.72-.36,1.1-1,1.1s-1-.38-1-1.1a1,1,0,0,1,1-1.08,1,1,0,0,1,1,1.08m-.58,0c0-.5-.15-.68-.41-.68s-.4.18-.4.68.13.69.4.69.41-.19.41-.69"/><path class="cls-6" d="M36,55.2a.78.78,0,0,1,.56-.25c.49,0,.84.35.84,1.08s-.42,1.1-.91,1.1a.7.7,0,0,1-.61-.3l-.1.25h-.3V54.13h.56v.74Zm0,1.3a.5.5,0,0,0,.38.22c.24,0,.43-.18.43-.69s-.16-.67-.42-.67a.62.62,0,0,0-.39.16Z"/><path class="cls-6" d="M38,57.08V55.4l-.24,0V55h.8v2.09Zm0-2.95h.57v.51H38Z"/><path class="cls-6" d="M39.57,56.19a.47.47,0,0,0,.54.51,1.4,1.4,0,0,0,.61-.18l.11.4a1.69,1.69,0,0,1-.78.21A1,1,0,0,1,39,56c0-.64.31-1.08,1-1.08s.88.47.88,1v.25Zm.39-.83c-.27,0-.39.25-.39.5h.77c0-.27-.09-.5-.38-.5"/><path class="cls-6" d="M42.49,55.46a.68.68,0,0,0-.26,0,.65.65,0,0,0-.38.14v1.52h-.56V55h.39c0,.1,0,.19.06.28h0a.55.55,0,0,1,.5-.32,1.09,1.09,0,0,1,.24,0c0,.16,0,.32,0,.48"/><path class="cls-6" d="M44.13,57.08V55.84c0-.32-.12-.47-.38-.47a.71.71,0,0,0-.37.13v1.58h-.56V55h.39l.08.24A.88.88,0,0,1,44,55c.53,0,.73.31.73.84v1.29Z"/><path class="cls-6" d="M47,56c0,.72-.35,1.1-1,1.1s-1-.38-1-1.1a1,1,0,1,1,2,0m-.57,0c0-.5-.15-.68-.41-.68s-.4.18-.4.68.13.69.4.69.41-.19.41-.69"/><path class="cls-6" d="M49.75,55.15a1.4,1.4,0,0,1,0-.38v-.64h.56v2.95H49.8l-.06-.23a.69.69,0,0,1-.56.28c-.47,0-.85-.34-.85-1.09s.39-1.09.9-1.09a.66.66,0,0,1,.52.2m0,.32a.78.78,0,0,0-.38-.1c-.27,0-.43.18-.43.66s.16.69.42.69a.57.57,0,0,0,.39-.18Z"/><path class="cls-6" d="M51.24,56.19a.47.47,0,0,0,.54.51,1.48,1.48,0,0,0,.62-.18l.1.4a1.69,1.69,0,0,1-.78.21,1,1,0,0,1-1-1.1c0-.64.31-1.08,1-1.08s.88.47.88,1v.25Zm.39-.83c-.27,0-.39.25-.39.5H52c0-.27-.09-.5-.38-.5"/><path class="cls-6" d="M55.09,57.13c-.81,0-1.24-.55-1.24-1.51s.42-1.49,1.24-1.49a1.78,1.78,0,0,1,1,.25l-.21.44a1.25,1.25,0,0,0-.71-.19c-.48,0-.72.35-.72,1s.24,1,.71,1a1.3,1.3,0,0,0,.76-.27l.18.45a1.67,1.67,0,0,1-1,.31"/><path class="cls-6" d="M56.47,57.08V54.13H57v.78a1.11,1.11,0,0,1-.06.32.75.75,0,0,1,.6-.28c.6,0,.77.31.77.84v1.29h-.57V55.84a.23.23,0,0,0,0-.13c0-.23-.14-.34-.34-.34a.71.71,0,0,0-.37.13v1.58Z"/><path class="cls-6" d="M59,57.08V55.4l-.24,0V55h.79v2.09Zm0-2.95h.56v.51H59Z"/><path class="cls-6" d="M60,56.53v-2.4h.55V56.5c0,.17.11.2.34.2v.39a1.49,1.49,0,0,1-.31,0c-.42,0-.58-.23-.58-.6"/><path class="cls-6" d="M61.77,56.19a.47.47,0,0,0,.54.51,1.44,1.44,0,0,0,.61-.18l.1.4a1.69,1.69,0,0,1-.78.21,1,1,0,0,1-1-1.1c0-.64.31-1.08,1-1.08a.87.87,0,0,1,.89,1v.25Zm.39-.83c-.28,0-.39.25-.39.5h.76c0-.27-.08-.5-.37-.5"/><path class="cls-6" d="M75.69,23.71c-2.22,0-3.41-1.48-3.41-4.1,0-2.45,1.18-4,3.41-4a5,5,0,0,1,2.69.67l-.59,1.24A3.26,3.26,0,0,0,75.86,17c-1.31,0-2,.92-2,2.65s.66,2.75,1.94,2.75a3.72,3.72,0,0,0,2.08-.72l.49,1.24A4.71,4.71,0,0,1,75.69,23.71Z"/><path class="cls-6" d="M83.75,23.59V20.32H80.83v3.27H79.29V15.71h1.54v3.22h2.92V15.71H85.3v7.88Z"/><path class="cls-6" d="M86.78,23.59V15.71h1.53v7.88Z"/><path class="cls-6" d="M89.84,23.59V15.71h1.53V22.3h3.31v1.29Z"/><path class="cls-6" d="M95.35,23.59V15.71h4.84V17H96.88v1.93h2.53l-.12,1.36H96.88v2h3.31v1.27Z"/><path class="cls-6" d="M103.59,23.59V15.71h1.53V22.3h3.31v1.29Z"/><path class="cls-6" d="M111.49,23.71c-2.6,0-3.35-2-3.35-4.12s.73-4,3.35-4,3.38,1.91,3.38,4S114.1,23.71,111.49,23.71Zm0-6.8c-1.37,0-1.74,1.25-1.74,2.66,0,1.57.35,2.85,1.74,2.85s1.75-1.26,1.75-2.85C113.24,18.14,112.87,16.91,111.49,16.91Z"/><path class="cls-6" d="M77,34.46V31.2H74.08v3.26H72.54V26.59h1.54v3.22H77V26.59h1.55v7.87Z"/><path class="cls-6" d="M80.74,34.46h-1.5l2.14-7.87h2.54L86,34.46H84.27l-.41-1.77h-2.7Zm1.56-6.53-.86,3.52h2.14l-.8-3.52Z"/><path class="cls-6" d="M89.59,34.58c-2.21,0-3.4-1.47-3.4-4.1,0-2.45,1.18-4,3.4-4a5,5,0,0,1,2.69.66l-.58,1.24a3.34,3.34,0,0,0-1.94-.55c-1.31,0-2,.92-2,2.65s.65,2.76,1.93,2.76a3.6,3.6,0,0,0,2.08-.73l.49,1.24A4.64,4.64,0,0,1,89.59,34.58Z"/><path class="cls-6" d="M93.19,34.46V26.59H98v1.29H94.72v1.94h2.53l-.11,1.35H94.72v2H98v1.27Z"/><path class="cls-6" d="M105.89,34.46l-.16-6.65h0c-.14.84-.28,1.45-.39,1.9l-1.12,4.75h-2.25l-1.07-4.75c-.11-.45-.25-1.06-.4-1.9h0l-.1,6.65H98.9l.3-7.87h2.63s.86,4,1.32,6.51h0c.53-2.53,1.55-6.51,1.55-6.51h2.58l.31,7.87Z"/><path class="cls-6" d="M111.88,34.58c-2.6,0-3.35-2-3.35-4.12s.72-4,3.35-4,3.37,1.9,3.37,4S114.48,34.58,111.88,34.58Zm0-6.79c-1.38,0-1.74,1.25-1.74,2.66s.35,2.85,1.74,2.85,1.75-1.26,1.75-2.85C113.63,29,113.26,27.79,111.88,27.79Z"/><path class="cls-6" d="M118.33,34.58a4.28,4.28,0,0,1-2.56-.84l.58-1.2a3.34,3.34,0,0,0,2,.76,1.09,1.09,0,0,0,1.21-1c0-1.67-3.64-.84-3.64-3.62,0-1.19.93-2.17,2.78-2.17a4.93,4.93,0,0,1,2.34.54l-.51,1.22a3.82,3.82,0,0,0-1.86-.43c-.71,0-1.18.23-1.18.82,0,1.41,3.67.86,3.67,3.55A2.57,2.57,0,0,1,118.33,34.58Z"/><path class="cls-6" d="M75.44,38.76v6.58H73.85V38.76H72v-1.3H77.4v1.3Z"/><path class="cls-6" d="M80.44,45.46c-2.6,0-3.35-2-3.35-4.12s.73-4,3.35-4,3.38,1.91,3.38,4S83.05,45.46,80.44,45.46Zm0-6.8c-1.37,0-1.74,1.25-1.74,2.67s.35,2.84,1.74,2.84,1.75-1.26,1.75-2.84S81.82,38.66,80.44,38.66Z"/><path class="cls-6" d="M87.66,45.46a9.79,9.79,0,0,1-2.8-.42V37.46h2.62c2.29,0,3.74.94,3.74,3.87C91.22,43.88,90.11,45.46,87.66,45.46Zm-.24-6.76h-1V44a5.41,5.41,0,0,0,1.36.16c1,0,1.85-.59,1.85-2.86C89.59,39.41,89,38.7,87.42,38.7Z"/><path class="cls-6" d="M95.45,45.46c-2.6,0-3.35-2-3.35-4.12s.73-4,3.35-4,3.38,1.91,3.38,4S98.06,45.46,95.45,45.46Zm0-6.8c-1.37,0-1.73,1.25-1.73,2.67s.35,2.84,1.73,2.84,1.76-1.26,1.76-2.84S96.83,38.66,95.45,38.66Z"/><path class="cls-6" d="M101.91,45.46a4.38,4.38,0,0,1-2.57-.84l.59-1.21a3.33,3.33,0,0,0,2,.76,1.09,1.09,0,0,0,1.22-1c0-1.66-3.64-.84-3.64-3.61,0-1.19.93-2.18,2.77-2.18a4.94,4.94,0,0,1,2.35.54l-.51,1.23a3.87,3.87,0,0,0-1.86-.43c-.71,0-1.18.23-1.18.81,0,1.42,3.67.87,3.67,3.55A2.57,2.57,0,0,1,101.91,45.46Z"/><path class="cls-6" d="M66,0H0V61.14H67V0ZM1,1H27.13V60.09H1ZM66,60.09H28.17V1H66Z"/><path class="cls-6" d="M14.9,9.14A.27.27,0,0,0,15,8.78c0-.09-.17-.1-.11-.11.66-.16,1-1.13,1-1.5a1.34,1.34,0,0,0,1.67-.07,1.2,1.2,0,0,0-.08-1.72,1.1,1.1,0,0,0-1.23,0,.6.6,0,0,0-.51-.32,1.2,1.2,0,0,0-.25-.79,1.28,1.28,0,0,0-1.61,0,1.13,1.13,0,0,0-1.5,1.19,1.91,1.91,0,0,0-1-.16,1.16,1.16,0,0,0-.66.37,1.94,1.94,0,0,0-.15.24,1,1,0,0,0-.11.57,1,1,0,0,0,.49.84,1.7,1.7,0,0,0,1,.15.81.81,0,0,0,.42-.23s.08-.12.14-.12a.82.82,0,0,0,.53.84s0,0,0,.09a.78.78,0,0,0,.66.66c-.21.12-.12.3-.07.4A2.14,2.14,0,0,1,14.27,9,2.18,2.18,0,0,1,14.9,9.14Z"/><polygon class="cls-7" points="14.2 9.84 13.78 11.23 12.28 11.23 12.28 11.23 13.5 12.1 13.03 13.48 14.2 12.59 15.37 13.48 14.9 12.1 16.12 11.23 16.12 11.23 14.62 11.23 14.2 9.84"/><path class="cls-6" d="M16.48,11.24A2.09,2.09,0,0,1,17,10,.15.15,0,0,0,17,9.85a.14.14,0,0,0-.07-.11c-.13-.1-.43-.28-.43-.28l0,0h0s-.06,0-.1.05a.82.82,0,0,1-.51.18H15.7a1.73,1.73,0,0,1-.38-.14l-.22-.1h0a2,2,0,0,0-1.63,0h0l-.09.05-.24.11a1.29,1.29,0,0,1-.26.08H12.7a.8.8,0,0,1-.51-.18.19.19,0,0,0-.1-.05h0s-.31.19-.43.28a.17.17,0,0,0-.08.12.15.15,0,0,0,.05.14,2.09,2.09,0,0,1,.47,1.26,1.76,1.76,0,0,1-.31,1.12,1.32,1.32,0,0,0,1.29,2c.08,0,.77,0,1,.45,0,0,.13.2.17.29l0,.1.06-.1a2,2,0,0,1,.17-.29c.23-.44.93-.45,1-.45a1.41,1.41,0,0,0,1.26-.59,1.38,1.38,0,0,0,0-1.39A1.93,1.93,0,0,1,16.48,11.24Zm-.36,0-1.22.87.47,1.38-1.17-.89L13,13.48l.47-1.38-1.22-.87h1.5l.42-1.39.42,1.39Z"/><path class="cls-7" d="M10.13,17.94a1.59,1.59,0,0,0,1.62.31c.16,0,.24-.5.28-.86a14.11,14.11,0,0,1-1.67-.32A3.85,3.85,0,0,0,10.13,17.94Z"/><path class="cls-7" d="M10,15.06s0,0-.07,0-.14.06-.24,0a8.37,8.37,0,0,1-.81-.58,1.84,1.84,0,0,1-.49-.38c-.08-.1,0-.23,0-.36A.5.5,0,0,0,8,13.38a1.57,1.57,0,0,1-1.25,1.16,3.05,3.05,0,0,0,.19,1.58.54.54,0,0,1,.23.11,1,1,0,0,1,.06-.31.74.74,0,0,1,.86-.36.38.38,0,0,1,.26.25.34.34,0,0,1-.27.45.21.21,0,0,1-.25-.19c0-.19.25-.2.25-.2-.24-.41-1,.26-.49.84a.07.07,0,0,0,.1,0,6.05,6.05,0,0,0,1.67-1,6.13,6.13,0,0,1,.71-.56Z"/><path class="cls-7" d="M16.76,9.33l.08.06Z"/><path class="cls-7" d="M17.22,9.68l-.15-.11.15.11Z"/><path class="cls-7" d="M16.89,9.43l.15.12Z"/><path class="cls-7" d="M9.85,17.7a1.76,1.76,0,0,0,.1-.31,3.35,3.35,0,0,1,.14-.38c-.16,0-.31-.1-.46-.15A2,2,0,0,0,9.85,17.7Z"/><path class="cls-7" d="M16.63,17.39c0,.36.12.83.27.86a1.59,1.59,0,0,0,1.62-.31,3.52,3.52,0,0,0-.22-.87A14.94,14.94,0,0,1,16.63,17.39Z"/><path class="cls-7" d="M18.7,17.39a1.3,1.3,0,0,0,.11.31,2,2,0,0,0,.21-.83l-.45.14A2.12,2.12,0,0,1,18.7,17.39Z"/><path class="cls-7" d="M11.55,16.07a1.12,1.12,0,0,0-.75.31c.36.08.79.16,1.25.22A.54.54,0,0,0,11.55,16.07Z"/><path class="cls-7" d="M18.1,16.32c.29-.07.55-.15.75-.21a1.05,1.05,0,0,0-.15-.24,2,2,0,0,0-2.28-.44s.07.25.47.34A2.13,2.13,0,0,1,18.1,16.32Z"/><path class="cls-7" d="M17.11,16.07s-.43,0-.51.53c.47-.06.89-.14,1.25-.22A1.09,1.09,0,0,0,17.11,16.07Z"/><path class="cls-7" d="M13,15.73a.36.36,0,0,0-.25-.15c-.21,0-.26.49-.32,1.07a13.26,13.26,0,0,0,1.48.1C13.68,16.29,13.19,16,13,15.73Z"/><path class="cls-7" d="M10,15.87a1.58,1.58,0,0,0-.15.24l.76.21a2.09,2.09,0,0,1,1.2-.55c.4-.09.5-.33.47-.34A2,2,0,0,0,10,15.87Z"/><path class="cls-7" d="M15.91,15.58a.37.37,0,0,0-.26.15c-.18.25-.68.56-.91,1,.53,0,1,0,1.48-.09C16.16,16.07,16.12,15.58,15.91,15.58Z"/><path class="cls-6" d="M24.62,17c-.15-.19-.56-.09-.56-.09a.6.6,0,0,0-.38-.82.51.51,0,0,0-.44,0h0l-.05,0a.3.3,0,0,0-.08.21.31.31,0,0,0,.31.31.37.37,0,0,0,.18,0,.35.35,0,0,0,.12-.19.3.3,0,0,1,.11.15c.18.55-.44.75-.44.75a2.43,2.43,0,0,1-2.21-.3l.24-.13a.68.68,0,0,1,.22-.05s0,0,0,.05a.28.28,0,0,0,.28.26.27.27,0,0,0,.27-.26.22.22,0,0,0-.06-.17c-.16-.24-.71-.08-.71-.08a1,1,0,0,0,0-.78.74.74,0,0,0-.86-.36.36.36,0,0,0-.25.25c-.09.41.26.45.26.45.25,0,.25-.19.25-.19,0-.19-.24-.2-.24-.2.23-.41,1,.26.48.84a.07.07,0,0,1-.1,0,9.49,9.49,0,0,1-1.48-.85c0-.23-.22-.35-.18-.41s.15,0,.22-.06a6.53,6.53,0,0,0,.12-.66,2.47,2.47,0,0,0,1.53.2.18.18,0,0,0,.12-.18c0-.28-.73-2-.75-2.57.35.18.57-.37.63-.53.47.21.64,4.6,1,4.74.18.08.25-.22.27-.28A14.16,14.16,0,0,0,23,11.64a12.39,12.39,0,0,0-.38-2.72c-.15-.5-.44-1.54-1.11-1.68a.47.47,0,0,0-.54.49c0,.22.16.33.09.56a1.82,1.82,0,0,0-.21.47c0,.16.11.22.06.4-.21,0-.32.15-.65.07.22-.1.22-.72-.05-.83,0,0-.08,0-.09-.06a.73.73,0,0,0,.13-.18.83.83,0,0,0,0-.79c.11,0,.23-.2.24-.36h0V7h0a1,1,0,0,1,.06-.31.1.1,0,0,0,0-.12.09.09,0,0,0-.11,0c-.07.13-.23.06-.16-.08a.08.08,0,0,0,0-.11.07.07,0,0,0-.1,0c-.07.13-.22.06-.16-.08a.09.09,0,0,0,0-.11.09.09,0,0,0-.11,0c-.07.14-.23.07-.16-.07a.08.08,0,0,0,0-.11.07.07,0,0,0-.1,0,.63.63,0,0,1-.2.26c-.14,0-.1.2-.09.31a.4.4,0,0,0-.49.34h0c-.23,0-.45.13-.43.34a.37.37,0,0,0,.2.27s0-.13.11-.14.27.09.29.19-.08.4.3.44a.84.84,0,0,0,0,.12,1,1,0,0,0-.3,0,.79.79,0,0,0-.64.4.5.5,0,0,0,0,.18,1,1,0,0,1,.05.16.44.44,0,0,1-.08.11.73.73,0,0,1-.44.21.55.55,0,0,1-.42-.2c-.24-.32.07-.87.06-1.08,0-.55-.7-.22-1-.08a2.68,2.68,0,0,0-.81.72,2.11,2.11,0,0,0-.32.5.08.08,0,0,1-.07,0,2,2,0,0,0,.58.16.94.94,0,0,0,.66-.18.17.17,0,0,1,.09,0,.15.15,0,0,1,.11,0l.08.07.08.06.05,0,.15.12,0,0,.15.11h0l.14.11h0s0,0,0,0a.13.13,0,0,1,0,.07l-.07.09a2.76,2.76,0,0,0-.37.62.85.85,0,0,0,.66.49.34.34,0,0,0,.39-.28l0,0s.16.72.34.92c-.17.08-.43.34-.29,1.08-.14-.12-.39-.31-.51-.44a.79.79,0,0,0-.64-.54,3.55,3.55,0,0,0,.28.62,1.69,1.69,0,0,1,.18,1c.17-.18.15-.67.15-.67h0s.2.33.5.4a4,4,0,0,0,1.26,1.36c0,.16,0,.55-.09.55-.34.07-.65-.15-.94-.14l-.05,0c-1.27-.61-2.94.7-3.22,1s-.31,0-.31,0a.39.39,0,0,0-.36-.17.38.38,0,0,0-.36.17s-.17.18-.32,0-1.78-1.41-3-1c0-.07-.17-.1-.21-.12a1.42,1.42,0,0,1-.25-.13,1.67,1.67,0,0,0-.51-.05.62.62,0,0,1-.19-.07,1.75,1.75,0,0,1-.55-.45L8.84,14a.71.71,0,0,1-.14-.26,2,2,0,0,1,.07-.76c0-.18,0-.19,0-.39a2.35,2.35,0,0,0,1.29-1.17.88.88,0,0,0,.07-.12h.1c.32,0,.53-.17.87-.13,0,0,0,.17.27.26a1.34,1.34,0,0,0,.11.58l.06.09a2.26,2.26,0,0,0,.19-.82.15.15,0,0,1,0-.07.72.72,0,0,0-.42-.58c-.08-.05-.17-.06-.25-.12a.87.87,0,0,1-.33-.33l.08-.09a1.93,1.93,0,0,0,.41-.94c.17-.23.63-.14.81-.11l.16.05c.05,0,.06.12.13.15a.53.53,0,0,0,.25,0,.83.83,0,0,1,.07.13l.07.1a1.79,1.79,0,0,0,.64-.19l0,0a.7.7,0,0,0-.38-.29c-.17,0-.21-.18-.38-.22a.64.64,0,0,0-.24,0,4,4,0,0,1-1-.12c-.33,0-.34.2-.46.39a.75.75,0,0,1-.15.2c-.09.09-.19.09-.3.17l0-.13a1.06,1.06,0,0,0-.15-.35,1.2,1.2,0,0,0-.77-.58.37.37,0,0,1-.14-.08c-.06,0,0-.11,0-.11s.31,0,.43-.1c.32-.15.21-.42.08-.44a2.62,2.62,0,0,1-.5-.14c-.07,0-.2-.28-.33-.34s-.09-.27-.22-.32a.49.49,0,0,0-.22.07c0-.05,0-.31-.18-.39s-.15,0-.14.1.15.13.18.37L8.35,7a.49.49,0,0,0-.16-.32c-.11-.06-.15,0-.14.09s.13.12.17.33l-.09.08c-.21-.06-.26-.2-.32-.21s-.15,0-.1.13.21.17.3.2L8,7.32c-.24-.05-.3-.21-.36-.23s-.15,0-.1.13.35.22.37.22a.28.28,0,0,0-.05.18c-.19,0-.53.08-.47.3.06,0,.29-.14.5,0s.35.22.4.26.09.17.13.27a2.43,2.43,0,0,0,.29.49c.12.18.24.36.37.52a.61.61,0,0,1,0,.15,4.11,4.11,0,0,1-.74.65c-.17.16-1.81,1.41-2,2a1.17,1.17,0,0,0-.06.44c-.1,0-.32.14-.39,0s.12-.31.06-.48a.13.13,0,0,0-.18-.07.55.55,0,0,0,.06.93c.29.12.33-.18.55-.06,0,0,.57.5.48.86a.24.24,0,0,1,0,.09c-.12.14-.31.25-.44.38s.26,1.26.22,1.81c0,.21.17.19.3.52a.36.36,0,0,0-.32.13.25.25,0,0,0,0,.17A.27.27,0,0,0,7,17a.09.09,0,0,0,0-.05.68.68,0,0,1,.22.05l.24.13a2.43,2.43,0,0,1-2.21.3s-.62-.2-.44-.75a.3.3,0,0,1,.11-.15.31.31,0,0,0,.13.19.34.34,0,0,0,.17,0,.31.31,0,0,0,.23-.52s0,0,0,0h0a.54.54,0,0,0-.45,0,.6.6,0,0,0-.38.82s-.4-.1-.56.09a.21.21,0,0,0,0,.15H4a.24.24,0,0,0,0,.13.23.23,0,0,0,.19.1.21.21,0,0,0,.18-.09h0s.07-.05.14,0a2.48,2.48,0,0,0,3.21-.08,4.8,4.8,0,0,1,1-.74c.2.09.41.15.61.22A2,2,0,0,0,9.7,18a.45.45,0,0,1-.63.19.33.33,0,0,1,0-.49s.17-.14.24,0a.15.15,0,0,0-.15.15.16.16,0,0,0,.15.16.15.15,0,0,0,.16-.15.37.37,0,0,0-.13-.34.39.39,0,0,0-.36-.1c-.34,0-.54.77.14,1.07,0,0,.54.24.81-.15,0,0,0-.06.1,0a2.12,2.12,0,0,0,2.33,0,2.37,2.37,0,0,1,.27-.14.39.39,0,1,0,.46-.4.82.82,0,0,0-.63.15s-.38.24-.36.2a2.31,2.31,0,0,0,.27-.78,15.46,15.46,0,0,0,1.7.12,1.66,1.66,0,0,1-.1.54s-.21.08-.21.23,0,.1.16.25a1.12,1.12,0,0,1,.17.26s0,.16.23.16h.09c.22,0,.23-.16.23-.16a1.12,1.12,0,0,1,.17-.26c.19-.15.16-.25.16-.25s-.21-.23-.21-.23a1.65,1.65,0,0,1-.09-.54c.58,0,1.15-.05,1.7-.11a2.12,2.12,0,0,0,.26.77,2.76,2.76,0,0,1-.36-.2.82.82,0,0,0-.63-.15.39.39,0,0,0,.07.78.38.38,0,0,0,.39-.38,2.37,2.37,0,0,1,.27.14,2.12,2.12,0,0,0,2.33,0c.1-.1.1,0,.1,0,.28.39.81.15.81.15.68-.3.48-1,.14-1.07a.41.41,0,0,0-.36.1.37.37,0,0,0-.13.34.16.16,0,0,0,.16.15.16.16,0,0,0,.16-.16.15.15,0,0,0-.15-.15c.07-.18.23,0,.23,0a.32.32,0,0,1,0,.49A.44.44,0,0,1,19,18a2,2,0,0,0,.37-1.2c.21-.08.42-.14.61-.23a4.8,4.8,0,0,1,1,.74,2.48,2.48,0,0,0,3.21.08c.07-.08.12-.05.14,0h0a.21.21,0,0,0,.18.09.23.23,0,0,0,.19-.1.43.43,0,0,0,.05-.13h0A.25.25,0,0,0,24.62,17ZM7.69,16.73a.07.07,0,0,1-.1,0c-.48-.58.25-1.25.49-.84,0,0-.28,0-.25.2a.21.21,0,0,0,.25.19.34.34,0,0,0,.27-.45.38.38,0,0,0-.26-.25.74.74,0,0,0-.86.36,1,1,0,0,0-.06.31.54.54,0,0,0-.23-.11,3.05,3.05,0,0,1-.19-1.58A1.57,1.57,0,0,0,8,13.38a.5.5,0,0,1,.31.36c0,.13-.05.26,0,.36a1.84,1.84,0,0,0,.49.38,8.37,8.37,0,0,0,.81.58c.1,0,.16-.06.24,0s0,0,.07,0l.12.1a6.13,6.13,0,0,0-.71.56A6.05,6.05,0,0,1,7.69,16.73Zm2.26.66a1.76,1.76,0,0,1-.1.31,2,2,0,0,1-.22-.84c.15.05.3.11.46.15A3.35,3.35,0,0,0,10,17.39Zm1.8.86a1.59,1.59,0,0,1-1.62-.31,3.85,3.85,0,0,1,.23-.87,14.11,14.11,0,0,0,1.67.32C12,17.75,11.91,18.22,11.75,18.25Zm-.95-1.87a1.12,1.12,0,0,1,.75-.31.54.54,0,0,1,.5.53C11.59,16.54,11.16,16.46,10.8,16.38Zm1-.61a2.09,2.09,0,0,0-1.2.55l-.76-.21a1.58,1.58,0,0,1,.15-.24,2,2,0,0,1,2.28-.44S12.16,15.68,11.76,15.77Zm.67.88c.06-.58.11-1.07.32-1.07a.36.36,0,0,1,.25.15c.19.25.68.56.91,1A13.26,13.26,0,0,1,12.43,16.65Zm2.31.1c.23-.46.73-.77.91-1a.37.37,0,0,1,.26-.15c.21,0,.25.49.31,1.08C15.77,16.71,15.27,16.74,14.74,16.75Zm1.68-1.32a2,2,0,0,1,2.28.44,1.05,1.05,0,0,1,.15.24c-.2.06-.46.14-.75.21a2.13,2.13,0,0,0-1.21-.55C16.49,15.68,16.39,15.44,16.42,15.43Zm.69.64a1.09,1.09,0,0,1,.74.31c-.36.08-.78.16-1.25.22C16.68,16.06,17.11,16.07,17.11,16.07Zm-.21,2.18c-.15,0-.23-.5-.27-.86a14.94,14.94,0,0,0,1.67-.32,3.52,3.52,0,0,1,.22.87A1.59,1.59,0,0,1,16.9,18.25Zm1.91-.55a1.3,1.3,0,0,1-.11-.31,2.12,2.12,0,0,0-.13-.38l.45-.14A2,2,0,0,1,18.81,17.7Z"/><path class="cls-6" d="M33.81,10.69,33.73,7.6h0c-.07.39-.13.67-.18.89L33,10.69H32l-.5-2.2c0-.22-.12-.5-.19-.89h0l-.05,3.09h-.65L30.7,7h1.22s.4,1.85.61,3h0c.24-1.18.72-3,.72-3h1.2l.14,3.66Z"/><path class="cls-6" d="M35.44,10.69V8.55l-.31-.07V8h1v2.65Zm0-3.74h.71V7.6h-.71Z"/><path class="cls-6" d="M38.43,10.69V9.11c0-.4-.15-.59-.48-.59a.85.85,0,0,0-.46.17v2h-.71V8h.49l.11.3A1.08,1.08,0,0,1,38.21,8c.68,0,.94.4.94,1.07v1.64Z"/><path class="cls-6" d="M40,10.69V8.55l-.31-.07V8h1v2.65Zm0-3.74h.71V7.6h-.71Z"/><path class="cls-6" d="M41.91,8.74c0,.41,1.15.28,1.15,1.15,0,.48-.36.85-1.05.85a1.74,1.74,0,0,1-.8-.19l.15-.49a1.34,1.34,0,0,0,.63.18c.23,0,.39-.13.39-.29,0-.48-1.13-.32-1.13-1.23,0-.39.29-.74,1-.74a2.29,2.29,0,0,1,.75.13l-.1.52a1.63,1.63,0,0,0-.64-.14C42,8.49,41.91,8.58,41.91,8.74Z"/><path class="cls-6" d="M44.59,10.74c-.47,0-.78-.22-.78-.88V8.54h-.39V8h.39V7.58l.7-.23V8h.71v.5h-.71v1.3a.26.26,0,0,0,.28.3,1,1,0,0,0,.41-.09l.11.52A1.56,1.56,0,0,1,44.59,10.74Z"/><path class="cls-6" d="M46.23,9.55a.61.61,0,0,0,.69.66A1.79,1.79,0,0,0,47.7,10l.13.49a2.14,2.14,0,0,1-1,.26,1.23,1.23,0,0,1-1.31-1.38c0-.82.4-1.38,1.25-1.38a1.11,1.11,0,0,1,1.12,1.26v.31Zm.5-1.05c-.35,0-.5.32-.5.64h1C47.2,8.79,47.1,8.5,46.73,8.5Z"/><path class="cls-6" d="M49.93,8.63a1.09,1.09,0,0,0-.33-.05.76.76,0,0,0-.48.18v1.93h-.7V8h.49l.08.35h0a.7.7,0,0,1,.63-.4,1,1,0,0,1,.31,0Z"/><path class="cls-6" d="M50.57,10.69V8.55l-.31-.07V8h1v2.65Zm0-3.74h.71V7.6h-.71Z"/><path class="cls-6" d="M54.3,9.36c0,.9-.45,1.38-1.24,1.38s-1.25-.47-1.25-1.38a1.25,1.25,0,1,1,2.49,0Zm-.72,0c0-.64-.19-.86-.52-.86s-.52.22-.52.86.17.86.52.86S53.58,10,53.58,9.36Z"/><path class="cls-6" d="M57.74,8.24a1.7,1.7,0,0,1-.06-.48V7h.7v3.74h-.57l-.09-.29a.84.84,0,0,1-.7.34c-.6,0-1.08-.43-1.08-1.38S56.44,8,57.08,8A.87.87,0,0,1,57.74,8.24Zm-.06.4a1,1,0,0,0-.49-.13c-.33,0-.54.23-.54.85s.2.87.53.87a.73.73,0,0,0,.5-.23Z"/><path class="cls-6" d="M59.63,9.55a.6.6,0,0,0,.68.66,1.79,1.79,0,0,0,.78-.22l.13.49a2.14,2.14,0,0,1-1,.26,1.22,1.22,0,0,1-1.3-1.38c0-.82.39-1.38,1.24-1.38a1.11,1.11,0,0,1,1.12,1.26v.31Zm.49-1.05c-.35,0-.49.32-.49.64h1C60.6,8.79,60.49,8.5,60.12,8.5Z"/><path class="cls-6" d="M30.63,15.79V12.14h2.25v.6H31.34v.9h1.18l-.06.63H31.34v.93h1.54v.59Z"/><path class="cls-6" d="M34.92,13.35a1.83,1.83,0,0,1-.06-.49v-.8h.7v3.73H35l-.08-.29a.89.89,0,0,1-.71.35c-.6,0-1.08-.44-1.08-1.38s.5-1.38,1.14-1.38A.82.82,0,0,1,34.92,13.35Zm-.06.4a.91.91,0,0,0-.48-.13c-.34,0-.55.22-.55.84s.2.87.53.87a.72.72,0,0,0,.5-.22Z"/><path class="cls-6" d="M38.05,15.79l-.11-.32a1,1,0,0,1-.82.38c-.67,0-1-.37-1-1.1V13.14h.71v1.61c0,.41.14.56.46.56a.84.84,0,0,0,.48-.16v-2h.72v2.65Z"/><path class="cls-6" d="M41.22,15.61a1.93,1.93,0,0,1-.91.24c-.79,0-1.27-.45-1.27-1.38a1.22,1.22,0,0,1,1.26-1.38,1.83,1.83,0,0,1,.91.21l-.18.48a1.35,1.35,0,0,0-.67-.16c-.36,0-.6.25-.6.85s.23.84.61.84a1.49,1.49,0,0,0,.72-.2Z"/><path class="cls-6" d="M43.33,15.79l-.1-.31a1,1,0,0,1-.78.37.82.82,0,0,1-.88-.85c0-.5.36-.79,1-.79h.56v-.13c0-.34-.2-.45-.47-.45a1.93,1.93,0,0,0-.8.18l-.17-.51a2.69,2.69,0,0,1,1-.21c.75,0,1.08.34,1.08,1v1.68Zm-.2-1.16h-.44c-.29,0-.43.14-.43.35a.35.35,0,0,0,.39.39.83.83,0,0,0,.48-.18Z"/><path class="cls-6" d="M46.54,15.61a1.93,1.93,0,0,1-.91.24c-.79,0-1.27-.45-1.27-1.38a1.22,1.22,0,0,1,1.26-1.38,1.85,1.85,0,0,1,.91.21l-.18.48a1.35,1.35,0,0,0-.67-.16c-.37,0-.6.25-.6.85s.22.84.61.84a1.56,1.56,0,0,0,.72-.2Z"/><path class="cls-6" d="M47.23,15.79V13.65l-.31-.07v-.44h1v2.65Zm0-3.73h.72v.64H47.2Z"/><path class="cls-6" d="M51,14.46c0,.91-.46,1.39-1.25,1.39s-1.24-.48-1.24-1.39a1.22,1.22,0,0,1,1.24-1.37A1.24,1.24,0,0,1,51,14.46Zm-1.9-1.73L49,12.32l1.37-.38.09.52Zm1.17,1.73c0-.64-.19-.86-.52-.86s-.51.23-.51.86.16.87.51.87S50.23,15.09,50.23,14.46Z"/><path class="cls-6" d="M53.13,15.79V14.22c0-.4-.15-.59-.47-.59a.88.88,0,0,0-.47.16v2h-.71V13.14H52l.11.3a1.08,1.08,0,0,1,.84-.35c.67,0,.93.39.93,1.06v1.64Z"/></g></g></svg>