<svg xmlns="http://www.w3.org/2000/svg" viewBox="0 0 306.31 77.66"><defs><style>.cls-1{fill:#d37341;}.cls-2{fill:#81b67b;}.cls-3{font-size:70.82px;fill:#fff;font-family:Gilmer-Bold, Gilmer Bold;font-weight:700;}.cls-4{fill:#e5bf47;}.cls-5{fill:#cf6466;}</style></defs><title>Recurso 9</title><g id="Capa_2" data-name="Capa 2"><g id="Capa_1-2" data-name="Capa 1"><polygon class="cls-1" points="34.95 0.45 0 25.84 13.35 66.93 56.55 66.93 69.9 25.84 34.95 0.45"/><polygon class="cls-2" points="306.31 67.98 245.08 67.98 245.08 0.85 306.31 0 306.31 67.98"/><text class="cls-3" transform="matrix(1, 0, 0, 1, 255.92, 59.93)">=</text><circle class="cls-4" cx="111.12" cy="34.55" r="32.55"/><polygon class="cls-5" points="211.35 0.56 173.09 0.56 153.96 33.69 173.09 66.82 211.35 66.82 230.48 33.69 211.35 0.56"/><text class="cls-3" transform="matrix(1, 0, 0, 1, 15.18, 59.72)">=</text><text class="cls-3" transform="matrix(1, 0, 0, 1, 91.35, 59.72)">=</text><text class="cls-3" transform="matrix(1, 0, 0, 1, 172.45, 59.72)">=</text></g></g></svg>