<svg xmlns="http://www.w3.org/2000/svg" viewBox="0 0 684.76 283.13"><defs><style>.cls-1{fill:none;stroke:#7a7a7e;}.cls-13,.cls-16,.cls-2{fill:#fff;}.cls-3{fill:#211915;}.cls-4{fill:#cc695b;}.cls-5{fill:#91bbab;}.cls-30,.cls-38,.cls-39,.cls-6,.cls-7{fill:#7a7a7e;}.cls-30,.cls-38,.cls-39,.cls-7{font-size:10.39px;font-family:Gilmer-Medium, Gilmer;font-weight:500;}.cls-8{letter-spacing:0.01em;}.cls-9{letter-spacing:0.01em;}.cls-10{letter-spacing:0.02em;}.cls-11{letter-spacing:0.01em;}.cls-12,.cls-38{letter-spacing:0.01em;}.cls-13,.cls-16{font-size:8px;font-family:Gilmer-Bold, Gilmer;font-weight:700;}.cls-13,.cls-32{letter-spacing:0.01em;}.cls-14{letter-spacing:0.01em;}.cls-15{letter-spacing:0em;}.cls-17{letter-spacing:0.01em;}.cls-18{letter-spacing:0.01em;}.cls-19{letter-spacing:0.01em;}.cls-20{letter-spacing:0.01em;}.cls-21{letter-spacing:0.03em;}.cls-22{letter-spacing:0em;}.cls-23{letter-spacing:0em;}.cls-24{letter-spacing:0.01em;}.cls-25{letter-spacing:0.01em;}.cls-26{letter-spacing:0.03em;}.cls-27{letter-spacing:-0.02em;}.cls-28{letter-spacing:0.02em;}.cls-29{letter-spacing:-0.01em;}.cls-30{letter-spacing:0em;}.cls-31{letter-spacing:0em;}.cls-33{letter-spacing:0em;}.cls-34{letter-spacing:0em;}.cls-35{letter-spacing:-0.01em;}.cls-36{letter-spacing:-0.02em;}.cls-37{letter-spacing:0.01em;}.cls-39{letter-spacing:0em;}.cls-40{letter-spacing:0.01em;}.cls-41{letter-spacing:-0.02em;}</style></defs><title>Recurso 18_20190726</title><g id="Capa_2" data-name="Capa 2"><g id="Capa_1-2" data-name="Capa 1"><line class="cls-1" x1="385.91" y1="43.71" x2="385.91" y2="235.05"/><line class="cls-1" x1="252.46" y1="43.71" x2="252.46" y2="235.05"/><line class="cls-1" x1="524.61" y1="43.71" x2="524.61" y2="235.05"/><path class="cls-2" d="M8.91,0S0,0,0,8.91V248s0,8.91,8.91,8.91H657.53s8.91,0,8.91-8.91V8.91s0-8.91-8.91-8.91Z"/><path class="cls-3" d="M550.71,280.66a1.38,1.38,0,0,1-1.39-1.46,1.36,1.36,0,0,1,1.39-1.44,1.45,1.45,0,0,1,0,2.9m-.14.79a1.82,1.82,0,0,0,1.54-.75v.64H553v-4.27h-.88v.64a1.82,1.82,0,0,0-1.54-.75,2.25,2.25,0,0,0,0,4.49M545.78,277a1.75,1.75,0,0,0-1.48.74v-.63h-.89v4.27h.89v-2.12a1.27,1.27,0,0,1,1.24-1.43c.69,0,1.05.46,1.05,1.21v2.34h.88v-2.5c0-1.16-.6-1.88-1.69-1.88m-4.71.79v-.68h-.89v4.27h.89v-1.93c0-1.24.56-1.7,1.47-1.56V277a1.34,1.34,0,0,0-1.47.73m-5.39,1.13a1.29,1.29,0,0,1,1.32-1.16,1.21,1.21,0,0,1,1.3,1.16Zm1.4,2.57a2.18,2.18,0,0,0,2-1.21l-.82-.24a1.43,1.43,0,0,1-2.63-.52h3.47a2.19,2.19,0,0,0,0-.36A2.06,2.06,0,0,0,537,277a2.25,2.25,0,0,0,.08,4.49m-3-1a1.21,1.21,0,0,1-.56.13c-.41,0-.61-.24-.61-.65v-2.1h1.36v-.79H533v-1.43h-.88v1.43h-.79v.79h.79V280c0,.87.41,1.45,1.33,1.45a2.37,2.37,0,0,0,.94-.2ZM528.79,277a1.75,1.75,0,0,0-1.47.74v-.63h-.89v4.27h.89v-2.12a1.26,1.26,0,0,1,1.23-1.43c.7,0,1.06.46,1.06,1.21v2.34h.88v-2.5c0-1.16-.6-1.88-1.7-1.88m-4.54,4.38h.88v-4.27h-.88Zm.45-5a.55.55,0,0,0,.56-.55.57.57,0,1,0-.56.55m-6.26,4.29a1.37,1.37,0,0,1-1.39-1.46,1.36,1.36,0,0,1,1.39-1.44,1.45,1.45,0,0,1,0,2.9m-.14.79a1.8,1.8,0,0,0,1.53-.75v.64h.89v-4.27h-.89v.64a1.8,1.8,0,0,0-1.53-.75,2.25,2.25,0,0,0,0,4.49m-3.95-3.7v-.68h-.89v4.27h.89v-1.93c0-1.24.55-1.7,1.46-1.56V277a1.33,1.33,0,0,0-1.46.73m-3.05-.68v2.12a1.26,1.26,0,0,1-1.23,1.43c-.7,0-1.06-.46-1.06-1.21v-2.34h-.89v2.51a1.64,1.64,0,0,0,1.7,1.87,1.75,1.75,0,0,0,1.48-.75v.64h.88v-4.27ZM507,280.48a1.18,1.18,0,0,1-.56.13c-.41,0-.61-.24-.61-.65v-2.1h1.36v-.79h-1.36v-1.43H505v1.43h-.78v.79H505V280c0,.87.41,1.45,1.33,1.45a2.37,2.37,0,0,0,.94-.2Zm-5.42,1a2,2,0,0,0,2-1.33l-.82-.23a1.23,1.23,0,0,1-1.2.77,1.39,1.39,0,0,1-1.38-1.46,1.38,1.38,0,0,1,1.38-1.44,1.25,1.25,0,0,1,1.2.79l.82-.24a2,2,0,0,0-2-1.35,2.25,2.25,0,0,0,0,4.49m-4.14-4.38v2.12a1.26,1.26,0,0,1-1.23,1.43c-.7,0-1.06-.46-1.06-1.21v-2.34h-.89v2.51a1.64,1.64,0,0,0,1.7,1.87,1.75,1.75,0,0,0,1.48-.75v.64h.89v-4.27Zm-5.45.68v-.68h-.89v4.27H492v-1.93c0-1.24.56-1.7,1.46-1.56V277a1.33,1.33,0,0,0-1.46.73m-2.07,2.73a1.24,1.24,0,0,1-.56.13c-.41,0-.61-.24-.61-.65v-2.1h1.36v-.79h-1.36v-1.43h-.89v1.43h-.78v.79h.78V280c0,.87.42,1.45,1.34,1.45a2.37,2.37,0,0,0,.94-.2Zm-5.15,1c1,0,1.79-.57,1.79-1.34s-.52-1-1.12-1.16l-1.14-.34c-.29-.09-.46-.21-.46-.42s.3-.52.75-.52a1.14,1.14,0,0,1,1.07.6l.79-.23a1.89,1.89,0,0,0-1.85-1.08A1.47,1.47,0,0,0,483,278.2c0,.61.45.92,1,1.09l1.14.34c.39.12.56.25.56.52s-.35.57-.9.57a1.26,1.26,0,0,1-1.23-.8l-.81.23a2.07,2.07,0,0,0,2,1.3m-6.13-2.57a1.29,1.29,0,0,1,1.33-1.16,1.22,1.22,0,0,1,1.3,1.16Zm1.4,2.57a2.16,2.16,0,0,0,2.05-1.21l-.81-.24a1.43,1.43,0,0,1-2.64-.52h3.48c0-.13,0-.23,0-.36A2.05,2.05,0,0,0,480,277a2.25,2.25,0,0,0,.07,4.49m-6.41-4.38v2.12a1.26,1.26,0,0,1-1.23,1.43c-.7,0-1.05-.46-1.05-1.21v-2.34h-.9v2.51a1.65,1.65,0,0,0,1.7,1.87,1.74,1.74,0,0,0,1.48-.75v.64h.89v-4.27Zm-5.86,4.38c1,0,1.79-.57,1.79-1.34s-.52-1-1.12-1.16l-1.14-.34c-.29-.09-.46-.21-.46-.42s.3-.52.75-.52a1.14,1.14,0,0,1,1.07.6l.79-.23a1.89,1.89,0,0,0-1.85-1.08A1.47,1.47,0,0,0,466,278.2c0,.61.45.92,1,1.09l1.14.34c.39.12.56.25.56.52s-.35.57-.9.57a1.26,1.26,0,0,1-1.23-.8l-.81.23a2.07,2.07,0,0,0,2,1.3M461,277a1.74,1.74,0,0,0-1.47.74v-.63h-.9v4.27h.9v-2.12a1.26,1.26,0,0,1,1.23-1.43c.7,0,1.05.46,1.05,1.21v2.34h.89v-2.5A1.65,1.65,0,0,0,461,277m-6.87,1.92a1.29,1.29,0,0,1,1.32-1.16,1.23,1.23,0,0,1,1.31,1.16Zm1.4,2.57a2.16,2.16,0,0,0,2.05-1.21l-.82-.24a1.26,1.26,0,0,1-1.21.69,1.29,1.29,0,0,1-1.42-1.21h3.47a2.19,2.19,0,0,0,0-.36,2.06,2.06,0,0,0-2.18-2.16,2.25,2.25,0,0,0,.08,4.49m-6.42-.11h.9v-6.2h-.9Zm-4.5-2.46a1.29,1.29,0,0,1,1.33-1.16,1.22,1.22,0,0,1,1.3,1.16Zm1.4,2.57a2.16,2.16,0,0,0,2.05-1.21l-.82-.24a1.26,1.26,0,0,1-1.21.69,1.29,1.29,0,0,1-1.42-1.21h3.48c0-.13,0-.23,0-.36a2.05,2.05,0,0,0-2.17-2.16,2.25,2.25,0,0,0,.07,4.49m-3.57-4.38-1.34,3.3-1.34-3.3h-1l1.81,4.27h1l1.81-4.27Zm-5.3,4.27H438v-4.27h-.88Zm.45-5a.55.55,0,0,0,.56-.55.56.56,0,0,0-.56-.55.55.55,0,0,0-.56.55.54.54,0,0,0,.56.55m-3.4.59a1.74,1.74,0,0,0-1.47.74v-.63h-.89v4.27h.89v-2.12a1.26,1.26,0,0,1,1.23-1.43c.7,0,1.05.46,1.05,1.21v2.34h.89v-2.5a1.65,1.65,0,0,0-1.7-1.88m-9.11,1.92a1.3,1.3,0,0,1,1.33-1.16,1.22,1.22,0,0,1,1.3,1.16Zm1.41,2.57a2.18,2.18,0,0,0,2.05-1.21l-.82-.24a1.43,1.43,0,0,1-2.64-.52h3.48a2.19,2.19,0,0,0,0-.36,2.06,2.06,0,0,0-2.18-2.16,2.25,2.25,0,0,0,.08,4.49m-3-1a1.24,1.24,0,0,1-.56.13c-.41,0-.61-.24-.61-.65v-2.1h1.36v-.79h-1.36v-1.43h-.89v1.43h-.78v.79h.78V280c0,.87.42,1.45,1.34,1.45a2.37,2.37,0,0,0,.94-.2Zm-5.15,1c1.05,0,1.79-.57,1.79-1.34s-.52-1-1.12-1.16l-1.14-.34c-.29-.09-.46-.21-.46-.42s.3-.52.75-.52a1.14,1.14,0,0,1,1.07.6l.79-.23a1.89,1.89,0,0,0-1.85-1.08,1.47,1.47,0,0,0-1.63,1.24c0,.61.45.92,1,1.09l1.14.34c.39.12.56.25.56.52s-.35.57-.9.57a1.26,1.26,0,0,1-1.23-.8l-.81.23a2.07,2.07,0,0,0,2,1.3m-6.13-2.57a1.29,1.29,0,0,1,1.33-1.16,1.22,1.22,0,0,1,1.3,1.16Zm1.4,2.57a2.16,2.16,0,0,0,2.05-1.21l-.81-.24a1.43,1.43,0,0,1-2.64-.52h3.48c0-.13,0-.23,0-.36a2.05,2.05,0,0,0-2.17-2.16,2.25,2.25,0,0,0,.07,4.49m-7.8-.79a1.37,1.37,0,0,1-1.39-1.46,1.36,1.36,0,0,1,1.39-1.44,1.45,1.45,0,0,1,0,2.9m-.15.79a1.8,1.8,0,0,0,1.54-.75v.64h.89v-4.27h-.89v.64a1.8,1.8,0,0,0-1.54-.75,2.25,2.25,0,0,0,0,4.49m-4.88,0a2,2,0,0,0,2-1.33l-.82-.23a1.23,1.23,0,0,1-1.2.77,1.39,1.39,0,0,1-1.38-1.46,1.37,1.37,0,0,1,1.38-1.44,1.25,1.25,0,0,1,1.2.79l.82-.24a2,2,0,0,0-2-1.35,2.25,2.25,0,0,0,0,4.49m-4.17-.11h.89v-4.27h-.89Zm.45-5a.54.54,0,0,0,.56-.55.55.55,0,0,0-.56-.55.56.56,0,0,0-.56.55.55.55,0,0,0,.56.55m-2.63,5h.89v-6.2h-.89Zm-3.28-.68a1.45,1.45,0,0,1,0-2.9,1.36,1.36,0,0,1,1.39,1.44,1.38,1.38,0,0,1-1.39,1.46m.14-3.7a1.8,1.8,0,0,0-1.53.75v-.64h-.89v6.06h.89V280.7a1.8,1.8,0,0,0,1.53.75,2.25,2.25,0,0,0,0-4.49m-6,3.7a1.38,1.38,0,0,1-1.4-1.46,1.37,1.37,0,0,1,1.4-1.44,1.45,1.45,0,0,1,0,2.9m-.15.79a1.8,1.8,0,0,0,1.54-.75v.64h.88v-4.27h-.88v.64a1.8,1.8,0,0,0-1.54-.75,2.25,2.25,0,0,0,0,4.49m-8.6-2.57a1.29,1.29,0,0,1,1.33-1.16,1.22,1.22,0,0,1,1.3,1.16Zm1.4,2.57a2.16,2.16,0,0,0,2.05-1.21l-.81-.24a1.43,1.43,0,0,1-2.64-.52h3.48c0-.13,0-.23,0-.36a2.05,2.05,0,0,0-2.17-2.16,2.25,2.25,0,0,0,.07,4.49m-4.17-4.38v2.12a1.26,1.26,0,0,1-1.23,1.43c-.7,0-1.06-.46-1.06-1.21v-2.34h-.89v2.51a1.64,1.64,0,0,0,1.7,1.87,1.75,1.75,0,0,0,1.48-.75v.64h.88v-4.27Zm-6.69,3.59a1.38,1.38,0,0,1-1.4-1.46,1.37,1.37,0,0,1,1.4-1.44,1.45,1.45,0,0,1,0,2.9m1.39-3.59v.64A1.8,1.8,0,0,0,367,277a2.25,2.25,0,0,0,0,4.49,1.8,1.8,0,0,0,1.54-.75v2.43h.89v-6.06Zm-8.47,4.38c1.05,0,1.79-.57,1.79-1.34s-.52-1-1.12-1.16l-1.14-.34c-.29-.09-.46-.21-.46-.42s.3-.52.75-.52a1.14,1.14,0,0,1,1.07.6l.79-.23A1.89,1.89,0,0,0,359.9,277a1.47,1.47,0,0,0-1.63,1.24c0,.61.45.92,1,1.09l1.14.34c.39.12.56.25.56.52s-.35.57-.9.57a1.26,1.26,0,0,1-1.23-.8l-.8.23a2,2,0,0,0,2,1.3m-5.18-.79a1.38,1.38,0,0,1-1.39-1.46,1.36,1.36,0,0,1,1.39-1.44,1.45,1.45,0,0,1,0,2.9m-.14.79a1.82,1.82,0,0,0,1.54-.75v.64h.88v-4.27h-.88v.64a1.82,1.82,0,0,0-1.54-.75,2.25,2.25,0,0,0,0,4.49m-4-.11h.89v-6.2h-.89Zm-5.79-.68a1.37,1.37,0,0,1-1.39-1.46,1.36,1.36,0,0,1,1.39-1.44,1.45,1.45,0,0,1,0,2.9m-.14.79a1.83,1.83,0,0,0,1.54-.75v.64h.88v-4.27h-.88v.64a1.83,1.83,0,0,0-1.54-.75,2.25,2.25,0,0,0,0,4.49m-4-3.7v-.68H340v4.27h.89v-1.93c0-1.24.55-1.7,1.46-1.56V277a1.33,1.33,0,0,0-1.46.73m-4.44,2.91a1.38,1.38,0,0,1-1.4-1.46,1.37,1.37,0,0,1,1.4-1.44,1.45,1.45,0,0,1,0,2.9m-.15.79a1.8,1.8,0,0,0,1.54-.75v.64h.88v-4.27h-.88v.64a1.8,1.8,0,0,0-1.54-.75,2.25,2.25,0,0,0,0,4.49m-5.14-.79a1.45,1.45,0,0,1,0-2.9,1.36,1.36,0,0,1,1.39,1.44,1.37,1.37,0,0,1-1.39,1.46m.14-3.7a1.81,1.81,0,0,0-1.53.75v-.64h-.89v6.06h.89V280.7a1.81,1.81,0,0,0,1.53.75,2.25,2.25,0,0,0,0-4.49m-7.49,4.49c1.05,0,1.79-.57,1.79-1.34s-.52-1-1.12-1.16l-1.14-.34c-.29-.09-.46-.21-.46-.42s.3-.52.75-.52a1.15,1.15,0,0,1,1.07.6l.79-.23a1.9,1.9,0,0,0-1.85-1.08A1.47,1.47,0,0,0,322,278.2c0,.61.45.92,1,1.09l1.14.34c.39.12.56.25.56.52s-.35.57-.9.57a1.26,1.26,0,0,1-1.23-.8l-.81.23a2.07,2.07,0,0,0,2,1.3m-6.13-2.57a1.29,1.29,0,0,1,1.32-1.16,1.22,1.22,0,0,1,1.31,1.16Zm1.4,2.57a2.16,2.16,0,0,0,2.05-1.21l-.82-.24a1.26,1.26,0,0,1-1.21.69,1.29,1.29,0,0,1-1.42-1.21h3.47a2.19,2.19,0,0,0,0-.36A2.06,2.06,0,0,0,319,277a2.25,2.25,0,0,0,.08,4.49M314.08,277a1.75,1.75,0,0,0-1.47.74v-.63h-.89v4.27h.89v-2.12a1.27,1.27,0,0,1,1.24-1.43c.69,0,1,.46,1,1.21v2.34h.88v-2.5c0-1.16-.6-1.88-1.7-1.88m-5.63,3.69a1.45,1.45,0,1,1,1.4-1.44,1.38,1.38,0,0,1-1.4,1.44m0,.8a2.25,2.25,0,1,0-2.27-2.25,2.2,2.2,0,0,0,2.27,2.25m-4.19-.11h.88v-4.27h-.88Zm.45-5a.55.55,0,0,0,.56-.55.56.56,0,0,0-.56-.55.55.55,0,0,0-.56.55.54.54,0,0,0,.56.55m-3.49,5.08a2,2,0,0,0,2-1.33l-.83-.23a1.22,1.22,0,0,1-1.19.77,1.39,1.39,0,0,1-1.38-1.46,1.37,1.37,0,0,1,1.38-1.44,1.23,1.23,0,0,1,1.19.79l.83-.24a2,2,0,0,0-2-1.35,2.25,2.25,0,0,0,0,4.49m-4.14-4.38v2.12a1.27,1.27,0,0,1-1.24,1.43c-.69,0-1-.46-1-1.21v-2.34h-.89v2.51a1.64,1.64,0,0,0,1.7,1.87,1.75,1.75,0,0,0,1.48-.75v.64H298v-4.27Zm-4.28,3.41a1.24,1.24,0,0,1-.56.13c-.41,0-.61-.24-.61-.65v-2.1H293v-.79h-1.36v-1.43h-.89v1.43H290v.79h.78V280c0,.87.42,1.45,1.34,1.45a2.37,2.37,0,0,0,.94-.2Zm-4.58.86h.88v-4.27h-.88Zm.45-5a.55.55,0,0,0,.56-.55.56.56,0,0,0-1.12,0,.55.55,0,0,0,.56.55M287,280.48a1.24,1.24,0,0,1-.56.13c-.41,0-.61-.24-.61-.65v-2.1h1.36v-.79h-1.36v-1.43H285v1.43h-.78v.79H285V280c0,.87.42,1.45,1.34,1.45a2.37,2.37,0,0,0,.94-.2Zm-5.15,1c1.05,0,1.79-.57,1.79-1.34s-.52-1-1.12-1.16l-1.14-.34c-.29-.09-.46-.21-.46-.42s.3-.52.75-.52a1.14,1.14,0,0,1,1.07.6l.79-.23A1.89,1.89,0,0,0,281.7,277a1.47,1.47,0,0,0-1.63,1.24c0,.61.45.92,1,1.09l1.15.34c.38.12.55.25.55.52s-.35.57-.89.57a1.27,1.27,0,0,1-1.24-.8l-.8.23a2,2,0,0,0,2,1.3M277.31,277a1.75,1.75,0,0,0-1.47.74v-.63H275v4.27h.89v-2.12a1.27,1.27,0,0,1,1.24-1.43c.69,0,1.05.46,1.05,1.21v2.34H279v-2.5c0-1.16-.6-1.88-1.7-1.88m-4.54,4.38h.88v-4.27h-.88Zm.45-5a.55.55,0,0,0,.56-.55.56.56,0,0,0-.56-.55.55.55,0,0,0-.56.55.54.54,0,0,0,.56.55m-5.54,5.08c1.05,0,1.79-.57,1.79-1.34s-.52-1-1.12-1.16l-1.14-.34c-.29-.09-.46-.21-.46-.42s.3-.52.75-.52a1.15,1.15,0,0,1,1.07.6l.79-.23A1.92,1.92,0,0,0,267.5,277a1.48,1.48,0,0,0-1.63,1.24c0,.61.45.92,1,1.09l1.15.34c.38.12.55.25.55.52s-.35.57-.89.57a1.26,1.26,0,0,1-1.23-.8l-.81.23a2.05,2.05,0,0,0,2,1.3m-5.18-.79a1.38,1.38,0,0,1-1.4-1.46,1.37,1.37,0,0,1,1.4-1.44,1.45,1.45,0,0,1,0,2.9m-.15.79a1.8,1.8,0,0,0,1.54-.75v.64h.89v-4.27h-.89v.64a1.8,1.8,0,0,0-1.54-.75,2.25,2.25,0,0,0,0,4.49m-4-.11h.89v-6.2h-.89Zm-5.51-.69a1.45,1.45,0,1,1,1.4-1.44,1.38,1.38,0,0,1-1.4,1.44m0,.8a2.25,2.25,0,1,0-2.27-2.25,2.2,2.2,0,0,0,2.27,2.25m-4.18-.11h.9v-6.2h-.9Zm-3.27-.69a1.45,1.45,0,1,1,1.4-1.44,1.38,1.38,0,0,1-1.4,1.44m0,.8a2.25,2.25,0,1,0-2.27-2.25,2.2,2.2,0,0,0,2.27,2.25m-.47-5.05h.79l.86-1.18h-1Zm-4.31,5.05c1.06,0,1.8-.57,1.8-1.34s-.52-1-1.12-1.16l-1.14-.34c-.29-.09-.46-.21-.46-.42s.3-.52.75-.52a1.15,1.15,0,0,1,1.07.6l.79-.23a1.92,1.92,0,0,0-1.86-1.08,1.47,1.47,0,0,0-1.63,1.24c0,.61.45.92,1,1.09l1.15.34c.38.12.55.25.55.52s-.35.57-.89.57a1.26,1.26,0,0,1-1.23-.8l-.81.23a2,2,0,0,0,2,1.3M233.8,277a1.75,1.75,0,0,0-1.47.74v-.63h-.89v4.27h.89v-2.12a1.27,1.27,0,0,1,1.24-1.43c.69,0,1.05.46,1.05,1.21v2.34h.88v-2.5c0-1.16-.6-1.88-1.7-1.88m-5.91,3.7a1.38,1.38,0,0,1-1.4-1.46,1.37,1.37,0,0,1,1.4-1.44,1.45,1.45,0,0,1,0,2.9m-.15.79a1.8,1.8,0,0,0,1.54-.75v.64h.88v-4.27h-.88v.64a1.8,1.8,0,0,0-1.54-.75,2.25,2.25,0,0,0,0,4.49m-3.94-3.7v-.68h-.89v4.27h.89v-1.93c0-1.24.55-1.7,1.46-1.56V277a1.32,1.32,0,0,0-1.46.73m-5.4,1.13a1.29,1.29,0,0,1,1.33-1.16,1.22,1.22,0,0,1,1.3,1.16Zm1.4,2.57a2.16,2.16,0,0,0,2-1.21L221,280a1.43,1.43,0,0,1-2.64-.52h3.48c0-.13,0-.23,0-.36a2.05,2.05,0,0,0-2.17-2.16,2.25,2.25,0,0,0,.07,4.49m-5.56-.79a1.38,1.38,0,0,1-1.4-1.46,1.37,1.37,0,0,1,1.4-1.44,1.45,1.45,0,0,1,0,2.9m1.39-5.52v2.57a1.8,1.8,0,0,0-1.54-.75,2.25,2.25,0,0,0,0,4.49,1.8,1.8,0,0,0,1.54-.75v.64h.88v-6.2Zm-5.58,6.2h.88v-4.27h-.88Zm.45-5a.55.55,0,0,0,.56-.55.56.56,0,0,0-.56-.55.55.55,0,0,0-.56.55.54.54,0,0,0,.56.55m-3.31,5.08c1.05,0,1.79-.57,1.79-1.34s-.52-1-1.12-1.16l-1.14-.34c-.29-.09-.46-.21-.46-.42s.3-.52.75-.52a1.14,1.14,0,0,1,1.07.6l.79-.23A1.89,1.89,0,0,0,207,277a1.47,1.47,0,0,0-1.63,1.24c0,.61.45.92,1,1.09l1.15.34c.38.12.55.25.55.52s-.35.57-.89.57a1.27,1.27,0,0,1-1.24-.8l-.8.23a2,2,0,0,0,2,1.3M202.63,277a1.75,1.75,0,0,0-1.47.74v-.63h-.89v4.27h.89v-2.12a1.27,1.27,0,0,1,1.24-1.43c.69,0,1,.46,1,1.21v2.34h.88v-2.5c0-1.16-.6-1.88-1.7-1.88M197,280.65a1.45,1.45,0,0,1,0-2.89,1.45,1.45,0,0,1,0,2.89m0,.8a2.25,2.25,0,1,0-2.27-2.25,2.2,2.2,0,0,0,2.27,2.25m-5,0a2,2,0,0,0,2-1.33l-.83-.23a1.21,1.21,0,0,1-1.19.77,1.39,1.39,0,0,1-1.38-1.46,1.37,1.37,0,0,1,1.38-1.44,1.22,1.22,0,0,1,1.19.79l.83-.24a2,2,0,0,0-2-1.35,2.25,2.25,0,1,0,0,4.49m-8.72-2.57a1.28,1.28,0,0,1,1.32-1.16,1.22,1.22,0,0,1,1.3,1.16Zm1.4,2.57a2.18,2.18,0,0,0,2-1.21l-.82-.24a1.43,1.43,0,0,1-2.63-.52h3.47a2.19,2.19,0,0,0,0-.36,2.06,2.06,0,0,0-2.18-2.16,2.25,2.25,0,0,0,.08,4.49m-4.79,0c1.06,0,1.8-.57,1.8-1.34s-.52-1-1.13-1.16l-1.14-.34c-.28-.09-.45-.21-.45-.42s.29-.52.74-.52a1.17,1.17,0,0,1,1.08.6l.79-.23a1.92,1.92,0,0,0-1.86-1.08,1.47,1.47,0,0,0-1.63,1.24c0,.61.45.92,1,1.09l1.15.34c.38.12.55.25.55.52s-.35.57-.89.57a1.26,1.26,0,0,1-1.23-.8l-.81.23a2,2,0,0,0,2,1.3m-6.7,0c1.06,0,1.8-.57,1.8-1.34s-.52-1-1.12-1.16l-1.14-.34c-.29-.09-.46-.21-.46-.42s.3-.52.75-.52a1.15,1.15,0,0,1,1.07.6l.79-.23A1.92,1.92,0,0,0,173,277a1.47,1.47,0,0,0-1.63,1.24c0,.61.45.92,1,1.09l1.15.34c.38.12.55.25.55.52s-.35.57-.89.57a1.26,1.26,0,0,1-1.23-.8l-.81.23a2,2,0,0,0,2,1.3M167,278.88a1.29,1.29,0,0,1,1.32-1.16,1.22,1.22,0,0,1,1.3,1.16Zm1.4,2.57a2.18,2.18,0,0,0,2.05-1.21l-.82-.24a1.43,1.43,0,0,1-2.63-.52h3.47a2.19,2.19,0,0,0,0-.36,2.06,2.06,0,0,0-2.18-2.16,2.25,2.25,0,0,0,.08,4.49m-4.1-3.7v-.68h-.89v4.27h.89v-1.93c0-1.24.55-1.7,1.46-1.56V277a1.33,1.33,0,0,0-1.46.73m-4.16,2.9a1.45,1.45,0,1,1,1.4-1.44,1.38,1.38,0,0,1-1.4,1.44m0,.8a2.25,2.25,0,1,0-2.27-2.25,2.2,2.2,0,0,0,2.27,2.25m-3-1a1.24,1.24,0,0,1-.56.13.57.57,0,0,1-.62-.65v-2.1h1.36v-.79h-1.36v-1.43h-.88v1.43h-.78v.79h.78V280c0,.87.42,1.45,1.33,1.45a2.45,2.45,0,0,0,.95-.2Zm-5.43,1a2,2,0,0,0,2-1.33l-.83-.23a1.23,1.23,0,0,1-1.2.77,1.39,1.39,0,0,1-1.37-1.46,1.37,1.37,0,0,1,1.37-1.44,1.25,1.25,0,0,1,1.2.79l.83-.24a2,2,0,0,0-2-1.35,2.25,2.25,0,0,0,0,4.49m-6.48-2.57a1.29,1.29,0,0,1,1.32-1.16,1.23,1.23,0,0,1,1.31,1.16Zm1.4,2.57a2.16,2.16,0,0,0,2.05-1.21L148,280a1.26,1.26,0,0,1-1.21.69,1.29,1.29,0,0,1-1.42-1.21h3.47a2.19,2.19,0,0,0,0-.36,2.06,2.06,0,0,0-2.18-2.16,2.25,2.25,0,0,0,.08,4.49m-4.1-3.7v-.68h-.89v4.27h.89v-1.93c0-1.24.56-1.7,1.47-1.56V277a1.34,1.34,0,0,0-1.47.73m-3.23,0v-.68h-.89v4.27h.89v-1.93c0-1.24.56-1.7,1.47-1.56V277a1.34,1.34,0,0,0-1.47.73M134,278.88a1.29,1.29,0,0,1,1.32-1.16,1.21,1.21,0,0,1,1.3,1.16Zm1.4,2.57a2.18,2.18,0,0,0,2-1.21l-.82-.24a1.43,1.43,0,0,1-2.63-.52h3.47a2.19,2.19,0,0,0,0-.36,2.06,2.06,0,0,0-2.18-2.16,2.25,2.25,0,0,0,.08,4.49m-5,0a2,2,0,0,0,2-1.33l-.82-.23a1.23,1.23,0,0,1-1.2.77A1.39,1.39,0,0,1,129,279.2a1.38,1.38,0,0,1,1.38-1.44,1.25,1.25,0,0,1,1.2.79l.82-.24a2,2,0,0,0-2-1.35,2.25,2.25,0,0,0,0,4.49m-4.17-.11h.89v-4.27h-.89Zm.45-5a.55.55,0,0,0,.57-.55.57.57,0,0,0-1.13,0,.55.55,0,0,0,.56.55m-2-1-1.86,4.81-1.86-4.81h-1l2.37,5.95h1l2.37-5.95Zm-7.56.84-.3-.52-.78.48,0-.92h-.6l0,.92-.77-.48-.31.52.82.42-.82.44.31.51.77-.48,0,.92h.6l0-.93.78.49.3-.51-.81-.43Z"/><path class="cls-3" d="M457.54,273.51h.88a7.71,7.71,0,0,0,0-7.49h-.88a7.65,7.65,0,0,1,0,7.49m-2.85-1.85c-.83,0-1.32-.46-1.32-1.08s.49-1.07,1.32-1.07,1.31.46,1.31,1.07-.51,1.08-1.31,1.08m0-4.63c.68,0,1.08.39,1.08.89s-.4.89-1.08.89-1.1-.4-1.1-.89.4-.89,1.1-.89m1.16,2.08a1.35,1.35,0,0,0,.82-1.25c0-.87-.77-1.58-2-1.58s-2,.71-2,1.58a1.34,1.34,0,0,0,.81,1.25,1.61,1.61,0,0,0-1.07,1.53c0,1,.88,1.81,2.25,1.81s2.23-.79,2.23-1.81a1.61,1.61,0,0,0-1.07-1.53m-5.31-2.72-1.8.92.23.8,1.42-.68v4.91h.93v-5.95Zm-4.61,5.22c-1,0-1.47-.89-1.47-2.24s.49-2.25,1.47-2.25,1.46.9,1.46,2.25-.48,2.24-1.46,2.24m0,.84c1.55,0,2.39-1.31,2.39-3.08s-.84-3.09-2.39-3.09-2.4,1.31-2.4,3.09.85,3.08,2.4,3.08m-5.87-.95,1.59-1.49a2.63,2.63,0,0,0,1.11-1.9,1.82,1.82,0,0,0-2.05-1.83,2,2,0,0,0-2,1.67l.83.24a1.24,1.24,0,0,1,1.23-1.08,1,1,0,0,1,1.11,1c0,.48-.34.84-.82,1.3l-2.35,2.24v.65h4.18v-.84Zm-6.64.15a1.45,1.45,0,1,1,1.4-1.44,1.38,1.38,0,0,1-1.4,1.44m0,.8a2.25,2.25,0,1,0-2.27-2.25,2.2,2.2,0,0,0,2.27,2.25m-4.19-.11h.88v-4.27h-.88Zm.45-5a.55.55,0,1,0,0-1.09.55.55,0,1,0,0,1.09m-3.4.59a1.73,1.73,0,0,0-1.47.75v-.64h-.89v4.27h.89v-2.12a1.26,1.26,0,0,1,1.23-1.43c.7,0,1.06.46,1.06,1.21v2.34H428v-2.5c0-1.16-.6-1.88-1.7-1.88m-4.52.11v2.12a1.27,1.27,0,0,1-1.24,1.43c-.69,0-1-.46-1-1.21v-2.34h-.89v2.51a1.64,1.64,0,0,0,1.7,1.87,1.75,1.75,0,0,0,1.48-.75v.64h.88v-4.27Zm-5.32,4.61c0,.48-.19.8-.61.8a.89.89,0,0,1-.43-.12l-.2.71a1.87,1.87,0,0,0,.74.17c.95,0,1.38-.63,1.38-1.62v-4.55h-.88Zm.45-5.31a.55.55,0,1,0,0-1.09.55.55,0,1,0,0,1.09m-5.63.59a1.73,1.73,0,0,0-1.47.75v-.64h-.89v4.27h.89v-2.12a1.26,1.26,0,0,1,1.23-1.43c.7,0,1.06.46,1.06,1.21v2.34H413v-2.5c0-1.16-.6-1.88-1.7-1.88m-6.87,1.92a1.29,1.29,0,0,1,1.33-1.16,1.22,1.22,0,0,1,1.3,1.16Zm1.4,2.57a2.16,2.16,0,0,0,2-1.21L407,271a1.43,1.43,0,0,1-2.64-.52h3.48c0-.13,0-.23,0-.36a2.05,2.05,0,0,0-2.17-2.16,2.25,2.25,0,0,0,.07,4.49m-7.52-.8a1.45,1.45,0,1,1,1.4-1.44,1.38,1.38,0,0,1-1.4,1.44m0,.8A2.25,2.25,0,1,0,396,270.2a2.2,2.2,0,0,0,2.27,2.25m-5.56-.79a1.38,1.38,0,0,1-1.39-1.46,1.36,1.36,0,0,1,1.39-1.44,1.45,1.45,0,0,1,0,2.9m1.4-5.52v2.57a1.84,1.84,0,0,0-1.54-.75,2.25,2.25,0,0,0,0,4.49,1.82,1.82,0,0,0,1.54-.75v.64H395v-6.2Zm-7,5.52a1.38,1.38,0,0,1-1.39-1.46,1.36,1.36,0,0,1,1.39-1.44,1.45,1.45,0,0,1,0,2.9m-.14.79a1.8,1.8,0,0,0,1.54-.75v.64h.88v-4.27h-.88v.64A1.83,1.83,0,0,0,387,268a2.25,2.25,0,0,0,0,4.49m-2.81-1a1.18,1.18,0,0,1-.56.13c-.41,0-.61-.24-.61-.65v-2.1h1.36v-.79H383v-1.43h-.88v1.43h-.78v.79h.78V271c0,.87.41,1.45,1.33,1.45a2.37,2.37,0,0,0,.94-.2Zm-4.9-2.73v-.68h-.89v4.27h.89v-1.93c0-1.24.55-1.7,1.46-1.56V268a1.33,1.33,0,0,0-1.46.73m-4.16,2.9a1.45,1.45,0,1,1,1.4-1.44,1.38,1.38,0,0,1-1.4,1.44m0,.8a2.25,2.25,0,1,0-2.27-2.25,2.19,2.19,0,0,0,2.27,2.25m-5.29-.79a1.45,1.45,0,0,1,0-2.9,1.36,1.36,0,0,1,1.39,1.44,1.38,1.38,0,0,1-1.39,1.46M370,268a1.83,1.83,0,0,0-1.53.75v-.64h-.89v6.06h.89V271.7a1.81,1.81,0,0,0,1.53.75,2.25,2.25,0,0,0,0-4.49m-6.93,1.92a1.3,1.3,0,0,1,1.33-1.16,1.22,1.22,0,0,1,1.3,1.16Zm1.41,2.57a2.18,2.18,0,0,0,2-1.21l-.82-.24a1.43,1.43,0,0,1-2.64-.52h3.48a2.19,2.19,0,0,0,0-.36,2.06,2.06,0,0,0-2.18-2.16,2.25,2.25,0,0,0,.08,4.49m-4.1-3.7v-.68h-.89v4.27h.89v-1.93c0-1.24.55-1.7,1.46-1.56V268a1.33,1.33,0,0,0-1.46.73m-5.57,4.76h.73l.61-2.2h-1Zm-1.71-7.12v3.53a1.59,1.59,0,1,1-3.17,0v-3.53H349v3.55a2.51,2.51,0,1,0,5,0v-3.55Zm-7.85,6.06a2.83,2.83,0,0,0,2.81-1.84l-.89-.23a2,2,0,0,1-1.93,1.21,2.23,2.23,0,0,1,0-4.45,2,2,0,0,1,1.94,1.23l.89-.23a2.85,2.85,0,0,0-2.83-1.86,3.09,3.09,0,1,0,0,6.17m-3.82-5.22v-.84h-4.28v5.95h4.28v-.84h-3.37v-1.78H341v-.8h-2.94v-1.69Zm-5.11,0v-.84h-4.23v5.95H333v-2.5h2.86V269H333v-1.79Zm-10,4.43a1.38,1.38,0,0,1-1.39-1.46,1.36,1.36,0,0,1,1.39-1.44,1.45,1.45,0,0,1,0,2.9m-.14.79a1.8,1.8,0,0,0,1.54-.75v.64h.88v-4.27h-.88v.64a1.83,1.83,0,0,0-1.54-.75,2.25,2.25,0,0,0,0,4.49m-8.6-2.57a1.29,1.29,0,0,1,1.32-1.16,1.23,1.23,0,0,1,1.31,1.16Zm1.4,2.57a2.17,2.17,0,0,0,2.05-1.21l-.82-.24a1.26,1.26,0,0,1-1.21.69,1.29,1.29,0,0,1-1.42-1.21H321a2.19,2.19,0,0,0,0-.36,2.06,2.06,0,0,0-2.18-2.16,2.25,2.25,0,0,0,.08,4.49m-4.78,0c1.05,0,1.79-.57,1.79-1.34s-.52-1-1.12-1.16l-1.14-.34c-.29-.09-.46-.21-.46-.42s.3-.52.75-.52a1.15,1.15,0,0,1,1.07.6l.79-.23A1.91,1.91,0,0,0,314,268a1.48,1.48,0,0,0-1.64,1.24c0,.61.45.93,1,1.1l1.15.34c.38.11.55.24.55.51s-.34.57-.89.57a1.26,1.26,0,0,1-1.23-.8l-.81.23a2.05,2.05,0,0,0,2,1.3m-5.18-.79a1.38,1.38,0,0,1-1.4-1.46,1.37,1.37,0,0,1,1.4-1.44,1.45,1.45,0,0,1,0,2.9m-.15.79a1.8,1.8,0,0,0,1.54-.75v.64h.89v-4.27h-.89v.64a1.83,1.83,0,0,0-1.54-.75,2.25,2.25,0,0,0,0,4.49m-5.14-.79a1.45,1.45,0,0,1,0-2.9,1.37,1.37,0,0,1,1.4,1.44,1.38,1.38,0,0,1-1.4,1.46m.15-3.7a1.82,1.82,0,0,0-1.53.75v-2.57h-.9v6.2h.9v-.64a1.8,1.8,0,0,0,1.53.75,2.25,2.25,0,0,0,0-4.49m-7.59,0a1.75,1.75,0,0,0-1.48.75v-.64h-.89v4.27h.89v-2.12a1.27,1.27,0,0,1,1.24-1.43c.7,0,1.05.46,1.05,1.21v2.34H298v-2.5a1.65,1.65,0,0,0-1.7-1.88m-3.47-.73v-.84H288.5v5.95h4.28v-.84h-3.37v-1.78h2.94v-.8h-2.94v-1.69Zm-5.16,6.28a7.65,7.65,0,0,1,0-7.49h-.88a7.71,7.71,0,0,0,0,7.49Zm-7.09-3.94a1.21,1.21,0,0,1-1.28-1.23,1.28,1.28,0,0,1,2.56,0,1.21,1.21,0,0,1-1.28,1.23m0-3.29a2.07,2.07,0,0,0-2.19,2.06,2,2,0,0,0,2.08,2,2,2,0,0,0,.37,0l-1.32,2h1l1.76-2.67a2.4,2.4,0,0,0,.46-1.33,2.07,2.07,0,0,0-2.2-2.06m-4,.11-1.79.92.23.8,1.41-.68v4.91h.93v-5.95Zm-4.61,5.22c-1,0-1.47-.89-1.47-2.24s.49-2.25,1.47-2.25,1.46.9,1.46,2.25-.48,2.24-1.46,2.24m0,.84c1.55,0,2.39-1.31,2.39-3.08s-.84-3.09-2.39-3.09-2.39,1.31-2.39,3.09.84,3.08,2.39,3.08M266,271.5l1.59-1.49a2.63,2.63,0,0,0,1.11-1.9,1.82,1.82,0,0,0-2.05-1.83,2,2,0,0,0-2,1.67l.83.24a1.24,1.24,0,0,1,1.23-1.08,1,1,0,0,1,1.11,1c0,.48-.34.84-.82,1.3l-2.35,2.24v.65h4.18v-.84Zm-5.81,2H261l.61-2.2h-1Zm-3.12-1.06c1.39,0,2.32-.8,2.32-1.8s-.63-1.3-1.55-1.59l-1.46-.47c-.54-.16-.76-.36-.76-.7s.46-.79,1.13-.79a1.76,1.76,0,0,1,1.64.92l.86-.26a2.6,2.6,0,0,0-2.5-1.48,1.86,1.86,0,0,0-2.06,1.63c0,.75.55,1.21,1.34,1.46l1.49.47c.7.23.95.48.95.87s-.53.93-1.35.93a1.92,1.92,0,0,1-1.86-1.24l-.87.26a2.73,2.73,0,0,0,2.68,1.79m-3.27-5.22v-.84h-4.28v5.95h4.27v-.84h-3.36v-1.78h2.94v-.8h-2.94v-1.69Zm-6.49,5.11h.93v-5.95h-.93Zm-3.39.11c1.4,0,2.33-.8,2.33-1.8s-.63-1.3-1.55-1.59l-1.46-.47c-.54-.16-.76-.36-.76-.7s.46-.79,1.13-.79a1.76,1.76,0,0,1,1.64.92l.86-.26a2.6,2.6,0,0,0-2.5-1.48,1.86,1.86,0,0,0-2.06,1.63c0,.75.55,1.21,1.34,1.46l1.49.47c.7.23,1,.48,1,.87s-.53.93-1.35.93a1.92,1.92,0,0,1-1.86-1.24l-.87.26a2.73,2.73,0,0,0,2.67,1.79m-6.28-.05a.57.57,0,1,0,0-1.14.57.57,0,1,0,0,1.14m0-3.16a.57.57,0,1,0,0-1.14.57.57,0,1,0,0,1.14m-4.83.64a1.29,1.29,0,0,1,1.32-1.16,1.21,1.21,0,0,1,1.3,1.16Zm1.4,2.57a2.18,2.18,0,0,0,2.05-1.21l-.82-.24a1.43,1.43,0,0,1-2.63-.52h3.47a2.19,2.19,0,0,0,0-.36,2.06,2.06,0,0,0-2.18-2.16,2.25,2.25,0,0,0,.08,4.49m-3-1a1.21,1.21,0,0,1-.56.13c-.41,0-.61-.24-.61-.65v-2.1h1.36v-.79h-1.36v-1.43h-.89v1.43h-.78v.79h.78V271c0,.87.42,1.45,1.34,1.45a2.37,2.37,0,0,0,.94-.2ZM226,268a1.73,1.73,0,0,0-1.47.75v-.64h-.89v4.27h.89v-2.12a1.26,1.26,0,0,1,1.23-1.43c.7,0,1.06.46,1.06,1.21v2.34h.88v-2.5c0-1.16-.6-1.88-1.7-1.88m-6.87,1.92a1.29,1.29,0,0,1,1.33-1.16,1.22,1.22,0,0,1,1.3,1.16Zm1.41,2.57a2.15,2.15,0,0,0,2-1.21l-.81-.24a1.43,1.43,0,0,1-2.64-.52h3.48a2.19,2.19,0,0,0,0-.36,2.06,2.06,0,0,0-2.18-2.16,2.25,2.25,0,0,0,.08,4.49m-4.18-4.38v2.12a1.26,1.26,0,0,1-1.23,1.43c-.7,0-1.05-.46-1.05-1.21v-2.34h-.9v2.51a1.65,1.65,0,0,0,1.7,1.87,1.74,1.74,0,0,0,1.48-.75v.64h.89v-4.27Zm-3.84-.84v-.84h-4.22v5.95h.92v-2.5h2.87V269h-2.87v-1.79Z"/><path class="cls-3" d="M681.19,144.59a.93.93,0,0,1-1,1,.92.92,0,0,1-.94-1,.95.95,0,1,1,1.89,0m-2.52,0a1.58,1.58,0,0,0,1.57,1.67,1.54,1.54,0,0,0,1.56-1.59,1.27,1.27,0,0,0,0-.28l1.54,1v-.8l-2-1.34a1.89,1.89,0,0,0-1-.36,1.59,1.59,0,0,0-1.57,1.69m.09,3.06.7,1.38.61-.18-.52-1.08h3.76v-.71h-4.55Zm4,3.53c0,.75-.69,1.12-1.72,1.12s-1.72-.37-1.72-1.12.69-1.12,1.72-1.12,1.72.37,1.72,1.12m.64,0c0-1.19-1-1.83-2.36-1.83s-2.36.64-2.36,1.83,1,1.83,2.36,1.83,2.36-.65,2.36-1.83m-.73,4.49-1.14-1.22a2,2,0,0,0-1.45-.85,1.39,1.39,0,0,0-1.4,1.57,1.53,1.53,0,0,0,1.28,1.56l.18-.63a1,1,0,0,1-.83-.94.77.77,0,0,1,.8-.86c.37,0,.65.26,1,.63l1.71,1.8h.5v-3.2h-.65Zm.11,5.08a1.1,1.1,0,1,1-1.1-1.08,1.05,1.05,0,0,1,1.1,1.08m.62,0a1.72,1.72,0,1,0-1.72,1.73,1.68,1.68,0,0,0,1.72-1.73m-.08,2.52H680V164h3.27Zm-3.81.34a.42.42,0,1,0-.83,0,.42.42,0,1,0,.83,0m3.81,1.33h-4.75v.68h4.75ZM680,167.28h1.62a1,1,0,0,1,1.09.94c0,.54-.35.81-.92.81H680v.68H682a1.26,1.26,0,0,0,1.44-1.3,1.34,1.34,0,0,0-.58-1.13h.5v-.67H680Zm3.52,4.07c.37,0,.62.14.62.46a.61.61,0,0,1-.1.33l.55.16a1.49,1.49,0,0,0,.13-.57c0-.73-.49-1.06-1.25-1.06H680v.68ZM679.5,171a.42.42,0,1,0-.83,0,.42.42,0,1,0,.83,0m3.29,4.55c0,.63-.36,1-.83,1s-.82-.37-.82-1,.35-1,.82-1,.83.39.83,1m-3.55,0c0-.52.3-.84.68-.84s.68.32.68.84-.3.83-.68.83-.68-.3-.68-.83m1.6-.9a1.07,1.07,0,0,0-1-.62c-.66,0-1.2.59-1.2,1.52s.54,1.52,1.2,1.52a1.06,1.06,0,0,0,1-.63,1.21,1.21,0,0,0,1.17.82c.78,0,1.38-.67,1.38-1.71s-.6-1.71-1.38-1.71a1.21,1.21,0,0,0-1.17.81m-2.08,4.07.7,1.37.61-.18-.52-1.08h3.76v-.71h-4.55Zm4.59,4.05a.43.43,0,0,0-.44-.45.44.44,0,0,0-.44.45.45.45,0,0,0,.44.45.44.44,0,0,0,.44-.45m-2.42,0a.44.44,0,1,0-.44.45.44.44,0,0,0,.44-.45m-1,2.56a1.32,1.32,0,0,0,.57,1.12H680v.68h3.27v-.68h-1.63a1,1,0,0,1-1.09-.94c0-.53.35-.81.92-.81h1.8V184h-1.92c-.89,0-1.44.46-1.44,1.3m2.82,4.31a1.1,1.1,0,1,1-1.1-1.08,1.05,1.05,0,0,1,1.1,1.08m.62,0a1.72,1.72,0,1,0-1.72,1.73,1.69,1.69,0,0,0,1.72-1.73m-3.87.36v-.6l-.89-.67v.76Zm3.79,2.17H680v.67h3.27Zm-3.81.33a.42.42,0,1,0-.42.43.42.42,0,0,0,.42-.43m3.89,2.67a1.56,1.56,0,0,0-1-1.55l-.18.63a.94.94,0,0,1,.59.92,1.11,1.11,0,0,1-2.22,0,1,1,0,0,1,.61-.92l-.18-.63a1.57,1.57,0,0,0-1,1.56,1.72,1.72,0,0,0,3.44,0m-.61,4.23a1.11,1.11,0,0,1-2.22,0,1.11,1.11,0,0,1,2.22,0m.61.11a1.4,1.4,0,0,0-.58-1.18h.5v-.67H680v.67h.49a1.4,1.4,0,0,0-.58,1.18,1.72,1.72,0,0,0,3.44,0m-.66,4-2.25-1.88H680v2.75h.57v-1.84l2.26,1.88h.44V201.6h-.58Zm.58,1.73H680V206h3.27Zm-3.81.33a.42.42,0,1,0-.42.43.41.41,0,0,0,.42-.43m3.81,1.34h-4.75v.68h4.75Zm-.53,3.4a1.11,1.11,0,0,1-2.22,0,1.11,1.11,0,0,1,2.22,0m.61.11a1.4,1.4,0,0,0-.58-1.18h.5v-.67H680v.67h.49a1.4,1.4,0,0,0-.58,1.18,1.72,1.72,0,0,0,3.44,0M680,213.52h1.62a1,1,0,0,1,1.09.94c0,.54-.35.81-.92.81H680V216H682a1.26,1.26,0,0,0,1.44-1.3,1.34,1.34,0,0,0-.58-1.13h.5v-.67H680Zm2.6,3.27a1,1,0,0,1,.11.43.44.44,0,0,1-.5.47h-1.61v-1H680v1H679v.67H680v.6h.6v-.6h1.61c.67,0,1.11-.31,1.11-1a1.68,1.68,0,0,0-.16-.72Zm.75,4.15a1.56,1.56,0,0,0-1-1.55l-.18.63a.94.94,0,0,1,.59.92,1.11,1.11,0,0,1-2.22,0,1,1,0,0,1,.61-.92l-.18-.63a1.57,1.57,0,0,0-1,1.56,1.72,1.72,0,0,0,3.44,0m-.61,4.23a1.11,1.11,0,0,1-2.22,0,1.11,1.11,0,0,1,2.22,0m.61.11a1.4,1.4,0,0,0-.58-1.18h.5v-.67H680v.67h.49a1.4,1.4,0,0,0-.58,1.18,1.72,1.72,0,0,0,3.44,0m-.61,5.85a1.11,1.11,0,0,1-2.22,0,1.11,1.11,0,0,1,2.22,0m.61.11a1.4,1.4,0,0,0-.58-1.18h.5v-.67H680v.67h.49a1.4,1.4,0,0,0-.58,1.18,1.72,1.72,0,0,0,3.44,0M680,234.89a1.33,1.33,0,0,0,.56,1.14,1.06,1.06,0,0,0-.56,1,1.22,1.22,0,0,0,.54,1H680v.68h3.27v-.68h-1.66c-.65,0-1.06-.32-1.06-.84s.34-.71.89-.71h1.83v-.68H681.6c-.62,0-1-.31-1-.82s.34-.73.89-.73h1.83v-.68h-2a1.24,1.24,0,0,0-1.4,1.28m3.36,4.85H680v.68h3.27Zm-3.81.33a.42.42,0,1,0-.83,0,.42.42,0,1,0,.83,0m3.14,1.27a.88.88,0,0,1,.11.42c0,.32-.18.47-.5.47h-1.61v-1H680v1H679v.68H680v.6h.6v-.6h1.61c.67,0,1.11-.32,1.11-1a1.64,1.64,0,0,0-.16-.72Zm.67,2.8h-4.75v.69h4.75Zm-4.55,2.32h2.69a1.21,1.21,0,1,1,0,2.42h-2.69v.71h2.71a1.92,1.92,0,1,0,0-3.84h-2.71Zm-1.42.31v.76l.9.51v-.61Z"/><path class="cls-3" d="M259.93,239.23a.89.89,0,0,1-.91-.9.91.91,0,1,1,.91.9m0,.88a1.79,1.79,0,1,0-1.83-1.78,1.78,1.78,0,0,0,1.83,1.78m-5-3.74a.9.9,0,0,1-.92-.91.92.92,0,0,1,1.83,0,.9.9,0,0,1-.91.91m0,3.67h1l4.08-6.3h-1Zm0-2.79a1.79,1.79,0,1,0-1.84-1.79,1.79,1.79,0,0,0,1.84,1.79M249.69,239c-.92,0-1.37-.86-1.37-2.15s.45-2.15,1.37-2.15,1.37.85,1.37,2.15-.44,2.15-1.37,2.15m0,1.12c1.68,0,2.6-1.39,2.6-3.27s-.92-3.28-2.6-3.28-2.61,1.39-2.61,3.28.94,3.27,2.61,3.27"/><path class="cls-3" d="M397.27,239.23a.89.89,0,0,1-.91-.9.92.92,0,0,1,1.83,0,.89.89,0,0,1-.92.9m0,.88a1.79,1.79,0,1,0-1.83-1.78,1.79,1.79,0,0,0,1.83,1.78m-5-3.74a.9.9,0,0,1-.92-.91.92.92,0,0,1,1.84,0,.91.91,0,0,1-.92.91m0,3.67h1l4.08-6.3h-.95Zm0-2.79a1.79,1.79,0,1,0-1.84-1.79,1.79,1.79,0,0,0,1.84,1.79M387,239c-.93,0-1.38-.86-1.38-2.15s.45-2.15,1.38-2.15,1.37.85,1.37,2.15S388,239,387,239m0,1.12c1.67,0,2.6-1.39,2.6-3.27s-.93-3.28-2.6-3.28-2.61,1.39-2.61,3.28.93,3.27,2.61,3.27m-5.46-4.23a2.69,2.69,0,0,0-1.08.22l.1-1.31h2.78v-1.1h-3.87l-.27,3.24,1,.29a1.82,1.82,0,0,1,1.11-.36,1.09,1.09,0,1,1,0,2.17,1.33,1.33,0,0,1-1.24-1l-1.11.31a2.36,2.36,0,0,0,2.42,1.73,2.16,2.16,0,0,0,2.28-2.15,2,2,0,0,0-2.1-2.08"/><path class="cls-3" d="M534.06,239.23a.89.89,0,0,1-.91-.9.92.92,0,0,1,1.83,0,.89.89,0,0,1-.92.9m0,.88a1.79,1.79,0,1,0-1.83-1.78,1.78,1.78,0,0,0,1.83,1.78m-5-3.74a.9.9,0,0,1-.92-.91.92.92,0,0,1,1.83,0,.9.9,0,0,1-.91.91m0,3.67h1l4.08-6.3h-1Zm0-2.79a1.79,1.79,0,1,0-1.84-1.79,1.79,1.79,0,0,0,1.84,1.79M523.82,239c-.92,0-1.37-.86-1.37-2.15s.45-2.15,1.37-2.15,1.37.85,1.37,2.15-.44,2.15-1.37,2.15m0,1.12c1.68,0,2.6-1.39,2.6-3.27s-.92-3.28-2.6-3.28-2.61,1.39-2.61,3.28.94,3.27,2.61,3.27M517.89,239c-.92,0-1.37-.86-1.37-2.15s.45-2.15,1.37-2.15,1.37.85,1.37,2.15-.44,2.15-1.37,2.15m0,1.12c1.68,0,2.6-1.39,2.6-3.27s-.92-3.28-2.6-3.28-2.61,1.39-2.61,3.28.94,3.27,2.61,3.27m-4.78-6.42-1.9,1,.29,1.05,1.42-.65V240h1.25v-6.3Z"/><path class="cls-3" d="M460.29,22.59l1.5-3.82,1.49,3.82Zm4.18,3.06h1.31l-3.2-8.07H461l-3.19,8.07h1.3l.77-2h3.84ZM451.78,18.7h2.56a1.43,1.43,0,1,1,0,2.85h-2.53Zm4,7h1.43l-2.08-3.1A2.47,2.47,0,0,0,457,20.13a2.56,2.56,0,0,0-2.65-2.55h-3.84v8.07h1.24v-3h2ZM449,18.71V17.58h-5.81v8.07H449V24.51h-4.57V22.09h4V21h-4v-2.3Zm-12.59,0H439a1.43,1.43,0,1,1,0,2.85h-2.53Zm4,7h1.44l-2.08-3.1a2.47,2.47,0,0,0,1.88-2.42,2.56,2.56,0,0,0-2.65-2.55h-3.84v8.07h1.24v-3h2Zm-12-6.95H431a1.43,1.43,0,1,1,0,2.85h-2.52Zm4,7h1.44l-2.08-3.1a2.46,2.46,0,0,0,1.87-2.42A2.56,2.56,0,0,0,431,17.58h-3.83v8.07h1.24v-3h2Zm-11.76-3.06,1.5-3.82,1.49,3.82Zm4.19,3.06h1.3L423,17.58h-1.6l-3.2,8.07h1.31l.77-2h3.84ZM414,25.8a3.87,3.87,0,0,0,3.82-2.5L416.56,23a2.67,2.67,0,0,1-2.62,1.64,2.91,2.91,0,0,1-2.93-3,2.88,2.88,0,0,1,2.93-3,2.72,2.72,0,0,1,2.63,1.66l1.21-.3a3.88,3.88,0,0,0-3.84-2.53,4.19,4.19,0,1,0,0,8.37m-13.66-7.1h2.56a1.43,1.43,0,1,1,0,2.85h-2.53Zm4,7h1.44l-2.08-3.1a2.47,2.47,0,0,0,1.88-2.42,2.56,2.56,0,0,0-2.65-2.55h-3.84v8.07h1.24v-3h2Zm-10.82-1a2.91,2.91,0,0,1-3-3.06,2.95,2.95,0,1,1,5.89,0,2.91,2.91,0,0,1-2.94,3.06m0,1.15a4.19,4.19,0,1,0-4.21-4.2,4.11,4.11,0,0,0,4.21,4.2m-7.87-3.94h-2.34V18.71h2.4a1.58,1.58,0,0,1-.06,3.15m.08-4.28H382v8.07h1.25V23h2.36a2.71,2.71,0,1,0,.06-5.41m-12.27,7.07a2.91,2.91,0,0,1-2.95-3.06,2.95,2.95,0,1,1,5.89,0,2.91,2.91,0,0,1-2.94,3.06m0,1.15a4.19,4.19,0,1,0-4.2-4.2,4.11,4.11,0,0,0,4.2,4.2m-4.48-.15-3-4.07,2.92-4h-1.51l-2.25,3.08-2.26-3.08h-1.51l2.92,4-3,4.07h1.51l2.33-3.15,2.32,3.15Zm-8.53-6.94V17.58H354.6v8.07h5.8V24.51h-4.57V22.09h4V21h-4v-2.3ZM350,25.8c1.89,0,3.16-1.09,3.16-2.44s-.86-1.77-2.11-2.16l-2-.63c-.73-.22-1-.5-1-1s.62-1.07,1.54-1.07a2.4,2.4,0,0,1,2.22,1.24l1.16-.34a3.52,3.52,0,0,0-3.38-2c-1.63,0-2.79,1-2.79,2.21,0,1,.73,1.64,1.81,2l2,.64c.94.3,1.28.65,1.28,1.18s-.72,1.25-1.84,1.25A2.58,2.58,0,0,1,347.57,23l-1.19.36A3.73,3.73,0,0,0,350,25.8m-13-7.1h2.56a1.43,1.43,0,1,1,0,2.85H337Zm4,7h1.44l-2.08-3.1a2.46,2.46,0,0,0,1.87-2.42,2.56,2.56,0,0,0-2.65-2.55h-3.83v8.07H337v-3h2Zm-10.82-1a2.91,2.91,0,0,1-2.95-3.06,2.95,2.95,0,1,1,5.89,0,2.91,2.91,0,0,1-2.94,3.06m0,1.15A4.19,4.19,0,1,0,326,21.6a4.1,4.1,0,0,0,4.21,4.2m-7.87-3.94H320V18.71h2.4a1.58,1.58,0,0,1-.05,3.15m.08-4.28h-3.67v8.07H320V23h2.37a2.71,2.71,0,1,0,.06-5.41m-13.2,5,1.5-3.82,1.48,3.82Zm4.18,3.06h1.3l-3.19-8.07h-1.6l-3.19,8.07H308l.77-2h3.84ZM301.85,24.5V17.58H300.6v8.07h5.49V24.5Zm-4.16-6.92v4.79a2.15,2.15,0,1,1-4.29,0V17.58h-1.25v4.81a3.41,3.41,0,1,0,6.81,0V17.58ZM287.05,25.8a3.87,3.87,0,0,0,3.82-2.5L289.66,23A2.67,2.67,0,0,1,287,24.63a2.92,2.92,0,0,1-2.93-3,2.89,2.89,0,0,1,2.93-3,2.72,2.72,0,0,1,2.63,1.66l1.21-.3A3.88,3.88,0,0,0,287,17.43a4.19,4.19,0,1,0,0,8.37m-6.84-.15h1.26V17.58h-1.26Zm0-9h1.08l1.17-1.59h-1.35Zm-6.76,2H276a1.43,1.43,0,1,1,0,2.85h-2.52Zm4,7h1.44l-2.09-3.1a2.46,2.46,0,0,0,1.88-2.42A2.56,2.56,0,0,0,276,17.58h-3.84v8.07h1.25v-3h2Zm-6.35-8.07h-6.94v1.13H267v6.94h1.25V18.71h2.84Zm-11.83,5,1.5-3.82,1.49,3.82Zm4.19,3.06h1.3l-3.19-8.07H260l-3.19,8.07h1.3l.78-2h3.83Zm-8.9-8.07-2.82,4.06-2.82-4.06h-1.2v8.07H249v-5.9l2.75,3.87,2.77-3.87v5.9h1.25V17.58Z"/><path class="cls-4" d="M533.64,129.06s-5,0-5,5v3s0,5,5,5h3s5,0,5-5v-3s0-5-5-5Z"/><path class="cls-5" d="M533.64,76.42s-5,0-5,5v3s0,5,5,5h3s5,0,5-5v-3s0-5-5-5Z"/><path class="cls-6" d="M596.59,150.07a1.77,1.77,0,1,1,1.71-1.76,1.69,1.69,0,0,1-1.71,1.76m0,1a2.75,2.75,0,1,0-2.77-2.75,2.69,2.69,0,0,0,2.77,2.75m-5.93-5.49a2.12,2.12,0,0,0-1.8.91v-.78h-1.09v5.23h1.09v-2.6a1.54,1.54,0,0,1,1.51-1.74c.85,0,1.29.56,1.29,1.47v2.87h1.07v-3.07c0-1.41-.73-2.29-2.07-2.29m-1-1.22c.34,0,.78.58,1.36.58s.91-.52.91-1.35h-.74c0,.38-.09.54-.26.54-.36,0-.78-.58-1.36-.58s-.93.53-.93,1.35h.76c0-.38.08-.54.26-.54m-6.12,5.74a1.78,1.78,0,0,1,0-3.55,1.78,1.78,0,0,1,0,3.55m-.17,1a2.22,2.22,0,0,0,1.88-.92v.79h1.08v-5.23h-1.08v.79a2.22,2.22,0,0,0-1.88-.92,2.75,2.75,0,0,0,0,5.49m-7.66-4.53v-.82h-1.09v5.22h1.09v-2.36c0-1.52.68-2.08,1.79-1.91v-1a1.63,1.63,0,0,0-1.79.89m-6.49,1.39a1.58,1.58,0,0,1,1.62-1.42,1.48,1.48,0,0,1,1.59,1.41Zm1.71,3.14a2.67,2.67,0,0,0,2.51-1.48l-1-.29a1.75,1.75,0,0,1-3.22-.64h4.25a3.15,3.15,0,0,0,0-.44,2.51,2.51,0,0,0-2.66-2.64,2.75,2.75,0,0,0,.09,5.49M565,145.56a2.12,2.12,0,0,0-1.83.89,1.7,1.7,0,0,0-1.61-.89,2,2,0,0,0-1.64.86v-.73h-1.09v5.23h1.09v-2.64c0-1.05.51-1.7,1.34-1.7s1.14.55,1.14,1.42v2.92h1.07v-2.73c0-1,.5-1.61,1.31-1.61s1.18.55,1.18,1.42v2.92h1.09v-3.13a2,2,0,0,0-2-2.23m-8.73,5.36h1.08v-5.23h-1.08Zm.55-6.08a.67.67,0,1,0,0-1.34.67.67,0,1,0,0,1.34m-3.33,1.68v-.82h-1.09v5.22h1.09v-2.36c0-1.52.68-2.08,1.79-1.91v-1a1.63,1.63,0,0,0-1.79.89m-5,3.56a1.78,1.78,0,0,1,0-3.55,1.78,1.78,0,0,1,0,3.55m.17-4.52a2.22,2.22,0,0,0-1.87.92v-.79h-1.09v7.41h1.09v-3a2.22,2.22,0,0,0,1.87.92,2.75,2.75,0,0,0,0-5.49"/><path class="cls-6" d="M657.17,138.59c1.29,0,2.19-.71,2.19-1.64s-.63-1.22-1.37-1.43l-1.39-.4c-.36-.11-.56-.26-.56-.52s.36-.63.91-.63a1.43,1.43,0,0,1,1.31.72l1-.28a2.32,2.32,0,0,0-2.26-1.32,1.8,1.8,0,0,0-2,1.52c0,.75.55,1.13,1.24,1.34l1.4.42c.47.13.68.3.68.62s-.43.71-1.09.71a1.56,1.56,0,0,1-1.51-1l-1,.29a2.51,2.51,0,0,0,2.46,1.59m-5.88-1a1.76,1.76,0,1,1,1.71-1.75,1.69,1.69,0,0,1-1.71,1.75m0,1a2.75,2.75,0,1,0-2.77-2.75,2.69,2.69,0,0,0,2.77,2.75m-6.69-1a1.77,1.77,0,0,1,0-3.54,1.77,1.77,0,0,1,0,3.54m1.7-6.74V134a2.22,2.22,0,0,0-1.88-.93,2.75,2.75,0,0,0,0,5.5,2.21,2.21,0,0,0,1.88-.92v.78h1.08v-7.58Zm-8.39,6.74a1.77,1.77,0,0,1,0-3.54,1.77,1.77,0,0,1,0,3.54m-.18,1a2.2,2.2,0,0,0,1.88-.92v.78h1.08v-5.22h-1.08V134a2.2,2.2,0,0,0-1.88-.93,2.75,2.75,0,0,0,0,5.5m-4.82-.14H634v-7.58h-1.09Zm-2.53-5.22v2.6a1.54,1.54,0,0,1-1.51,1.74c-.85,0-1.29-.56-1.29-1.47v-2.87H626.5v3.06c0,1.42.74,2.3,2.07,2.3a2.15,2.15,0,0,0,1.81-.92v.78h1.08v-5.22ZM623,138.59a2.46,2.46,0,0,0,2.47-1.63l-1-.28a1.5,1.5,0,0,1-1.47.93,1.77,1.77,0,0,1,0-3.54,1.53,1.53,0,0,1,1.47,1l1-.29a2.48,2.48,0,0,0-2.48-1.66,2.75,2.75,0,0,0,0,5.5m-5-.14h1.08v-5.22H618Zm.55-6.07a.67.67,0,1,0-.69-.68.67.67,0,0,0,.69.68m-3.33,1.68v-.83H614.1v5.22h1.09v-2.36c0-1.51.68-2.07,1.79-1.91v-1a1.62,1.62,0,0,0-1.79.89m-2.43,3.34a1.48,1.48,0,0,1-.68.16c-.5,0-.75-.29-.75-.8v-2.57H613v-1h-1.66v-1.75h-1.08v1.75h-1v1h1v2.57c0,1.07.51,1.78,1.63,1.78a2.9,2.9,0,0,0,1.15-.25Zm-7.16.21a1.77,1.77,0,0,1,0-3.54,1.77,1.77,0,0,1,0,3.54m-.18,1a2.22,2.22,0,0,0,1.88-.92v.78h1.08v-5.22H607.3V134a2.23,2.23,0,0,0-1.88-.93,2.75,2.75,0,0,0,0,5.5m-5.72-5.5a2.1,2.1,0,0,0-1.83.9,1.7,1.7,0,0,0-1.61-.9,1.93,1.93,0,0,0-1.64.87v-.73h-1.09v5.22h1.09v-2.64c0-1,.5-1.7,1.34-1.7s1.13.55,1.13,1.42v2.92h1.08v-2.73c0-1,.5-1.61,1.31-1.61s1.17.55,1.17,1.42v2.92h1.09v-3.12a2,2,0,0,0-2-2.24m-12.17,5.5c1.29,0,2.19-.71,2.19-1.64s-.63-1.22-1.37-1.43l-1.39-.4c-.35-.11-.56-.26-.56-.52s.36-.63.91-.63a1.4,1.4,0,0,1,1.31.72l1-.28a2.32,2.32,0,0,0-2.27-1.32,1.8,1.8,0,0,0-2,1.52c0,.75.55,1.13,1.25,1.34l1.4.42c.47.13.67.3.67.62s-.42.71-1.09.71a1.54,1.54,0,0,1-1.5-1l-1,.29a2.52,2.52,0,0,0,2.46,1.59m-7.38-3.14a1.57,1.57,0,0,1,1.62-1.42,1.49,1.49,0,0,1,1.59,1.41Zm1.71,3.14a2.65,2.65,0,0,0,2.5-1.49l-1-.29a1.75,1.75,0,0,1-3.22-.63h4.24a2.18,2.18,0,0,0,0-.44,2.52,2.52,0,0,0-2.66-2.65,2.75,2.75,0,0,0,.09,5.5m-4.9-4.53v-.83h-1.09v5.22H577v-2.36c0-1.51.67-2.07,1.78-1.91v-1a1.61,1.61,0,0,0-1.78.89m-5,3.55a1.77,1.77,0,0,1,0-3.54,1.77,1.77,0,0,1,0,3.54m.18-4.52a2.21,2.21,0,0,0-1.87.93v-3.15h-1.09v7.58h1.09v-.78a2.2,2.2,0,0,0,1.87.92,2.75,2.75,0,0,0,0-5.5m-6.41,0a2.12,2.12,0,0,0-1.83.9,1.7,1.7,0,0,0-1.61-.9,1.93,1.93,0,0,0-1.64.87v-.73h-1.09v5.22h1.09v-2.64c0-1,.51-1.7,1.34-1.7s1.13.55,1.13,1.42v2.92h1.08v-2.73c0-1,.5-1.61,1.31-1.61s1.18.55,1.18,1.42v2.92h1.09v-3.12a2,2,0,0,0-2-2.24m-10.07,4.51a1.76,1.76,0,1,1,1.72-1.75,1.69,1.69,0,0,1-1.72,1.75m0,1a2.75,2.75,0,1,0-2.77-2.75,2.69,2.69,0,0,0,2.77,2.75m-5-7.41v3.06h-3.78v-3.06h-1.14v7.27h1.14v-3.2h3.78v3.2h1.12v-7.27Z"/><path class="cls-6" d="M597.52,96.25a1.77,1.77,0,1,1,1.72-1.76,1.69,1.69,0,0,1-1.72,1.76m0,1a2.75,2.75,0,1,0-2.77-2.75,2.69,2.69,0,0,0,2.77,2.75m-6-5.49a2.14,2.14,0,0,0-1.8.91v-.78H588.6V97.1h1.09V94.5a1.54,1.54,0,0,1,1.51-1.74c.85,0,1.29.56,1.29,1.47V97.1h1.08V94a2,2,0,0,0-2.08-2.29m-1-1.22c.34,0,.78.58,1.36.58s.92-.53.92-1.36H592c0,.39-.08.54-.26.54-.35,0-.78-.57-1.36-.57s-.93.53-.93,1.35h.76c0-.38.08-.54.26-.54m-6.22,5.74a1.78,1.78,0,0,1,0-3.55,1.78,1.78,0,0,1,0,3.55m-.18,1a2.21,2.21,0,0,0,1.88-.92v.79H587V91.87H586v.79a2.21,2.21,0,0,0-1.88-.92,2.75,2.75,0,0,0,0,5.49m-7.86-4.53v-.82h-1.09V97.1h1.09V94.74c0-1.52.67-2.08,1.79-1.91v-1a1.63,1.63,0,0,0-1.79.89m-6.6,1.39a1.59,1.59,0,0,1,1.62-1.42,1.48,1.48,0,0,1,1.59,1.41Zm1.72,3.14a2.66,2.66,0,0,0,2.5-1.48l-1-.29a1.54,1.54,0,0,1-1.48.84,1.59,1.59,0,0,1-1.74-1.48h4.25a3.15,3.15,0,0,0,0-.44,2.51,2.51,0,0,0-2.66-2.64,2.75,2.75,0,0,0,.1,5.49m-6-5.49a2.09,2.09,0,0,0-1.82.89,1.72,1.72,0,0,0-1.61-.89,2,2,0,0,0-1.65.86v-.73h-1.09V97.1h1.09V94.46c0-1,.51-1.7,1.34-1.7s1.14.55,1.14,1.42V97.1h1.08V94.37c0-1,.5-1.61,1.31-1.61s1.17.55,1.17,1.42V97.1h1.09V94a2,2,0,0,0-2-2.23m-8.84,5.36h1.08V91.87h-1.08ZM557,91a.67.67,0,1,0-.68-.67A.67.67,0,0,0,557,91m-3.42,1.68v-.82h-1.09V97.1h1.09V94.74c0-1.52.67-2.08,1.78-1.91v-1a1.62,1.62,0,0,0-1.78.89m-5.1,3.56a1.78,1.78,0,0,1,0-3.55,1.78,1.78,0,0,1,0,3.55m.17-4.52a2.22,2.22,0,0,0-1.87.92v-.79h-1.09v7.41h1.09v-3a2.22,2.22,0,0,0,1.87.92,2.75,2.75,0,0,0,0-5.49"/><path class="cls-6" d="M653.13,84.77c1.29,0,2.19-.71,2.19-1.64s-.63-1.22-1.37-1.43l-1.39-.4c-.36-.12-.57-.26-.57-.52s.37-.63.92-.63a1.43,1.43,0,0,1,1.31.72l1-.28a2.32,2.32,0,0,0-2.26-1.32,1.8,1.8,0,0,0-2,1.52c0,.75.55,1.13,1.24,1.34l1.4.42c.47.13.68.3.68.62s-.43.71-1.09.71a1.56,1.56,0,0,1-1.51-1l-1,.29a2.51,2.51,0,0,0,2.46,1.59m-6.33-1a1.77,1.77,0,0,1,0-3.54,1.77,1.77,0,0,1,0,3.54m-.18,1a2.24,2.24,0,0,0,1.89-.93v.79h1.07V79.41h-1.07v.79a2.24,2.24,0,0,0-1.89-.93,2.75,2.75,0,0,0,0,5.5m-6.61-1a1.77,1.77,0,0,1,0-3.54,1.77,1.77,0,0,1,0,3.54m1.7-6.74V80.2a2.22,2.22,0,0,0-1.88-.93,2.75,2.75,0,0,0,0,5.5,2.22,2.22,0,0,0,1.88-.93v.79h1.08V77.05Zm-8.5,6.74a1.77,1.77,0,0,1,0-3.54,1.77,1.77,0,0,1,0,3.54m-.17,1a2.23,2.23,0,0,0,1.88-.93v.79H636V79.41h-1.08v.79a2.23,2.23,0,0,0-1.88-.93,2.75,2.75,0,0,0,0,5.5m-4.93-.14h1.09V77.05h-1.09Zm-2.63-5.22V82A1.55,1.55,0,0,1,624,83.75c-.85,0-1.29-.56-1.29-1.47V79.41h-1.09v3.06a2,2,0,0,0,2.08,2.3,2.15,2.15,0,0,0,1.81-.93v.79h1.08V79.41Zm-7.54,5.36a2.47,2.47,0,0,0,2.48-1.63l-1-.28a1.5,1.5,0,0,1-1.47.93,1.77,1.77,0,0,1,0-3.54,1.53,1.53,0,0,1,1.47,1l1-.3a2.5,2.5,0,0,0-2.49-1.65,2.75,2.75,0,0,0,0,5.5m-5.08-.14h1.08V79.41h-1.08Zm.55-6.07a.67.67,0,1,0-.69-.68.67.67,0,0,0,.69.68M610,80.24v-.83h-1.09v5.22H610V82.27c0-1.51.67-2.07,1.78-1.91v-1a1.61,1.61,0,0,0-1.78.89m-2.54,3.33a1.37,1.37,0,0,1-.68.17c-.5,0-.75-.29-.75-.8V80.37h1.66v-1H606V77.66h-1.08v1.75H604v1h.95v2.57c0,1.07.51,1.78,1.63,1.78a2.87,2.87,0,0,0,1.15-.25Zm-7.27.22a1.77,1.77,0,0,1,0-3.54,1.77,1.77,0,0,1,0,3.54m-.17,1a2.23,2.23,0,0,0,1.88-.93v.79H603V79.41h-1.08v.79a2.23,2.23,0,0,0-1.88-.93,2.75,2.75,0,0,0,0,5.5m-5.83-5.5a2.12,2.12,0,0,0-1.83.9,1.7,1.7,0,0,0-1.61-.9,1.94,1.94,0,0,0-1.64.86v-.72H588v5.22h1.09V82c0-1,.51-1.7,1.34-1.7s1.13.55,1.13,1.42v2.92h1.08V81.9c0-1,.5-1.61,1.31-1.61s1.18.55,1.18,1.42v2.92h1.08V81.51a2,2,0,0,0-2-2.24m-12.37,5.5c1.29,0,2.19-.71,2.19-1.64s-.63-1.22-1.37-1.43l-1.39-.4c-.36-.12-.57-.26-.57-.52s.37-.63.92-.63a1.43,1.43,0,0,1,1.31.72l1-.28a2.32,2.32,0,0,0-2.26-1.32,1.8,1.8,0,0,0-2,1.52c0,.75.55,1.13,1.24,1.34l1.4.42c.47.13.68.3.68.62s-.43.71-1.09.71a1.56,1.56,0,0,1-1.51-1l-1,.29a2.51,2.51,0,0,0,2.46,1.59m-7.49-3.14a1.57,1.57,0,0,1,1.62-1.42,1.48,1.48,0,0,1,1.59,1.41ZM576,84.77a2.67,2.67,0,0,0,2.51-1.49l-1-.29a1.75,1.75,0,0,1-3.22-.63h4.25a3.25,3.25,0,0,0,0-.44,2.52,2.52,0,0,0-2.66-2.65,2.75,2.75,0,0,0,.09,5.5m-5-4.53v-.83h-1.09v5.22H571V82.27c0-1.51.67-2.07,1.78-1.91v-1a1.61,1.61,0,0,0-1.78.89m-6.6,1.39A1.58,1.58,0,0,1,566,80.21a1.48,1.48,0,0,1,1.59,1.41Zm1.71,3.14a2.65,2.65,0,0,0,2.51-1.49l-1-.29a1.75,1.75,0,0,1-3.22-.63h4.25a3.25,3.25,0,0,0,0-.44A2.52,2.52,0,0,0,566,79.27a2.75,2.75,0,0,0,.09,5.5M561,85c0,.59-.23,1-.73,1a1,1,0,0,1-.53-.16l-.25.87a2.18,2.18,0,0,0,.91.21c1.16,0,1.68-.77,1.68-2V79.41H561Zm.55-6.48a.67.67,0,1,0-.68-.68.67.67,0,0,0,.68.68m-3.2.85V82a1.54,1.54,0,0,1-1.5,1.74c-.85,0-1.29-.56-1.29-1.47V79.41h-1.09v3.06a2,2,0,0,0,2.08,2.3,2.11,2.11,0,0,0,1.8-.93v.79h1.08V79.41Zm-6.47-2L549.35,81l-2.55-3.66h-1.08v7.27h1.13V79.32l2.49,3.48,2.49-3.48v5.31H553V77.36Z"/><line class="cls-1" x1="386.26" y1="44.15" x2="386.26" y2="229.13"/><line class="cls-1" x1="252.82" y1="44.15" x2="252.82" y2="229.13"/><line class="cls-1" x1="524.26" y1="44.15" x2="524.26" y2="229.13"/><rect class="cls-5" x="253.17" y="47.21" width="132.73" height="8.83"/><rect class="cls-4" x="386.4" y="47.21" width="137.29" height="8.83"/><text class="cls-7" transform="translate(198.14 54.99)"><tspan class="cls-8">S</tspan><tspan class="cls-9" x="7" y="0">e</tspan><tspan class="cls-10" x="13.25" y="0">r</tspan><tspan class="cls-8" x="17.29" y="0">v</tspan><tspan class="cls-11" x="23.18" y="0">ic</tspan><tspan class="cls-12" x="31.99" y="0">i</tspan><tspan class="cls-9" x="34.67" y="0">o</tspan><tspan x="41.12" y="0">s</tspan></text><text class="cls-13" transform="translate(321.23 55.39)">5<tspan class="cls-14" x="4.82" y="0">0</tspan><tspan class="cls-15" x="10.1" y="0">%</tspan></text><text class="cls-16" transform="translate(444.91 55.39)"><tspan class="cls-14">50</tspan><tspan x="10.1" y="0">%</tspan></text><rect class="cls-4" x="472.72" y="70.63" width="50.98" height="8.83"/><rect class="cls-5" x="253.17" y="70.63" width="219.54" height="8.83"/><text class="cls-16" transform="translate(360.26 78.43)"><tspan class="cls-17">8</tspan><tspan class="cls-18" x="4.94" y="0">2</tspan><tspan x="9.7" y="0">%</tspan></text><text class="cls-16" transform="translate(490.2 78.43)"><tspan class="cls-14">1</tspan><tspan class="cls-19" x="3.49" y="0">8</tspan><tspan x="8.46" y="0">%</tspan></text><text class="cls-7" transform="translate(110.82 78.98)"><tspan class="cls-8">S</tspan><tspan class="cls-11" x="7" y="0">alud </tspan><tspan class="cls-8" x="32.44" y="0">y</tspan><tspan class="cls-11" x="38.41" y="0"> </tspan><tspan class="cls-8" x="41.14" y="0">S</tspan><tspan class="cls-9" x="48.14" y="0">e</tspan><tspan class="cls-10" x="54.4" y="0">r</tspan><tspan class="cls-8" x="58.44" y="0">v</tspan><tspan class="cls-11" x="64.33" y="0">icio</tspan><tspan class="cls-12" x="82.28" y="0">s</tspan><tspan class="cls-9" x="87.72" y="0"> </tspan><tspan class="cls-8" x="90.45" y="0">S</tspan><tspan class="cls-11" x="97.45" y="0">oc</tspan><tspan class="cls-12" x="110.02" y="0">i</tspan><tspan class="cls-11" x="112.7" y="0">ale</tspan><tspan x="128.4" y="0">s</tspan></text><rect class="cls-4" x="281.5" y="94.63" width="242.19" height="8.83"/><rect class="cls-5" x="253.17" y="94.63" width="28.33" height="8.83"/><text class="cls-16" transform="translate(264.61 102.42)"><tspan class="cls-18">1</tspan><tspan class="cls-20" x="3.48" y="0">1</tspan><tspan x="6.97" y="0">%</tspan></text><text class="cls-16" transform="translate(391.6 102.42)"><tspan class="cls-18">8</tspan><tspan class="cls-21" x="4.97" y="0">9</tspan><tspan x="9.9" y="0">%</tspan></text><text class="cls-7" transform="translate(62.24 102.98)"><tspan class="cls-11">In</tspan><tspan class="cls-8" x="9.17" y="0">g</tspan><tspan class="cls-9" x="15.93" y="0">en</tspan><tspan class="cls-12" x="28.66" y="0">i</tspan><tspan class="cls-11" x="31.34" y="0">e</tspan><tspan class="cls-12" x="37.59" y="0">r</tspan><tspan class="cls-11" x="41.53" y="0">ía, Indu</tspan><tspan x="78.91" y="0">s</tspan><tspan class="cls-11" x="84.26" y="0">t</tspan><tspan class="cls-12" x="88.63" y="0">r</tspan><tspan class="cls-11" x="92.57" y="0">ia </tspan><tspan class="cls-12" x="104.79" y="0">y</tspan><tspan class="cls-11" x="110.76" y="0"> </tspan><tspan class="cls-22" x="113.49" y="0">C</tspan><tspan class="cls-11" x="121.58" y="0">on</tspan><tspan class="cls-23" x="134.5" y="0">s</tspan><tspan class="cls-11" x="139.85" y="0">t</tspan><tspan class="cls-24" x="144.23" y="0">r</tspan><tspan class="cls-11" x="148.14" y="0">uc</tspan><tspan class="cls-8" x="160.73" y="0">c</tspan><tspan class="cls-9" x="166.84" y="0">ió</tspan><tspan x="175.98" y="0">n</tspan></text><rect class="cls-4" x="381.72" y="118.62" width="141.97" height="8.83"/><rect class="cls-5" x="253.17" y="118.62" width="128.55" height="8.83"/><text class="cls-16" transform="translate(455.04 126.52)">5<tspan class="cls-14" x="4.75" y="0">2</tspan><tspan x="9.52" y="0">%</tspan></text><text class="cls-16" transform="translate(308.75 126.52)"><tspan class="cls-14">48</tspan><tspan x="9.96" y="0">%</tspan></text><text class="cls-7" transform="translate(134.07 127.08)"><tspan class="cls-11">Hu</tspan><tspan class="cls-12" x="14.06" y="0">ma</tspan><tspan class="cls-11" x="30.56" y="0">nida</tspan><tspan class="cls-12" x="53.31" y="0">d</tspan><tspan class="cls-11" x="60.09" y="0">es </tspan><tspan class="cls-25" x="74.53" y="0">y</tspan><tspan class="cls-11" x="80.5" y="0" xml:space="preserve"> A</tspan><tspan class="cls-26" x="90.7" y="0">r</tspan><tspan class="cls-27" x="94.85" y="0">t</tspan><tspan class="cls-12" x="98.94" y="0">e</tspan><tspan x="105.18" y="0">s</tspan></text><rect class="cls-4" x="516.09" y="142.72" width="7.61" height="8.83"/><rect class="cls-5" x="253.17" y="142.72" width="262.91" height="8.83"/><text class="cls-16" transform="translate(379.65 150.78)"><tspan class="cls-17">9</tspan><tspan class="cls-28" x="4.74" y="0">7</tspan><tspan x="9.22" y="0">%</tspan></text><text class="cls-16" transform="translate(514.21 150.78)"><tspan class="cls-29">3</tspan><tspan x="4.73" y="0">%</tspan></text><text class="cls-30" transform="translate(190.42 151.07)">E<tspan class="cls-11" x="6.43" y="0">ducac</tspan><tspan class="cls-12" x="38.72" y="0">i</tspan><tspan class="cls-9" x="41.4" y="0">ó</tspan><tspan class="cls-31" x="47.85" y="0">n</tspan></text><rect class="cls-5" x="253.17" y="166.71" width="158.03" height="8.83"/><rect class="cls-4" x="411.2" y="166.71" width="112.49" height="8.83"/><text class="cls-16" transform="translate(313.39 174.51)"><tspan class="cls-32">5</tspan><tspan class="cls-14" x="4.82" y="0">8</tspan><tspan x="9.8" y="0">%</tspan></text><text class="cls-16" transform="translate(454.71 174.51)"><tspan class="cls-14">4</tspan><tspan class="cls-19" x="4.98" y="0">2</tspan><tspan x="9.74" y="0">%</tspan></text><text class="cls-7" transform="translate(17.76 175.06)"><tspan class="cls-12">C</tspan><tspan class="cls-11" x="8.17" y="0">ienc</tspan><tspan class="cls-12" x="29.71" y="0">i</tspan><tspan class="cls-11" x="32.39" y="0">a</tspan><tspan class="cls-12" x="39.18" y="0">s</tspan><tspan class="cls-9" x="44.62" y="0"> </tspan><tspan class="cls-8" x="47.35" y="0">S</tspan><tspan class="cls-11" x="54.36" y="0">oci</tspan><tspan class="cls-12" x="69.61" y="0">a</tspan><tspan class="cls-11" x="76.4" y="0">le</tspan><tspan x="85.3" y="0">s</tspan><tspan class="cls-11" x="90.65" y="0">, </tspan><tspan class="cls-8" x="96.15" y="0">E</tspan><tspan class="cls-11" x="102.73" y="0">n</tspan><tspan class="cls-33" x="109.2" y="0">s</tspan><tspan class="cls-9" x="114.56" y="0">eñ</tspan><tspan class="cls-8" x="127.28" y="0">a</tspan><tspan class="cls-34" x="134.07" y="0">n</tspan><tspan class="cls-35" x="140.49" y="0">z</tspan><tspan class="cls-8" x="145.81" y="0">a</tspan><tspan class="cls-9" x="152.6" y="0"> </tspan><tspan class="cls-33" x="155.33" y="0">C</tspan><tspan class="cls-11" x="163.42" y="0">o</tspan><tspan class="cls-12" x="169.87" y="0">m</tspan><tspan class="cls-9" x="179.58" y="0">e</tspan><tspan class="cls-36" x="185.84" y="0">r</tspan><tspan class="cls-9" x="189.47" y="0">ci</tspan><tspan class="cls-12" x="198.28" y="0">a</tspan><tspan class="cls-11" x="205.06" y="0">l </tspan><tspan class="cls-12" x="210.44" y="0">y</tspan><tspan class="cls-11" x="216.42" y="0" xml:space="preserve"> ..</tspan><tspan x="224.3" y="0">.</tspan></text><rect class="cls-5" x="253.17" y="190.7" width="32.17" height="8.83"/><rect class="cls-4" x="285.35" y="190.7" width="238.35" height="8.83"/><text class="cls-16" transform="translate(263.07 198.5)"><tspan class="cls-32">1</tspan><tspan class="cls-14" x="3.48" y="0">2</tspan><tspan x="8.25" y="0">%</tspan></text><text class="cls-16" transform="translate(441.88 198.5)"><tspan class="cls-37">8</tspan><tspan class="cls-18" x="4.98" y="0">8</tspan><tspan x="9.94" y="0">%</tspan></text><text class="cls-38" transform="translate(200.1 199.05)">C<tspan class="cls-11" x="8.17" y="0">ienci</tspan><tspan class="cls-8" x="32.4" y="0">a</tspan><tspan class="cls-23" x="39.18" y="0">s</tspan></text><rect class="cls-5" x="253.17" y="214.7" width="119.76" height="8.83"/><rect class="cls-4" x="372.94" y="214.7" width="150.76" height="8.83"/><text class="cls-16" transform="translate(324.8 222.74)"><tspan class="cls-14">4</tspan><tspan x="4.98" y="0">5%</tspan></text><text class="cls-16" transform="translate(460.32 222.74)"><tspan class="cls-14">5</tspan><tspan x="4.83" y="0">5%</tspan></text><text class="cls-39" transform="translate(187.55 223.05)">A<tspan class="cls-8" x="7.34" y="0">gr</tspan><tspan class="cls-11" x="18.04" y="0">icul</tspan><tspan class="cls-40" x="35.97" y="0">t</tspan><tspan class="cls-11" x="40.29" y="0">u</tspan><tspan class="cls-41" x="46.76" y="0">r</tspan><tspan class="cls-23" x="50.41" y="0">a</tspan></text></g></g></svg>