<svg xmlns="http://www.w3.org/2000/svg" viewBox="0 0 315.78 168.24"><defs><style>.cls-1,.cls-15{font-size:11.53px;}.cls-1,.cls-12,.cls-15{fill:#211915;}.cls-1,.cls-15,.cls-21,.cls-28{font-family:Gilmer-Medium, Gilmer;font-weight:500;}.cls-2{letter-spacing:0.01em;}.cls-3{letter-spacing:-0.01em;}.cls-4{letter-spacing:-0.01em;}.cls-5{letter-spacing:0em;}.cls-6{letter-spacing:0.01em;}.cls-7{letter-spacing:-0.06em;}.cls-8{letter-spacing:-0.01em;}.cls-9{letter-spacing:0.01em;}.cls-10{letter-spacing:0em;}.cls-11{letter-spacing:-0.01em;}.cls-12{font-size:67.84px;font-family:Gilmer-Bold, Gilmer;font-weight:700;}.cls-13{letter-spacing:-0.01em;}.cls-14{letter-spacing:-0.01em;}.cls-15{letter-spacing:-0.02em;}.cls-16{letter-spacing:0.01em;}.cls-17{letter-spacing:0.01em;}.cls-18{letter-spacing:0em;}.cls-19{letter-spacing:-0.01em;}.cls-20{letter-spacing:0em;}.cls-21,.cls-28{font-size:9.43px;fill:#7a7a7e;}.cls-21,.cls-30{letter-spacing:0.01em;}.cls-22{letter-spacing:0.01em;}.cls-23{letter-spacing:0.01em;}.cls-24{letter-spacing:0em;}.cls-25{fill:#cfd0d5;}.cls-26{fill:#91bbab;}.cls-27{fill:#cc695b;}.cls-29{letter-spacing:-0.01em;}.cls-31{letter-spacing:0.01em;}</style></defs><title>Recurso 3</title><g id="Capa_2" data-name="Capa 2"><g id="Capa_1-2" data-name="Capa 1"><text class="cls-1" transform="translate(1.54 31.76)"><tspan class="cls-2">A</tspan><tspan class="cls-3" x="8.29" y="0">D</tspan><tspan class="cls-4" x="16.65" y="0">S</tspan><tspan class="cls-5" x="24.23" y="0">C</tspan><tspan class="cls-6" x="33.24" y="0">RI</tspan><tspan class="cls-7" x="44.26" y="0">T</tspan><tspan class="cls-8" x="50.81" y="0">A</tspan><tspan class="cls-9" x="58.83" y="0" xml:space="preserve">S  AL </tspan><tspan class="cls-5" x="90.71" y="0">C</tspan><tspan class="cls-2" x="99.72" y="0">OMP</tspan><tspan class="cls-10" x="126.51" y="0">R</tspan><tspan class="cls-2" x="134.42" y="0">OMI</tspan><tspan class="cls-11" x="156.59" y="0">S</tspan><tspan x="164.17" y="0">O</tspan></text><text class="cls-12" transform="translate(231.64 57.66)"><tspan class="cls-13">2</tspan><tspan x="38.94" y="0">4</tspan></text><text class="cls-12" transform="translate(232.25 150.26)"><tspan class="cls-14">3</tspan><tspan x="40.09" y="0">6</tspan></text><text class="cls-15" transform="translate(1.56 123.54)">A<tspan class="cls-2" x="8" y="0">Ú</tspan><tspan class="cls-16" x="16.37" y="0">N</tspan><tspan class="cls-2" x="24.86" y="0" xml:space="preserve"> NO </tspan><tspan class="cls-17" x="48.85" y="0">A</tspan><tspan class="cls-3" x="57.13" y="0">D</tspan><tspan class="cls-11" x="65.48" y="0">S</tspan><tspan class="cls-18" x="73.06" y="0">C</tspan><tspan class="cls-6" x="82.07" y="0">R</tspan><tspan class="cls-17" x="90.09" y="0">I</tspan><tspan class="cls-7" x="93.08" y="0">T</tspan><tspan class="cls-19" x="99.63" y="0">A</tspan><tspan class="cls-2" x="107.66" y="0">S AL </tspan><tspan class="cls-5" x="136.5" y="0">C</tspan><tspan class="cls-2" x="145.52" y="0">OMP</tspan><tspan class="cls-10" x="172.3" y="0">R</tspan><tspan class="cls-2" x="180.21" y="0">OMI</tspan><tspan class="cls-11" x="202.39" y="0">S</tspan><tspan class="cls-20" x="209.96" y="0">O</tspan></text><text class="cls-21" transform="translate(2.83 151.63)">36 <tspan class="cls-22" x="13.7" y="0">de</tspan><tspan x="25.53" y="0"> </tspan><tspan class="cls-23" x="28.01" y="0">6</tspan><tspan class="cls-24" x="33.54" y="0">0</tspan></text><path class="cls-25" d="M4,63.73s-4,0-4,4v2.48s0,4,4,4H311.78s4,0,4-4V67.73s0-4-4-4Z"/><path class="cls-25" d="M4,156.2s-4,0-4,4v2.49s0,4,4,4H311.78s4,0,4-4V160.2s0-4-4-4Z"/><path class="cls-26" d="M4,63.73s-4,0-4,4v2.48s0,4,4,4H122.18s4,0,4-4V67.73s0-4-4-4Z"/><path class="cls-27" d="M4,156.2s-4,0-4,4v2.49s0,4,4,4H185.27s4,0,4-4V160.2s0-4-4-4Z"/><text class="cls-28" transform="translate(2.83 59.79)"><tspan class="cls-29">2</tspan><tspan class="cls-30" x="5.34" y="0">4 </tspan><tspan class="cls-22" x="13.6" y="0">de</tspan><tspan class="cls-31" x="25.43" y="0"> </tspan><tspan class="cls-22" x="27.91" y="0">6</tspan><tspan x="33.43" y="0">0</tspan></text></g></g></svg>