<svg xmlns="http://www.w3.org/2000/svg" viewBox="0 0 684.76 248.3"><defs><style>.cls-1{fill:#fff;}.cls-2{fill:none;stroke:#7a7a7e;}.cls-3{fill:#cc695b;}.cls-4{fill:#91bbab;}.cls-5{fill:#211915;}.cls-6{fill:#7a7a7e;}</style></defs><title>Recurso 17</title><g id="Capa_2" data-name="Capa 2"><g id="Capa_1-2" data-name="Capa 1"><path class="cls-1" d="M8.91,0S0,0,0,8.91V239.38s0,8.92,8.91,8.92H657.53s8.91,0,8.91-8.92V8.91s0-8.91-8.91-8.91Z"/><line class="cls-2" x1="379.64" y1="38.07" x2="379.64" y2="223.05"/><line class="cls-2" x1="246.2" y1="38.07" x2="246.2" y2="223.05"/><line class="cls-2" x1="518.34" y1="38.07" x2="518.34" y2="223.05"/><path class="cls-3" d="M532.73,120.77s-5,0-5,5v3s0,5,5,5h3s5,0,5-5v-3s0-5-5-5Z"/><path class="cls-4" d="M532.73,68.13s-5,0-5,5v3s0,5,5,5h3s5,0,5-5v-3s0-5-5-5Z"/><path class="cls-5" d="M681.19,138.58a.93.93,0,0,1-1,1,1,1,0,0,1,0-1.95.93.93,0,0,1,1,1m-2.52,0a1.59,1.59,0,0,0,1.57,1.68,1.55,1.55,0,0,0,1.56-1.6,1.27,1.27,0,0,0,0-.28l1.54,1v-.8l-2-1.34a1.87,1.87,0,0,0-1-.35,1.58,1.58,0,0,0-1.57,1.68m.09,3.07.7,1.37.61-.18-.52-1.08h3.76v-.71h-4.55Zm4,3.52c0,.75-.69,1.12-1.72,1.12s-1.72-.37-1.72-1.12.69-1.12,1.72-1.12,1.72.37,1.72,1.12m.64,0c0-1.18-1-1.83-2.36-1.83s-2.36.65-2.36,1.83,1,1.83,2.36,1.83,2.36-.65,2.36-1.83m-.73,4.49-1.14-1.21a2,2,0,0,0-1.45-.86,1.39,1.39,0,0,0-1.4,1.57,1.53,1.53,0,0,0,1.28,1.56l.18-.63a1,1,0,0,1-.83-.94.76.76,0,0,1,.8-.85c.37,0,.65.26,1,.63l1.71,1.79h.5v-3.2h-.65Zm.11,5.08a1.1,1.1,0,1,1-1.1-1.08,1.05,1.05,0,0,1,1.1,1.08m.62,0a1.72,1.72,0,1,0-1.72,1.73,1.69,1.69,0,0,0,1.72-1.73m-.08,2.53H680V158h3.27Zm-3.81.33a.42.42,0,1,0-.42.43.42.42,0,0,0,.42-.43m3.81,1.33h-4.75v.68h4.75ZM680,161.27h1.62a1,1,0,0,1,1.09.95c0,.53-.35.8-.92.8H680v.68H682c.89,0,1.44-.46,1.44-1.3a1.34,1.34,0,0,0-.58-1.13h.5v-.67H680Zm3.52,4.07c.37,0,.62.14.62.46a.61.61,0,0,1-.1.33l.55.16a1.45,1.45,0,0,0,.13-.57c0-.73-.49-1.05-1.25-1.05H680v.67ZM679.5,165a.42.42,0,1,0-.42.43.42.42,0,0,0,.42-.43m3.29,4.55c0,.63-.36,1-.83,1s-.82-.38-.82-1,.35-1,.82-1,.83.39.83,1m-3.55,0c0-.52.3-.83.68-.83s.68.31.68.83-.3.84-.68.84-.68-.31-.68-.84m1.6-.89a1.06,1.06,0,0,0-1-.63c-.66,0-1.2.59-1.2,1.52s.54,1.52,1.2,1.52a1.06,1.06,0,0,0,1-.63,1.21,1.21,0,0,0,1.17.82c.78,0,1.38-.67,1.38-1.71s-.6-1.71-1.38-1.71a1.21,1.21,0,0,0-1.17.82m-2.08,4.06.7,1.37.61-.17-.52-1.08h3.76v-.72h-4.55Zm4.59,4.05a.44.44,0,0,0-.44-.45.45.45,0,0,0,0,.9.44.44,0,0,0,.44-.45m-2.42,0a.44.44,0,1,0-.44.45.44.44,0,0,0,.44-.45m-1,2.56a1.32,1.32,0,0,0,.57,1.12H680v.69h3.27v-.69h-1.63a1,1,0,0,1-1.09-.94c0-.53.35-.8.92-.8h1.8V178h-1.92c-.89,0-1.44.46-1.44,1.3m2.82,4.31a1.1,1.1,0,1,1-1.1-1.07,1.05,1.05,0,0,1,1.1,1.07m.62,0a1.72,1.72,0,1,0-1.72,1.73,1.69,1.69,0,0,0,1.72-1.73m-3.87.36v-.6l-.89-.66v.76Zm3.79,2.17H680v.67h3.27Zm-3.81.33a.42.42,0,1,0-.42.43.42.42,0,0,0,.42-.43m3.89,2.67a1.56,1.56,0,0,0-1-1.55l-.18.63a1,1,0,0,1,.59.92,1.11,1.11,0,0,1-2.22,0,1,1,0,0,1,.61-.92l-.18-.63a1.57,1.57,0,0,0-1,1.56,1.72,1.72,0,0,0,3.44,0m-.61,4.23a1.11,1.11,0,0,1-2.22,0,1.11,1.11,0,0,1,2.22,0m.61.11a1.38,1.38,0,0,0-.58-1.17h.5v-.68H680v.68h.49a1.38,1.38,0,0,0-.58,1.17,1.72,1.72,0,0,0,3.44,0m-.66,4-2.25-1.89H680v2.76h.57v-1.85l2.26,1.89h.44v-2.86h-.58Zm.58,1.73H680v.67h3.27Zm-3.81.33a.42.42,0,1,0-.42.43.42.42,0,0,0,.42-.43m3.81,1.33h-4.75v.68h4.75Zm-.53,3.4a1.11,1.11,0,0,1-2.22,0,1.11,1.11,0,0,1,2.22,0m.61.11a1.4,1.4,0,0,0-.58-1.18h.5v-.67H680v.67h.49a1.4,1.4,0,0,0-.58,1.18,1.72,1.72,0,0,0,3.44,0M680,207.51h1.62a1,1,0,0,1,1.09,1c0,.53-.35.8-.92.8H680v.68H682c.89,0,1.44-.46,1.44-1.3a1.34,1.34,0,0,0-.58-1.13h.5v-.67H680Zm2.6,3.27a1,1,0,0,1,.11.43.44.44,0,0,1-.5.47h-1.61v-1H680v1H679v.68H680V213h.6v-.59h1.61c.67,0,1.11-.32,1.11-1a1.72,1.72,0,0,0-.16-.73Zm.75,4.15a1.56,1.56,0,0,0-1-1.55l-.18.63a1,1,0,0,1,.59.92,1.11,1.11,0,0,1-2.22,0,1,1,0,0,1,.61-.92l-.18-.63a1.57,1.57,0,0,0-1,1.56,1.72,1.72,0,0,0,3.44,0m-.61,4.23a1.11,1.11,0,0,1-2.22,0,1.11,1.11,0,0,1,2.22,0m.61.11a1.38,1.38,0,0,0-.58-1.17h.5v-.68H680v.68h.49a1.38,1.38,0,0,0-.58,1.17,1.72,1.72,0,0,0,3.44,0m-.61,5.85a1.11,1.11,0,0,1-2.22,0,1.11,1.11,0,0,1,2.22,0m.61.11a1.38,1.38,0,0,0-.58-1.17h.5v-.68H680v.68h.49a1.38,1.38,0,0,0-.58,1.17,1.72,1.72,0,0,0,3.44,0M680,228.88a1.31,1.31,0,0,0,.56,1.14,1.07,1.07,0,0,0-.56,1,1.22,1.22,0,0,0,.54,1H680v.68h3.27v-.68h-1.66c-.65,0-1.06-.32-1.06-.84s.34-.71.89-.71h1.83v-.68H681.6c-.62,0-1-.31-1-.81s.34-.74.89-.74h1.83v-.68h-2a1.24,1.24,0,0,0-1.4,1.28m3.36,4.85H680v.68h3.27Zm-3.81.34a.42.42,0,1,0-.83,0,.42.42,0,1,0,.83,0m3.14,1.26a.92.92,0,0,1,.11.43c0,.31-.18.46-.5.46h-1.61v-1H680v1H679v.68H680v.6h.6v-.6h1.61c.67,0,1.11-.32,1.11-1a1.68,1.68,0,0,0-.16-.72Zm.67,2.81h-4.75v.68h4.75Zm-4.55,2.31h2.69a1.21,1.21,0,1,1,0,2.42h-2.69v.71h2.71a1.92,1.92,0,1,0,0-3.84h-2.71Zm-1.42.31v.76l.9.51v-.61Z"/><rect class="cls-4" x="246.9" y="44.92" width="122.56" height="8.83"/><rect class="cls-3" x="369.47" y="44.92" width="147.96" height="8.83"/><rect class="cls-3" x="446.76" y="68.47" width="70.67" height="8.83"/><rect class="cls-3" x="319.78" y="91.11" width="197.65" height="8.83"/><rect class="cls-3" x="399.65" y="112.82" width="117.78" height="8.83"/><rect class="cls-3" x="448.6" y="136.25" width="68.83" height="8.83"/><rect class="cls-4" x="246.9" y="68.47" width="199.85" height="8.83"/><rect class="cls-4" x="246.9" y="91.11" width="72.88" height="8.83"/><rect class="cls-4" x="246.9" y="112.82" width="152.74" height="8.83"/><rect class="cls-4" x="246.9" y="136.25" width="201.69" height="8.83"/><rect class="cls-4" x="246.9" y="157.84" width="143.54" height="8.83"/><rect class="cls-3" x="390.45" y="157.84" width="126.98" height="8.83"/><rect class="cls-4" x="246.9" y="181.39" width="86.54" height="8.83"/><rect class="cls-3" x="333.44" y="181.39" width="183.98" height="8.83"/><rect class="cls-4" x="246.9" y="204.03" width="154.21" height="8.83"/><rect class="cls-3" x="401.12" y="204.03" width="116.31" height="8.83"/><path class="cls-6" d="M235.75,52.84c1.29,0,2.19-.71,2.19-1.64s-.64-1.22-1.37-1.43l-1.4-.4c-.35-.12-.56-.26-.56-.52s.37-.64.92-.64a1.43,1.43,0,0,1,1.31.73l1-.28a2.32,2.32,0,0,0-2.26-1.32,1.8,1.8,0,0,0-2,1.52c0,.75.54,1.13,1.24,1.34l1.4.41c.47.14.68.3.68.63s-.43.7-1.09.7a1.55,1.55,0,0,1-1.51-1l-1,.29a2.51,2.51,0,0,0,2.46,1.59m-6-1a1.76,1.76,0,1,1,1.72-1.76,1.69,1.69,0,0,1-1.72,1.76m0,1A2.75,2.75,0,1,0,227,50.08a2.7,2.7,0,0,0,2.77,2.76m-5.12-.14h1.08V47.48h-1.08Zm.55-6.08a.67.67,0,1,0-.68-.67.67.67,0,0,0,.68.67m-4.27,6.22a2.48,2.48,0,0,0,2.48-1.63l-1-.28a1.52,1.52,0,0,1-1.47.93,1.7,1.7,0,0,1-1.68-1.78,1.68,1.68,0,0,1,1.68-1.76,1.54,1.54,0,0,1,1.47,1l1-.29a2.49,2.49,0,0,0-2.49-1.65,2.75,2.75,0,0,0,0,5.5m-5.09-.14h1.08V47.48h-1.08Zm.55-6.08a.67.67,0,1,0-.68-.67.67.67,0,0,0,.68.67m-2.65.86-1.65,4-1.63-4h-1.18l2.21,5.22h1.22l2.21-5.22Zm-6.78.83v-.83h-1.09V52.7H207V50.34c0-1.52.68-2.08,1.79-1.91v-1a1.63,1.63,0,0,0-1.79.9m-6.59,1.39A1.57,1.57,0,0,1,202,48.28a1.49,1.49,0,0,1,1.59,1.41Zm1.71,3.14a2.65,2.65,0,0,0,2.5-1.49l-1-.29a1.75,1.75,0,0,1-3.22-.64h4.25a3.11,3.11,0,0,0,0-.43A2.52,2.52,0,0,0,202,47.34a2.75,2.75,0,0,0,.09,5.5m-6.59,0c1.7,0,2.84-1,2.84-2.21s-.78-1.59-1.9-1.94l-1.79-.57c-.65-.2-.92-.45-.92-.86s.56-1,1.38-1a2.18,2.18,0,0,1,2,1.12l1-.31a3.18,3.18,0,0,0-3-1.8,2.26,2.26,0,0,0-2.51,2c0,.91.66,1.47,1.63,1.78l1.83.58c.85.27,1.15.58,1.15,1.06s-.64,1.13-1.65,1.13a2.35,2.35,0,0,1-2.27-1.52l-1.07.32a3.36,3.36,0,0,0,3.28,2.2"/><path class="cls-1" d="M331.49,51.51a.81.81,0,1,1,.82-.8.79.79,0,0,1-.82.8m0,.79a1.59,1.59,0,1,0-1.62-1.59,1.59,1.59,0,0,0,1.62,1.59M327,49a.8.8,0,0,1-.82-.81.82.82,0,0,1,1.63,0A.8.8,0,0,1,327,49m0,3.26h.86l3.62-5.6h-.85Zm0-2.48a1.59,1.59,0,1,0-1.63-1.59A1.59,1.59,0,0,0,327,49.75m-4.12-1.17a2.27,2.27,0,0,0-1,.2l.09-1.16h2.47v-1h-3.45l-.24,2.88.86.27a1.61,1.61,0,0,1,1-.32.94.94,0,0,1,1,1,1,1,0,0,1-1,1,1.18,1.18,0,0,1-1.1-.85l-1,.27a2.09,2.09,0,0,0,2.15,1.54,1.92,1.92,0,0,0,2-1.91,1.8,1.8,0,0,0-1.86-1.85m-2.83,1.6h-.7V49h-1.1v1.15h-1.41l1.82-3.55H317.5l-1.93,3.71v.8h2.7v1.09h1.1V51.14h.7Z"/><path class="cls-1" d="M298.54,97.42a.79.79,0,0,1-.81-.81.81.81,0,0,1,1.62,0,.79.79,0,0,1-.81.81m0,.78a1.59,1.59,0,1,0-1.63-1.59,1.58,1.58,0,0,0,1.63,1.59m-4.48-3.33a.79.79,0,0,1-.81-.81.78.78,0,0,1,.81-.8.79.79,0,0,1,.82.8.8.8,0,0,1-.82.81m0,3.26h.85l3.63-5.59h-.85Zm0-2.48a1.59,1.59,0,1,0-1.63-1.59,1.59,1.59,0,0,0,1.63,1.59m-6.31-3.11v1h2.77l-2,4.6h1.17l2.12-4.84v-.75Zm-2.88,4.6L286.13,96a2.44,2.44,0,0,0,1-1.8,1.75,1.75,0,0,0-2-1.76,1.94,1.94,0,0,0-2,1.63l1,.28a1.07,1.07,0,0,1,1-.92.79.79,0,0,1,.88.83c0,.4-.28.7-.69,1.09l-2.19,2v.75h4.05v-1Z"/><path class="cls-1" d="M430.7,97.42a.79.79,0,0,1-.81-.81.81.81,0,0,1,1.62,0,.79.79,0,0,1-.81.81m0,.78a1.59,1.59,0,1,0-1.63-1.59,1.59,1.59,0,0,0,1.63,1.59m-4.48-3.33a.79.79,0,0,1-.81-.81.78.78,0,0,1,.81-.8.79.79,0,0,1,.82.8.8.8,0,0,1-.82.81m0,3.26h.86l3.63-5.59h-.85Zm0-2.48a1.59,1.59,0,1,0-1.63-1.59,1.59,1.59,0,0,0,1.63,1.59m-3.67-1,1.27-1.39v-.73H420v1h2.41l-1.14,1.41.18.65a1.06,1.06,0,0,1,.58-.14.89.89,0,0,1,1,.91,1,1,0,0,1-1,.94,1.19,1.19,0,0,1-1.16-1l-1,.28a2.08,2.08,0,0,0,2.2,1.7,1.93,1.93,0,0,0,2-1.9,1.64,1.64,0,0,0-1.47-1.69m-7.29-2.12v1H418l-2,4.6h1.17l2.12-4.84v-.75Z"/><path class="cls-1" d="M464.71,108.58a.81.81,0,1,1,.82-.8.79.79,0,0,1-.82.8m0,.78a1.59,1.59,0,1,0-1.62-1.58,1.58,1.58,0,0,0,1.62,1.58M460.24,106a.8.8,0,0,1-.82-.81.82.82,0,0,1,1.64,0,.81.81,0,0,1-.82.81m0,3.26h.86l3.62-5.6h-.85Zm0-2.48a1.59,1.59,0,1,0-1.63-1.59,1.59,1.59,0,0,0,1.63,1.59m-1.8.42h-.7V106.1h-1.09v1.14h-1.42l1.83-3.54h-1.19l-1.93,3.71v.8h2.71v1.09h1.09v-1.09h.7Zm-5,0h-.69V106.1h-1.1v1.14h-1.41l1.82-3.54h-1.18L449,107.41v.8h2.7v1.09h1.1v-1.09h.69Z"/><path class="cls-1" d="M334.69,119.21a.81.81,0,1,1,0-1.61.81.81,0,1,1,0,1.61m0,.78a1.59,1.59,0,1,0-1.63-1.58,1.58,1.58,0,0,0,1.63,1.58m-4.47-3.32a.8.8,0,0,1-.82-.81.82.82,0,0,1,1.63,0,.8.8,0,0,1-.81.81m0,3.26h.85l3.63-5.6h-.85Zm0-2.48a1.59,1.59,0,1,0-1.64-1.59,1.59,1.59,0,0,0,1.64,1.59m-4.14,1.61a1,1,0,1,1,1-1,1,1,0,0,1-1,1m.16-3h-.17l1.16-1.79H326l-1.62,2.51a2.19,2.19,0,0,0-.41,1.22,2.13,2.13,0,0,0,4.25,0,2,2,0,0,0-2-2m-4.75.17a2.28,2.28,0,0,0-1,.19l.09-1.16h2.47v-1h-3.45l-.24,2.88.86.26a1.68,1.68,0,0,1,1-.32,1,1,0,0,1,1,1,1,1,0,0,1-1,1,1.18,1.18,0,0,1-1.1-.86l-1,.28a2.09,2.09,0,0,0,2.15,1.54,1.92,1.92,0,0,0,2-1.91,1.8,1.8,0,0,0-1.86-1.85"/><path class="cls-1" d="M323.35,164.15a.79.79,0,0,1-.81-.81.82.82,0,0,1,1.63,0,.8.8,0,0,1-.82.81m0,.78a1.59,1.59,0,1,0-1.62-1.59,1.58,1.58,0,0,0,1.62,1.59m-4.47-3.33a.8.8,0,0,1-.82-.81.82.82,0,0,1,1.63,0,.8.8,0,0,1-.81.81m0,3.26h.86l3.62-5.59h-.85Zm0-2.48a1.59,1.59,0,1,0-1.63-1.59,1.59,1.59,0,0,0,1.63,1.59m-3.67-1,1.26-1.39v-.73h-3.85v1H315l-1.14,1.41.19.65a1,1,0,0,1,.57-.14.89.89,0,0,1,1,.91.94.94,0,0,1-1,.94,1.19,1.19,0,0,1-1.16-1l-1,.28a2.08,2.08,0,0,0,2.2,1.7,1.94,1.94,0,0,0,2-1.9,1.64,1.64,0,0,0-1.47-1.69m-5.26-.17a2.28,2.28,0,0,0-1,.19l.09-1.16h2.47v-1H308.1l-.24,2.87.87.27a1.57,1.57,0,0,1,1-.32.94.94,0,0,1,1,1,1,1,0,0,1-1,1,1.19,1.19,0,0,1-1.11-.86l-1,.27a2.08,2.08,0,0,0,2.15,1.55,1.92,1.92,0,0,0,2-1.92,1.8,1.8,0,0,0-1.86-1.84"/><path class="cls-1" d="M299.69,187.7a.81.81,0,1,1,0-1.61.81.81,0,1,1,0,1.61m0,.78a1.59,1.59,0,1,0-1.63-1.58,1.58,1.58,0,0,0,1.63,1.58m-4.47-3.32a.8.8,0,0,1-.82-.81.82.82,0,0,1,1.63,0,.8.8,0,0,1-.81.81m0,3.26h.85l3.63-5.6h-.85Zm0-2.48a1.59,1.59,0,1,0-1.64-1.59,1.59,1.59,0,0,0,1.64,1.59m-4.76,1.49,1.27-1.17a2.42,2.42,0,0,0,1-1.79,1.75,1.75,0,0,0-2-1.76,1.93,1.93,0,0,0-2,1.62l1,.28a1.06,1.06,0,0,1,1-.92.79.79,0,0,1,.88.84c0,.4-.27.7-.68,1.08l-2.19,2.06v.75h4v-1ZM286.62,185l1.26-1.39v-.74H284v1h2.41l-1.14,1.41.19.65a1,1,0,0,1,.57-.14.89.89,0,0,1,1,.92.93.93,0,0,1-1,.93,1.19,1.19,0,0,1-1.16-1l-1,.28a2.07,2.07,0,0,0,2.2,1.69,1.94,1.94,0,0,0,2-1.89,1.63,1.63,0,0,0-1.47-1.69"/><path class="cls-1" d="M334.69,211.05a.79.79,0,0,1-.81-.81.81.81,0,1,1,.81.81m0,.78a1.59,1.59,0,1,0-1.63-1.59,1.59,1.59,0,0,0,1.63,1.59m-4.47-3.33a.8.8,0,0,1-.82-.81.82.82,0,0,1,1.63,0,.8.8,0,0,1-.81.81m0,3.26h.85l3.63-5.59h-.85Zm0-2.48a1.59,1.59,0,1,0-1.64-1.59,1.59,1.59,0,0,0,1.64,1.59m-6.32-3.11v1h2.77l-2,4.6h1.17l2.12-4.84v-.75Zm-2.33,2a2.28,2.28,0,0,0-1,.19l.09-1.16h2.47v-1h-3.45l-.24,2.87.86.27a1.61,1.61,0,0,1,1-.32.94.94,0,0,1,1,1,1,1,0,0,1-1,1,1.19,1.19,0,0,1-1.1-.86l-1,.27a2.08,2.08,0,0,0,2.15,1.55,1.93,1.93,0,0,0,2-1.92,1.8,1.8,0,0,0-1.86-1.84"/><path class="cls-5" d="M253.66,234.84a.89.89,0,0,1-.91-.9.92.92,0,0,1,1.83,0,.89.89,0,0,1-.92.9m0,.88a1.79,1.79,0,1,0-1.83-1.78,1.78,1.78,0,0,0,1.83,1.78m-5-3.75a.91.91,0,1,1,.92-.9.89.89,0,0,1-.92.9m0,3.68h1l4.08-6.3h-1Zm0-2.79a1.79,1.79,0,1,0-1.84-1.79,1.8,1.8,0,0,0,1.84,1.79m-5.2,1.79c-.93,0-1.38-.86-1.38-2.15s.45-2.16,1.38-2.16,1.36.86,1.36,2.16-.44,2.15-1.36,2.15m0,1.12c1.67,0,2.6-1.39,2.6-3.27s-.93-3.28-2.6-3.28-2.61,1.39-2.61,3.28.93,3.27,2.61,3.27"/><path class="cls-5" d="M391,234.84a.89.89,0,0,1-.91-.9.92.92,0,0,1,1.83,0,.89.89,0,0,1-.92.9m0,.88a1.79,1.79,0,1,0-1.82-1.78,1.79,1.79,0,0,0,1.82,1.78M386,232a.91.91,0,1,1,.92-.91.89.89,0,0,1-.92.91m0,3.68h1l4.07-6.3h-.95Zm0-2.79a1.79,1.79,0,1,0-1.83-1.8,1.8,1.8,0,0,0,1.83,1.8m-5.2,1.79c-.93,0-1.38-.86-1.38-2.15s.45-2.16,1.38-2.16,1.37.86,1.37,2.16-.44,2.15-1.37,2.15m0,1.12c1.67,0,2.6-1.39,2.6-3.27s-.93-3.28-2.6-3.28-2.61,1.39-2.61,3.28.94,3.27,2.61,3.27m-5.45-4.23a2.47,2.47,0,0,0-1.08.22l.1-1.31h2.78v-1.1h-3.88l-.27,3.24,1,.29a1.83,1.83,0,0,1,1.12-.36,1.07,1.07,0,0,1,1.17,1.08,1.08,1.08,0,0,1-1.17,1.09,1.33,1.33,0,0,1-1.24-1l-1.1.31a2.35,2.35,0,0,0,2.42,1.73,2.16,2.16,0,0,0,2.27-2.15,2,2,0,0,0-2.09-2.08"/><path class="cls-5" d="M527.79,234.84a.89.89,0,0,1-.91-.9.92.92,0,0,1,1.83,0,.89.89,0,0,1-.92.9m0,.88a1.79,1.79,0,1,0-1.83-1.78,1.78,1.78,0,0,0,1.83,1.78m-5-3.75a.91.91,0,1,1,.92-.91.89.89,0,0,1-.92.91m0,3.68h1l4.08-6.3h-1Zm0-2.79a1.79,1.79,0,1,0-1.84-1.8,1.8,1.8,0,0,0,1.84,1.8m-5.21,1.79c-.92,0-1.37-.86-1.37-2.15s.45-2.16,1.37-2.16,1.37.86,1.37,2.16-.44,2.15-1.37,2.15m0,1.12c1.68,0,2.61-1.39,2.61-3.27s-.93-3.28-2.61-3.28-2.6,1.39-2.6,3.28.93,3.27,2.6,3.27m-5.93-1.12c-.92,0-1.37-.86-1.37-2.15s.45-2.16,1.37-2.16,1.37.86,1.37,2.16-.44,2.15-1.37,2.15m0,1.12c1.68,0,2.6-1.39,2.6-3.27s-.92-3.28-2.6-3.28S509,230.61,509,232.5s.94,3.27,2.61,3.27m-4.77-6.42-1.91,1,.29,1,1.42-.66v4.93h1.25v-6.3Z"/><path class="cls-1" d="M470.06,200.42a.79.79,0,0,1-.81-.81.82.82,0,0,1,1.63,0,.8.8,0,0,1-.82.81m0,.78a1.59,1.59,0,1,0-1.62-1.59,1.59,1.59,0,0,0,1.62,1.59m-4.47-3.33a.8.8,0,0,1-.82-.81.82.82,0,0,1,1.64,0,.81.81,0,0,1-.82.81m0,3.26h.86l3.62-5.59h-.85Zm0-2.48a1.59,1.59,0,1,0-1.63-1.59,1.59,1.59,0,0,0,1.63,1.59m-3.67-1,1.26-1.39v-.73h-3.85v1h2.41l-1.13,1.41.18.65a1.06,1.06,0,0,1,.58-.14.89.89,0,0,1,1,.91,1,1,0,0,1-1,.94,1.2,1.2,0,0,1-1.16-1l-1,.28a2.08,2.08,0,0,0,2.2,1.7,1.93,1.93,0,0,0,2-1.9,1.64,1.64,0,0,0-1.47-1.69m-3.26,1.42H458v-1.14h-1.1v1.14h-1.42l1.83-3.54h-1.19l-1.92,3.71v.8h2.7v1.08H458v-1.08h.69Z"/><path class="cls-1" d="M452,187.7a.81.81,0,1,1,.82-.8.79.79,0,0,1-.82.8m0,.78a1.59,1.59,0,1,0-1.62-1.58,1.58,1.58,0,0,0,1.62,1.58m-4.47-3.32a.8.8,0,0,1-.82-.81.82.82,0,0,1,1.64,0,.81.81,0,0,1-.82.81m0,3.26h.86l3.62-5.6h-.85Zm0-2.48a1.59,1.59,0,1,0-1.63-1.59,1.59,1.59,0,0,0,1.63,1.59M443,187.6c-.67,0-1.06-.39-1.06-.88s.39-.89,1.06-.89,1.07.38,1.07.89-.4.88-1.07.88m0-4a.73.73,0,1,1,0,1.44.73.73,0,1,1,0-1.44m1.2,1.79a1.25,1.25,0,0,0,.73-1.17c0-.81-.74-1.49-1.93-1.49s-1.93.68-1.93,1.49a1.26,1.26,0,0,0,.73,1.17,1.51,1.51,0,0,0-1,1.43c0,1,.85,1.73,2.17,1.73s2.17-.76,2.17-1.73a1.52,1.52,0,0,0-1-1.43m-6.07,2.18a1,1,0,1,1,1-1,1,1,0,0,1-1,1m.16-3h-.17l1.16-1.79h-1.24l-1.62,2.51a2.24,2.24,0,0,0-.41,1.22,2.13,2.13,0,0,0,4.25,0,2,2,0,0,0-2-2"/><path class="cls-1" d="M464.61,153.52a.81.81,0,1,1,.82-.8.79.79,0,0,1-.82.8m0,.78a1.59,1.59,0,1,0-1.62-1.58,1.58,1.58,0,0,0,1.62,1.58M460.14,151a.8.8,0,0,1-.82-.81.82.82,0,0,1,1.64,0,.81.81,0,0,1-.82.81m0,3.26H461l3.62-5.59h-.85Zm0-2.48a1.59,1.59,0,1,0-1.63-1.59,1.59,1.59,0,0,0,1.63,1.59m-6.31-3.11v1h2.76l-2,4.6h1.17l2.12-4.84v-.75Zm-.1,3.54H453V151h-1.09v1.14h-1.42l1.83-3.54h-1.19l-1.92,3.71v.8h2.7v1.08H453v-1.08h.7Z"/><path class="cls-1" d="M353.11,142.75a.81.81,0,1,1,.82-.8.79.79,0,0,1-.82.8m0,.79a1.59,1.59,0,1,0-1.62-1.59,1.59,1.59,0,0,0,1.62,1.59m-4.47-3.33a.8.8,0,0,1-.82-.81.82.82,0,0,1,1.64,0,.81.81,0,0,1-.82.81m0,3.26h.86l3.62-5.6h-.85Zm0-2.48A1.59,1.59,0,1,0,347,139.4a1.59,1.59,0,0,0,1.63,1.59m-4.12-1.16a2.35,2.35,0,0,0-1,.19l.09-1.16h2.47v-1h-3.45l-.24,2.88.87.27a1.59,1.59,0,0,1,1-.32.94.94,0,0,1,1,1,1,1,0,0,1-1,1,1.19,1.19,0,0,1-1.11-.86l-1,.27a2.09,2.09,0,0,0,2.15,1.54,1.91,1.91,0,0,0,2-1.91,1.79,1.79,0,0,0-1.86-1.84m-6.86-2v1h2.76l-2,4.61h1.17l2.12-4.84v-.76Z"/><path class="cls-1" d="M493.69,142.75a.81.81,0,1,1,.81-.8.79.79,0,0,1-.81.8m0,.79a1.59,1.59,0,1,0-1.63-1.59,1.59,1.59,0,0,0,1.63,1.59m-4.47-3.33a.8.8,0,0,1-.82-.81.82.82,0,0,1,1.63,0,.8.8,0,0,1-.81.81m0,3.26h.85l3.63-5.6h-.85Zm0-2.48a1.59,1.59,0,1,0-1.64-1.59,1.59,1.59,0,0,0,1.64,1.59m-4.12-1.16a2.28,2.28,0,0,0-1,.19l.08-1.16h2.48v-1h-3.45l-.24,2.88.86.27a1.61,1.61,0,0,1,1-.32.94.94,0,0,1,1,1,1,1,0,0,1-1,1,1.19,1.19,0,0,1-1.1-.86l-1,.27a2.1,2.1,0,0,0,2.16,1.54,1.92,1.92,0,0,0,2-1.91,1.8,1.8,0,0,0-1.86-1.84m-5.39,2.65,1.27-1.17a2.4,2.4,0,0,0,1-1.79,1.75,1.75,0,0,0-2-1.76,2,2,0,0,0-2,1.63l1,.28a1.06,1.06,0,0,1,1-.93.79.79,0,0,1,.88.84c0,.4-.27.7-.69,1.09L478,142.72v.75h4v-1Z"/><path class="cls-1" d="M370.13,74.78A.81.81,0,1,1,371,74a.78.78,0,0,1-.82.8m0,.78A1.59,1.59,0,1,0,368.51,74a1.59,1.59,0,0,0,1.62,1.58m-4.47-3.32a.79.79,0,0,1-.81-.81.78.78,0,0,1,.81-.8.79.79,0,0,1,.82.8.8.8,0,0,1-.82.81m0,3.26h.85l3.62-5.6h-.84Zm0-2.48A1.59,1.59,0,1,0,364,71.43,1.59,1.59,0,0,0,365.66,73m-1.8.42h-.69V72.3h-1.1v1.14h-1.41l1.82-3.54H361.3l-1.93,3.71v.8h2.7V75.5h1.1V74.41h.69Zm-8.61-3.54v1H358l-2,4.61h1.17l2.12-4.84V69.9Z"/><path class="cls-1" d="M491.35,74.78a.81.81,0,1,1,.82-.8.79.79,0,0,1-.82.8m0,.78A1.59,1.59,0,1,0,489.73,74a1.58,1.58,0,0,0,1.62,1.58m-4.47-3.32a.8.8,0,0,1-.82-.81.82.82,0,0,1,1.63,0,.8.8,0,0,1-.81.81m0,3.26h.86l3.62-5.6h-.85Zm0-2.48a1.59,1.59,0,1,0-1.63-1.59A1.59,1.59,0,0,0,486.88,73m-4.14,1.61a1,1,0,1,1,1-1,1,1,0,0,1-1,1m.16-2.95h-.17l1.16-1.79h-1.24L481,72.41a2.19,2.19,0,0,0-.41,1.22,2.13,2.13,0,0,0,4.25,0,2,2,0,0,0-2-1.95m-5.18,2.83L479,73.34a2.43,2.43,0,0,0,1-1.79,1.76,1.76,0,0,0-2-1.76,1.93,1.93,0,0,0-2,1.62l1,.28a1.07,1.07,0,0,1,1-.92.79.79,0,0,1,.88.83c0,.4-.27.71-.69,1.09l-2.18,2.06v.75h4v-1Z"/><path class="cls-1" d="M455.17,40.88a.81.81,0,1,1,.81-.8.79.79,0,0,1-.81.8m0,.79a1.59,1.59,0,1,0-1.63-1.59,1.59,1.59,0,0,0,1.63,1.59m-4.48-3.33a.79.79,0,0,1-.81-.81.78.78,0,0,1,.81-.8.79.79,0,0,1,.82.8.8.8,0,0,1-.82.81m0,3.26h.85l3.63-5.6h-.85Zm0-2.48a1.59,1.59,0,1,0-1.63-1.59,1.59,1.59,0,0,0,1.63,1.59M446.58,38a2.27,2.27,0,0,0-1,.2L445.7,37h2.47V36h-3.44l-.24,2.88.86.27a1.61,1.61,0,0,1,1-.32.94.94,0,0,1,1,1,1,1,0,0,1-1,1,1.18,1.18,0,0,1-1.1-.85l-1,.27a2.11,2.11,0,0,0,2.16,1.54,1.92,1.92,0,0,0,2-1.91A1.81,1.81,0,0,0,446.58,38m-4.84,0a2.34,2.34,0,0,0-1,.2l.09-1.16h2.47V36H439.9l-.24,2.88.86.27a1.59,1.59,0,0,1,1-.32,1,1,0,1,1,0,1.92,1.18,1.18,0,0,1-1.1-.85l-1,.27a2.1,2.1,0,0,0,2.15,1.54,1.93,1.93,0,0,0,2-1.91A1.81,1.81,0,0,0,441.74,38"/><path class="cls-6" d="M235.75,76.81c1.28,0,2.19-.7,2.19-1.64s-.64-1.21-1.37-1.42l-1.4-.41c-.35-.11-.56-.26-.56-.52s.37-.63.92-.63a1.41,1.41,0,0,1,1.31.73l1-.28a2.32,2.32,0,0,0-2.26-1.32,1.81,1.81,0,0,0-2,1.51c0,.75.55,1.14,1.25,1.34l1.4.42c.47.13.68.3.68.62s-.43.71-1.09.71a1.56,1.56,0,0,1-1.51-1l-1,.29a2.51,2.51,0,0,0,2.47,1.59m-7.49-3.14a1.58,1.58,0,0,1,1.62-1.42,1.49,1.49,0,0,1,1.59,1.41ZM230,76.81a2.66,2.66,0,0,0,2.5-1.48l-1-.29a1.75,1.75,0,0,1-3.22-.64h4.24a2.18,2.18,0,0,0,0-.44,2.51,2.51,0,0,0-2.66-2.64,2.75,2.75,0,0,0,.09,5.49m-5.11-.13H226V69.1h-1.09Zm-4.34-.84a1.78,1.78,0,0,1,0-3.55,1.78,1.78,0,0,1,0,3.55m-.18,1a2.21,2.21,0,0,0,1.88-.92v.79h1.08V71.45h-1.08v.79a2.21,2.21,0,0,0-1.88-.92,2.75,2.75,0,0,0,0,5.49m-4.94-.13h1.08V71.45H215.4ZM216,70.6a.67.67,0,1,0,0-1.34.67.67,0,1,0,0,1.34m-4.27,6.21a2.47,2.47,0,0,0,2.47-1.63l-1-.28a1.48,1.48,0,0,1-1.46.94,1.78,1.78,0,0,1,0-3.55,1.5,1.5,0,0,1,1.46,1l1-.29a2.48,2.48,0,0,0-2.48-1.65,2.75,2.75,0,0,0,0,5.49m-6.42-1A1.77,1.77,0,1,1,207,74.07a1.68,1.68,0,0,1-1.71,1.76m0,1a2.75,2.75,0,1,0-2.77-2.75,2.69,2.69,0,0,0,2.77,2.75m-6.59,0c1.71,0,2.85-1,2.85-2.2s-.78-1.59-1.9-1.94l-1.79-.57c-.65-.2-.92-.45-.92-.87s.56-1,1.38-1a2.16,2.16,0,0,1,2,1.12l1-.31a3.17,3.17,0,0,0-3.05-1.81,2.26,2.26,0,0,0-2.51,2c0,.92.66,1.48,1.63,1.78l1.83.58c.85.27,1.15.59,1.15,1.06s-.65,1.14-1.65,1.14a2.35,2.35,0,0,1-2.27-1.52l-1.07.32a3.37,3.37,0,0,0,3.27,2.19m-9.07,0c1.28,0,2.19-.7,2.19-1.64s-.64-1.21-1.37-1.42l-1.4-.41c-.35-.11-.56-.26-.56-.52s.37-.63.92-.63a1.41,1.41,0,0,1,1.31.73l1-.28a2.32,2.32,0,0,0-2.26-1.32,1.81,1.81,0,0,0-2,1.51c0,.75.55,1.14,1.25,1.34l1.4.42c.47.13.68.3.68.62s-.43.71-1.09.71a1.56,1.56,0,0,1-1.51-1l-1,.29a2.51,2.51,0,0,0,2.47,1.59m-6-1a1.77,1.77,0,1,1,1.72-1.76,1.69,1.69,0,0,1-1.72,1.76m0,1a2.75,2.75,0,1,0-2.77-2.75,2.69,2.69,0,0,0,2.77,2.75m-5.12-.13h1.08V71.45h-1.08ZM179,70.6a.67.67,0,1,0-.68-.67.67.67,0,0,0,.68.67m-4.27,6.21a2.46,2.46,0,0,0,2.47-1.63l-1-.28a1.51,1.51,0,0,1-1.47.94,1.78,1.78,0,0,1,0-3.55,1.53,1.53,0,0,1,1.47,1l1-.29a2.47,2.47,0,0,0-2.48-1.65,2.75,2.75,0,0,0,0,5.49m-5.09-.13h1.08V71.45h-1.08Zm.55-6.08a.67.67,0,1,0-.68-.67.67.67,0,0,0,.68.67m-2.66.85-1.64,4-1.63-4h-1.18l2.21,5.23h1.22l2.21-5.23Zm-6.77.83v-.83h-1.09v5.23h1.09V74.32c0-1.52.68-2.08,1.79-1.91v-1a1.63,1.63,0,0,0-1.79.89m-6.59,1.39a1.58,1.58,0,0,1,1.62-1.42,1.49,1.49,0,0,1,1.59,1.41Zm1.71,3.14a2.66,2.66,0,0,0,2.5-1.48l-1-.29a1.75,1.75,0,0,1-3.22-.64h4.24a2.18,2.18,0,0,0,0-.44,2.51,2.51,0,0,0-2.66-2.64,2.75,2.75,0,0,0,.09,5.49m-6.6,0c1.71,0,2.85-1,2.85-2.2s-.78-1.59-1.9-1.94l-1.79-.57c-.65-.2-.92-.45-.92-.87s.56-1,1.38-1a2.16,2.16,0,0,1,2,1.12l1-.31a3.17,3.17,0,0,0-3.05-1.81,2.26,2.26,0,0,0-2.51,2c0,.92.66,1.48,1.63,1.78l1.83.58c.85.27,1.15.59,1.15,1.06s-.64,1.14-1.65,1.14a2.35,2.35,0,0,1-2.27-1.52l-1.07.32a3.37,3.37,0,0,0,3.27,2.19m-7.68-5.36L140,75.34l-1.75-3.89h-1.18l2.39,5.11-1,2.3h1.12l3.18-7.41Zm-11,4.39a1.78,1.78,0,0,1,0-3.55,1.78,1.78,0,0,1,0,3.55m1.7-6.75v3.15a2.21,2.21,0,0,0-1.88-.92,2.75,2.75,0,0,0,0,5.49,2.21,2.21,0,0,0,1.88-.92v.79h1.08V69.09Zm-6.79,2.36v2.6a1.54,1.54,0,0,1-1.51,1.74c-.85,0-1.29-.56-1.29-1.47V71.45h-1.08v3.07a2,2,0,0,0,2.07,2.29,2.13,2.13,0,0,0,1.81-.92v.79h1.08V71.45Zm-6.48,5.23h1.09V69.1h-1.09Zm-4.34-.84a1.78,1.78,0,0,1,0-3.55,1.78,1.78,0,0,1,0,3.55m-.18,1a2.21,2.21,0,0,0,1.88-.92v.79h1.08V71.45h-1.08v.79a2.21,2.21,0,0,0-1.88-.92,2.75,2.75,0,0,0,0,5.49m-6.41,0c1.7,0,2.85-1,2.85-2.2s-.78-1.59-1.9-1.94l-1.79-.57c-.66-.2-.93-.45-.93-.87s.57-1,1.39-1a2.14,2.14,0,0,1,2,1.12l1-.31a3.19,3.19,0,0,0-3-1.81,2.27,2.27,0,0,0-2.52,2c0,.92.67,1.48,1.63,1.78l1.83.58c.85.27,1.16.59,1.16,1.06s-.65,1.14-1.66,1.14A2.34,2.34,0,0,1,106,74.3l-1.07.32a3.36,3.36,0,0,0,3.27,2.19"/><path class="cls-6" d="M235.63,94a2.14,2.14,0,0,0-1.8.92v-.78h-1.09v5.22h1.09v-2.6A1.55,1.55,0,0,1,235.34,95c.85,0,1.29.56,1.29,1.47v2.87h1.08V96.25c0-1.42-.74-2.3-2.08-2.3m-6.88,4.51a1.76,1.76,0,1,1,1.71-1.76,1.69,1.69,0,0,1-1.71,1.76m0,1A2.75,2.75,0,1,0,226,96.69a2.69,2.69,0,0,0,2.78,2.76m-.59-6.18h1l1.06-1.44H229Zm-4.54,6h1.08V94.09h-1.08Zm.55-6.08a.67.67,0,1,0-.68-.67.67.67,0,0,0,.68.67m-4.26,6.22a2.48,2.48,0,0,0,2.47-1.63l-1-.28a1.51,1.51,0,0,1-1.46.93,1.77,1.77,0,0,1,0-3.54,1.53,1.53,0,0,1,1.46,1l1-.29A2.49,2.49,0,0,0,219.89,94a2.75,2.75,0,0,0,0,5.5m-6.12,0a2.48,2.48,0,0,0,2.47-1.63l-1-.28a1.49,1.49,0,0,1-1.46.93,1.77,1.77,0,0,1,0-3.54,1.51,1.51,0,0,1,1.46,1l1-.29A2.48,2.48,0,0,0,213.78,94a2.75,2.75,0,0,0,0,5.5m-5.06-5.36v2.59a1.55,1.55,0,0,1-1.51,1.75c-.85,0-1.29-.56-1.29-1.48V94.09h-1.09v3.06a2,2,0,0,0,2.08,2.3,2.13,2.13,0,0,0,1.81-.93v.79h1.08V94.09Zm-6.66.83v-.83H201v5.22h1.09V97c0-1.52.68-2.07,1.79-1.91V94a1.61,1.61,0,0,0-1.79.89m-2.53,3.33a1.41,1.41,0,0,1-.69.17c-.5,0-.75-.29-.75-.8V95.05h1.66v-1H198.1V92.34H197v1.75h-1v1h1v2.57c0,1.07.51,1.77,1.63,1.77a2.94,2.94,0,0,0,1.16-.24Zm-6.3,1.2c1.29,0,2.19-.71,2.19-1.64s-.63-1.22-1.37-1.43l-1.39-.4c-.35-.12-.56-.26-.56-.52s.36-.64.91-.64a1.41,1.41,0,0,1,1.31.73l1-.28A2.32,2.32,0,0,0,193,94a1.8,1.8,0,0,0-2,1.52c0,.75.55,1.13,1.25,1.34l1.4.41c.47.14.67.31.67.63s-.42.7-1.09.7a1.52,1.52,0,0,1-1.5-1l-1,.29a2.51,2.51,0,0,0,2.46,1.59M187.67,94a2.11,2.11,0,0,0-1.79.92v-.78h-1.09v5.22h1.09v-2.6a1.54,1.54,0,0,1,1.5-1.74c.86,0,1.29.56,1.29,1.47v2.87h1.08V96.25c0-1.42-.74-2.3-2.08-2.3m-6.88,4.51a1.76,1.76,0,1,1,1.71-1.76,1.69,1.69,0,0,1-1.71,1.76m0,1A2.75,2.75,0,1,0,178,96.69a2.69,2.69,0,0,0,2.78,2.76m-7.08,0a3.47,3.47,0,0,0,3.44-2.26l-1.09-.28a2.4,2.4,0,0,1-2.36,1.48,2.72,2.72,0,0,1,0-5.44,2.44,2.44,0,0,1,2.37,1.5l1.09-.27a3.48,3.48,0,0,0-3.46-2.27,3.77,3.77,0,1,0,0,7.54m-8.28-5.36L163.81,98l-1.74-3.88h-1.18l2.38,5.11-1,2.29h1.12l3.18-7.4Zm-11,4.38a1.77,1.77,0,0,1,0-3.54,1.77,1.77,0,0,1,0,3.54m-.18,1a2.23,2.23,0,0,0,1.88-.93v.79h1.08V94.09h-1.08v.79a2.23,2.23,0,0,0-1.88-.93,2.75,2.75,0,0,0,0,5.5m-4.94-.14h1.07V94.09h-1.07Zm.55-6.08a.67.67,0,1,0,0-1.33.67.67,0,1,0,0,1.33m-3.43,1.69v-.83h-1.09v5.22h1.09V97c0-1.52.67-2.07,1.78-1.91V94a1.61,1.61,0,0,0-1.78.89m-2.54,3.33a1.37,1.37,0,0,1-.68.17c-.5,0-.75-.29-.75-.8V95.05h1.66v-1h-1.66V92.34h-1.08v1.75h-1v1h1v2.57c0,1.07.51,1.77,1.63,1.77a2.86,2.86,0,0,0,1.15-.24Zm-6.29,1.2c1.29,0,2.19-.71,2.19-1.64s-.63-1.22-1.37-1.43l-1.39-.4c-.36-.12-.56-.26-.56-.52s.36-.64.91-.64a1.43,1.43,0,0,1,1.31.73l1-.28A2.32,2.32,0,0,0,137.42,94a1.8,1.8,0,0,0-2,1.52c0,.75.55,1.13,1.24,1.34l1.41.41c.46.14.67.31.67.63s-.43.7-1.09.7a1.55,1.55,0,0,1-1.51-1l-1,.29a2.51,2.51,0,0,0,2.46,1.59M133,94.09v2.59a1.55,1.55,0,0,1-1.51,1.75c-.85,0-1.29-.56-1.29-1.48V94.09h-1.09v3.06a2,2,0,0,0,2.08,2.3,2.15,2.15,0,0,0,1.81-.93v.79h1.08V94.09Zm-8.18,4.38a1.77,1.77,0,0,1,0-3.54,1.77,1.77,0,0,1,0,3.54m1.71-6.74v3.15a2.24,2.24,0,0,0-1.89-.93,2.75,2.75,0,0,0,0,5.5,2.24,2.24,0,0,0,1.89-.93v.79h1.07V91.73ZM118.8,94a2.13,2.13,0,0,0-1.8.92v-.78h-1.09v5.22H117v-2.6A1.54,1.54,0,0,1,118.51,95c.85,0,1.28.56,1.28,1.47v2.87h1.08V96.25c0-1.42-.73-2.3-2.07-2.3m-5.59,5.36h1.14V92h-1.14Zm-5.71,1.42h.88l.75-2.68H108Zm-4.14-2.26a1.77,1.77,0,0,1,0-3.54,1.77,1.77,0,0,1,0,3.54m-.18,1a2.24,2.24,0,0,0,1.89-.93v.79h1.07V94.09h-1.07v.79a2.24,2.24,0,0,0-1.89-.93,2.75,2.75,0,0,0,0,5.5m-4.92-.14h1.09V94.09H98.26Zm0-6h1l1-1.44H99ZM95.4,94.92v-.83H94.31v5.22H95.4V97c0-1.52.68-2.07,1.79-1.91V94a1.63,1.63,0,0,0-1.79.89m-6.59,1.39a1.57,1.57,0,0,1,1.62-1.42A1.48,1.48,0,0,1,92,96.3Zm1.71,3.14A2.67,2.67,0,0,0,93,98l-1-.29A1.75,1.75,0,0,1,88.81,97h4.25a3.37,3.37,0,0,0,0-.44A2.52,2.52,0,0,0,90.43,94a2.75,2.75,0,0,0,.09,5.5m-5.13-.14h1.08V94.09H85.39Zm.55-6.08a.67.67,0,1,0-.68-.67.67.67,0,0,0,.68.67M81.79,94a2.13,2.13,0,0,0-1.8.92v-.78H78.9v5.22H80v-2.6A1.54,1.54,0,0,1,81.5,95c.85,0,1.28.56,1.28,1.47v2.87h1.08V96.25c0-1.42-.73-2.3-2.07-2.3m-8.4,2.36A1.58,1.58,0,0,1,75,94.89,1.48,1.48,0,0,1,76.6,96.3Zm1.72,3.14A2.65,2.65,0,0,0,77.61,98l-1-.29a1.53,1.53,0,0,1-1.48.84A1.58,1.58,0,0,1,73.39,97h4.25a3.37,3.37,0,0,0,0-.44A2.51,2.51,0,0,0,75,94a2.75,2.75,0,0,0,.1,5.5m-6.78-1.18A1.67,1.67,0,1,1,70,96.6a1.64,1.64,0,0,1-1.7,1.67M70,94.09v.73A2.26,2.26,0,0,0,68.16,94a2.53,2.53,0,0,0-2.61,2.65,2.56,2.56,0,0,0,2.61,2.65A2.21,2.21,0,0,0,70,98.37v.77a1.46,1.46,0,0,1-1.54,1.57,1.66,1.66,0,0,1-1.56-.8l-1,.36a2.66,2.66,0,0,0,2.49,1.36,2.46,2.46,0,0,0,2.65-2.51v-5ZM62.29,94a2.14,2.14,0,0,0-1.8.92v-.78H59.4v5.22h1.09v-2.6A1.54,1.54,0,0,1,62,95c.85,0,1.29.56,1.29,1.47v2.87h1.08V96.25c0-1.42-.74-2.3-2.08-2.3M56.7,99.31h1.14V92H56.7Z"/><path class="cls-6" d="M235.75,121.24c1.28,0,2.19-.7,2.19-1.64s-.64-1.21-1.37-1.42l-1.4-.41c-.35-.11-.56-.26-.56-.52s.37-.63.92-.63a1.41,1.41,0,0,1,1.31.73l1-.28a2.32,2.32,0,0,0-2.26-1.32,1.81,1.81,0,0,0-2,1.51c0,.75.55,1.14,1.25,1.34l1.4.42c.47.13.68.3.68.62s-.43.71-1.09.71a1.56,1.56,0,0,1-1.51-1l-1,.29a2.5,2.5,0,0,0,2.46,1.59m-7.49-3.14a1.58,1.58,0,0,1,1.62-1.42,1.49,1.49,0,0,1,1.59,1.41Zm1.71,3.14a2.66,2.66,0,0,0,2.5-1.48l-1-.29a1.75,1.75,0,0,1-3.22-.64h4.24a2.18,2.18,0,0,0,0-.44,2.51,2.51,0,0,0-2.66-2.64,2.75,2.75,0,0,0,.09,5.49m-3.61-1.19a1.52,1.52,0,0,1-.69.16c-.5,0-.75-.29-.75-.8v-2.56h1.66v-1h-1.66v-1.74h-1.08v1.74h-1v1h1v2.56c0,1.07.51,1.78,1.63,1.78a2.79,2.79,0,0,0,1.16-.25Zm-6-3.34v-.83h-1.09v5.23h1.09v-2.36c0-1.52.68-2.08,1.79-1.91v-1a1.63,1.63,0,0,0-1.79.89m-7,1.63,1.35-3.43,1.34,3.43Zm3.77,2.77h1.18l-2.88-7.27H214l-2.88,7.27h1.17l.7-1.77h3.46ZM207,115.88l-1.62,3.89-1.74-3.89h-1.18l2.38,5.11-1,2.3H205l3.18-7.41Zm-10.1,5.36c1.29,0,2.19-.7,2.19-1.64s-.63-1.21-1.37-1.42l-1.39-.41c-.36-.11-.56-.26-.56-.52s.36-.63.91-.63a1.41,1.41,0,0,1,1.31.73l1-.28a2.32,2.32,0,0,0-2.26-1.32,1.8,1.8,0,0,0-2,1.51c0,.75.55,1.14,1.24,1.34l1.4.42c.47.13.68.3.68.62s-.43.71-1.09.71a1.56,1.56,0,0,1-1.51-1l-1,.29a2.51,2.51,0,0,0,2.46,1.59m-7.49-3.14a1.58,1.58,0,0,1,1.62-1.42,1.48,1.48,0,0,1,1.59,1.41Zm1.71,3.14a2.68,2.68,0,0,0,2.51-1.48l-1-.29a1.75,1.75,0,0,1-3.22-.64h4.25a3.25,3.25,0,0,0,0-.44,2.51,2.51,0,0,0-2.66-2.64,2.75,2.75,0,0,0,.09,5.49m-6.8-1a1.78,1.78,0,0,1,0-3.55,1.78,1.78,0,0,1,0,3.55m1.7-6.75v3.15a2.21,2.21,0,0,0-1.88-.92,2.75,2.75,0,0,0,0,5.49,2.21,2.21,0,0,0,1.88-.92v.79h1.08v-7.59Zm-8.49,6.75a1.78,1.78,0,0,1,0-3.55,1.78,1.78,0,0,1,0,3.55m-.18,1a2.21,2.21,0,0,0,1.88-.92v.79h1.08v-5.23h-1.08v.79a2.21,2.21,0,0,0-1.88-.92,2.75,2.75,0,0,0,0,5.49m-6.62-1a1.78,1.78,0,0,1,0-3.55,1.78,1.78,0,0,1,0,3.55m1.71-6.75v3.15a2.22,2.22,0,0,0-1.88-.92,2.75,2.75,0,0,0,0,5.49,2.22,2.22,0,0,0,1.88-.92v.79h1.08v-7.59Zm-6.83,7.59h1.08v-5.23H165.6Zm.55-6.08a.67.67,0,1,0-.68-.67.67.67,0,0,0,.68.67m-4.15.72a2.12,2.12,0,0,0-1.8.91v-.78h-1.09v5.23h1.09v-2.6a1.54,1.54,0,0,1,1.51-1.75c.85,0,1.29.57,1.29,1.48v2.87h1.07V118c0-1.41-.73-2.29-2.07-2.29m-7.23,4.52a1.78,1.78,0,0,1,0-3.55,1.78,1.78,0,0,1,0,3.55m-.18,1a2.21,2.21,0,0,0,1.88-.92v.79h1.08v-5.23h-1.08v.79a2.21,2.21,0,0,0-1.88-.92,2.75,2.75,0,0,0,0,5.49m-5.83-5.49a2.09,2.09,0,0,0-1.82.89,1.72,1.72,0,0,0-1.61-.89,2,2,0,0,0-1.65.86v-.73h-1.09v5.23h1.09v-2.64c0-1,.51-1.71,1.34-1.71s1.14.56,1.14,1.43v2.92h1.08v-2.74c0-1,.5-1.61,1.31-1.61s1.17.56,1.17,1.43v2.92h1.09V118a2,2,0,0,0-2.05-2.23m-8.8.13v2.6a1.55,1.55,0,0,1-1.51,1.74c-.85,0-1.29-.56-1.29-1.47v-2.87h-1.09V119a2,2,0,0,0,2.08,2.29,2.14,2.14,0,0,0,1.81-.92v.79H141v-5.23Zm-6.52-2v3h-3.78v-3h-1.13v7.27h1.13v-3.2h3.78v3.2h1.12v-7.27Z"/><path class="cls-6" d="M235.63,139.1a2.14,2.14,0,0,0-1.8.91v-.78h-1.09v5.22h1.09v-2.59a1.55,1.55,0,0,1,1.51-1.75c.85,0,1.29.56,1.29,1.48v2.86h1.08v-3.06a2,2,0,0,0-2.08-2.29m-6.88,4.5a1.76,1.76,0,1,1,1.71-1.75,1.68,1.68,0,0,1-1.71,1.75m0,1a2.75,2.75,0,1,0-2.78-2.75,2.69,2.69,0,0,0,2.78,2.75m-.59-6.18h1l1.06-1.43H229Zm-4.54,6h1.08v-5.22h-1.08Zm.55-6.07a.67.67,0,1,0-.68-.68.67.67,0,0,0,.68.68m-4.26,6.21a2.47,2.47,0,0,0,2.47-1.63l-1-.28a1.5,1.5,0,0,1-1.46.93,1.77,1.77,0,0,1,0-3.54,1.53,1.53,0,0,1,1.46,1l1-.29a2.49,2.49,0,0,0-2.49-1.65,2.75,2.75,0,0,0,0,5.49m-6.77-1a1.77,1.77,0,0,1,0-3.54,1.77,1.77,0,0,1,0,3.54m-.17,1a2.22,2.22,0,0,0,1.88-.92v.78h1.08v-5.22h-1.08V140a2.22,2.22,0,0,0-1.88-.92,2.75,2.75,0,0,0,0,5.49m-6,0a2.47,2.47,0,0,0,2.48-1.63l-1-.28a1.5,1.5,0,0,1-1.47.93,1.77,1.77,0,0,1,0-3.54,1.53,1.53,0,0,1,1.47,1l1-.29A2.49,2.49,0,0,0,207,139.1a2.75,2.75,0,0,0,0,5.49m-5.05-5.36v2.6a1.55,1.55,0,0,1-1.51,1.74c-.85,0-1.29-.56-1.29-1.47v-2.87h-1.09v3.07a2,2,0,0,0,2.08,2.29,2.14,2.14,0,0,0,1.81-.92v.78H203v-5.22Zm-8.18,4.38a1.77,1.77,0,0,1,0-3.54,1.77,1.77,0,0,1,0,3.54m1.71-6.74V140a2.23,2.23,0,0,0-1.89-.92,2.75,2.75,0,0,0,0,5.49,2.23,2.23,0,0,0,1.89-.92v.78h1.07v-7.58Zm-5.36,1.33v-1h-5.23v7.27h5.22v-1H186v-2.19h3.59v-1H186V138.2Z"/><path class="cls-6" d="M237.15,166.11a.7.7,0,1,0-.72-.7.7.7,0,0,0,.72.7m-2.58,0a.7.7,0,1,0-.71-.7.7.7,0,0,0,.71.7m-2.57,0a.7.7,0,1,0-.72-.7.7.7,0,0,0,.72.7m-5.32-5.29-1.62,3.88-1.75-3.88h-1.18l2.39,5.11-1,2.29h1.12l3.18-7.4ZM217.39,166h1.09v-7.58h-1.09Zm-4.34-.84a1.77,1.77,0,0,1,0-3.54,1.77,1.77,0,0,1,0,3.54m-.18,1a2.2,2.2,0,0,0,1.88-.93V166h1.08v-5.22h-1.08v.79a2.2,2.2,0,0,0-1.88-.93,2.75,2.75,0,0,0,0,5.5m-4.94-.14H209v-5.22h-1.08Zm.55-6.08a.67.67,0,1,0-.68-.67.67.67,0,0,0,.68.67m-4.27,6.22a2.46,2.46,0,0,0,2.47-1.63l-1-.28a1.52,1.52,0,0,1-1.47.93,1.69,1.69,0,0,1-1.68-1.78,1.68,1.68,0,0,1,1.68-1.76,1.54,1.54,0,0,1,1.47,1l1-.29a2.47,2.47,0,0,0-2.48-1.65,2.75,2.75,0,0,0,0,5.5m-5-4.53v-.83h-1.09V166h1.09v-2.36c0-1.51.67-2.07,1.78-1.91v-1a1.61,1.61,0,0,0-1.78.89m-6.6,1.39a1.58,1.58,0,0,1,1.62-1.42,1.48,1.48,0,0,1,1.59,1.41Zm1.71,3.14a2.65,2.65,0,0,0,2.51-1.49l-1-.29a1.55,1.55,0,0,1-1.49.84,1.57,1.57,0,0,1-1.73-1.47h4.25a3.37,3.37,0,0,0,0-.44,2.52,2.52,0,0,0-2.66-2.65,2.75,2.75,0,0,0,.09,5.5m-6-5.5a2.12,2.12,0,0,0-1.83.9,1.69,1.69,0,0,0-1.61-.9,1.94,1.94,0,0,0-1.64.86v-.72h-1.09V166h1.09V163.4c0-1.05.51-1.7,1.34-1.7s1.13.55,1.13,1.42V166h1.08v-2.73c0-1,.5-1.61,1.31-1.61s1.18.55,1.18,1.42V166h1.09v-3.13a2,2,0,0,0-2.05-2.23m-10.17,4.51a1.76,1.76,0,1,1,1.72-1.76,1.68,1.68,0,0,1-1.72,1.76m0,1a2.75,2.75,0,1,0-2.77-2.76,2.69,2.69,0,0,0,2.77,2.76m-7.07,0a3.47,3.47,0,0,0,3.43-2.26l-1.09-.28a2.4,2.4,0,0,1-2.35,1.48,2.72,2.72,0,0,1,0-5.44,2.44,2.44,0,0,1,2.36,1.5l1.09-.27a3.48,3.48,0,0,0-3.45-2.27,3.77,3.77,0,1,0,0,7.54m-10.55-1a1.77,1.77,0,0,1,0-3.54,1.77,1.77,0,0,1,0,3.54m-.17,1a2.23,2.23,0,0,0,1.88-.93V166h1.08v-5.22h-1.08v.79a2.23,2.23,0,0,0-1.88-.93,2.75,2.75,0,0,0,0,5.5M154,165.12l3-3.59v-.71h-4.4v.92h3l-3,3.61V166h4.56v-.92Zm-4.71-4.44a2.14,2.14,0,0,0-1.8.92v-.78h-1.08V166h1.08v-2.59A1.55,1.55,0,0,1,149,161.7c.85,0,1.29.56,1.29,1.47V166h1.08V163c0-1.42-.74-2.3-2.08-2.3M142,165.2a1.77,1.77,0,0,1,0-3.54,1.77,1.77,0,0,1,0,3.54m-.17,1a2.23,2.23,0,0,0,1.88-.93V166h1.08v-5.22h-1.08v.79a2.23,2.23,0,0,0-1.88-.93,2.75,2.75,0,0,0,0,5.5m-5.86-5.5a2.13,2.13,0,0,0-1.8.92v-.78H133.1V166h1.09v-2.59a1.54,1.54,0,0,1,1.51-1.75c.85,0,1.29.56,1.29,1.47V166h1.07V163c0-1.42-.73-2.3-2.07-2.3m-1-1.21c.34,0,.78.58,1.36.58s.91-.53.91-1.36h-.74c0,.38-.09.54-.26.54-.36,0-.78-.57-1.36-.57s-.93.53-.93,1.35h.76c0-.39.08-.54.26-.54M127.59,163a1.59,1.59,0,0,1,1.63-1.42,1.49,1.49,0,0,1,1.59,1.41Zm1.72,3.14a2.65,2.65,0,0,0,2.5-1.49l-1-.29a1.55,1.55,0,0,1-1.49.84,1.58,1.58,0,0,1-1.74-1.47h4.25a3.37,3.37,0,0,0,0-.44,2.51,2.51,0,0,0-2.65-2.65,2.75,2.75,0,0,0,.09,5.5m-5.85,0c1.29,0,2.19-.71,2.19-1.64s-.63-1.22-1.37-1.43l-1.39-.4c-.35-.12-.56-.26-.56-.52s.36-.64.91-.64a1.42,1.42,0,0,1,1.31.73l1-.28a2.32,2.32,0,0,0-2.27-1.32,1.8,1.8,0,0,0-2,1.52c0,.75.55,1.13,1.24,1.34l1.41.41c.47.14.67.31.67.63s-.42.7-1.09.7a1.52,1.52,0,0,1-1.5-1l-1,.29a2.51,2.51,0,0,0,2.46,1.59m-5.57-5.5a2.11,2.11,0,0,0-1.79.92v-.78H115V166h1.09v-2.59a1.54,1.54,0,0,1,1.5-1.75c.85,0,1.29.56,1.29,1.47V166H120V163c0-1.42-.74-2.3-2.08-2.3m-4.24-.89v-1h-5.23V166h5.22v-1h-4.11v-2.18h3.59v-1h-3.59v-2.07Zm-10.94,7.67h.88l.75-2.68h-1.18Zm-3.16-1.28c1.29,0,2.19-.71,2.19-1.64s-.63-1.22-1.37-1.43l-1.39-.4c-.36-.12-.56-.26-.56-.52s.36-.64.91-.64a1.42,1.42,0,0,1,1.31.73l1-.28a2.34,2.34,0,0,0-2.27-1.32,1.8,1.8,0,0,0-2,1.52c0,.75.55,1.13,1.24,1.34L100,164c.46.14.67.31.67.63s-.42.7-1.09.7a1.55,1.55,0,0,1-1.51-1l-1,.29a2.51,2.51,0,0,0,2.46,1.59M92.06,163a1.58,1.58,0,0,1,1.62-1.42A1.48,1.48,0,0,1,95.27,163Zm1.71,3.14a2.65,2.65,0,0,0,2.51-1.49l-1-.29a1.75,1.75,0,0,1-3.22-.63h4.25a3.37,3.37,0,0,0,0-.44,2.52,2.52,0,0,0-2.66-2.65,2.75,2.75,0,0,0,.09,5.5M88.66,166h1.09v-7.58H88.66Zm-4.34-.84a1.77,1.77,0,0,1,0-3.54,1.77,1.77,0,0,1,0,3.54m-.17,1a2.23,2.23,0,0,0,1.88-.93V166H87.1v-5.22H86v.79a2.23,2.23,0,0,0-1.88-.93,2.75,2.75,0,0,0,0,5.5m-5-.14h1.08v-5.22H79.2Zm.55-6.08a.67.67,0,1,0-.68-.67.67.67,0,0,0,.68.67m-4.27,6.22A2.46,2.46,0,0,0,78,164.55l-1-.28a1.52,1.52,0,0,1-1.47.93,1.69,1.69,0,0,1-1.68-1.78,1.68,1.68,0,0,1,1.68-1.76,1.54,1.54,0,0,1,1.47,1l1-.29a2.47,2.47,0,0,0-2.48-1.65,2.75,2.75,0,0,0,0,5.5m-6.42-1a1.76,1.76,0,1,1,1.72-1.76,1.69,1.69,0,0,1-1.72,1.76m0,1a2.75,2.75,0,1,0-2.77-2.76,2.7,2.7,0,0,0,2.77,2.76m-6.58,0c1.7,0,2.84-1,2.84-2.2s-.78-1.59-1.9-1.95l-1.78-.57c-.66-.2-.93-.45-.93-.86s.56-1,1.38-1a2.17,2.17,0,0,1,2,1.12l1.05-.31a3.2,3.2,0,0,0-3.06-1.8,2.26,2.26,0,0,0-2.51,2c0,.91.66,1.48,1.63,1.78L63,163c.85.27,1.15.58,1.15,1.06s-.64,1.13-1.65,1.13a2.33,2.33,0,0,1-2.26-1.52l-1.07.33a3.35,3.35,0,0,0,3.27,2.19m-9.08,0c1.29,0,2.19-.71,2.19-1.64s-.63-1.22-1.37-1.43l-1.39-.4c-.36-.12-.56-.26-.56-.52s.36-.64.91-.64a1.42,1.42,0,0,1,1.31.73l1-.28a2.34,2.34,0,0,0-2.27-1.32,1.8,1.8,0,0,0-2,1.52c0,.75.55,1.13,1.24,1.34l1.41.41c.46.14.67.31.67.63s-.42.7-1.09.7a1.55,1.55,0,0,1-1.51-1l-1,.29a2.51,2.51,0,0,0,2.46,1.59m-6.33-1a1.77,1.77,0,0,1,0-3.54,1.77,1.77,0,0,1,0,3.54m-.17,1a2.23,2.23,0,0,0,1.88-.93V166h1.08v-5.22H48.78v.79a2.23,2.23,0,0,0-1.88-.93,2.75,2.75,0,0,0,0,5.5M42,166H43v-5.22H42ZM42.5,160a.67.67,0,1,0-.68-.67.67.67,0,0,0,.68.67m-4.27,6.22a2.47,2.47,0,0,0,2.48-1.63l-1-.28a1.52,1.52,0,0,1-1.47.93,1.7,1.7,0,0,1-1.68-1.78,1.68,1.68,0,0,1,1.68-1.76,1.54,1.54,0,0,1,1.47,1l1-.29a2.49,2.49,0,0,0-2.49-1.65,2.75,2.75,0,0,0,0,5.5m-6-5.5a2.14,2.14,0,0,0-1.8.92v-.78H29.34V166h1.09v-2.59a1.54,1.54,0,0,1,1.51-1.75c.85,0,1.29.56,1.29,1.47V166h1.08V163c0-1.42-.74-2.3-2.08-2.3M23.84,163a1.57,1.57,0,0,1,1.62-1.42A1.49,1.49,0,0,1,27.05,163Zm1.71,3.14a2.65,2.65,0,0,0,2.5-1.49l-1-.29a1.55,1.55,0,0,1-1.49.84,1.56,1.56,0,0,1-1.73-1.47h4.24a2.25,2.25,0,0,0,0-.44,2.52,2.52,0,0,0-2.66-2.65,2.75,2.75,0,0,0,.09,5.5M20.42,166H21.5v-5.22H20.42ZM21,160a.67.67,0,1,0-.68-.67A.67.67,0,0,0,21,160m-5.29,6.22a3.47,3.47,0,0,0,3.44-2.26L18,163.64a2.4,2.4,0,0,1-2.36,1.48,2.72,2.72,0,0,1,0-5.44,2.44,2.44,0,0,1,2.37,1.5l1.09-.27a3.49,3.49,0,0,0-3.46-2.27,3.77,3.77,0,1,0,0,7.54"/><path class="cls-6" d="M235.75,189.73c1.28,0,2.19-.7,2.19-1.64s-.64-1.21-1.37-1.42l-1.4-.41c-.35-.11-.56-.26-.56-.52s.37-.63.92-.63a1.41,1.41,0,0,1,1.31.73l1-.28a2.32,2.32,0,0,0-2.26-1.32,1.81,1.81,0,0,0-2,1.51c0,.75.55,1.14,1.25,1.34l1.4.42c.47.14.68.3.68.62s-.43.71-1.09.71a1.56,1.56,0,0,1-1.51-1l-1,.29a2.51,2.51,0,0,0,2.47,1.59m-6.33-1a1.78,1.78,0,0,1,0-3.55,1.78,1.78,0,0,1,0,3.55m-.18,1a2.2,2.2,0,0,0,1.88-.92v.79h1.08v-5.23h-1.08v.79a2.2,2.2,0,0,0-1.88-.92,2.75,2.75,0,0,0,0,5.49m-4.94-.13h1.08v-5.23H224.3Zm.55-6.08a.67.67,0,1,0,0-1.34.67.67,0,1,0,0,1.34m-4.27,6.21a2.47,2.47,0,0,0,2.47-1.63l-1-.28a1.48,1.48,0,0,1-1.46.94,1.78,1.78,0,0,1,0-3.55,1.5,1.5,0,0,1,1.46,1l1-.29a2.48,2.48,0,0,0-2.48-1.65,2.75,2.75,0,0,0,0,5.49m-6-5.49a2.12,2.12,0,0,0-1.8.91v-.78h-1.09v5.23h1.09V187a1.54,1.54,0,0,1,1.51-1.74c.85,0,1.28.56,1.28,1.47v2.87h1.08v-3.07c0-1.41-.73-2.29-2.07-2.29m-8.4,2.35a1.59,1.59,0,0,1,1.62-1.42,1.48,1.48,0,0,1,1.59,1.41Zm1.72,3.14a2.66,2.66,0,0,0,2.5-1.48l-1-.29a1.54,1.54,0,0,1-1.48.84,1.58,1.58,0,0,1-1.74-1.48h4.25a3.15,3.15,0,0,0,0-.44,2.51,2.51,0,0,0-2.66-2.64,2.75,2.75,0,0,0,.1,5.49m-5.13-.13h1.08v-5.23h-1.08Zm.55-6.08a.67.67,0,1,0,0-1.34.67.67,0,1,0,0,1.34M198,189.73a3.49,3.49,0,0,0,3.44-2.25l-1.09-.28a2.4,2.4,0,0,1-2.36,1.47,2.72,2.72,0,0,1,0-5.43,2.45,2.45,0,0,1,2.37,1.5l1.09-.27a3.49,3.49,0,0,0-3.46-2.28,3.77,3.77,0,1,0,0,7.54"/><path class="cls-6" d="M234.87,211.39a1.77,1.77,0,0,1,0-3.54,1.77,1.77,0,0,1,0,3.54m-.17,1a2.23,2.23,0,0,0,1.88-.93v.79h1.08V207h-1.08v.79a2.23,2.23,0,0,0-1.88-.93,2.75,2.75,0,0,0,0,5.5m-4.82-4.53V207h-1.09v5.22h1.09v-2.36c0-1.51.67-2.07,1.78-1.91v-1a1.61,1.61,0,0,0-1.78.89m-3.73-.83v2.6a1.55,1.55,0,0,1-1.51,1.74c-.85,0-1.29-.56-1.29-1.47V207h-1.09v3.06a2,2,0,0,0,2.08,2.3,2.13,2.13,0,0,0,1.81-.93v.79h1.08V207Zm-5.23,4.16a1.37,1.37,0,0,1-.68.17c-.5,0-.75-.29-.75-.8V208h1.66v-1h-1.66v-1.75h-1.08V207h-.95v1h.95v2.57c0,1.07.51,1.78,1.63,1.78a2.87,2.87,0,0,0,1.15-.25Zm-5.57,1.06h1.09v-7.58h-1.09ZM212.71,207v2.6a1.55,1.55,0,0,1-1.51,1.74c-.85,0-1.29-.56-1.29-1.47V207h-1.09v3.06a2,2,0,0,0,2.08,2.3,2.15,2.15,0,0,0,1.81-.93v.79h1.08V207Zm-7.53,5.36a2.47,2.47,0,0,0,2.47-1.63l-1-.28a1.49,1.49,0,0,1-1.46.93,1.77,1.77,0,0,1,0-3.54,1.51,1.51,0,0,1,1.46,1l1-.3a2.5,2.5,0,0,0-2.48-1.65,2.75,2.75,0,0,0,0,5.5m-5.09-.14h1.08V207h-1.08Zm.55-6.07a.67.67,0,1,0-.69-.68.67.67,0,0,0,.69.68m-3.43,1.68V207h-1.09v5.22h1.09v-2.36c0-1.51.67-2.07,1.79-1.91v-1a1.61,1.61,0,0,0-1.79.89m-5.41,3.36a1.67,1.67,0,1,1,1.7-1.68,1.65,1.65,0,0,1-1.7,1.68m1.67-4.19v.74a2.22,2.22,0,0,0-1.84-.88,2.52,2.52,0,0,0-2.6,2.65,2.55,2.55,0,0,0,2.6,2.65,2.2,2.2,0,0,0,1.84-.88v.77a1.47,1.47,0,0,1-1.54,1.58,1.68,1.68,0,0,1-1.56-.8l-1,.35a2.69,2.69,0,0,0,2.49,1.36,2.46,2.46,0,0,0,2.65-2.5v-5Zm-9.85,2.46L185,206l1.34,3.44Zm3.77,2.76h1.18L185.69,205h-1.44l-2.88,7.27h1.17l.7-1.76h3.46Z"/><path class="cls-6" d="M595.68,141.78a1.76,1.76,0,1,1,1.71-1.76,1.68,1.68,0,0,1-1.71,1.76m0,1a2.75,2.75,0,1,0-2.77-2.76,2.69,2.69,0,0,0,2.77,2.76m-5.93-5.5a2.14,2.14,0,0,0-1.8.92v-.78h-1.09v5.22H588V140a1.54,1.54,0,0,1,1.51-1.74c.85,0,1.29.56,1.29,1.47v2.87h1.08v-3.06c0-1.42-.74-2.3-2.08-2.3m-1-1.21c.34,0,.78.58,1.36.58s.92-.53.92-1.36h-.75c0,.38-.08.54-.26.54-.35,0-.78-.57-1.36-.57s-.93.53-.93,1.35h.76c0-.39.08-.54.26-.54m-6.12,5.73a1.77,1.77,0,0,1,0-3.54,1.77,1.77,0,0,1,0,3.54m-.17,1a2.23,2.23,0,0,0,1.88-.93v.79h1.08v-5.22h-1.08v.79a2.23,2.23,0,0,0-1.88-.93,2.75,2.75,0,0,0,0,5.5m-7.66-4.53v-.83H573.7v5.22h1.09v-2.36c0-1.51.68-2.08,1.79-1.91v-1a1.62,1.62,0,0,0-1.79.89m-6.49,1.39a1.57,1.57,0,0,1,1.62-1.42,1.48,1.48,0,0,1,1.59,1.41Zm1.71,3.14a2.67,2.67,0,0,0,2.51-1.49l-1-.29a1.75,1.75,0,0,1-3.22-.63h4.25a3.37,3.37,0,0,0,0-.44,2.52,2.52,0,0,0-2.66-2.65,2.75,2.75,0,0,0,.09,5.5m-5.91-5.5a2.15,2.15,0,0,0-1.83.89,1.69,1.69,0,0,0-1.6-.89,2,2,0,0,0-1.65.86v-.72h-1.09v5.22H559V140c0-1.05.51-1.7,1.34-1.7s1.14.55,1.14,1.42v2.92h1.08V139.9c0-1,.49-1.61,1.31-1.61s1.17.55,1.17,1.42v2.92h1.09V139.5a2,2,0,0,0-2-2.23m-8.73,5.36h1.08v-5.22h-1.08Zm.55-6.08a.67.67,0,1,0,0-1.33.67.67,0,1,0,0,1.33m-3.33,1.69v-.83H551.5v5.22h1.09v-2.36c0-1.51.68-2.08,1.79-1.91v-1a1.63,1.63,0,0,0-1.79.89m-5,3.55a1.77,1.77,0,0,1,0-3.54,1.77,1.77,0,0,1,0,3.54m.17-4.52a2.22,2.22,0,0,0-1.87.93v-.79h-1.09v7.4h1.09v-3a2.22,2.22,0,0,0,1.87.93,2.75,2.75,0,0,0,0-5.5"/><path class="cls-6" d="M656.26,130.3c1.29,0,2.19-.7,2.19-1.64s-.63-1.21-1.37-1.42l-1.39-.41c-.36-.11-.56-.26-.56-.52s.36-.63.91-.63a1.41,1.41,0,0,1,1.31.73l1-.28a2.32,2.32,0,0,0-2.26-1.32,1.8,1.8,0,0,0-2,1.51c0,.75.55,1.14,1.24,1.34l1.4.42c.47.13.68.3.68.62s-.43.71-1.09.71a1.56,1.56,0,0,1-1.51-1l-1,.29a2.51,2.51,0,0,0,2.46,1.59m-5.88-1a1.77,1.77,0,1,1,1.71-1.76,1.69,1.69,0,0,1-1.71,1.76m0,1a2.75,2.75,0,1,0-2.77-2.75,2.69,2.69,0,0,0,2.77,2.75m-6.69-1a1.78,1.78,0,0,1,0-3.55,1.78,1.78,0,0,1,0,3.55m1.7-6.75v3.15a2.21,2.21,0,0,0-1.88-.92,2.75,2.75,0,0,0,0,5.49,2.21,2.21,0,0,0,1.88-.92v.79h1.08v-7.59ZM637,129.33a1.78,1.78,0,0,1,0-3.55,1.78,1.78,0,0,1,0,3.55m-.18,1a2.2,2.2,0,0,0,1.88-.92v.79h1.08v-5.23H638.7v.79a2.2,2.2,0,0,0-1.88-.92,2.75,2.75,0,0,0,0,5.49m-4.82-.13h1.09v-7.58H632Zm-2.53-5.23v2.6a1.54,1.54,0,0,1-1.51,1.74c-.85,0-1.29-.56-1.29-1.47v-2.87h-1.08V128a2,2,0,0,0,2.07,2.29,2.13,2.13,0,0,0,1.81-.92v.79h1.08v-5.23ZM622,130.3a2.46,2.46,0,0,0,2.47-1.63l-1-.28a1.51,1.51,0,0,1-1.47.94,1.78,1.78,0,0,1,0-3.55,1.53,1.53,0,0,1,1.47,1l1-.29a2.47,2.47,0,0,0-2.48-1.65,2.75,2.75,0,0,0,0,5.49m-5-.13h1.08v-5.23h-1.08Zm.55-6.08a.67.67,0,1,0,0-1.34.67.67,0,1,0,0,1.34m-3.33,1.68v-.83h-1.09v5.23h1.09v-2.36c0-1.52.68-2.08,1.79-1.91v-1a1.63,1.63,0,0,0-1.79.89m-2.43,3.34a1.48,1.48,0,0,1-.68.16c-.5,0-.75-.29-.75-.8v-2.56h1.66v-1h-1.66V123.2h-1.08v1.74h-1v1h1v2.56c0,1.07.51,1.78,1.63,1.78a2.74,2.74,0,0,0,1.15-.25Zm-7.16.22a1.78,1.78,0,0,1,0-3.55,1.78,1.78,0,0,1,0,3.55m-.18,1a2.22,2.22,0,0,0,1.88-.92v.79h1.08v-5.23h-1.08v.79a2.22,2.22,0,0,0-1.88-.92,2.75,2.75,0,0,0,0,5.49m-5.72-5.49a2.1,2.1,0,0,0-1.83.89,1.7,1.7,0,0,0-1.61-.89,1.92,1.92,0,0,0-1.64.86v-.73h-1.09v5.23h1.09v-2.64c0-1,.5-1.71,1.34-1.71s1.13.56,1.13,1.43v2.92h1.08v-2.74c0-1,.5-1.61,1.31-1.61s1.17.56,1.17,1.43v2.92h1.09V127a2,2,0,0,0-2-2.23m-12.17,5.49c1.29,0,2.19-.7,2.19-1.64s-.63-1.21-1.37-1.42l-1.39-.41c-.35-.11-.56-.26-.56-.52s.36-.63.91-.63a1.39,1.39,0,0,1,1.31.73l1-.28a2.32,2.32,0,0,0-2.27-1.32,1.8,1.8,0,0,0-2,1.51c0,.75.55,1.14,1.25,1.34l1.4.42c.47.13.67.3.67.62s-.42.71-1.09.71a1.54,1.54,0,0,1-1.5-1l-1,.29a2.52,2.52,0,0,0,2.46,1.59m-7.38-3.14a1.58,1.58,0,0,1,1.62-1.42,1.49,1.49,0,0,1,1.59,1.41ZM581,130.3a2.66,2.66,0,0,0,2.5-1.48l-1-.29a1.75,1.75,0,0,1-3.22-.64h4.24a2.18,2.18,0,0,0,0-.44,2.51,2.51,0,0,0-2.66-2.64,2.75,2.75,0,0,0,.09,5.49m-4.9-4.53v-.83H575v5.23h1.09v-2.36c0-1.52.67-2.08,1.78-1.91v-1a1.62,1.62,0,0,0-1.78.89m-5,3.56a1.78,1.78,0,0,1,0-3.55,1.78,1.78,0,0,1,0,3.55m.18-4.52a2.2,2.2,0,0,0-1.87.92v-3.15h-1.09v7.59h1.09v-.79a2.2,2.2,0,0,0,1.87.92,2.75,2.75,0,0,0,0-5.49m-6.41,0a2.11,2.11,0,0,0-1.83.89,1.7,1.7,0,0,0-1.61-.89,1.92,1.92,0,0,0-1.64.86v-.73h-1.09v5.23h1.09v-2.64c0-1,.51-1.71,1.34-1.71s1.13.56,1.13,1.43v2.92h1.08v-2.74c0-1,.5-1.61,1.31-1.61s1.18.56,1.18,1.43v2.92h1.09V127a2,2,0,0,0-2-2.23m-10.07,4.51a1.77,1.77,0,1,1,1.72-1.76,1.69,1.69,0,0,1-1.72,1.76m0,1a2.75,2.75,0,1,0-2.77-2.75,2.69,2.69,0,0,0,2.77,2.75m-5-7.4v3H546v-3h-1.14v7.27H546V127h3.78v3.2h1.12V122.9Z"/><path class="cls-6" d="M596.62,88a1.76,1.76,0,1,1,1.71-1.76A1.69,1.69,0,0,1,596.62,88m0,1a2.75,2.75,0,1,0-2.78-2.76A2.69,2.69,0,0,0,596.62,89m-6-5.5a2.16,2.16,0,0,0-1.8.91v-.77h-1.09v5.22h1.09v-2.6a1.54,1.54,0,0,1,1.51-1.74c.85,0,1.29.56,1.29,1.47v2.87h1.08V85.75c0-1.42-.74-2.3-2.08-2.3m-1-1.22c.35,0,.78.59,1.36.59s.92-.53.92-1.36h-.75c0,.38-.08.54-.26.54-.35,0-.78-.57-1.36-.57s-.92.53-.92,1.34h.75c0-.38.09-.54.26-.54M583.35,88a1.77,1.77,0,0,1,0-3.54,1.77,1.77,0,0,1,0,3.54m-.18,1a2.2,2.2,0,0,0,1.88-.93v.79h1.08V83.59h-1.08v.78a2.2,2.2,0,0,0-1.88-.92,2.75,2.75,0,0,0,0,5.5m-7.86-4.53v-.83h-1.09v5.22h1.09V86.45c0-1.52.68-2.08,1.79-1.91v-1a1.62,1.62,0,0,0-1.79.9m-6.6,1.39a1.6,1.6,0,0,1,1.63-1.43,1.5,1.5,0,0,1,1.59,1.41ZM570.43,89a2.65,2.65,0,0,0,2.5-1.49l-1-.29a1.55,1.55,0,0,1-1.49.84,1.58,1.58,0,0,1-1.74-1.48H573a3.11,3.11,0,0,0,0-.43,2.51,2.51,0,0,0-2.65-2.65,2.75,2.75,0,0,0,.09,5.5m-6-5.5a2.12,2.12,0,0,0-1.82.89,1.7,1.7,0,0,0-1.61-.89,2,2,0,0,0-1.65.86v-.72h-1.08v5.22h1.08V86.17c0-1,.51-1.7,1.35-1.7s1.13.55,1.13,1.42v2.92h1.08V86.08c0-1,.5-1.61,1.31-1.61s1.17.55,1.17,1.42v2.92h1.09V85.68a2,2,0,0,0-2.05-2.23m-8.83,5.36h1.07V83.59h-1.07Zm.55-6.08a.67.67,0,0,0,.68-.67.69.69,0,0,0-1.37,0,.67.67,0,0,0,.69.67m-3.43,1.69v-.83h-1.09v5.22h1.09V86.45c0-1.52.67-2.08,1.78-1.91v-1a1.61,1.61,0,0,0-1.78.9M547.6,88a1.77,1.77,0,0,1,0-3.54,1.77,1.77,0,0,1,0,3.54m.17-4.52a2.22,2.22,0,0,0-1.87.92v-.78h-1.09V91h1.09V88a2.22,2.22,0,0,0,1.87.93,2.75,2.75,0,0,0,0-5.5"/><path class="cls-6" d="M652.22,76.48c1.29,0,2.19-.7,2.19-1.64s-.63-1.22-1.37-1.42L651.65,73c-.36-.11-.57-.26-.57-.52s.37-.63.92-.63a1.41,1.41,0,0,1,1.31.73l1-.29A2.33,2.33,0,0,0,652,71a1.8,1.8,0,0,0-2,1.51c0,.75.55,1.13,1.24,1.34l1.4.42c.47.13.68.3.68.62s-.43.71-1.09.71a1.56,1.56,0,0,1-1.51-1l-1,.29a2.51,2.51,0,0,0,2.46,1.59m-6.33-1a1.78,1.78,0,0,1,0-3.55,1.78,1.78,0,0,1,0,3.55m-.17,1a2.22,2.22,0,0,0,1.88-.92v.79h1.08V71.12H647.6v.79a2.22,2.22,0,0,0-1.88-.92,2.75,2.75,0,0,0,0,5.49m-6.62-1a1.78,1.78,0,0,1,0-3.55,1.78,1.78,0,0,1,0,3.55m1.7-6.75v3.15a2.21,2.21,0,0,0-1.88-.92,2.75,2.75,0,0,0,0,5.49,2.21,2.21,0,0,0,1.88-.92v.79h1.08V68.76Zm-8.49,6.75a1.78,1.78,0,0,1,0-3.55,1.78,1.78,0,0,1,0,3.55m-.18,1a2.22,2.22,0,0,0,1.88-.92v.79h1.08V71.12H634v.79a2.22,2.22,0,0,0-1.88-.92,2.75,2.75,0,0,0,0,5.49m-4.92-.13h1.08V68.76h-1.08Zm-2.64-5.23v2.6a1.55,1.55,0,0,1-1.51,1.74c-.85,0-1.29-.56-1.29-1.47V71.12h-1.09v3.07a2,2,0,0,0,2.08,2.29,2.14,2.14,0,0,0,1.81-.92v.79h1.08V71.12ZM617,76.48a2.47,2.47,0,0,0,2.47-1.63l-1-.28a1.5,1.5,0,0,1-1.46.94,1.71,1.71,0,0,1-1.69-1.78A1.69,1.69,0,0,1,617,72a1.53,1.53,0,0,1,1.46,1l1-.29A2.48,2.48,0,0,0,617,71a2.75,2.75,0,0,0,0,5.49M612,76.35H613V71.12H612Zm.55-6.08a.67.67,0,1,0-.69-.68.67.67,0,0,0,.69.68M609.07,72v-.83H608v5.23h1.09V74c0-1.52.67-2.08,1.79-1.92v-1a1.63,1.63,0,0,0-1.79.89m-2.54,3.34a1.45,1.45,0,0,1-.68.16c-.5,0-.75-.29-.75-.8V72.09h1.66v-1H605.1V69.38H604v1.74h-.95v1H604v2.56c0,1.07.51,1.78,1.63,1.78a2.71,2.71,0,0,0,1.15-.25Zm-7.27.22a1.78,1.78,0,0,1,0-3.55,1.78,1.78,0,0,1,0,3.55m-.17,1a2.22,2.22,0,0,0,1.88-.92v.79h1.08V71.12H601v.79a2.22,2.22,0,0,0-1.88-.92,2.75,2.75,0,0,0,0,5.49M593.26,71a2.11,2.11,0,0,0-1.83.89,1.7,1.7,0,0,0-1.61-.89,1.92,1.92,0,0,0-1.64.86v-.73h-1.09v5.23h1.09V73.71c0-1,.51-1.71,1.34-1.71s1.13.55,1.13,1.43v2.92h1.08V73.61c0-1,.5-1.61,1.31-1.61s1.18.55,1.18,1.43v2.92h1.09V73.22a2,2,0,0,0-2-2.23m-12.37,5.49c1.29,0,2.19-.7,2.19-1.64s-.63-1.22-1.37-1.42L580.32,73c-.36-.11-.56-.26-.56-.52s.36-.63.91-.63a1.4,1.4,0,0,1,1.31.73l1-.29A2.35,2.35,0,0,0,580.68,71a1.8,1.8,0,0,0-2,1.51c0,.75.55,1.13,1.24,1.34l1.41.42c.46.13.67.3.67.62s-.42.71-1.09.71a1.56,1.56,0,0,1-1.51-1l-1,.29a2.51,2.51,0,0,0,2.46,1.59m-7.49-3.14A1.57,1.57,0,0,1,575,71.92a1.48,1.48,0,0,1,1.59,1.41Zm1.71,3.14A2.68,2.68,0,0,0,577.62,75l-1-.3a1.74,1.74,0,0,1-3.22-.63h4.25a3.25,3.25,0,0,0,0-.44A2.51,2.51,0,0,0,575,71a2.75,2.75,0,0,0,.09,5.49m-5-4.53v-.83H569v5.23h1.09V74c0-1.52.67-2.08,1.78-1.92v-1a1.62,1.62,0,0,0-1.78.89m-6.6,1.39a1.58,1.58,0,0,1,1.62-1.42,1.48,1.48,0,0,1,1.59,1.41Zm1.71,3.14A2.66,2.66,0,0,0,567.73,75l-1-.3a1.54,1.54,0,0,1-1.48.85,1.58,1.58,0,0,1-1.74-1.48h4.25a3.25,3.25,0,0,0,0-.44A2.51,2.51,0,0,0,565.13,71a2.75,2.75,0,0,0,.09,5.49m-5.13.27c0,.59-.22,1-.73,1a1,1,0,0,1-.53-.16l-.25.88a2.34,2.34,0,0,0,.91.2c1.16,0,1.68-.77,1.68-2V71.12h-1.08Zm.55-6.48a.67.67,0,1,0-.68-.68.67.67,0,0,0,.68.68m-3.19.85v2.6a1.55,1.55,0,0,1-1.51,1.74c-.85,0-1.29-.56-1.29-1.47V71.12h-1.09v3.07a2,2,0,0,0,2.08,2.29,2.14,2.14,0,0,0,1.81-.92v.79h1.07V71.12Zm-6.48-2-2.53,3.65-2.55-3.65h-1.08v7.27H546V71l2.48,3.49L550.92,71v5.32h1.13V69.08Z"/><path class="cls-5" d="M460.29,19.75l1.5-3.82,1.49,3.82Zm4.18,3.07h1.31l-3.2-8.07H461l-3.19,8.07h1.3l.77-2h3.84Zm-12.69-7h2.56a1.42,1.42,0,1,1,0,2.84h-2.53Zm4,7h1.43l-2.08-3.1A2.48,2.48,0,0,0,457,17.3a2.56,2.56,0,0,0-2.65-2.55h-3.84v8.07h1.24v-3h2ZM449,15.88V14.75h-5.81v8.07H449V21.68h-4.57V19.25h4V18.17h-4V15.88Zm-12.59,0H439a1.42,1.42,0,1,1,0,2.84h-2.53Zm4,7h1.44l-2.08-3.1a2.48,2.48,0,0,0,1.88-2.42,2.56,2.56,0,0,0-2.65-2.55h-3.84v8.07h1.24v-3h2Zm-12-7H431a1.42,1.42,0,1,1,0,2.84h-2.52Zm4,7h1.44l-2.08-3.1a2.47,2.47,0,0,0,1.87-2.42A2.55,2.55,0,0,0,431,14.75h-3.83v8.07h1.24v-3h2Zm-11.76-3.07,1.5-3.82,1.49,3.82Zm4.19,3.07h1.3L423,14.75h-1.6l-3.2,8.07h1.31l.77-2h3.84ZM414,23a3.87,3.87,0,0,0,3.82-2.5l-1.21-.32a2.66,2.66,0,0,1-2.62,1.64,2.9,2.9,0,0,1-2.93-3,2.88,2.88,0,0,1,2.93-3,2.72,2.72,0,0,1,2.63,1.66l1.21-.3a3.88,3.88,0,0,0-3.84-2.52A4.19,4.19,0,1,0,414,23m-13.66-7.1h2.56a1.42,1.42,0,1,1,0,2.84h-2.53Zm4,7h1.44l-2.08-3.1a2.48,2.48,0,0,0,1.88-2.42,2.56,2.56,0,0,0-2.65-2.55h-3.84v8.07h1.24v-3h2Zm-10.82-1a2.91,2.91,0,0,1-3-3,2.95,2.95,0,1,1,5.89,0,2.91,2.91,0,0,1-2.94,3m0,1.16a4.19,4.19,0,1,0-4.21-4.2,4.11,4.11,0,0,0,4.21,4.2M385.61,19h-2.34V15.88h2.4a1.57,1.57,0,0,1-.06,3.14m.08-4.27H382v8.07h1.25V20.15h2.36a2.7,2.7,0,1,0,.06-5.4m-12.27,7.06a2.91,2.91,0,0,1-2.95-3,2.95,2.95,0,1,1,5.89,0,2.9,2.9,0,0,1-2.94,3m0,1.16a4.19,4.19,0,1,0-4.2-4.2,4.11,4.11,0,0,0,4.2,4.2m-4.48-.15-3-4.07,2.92-4h-1.51l-2.25,3.08-2.26-3.08h-1.51l2.92,4-3,4.07h1.51l2.33-3.15,2.32,3.15Zm-8.53-6.94V14.75H354.6v8.07h5.8V21.68h-4.57V19.25h4V18.17h-4V15.88ZM350,23c1.89,0,3.16-1.1,3.16-2.45s-.86-1.76-2.11-2.15l-2-.64c-.73-.22-1-.49-1-.95s.62-1.08,1.54-1.08A2.39,2.39,0,0,1,351.81,17L353,16.6a3.53,3.53,0,0,0-3.38-2c-1.63,0-2.79,1-2.79,2.21,0,1,.73,1.64,1.81,2l2,.65c.94.3,1.28.64,1.28,1.17s-.72,1.26-1.84,1.26a2.59,2.59,0,0,1-2.51-1.68l-1.19.35A3.73,3.73,0,0,0,350,23m-13-7.1h2.56a1.42,1.42,0,1,1,0,2.84H337Zm4,7h1.44l-2.08-3.1a2.47,2.47,0,0,0,1.87-2.42,2.55,2.55,0,0,0-2.65-2.55h-3.83v8.07H337v-3h2Zm-10.82-1a2.91,2.91,0,0,1-2.95-3,2.95,2.95,0,1,1,5.89,0,2.91,2.91,0,0,1-2.94,3m0,1.16a4.19,4.19,0,1,0-4.21-4.2A4.1,4.1,0,0,0,330.2,23M322.33,19H320V15.88h2.4a1.57,1.57,0,1,1-.05,3.14m.08-4.27h-3.67v8.07H320V20.15h2.37a2.7,2.7,0,1,0,.06-5.4m-13.2,5,1.5-3.82,1.48,3.82Zm4.18,3.07h1.3l-3.19-8.07h-1.6l-3.19,8.07H308l.77-2h3.84Zm-11.54-1.16V14.75H300.6v8.07h5.49V21.66Zm-4.16-6.91v4.78a2.15,2.15,0,1,1-4.29,0V14.75h-1.25v4.81a3.41,3.41,0,1,0,6.81,0V14.75ZM287.05,23a3.87,3.87,0,0,0,3.82-2.5l-1.21-.32A2.66,2.66,0,0,1,287,21.79a2.91,2.91,0,0,1-2.93-3,2.89,2.89,0,0,1,2.93-3,2.72,2.72,0,0,1,2.63,1.66l1.21-.3A3.88,3.88,0,0,0,287,14.6a4.19,4.19,0,1,0,0,8.37m-6.84-.15h1.26V14.75h-1.26Zm0-9h1.08l1.17-1.58h-1.35Zm-6.76,2H276a1.42,1.42,0,1,1,0,2.84h-2.52Zm4,7h1.44l-2.09-3.1a2.47,2.47,0,0,0,1.88-2.42A2.55,2.55,0,0,0,276,14.75h-3.84v8.07h1.25v-3h2Zm-6.35-8.07h-6.94v1.13H267v6.94h1.25V15.88h2.84Zm-11.83,5,1.5-3.82,1.49,3.82Zm4.19,3.07h1.3l-3.19-8.07H260l-3.19,8.07h1.3l.78-2h3.83Zm-8.9-8.07-2.82,4.06-2.82-4.06h-1.2v8.07H249v-5.9l2.75,3.87,2.77-3.87v5.9h1.25V14.75Z"/></g></g></svg>