<svg xmlns="http://www.w3.org/2000/svg" viewBox="0 0 355.02 207.16"><defs><style>.cls-1{fill:#fff;}.cls-2{fill:#211915;}.cls-3{fill:#7a7a7e;}.cls-4{fill:#cfd0d5;}.cls-5{fill:#91bbab;}.cls-6{fill:#cc695b;}</style></defs><title>Recurso 13_20190726</title><g id="Capa_2" data-name="Capa 2"><g id="Capa_1-2" data-name="Capa 1"><path class="cls-1" d="M8.91,0S0,0,0,8.91V198.25s0,8.91,8.91,8.91h337.2s8.91,0,8.91-8.91V8.91S355,0,346.11,0Z"/><path class="cls-2" d="M187.05,23.51a2.91,2.91,0,0,1-3-3.05,2.95,2.95,0,1,1,5.89,0,2.9,2.9,0,0,1-2.94,3.05m0,1.15a4.18,4.18,0,1,0-4.21-4.19,4.1,4.1,0,0,0,4.21,4.19m-8.23,0c1.89,0,3.16-1.09,3.16-2.44s-.87-1.76-2.11-2.16l-2-.63c-.73-.22-1-.5-1-1s.62-1.07,1.53-1.07a2.4,2.4,0,0,1,2.23,1.25l1.16-.35a3.54,3.54,0,0,0-3.39-2c-1.62,0-2.78,1-2.78,2.21,0,1,.73,1.64,1.8,2l2,.65c.95.3,1.28.64,1.28,1.17s-.71,1.26-1.83,1.26a2.59,2.59,0,0,1-2.51-1.69l-1.19.36a3.73,3.73,0,0,0,3.63,2.43m-6.19-.15h1.27V16.45h-1.27Zm-2.93-8.06-2.81,4.05-2.82-4.05h-1.2v8.06h1.25v-5.9l2.76,3.88,2.77-3.88v5.9h1.25V16.45Zm-12.4,7.06a2.91,2.91,0,0,1-3-3.05,2.95,2.95,0,1,1,5.89,0,2.91,2.91,0,0,1-2.94,3.05m0,1.15a4.18,4.18,0,1,0-4.21-4.19,4.1,4.1,0,0,0,4.21,4.19m-10.51-7.1h2.56a1.43,1.43,0,1,1,0,2.85h-2.52Zm4,7h1.44l-2.09-3.1A2.46,2.46,0,0,0,152,19a2.55,2.55,0,0,0-2.65-2.54h-3.84v8.06h1.25v-3h2Zm-9.28-3.79h-2.34V17.57h2.4a1.58,1.58,0,0,1-.06,3.15m.08-4.27h-3.66v8.06h1.24V21.85h2.36a2.7,2.7,0,1,0,.06-5.4m-6.59,0-2.82,4.05-2.82-4.05h-1.2v8.06h1.26v-5.9l2.75,3.88L135,18.61v5.9h1.26V16.45ZM122.6,23.51a2.91,2.91,0,0,1-2.95-3.05,2.95,2.95,0,1,1,5.89,0,2.9,2.9,0,0,1-2.94,3.05m0,1.15a4.18,4.18,0,1,0-4.2-4.19,4.1,4.1,0,0,0,4.2,4.19m-9,0a3.85,3.85,0,0,0,3.81-2.5l-1.21-.31a2.66,2.66,0,0,1-2.61,1.64,2.91,2.91,0,0,1-2.93-3,2.88,2.88,0,0,1,2.93-3,2.7,2.7,0,0,1,2.62,1.66l1.21-.3a3.85,3.85,0,0,0-3.83-2.52,4.18,4.18,0,1,0,0,8.36m-12.34-1.3V16.45H100v8.06h5.5V23.36Zm-7.75-1.91L95,17.63l1.48,3.82Zm4.18,3.06H99l-3.19-8.06h-1.6L91,24.51h1.3l.77-2H96.9Zm-16.62.15c1.89,0,3.16-1.09,3.16-2.44s-.87-1.76-2.11-2.16l-2-.63c-.73-.22-1-.5-1-1s.62-1.07,1.53-1.07a2.4,2.4,0,0,1,2.23,1.25L84,18.3a3.54,3.54,0,0,0-3.39-2c-1.62,0-2.79,1-2.79,2.21,0,1,.74,1.64,1.81,2l2,.65c1,.3,1.28.64,1.28,1.17s-.71,1.26-1.83,1.26a2.59,2.59,0,0,1-2.51-1.69l-1.19.36a3.73,3.73,0,0,0,3.63,2.43m-9.43-3.21,1.5-3.82,1.49,3.82Zm4.18,3.06h1.31l-3.2-8.06h-1.6l-3.19,8.06h1.3l.77-2H75Zm-6.2-8.06H62.66v1.12h2.85v6.94h1.26V17.57H69.6Zm-9.3,8.06h1.27V16.45H60.3Zm-6.78-7h2.56a1.43,1.43,0,1,1,0,2.85H53.52Zm4,7H59l-2.09-3.1A2.47,2.47,0,0,0,58.77,19a2.55,2.55,0,0,0-2.65-2.54H52.28v8.06h1.24v-3h2Zm-10.44.15a3.86,3.86,0,0,0,3.82-2.5l-1.21-.31a2.67,2.67,0,0,1-2.62,1.64,2.91,2.91,0,0,1-2.93-3,2.89,2.89,0,0,1,2.93-3,2.72,2.72,0,0,1,2.63,1.66l1.21-.3a3.87,3.87,0,0,0-3.84-2.52,4.18,4.18,0,1,0,0,8.36m-8.23,0c1.89,0,3.16-1.09,3.16-2.44s-.86-1.76-2.11-2.16l-2-.63c-.73-.22-1-.5-1-1s.62-1.07,1.54-1.07a2.39,2.39,0,0,1,2.22,1.25l1.16-.35a3.53,3.53,0,0,0-3.38-2c-1.63,0-2.79,1-2.79,2.21,0,1,.73,1.64,1.81,2l2,.65c.94.3,1.28.64,1.28,1.17s-.72,1.26-1.84,1.26a2.59,2.59,0,0,1-2.51-1.69l-1.19.36a3.73,3.73,0,0,0,3.63,2.43M30.6,23.39h-2V17.57h2a2.64,2.64,0,0,1,2.68,2.89,2.66,2.66,0,0,1-2.68,2.93m0-6.94H27.33v8.06h3.29a3.76,3.76,0,0,0,3.92-4,3.76,3.76,0,0,0-3.92-4m-9.79,5,1.5-3.82,1.49,3.82ZM25,24.51h1.3l-3.19-8.06H21.52l-3.19,8.06h1.3l.78-2h3.83Z"/><path class="cls-2" d="M308.22,38.8c-5.3,0-8.76-3.66-8.76-8.34S302.92,22,308.22,22,317,25.64,317,30.46c0,4.61-3.46,8.34-8.81,8.34m0-25.17c-10.45,0-18,7.33-18,16.83,0,9.16,6.85,15.94,16.69,16.42h1.35l-9.77,15.19H309l13.77-21.3c2.51-3.93,3.53-7.06,3.53-10.31,0-9.57-7.6-16.83-18-16.83m-33.86.95L260,22l2.24,7.94,10.65-5V62.07h9.43V14.58Z"/><path class="cls-2" d="M314.8,132.44l-14.39,7.39,2.24,7.94,10.65-5v37.11h9.43V132.44Zm-51.22,0v8.41h23.47l-17.23,39.08h9.91l18-41.05v-6.44Z"/><path class="cls-2" d="M232.17,140.7a3,3,0,1,1,2.94-3.06,2.91,2.91,0,0,1-2.94,3.06m0,1.15a4.19,4.19,0,1,0-4.2-4.19,4.1,4.1,0,0,0,4.2,4.19m-8.23,0c1.89,0,3.16-1.09,3.16-2.44s-.86-1.77-2.11-2.16l-2-.63c-.73-.22-1-.5-1-1s.63-1.07,1.54-1.07a2.4,2.4,0,0,1,2.22,1.24l1.16-.34a3.52,3.52,0,0,0-3.38-2c-1.63,0-2.79,1-2.79,2.22,0,1,.73,1.63,1.81,2l2,.64c.94.3,1.28.65,1.28,1.18s-.72,1.26-1.84,1.26a2.59,2.59,0,0,1-2.51-1.69l-1.19.36a3.73,3.73,0,0,0,3.63,2.43m-6.19-.15H219v-8.07h-1.27Zm-2.92-8.07L212,137.69l-2.82-4.06H208v8.07h1.26v-5.9l2.75,3.87,2.77-3.87v5.9H216v-8.07Zm-12.41,7.07a3,3,0,1,1,2.94-3.06,2.91,2.91,0,0,1-2.94,3.06m0,1.15a4.19,4.19,0,1,0-4.2-4.19,4.1,4.1,0,0,0,4.2,4.19m-10.51-7.1h2.56a1.43,1.43,0,1,1,0,2.85h-2.52Zm4,6.95h1.44l-2.08-3.1a2.46,2.46,0,0,0,1.87-2.42,2.56,2.56,0,0,0-2.65-2.55h-3.83v8.07h1.24v-3h2Zm-9.28-3.79H184.3v-3.15h2.4a1.58,1.58,0,0,1-.06,3.15m.08-4.28h-3.66v8.07h1.24V139h2.36a2.71,2.71,0,1,0,.06-5.41m-6.59,0-2.81,4.06-2.83-4.06h-1.2v8.07h1.26v-5.9l2.76,3.87,2.76-3.87v5.9h1.26v-8.07Zm-12.4,7.07a3,3,0,1,1,2.94-3.06,2.92,2.92,0,0,1-2.94,3.06m0,1.15a4.19,4.19,0,1,0-4.21-4.19,4.1,4.1,0,0,0,4.21,4.19m-9,0a3.86,3.86,0,0,0,3.82-2.5L161.3,139a2.66,2.66,0,0,1-2.61,1.64,2.91,2.91,0,0,1-2.93-3,2.88,2.88,0,0,1,2.93-3,2.72,2.72,0,0,1,2.63,1.66l1.21-.3a3.88,3.88,0,0,0-3.84-2.53,4.19,4.19,0,1,0,0,8.37m-12.33-1.3v-6.92h-1.26v8.07h5.5v-1.15Zm-7.76-1.91,1.5-3.82,1.48,3.82Zm4.18,3.06h1.31l-3.2-8.07h-1.6l-3.19,8.07h1.3l.77-2H142Zm-13.59.15c1.89,0,3.16-1.09,3.16-2.44s-.86-1.77-2.11-2.16l-2-.63c-.73-.22-1-.5-1-1s.63-1.07,1.54-1.07a2.4,2.4,0,0,1,2.22,1.24l1.17-.34a3.55,3.55,0,0,0-3.39-2c-1.63,0-2.79,1-2.79,2.22,0,1,.73,1.63,1.81,2l2,.64c.94.3,1.28.65,1.28,1.18s-.72,1.26-1.84,1.26a2.59,2.59,0,0,1-2.51-1.69l-1.19.36a3.73,3.73,0,0,0,3.63,2.43m-9.43-3.21,1.5-3.82,1.49,3.82ZM124,141.7h1.3l-3.19-8.07h-1.6l-3.2,8.07h1.31l.77-2h3.84Zm-6.2-8.07h-6.94v1.13h2.85v6.94h1.25v-6.94h2.84Zm-9.3,8.07h1.26v-8.07h-1.26Zm-6.78-6.95h2.56a1.43,1.43,0,1,1,0,2.85h-2.52Zm4,6.95h1.44L105,138.6a2.47,2.47,0,0,0,1.88-2.42,2.56,2.56,0,0,0-2.65-2.55h-3.84v8.07h1.25v-3h2Zm-10.43.15a3.86,3.86,0,0,0,3.81-2.5L97.86,139a2.66,2.66,0,0,1-2.62,1.64,2.91,2.91,0,0,1-2.92-3,2.88,2.88,0,0,1,2.92-3,2.71,2.71,0,0,1,2.63,1.66l1.21-.3a3.87,3.87,0,0,0-3.84-2.53,4.19,4.19,0,1,0,0,8.37m-8.23,0c1.89,0,3.15-1.09,3.15-2.44s-.86-1.77-2.1-2.16l-2-.63c-.72-.22-1-.5-1-1s.62-1.07,1.53-1.07a2.39,2.39,0,0,1,2.22,1.24l1.17-.34a3.53,3.53,0,0,0-3.39-2c-1.63,0-2.79,1-2.79,2.22,0,1,.74,1.63,1.81,2l2,.64c.94.3,1.28.65,1.28,1.18s-.72,1.26-1.83,1.26a2.61,2.61,0,0,1-2.52-1.69l-1.18.36A3.71,3.71,0,0,0,87,141.85m-8.28-1.28h-2v-5.81h2a2.91,2.91,0,0,1,0,5.81m0-6.94H75.49v8.07h3.28a4,4,0,0,0,0-8.07m-9.78,5,1.49-3.82L72,138.64Zm4.18,3.06h1.3l-3.19-8.07h-1.6l-3.19,8.07h1.3l.77-2H72.4Zm-14.57-1a3,3,0,1,1,2.94-3.06,2.91,2.91,0,0,1-2.94,3.06m0,1.15a4.19,4.19,0,1,0-4.21-4.19,4.1,4.1,0,0,0,4.21,4.19m-6.83-8.22v5.85l-4.48-5.85h-1v8.07H47.5v-5.84L52,141.7H53v-8.07Zm-11.54,0v5.85l-4.48-5.85h-1v8.07H36v-5.84l4.47,5.84h1v-8.07Zm-8.43,0v4.79a2.15,2.15,0,1,1-4.29,0v-4.79H26.26v4.81a3.15,3.15,0,0,0,3.4,3.41,3.16,3.16,0,0,0,3.41-3.41v-4.81Zm-.54-2.51H29.91l-.9,1.59h1.07Zm-11.14,7.52,1.5-3.82,1.49,3.82Zm4.19,3.06h1.3l-3.19-8.07h-1.6l-3.2,8.07h1.31l.77-2h3.84Z"/><path class="cls-3" d="M53.33,176.51c-1.09,0-1.64-1-1.64-2.49s.55-2.49,1.64-2.49S55,172.52,55,174s-.54,2.49-1.62,2.49m0,.93C55,177.44,56,176,56,174s-.94-3.43-2.65-3.43-2.66,1.46-2.66,3.43.94,3.42,2.66,3.42m-5.85-3.2a1.37,1.37,0,1,1,1.41-1.36,1.35,1.35,0,0,1-1.41,1.36m0-3.65A2.29,2.29,0,0,0,45,172.88a2.25,2.25,0,0,0,2.31,2.26,1.77,1.77,0,0,0,.41,0l-1.47,2.23h1.16l1.94-3a2.66,2.66,0,0,0,.52-1.48,2.3,2.3,0,0,0-2.44-2.29m-9.54,4a1.44,1.44,0,0,1,1.48-1.29,1.35,1.35,0,0,1,1.44,1.28Zm1.56,2.85a2.4,2.4,0,0,0,2.27-1.35l-.9-.26a1.42,1.42,0,0,1-1.35.76,1.44,1.44,0,0,1-1.58-1.34h3.86a2.6,2.6,0,0,0,0-.4,2.28,2.28,0,0,0-2.41-2.4,2.5,2.5,0,0,0,.08,5m-6.18-.89a1.61,1.61,0,0,1,0-3.21,1.61,1.61,0,0,1,0,3.21m1.55-6.12v2.86a2,2,0,0,0-1.71-.84,2.5,2.5,0,0,0,0,5,2,2,0,0,0,1.71-.84v.72h1v-6.89Zm-8.65.29-2,1,.26.89,1.56-.75v5.45h1v-6.6Zm-7.21,0v.92h3.48L20,177.32H21l2.61-5.88v-.72Z"/><path class="cls-4" d="M20,67.87s-4,0-4,4v2.49s0,4,4,4H327.78s4,0,4-4V71.87s0-4-4-4Z"/><path class="cls-4" d="M20,185.56s-4,0-4,4v2.49s0,4,4,4H327.78s4,0,4-4v-2.49s0-4-4-4Z"/><path class="cls-5" d="M20,67.87s-4,0-4,4v2.49s0,4,4,4H78.64s4,0,4-4V71.87s0-4-4-4Z"/><path class="cls-6" d="M20,185.56s-4,0-4,4v2.49s0,4,4,4H261.13s4,0,4-4v-2.49s0-4-4-4Z"/><path class="cls-3" d="M53.66,59.62c-1.09,0-1.64-1-1.64-2.5s.55-2.49,1.64-2.49,1.62,1,1.62,2.49-.54,2.5-1.62,2.5m0,.93c1.71,0,2.65-1.46,2.65-3.43s-.94-3.42-2.65-3.42S51,55.15,51,57.12s.94,3.43,2.66,3.43m-5.85-3.2A1.35,1.35,0,0,1,46.38,56a1.42,1.42,0,1,1,1.43,1.37m0-3.65A2.3,2.3,0,0,0,45.37,56a2.25,2.25,0,0,0,2.31,2.27,1.77,1.77,0,0,0,.41,0l-1.47,2.23h1.16l1.94-3A2.63,2.63,0,0,0,50.24,56,2.3,2.3,0,0,0,47.8,53.7m-9.54,4a1.44,1.44,0,0,1,1.48-1.29,1.35,1.35,0,0,1,1.44,1.28Zm1.56,2.85a2.4,2.4,0,0,0,2.27-1.35l-.9-.26a1.42,1.42,0,0,1-1.35.76,1.44,1.44,0,0,1-1.58-1.34h3.86a2.69,2.69,0,0,0,0-.4,2.28,2.28,0,0,0-2.41-2.4,2.5,2.5,0,0,0,.08,5m-6.18-.89a1.61,1.61,0,0,1,0-3.21,1.61,1.61,0,0,1,0,3.21m1.55-6.12V56.4a2,2,0,0,0-1.71-.84,2.5,2.5,0,0,0,0,5,2,2,0,0,0,1.71-.84v.72h1V53.54Zm-9.72,3.81A1.35,1.35,0,0,1,24,56a1.42,1.42,0,1,1,1.43,1.37m0-3.65A2.3,2.3,0,0,0,23,56a2.26,2.26,0,0,0,2.31,2.27,1.79,1.79,0,0,0,.42,0l-1.47,2.23h1.16l1.94-3A2.63,2.63,0,0,0,27.9,56a2.3,2.3,0,0,0-2.44-2.28M21,53.82l-2,1,.25.89L20.84,55v5.46h1V53.82Z"/></g></g></svg>