<?xml version="1.0" encoding="utf-8"?>
<!-- Generator: Adobe Illustrator 23.0.1, SVG Export Plug-In . SVG Version: 6.00 Build 0)  -->
<svg version="1.1" id="Capa_1" xmlns="http://www.w3.org/2000/svg" xmlns:xlink="http://www.w3.org/1999/xlink" x="0px" y="0px"
	 viewBox="0 0 302.5 61.1" style="enable-background:new 0 0 302.5 61.1;" xml:space="preserve">
<style type="text/css">
	.st0{fill:#1D418F;}
	.st1{fill:#62B778;}
	.st2{enable-background:new    ;}
	.st3{fill:#FFFFFF;}
	.st4{fill:#F1BF38;}
	.st5{fill:#EB6466;}
	.st6{fill:none;}
</style>
<title>Recurso 7</title>
<g>
	<g>
		<polygon class="st0" points="158.9,13.7 140.5,27.1 147.5,48.8 170.4,48.8 177.4,27.1 		"/>
		<polygon class="st1" points="302.5,49.4 270.1,49.4 270.1,13.9 302.5,13.4 		"/>
		<g class="st2">
			<path class="st3" d="M278.1,26.4l16.4,0l0,3.9l-16.4,0L278.1,26.4z M278.1,33.7l16.4,0l0,3.9l-16.4,0L278.1,33.7z"/>
		</g>
		<circle class="st4" cx="199.2" cy="31.7" r="17.2"/>
		<polygon class="st5" points="252.2,13.7 232,13.7 221.9,31.3 232,48.8 252.2,48.8 262.4,31.3 		"/>
		<g class="st2">
			<path class="st3" d="M150.5,26.3l16.4,0l0,3.9l-16.4,0L150.5,26.3z M150.6,33.6l16.4,0l0,3.9l-16.4,0L150.6,33.6z"/>
		</g>
		<g>
			<g class="st2">
				<path class="st3" d="M190.7,26.3l16.4,0l0,3.9l-16.4,0L190.7,26.3z M190.7,33.6l16.4,0l0,3.9l-16.4,0L190.7,33.6z"/>
			</g>
		</g>
		<g class="st2">
			<path class="st3" d="M233.6,26.3l16.4,0l0,3.9l-16.4,0L233.6,26.3z M233.6,33.6l16.4,0l0,3.9l-16.4,0L233.6,33.6z"/>
		</g>
	</g>
	<g>
		<g>
			<g>
				<path class="st3" d="M32.8,56.8c-0.4,0.2-0.7,0.3-1.1,0.3c-0.9,0-1.3-0.6-1.3-1.5s0.4-1.5,1.3-1.5c0.4,0,0.7,0.1,0.9,0.3
					l-0.2,0.4c-0.2-0.1-0.4-0.2-0.7-0.2c-0.5,0-0.8,0.4-0.8,1c0,0.7,0.2,1.1,0.7,1.1c0.2,0,0.4,0,0.5-0.1V56h-0.4v-0.4h0.9v1.2H32.8
					z"/>
				<path class="st3" d="M35.1,56c0,0.7-0.4,1.1-1,1.1s-1-0.4-1-1.1c0-0.6,0.3-1.1,1-1.1C34.7,54.9,35.1,55.4,35.1,56 M34.5,56
					c0-0.5-0.1-0.7-0.4-0.7c-0.3,0-0.4,0.2-0.4,0.7s0.1,0.7,0.4,0.7S34.5,56.5,34.5,56"/>
				<path class="st3" d="M36,55.2c0.1-0.1,0.3-0.3,0.6-0.3c0.5,0,0.8,0.4,0.8,1.1c0,0.7-0.4,1.1-0.9,1.1c-0.3,0-0.5-0.1-0.6-0.3
					L35.8,57h-0.3v-2.9h0.6v0.7L36,55.2z M36.1,56.5c0.1,0.1,0.2,0.2,0.4,0.2s0.4-0.2,0.4-0.7s-0.2-0.7-0.4-0.7
					c-0.1,0-0.3,0.1-0.4,0.2V56.5z"/>
				<path class="st3" d="M38,57v-1.7l-0.2-0.1v-0.4h0.8V57H38z M38,54.1h0.6v0.5H38V54.1z"/>
				<path class="st3" d="M39.6,56.1c0,0.3,0.2,0.5,0.5,0.5c0.2,0,0.4-0.1,0.6-0.2l0.1,0.4C40.6,56.9,40.3,57,40,57
					c-0.7,0-1-0.4-1-1.1c0-0.6,0.3-1.1,1-1.1c0.6,0,0.9,0.5,0.9,1V56L39.6,56.1L39.6,56.1z M40,55.3c-0.3,0-0.4,0.3-0.4,0.5h0.8
					C40.3,55.5,40.3,55.3,40,55.3"/>
				<path class="st3" d="M42.5,55.4c-0.1,0-0.2,0-0.3,0s-0.3,0.1-0.4,0.1V57h-0.6v-2.1h0.4c0,0.1,0,0.2,0.1,0.3l0,0
					c0.1-0.1,0.3-0.3,0.5-0.3c0.1,0,0.2,0,0.2,0C42.5,55.1,42.5,55.2,42.5,55.4"/>
				<path class="st3" d="M44.1,57v-1.2c0-0.3-0.1-0.5-0.4-0.5c-0.1,0-0.3,0.1-0.4,0.1V57h-0.6v-2.1h0.4l0.1,0.2
					c0.1-0.1,0.4-0.3,0.7-0.3c0.5,0,0.7,0.3,0.7,0.8V57H44.1z"/>
				<path class="st3" d="M47,56c0,0.7-0.4,1.1-1,1.1s-1-0.4-1-1.1c0-0.6,0.3-1.1,1-1.1S47,55.4,47,56 M46.5,56
					c0-0.5-0.2-0.7-0.4-0.7c-0.3,0-0.4,0.2-0.4,0.7s0.1,0.7,0.4,0.7C46.3,56.7,46.5,56.5,46.5,56"/>
				<path class="st3" d="M49.8,55.1c0-0.1-0.1-0.2-0.1-0.4v-0.6h0.6V57h-0.5l-0.1-0.2c-0.1,0.1-0.3,0.3-0.6,0.3
					c-0.5,0-0.9-0.3-0.9-1.1c0-0.7,0.4-1.1,0.9-1.1C49.5,54.9,49.6,55,49.8,55.1 M49.7,55.4c-0.1-0.1-0.2-0.1-0.4-0.1
					c-0.3,0-0.4,0.2-0.4,0.7s0.2,0.7,0.4,0.7c0.1,0,0.3-0.1,0.4-0.2V55.4z"/>
				<path class="st3" d="M51.2,56.1c0,0.3,0.2,0.5,0.5,0.5c0.2,0,0.4-0.1,0.6-0.2l0.1,0.4c-0.2,0.1-0.5,0.2-0.8,0.2
					c-0.7,0-1-0.4-1-1.1c0-0.6,0.3-1.1,1-1.1c0.6,0,0.9,0.5,0.9,1V56L51.2,56.1L51.2,56.1z M51.6,55.3c-0.3,0-0.4,0.3-0.4,0.5H52
					C52,55.5,51.9,55.3,51.6,55.3"/>
				<path class="st3" d="M55.1,57.1c-0.8,0-1.2-0.5-1.2-1.5c0-0.9,0.4-1.5,1.2-1.5c0.4,0,0.7,0.1,1,0.2l-0.2,0.4
					c-0.1-0.1-0.4-0.2-0.7-0.2c-0.5,0-0.7,0.4-0.7,1c0,0.7,0.2,1,0.7,1c0.3,0,0.6-0.1,0.8-0.3l0.2,0.4C55.8,57,55.5,57.1,55.1,57.1"
					/>
				<path class="st3" d="M56.5,57v-2.9H57v0.8c0,0.1,0,0.3-0.1,0.3c0.1-0.1,0.3-0.3,0.6-0.3c0.6,0,0.8,0.3,0.8,0.8V57h-0.6v-1.2
					c0-0.1,0-0.1,0-0.1c0-0.2-0.1-0.3-0.3-0.3c-0.1,0-0.3,0.1-0.4,0.1V57H56.5z"/>
				<path class="st3" d="M59,57v-1.7l-0.2-0.1v-0.4h0.8V57H59z M59,54.1h0.6v0.5H59V54.1z"/>
				<path class="st3" d="M60,56.5v-2.4h0.6v2.4c0,0.2,0.1,0.2,0.3,0.2V57c0,0-0.2,0-0.3,0C60.2,57.1,60,56.9,60,56.5"/>
				<path class="st3" d="M61.8,56.1c0,0.3,0.2,0.5,0.5,0.5c0.2,0,0.4-0.1,0.6-0.2l0.1,0.4c-0.2,0.1-0.5,0.2-0.8,0.2
					c-0.7,0-1-0.4-1-1.1c0-0.6,0.3-1.1,1-1.1c0.6,0,0.9,0.5,0.9,1V56L61.8,56.1L61.8,56.1z M62.2,55.3c-0.3,0-0.4,0.3-0.4,0.5h0.8
					C62.5,55.5,62.4,55.3,62.2,55.3"/>
				<g>
					<g>
						<g>
							<path class="st3" d="M75.7,23.7c-2.2,0-3.4-1.5-3.4-4.1c0-2.5,1.2-4,3.4-4c1.1,0,2,0.2,2.7,0.7l-0.6,1.2
								c-0.4-0.3-1.1-0.5-1.9-0.5c-1.3,0-2,0.9-2,2.6c0,1.8,0.7,2.8,1.9,2.8c0.8,0,1.5-0.3,2.1-0.7l0.5,1.2
								C77.6,23.4,76.7,23.7,75.7,23.7z"/>
							<path class="st3" d="M83.7,23.5v-3.3h-2.9v3.3h-1.5v-7.9h1.5v3.2h2.9v-3.2h1.6v7.9C85.3,23.5,83.7,23.5,83.7,23.5z"/>
							<path class="st3" d="M86.8,23.5v-7.9h1.5v7.9H86.8z"/>
							<path class="st3" d="M89.8,23.5v-7.9h1.5v6.6h3.3v1.3H89.8z"/>
							<path class="st3" d="M95.4,23.5v-7.9h4.8V17h-3.3v1.9h2.5l-0.1,1.4h-2.4v2h3.3v1.3L95.4,23.5L95.4,23.5z"/>
							<path class="st3" d="M103.6,23.5v-7.9h1.5v6.6h3.3v1.3H103.6z"/>
							<path class="st3" d="M111.5,23.7c-2.6,0-3.4-2-3.4-4.1s0.7-4,3.4-4c2.7,0,3.4,1.9,3.4,4C114.9,21.6,114.1,23.7,111.5,23.7z
								 M111.5,16.9c-1.4,0-1.7,1.2-1.7,2.7c0,1.6,0.4,2.8,1.7,2.8c1.4,0,1.8-1.3,1.8-2.8C113.2,18.1,112.9,16.9,111.5,16.9z"/>
							<path class="st3" d="M77,34.4v-3.3h-2.9v3.3h-1.5v-7.9h1.5v3.2H77v-3.2h1.6v7.9H77z"/>
							<path class="st3" d="M80.7,34.4h-1.5l2.1-7.9h2.5l2.1,7.9h-1.7l-0.4-1.8h-2.7L80.7,34.4z M82.3,27.9l-0.9,3.5h2.1l-0.8-3.5
								H82.3z"/>
							<path class="st3" d="M89.6,34.5c-2.2,0-3.4-1.5-3.4-4.1c0-2.5,1.2-4,3.4-4c1.1,0,2,0.2,2.7,0.7l-0.6,1.2
								c-0.4-0.3-1.1-0.5-1.9-0.5c-1.3,0-2,0.9-2,2.6c0,1.8,0.7,2.8,1.9,2.8c0.8,0,1.5-0.3,2.1-0.7l0.5,1.2
								C91.5,34.2,90.6,34.5,89.6,34.5z"/>
							<path class="st3" d="M93.2,34.4v-7.9H98v1.3h-3.3v1.9h2.5l-0.1,1.4h-2.4v2H98v1.3C98,34.4,93.2,34.4,93.2,34.4z"/>
							<path class="st3" d="M105.9,34.4l-0.2-6.7l0,0c-0.1,0.8-0.3,1.4-0.4,1.9l-1.1,4.8h-2.3l-1.1-4.8c-0.1-0.5-0.2-1.1-0.4-1.9
								l0,0l-0.1,6.7h-1.4l0.3-7.9h2.6c0,0,0.9,4,1.3,6.5l0,0c0.5-2.5,1.6-6.5,1.6-6.5h2.6l0.3,7.9H105.9z"/>
							<path class="st3" d="M111.9,34.5c-2.6,0-3.4-2-3.4-4.1s0.7-4,3.4-4c2.7,0,3.4,1.9,3.4,4S114.5,34.5,111.9,34.5z M111.9,27.7
								c-1.4,0-1.7,1.2-1.7,2.7c0,1.6,0.4,2.8,1.7,2.8c1.4,0,1.8-1.3,1.8-2.8C113.6,29,113.3,27.7,111.9,27.7z"/>
							<path class="st3" d="M118.3,34.5c-1.1,0-1.9-0.4-2.6-0.8l0.6-1.2c0.5,0.4,1.3,0.8,2,0.8s1.2-0.4,1.2-1c0-1.7-3.6-0.8-3.6-3.6
								c0-1.2,0.9-2.2,2.8-2.2c0.9,0,1.7,0.2,2.3,0.5l-0.5,1.2c-0.4-0.3-1.1-0.4-1.9-0.4c-0.7,0-1.2,0.2-1.2,0.8
								c0,1.4,3.7,0.9,3.7,3.5C121.2,33.4,120.1,34.5,118.3,34.5z"/>
							<path class="st3" d="M75.4,38.7v6.6h-1.6v-6.6h-1.9v-1.3h5.5v1.3H75.4z"/>
							<path class="st3" d="M80.4,45.4c-2.6,0-3.4-2-3.4-4.1s0.7-4,3.4-4c2.7,0,3.4,1.9,3.4,4S83,45.4,80.4,45.4z M80.4,38.6
								c-1.4,0-1.7,1.2-1.7,2.7c0,1.6,0.3,2.8,1.7,2.8c1.4,0,1.8-1.3,1.8-2.8C82.2,39.8,81.8,38.6,80.4,38.6z"/>
							<path class="st3" d="M87.7,45.4c-1.1,0-2.1-0.2-2.8-0.4v-7.6h2.6c2.3,0,3.7,0.9,3.7,3.9C91.2,43.8,90.1,45.4,87.7,45.4z
								 M87.4,38.7h-1V44c0.3,0.1,0.8,0.2,1.4,0.2c1,0,1.9-0.6,1.9-2.9C89.6,39.4,89,38.7,87.4,38.7z"/>
							<path class="st3" d="M95.5,45.4c-2.6,0-3.4-2-3.4-4.1s0.7-4,3.4-4c2.7,0,3.4,1.9,3.4,4C98.8,43.4,98.1,45.4,95.5,45.4z
								 M95.5,38.6c-1.4,0-1.7,1.2-1.7,2.7c0,1.6,0.4,2.8,1.7,2.8c1.4,0,1.8-1.3,1.8-2.8C97.2,39.8,96.8,38.6,95.5,38.6z"/>
							<path class="st3" d="M101.9,45.4c-1.1,0-1.9-0.4-2.6-0.8l0.6-1.2c0.5,0.4,1.3,0.8,2,0.8s1.2-0.4,1.2-1c0-1.7-3.6-0.8-3.6-3.6
								c0-1.2,0.9-2.2,2.8-2.2c0.9,0,1.7,0.2,2.3,0.5l-0.5,1.2c-0.4-0.3-1.1-0.4-1.9-0.4c-0.7,0-1.2,0.2-1.2,0.8
								c0,1.4,3.7,0.9,3.7,3.5C104.7,44.2,103.7,45.4,101.9,45.4z"/>
						</g>
					</g>
				</g>
				<path class="st3" d="M66,0H1H0v1v59v1h1h65h1v-1V1V0H66z M1,1h26.1v59.1H1V1z M66,60H28.2V0.9H66V60z"/>
			</g>
			<g>
				<g>
					<g>
						<path class="st3" d="M14.9,9.1C15,9,15.1,8.9,15,8.7c0-0.1-0.2-0.1-0.1-0.1c0.7-0.2,1-1.1,1-1.5C16.2,7.4,17,7.5,17.6,7
							c0.4-0.3,0.5-1.3-0.1-1.7c-0.3-0.2-0.9-0.3-1.2,0C16.1,5.2,15.9,5,15.7,5c0-0.1,0-0.5-0.3-0.8c-0.3-0.4-1.3-0.4-1.6,0
							c-0.7-0.2-1.5,0.1-1.5,1.2c-0.5-0.2-0.7-0.2-1-0.2c-0.2,0-0.5,0.2-0.7,0.4c0,0.1-0.1,0.2-0.1,0.2c-0.1,0.2-0.1,0.4-0.1,0.6
							c0,0.4,0.2,0.7,0.5,0.8c0.4,0.2,0.9,0.2,1,0.2s0.3-0.1,0.4-0.2l0.1-0.1c0,0.1,0,0.6,0.5,0.8c0,0,0,0,0,0.1
							c0.2,0.7,0.6,0.6,0.7,0.7c-0.2,0.1-0.1,0.3-0.1,0.4C14,9,14.2,9,14.3,9C14.4,9,14.6,9,14.9,9.1z"/>
						<g>
							<polygon class="st6" points="14.2,9.8 13.8,11.2 12.3,11.2 12.3,11.2 13.5,12.1 13,13.4 14.2,12.5 15.4,13.4 14.9,12.1 
								16.1,11.2 16.1,11.2 14.6,11.2 							"/>
							<path class="st3" d="M16.5,11.2c0-0.7,0.5-1.2,0.5-1.2c0-0.1,0-0.2,0-0.2c0-0.1-0.1-0.1-0.1-0.1c-0.1-0.1-0.4-0.3-0.4-0.3
								l0,0l0,0c0,0-0.1,0-0.1,0.1c-0.1,0.1-0.2,0.2-0.5,0.2h-0.1c-0.1,0-0.4-0.1-0.4-0.1c-0.1,0-0.2-0.1-0.2-0.1l0,0
								c-0.4-0.2-0.7-0.2-0.8-0.2s-0.4,0-0.8,0.2l0,0h-0.1l-0.2,0.1c-0.1,0-0.2,0.1-0.3,0.1s-0.1,0-0.1,0c-0.3,0-0.4-0.1-0.5-0.2
								l-0.1-0.1l0,0l0,0c0,0-0.3,0.2-0.4,0.3l-0.1,0.1c0,0,0,0.1,0.1,0.1c0,0,0.5,0.6,0.5,1.3c0,0.1,0,0.5-0.3,1.1
								c0,0-0.4,0.8,0,1.4c0,0,0.3,0.6,1.3,0.6c0.1,0,0.8,0,1,0.5c0,0,0.1,0.2,0.2,0.3l0.1,0.1l0.1-0.1c0-0.1,0.2-0.3,0.2-0.3
								c0.2-0.4,0.9-0.5,1-0.5c0.9,0,1.3-0.6,1.3-0.6c0.4-0.6,0-1.4,0-1.4C16.4,11.7,16.5,11.3,16.5,11.2z M16.1,11.2l-1.2,0.9
								l0.5,1.4l-1.2-0.9L13,13.4l0.5-1.4l-1.2-0.9l0,0h1.5l0.4-1.4l0.4,1.4L16.1,11.2L16.1,11.2z"/>
							<g>
								<path class="st6" d="M10.1,17.9c0.7,0.7,1.6,0.3,1.6,0.3c0.2,0,0.2-0.5,0.3-0.9c-0.6-0.1-1.1-0.2-1.7-0.3
									C10.2,17.5,10.1,17.9,10.1,17.9z"/>
								<path class="st6" d="M10,15C9.9,15,9.9,15,10,15c-0.2-0.1-0.2,0-0.3,0s-0.8-0.5-0.8-0.6c-0.1-0.1-0.4-0.2-0.5-0.4
									c-0.1-0.1,0-0.2,0-0.4c0-0.1-0.1-0.3-0.3-0.4c0,0.2-0.3,1-1.2,1.2c-0.3,0.6-0.1,1.6,0,1.7c0.1,0,0.2,0.1,0.2,0.1
									c0-0.2,0.1-0.3,0.1-0.3c0.3-0.5,0.9-0.4,0.9-0.4c0.2,0.1,0.3,0.3,0.3,0.3c0.1,0.4-0.3,0.4-0.3,0.4c-0.2,0-0.3-0.2-0.3-0.2
									c0-0.2,0.2-0.2,0.2-0.2c-0.2-0.4-1,0.3-0.5,0.8c0,0.1,0.1,0,0.1,0c1.4-0.7,1.7-1,1.7-1C9.6,15.3,9.8,15.2,10,15
									C10,15.1,10,15,10,15z"/>
								<path class="st6" d="M16.8,9.3L16.8,9.3L16.8,9.3z"/>
								<path class="st6" d="M17.2,9.6c0,0-0.1-0.1-0.2-0.1C17.1,9.6,17.2,9.6,17.2,9.6L17.2,9.6z"/>
								<path class="st6" d="M16.9,9.4L17,9.5L16.9,9.4z"/>
								<path class="st6" d="M9.8,17.6c0-0.1,0.1-0.3,0.1-0.3c0-0.1,0.1-0.3,0.1-0.4c-0.2,0-0.3-0.1-0.5-0.1
									C9.6,17.3,9.8,17.6,9.8,17.6z"/>
								<path class="st6" d="M16.6,17.3c0,0.4,0.1,0.8,0.3,0.9c0,0,1,0.4,1.6-0.3c0,0,0-0.4-0.2-0.9C17.8,17.2,17.2,17.3,16.6,17.3z
									"/>
								<path class="st6" d="M18.7,17.3l0.1,0.3c0,0,0.2-0.4,0.2-0.8c-0.2,0-0.3,0.1-0.5,0.1C18.6,17.1,18.7,17.2,18.7,17.3z"/>
								<path class="st6" d="M11.5,16c-0.3,0-0.6,0.1-0.7,0.3c0.4,0.1,0.8,0.2,1.3,0.2C12,16,11.5,16,11.5,16z"/>
								<path class="st6" d="M18.1,16.3c0.3-0.1,0.5-0.1,0.8-0.2c0-0.1-0.1-0.2-0.1-0.2s-0.8-1-2.3-0.4c0,0,0.1,0.2,0.5,0.3
									C16.9,15.7,17.6,15.8,18.1,16.3z"/>
								<path class="st6" d="M17.1,16c0,0-0.4,0-0.5,0.5c0.5-0.1,0.9-0.1,1.3-0.2C17.7,16.2,17.4,16,17.1,16z"/>
								<path class="st6" d="M13,15.7c-0.1-0.1-0.3-0.1-0.3-0.1c-0.2,0-0.3,0.5-0.3,1.1c0.4,0.1,0.9,0.1,1.5,0.1
									C13.7,16.2,13.2,15.9,13,15.7z"/>
								<path class="st6" d="M10,15.8C9.9,15.9,9.9,16,9.9,16c0.2,0.1,0.5,0.1,0.8,0.2c0.5-0.5,1.2-0.5,1.2-0.5
									c0.4-0.1,0.5-0.3,0.5-0.3C10.8,14.8,10,15.8,10,15.8z"/>
								<path class="st6" d="M15.9,15.5c0,0-0.2,0-0.3,0.1c-0.2,0.3-0.7,0.6-0.9,1c0.5,0,1,0,1.5-0.1C16.2,16,16.1,15.5,15.9,15.5z"
									/>
								<path class="st3" d="M24.6,17c-0.2-0.2-0.6-0.1-0.6-0.1c0.2-0.6-0.4-0.8-0.4-0.8c-0.2-0.1-0.4,0-0.4,0l0,0l0,0l0,0
									c-0.1,0.1-0.1,0.1-0.1,0.2c0,0.2,0.1,0.3,0.3,0.3c0.1,0,0.1,0,0.2-0.1c0.1,0,0.1-0.1,0.1-0.2c0.1,0.1,0.1,0.1,0.1,0.1
									c0.2,0.6-0.4,0.7-0.4,0.7C22,17.7,21.2,17,21.2,17l0.2-0.1c0.1,0,0.2,0,0.2,0l0,0c0,0.1,0.1,0.3,0.3,0.3
									c0.1,0,0.3-0.1,0.3-0.3c0-0.1-0.1-0.2-0.1-0.2c-0.2-0.2-0.7-0.1-0.7-0.1c0.2-0.5,0-0.8,0-0.8c-0.3-0.5-0.9-0.4-0.9-0.4
									c-0.2,0.1-0.3,0.3-0.3,0.3c-0.1,0.4,0.3,0.4,0.3,0.4c0.2,0,0.2-0.2,0.2-0.2c0-0.2-0.2-0.2-0.2-0.2c0.2-0.4,1,0.3,0.5,0.8
									c0,0.1-0.1,0-0.1,0c-0.9-0.4-1.3-0.7-1.5-0.9c0-0.2-0.2-0.3-0.2-0.4c0,0,0.2,0,0.2-0.1c0,0,0.1-0.4,0.1-0.7
									c0.8,0.3,1.4,0.2,1.5,0.2s0.1-0.1,0.1-0.2c0-0.3-0.7-2-0.8-2.6c0.4,0.2,0.6-0.4,0.6-0.5c0.5,0.2,0.6,4.6,1,4.7
									c0.2,0.1,0.3-0.2,0.3-0.3c0.6-2,0.6-3.9,0.6-4.5c-0.1-1-0.1-1.9-0.4-2.7C22.3,8,22,7,21.3,6.8C21.2,7.1,21,7.4,21,7.7
									c0,0.2,0.2,0.3,0.1,0.6c-0.1,0.1-0.2,0.3-0.2,0.5S21,9,21,9.2c-0.2,0-0.3,0.2-0.6,0.1c0.2-0.1,0.2-0.7,0-0.8
									c0,0-0.1,0-0.1-0.1c0,0,0.1-0.1,0.1-0.2c0.2-0.3,0.2-0.6,0-0.8c0.1,0,0.2-0.2,0.2-0.4l0,0l0,0l0,0c0,0,0-0.2,0.1-0.3V6.6
									h-0.1c-0.1,0.1-0.2,0.1-0.2-0.1V6.4h-0.1c-0.1,0.1-0.2,0.1-0.2-0.1V6.2H20c-0.1,0.1-0.2,0.1-0.2-0.1V6h-0.1
									c-0.1,0.1-0.1,0.2-0.2,0.3c-0.1,0-0.1,0.2-0.1,0.3c-0.4,0-0.6,0.3-0.6,0.4l0,0c-0.2,0-0.4,0.1-0.4,0.3
									c0,0.1,0.1,0.3,0.2,0.3c0,0,0-0.1,0.1-0.1S19,7.6,19,7.7s-0.1,0.4,0.3,0.4v0.1c-0.1,0-0.2,0-0.3,0c-0.2,0-0.6,0.2-0.6,0.4
									c0,0,0,0.1,0,0.2c0,0,0,0.1,0,0.2l-0.1,0.1c-0.1,0.1-0.3,0.2-0.4,0.2c-0.2,0-0.4-0.1-0.4-0.2c-0.2-0.3,0.1-0.9,0.1-1.1
									c0-0.5-0.7-0.2-1-0.1c-0.3,0.2-0.6,0.4-0.8,0.7c-0.1,0.1-0.3,0.3-0.3,0.5c0,0,0,0-0.1,0c0.1,0.1,0.4,0.2,0.6,0.2
									c0,0,0.4,0.1,0.7-0.2c0,0,0,0,0.1,0h0.1c0,0,0,0,0.1,0.1c0,0,0.1,0,0.1,0.1l0,0l0.1,0.1l0,0c0.1,0,0.1,0.1,0.2,0.1l0,0
									c0.1,0,0.1,0.1,0.1,0.1l0,0l0,0c0,0,0,0,0,0.1c0,0,0,0-0.1,0.1s-0.2,0.3-0.4,0.6c0.1,0.2,0.3,0.5,0.7,0.5
									c0.2,0,0.4-0.1,0.4-0.3l0,0c0,0,0.2,0.7,0.3,0.9c-0.2,0.1-0.4,0.3-0.3,1.1c-0.1-0.1-0.4-0.3-0.5-0.4
									c-0.1-0.2-0.2-0.5-0.6-0.5c0.1,0.2,0.1,0.4,0.3,0.6c0,0,0.3,0.5,0.2,1c0.2-0.2,0.1-0.7,0.1-0.7l0,0c0,0,0.2,0.3,0.5,0.4
									c0.4,0.7,0.8,1.1,1.3,1.4c0,0.2,0,0.5-0.1,0.5c-0.3,0.1-0.6-0.2-0.9-0.1h-0.1c-1.3-0.6-2.9,0.7-3.2,1c-0.1,0.1-0.3,0-0.3,0
									c-0.1-0.1-0.2-0.2-0.4-0.2c-0.1,0-0.3,0-0.4,0.2c0,0-0.2,0.2-0.3,0c-0.3-0.2-1.8-1.4-3-1c0-0.1-0.2-0.1-0.2-0.1
									c-0.1,0-0.2-0.1-0.2-0.1c-0.1-0.1-0.4,0-0.5,0s-0.1,0-0.2-0.1C9.3,14.3,9,14.2,8.9,14l-0.1-0.1c-0.1-0.1-0.1-0.1-0.1-0.3
									c-0.1-0.2,0-0.5,0.1-0.8c0-0.2,0-0.2,0-0.4c0.8-0.3,1.1-0.9,1.3-1.2l0.1-0.1h0.1c0.3,0,0.5-0.2,0.9-0.1c0,0,0,0.2,0.3,0.3
									c0,0.2,0,0.4,0.1,0.6c0,0,0,0.1,0.1,0.1c0.1-0.4,0.2-0.6,0.2-0.8c0,0,0,0,0-0.1c-0.1-0.4-0.3-0.5-0.4-0.6
									c-0.1,0-0.2-0.1-0.3-0.1c-0.1-0.1-0.3-0.2-0.3-0.3c0,0,0,0,0.1-0.1c0.2-0.2,0.3-0.6,0.4-0.9c0-0.3,0.5-0.2,0.6-0.1
									c0,0,0.1,0,0.2,0.1l0.1,0.1c0.1,0,0.2,0,0.2,0l0.1,0.1c0,0,0,0,0.1,0.1c0.2,0,0.5-0.1,0.6-0.2l0,0c-0.1-0.1-0.2-0.3-0.4-0.3
									s-0.2-0.2-0.4-0.2h-0.2c-0.4,0-0.6-0.1-1-0.1C11,8.6,11,8.8,10.8,9c0,0.1-0.1,0.2-0.2,0.2c-0.1,0.1-0.2,0.1-0.3,0.2
									l-0.1-0.1c0-0.1-0.1-0.2-0.1-0.3C9.9,8.7,9.7,8.5,9.3,8.4c-0.1,0-0.1,0-0.1-0.1c-0.1,0,0-0.1,0-0.1C9.4,8,9.6,8,9.8,7.9
									c0.3-0.1,0.2-0.4,0.1-0.4c-0.2,0-0.4-0.1-0.5-0.1C9.3,7.3,9.1,7.1,9,7C8.9,7,8.9,6.8,8.8,6.7c-0.1,0-0.1,0-0.2,0.1
									c0,0,0-0.3-0.2-0.4c-0.1-0.1-0.1,0-0.1,0.1s0.2,0.1,0.2,0.4c0,0,0,0-0.1,0c0-0.1-0.1-0.3-0.2-0.3C8.1,6.5,8,6.6,8,6.7
									S8.1,6.8,8.2,7L8.1,7.1C7.9,7,7.9,6.9,7.8,6.9S7.6,6.9,7.7,7S7.9,7.2,8,7.2c0,0,0,0-0.1,0.1C7.7,7.2,7.7,7.1,7.6,7
									C7.5,7,7.4,7,7.5,7.1c0.1,0.2,0.3,0.2,0.4,0.2c0,0.1-0.1,0.1-0.1,0.2c-0.2,0-0.5,0.1-0.5,0.3c0.1,0,0.3-0.1,0.5,0
									C8,8,8.2,8.1,8.2,8.1c0.1,0.1,0.1,0.2,0.1,0.3c0.1,0.2,0.2,0.3,0.3,0.5C8.8,9,8.9,9.2,9,9.4c0,0,0,0.1,0,0.2
									C8.9,9.8,8.5,10,8.3,10.2s-1.8,1.4-2,2c0,0.1-0.1,0.3-0.1,0.4c-0.1,0.1-0.3,0.1-0.4,0c-0.1-0.2,0.1-0.3,0.1-0.5
									C5.9,12,5.8,12,5.7,12c-0.4,0.3-0.2,0.8,0.1,0.9c0.3,0.1,0.3-0.2,0.5-0.1c0.1,0,0.6,0.5,0.5,0.9v0.1
									c-0.1,0.1-0.3,0.3-0.4,0.4c-0.3,0.2,0.3,1.3,0.2,1.8c0,0.2,0.2,0.2,0.3,0.5c-0.1,0-0.3,0-0.3,0.1c0,0-0.1,0.1-0.1,0.2
									s0.1,0.3,0.3,0.3C6.9,17.2,7,17,7,16.9l0,0c0.1,0,0.1,0,0.2,0L7.5,17c0,0-0.8,0.7-2.2,0.3c0,0-0.6-0.2-0.4-0.7
									c0,0,0-0.1,0.1-0.1c0,0.1,0.1,0.1,0.1,0.2c0.1,0,0.1,0.1,0.2,0.1c0.2,0,0.3-0.1,0.3-0.3c0-0.1,0-0.2-0.1-0.2l0,0l0,0l0,0
									C5.3,16,5.2,16,5,16.1c0,0-0.6,0.2-0.4,0.8c0,0-0.4-0.1-0.6,0.1c0,0,0,0,0,0.1l0,0l0,0v0.1c0,0.1,0.1,0.1,0.2,0.1
									s0.1,0,0.2-0.1l0,0h0.1c0.9,0.9,2.4,0.6,3.2-0.1c0,0,0.5-0.5,1-0.7c0.2,0.1,0.4,0.1,0.6,0.2c0,0.3,0,0.7,0.4,1.2
									c0,0-0.2,0.4-0.6,0.2c0,0-0.3-0.2,0-0.5c0,0,0.2-0.1,0.2,0c-0.1,0-0.2,0.1-0.2,0.2s0.1,0.2,0.2,0.2c0.1,0,0.2-0.1,0.2-0.1
									c0-0.1,0-0.2-0.1-0.3c0,0-0.1-0.1-0.4-0.1c-0.3,0.1-0.5,0.8,0.1,1.1c0,0,0.5,0.2,0.8-0.2c0,0,0-0.1,0.1,0
									c0.6,0.5,1.8,0.4,2.3,0c0,0,0.1-0.1,0.3-0.1c0,0.2,0.2,0.4,0.4,0.4s0.4-0.2,0.4-0.4c0-0.2-0.1-0.4-0.3-0.4
									c0,0-0.3-0.1-0.6,0.1l-0.4,0.2c0.1-0.2,0.2-0.5,0.3-0.8c0.6,0.1,1.1,0.1,1.7,0.1c0,0.2,0,0.4-0.1,0.5c0,0-0.2,0.1-0.2,0.2
									c0,0,0,0.1,0.2,0.3c0,0,0.1,0.1,0.2,0.3c0,0,0,0.2,0.2,0.2l0,0l0,0c0.2,0,0.2-0.2,0.2-0.2c0-0.1,0.2-0.3,0.2-0.3
									c0.2-0.1,0.2-0.3,0.2-0.3c0-0.1-0.2-0.2-0.2-0.2c-0.1-0.2-0.1-0.4-0.1-0.5c0.6,0,1.2-0.1,1.7-0.1c0.1,0.3,0.1,0.6,0.3,0.8
									l-0.4-0.2c-0.4-0.2-0.6-0.2-0.6-0.1c-0.2,0-0.3,0.2-0.3,0.4c0,0.2,0.2,0.4,0.4,0.4s0.4-0.2,0.4-0.4c0.1,0.1,0.3,0.1,0.3,0.1
									c0.5,0.4,1.8,0.5,2.3,0c0.1-0.1,0.1,0,0.1,0c0.3,0.4,0.8,0.2,0.8,0.2c0.7-0.3,0.5-1,0.1-1.1c-0.2,0-0.4,0.1-0.4,0.1
									c-0.1,0.1-0.1,0.3-0.1,0.3c0,0.1,0.1,0.1,0.2,0.1s0.2-0.1,0.2-0.2s-0.1-0.2-0.2-0.2c0.1-0.2,0.2,0,0.2,0
									c0.2,0.3,0,0.5,0,0.5c-0.4,0.2-0.6-0.2-0.6-0.2c0.3-0.5,0.4-0.9,0.4-1.2c0.2-0.1,0.4-0.1,0.6-0.2c0.5,0.3,1,0.7,1,0.7
									c0.8,0.6,2.3,1,3.2,0.1c0.1-0.1,0.1,0,0.1,0l0,0c0,0.1,0.1,0.1,0.2,0.1s0.1,0,0.2-0.1c0-0.1,0-0.1,0-0.1l0,0l0,0
									C24.7,17,24.6,17,24.6,17z M7.7,16.7C7.7,16.7,7.6,16.7,7.7,16.7c-0.6-0.6,0.2-1.3,0.4-0.9c0,0-0.3,0-0.2,0.2
									c0,0,0,0.2,0.3,0.2c0,0,0.3,0,0.3-0.4c0,0,0-0.2-0.3-0.3c0,0-0.6-0.2-0.9,0.4c0,0-0.1,0.1-0.1,0.3c-0.1-0.1-0.1-0.1-0.2-0.1
									C6.8,16,6.6,15,6.8,14.5c0.9-0.2,1.2-1,1.2-1.2c0.2,0.1,0.3,0.3,0.3,0.4c0,0.1,0,0.3,0,0.4c0.1,0.1,0.3,0.3,0.5,0.4
									c0,0,0.7,0.6,0.8,0.6s0.2-0.1,0.2,0h0.1c0,0,0,0,0.1,0.1c-0.2,0.1-0.4,0.3-0.7,0.6C9.4,15.7,9.1,16,7.7,16.7z M10,17.3
									l-0.1,0.3c0,0-0.2-0.4-0.2-0.8c0.2,0,0.3,0.1,0.5,0.1C10,17.1,10,17.2,10,17.3z M11.8,18.2c0,0-1,0.4-1.6-0.3
									c0,0,0-0.4,0.2-0.9c0.5,0.1,1.1,0.2,1.7,0.3C12,17.7,11.9,18.2,11.8,18.2z M10.8,16.3c0.2-0.2,0.4-0.3,0.7-0.3
									c0,0,0.4,0,0.5,0.5C11.6,16.5,11.2,16.4,10.8,16.3z M11.8,15.7c-0.1,0-0.7,0.1-1.2,0.5c-0.3-0.1-0.5-0.1-0.8-0.2
									c0-0.1,0.1-0.2,0.1-0.2s0.8-1,2.3-0.4C12.3,15.4,12.2,15.6,11.8,15.7z M12.4,16.6c0.1-0.6,0.1-1.1,0.3-1.1
									c0,0,0.2,0,0.3,0.1c0.2,0.3,0.7,0.6,0.9,1C13.4,16.7,12.9,16.7,12.4,16.6z M14.7,16.7c0.2-0.5,0.7-0.8,0.9-1
									c0.1-0.1,0.3-0.1,0.3-0.1c0.2,0,0.3,0.5,0.3,1.1C15.8,16.7,15.3,16.7,14.7,16.7z M16.4,15.4c1.5-0.6,2.3,0.4,2.3,0.4
									c0.1,0.1,0.1,0.2,0.1,0.2c-0.2,0.1-0.5,0.1-0.8,0.2c-0.5-0.5-1.2-0.5-1.2-0.5C16.5,15.6,16.4,15.4,16.4,15.4z M17.1,16
									c0.3,0,0.6,0.1,0.7,0.3c-0.4,0.1-0.8,0.2-1.3,0.2C16.7,16,17.1,16,17.1,16z M16.9,18.2c-0.2,0-0.2-0.5-0.3-0.9
									c0.6-0.1,1.1-0.2,1.7-0.3c0.2,0.4,0.2,0.9,0.2,0.9C17.9,18.6,16.9,18.2,16.9,18.2z M18.8,17.6c0-0.1-0.1-0.3-0.1-0.3
									c0-0.1-0.1-0.3-0.1-0.4c0.2,0,0.3-0.1,0.5-0.1C19,17.3,18.8,17.6,18.8,17.6z"/>
							</g>
						</g>
					</g>
				</g>
			</g>
		</g>
		<g>
			<path class="st3" d="M33.8,10.6l-0.1-3.1l0,0c-0.1,0.4-0.1,0.7-0.2,0.9L33,10.6h-1l-0.5-2.2c0-0.2-0.1-0.5-0.2-0.9l0,0v3.1h-0.6
				l0-3.6h1.2c0,0,0.4,1.8,0.6,3l0,0c0.2-1.2,0.7-3,0.7-3h1.2l0.1,3.7L33.8,10.6L33.8,10.6z"/>
			<path class="st3" d="M35.4,10.6V8.5l-0.3-0.1V8h1v2.7L35.4,10.6L35.4,10.6z M35.4,6.9h0.7v0.6h-0.7V6.9z"/>
			<path class="st3" d="M38.4,10.6V9.1c0-0.4-0.2-0.6-0.5-0.6c-0.2,0-0.3,0.1-0.5,0.2v2h-0.7V8h0.5l0.1,0.3c0.2-0.2,0.4-0.4,0.8-0.4
				C38.8,7.9,39,8.3,39,9v1.6H38.4z"/>
			<path class="st3" d="M39.9,10.6V8.5l-0.3-0.1V8h1v2.7L39.9,10.6L39.9,10.6z M39.9,6.9h0.7v0.6h-0.7V6.9z"/>
			<path class="st3" d="M41.9,8.7C41.9,9.1,43,9,43,9.9c0,0.5-0.4,0.9-1,0.9c-0.3,0-0.6-0.1-0.8-0.2l0.1-0.5
				c0.1,0.1,0.4,0.2,0.6,0.2c0.2,0,0.4-0.1,0.4-0.3c0-0.5-1.1-0.3-1.1-1.2c0-0.4,0.3-0.7,1-0.7c0.3,0,0.6,0.1,0.7,0.1l-0.1,0.5
				c-0.2-0.1-0.4-0.1-0.6-0.1C42,8.4,41.9,8.5,41.9,8.7z"/>
			<path class="st3" d="M44.6,10.7c-0.5,0-0.8-0.2-0.8-0.9V8.5h-0.4V8h0.4V7.5l0.7-0.2V8h0.7v0.5h-0.7v1.3c0,0.2,0.1,0.3,0.3,0.3
				c0.1,0,0.3,0,0.4-0.1l0.1,0.5C45.2,10.6,44.9,10.7,44.6,10.7z"/>
			<path class="st3" d="M46.2,9.5c0,0.4,0.2,0.7,0.7,0.7c0.3,0,0.5-0.1,0.8-0.2l0.1,0.5c-0.2,0.1-0.6,0.3-1,0.3
				c-0.8,0-1.3-0.5-1.3-1.4c0-0.8,0.4-1.4,1.2-1.4s1.1,0.6,1.1,1.3v0.3h-1.6V9.5z M46.7,8.5c-0.4,0-0.5,0.3-0.5,0.6h1
				C47.2,8.7,47.1,8.5,46.7,8.5z"/>
			<path class="st3" d="M49.9,8.6c-0.1,0-0.2,0-0.3,0c-0.2,0-0.4,0.1-0.5,0.2v1.9h-0.7V8h0.5L49,8.3l0,0c0.1-0.2,0.3-0.4,0.6-0.4
				c0.1,0,0.2,0,0.3,0L49.9,8.6z"/>
			<path class="st3" d="M50.6,10.6V8.5l-0.3-0.1V8h1v2.7L50.6,10.6L50.6,10.6z M50.6,6.9h0.7v0.6h-0.7V6.9z"/>
			<path class="st3" d="M54.3,9.3c0,0.9-0.5,1.4-1.2,1.4c-0.8,0-1.2-0.5-1.2-1.4c0-0.8,0.4-1.4,1.2-1.4C53.9,7.9,54.3,8.5,54.3,9.3z
				 M53.6,9.3c0-0.6-0.2-0.9-0.5-0.9s-0.5,0.2-0.5,0.9c0,0.6,0.2,0.9,0.5,0.9C53.4,10.2,53.6,9.9,53.6,9.3z"/>
			<path class="st3" d="M57.7,8.2c0-0.2-0.1-0.3-0.1-0.5V6.9h0.7v3.7h-0.6l-0.1-0.3c-0.1,0.2-0.4,0.3-0.7,0.3
				c-0.6,0-1.1-0.4-1.1-1.4c0-0.9,0.5-1.4,1.1-1.4C57.4,7.9,57.6,8,57.7,8.2z M57.7,8.6c-0.1-0.1-0.3-0.1-0.5-0.1
				c-0.3,0-0.5,0.2-0.5,0.8s0.2,0.9,0.5,0.9c0.2,0,0.4-0.1,0.5-0.2V8.6z"/>
			<path class="st3" d="M59.6,9.5c0,0.4,0.2,0.7,0.7,0.7c0.3,0,0.5-0.1,0.8-0.2l0.1,0.5c-0.2,0.1-0.6,0.3-1,0.3
				c-0.8,0-1.3-0.5-1.3-1.4c0-0.8,0.4-1.4,1.2-1.4s1.1,0.6,1.1,1.3v0.3h-1.6V9.5z M60.1,8.5c-0.4,0-0.5,0.3-0.5,0.6h1
				C60.6,8.7,60.5,8.5,60.1,8.5z"/>
			<path class="st3" d="M30.6,15.7V12h2.2v0.6h-1.5v0.9h1.2l-0.1,0.6h-1.1V15h1.5v0.6L30.6,15.7L30.6,15.7z"/>
			<path class="st3" d="M34.9,13.3c0-0.2-0.1-0.3-0.1-0.5V12h0.7v3.7H35l-0.1-0.3c-0.1,0.2-0.4,0.3-0.7,0.3c-0.6,0-1.1-0.4-1.1-1.4
				c0-0.9,0.5-1.4,1.1-1.4C34.6,13,34.8,13.1,34.9,13.3z M34.9,13.7c-0.1-0.1-0.3-0.1-0.5-0.1c-0.3,0-0.5,0.2-0.5,0.8
				s0.2,0.9,0.5,0.9c0.2,0,0.4-0.1,0.5-0.2V13.7z"/>
			<path class="st3" d="M38.1,15.7L38,15.4c-0.1,0.2-0.4,0.4-0.8,0.4c-0.7,0-1-0.4-1-1.1v-1.6h0.7v1.6c0,0.4,0.1,0.6,0.5,0.6
				c0.2,0,0.4-0.1,0.5-0.2v-2h0.7v2.7L38.1,15.7L38.1,15.7z"/>
			<path class="st3" d="M41.2,15.6c-0.2,0.1-0.5,0.2-0.9,0.2c-0.8,0-1.3-0.4-1.3-1.4c0-0.9,0.5-1.4,1.3-1.4c0.4,0,0.7,0.1,0.9,0.2
				L41,13.7c-0.2-0.1-0.4-0.2-0.7-0.2c-0.4,0-0.6,0.2-0.6,0.8s0.2,0.8,0.6,0.8c0.3,0,0.5-0.1,0.7-0.2L41.2,15.6z"/>
			<path class="st3" d="M43.3,15.7l-0.1-0.3c-0.1,0.2-0.4,0.4-0.8,0.4c-0.5,0-0.9-0.3-0.9-0.9c0-0.5,0.4-0.8,1-0.8h0.6V14
				c0-0.3-0.2-0.4-0.5-0.4s-0.6,0.1-0.8,0.2l-0.2-0.5c0.3-0.1,0.6-0.2,1-0.2c0.8,0,1.1,0.3,1.1,1v1.7h-0.4V15.7z M43.1,14.6h-0.4
				c-0.3,0-0.4,0.1-0.4,0.3s0.1,0.4,0.4,0.4c0.2,0,0.3-0.1,0.5-0.2L43.1,14.6L43.1,14.6z"/>
			<path class="st3" d="M46.5,15.6c-0.2,0.1-0.5,0.2-0.9,0.2c-0.8,0-1.3-0.4-1.3-1.4c0-0.9,0.5-1.4,1.3-1.4c0.4,0,0.7,0.1,0.9,0.2
				l-0.2,0.5c-0.2-0.1-0.4-0.2-0.7-0.2c-0.4,0-0.6,0.2-0.6,0.8s0.2,0.8,0.6,0.8c0.3,0,0.5-0.1,0.7-0.2L46.5,15.6z"/>
			<path class="st3" d="M47.2,15.7v-2.1l-0.3-0.1v-0.4h1v2.7h-0.7V15.7z M47.2,12h0.7v0.6h-0.7V12z"/>
			<path class="st3" d="M51,14.4c0,0.9-0.5,1.4-1.2,1.4c-0.8,0-1.2-0.5-1.2-1.4c0-0.8,0.4-1.4,1.2-1.4C50.5,13,51,13.6,51,14.4z
				 M49.1,12.7L49,12.3l1.4-0.4l0.1,0.5L49.1,12.7z M50.2,14.4c0-0.6-0.2-0.9-0.5-0.9s-0.5,0.2-0.5,0.9c0,0.6,0.2,0.9,0.5,0.9
				C50.1,15.3,50.2,15,50.2,14.4z"/>
			<path class="st3" d="M53.1,15.7v-1.6c0-0.4-0.2-0.6-0.5-0.6c-0.2,0-0.3,0.1-0.5,0.2v2h-0.7V13H52l0.1,0.3
				c0.2-0.2,0.4-0.4,0.8-0.4c0.7,0,0.9,0.4,0.9,1.1v1.6L53.1,15.7L53.1,15.7z"/>
		</g>
	</g>
</g>
</svg>
