<svg xmlns="http://www.w3.org/2000/svg" viewBox="0 0 546.95 444.45"><defs><style>.cls-1{fill:#005290;}.cls-2,.cls-3{fill:#fff;}.cls-2{fill-rule:evenodd;}</style></defs><title>Recurso 130</title><g id="Capa_2" data-name="Capa 2"><g id="Capa_1-2" data-name="Capa 1"><rect class="cls-1" width="546.95" height="444.45"/><path class="cls-2" d="M21.55,377.52v27.64H28a14,14,0,0,0,5.56-.77,8.75,8.75,0,0,0,3.77-2.69A18.31,18.31,0,0,0,39.53,398a13.77,13.77,0,0,0,1.09-4.13v-.28a.65.65,0,0,1,.06-.29v-.87a1.22,1.22,0,0,1,.06-.35v-.57a17.72,17.72,0,0,0-.75-5.25,15.09,15.09,0,0,0-2.25-4.48,8.76,8.76,0,0,0-4-3.07,15.74,15.74,0,0,0-6-1l-6.28-.13m-9.79-8H29.1a27,27,0,0,1,9.42,1.76,17.48,17.48,0,0,1,6.82,4.83,23.47,23.47,0,0,1,4.09,7.1,24.17,24.17,0,0,1,1.39,8.32,25.3,25.3,0,0,1-1.39,8.57,20.68,20.68,0,0,1-4.14,7,16.82,16.82,0,0,1-7.09,4.57,31.15,31.15,0,0,1-10.2,1.5H11.76Z"/><polyline class="cls-3" points="85.71 405.16 85.71 413.15 56.73 413.15 56.73 369.52 85.3 369.52 85.3 377.52 66.52 377.52 66.52 386.67 84.44 386.67 84.44 394.67 66.52 394.67 66.52 405.16 85.71 405.16"/><polyline class="cls-3" points="135.21 405.16 135.21 413.15 105.25 413.15 105.25 369.52 115.04 369.52 115.04 405.16 135.21 405.16"/><path class="cls-2" d="M163.15,396.9,156.81,380l-5.76,16.95h12.1m-.81-27.38,17.46,43.63H169.26L166,404.52H148.46l-2.94,8.63H135.15L151,369.52Z"/><polyline class="cls-3" points="223.41 369.52 223.41 377.52 206.13 377.52 206.13 387.24 223.41 387.24 223.41 395.24 206.13 395.24 206.13 413.15 196.34 413.15 196.34 369.52 223.41 369.52"/><path class="cls-2" d="M239.59,377.52v9.92h5.18a4.84,4.84,0,0,0,1.9-.13,6.3,6.3,0,0,0,1.79-.83,3.77,3.77,0,0,0,1.24-1.54,5.91,5.91,0,0,0,.43-2.37,5.44,5.44,0,0,0-.38-2.11,4.25,4.25,0,0,0-1.06-1.53,4.34,4.34,0,0,0-1.73-1,8,8,0,0,0-2.42-.32l-4.95-.13m-9.8-8h17.57a16,16,0,0,1,5.39,1.09,11.1,11.1,0,0,1,4.06,2.88,14.41,14.41,0,0,1,2.54,4.09,13,13,0,0,1,.43,8,11.76,11.76,0,0,1-1.24,2.91,11.62,11.62,0,0,1-2.13,2.43,16.58,16.58,0,0,1-2.94,2,5.77,5.77,0,0,1,1.15.77,11.1,11.1,0,0,1,1,1,5.88,5.88,0,0,1,.46.58c.16.21.31.42.46.64a5.24,5.24,0,0,0,.41.73l.46.74c.42.81.87,1.75,1.35,2.81s1,2.24,1.47,3.52,1.08,2.72,1.76,4.32,1.43,3.34,2.27,5.21H253.47c-.46-.89-.88-1.8-1.27-2.71s-.75-1.83-1.09-2.72-.68-1.77-1-2.63-.64-1.66-.95-2.43c-.46-1-.93-2-1.41-2.81a17.8,17.8,0,0,0-1.53-2.31,5.34,5.34,0,0,0-1.7-1.47,4.35,4.35,0,0,0-2.1-.51l-2.82-.13v17.72h-9.8Z"/><path class="cls-2" d="M299.86,391.34A15.58,15.58,0,0,0,299,386a12,12,0,0,0-2.53-4.19,11,11,0,0,0-4-2.76,13.58,13.58,0,0,0-5-.89,13.76,13.76,0,0,0-5.07.89,10.88,10.88,0,0,0-4,2.76,11.19,11.19,0,0,0-2.57,4.22,16.84,16.84,0,0,0-.83,5.44,16.55,16.55,0,0,0,.83,5.4,11.92,11.92,0,0,0,2.57,4.26,11.68,11.68,0,0,0,4,2.72,13.35,13.35,0,0,0,5.07.92,13.19,13.19,0,0,0,5-.92,11.82,11.82,0,0,0,4-2.72,12.75,12.75,0,0,0,2.53-4.26,15.77,15.77,0,0,0,.87-5.4v-.13m10.08,0a22.33,22.33,0,0,1-1.5,8.15,25.51,25.51,0,0,1-4.44,7.33,18.41,18.41,0,0,1-7.11,5.21,24.61,24.61,0,0,1-9.42,1.7,25.09,25.09,0,0,1-9.47-1.66,18,18,0,0,1-7.06-5.12,24.91,24.91,0,0,1-4.44-7.2,22.26,22.26,0,0,1-1.55-7.9V390.7a6.64,6.64,0,0,1,.05-.77,5.09,5.09,0,0,1,.06-.77c0-.25.08-.53.12-.83a21.06,21.06,0,0,1,2.13-6.91,26.7,26.7,0,0,1,4.49-6.33,17.84,17.84,0,0,1,6.74-4.51,27.06,27.06,0,0,1,17.74,0A17.75,17.75,0,0,1,303,375a26.12,26.12,0,0,1,4.49,6.21,23.2,23.2,0,0,1,2.25,6.84c0,.3.06.6.08.9s0,.58.09.83v.42a1.31,1.31,0,0,0,.06.41v.71Z"/><polyline class="cls-3" points="355.52 369.52 355.52 413.15 347.28 413.15 325.56 385.2 325.56 413.15 315.77 413.15 315.77 369.52 324.76 369.52 345.73 396.2 345.73 369.52 355.52 369.52"/><polyline class="cls-3" points="398.47 369.52 398.47 377.52 384.25 377.52 384.25 413.15 374.45 413.15 374.45 377.52 360.22 377.52 360.22 369.52 398.47 369.52"/><polyline class="cls-3" points="432.19 405.16 432.19 413.15 403.21 413.15 403.21 369.52 431.78 369.52 431.78 377.52 413 377.52 413 386.67 430.92 386.67 430.92 394.67 413 394.67 413 405.16 432.19 405.16"/><path class="cls-2" d="M448.17,377.52v9.92h5.18a4.89,4.89,0,0,0,1.91-.13,6.24,6.24,0,0,0,1.78-.83,3.77,3.77,0,0,0,1.24-1.54,5.74,5.74,0,0,0,.43-2.37,5.45,5.45,0,0,0-.37-2.11,4.27,4.27,0,0,0-1.07-1.53,4.34,4.34,0,0,0-1.73-1,8,8,0,0,0-2.42-.32l-4.95-.13m-9.79-8H456a15.91,15.91,0,0,1,5.38,1.09,11,11,0,0,1,4.06,2.88,14.18,14.18,0,0,1,2.54,4.09,12.3,12.3,0,0,1,.86,4.61,12.57,12.57,0,0,1-.43,3.36,11.76,11.76,0,0,1-1.24,2.91,11.07,11.07,0,0,1-2.13,2.43,15.88,15.88,0,0,1-2.94,2,5.85,5.85,0,0,1,1.16.77,11,11,0,0,1,1,1,5.9,5.9,0,0,1,.47.58l.46.64a5.18,5.18,0,0,0,.4.73c.15.24.31.48.46.74.42.81.87,1.75,1.35,2.81s1,2.24,1.47,3.52,1.09,2.72,1.76,4.32,1.43,3.34,2.28,5.21H462.05c-.46-.89-.88-1.8-1.26-2.71s-.75-1.83-1.1-2.72-.68-1.77-1-2.63-.64-1.66-.95-2.43c-.46-1-.93-2-1.41-2.81a17.8,17.8,0,0,0-1.53-2.31,5.31,5.31,0,0,0-1.69-1.47,4.42,4.42,0,0,0-2.11-.51l-2.82-.13v17.72h-9.79Z"/><path class="cls-2" d="M499.8,396.9,493.46,380,487.7,396.9h12.1M499,369.52l17.45,43.63H505.9l-3.22-8.63H485.11l-2.94,8.63H471.8l15.84-43.63Z"/><path class="cls-3" d="M36.27,324.66v16.82a13.05,13.05,0,0,1-.77,4.66,10,10,0,0,1-2.32,3.6A9.35,9.35,0,0,1,29.36,352a17.63,17.63,0,0,1-5.41.75,13.85,13.85,0,0,1-4.19-.63A13.66,13.66,0,0,1,16,350.22a8,8,0,0,1-2.69-3.35,12.32,12.32,0,0,1-.89-4.9V324.66h4V341a18.81,18.81,0,0,0,.1,2.15,10.42,10.42,0,0,0,.26,1.5,6.57,6.57,0,0,0,.51,1.14,4.05,4.05,0,0,0,.79,1,6.71,6.71,0,0,0,1.24,1,10.41,10.41,0,0,0,1.45.75,7.78,7.78,0,0,0,1.56.42,9.85,9.85,0,0,0,1.73.15,12.74,12.74,0,0,0,2.12-.17,8.68,8.68,0,0,0,1.79-.48,11.7,11.7,0,0,0,1.46-.71,6,6,0,0,0,1.14-.88,5,5,0,0,0,1.38-2.56,10.11,10.11,0,0,0,.29-1.65c0-.58.08-1.2.08-1.85V324.66Z"/><path class="cls-3" d="M24,354a15.12,15.12,0,0,1-4.58-.69,15.29,15.29,0,0,1-4.14-2.07,9.41,9.41,0,0,1-3.12-3.89,13.48,13.48,0,0,1-1-5.42V323.36h6.57V341a18.75,18.75,0,0,0,.09,2,9.82,9.82,0,0,0,.23,1.32,5.43,5.43,0,0,0,.38.83,2.8,2.8,0,0,0,.55.66l.07.08a4.8,4.8,0,0,0,1,.82,7,7,0,0,0,1.25.65,6.63,6.63,0,0,0,1.28.35,10.87,10.87,0,0,0,3.42,0,6.9,6.9,0,0,0,1.52-.42,8,8,0,0,0,1.28-.62,4.36,4.36,0,0,0,.89-.68,3.82,3.82,0,0,0,.65-.86,3.77,3.77,0,0,0,.37-1,8.87,8.87,0,0,0,.27-1.51c0-.54.07-1.12.07-1.73V323.36h6.58v18.12a14.37,14.37,0,0,1-.86,5.11,11.38,11.38,0,0,1-2.61,4.06,10.7,10.7,0,0,1-4.34,2.57A19,19,0,0,1,24,354ZM13.7,326v16a11,11,0,0,0,.78,4.38,6.76,6.76,0,0,0,2.26,2.83A12.25,12.25,0,0,0,24,351.45a16.26,16.26,0,0,0,5-.69,8.21,8.21,0,0,0,3.31-1.94,8.83,8.83,0,0,0,2-3.14,11.82,11.82,0,0,0,.69-4.2V326h-1.4v14.92c0,.69,0,1.35-.08,2a11.61,11.61,0,0,1-.33,1.86,6.12,6.12,0,0,1-.62,1.7,6.89,6.89,0,0,1-1.09,1.45,7.51,7.51,0,0,1-1.4,1.07,11.49,11.49,0,0,1-1.65.8,9.61,9.61,0,0,1-2.05.56,13.57,13.57,0,0,1-4.27,0,9.54,9.54,0,0,1-1.82-.49,11.9,11.9,0,0,1-1.67-.87,8,8,0,0,1-1.46-1.21,5.61,5.61,0,0,1-1-1.25,7.84,7.84,0,0,1-.62-1.38,13.86,13.86,0,0,1-.32-1.76,21.6,21.6,0,0,1-.11-2.3V326Z"/><polygon class="cls-3" points="92.48 324.66 92.48 352.38 89.06 352.38 70.51 331.04 70.51 352.38 66.77 352.38 66.77 324.66 69.94 324.66 88.73 346.12 88.73 324.66 92.48 324.66"/><path class="cls-3" d="M93.77,353.67h-5.3L71.81,334.5v19.17H65.48V323.36h5l16.91,19.31V323.36h6.33Zm-4.12-2.59h1.53V326H90v23.61L69.36,326H68.07v25.13h1.15V327.57Z"/><path class="cls-3" d="M123.59,324.66h4v27.72h-4Z"/><path class="cls-3" d="M128.87,353.67H122.3V323.36h6.57Zm-4-2.59h1.4V326h-1.4Z"/><polygon class="cls-3" points="180.25 324.66 168.5 352.62 167.69 352.62 155.69 324.66 159.67 324.66 168.01 344.13 176.31 324.66 180.25 324.66"/><path class="cls-3" d="M169.36,353.92h-2.53l-13.11-30.56h6.81L168,340.83l7.44-17.47h6.75Zm-11.71-28,10.43,24.32L178.3,326h-1.14L168,347.42,158.82,326Z"/><polygon class="cls-3" points="224.06 324.66 224.06 328.23 212.31 328.23 212.31 336.61 223.66 336.61 223.66 340.18 212.31 340.18 212.31 348.8 224.43 348.8 224.43 352.38 208.32 352.38 208.32 324.66 224.06 324.66"/><path class="cls-3" d="M225.72,353.67H207V323.36h18.33v6.17H213.6v5.78H225v6.17H213.6v6h12.12Zm-16.1-2.59h13.51v-1H211V338.89h11.35v-1H211v-11h11.76v-1H209.62Z"/><path class="cls-2" d="M257.72,328.07v8.7h2.56a7.89,7.89,0,0,0,2.66-.26,3.71,3.71,0,0,0,1.65-1,5.06,5.06,0,0,0,.85-1.46,4.7,4.7,0,0,0,.29-1.63v-.08a5,5,0,0,0-.37-1.75,3.49,3.49,0,0,0-.93-1.3,4.2,4.2,0,0,0-1.69-.85,9.33,9.33,0,0,0-2.46-.29l-2.56-.08m-4-3.41h7a15.15,15.15,0,0,1,3.78.58,8,8,0,0,1,2.89,1.57,6.51,6.51,0,0,1,1.83,2.46,8.34,8.34,0,0,1,.61,3.23,7.77,7.77,0,0,1-.31,2.26,6.36,6.36,0,0,1-.91,1.89,6.72,6.72,0,0,1-1.47,1.54,8.74,8.74,0,0,1-1.95,1.1c.38.27.75.56,1.1.85a13.37,13.37,0,0,1,1,1c.32.35.64.72.95,1.12s.62.82.92,1.28c.16.27.33.54.5.81l.55.85c.19.27.38.56.57.88l.57.91a.81.81,0,0,1,.12.22.59.59,0,0,0,.13.19,1.8,1.8,0,0,0,.1.18l.1.18.25.35.24.35v.06s0,0,0,0a.14.14,0,0,0,0,.06.08.08,0,0,1,0,.06l.08.08a.6.6,0,0,1,.08.08c.16.25.34.5.53.75s.38.54.57.84.45.57.69.91l.81,1.08h-4.75l-3.66-5.69c-.76-1.17-1.46-2.15-2.1-2.95a14.39,14.39,0,0,0-1.65-1.81,7.88,7.88,0,0,0-1.4-1,3.52,3.52,0,0,0-1.28-.45h-.1a.43.43,0,0,1-.14,0h-.35a.18.18,0,0,1-.1,0h-.25l-1.66-.08v12h-4Z"/><path class="cls-3" d="M277.83,353.67H269.7l-4-6.28c-.74-1.13-1.42-2.09-2-2.84a14.24,14.24,0,0,0-1.49-1.65,8.27,8.27,0,0,0-1.17-.81,2.79,2.79,0,0,0-.76-.29h0a1.39,1.39,0,0,1-.35,0h-.14a1.27,1.27,0,0,1-.34,0l-.38,0v12h-6.57V323.36h8.29a16.5,16.5,0,0,1,4.16.65,9.07,9.07,0,0,1,3.35,1.82,7.65,7.65,0,0,1,2.18,2.94,10.08,10.08,0,0,1,.36,6.35,8.25,8.25,0,0,1-2.84,4.1l-.4.29c.25.23.49.48.73.73s.68.77,1,1.19.67.9,1,1.38c.18.3.34.56.51.81s.36.56.55.86.39.57.59.91.37.59.55.88a2.19,2.19,0,0,1,.17.29l.06.06.14.28.09.15.12.17h.6l0,.92.45.65c.2.26.39.54.58.84s.45.58.69.91l.78,1Zm-6.72-2.59h1.46c-.17-.27-.35-.52-.52-.76l-.37-.51h-.62l0-.95-.05-.06-.19-.28-.19-.3-.06-.11a2.3,2.3,0,0,1-.25-.43c-.2-.32-.4-.63-.59-.95s-.35-.56-.53-.8l-.57-.89c-.19-.29-.36-.57-.53-.85a13.31,13.31,0,0,0-.82-1.15q-.43-.56-.9-1.05a10.48,10.48,0,0,0-.9-.86c-.32-.27-.66-.54-1-.79L262.54,339l2.17-.89a7.15,7.15,0,0,0,1.66-.93,5.57,5.57,0,0,0,1.18-1.24,5.28,5.28,0,0,0,.74-1.53,6.65,6.65,0,0,0,.25-1.89,7.14,7.14,0,0,0-.5-2.73,5.05,5.05,0,0,0-1.47-2,6.72,6.72,0,0,0-2.44-1.33,14,14,0,0,0-3.45-.53H255v25.13h1.39V339l3,.14h.7l0,0h.19l.11.06a4.94,4.94,0,0,1,1.73.59,9.82,9.82,0,0,1,1.61,1.12,15.66,15.66,0,0,1,1.83,2c.67.83,1.37,1.83,2.17,3.05Z"/><path class="cls-3" d="M260.87,338.08l-.66,0h-3.79V326.73l3.9.13a10.71,10.71,0,0,1,2.76.33,5.47,5.47,0,0,1,2.2,1.13,4.78,4.78,0,0,1,1.28,1.77,6.33,6.33,0,0,1,.46,2.2v.13a6,6,0,0,1-.36,2.07,6.36,6.36,0,0,1-1.07,1.84,4.88,4.88,0,0,1-2.25,1.41A8.06,8.06,0,0,1,260.87,338.08ZM259,335.47h1.27a6.53,6.53,0,0,0,2.27-.2,2.31,2.31,0,0,0,1.07-.61,3.89,3.89,0,0,0,.61-1.06,3.33,3.33,0,0,0,.2-1.18,3.5,3.5,0,0,0-.26-1.33,2.13,2.13,0,0,0-.59-.82,3,3,0,0,0-1.18-.59,8.58,8.58,0,0,0-2.12-.23l-1.27,0Z"/><path class="cls-2" d="M316.41,326.24v4.51a17.78,17.78,0,0,0-1.75-1.34,7.47,7.47,0,0,0-1.66-.85,9.72,9.72,0,0,0-1.63-.47,8.56,8.56,0,0,0-1.46-.14,6.06,6.06,0,0,0-1.77.24,5.14,5.14,0,0,0-1.41.69,3.07,3.07,0,0,0-.91,1,2.86,2.86,0,0,0-.31,1.32,3.34,3.34,0,0,0,.29,1.4,3.93,3.93,0,0,0,.81,1.16,13.3,13.3,0,0,0,1.26,1,14.42,14.42,0,0,0,1.51.93l.49.31.52.3.57.31q.29.13.57.3a23,23,0,0,1,2.14,1.45,18.81,18.81,0,0,1,2,1.72,6.12,6.12,0,0,1,1.4,2.22,8.57,8.57,0,0,1,.47,2.95,7.65,7.65,0,0,1-.55,3,6.71,6.71,0,0,1-1.65,2.4,6.91,6.91,0,0,1-2.5,1.57,9.15,9.15,0,0,1-3.07.5,15.12,15.12,0,0,1-2.17-.14,13.61,13.61,0,0,1-2-.42,15.66,15.66,0,0,1-1.85-.8,11.86,11.86,0,0,1-1.77-1.11v-5.13A11.15,11.15,0,0,0,303.6,347a10.71,10.71,0,0,0,1.79,1.28,8,8,0,0,0,1.91.78,8.36,8.36,0,0,0,2,.24,6.67,6.67,0,0,0,1.68-.2,3.71,3.71,0,0,0,1.28-.61,5.26,5.26,0,0,0,.92-.9,3.12,3.12,0,0,0,.51-1,.65.65,0,0,1,0-.19,1,1,0,0,1,.06-.22v-.08a.24.24,0,0,1,0-.12v-.21a4,4,0,0,0-.35-1.68,4.06,4.06,0,0,0-1-1.37c-.46-.4-1-.81-1.49-1.22a20,20,0,0,0-1.73-1.17l-.34-.19-.39-.22a.83.83,0,0,0-.16-.12.61.61,0,0,1-.16-.12.82.82,0,0,1-.17-.11l-.16-.1c-.76-.46-1.48-.95-2.17-1.46s-1.35-1.06-2-1.63a5.49,5.49,0,0,1-1.4-2,6.85,6.85,0,0,1-.47-2.58,7.65,7.65,0,0,1,.57-3,6.65,6.65,0,0,1,1.71-2.36,8.17,8.17,0,0,1,2.7-1.52,10.86,10.86,0,0,1,3.44-.51l.79,0a7.6,7.6,0,0,1,.8.1,5.53,5.53,0,0,1,.75.15c.26.06.52.14.79.22a10.22,10.22,0,0,1,1.57.61,13.07,13.07,0,0,1,1.48.85Z"/><path class="cls-3" d="M309.74,354a16.26,16.26,0,0,1-2.35-.16,13.69,13.69,0,0,1-2.17-.47,17.19,17.19,0,0,1-2.06-.87,14.11,14.11,0,0,1-2-1.24l-.51-.39v-9.73l2.34,3.2a10.3,10.3,0,0,0,1.44,1.6,9.7,9.7,0,0,0,1.57,1.13,6.31,6.31,0,0,0,1.59.64,6.5,6.5,0,0,0,3,.05,2.56,2.56,0,0,0,.83-.39,3.82,3.82,0,0,0,.67-.66,1.46,1.46,0,0,0,.26-.45l0-.19c0-.05,0-.11.05-.18a.88.88,0,0,1,0-.17h0a2.7,2.7,0,0,0-.22-1.14,2.85,2.85,0,0,0-.72-.94c-.44-.38-.91-.77-1.42-1.16a17.13,17.13,0,0,0-1.57-1.07l-.34-.19-.42-.24-.2-.14-.22-.15-.19-.14a27.71,27.71,0,0,1-2.33-1.55q-1.08-.81-2.07-1.71a6.67,6.67,0,0,1-1.73-2.48,8.26,8.26,0,0,1-.56-3.07,8.86,8.86,0,0,1,.67-3.51,7.82,7.82,0,0,1,2-2.82,9.25,9.25,0,0,1,3.16-1.79,12.15,12.15,0,0,1,3.84-.57l.86,0a6.19,6.19,0,0,1,.93.11c.28,0,.58.1.88.17l.83.24a11.58,11.58,0,0,1,1.77.69,13.43,13.43,0,0,1,1.63.94l-.66,1h1.24v7.34l-2.14-1.85a19.53,19.53,0,0,0-1.62-1.24,6,6,0,0,0-1.38-.71,8.5,8.5,0,0,0-1.43-.42,5.63,5.63,0,0,0-2.62.07,3.47,3.47,0,0,0-1,.5,1.62,1.62,0,0,0-.53.59,1.47,1.47,0,0,0-.16.72,2,2,0,0,0,.17.87,2.48,2.48,0,0,0,.55.78,10.65,10.65,0,0,0,1.09.87,15.71,15.71,0,0,0,1.38.86l.09.05.42.27.52.3.51.27.63.34a22.24,22.24,0,0,1,2.28,1.54,19.34,19.34,0,0,1,2.1,1.84,7.28,7.28,0,0,1,1.71,2.69,9.92,9.92,0,0,1,.55,3.39,9,9,0,0,1-.65,3.45,8.43,8.43,0,0,1-4.91,4.69A10.22,10.22,0,0,1,309.74,354Zm-6.47-4.44a10.55,10.55,0,0,0,1.06.63A13.6,13.6,0,0,0,306,351a11.27,11.27,0,0,0,1.72.37,10.42,10.42,0,0,0,4.63-.3,6,6,0,0,0,2.05-1.28,5.72,5.72,0,0,0,1.34-2,6.47,6.47,0,0,0,.46-2.47,7.56,7.56,0,0,0-.39-2.51,4.6,4.6,0,0,0-1.11-1.74,17.76,17.76,0,0,0-1.84-1.62,19.09,19.09,0,0,0-2-1.35l-.49-.27a6.47,6.47,0,0,1-.63-.34l-.54-.3c-.16-.1-.33-.2-.5-.32a16,16,0,0,1-1.59-1,13.88,13.88,0,0,1-1.39-1.12,5.32,5.32,0,0,1-1.11-1.57,4.61,4.61,0,0,1-.4-1.94,4.08,4.08,0,0,1,.45-1.91,4.26,4.26,0,0,1,1.3-1.49,5.86,5.86,0,0,1,1.79-.88,8,8,0,0,1,3.84-.14,11.49,11.49,0,0,1,1.86.53,8,8,0,0,1,1.66.82V327c-.25-.15-.5-.28-.76-.41a9.46,9.46,0,0,0-1.37-.53q-.37-.12-.75-.21a3.82,3.82,0,0,0-.57-.11l-.11,0a4.09,4.09,0,0,0-.6-.07,10.44,10.44,0,0,0-3.75.42,6.43,6.43,0,0,0-2.27,1.28,5.24,5.24,0,0,0-1.37,1.88,6.37,6.37,0,0,0-.46,2.5,5.57,5.57,0,0,0,.37,2.1,4.2,4.2,0,0,0,1.07,1.54c.6.54,1.23,1.06,1.88,1.54a23.39,23.39,0,0,0,2,1.37,2.61,2.61,0,0,1,.3.2l.27.18.21.15.24.14.31.16.09.05a19.66,19.66,0,0,1,1.84,1.26c.55.42,1.07.85,1.55,1.27a5.5,5.5,0,0,1,1.36,1.79,5.33,5.33,0,0,1,.46,2.23v.5l-.13.41,0,.28a4.41,4.41,0,0,1-.73,1.39,5.78,5.78,0,0,1-1.14,1.12,5,5,0,0,1-1.74.85,9,9,0,0,1-4.33,0,9.06,9.06,0,0,1-2.24-.9,12.41,12.41,0,0,1-1.48-1Z"/><path class="cls-3" d="M347,324.66h4v27.72h-4Z"/><path class="cls-3" d="M352.25,353.67h-6.57V323.36h6.57Zm-4-2.59h1.39V326h-1.39Z"/><path class="cls-2" d="M386.14,328.23V348.8h6.35a12.86,12.86,0,0,0,4-.39,7.55,7.55,0,0,0,2.89-1.44,11.49,11.49,0,0,0,2-2,9.71,9.71,0,0,0,1.33-2.2c.08-.18.15-.37.22-.56s.13-.38.18-.57.11-.34.16-.53a3.9,3.9,0,0,0,.13-.57c.05-.38.1-.73.14-1.06a7.25,7.25,0,0,0,.06-.89,11,11,0,0,0-.69-3.9,10.35,10.35,0,0,0-2.07-3.34,8.39,8.39,0,0,0-3.52-2.29,15,15,0,0,0-5-.76l-6.14-.08m-4,24.15V324.66h10.77a19.48,19.48,0,0,1,6.12,1,11,11,0,0,1,4.38,2.81,16.21,16.21,0,0,1,2.82,3.92,13,13,0,0,1,1.33,4.33V337a.46.46,0,0,0,0,.21,1,1,0,0,0,0,.24,1.94,1.94,0,0,1,0,.24v.25a.4.4,0,0,0,0,.2v.49a12.87,12.87,0,0,1-1,5.06,15.86,15.86,0,0,1-2.95,4.53,12.16,12.16,0,0,1-4.65,3.15,17.09,17.09,0,0,1-6.13,1Z"/><path class="cls-3" d="M393,353.67H380.86V323.36h12.07a21.31,21.31,0,0,1,6.56,1.09,12.28,12.28,0,0,1,4.88,3.14,17.78,17.78,0,0,1,3,4.22,14.76,14.76,0,0,1,1.45,4.76l.05.61a2.82,2.82,0,0,1,0,.48l0,.94a14.46,14.46,0,0,1-1.09,5.56,17.31,17.31,0,0,1-3.19,4.9,13.55,13.55,0,0,1-5.15,3.49A18.29,18.29,0,0,1,393,353.67Zm-9.52-2.59H393a15.84,15.84,0,0,0,5.66-.95,10.83,10.83,0,0,0,4.17-2.82,14.8,14.8,0,0,0,2.71-4.15,11.8,11.8,0,0,0,.89-4.56v-.3a2.58,2.58,0,0,1,0-.39v-.25l0-.25a2.12,2.12,0,0,1-.05-.44v-.16A11.83,11.83,0,0,0,405.1,333a15.12,15.12,0,0,0-2.61-3.61,9.67,9.67,0,0,0-3.87-2.48,18.54,18.54,0,0,0-5.72-.94h-9.45Z"/><path class="cls-3" d="M393.14,350.11h-8.29V326.92l7.45.1a16.41,16.41,0,0,1,5.44.83,9.67,9.67,0,0,1,4.05,2.65,11.59,11.59,0,0,1,2.32,3.74,12.39,12.39,0,0,1,.78,4.36,10.26,10.26,0,0,1-.07,1q-.07.51-.15,1.08a6.24,6.24,0,0,1-.16.75c-.06.2-.12.4-.18.58s-.11.37-.19.59-.16.43-.26.65a10.68,10.68,0,0,1-1.49,2.48,13.73,13.73,0,0,1-2.23,2.21,8.94,8.94,0,0,1-3.35,1.67A13.71,13.71,0,0,1,393.14,350.11Zm-5.7-2.6h5.05a12.44,12.44,0,0,0,3.64-.34,6.64,6.64,0,0,0,2.41-1.19,11.5,11.5,0,0,0,1.82-1.8,8.62,8.62,0,0,0,1.14-1.9c.08-.17.14-.34.2-.5s.11-.33.16-.49l.16-.52a3.85,3.85,0,0,0,.09-.41c.05-.36.1-.71.14-1a6.56,6.56,0,0,0,.05-.73,9.82,9.82,0,0,0-.61-3.45,8.84,8.84,0,0,0-1.82-2.91,7,7,0,0,0-3-1.95,14,14,0,0,0-4.6-.68l-4.84-.07Z"/><path class="cls-2" d="M445.9,330.59l-4.15,10h8.62l-4.47-10m1.46-6.1,12.4,27.89H455.7l-3.7-8.17H440.2l-3.5,8.17h-4.06l11.91-27.89Z"/><path class="cls-3" d="M461.76,353.67h-6.9l-3.7-8.17h-10.1l-3.5,8.17h-6.88l13-30.47h4.5Zm-5.23-2.59h1.24l-11.25-25.29h-1.11L434.6,351.08h1.25l3.5-8.17h13.48Z"/><path class="cls-3" d="M452.36,341.93H439.81l6-14.62Zm-8.68-2.59h4.7l-2.44-5.47Z"/><path class="cls-2" d="M491.84,328.23V348.8h6.34a12.93,12.93,0,0,0,4-.39,7.58,7.58,0,0,0,2.88-1.44,11.92,11.92,0,0,0,2-2,10,10,0,0,0,1.32-2.2c.08-.18.15-.37.22-.56s.13-.38.18-.57.11-.34.17-.53a5.78,5.78,0,0,0,.12-.57c.05-.38.1-.73.14-1.06a7.25,7.25,0,0,0,.06-.89,11,11,0,0,0-.69-3.9,10.35,10.35,0,0,0-2.07-3.34,8.33,8.33,0,0,0-3.52-2.29,14.89,14.89,0,0,0-5-.76l-6.14-.08m-4,24.15V324.66h10.78a19.58,19.58,0,0,1,6.12,1,10.86,10.86,0,0,1,4.37,2.81A16.26,16.26,0,0,1,512,332.4a13.18,13.18,0,0,1,1.32,4.33V337a.46.46,0,0,0,0,.21,1.94,1.94,0,0,0,0,.24,1.94,1.94,0,0,1,0,.24v.25a.4.4,0,0,0,0,.2v.49a12.87,12.87,0,0,1-1,5.06,15.82,15.82,0,0,1-2.94,4.53,12.27,12.27,0,0,1-4.66,3.15,17,17,0,0,1-6.12,1Z"/><path class="cls-3" d="M498.67,353.67H486.55V323.36h12.08a21.3,21.3,0,0,1,6.55,1.09,12.39,12.39,0,0,1,4.89,3.14,17.78,17.78,0,0,1,3,4.23,14.16,14.16,0,0,1,1.45,4.75l.05.61a2.82,2.82,0,0,1,0,.48l.05.94a14.29,14.29,0,0,1-1.1,5.56,17,17,0,0,1-3.19,4.9,13.55,13.55,0,0,1-5.15,3.49A18.24,18.24,0,0,1,498.67,353.67Zm-9.53-2.59h9.53a15.88,15.88,0,0,0,5.66-.95,10.87,10.87,0,0,0,4.16-2.82,14.52,14.52,0,0,0,2.71-4.15,11.81,11.81,0,0,0,.9-4.56v-.3a1.74,1.74,0,0,1-.05-.39v-.25l0-.26a2,2,0,0,1,0-.43v-.16a11.83,11.83,0,0,0-1.18-3.83,15.27,15.27,0,0,0-2.6-3.61,9.64,9.64,0,0,0-3.88-2.48,18.47,18.47,0,0,0-5.71-.94h-9.46Z"/><path class="cls-3" d="M498.83,350.11h-8.29V326.92l7.45.1a16.41,16.41,0,0,1,5.44.83,9.55,9.55,0,0,1,4.05,2.65,11.59,11.59,0,0,1,2.32,3.74,12.17,12.17,0,0,1,.78,4.36,10.26,10.26,0,0,1-.07,1c-.05.34-.09.7-.15,1.08a5,5,0,0,1-.16.75c-.06.2-.12.39-.17.57s-.12.39-.2.6-.16.43-.25.65a11.09,11.09,0,0,1-1.5,2.48,13.65,13.65,0,0,1-2.22,2.21,9.09,9.09,0,0,1-3.35,1.67A13.84,13.84,0,0,1,498.83,350.11Zm-5.7-2.6h5.05a12.44,12.44,0,0,0,3.64-.34,6.49,6.49,0,0,0,2.41-1.2,10.67,10.67,0,0,0,1.82-1.79,8.44,8.44,0,0,0,1.15-1.91,4.94,4.94,0,0,0,.19-.49c.06-.16.11-.32.16-.49s.11-.36.16-.53a2.59,2.59,0,0,0,.09-.4c.05-.37.1-.71.14-1a6.56,6.56,0,0,0,.05-.73,9.6,9.6,0,0,0-.61-3.45,9,9,0,0,0-1.81-2.91,7,7,0,0,0-3-1.95,13.92,13.92,0,0,0-4.59-.68l-4.85-.07Z"/><path class="cls-3" d="M399.43,227.34l-1.51-1.24c1.69-2,6.55-5.1,6.75-5.23l1,1.65C404.38,223.36,400.66,225.85,399.43,227.34Z"/><rect class="cls-3" x="369.75" y="210.96" width="1.95" height="8.66" transform="translate(-48.26 306.07) rotate(-42.37)"/><path class="cls-3" d="M157,219.79a1,1,0,0,1-.65-.25,1,1,0,0,1-.08-1.38L161,212.9a1,1,0,1,1,1.46,1.29l-4.67,5.27A1,1,0,0,1,157,219.79Z"/><path class="cls-3" d="M264.67,245A113.18,113.18,0,1,1,377.88,131.83,113.32,113.32,0,0,1,264.67,245Zm0-224.41A111.23,111.23,0,1,0,375.92,131.83,111.37,111.37,0,0,0,264.67,20.6Z"/><path class="cls-3" d="M159.35,139.67l.09-2.64,7.07.24a13.89,13.89,0,0,0,2.19,0,2.11,2.11,0,0,0,1.31-.75,2.78,2.78,0,0,0,.55-1.7,2.65,2.65,0,0,0-.4-1.69,1.81,1.81,0,0,0-1.11-.72,14.31,14.31,0,0,0-2.21-.19l-7.22-.25.09-2.65,6.86.24a18.71,18.71,0,0,1,3.32.33,3.81,3.81,0,0,1,1.61.84,4,4,0,0,1,1,1.57,6.8,6.8,0,0,1,.31,2.51,7.27,7.27,0,0,1-.53,2.81,4.16,4.16,0,0,1-1.18,1.49,3.63,3.63,0,0,1-1.47.68,15.71,15.71,0,0,1-3.32.14l-7-.24"/><polyline class="cls-3" points="173.1 126.35 160.21 124.31 160.61 121.78 170.09 117.85 161.45 116.48 161.83 114.07 174.72 116.11 174.31 118.72 165.01 122.6 173.48 123.94 173.1 126.35"/><polyline class="cls-3" points="175.58 112.99 162.92 109.83 163.56 107.27 176.22 110.42 175.58 112.99"/><polyline class="cls-3" points="178.16 104.31 164.3 104.24 165.27 101.55 175.49 101.74 167.49 95.45 168.46 92.81 179.13 101.64 178.16 104.31"/><polyline class="cls-3" points="181.54 95.57 169.81 89.85 174.04 81.17 176.03 82.13 172.95 88.44 175.56 89.71 178.42 83.85 180.4 84.81 177.54 90.68 180.72 92.23 183.91 85.69 185.89 86.66 181.54 95.57"/><path class="cls-2" d="M182.91,77.72l1.12-1.6a9.58,9.58,0,0,0,1.23-2,1.44,1.44,0,0,0,0-.92,1.65,1.65,0,0,0-.65-.78,1.57,1.57,0,0,0-1.07-.33,1.61,1.61,0,0,0-1,.52c-.15.16-.53.68-1.14,1.55l-1.18,1.68,2.71,1.91m4.66,6.48-10.7-7.49,3.19-4.54a9.39,9.39,0,0,1,2-2.29,3.06,3.06,0,0,1,1.9-.53,3.74,3.74,0,0,1,2,.71,3.5,3.5,0,0,1,1.49,2.1A4.08,4.08,0,0,1,187,75a6.14,6.14,0,0,1,1.71-.52,14.17,14.17,0,0,1,2.59,0l3,.16-1.81,2.58-3.41-.09a20.55,20.55,0,0,0-2.37,0,2.14,2.14,0,0,0-.9.34,4.57,4.57,0,0,0-.89,1l-.3.44L189.08,82Z"/><path class="cls-3" d="M192.11,70.55l1.57-2.06a3.08,3.08,0,0,0,2,.61,2.78,2.78,0,0,0,1.74-1,2.91,2.91,0,0,0,.91-1.77,1.59,1.59,0,0,0-.48-1.32,1.15,1.15,0,0,0-.76-.34,2.07,2.07,0,0,0-1.05.3c-.29.15-.91.54-1.86,1.15a7,7,0,0,1-3,1.28,3.44,3.44,0,0,1-3.73-2.61,3.51,3.51,0,0,1,.14-2.09,6.51,6.51,0,0,1,1.41-2.18,5.48,5.48,0,0,1,3.31-2,3.91,3.91,0,0,1,3,1l-1.73,2a2.24,2.24,0,0,0-1.56-.46,2.57,2.57,0,0,0-1.45.9,3,3,0,0,0-.87,1.63,1,1,0,0,0,.31.86,1,1,0,0,0,.85.26,7.09,7.09,0,0,0,2.29-1.17,12.63,12.63,0,0,1,2.62-1.44,3.71,3.71,0,0,1,1.95-.14,4.07,4.07,0,0,1,3,2.92,3.73,3.73,0,0,1-.14,2.28,7.31,7.31,0,0,1-1.59,2.41,5.67,5.67,0,0,1-3.42,2,5,5,0,0,1-3.52-1.11"/><polyline class="cls-3" points="204.38 63.89 195.64 54.19 197.61 52.42 206.34 62.12 204.38 63.89"/><path class="cls-2" d="M204.38,49.75l5.08,7L211,55.59a7,7,0,0,0,1.21-1,2.49,2.49,0,0,0,.54-1.06,2.71,2.71,0,0,0-.18-1.42A8.48,8.48,0,0,0,211.42,50a8.18,8.18,0,0,0-1.58-1.73,3,3,0,0,0-1.35-.58,2.4,2.4,0,0,0-1.34.22,11,11,0,0,0-1.82,1.16l-1,.69m-3.44-.23,3.89-2.82A9.33,9.33,0,0,1,207,45.44a4.5,4.5,0,0,1,2.3-.18,5.73,5.73,0,0,1,2.25,1,9.75,9.75,0,0,1,2.16,2.25A8.5,8.5,0,0,1,215,51a5.71,5.71,0,0,1,.23,2.68,4.67,4.67,0,0,1-.88,1.93,8,8,0,0,1-1.72,1.59l-4,2.91Z"/><path class="cls-2" d="M223.64,44.3l-3.87-3.41.71,5.09,3.16-1.68m6.7,2.3-2.52,1.34-2.39-2.1-4.62,2.46.44,3.13-2.47,1.32-1.65-13.91,2.46-1.31Z"/><path class="cls-2" d="M231.42,34.8,234.23,43l1.86-.63a7.47,7.47,0,0,0,1.46-.64,2.48,2.48,0,0,0,.82-.86,2.8,2.8,0,0,0,.24-1.41,8.49,8.49,0,0,0-.53-2.35,7.86,7.86,0,0,0-1-2.11A3,3,0,0,0,236,34a2.51,2.51,0,0,0-1.35-.18,11.8,11.8,0,0,0-2.08.58l-1.11.38m-3.22-1.22L232.75,32a9.51,9.51,0,0,1,2.42-.57,4.37,4.37,0,0,1,2.25.5,5.72,5.72,0,0,1,1.86,1.6,9.65,9.65,0,0,1,1.41,2.77,8.62,8.62,0,0,1,.53,2.76,5.76,5.76,0,0,1-.57,2.63,4.71,4.71,0,0,1-1.41,1.59,8.13,8.13,0,0,1-2.11,1l-4.68,1.61Z"/><path class="cls-2" d="M252.9,29.55l.75,8.61L255.6,38a7,7,0,0,0,1.57-.26,2.36,2.36,0,0,0,1-.63,2.71,2.71,0,0,0,.57-1.32,8.24,8.24,0,0,0,.06-2.4,7.69,7.69,0,0,0-.47-2.29,2.87,2.87,0,0,0-.85-1.19,2.46,2.46,0,0,0-1.26-.51,11.53,11.53,0,0,0-2.16.07l-1.17.1m-2.83-2,4.79-.42a9.85,9.85,0,0,1,2.49,0,4.42,4.42,0,0,1,2.06,1,5.67,5.67,0,0,1,1.42,2,9.6,9.6,0,0,1,.7,3,8.68,8.68,0,0,1-.16,2.81,5.79,5.79,0,0,1-1.19,2.42,4.54,4.54,0,0,1-1.75,1.19,7.52,7.52,0,0,1-2.29.48l-4.93.43Z"/><polyline class="cls-3" points="264.96 39.5 265.42 26.46 275.08 26.8 275 29 267.98 28.75 267.88 31.65 274.41 31.88 274.33 34.08 267.81 33.85 267.68 37.39 274.95 37.64 274.88 39.85 264.96 39.5"/><polyline class="cls-3" points="283.27 41.24 286.4 28.69 288.96 29.33 286.37 39.74 292.72 41.33 292.18 43.47 283.27 41.24"/><path class="cls-2" d="M303,42.13l.13-5.15-3.44,3.81L303,42.13m2.54,6.61-2.63-1.06L303,44.5l-4.85-2L296,44.89l-2.59-1L303,33.64l2.59,1Z"/><polyline class="cls-3" points="311.55 52.24 318.65 41.3 326.18 46.18 324.98 48.03 319.67 44.59 317.98 47.19 322.57 50.16 321.37 52.01 316.78 49.03 313.76 53.68 311.55 52.24"/><path class="cls-2" d="M328.37,55.13l1.45,1.3a10.18,10.18,0,0,0,1.86,1.47,1.4,1.4,0,0,0,.92.08,1.67,1.67,0,0,0,.86-.55,1.61,1.61,0,0,0,.45-1,1.59,1.59,0,0,0-.39-1c-.14-.17-.61-.61-1.4-1.32l-1.53-1.38-2.22,2.47m-7,3.82,8.73-9.69L334.23,53a9.42,9.42,0,0,1,2,2.3,3,3,0,0,1,.29,1.94,3.72,3.72,0,0,1-1,1.91,3.47,3.47,0,0,1-2.26,1.23,4.13,4.13,0,0,1-2.72-.83,6.16,6.16,0,0,1,.31,1.76,14.12,14.12,0,0,1-.31,2.57l-.52,3-2.34-2.11.5-3.38A19.25,19.25,0,0,0,328.5,59a2.06,2.06,0,0,0-.23-.93,4.68,4.68,0,0,0-.89-1l-.4-.36-3.65,4Z"/><path class="cls-2" d="M338,65.79a4.88,4.88,0,0,0-1.91,2.95,3.53,3.53,0,0,0,3.33,4,5,5,0,0,0,3.26-1.42,4.89,4.89,0,0,0,1.94-2.91,3.66,3.66,0,0,0-3.39-4,4.94,4.94,0,0,0-3.23,1.4m-1.81-2a8.3,8.3,0,0,1,2.95-1.7,6,6,0,0,1,2.16-.22,5.14,5.14,0,0,1,2,.53,7.25,7.25,0,0,1,2.2,1.83,6.13,6.13,0,0,1,1.6,4.69,8,8,0,0,1-7.61,6.4,6.85,6.85,0,0,1-5.94-7.06A6.74,6.74,0,0,1,336.22,63.77Z"/><polyline class="cls-3" points="340.93 79.91 352 73 353.36 75.17 348.79 84.35 356.21 79.72 357.5 81.79 346.43 88.71 345.03 86.47 349.51 77.44 342.23 81.98 340.93 79.91"/><polyline class="cls-3" points="349.24 94.53 359.15 90.12 357.58 86.59 359.6 85.69 363.81 95.15 361.79 96.05 360.23 92.53 350.32 96.95 349.24 94.53"/><polyline class="cls-3" points="352.69 102.64 365.17 98.82 367.99 108.06 365.88 108.71 363.83 102 361.06 102.84 362.97 109.08 360.86 109.73 358.95 103.49 355.57 104.52 357.69 111.48 355.58 112.12 352.69 102.64"/><path class="cls-2" d="M364.13,116.21l.34,1.92a10.06,10.06,0,0,0,.57,2.3,1.46,1.46,0,0,0,.67.63,1.79,1.79,0,0,0,1,.1,1.65,1.65,0,0,0,1-.53,1.69,1.69,0,0,0,.33-1.07c0-.22-.11-.85-.29-1.9l-.36-2-3.27.58m-7.87-1.3,12.86-2.26,1,5.46a9.62,9.62,0,0,1,.18,3.06,3,3,0,0,1-1,1.71,3.68,3.68,0,0,1-1.92.92,3.51,3.51,0,0,1-2.54-.42,4.13,4.13,0,0,1-1.64-2.33,6,6,0,0,1-.83,1.57,14.46,14.46,0,0,1-1.83,1.84l-2.23,2-.55-3.1,2.48-2.35a18.05,18.05,0,0,0,1.64-1.71,2,2,0,0,0,.4-.88,4.16,4.16,0,0,0-.09-1.33l-.09-.53-5.37,1Z"/><path class="cls-2" d="M363.91,135.35l4.76-2-4.89-1.59.13,3.57m-5,5-.1-2.84,2.93-1.23-.18-5.24-3-1-.1-2.79,13.22,4.61.1,2.79Z"/><polyline class="cls-3" points="198.9 216.96 203.99 210.2 201.58 208.38 202.62 207.01 209.08 211.88 208.04 213.25 205.64 211.44 200.55 218.21 198.9 216.96"/><polyline class="cls-3" points="205.43 221.56 210.37 212.64 216.97 216.3 216.13 217.81 211.34 215.15 210.24 217.13 214.7 219.6 213.87 221.11 209.41 218.63 208.07 221.05 213.04 223.81 212.2 225.31 205.43 221.56"/><polyline class="cls-3" points="214.99 226.74 218.8 217.29 221.67 218.45 220.76 225.58 225.04 219.81 227.91 220.97 224.1 230.42 222.33 229.71 225.33 222.27 220.46 228.95 218.62 228.21 219.77 220.02 216.76 227.45 214.99 226.74"/><path class="cls-3" d="M230.06,221.62l2,.54-1.42,5.34a11.36,11.36,0,0,0-.37,1.66,1.6,1.6,0,0,0,.34,1.13,2.16,2.16,0,0,0,1.2.72,2,2,0,0,0,1.36,0,1.43,1.43,0,0,0,.74-.71,11.53,11.53,0,0,0,.53-1.65l1.46-5.45,2,.54-1.38,5.17a13.86,13.86,0,0,1-.83,2.47,2.86,2.86,0,0,1-.92,1.07,3.12,3.12,0,0,1-1.37.5,5.15,5.15,0,0,1-2-.21,5.58,5.58,0,0,1-2-.9,3.27,3.27,0,0,1-.92-1.15,2.72,2.72,0,0,1-.26-1.24,12.61,12.61,0,0,1,.47-2.56l1.41-5.26"/><path class="cls-3" d="M245.6,231.51l1.88.92a4.54,4.54,0,0,1-1.9,2.23,4.79,4.79,0,0,1-5.89-1.52,5.3,5.3,0,0,1-.7-3.95,5.55,5.55,0,0,1,1.92-3.7,4.51,4.51,0,0,1,3.63-.85,4.26,4.26,0,0,1,2.83,1.57,4.05,4.05,0,0,1,.74,2l-2.09.16a2.1,2.1,0,0,0-1.86-2,2.32,2.32,0,0,0-1.94.51,4,4,0,0,0-1.11,2.49,4.3,4.3,0,0,0,.26,2.83,2.25,2.25,0,0,0,1.66,1.09,2.06,2.06,0,0,0,1.48-.29,3,3,0,0,0,1.09-1.49"/><path class="cls-2" d="M251.89,230.86a3.77,3.77,0,0,0,.67,2.66,2.74,2.74,0,0,0,4.05.23,4.87,4.87,0,0,0,.3-5.28,2.85,2.85,0,0,0-4.1-.2,3.84,3.84,0,0,0-.92,2.59m-2.12-.05a6.42,6.42,0,0,1,.6-2.59,5.11,5.11,0,0,1,1-1.35,4,4,0,0,1,1.37-.84,5.4,5.4,0,0,1,2.21-.29,4.81,4.81,0,0,1,3.54,1.59,5.41,5.41,0,0,1,1.15,4,5.32,5.32,0,0,1-1.55,3.79,4.7,4.7,0,0,1-3.65,1.21,4.83,4.83,0,0,1-3.55-1.58A5.33,5.33,0,0,1,249.77,230.81Z"/><polyline class="cls-3" points="265.79 232.26 265.72 230.31 267.67 230.25 267.74 232.2 265.79 232.26"/><path class="cls-3" d="M280.94,231l2.06.32a4.53,4.53,0,0,1-1.17,2.69,4.3,4.3,0,0,1-2.57,1.19,4.4,4.4,0,0,1-3.5-.91,5.32,5.32,0,0,1-1.82-3.58,5.55,5.55,0,0,1,.75-4.1,4.47,4.47,0,0,1,3.22-1.88,4.28,4.28,0,0,1,3.17.68,4,4,0,0,1,1.29,1.72l-1.94.76a2.19,2.19,0,0,0-.93-1.13,2.13,2.13,0,0,0-1.44-.26,2.28,2.28,0,0,0-1.71,1.06,4,4,0,0,0-.33,2.7,4.25,4.25,0,0,0,1.07,2.63,2.27,2.27,0,0,0,1.91.56,2,2,0,0,0,1.32-.71,3,3,0,0,0,.62-1.74"/><polyline class="cls-3" points="286.54 233.74 283.89 223.89 285.88 223.36 286.93 227.24 290.8 226.2 289.76 222.32 291.76 221.79 294.4 231.64 292.41 232.17 291.25 227.87 287.37 228.9 288.53 233.21 286.54 233.74"/><polyline class="cls-3" points="297.17 230.81 293.85 221.17 295.8 220.5 299.12 230.14 297.17 230.81"/><polyline class="cls-3" points="301.77 229.28 297.82 219.98 299.72 219.17 303 226.89 307.7 224.9 308.38 226.49 301.77 229.28"/><polyline class="cls-3" points="310.79 225.35 305.84 216.43 312.44 212.78 313.27 214.29 308.48 216.94 309.58 218.92 314.04 216.45 314.87 217.96 310.41 220.43 311.75 222.84 316.72 220.09 317.56 221.6 310.79 225.35"/><path class="cls-3" d="M141.89,231.26l-.16.11-2.31-3.18.15-.12.15.2a1,1,0,0,0,.41.36.43.43,0,0,0,.34,0,2.34,2.34,0,0,0,.61-.36l4-2.93a2.49,2.49,0,0,0,.55-.48.5.5,0,0,0,.06-.35,1,1,0,0,0-.2-.47l-.15-.2.16-.12,2.31,3.19-.16.11-.14-.2a1,1,0,0,0-.41-.36.58.58,0,0,0-.35,0,2.34,2.34,0,0,0-.61.36l-4,2.93a2.25,2.25,0,0,0-.55.48.5.5,0,0,0-.06.35.94.94,0,0,0,.2.47l.15.21"/><path class="cls-3" d="M153.7,234.15l-1.57,1.31-.12-.15a3.08,3.08,0,0,0,.52-1,1.55,1.55,0,0,0,0-.77,1.87,1.87,0,0,0-.4-.63l-.36-.44-4.48,3.76a3,3,0,0,0-.52.51.69.69,0,0,0,0,.36.91.91,0,0,0,.24.45l.16.19-.15.13-2.53-3,.15-.12.16.19a1.07,1.07,0,0,0,.42.32.55.55,0,0,0,.36,0,2.11,2.11,0,0,0,.58-.41l4.47-3.75-.35-.42a1.52,1.52,0,0,0-1-.63,2,2,0,0,0-1.37.36l-.14-.17,1.56-1.31,4.37,5.2"/><path class="cls-3" d="M152.75,243.91l-.14.14-2.73-2.83.14-.14.17.18a1,1,0,0,0,.45.3.44.44,0,0,0,.35,0,2.25,2.25,0,0,0,.55-.44l3.59-3.47a2.37,2.37,0,0,0,.48-.55.51.51,0,0,0,0-.35.92.92,0,0,0-.27-.44l-.17-.18.14-.13,2.73,2.83-.14.13-.17-.18a1,1,0,0,0-.45-.29.54.54,0,0,0-.35,0,2.41,2.41,0,0,0-.55.45l-3.59,3.46a2.6,2.6,0,0,0-.48.55.62.62,0,0,0,0,.36,1,1,0,0,0,.27.44l.17.17"/><path class="cls-3" d="M161.58,242.22l-.47,6,2.22-2.37a1.64,1.64,0,0,0,.49-.82,1.08,1.08,0,0,0-.45-.84l.14-.14,1.82,1.7-.13.14a1.82,1.82,0,0,0-.58-.32.62.62,0,0,0-.41.06,2.19,2.19,0,0,0-.58.5l-4.3,4.6-.14-.13.57-8.09L156.47,246a1.05,1.05,0,0,0-.38.85,1,1,0,0,0,.34.63l.13.13-.13.14-2-1.84.13-.14a1.24,1.24,0,0,0,.82.41,1.22,1.22,0,0,0,.76-.46l3.65-3.91,0-.26a1.43,1.43,0,0,0,0-.58,1.19,1.19,0,0,0-.31-.44l.13-.14,2,1.83"/><path class="cls-3" d="M169.14,249.39l-1.9,2.42.12.1a1.19,1.19,0,0,0,1.1.28,2.71,2.71,0,0,0,1.14-.79l.17.13-2.43,3.12-.17-.13a3,3,0,0,0,.43-1,1.25,1.25,0,0,0-.06-.74,1.82,1.82,0,0,0-.56-.62l-1.31,1.67a3.19,3.19,0,0,0-.43.63.48.48,0,0,0,0,.31.93.93,0,0,0,.31.35l.36.28a2.66,2.66,0,0,0,1.64.66,2.72,2.72,0,0,0,1.64-.61l.16.13-1.75,1.68-5.14-4,.12-.15.2.15a1,1,0,0,0,.49.24.57.57,0,0,0,.34-.08,2.3,2.3,0,0,0,.48-.52l3.07-3.93a5.93,5.93,0,0,0,.37-.51.53.53,0,0,0,0-.37.88.88,0,0,0-.36-.48l-.19-.15.12-.16,5,3.89-1.38,1.77-.17-.14a2.8,2.8,0,0,0,.37-1.2,1.69,1.69,0,0,0-.33-.92,4.53,4.53,0,0,0-.85-.8l-.62-.48"/><path class="cls-2" d="M176.69,254.93l-1.85,2.73.27.18a3.27,3.27,0,0,0,1,.53,1.12,1.12,0,0,0,.78-.08,2,2,0,0,0,.73-.68,1.74,1.74,0,0,0,.37-1.28,1.76,1.76,0,0,0-.85-1.07l-.49-.33M174.62,258l-1.19,1.77a2.2,2.2,0,0,0-.37.68.53.53,0,0,0,.08.36,1.72,1.72,0,0,0,.53.47l-.11.17-3.2-2.17.1-.16a1.77,1.77,0,0,0,.65.32.53.53,0,0,0,.36-.06,2.41,2.41,0,0,0,.49-.6l2.76-4.09a2.47,2.47,0,0,0,.37-.68.53.53,0,0,0-.08-.36,2,2,0,0,0-.53-.48l.11-.16,2.91,2a7.93,7.93,0,0,1,1.56,1.28,2,2,0,0,1,.46,1.16,1.93,1.93,0,0,1-.33,1.22,1.83,1.83,0,0,1-1.28.81,2.61,2.61,0,0,1-1.18-.17l.07,3.13a3.5,3.5,0,0,0,.08.8.92.92,0,0,0,.33.45l-.11.17-2-1.33-.1-4.22Z"/><path class="cls-2" d="M184.24,265l.31-2.8-2.29,1.66,2,1.14m-.05.44-2.29-1.32-.66.48a1.66,1.66,0,0,0-.44.45.5.5,0,0,0,0,.54,2.07,2.07,0,0,0,.57.49l-.1.16L179.09,265l.09-.17a1.15,1.15,0,0,0,.75,0,4.41,4.41,0,0,0,1.14-.67l5.35-3.87.09.05-.74,6.73a3.76,3.76,0,0,0,0,1.29.86.86,0,0,0,.36.44l-.1.17-3.16-1.83.1-.17.13.08a1.1,1.1,0,0,0,.59.2.33.33,0,0,0,.24-.16,1.19,1.19,0,0,0,.08-.2s0-.19.06-.45Z"/><path class="cls-2" d="M194.1,265.11l-1.45,3,.29.14a3.57,3.57,0,0,0,1.1.39,1.18,1.18,0,0,0,.77-.2,1.83,1.83,0,0,0,.62-.77,1.77,1.77,0,0,0,.2-1.32,1.86,1.86,0,0,0-1-.94l-.54-.26m-1.62,3.32-.94,1.92a2.34,2.34,0,0,0-.27.72.54.54,0,0,0,.13.35,1.9,1.9,0,0,0,.6.39l-.09.18-3.47-1.7.08-.17a1.68,1.68,0,0,0,.68.22.56.56,0,0,0,.35-.11,2.11,2.11,0,0,0,.4-.66l2.17-4.43a2.28,2.28,0,0,0,.27-.73.52.52,0,0,0-.13-.34,1.57,1.57,0,0,0-.59-.4l.08-.17,3.16,1.54a7.75,7.75,0,0,1,1.72,1,2,2,0,0,1,.62,1.08,1.82,1.82,0,0,1-.16,1.25,1.78,1.78,0,0,1-1.15,1,2.42,2.42,0,0,1-1.2,0l.51,3.09a3.4,3.4,0,0,0,.19.78.91.91,0,0,0,.4.4l-.09.19-2.14-1.05-.69-4.16Z"/><path class="cls-3" d="M201.76,276.12l-.07.18L198,274.82l.07-.18.24.1a1,1,0,0,0,.53.08.49.49,0,0,0,.31-.16,2.67,2.67,0,0,0,.32-.64l1.86-4.62a2.43,2.43,0,0,0,.22-.7.56.56,0,0,0-.13-.33,1,1,0,0,0-.43-.29l-.23-.09.07-.18,3.65,1.48-.07.18-.23-.1a1.08,1.08,0,0,0-.53-.09.57.57,0,0,0-.31.17,2.37,2.37,0,0,0-.32.63l-1.87,4.62a2.52,2.52,0,0,0-.22.7.59.59,0,0,0,.14.33,1,1,0,0,0,.42.29l.23.1"/><path class="cls-3" d="M206.66,270.2l3.66,1.34-.06.18-.19-.07a1.39,1.39,0,0,0-.6-.12.58.58,0,0,0-.31.16,2.9,2.9,0,0,0-.34.74l-1.27,3.48a3.78,3.78,0,0,0-.31,1.31,1.29,1.29,0,0,0,.28.69,1.81,1.81,0,0,0,.76.51,1.85,1.85,0,0,0,1.08.09,1.66,1.66,0,0,0,.86-.49,4.41,4.41,0,0,0,.78-1.51l1.05-2.9a1.92,1.92,0,0,0,.16-.72.69.69,0,0,0-.15-.38,1.54,1.54,0,0,0-.63-.36l.07-.18,2.46.89-.07.18-.15-.05a1,1,0,0,0-.54-.06.73.73,0,0,0-.42.26,2.14,2.14,0,0,0-.29.58l-1,2.7a7.65,7.65,0,0,1-.82,1.75,2.1,2.1,0,0,1-1.17.72,3.13,3.13,0,0,1-1.92-.16,3.61,3.61,0,0,1-1.33-.77,2.23,2.23,0,0,1-.65-1.21,3.11,3.11,0,0,1,.23-1.51l1.26-3.48a2.56,2.56,0,0,0,.21-.79.49.49,0,0,0-.14-.33,1.61,1.61,0,0,0-.59-.31l.07-.18"/><path class="cls-3" d="M219.88,279.75l3.29-4.28,3,.79-.05.18-.24-.06a.92.92,0,0,0-.54,0,.53.53,0,0,0-.28.2,2.14,2.14,0,0,0-.25.67L223.47,282a2.78,2.78,0,0,0-.13.72.59.59,0,0,0,.18.31.87.87,0,0,0,.46.24l.23.06-.05.19-3.8-1,0-.18.24.06a1,1,0,0,0,.54,0,.55.55,0,0,0,.29-.2,2.57,2.57,0,0,0,.24-.67l1.45-5.4-4.59,5.89-.13,0-1.07-7.36L216,279.8a3.72,3.72,0,0,0-.15.68.8.8,0,0,0,.19.52,1.3,1.3,0,0,0,.69.37l0,.19-2.5-.67,0-.19.07,0a1.3,1.3,0,0,0,.48,0,.78.78,0,0,0,.37-.14,1,1,0,0,0,.28-.35s.07-.22.16-.55l1.23-4.62a2.09,2.09,0,0,0,.13-.72.54.54,0,0,0-.17-.31,1.05,1.05,0,0,0-.46-.24l-.24-.06,0-.19,3,.8.77,5.37"/><path class="cls-3" d="M237.18,283.54l2.82-4.6,3,.48,0,.19-.24,0a1.07,1.07,0,0,0-.55,0,.49.49,0,0,0-.26.22,2.32,2.32,0,0,0-.17.69l-.78,4.93a2.87,2.87,0,0,0-.06.73.61.61,0,0,0,.21.29,1.07,1.07,0,0,0,.48.19l.24,0,0,.2-3.88-.62,0-.19.24,0a1,1,0,0,0,.54,0,.53.53,0,0,0,.27-.23,2.47,2.47,0,0,0,.17-.69l.87-5.52L236.13,286l-.14,0-1.83-7.21-.84,5.25a5.33,5.33,0,0,0-.08.69.81.81,0,0,0,.24.5,1.34,1.34,0,0,0,.73.29l0,.19-2.56-.4,0-.19h.08a1.06,1.06,0,0,0,.47,0,.68.68,0,0,0,.37-.18,1,1,0,0,0,.23-.38,3.92,3.92,0,0,0,.1-.56l.75-4.72a2.33,2.33,0,0,0,0-.73.53.53,0,0,0-.2-.29A1,1,0,0,0,233,278l-.24,0,0-.19,3,.48,1.33,5.26"/><path class="cls-3" d="M248.09,280.33l-.27,3.07H248a1.17,1.17,0,0,0,1.08-.35,2.77,2.77,0,0,0,.53-1.29l.22,0-.35,3.94-.22,0a3,3,0,0,0-.18-1.08,1.32,1.32,0,0,0-.45-.6,1.89,1.89,0,0,0-.81-.21l-.19,2.12a2.65,2.65,0,0,0,0,.76.42.42,0,0,0,.17.25.94.94,0,0,0,.46.13l.45,0a2.8,2.8,0,0,0,1.74-.34,2.73,2.73,0,0,0,1-1.41l.21,0-.55,2.36-6.5-.57V287l.25,0a1,1,0,0,0,.54-.07.49.49,0,0,0,.24-.25,2.18,2.18,0,0,0,.12-.7l.44-5a4.51,4.51,0,0,0,0-.64.6.6,0,0,0-.18-.32,1,1,0,0,0-.56-.2l-.25,0v-.19l6.3.55-.19,2.23-.22,0a2.77,2.77,0,0,0-.35-1.21,1.63,1.63,0,0,0-.77-.6,4.75,4.75,0,0,0-1.16-.2l-.78-.07"/><path class="cls-3" d="M257.24,280.6l3.56,4.81.11-3.25a1.57,1.57,0,0,0-.16-.93,1.1,1.1,0,0,0-.89-.35v-.19l2.49.09V281a1.92,1.92,0,0,0-.65.14.64.64,0,0,0-.27.31,2.08,2.08,0,0,0-.12.76l-.22,6.29h-.19L256,282l-.17,4.81a1.11,1.11,0,0,0,.27.9,1.06,1.06,0,0,0,.68.25H257v.19l-2.69-.09v-.19a1.24,1.24,0,0,0,.88-.23,1.19,1.19,0,0,0,.27-.85l.19-5.35-.15-.2a1.48,1.48,0,0,0-.41-.42,1.34,1.34,0,0,0-.53-.12v-.2l2.68.1"/><path class="cls-3" d="M271.66,280.56l.07,2h-.19a3.1,3.1,0,0,0-.43-1,1.52,1.52,0,0,0-.61-.47,1.83,1.83,0,0,0-.75-.08l-.57,0,.21,5.84a2.69,2.69,0,0,0,.08.73.68.68,0,0,0,.26.24,1,1,0,0,0,.51.09h.24v.19l-3.93.14v-.2h.25a1,1,0,0,0,.52-.13.58.58,0,0,0,.22-.28,2.13,2.13,0,0,0,0-.71l-.2-5.83h-.55a1.61,1.61,0,0,0-1.09.36,2.14,2.14,0,0,0-.56,1.31H265l-.07-2,6.78-.24"/><path class="cls-3" d="M278.5,287.57v.19l-3.92.28,0-.2.25,0a1,1,0,0,0,.52-.15.5.5,0,0,0,.2-.28,2.28,2.28,0,0,0,0-.71l-.35-5a3,3,0,0,0-.11-.72.65.65,0,0,0-.27-.24,1,1,0,0,0-.51-.07l-.25,0v-.2l3.93-.27v.19l-.25,0a.91.91,0,0,0-.51.15.54.54,0,0,0-.21.29,2.39,2.39,0,0,0,0,.71l.35,5a2.16,2.16,0,0,0,.11.72.54.54,0,0,0,.27.24.93.93,0,0,0,.5.07h.25"/><path class="cls-3" d="M285.35,279.22l.36,2.49-.23,0a2.58,2.58,0,0,0-1-1.41,2,2,0,0,0-1.43-.41,1.35,1.35,0,0,0-.86.41.93.93,0,0,0-.24.74.82.82,0,0,0,.17.43,2,2,0,0,0,.57.45,13.79,13.79,0,0,0,1.29.5,5.2,5.2,0,0,1,1.92,1,2,2,0,0,1,.62,1.26,2.1,2.1,0,0,1-.54,1.7,2.6,2.6,0,0,1-1.78.91,3,3,0,0,1-.67,0,5.09,5.09,0,0,1-.83-.17,1,1,0,0,0-.45-.06.51.51,0,0,0-.29.15.8.8,0,0,0-.22.37l-.19,0-.35-2.84.19,0a3.25,3.25,0,0,0,1.16,1.7,2.22,2.22,0,0,0,1.58.45,1.46,1.46,0,0,0,.95-.46,1.1,1.1,0,0,0,.27-.83,1,1,0,0,0-.21-.5,1.68,1.68,0,0,0-.48-.42,7.34,7.34,0,0,0-1.09-.46,8.68,8.68,0,0,1-1.58-.67,2.56,2.56,0,0,1-.78-.71,1.89,1.89,0,0,1-.36-.93,2.05,2.05,0,0,1,.47-1.61,2.32,2.32,0,0,1,1.58-.83,2.89,2.89,0,0,1,.72,0,3.1,3.1,0,0,1,.66.16,1.62,1.62,0,0,0,.55.12.3.3,0,0,0,.21-.12,1,1,0,0,0,.11-.44l.17,0"/><path class="cls-2" d="M297.55,282.55l-1.6-2.32-.64,2.75,2.24-.43m.25.37-2.59.5-.19.79a1.75,1.75,0,0,0,0,.63.51.51,0,0,0,.34.42,2.28,2.28,0,0,0,.75,0l0,.19-2.47.48,0-.19a1.18,1.18,0,0,0,.59-.46,4.9,4.9,0,0,0,.41-1.26l1.5-6.43.1,0,3.86,5.56a4,4,0,0,0,.84,1,.93.93,0,0,0,.57.1l0,.19-3.59.69,0-.18.15,0a1.18,1.18,0,0,0,.58-.24.31.31,0,0,0,.07-.28.48.48,0,0,0-.07-.2,4.08,4.08,0,0,0-.24-.39Z"/><path class="cls-2" d="M305,276.15l1.52,5.7a1.83,1.83,0,0,0,.2.54.32.32,0,0,0,.18.12,1.07,1.07,0,0,0,.45,0,1.7,1.7,0,0,0,1.21-1,4.36,4.36,0,0,0,0-2.75,5.06,5.06,0,0,0-1.05-2.12,1.93,1.93,0,0,0-1.14-.66,3.57,3.57,0,0,0-1.33.19m-.93,7.64,0-.19.24-.06a1.16,1.16,0,0,0,.46-.23.65.65,0,0,0,.17-.34,2.34,2.34,0,0,0-.13-.7l-1.29-4.82a2.24,2.24,0,0,0-.25-.68.51.51,0,0,0-.3-.19,1,1,0,0,0-.52,0l-.24.06-.05-.19,3.27-.87a5.56,5.56,0,0,1,2.2-.21,3.34,3.34,0,0,1,1.83.92,4.46,4.46,0,0,1,1.17,3.35,3.53,3.53,0,0,1-.35,1.25,3.26,3.26,0,0,1-.73.92,5,5,0,0,1-1.15.73,5.62,5.62,0,0,1-1,.34Z"/><path class="cls-3" d="M323.55,269.73l.07.18a1.18,1.18,0,0,0-.54.67,6.69,6.69,0,0,0-.21,1.48l-.46,6.31-.17.07-4.48-4.78a7,7,0,0,0-1-1,.83.83,0,0,0-.64,0l-.07-.18,3.39-1.23.07.18-.12,0a1.17,1.17,0,0,0-.58.35.3.3,0,0,0,0,.28.86.86,0,0,0,.13.21c.06.07.23.27.54.59l2.79,3,.25-3.65c0-.45.05-.74,0-.89a1.08,1.08,0,0,0-.07-.35.52.52,0,0,0-.18-.25.64.64,0,0,0-.32-.1,1.91,1.91,0,0,0-.63.13l-.06-.18,2.32-.85"/><path class="cls-3" d="M328.36,268.14l1.26,2.81.13-.06a1.17,1.17,0,0,0,.77-.83,2.73,2.73,0,0,0-.16-1.38l.2-.09,1.61,3.61-.2.09a2.93,2.93,0,0,0-.69-.85,1.1,1.1,0,0,0-.68-.3,1.7,1.7,0,0,0-.81.2l.86,1.94a3.15,3.15,0,0,0,.36.68.42.42,0,0,0,.27.12.94.94,0,0,0,.47-.1l.41-.19a2.63,2.63,0,0,0,1.35-1.13,2.72,2.72,0,0,0,.24-1.74l.18-.08.67,2.33-6,2.65-.08-.17.23-.11a.92.92,0,0,0,.43-.32.45.45,0,0,0,.09-.33,2.2,2.2,0,0,0-.23-.68l-2-4.55a4.89,4.89,0,0,0-.28-.57.54.54,0,0,0-.31-.19.93.93,0,0,0-.59.09l-.23.1-.08-.18,5.77-2.56.91,2-.2.09a2.69,2.69,0,0,0-.89-.9,1.66,1.66,0,0,0-1-.14,4.31,4.31,0,0,0-1.11.38l-.72.32"/><path class="cls-2" d="M336.82,264.16l1.5,2.93.28-.14a3.81,3.81,0,0,0,1-.65,1.15,1.15,0,0,0,.31-.73,1.84,1.84,0,0,0-.24-1,1.77,1.77,0,0,0-.94-.95,1.75,1.75,0,0,0-1.35.23l-.53.27m1.68,3.29,1,1.9a2.32,2.32,0,0,0,.41.65.58.58,0,0,0,.35.11,1.72,1.72,0,0,0,.68-.24l.09.17-3.45,1.76-.09-.18a1.56,1.56,0,0,0,.59-.41.59.59,0,0,0,.12-.34,2.12,2.12,0,0,0-.28-.72l-2.24-4.4a2.51,2.51,0,0,0-.42-.65.56.56,0,0,0-.35-.11,1.87,1.87,0,0,0-.67.24l-.09-.17,3.13-1.59a7.56,7.56,0,0,1,1.87-.75,2,2,0,0,1,1.25.16,1.87,1.87,0,0,1,.9.88,1.82,1.82,0,0,1,.09,1.51,2.56,2.56,0,0,1-.73,1l2.78,1.46a4.81,4.81,0,0,0,.73.32,1,1,0,0,0,.57-.08l.09.19-2.12,1.08-3.74-2Z"/><path class="cls-3" d="M350.18,264.59l.1.17-3.37,2-.1-.16.21-.13a1,1,0,0,0,.39-.37.46.46,0,0,0,0-.35,2.18,2.18,0,0,0-.31-.64l-2.57-4.27a2.72,2.72,0,0,0-.42-.59.49.49,0,0,0-.35-.09.94.94,0,0,0-.48.16l-.22.13-.1-.17,3.37-2,.1.16-.21.13a1.16,1.16,0,0,0-.39.37.57.57,0,0,0-.05.35,2.18,2.18,0,0,0,.31.64l2.57,4.27a2.33,2.33,0,0,0,.43.59.51.51,0,0,0,.34.09.94.94,0,0,0,.49-.16l.21-.13"/><path class="cls-3" d="M354.1,253.16l1.14,1.7-.16.11a3.09,3.09,0,0,0-.9-.63,1.63,1.63,0,0,0-.77-.07,1.88,1.88,0,0,0-.67.33l-.47.32,3.27,4.84a2.37,2.37,0,0,0,.46.57.51.51,0,0,0,.34.07.87.87,0,0,0,.48-.19l.21-.13.11.16-3.27,2.2-.11-.16.21-.14a1,1,0,0,0,.37-.39.58.58,0,0,0,0-.35,2.33,2.33,0,0,0-.35-.63l-3.26-4.84-.46.31a1.57,1.57,0,0,0-.73.88,2.14,2.14,0,0,0,.21,1.41l-.18.12L348.47,257l5.63-3.8"/><path class="cls-2" d="M362,253.45l-2.47-1.33.68,2.74,1.79-1.41m.4.22-2.09,1.63.2.78a1.67,1.67,0,0,0,.25.58.54.54,0,0,0,.5.22,2.21,2.21,0,0,0,.66-.35l.12.15-2,1.55-.11-.16a1.12,1.12,0,0,0,.31-.68,4.15,4.15,0,0,0-.2-1.3l-1.58-6.41.08-.07,6,3.2a3.9,3.9,0,0,0,1.2.5,1,1,0,0,0,.55-.17l.11.15-2.87,2.25-.12-.15.11-.1a1,1,0,0,0,.41-.48.3.3,0,0,0-.06-.28.67.67,0,0,0-.15-.14l-.4-.23Z"/><path class="cls-3" d="M368,241.72l1.36,1.51-.14.13a3.35,3.35,0,0,0-1-.49,1.6,1.6,0,0,0-.78,0,1.73,1.73,0,0,0-.61.42l-.43.38,3.91,4.34a2.23,2.23,0,0,0,.54.5.57.57,0,0,0,.35,0,.93.93,0,0,0,.45-.25l.18-.17.13.15-2.92,2.63-.13-.14.18-.17a.94.94,0,0,0,.31-.44.53.53,0,0,0,0-.35,2.44,2.44,0,0,0-.43-.57l-3.91-4.34-.4.37a1.58,1.58,0,0,0-.61,1,2.19,2.19,0,0,0,.41,1.36l-.16.14-1.37-1.51,5.05-4.54"/><path class="cls-3" d="M372,238.26l2.21,2.13.11-.1a1.2,1.2,0,0,0,.4-1.07,2.83,2.83,0,0,0-.67-1.22l.15-.15,2.85,2.75-.15.15a2.91,2.91,0,0,0-1-.53,1.22,1.22,0,0,0-.75,0,1.89,1.89,0,0,0-.67.5l1.52,1.47a2.69,2.69,0,0,0,.59.49.44.44,0,0,0,.3,0,1,1,0,0,0,.39-.27l.31-.33a2.67,2.67,0,0,0,.83-1.56,2.71,2.71,0,0,0-.43-1.69l.14-.15,1.49,1.91-4.53,4.69-.14-.13.17-.18a1,1,0,0,0,.28-.46.49.49,0,0,0,0-.35,2.15,2.15,0,0,0-.46-.53l-3.59-3.47a4.08,4.08,0,0,0-.47-.42.58.58,0,0,0-.36-.06.93.93,0,0,0-.52.31l-.17.18-.14-.14,4.39-4.54,1.61,1.55-.15.16a2.75,2.75,0,0,0-1.17-.5,1.73,1.73,0,0,0-1,.23,4.56,4.56,0,0,0-.88.77l-.54.57"/><path class="cls-3" d="M383.43,232.12l-2.66-4.7,1.88-2.41.15.12-.15.19a1.11,1.11,0,0,0-.23.5.55.55,0,0,0,.07.34,2.57,2.57,0,0,0,.52.48l3.93,3.07a2.69,2.69,0,0,0,.61.4.52.52,0,0,0,.36,0,.92.92,0,0,0,.4-.33l.15-.19.15.12-2.42,3.1-.15-.12.15-.19a1.11,1.11,0,0,0,.23-.5.55.55,0,0,0-.07-.34,2.3,2.3,0,0,0-.52-.48l-4.42-3.45,3.64,6.53-.08.11-7.2-1.89,4.19,3.27a4.07,4.07,0,0,0,.56.4.83.83,0,0,0,.56,0,1.37,1.37,0,0,0,.61-.5l.15.12-1.59,2-.16-.12.05-.06a1.24,1.24,0,0,0,.23-.42.78.78,0,0,0,0-.4,1.08,1.08,0,0,0-.21-.39l-.45-.36L378,233.12a2.19,2.19,0,0,0-.61-.4.49.49,0,0,0-.35,0,.92.92,0,0,0-.4.33l-.15.19-.15-.12,1.89-2.43,5.25,1.39"/><path class="cls-3" d="M291.21,48.64c-8-2.26-11.92-3.17-18.56-3.51,0,6.49-.23,20.37.13,21.07,8.44-2,13.8-7.89,18.43-17.56"/><path class="cls-3" d="M240,48.89c8-2.26,11.92-3.17,18.56-3.51,0,6.49.23,20.37-.13,21.07-8.44-2-13.8-7.9-18.43-17.56"/><path class="cls-3" d="M188.39,92.24c7.53-16.27,20.17-28.9,37.41-38.13,5.1,12.87,16.56,25.22,33,27.51v23.94c-7.77,2.7-18,11.17-19.74,19H215.84c-2.74-15.5-15.54-28.9-27.45-32.3"/><path class="cls-3" d="M178.53,124.54A85.75,85.75,0,0,1,182.19,106c6.93,3,15.1,9.28,17.62,18.55H178.53"/><path class="cls-3" d="M342.89,92.24c-7.53-16.27-20.16-28.9-37.41-38.13-5.1,12.87-16.52,25.22-33,27.51v23.77c7.78,2.69,18,11.34,19.79,19.15h23.17c2.74-15.5,15.55-28.9,27.45-32.3"/><path class="cls-3" d="M352.76,124.54A86.36,86.36,0,0,0,349.09,106c-6.93,3-15.1,9.28-17.62,18.55h21.29"/><path class="cls-3" d="M240.44,215.5c8,2.27,11.92,3.18,18.56,3.52,0-6.49.23-20.37-.12-21.07-8.45,2-13.8,7.89-18.44,17.55"/><path class="cls-3" d="M291.64,215.25c-8,2.27-11.93,3.18-18.56,3.52,0-6.49-.24-20.37.12-21.07,8.44,2,13.8,7.89,18.44,17.55"/><path class="cls-3" d="M343.26,171.9c-7.53,16.28-20.16,28.91-37.41,38.14-5.1-12.88-16.56-25.22-33-27.51V158.59c7.78-2.7,18-11.17,19.74-19h23.26c2.74,15.51,15.55,28.9,27.45,32.3"/><path class="cls-3" d="M353.13,139.6a86.33,86.33,0,0,1-3.67,18.56c-6.93-3-15.1-9.29-17.62-18.56h21.29"/><path class="cls-3" d="M188.76,171.9c7.53,16.28,20.16,28.91,37.41,38.14,5.1-12.88,16.52-25.22,33-27.51V158.76c-7.77-2.69-18-11.34-19.79-19.16H216.21c-2.74,15.51-15.55,28.9-27.45,32.3"/><path class="cls-3" d="M178.9,139.6a85.72,85.72,0,0,0,3.66,18.56c6.93-3,15.1-9.29,17.62-18.56H178.9"/><path class="cls-3" d="M123.45,235.81a1,1,0,0,1-.73-.32,1,1,0,0,1,.06-1.39l26.11-23.94a1,1,0,1,1,1.33,1.45l-26.11,23.94A1,1,0,0,1,123.45,235.81Z"/><path class="cls-3" d="M405.51,236.53a1,1,0,0,1-.72-.31L381.33,211a1,1,0,1,1,1.44-1.33l23.46,25.23a1,1,0,0,1-.05,1.39A1,1,0,0,1,405.51,236.53Z"/><path class="cls-3" d="M427,218.61a1,1,0,0,1-.76-.36l-17.68-22a1,1,0,1,1,1.53-1.23L427.73,217a1,1,0,0,1-.15,1.39A1,1,0,0,1,427,218.61Z"/><path class="cls-3" d="M399,208.56c-3.76,0-6.69-1.24-8.25-3.51a6.24,6.24,0,0,1-.69-5.83l.36-1c1.06-2.89,2.19-5.81,3.16-7.07a1,1,0,0,1,1.55,1.2c-.88,1.13-2.18,4.65-2.88,6.54l-.36,1a4.3,4.3,0,0,0,.46,4c1.19,1.71,3.55,2.66,6.65,2.66,6.67,0,10.93-4.47,10.93-7.55a1,1,0,1,1,2,0C411.89,203.55,406.38,208.56,399,208.56Z"/><path class="cls-3" d="M117.17,227.84a1,1,0,0,1-.7-1.67l22-22.27a1,1,0,0,1,1.39,0,1,1,0,0,1,0,1.38l-22,22.27A1,1,0,0,1,117.17,227.84Z"/><path class="cls-3" d="M130.17,208a14.93,14.93,0,0,1-2.37-.19c-4.24-.68-7.25-2.91-8.24-6.11a8.26,8.26,0,0,1,2.55-8.48,1,1,0,1,1,1.35,1.41,6.38,6.38,0,0,0-2,6.49c.77,2.46,3.21,4.2,6.69,4.76,4.37.71,8.16-1,9.83-2.87a3.19,3.19,0,0,0,.95-2.83,39.27,39.27,0,0,0-3-7.31,1,1,0,0,1,1.65-1.06,41.61,41.61,0,0,1,3.21,7.84,4.94,4.94,0,0,1-1.37,4.66A12.6,12.6,0,0,1,130.17,208Z"/><path class="cls-3" d="M262.51,301.63a185.52,185.52,0,0,1-76.55-17c-26.59-12.08-49.06-29.55-63.27-49.18l-.52-.73,8.39-7.24a22.85,22.85,0,0,0-2.74-2.92l-3.56-3.25c-8.23,11.07-13.71,9.06-19.5,5.53-3.55-2.16-5.14-5.7-4.72-10.51l0-.32.21-.24c.64-.73,15.79-17.84,21.13-22.21l1.24,1.51c-4.89,4-18.78,19.6-20.69,21.75-.27,3.94.94,6.61,3.81,8.36,4.79,2.91,9.31,5.67,17.55-5.89l.64-.9.81.74,4.34,4a25.88,25.88,0,0,1,3.58,4l.51.72L124.8,235c26.24,35.62,85.89,69,150,64.21,47.64-3.52,85.94-15.39,129.68-63.58l1.45,1.31c-44.18,48.68-82.87,60.66-131,64.22Q268.74,301.63,262.51,301.63Z"/><path class="cls-3" d="M161.84,214.36a1,1,0,0,1-1-.81c-.6-3.63-4.91-8.79-8.91-13.35-4.9-5.59-9.89-7.86-15.68-7.14l-12,12.45a1,1,0,1,1-1.41-1.35l12.46-12.94.33-.05c6.54-.95,12.35,1.59,17.75,7.74,4.36,5,8.68,10.18,9.37,14.32a1,1,0,0,1-.81,1.12Z"/><path class="cls-3" d="M161.22,214.52l-.21,0L149.83,212a1,1,0,0,1-.74-1.17,1,1,0,0,1,1.17-.74l11.17,2.5a1,1,0,0,1-.21,1.93Z"/><path class="cls-3" d="M267.78,265.27c-.91,0-1.8,0-2.7,0-48.41-1.24-92.79-21.78-115.82-53.62a1,1,0,1,1,1.58-1.15c22.68,31.36,66.48,51.6,114.29,52.81,20.86.56,45-5.37,68.07-16.62,20.22-9.87,37.24-22.92,46.06-35.25L366,213.19l.8-1.64c3.13-6.39,6.82-11.14,11-14.14.62-.45,1.22-.91,1.82-1.36,4.1-3.1,8.35-6.31,16-5l.38.07.23.31c1.79,2.38,8.73,11.18,9.81,12.13a1,1,0,0,1-.44,1.85c-.59,0-.79,0-5.47-5.85-2.06-2.57-4.27-5.4-5.22-6.65-6.55-1-10,1.62-14.08,4.67-.61.46-1.23.93-1.86,1.38-3.53,2.55-6.73,6.51-9.51,11.77l13.92-1.87-1.17,1.79C365,236.87,313,265.27,267.78,265.27Zm137.73-61.79Z"/><path class="cls-3" d="M414.41,228.51a7.91,7.91,0,0,1-5.33-1.79l-.15-.14c-3.61-3.9-8.12-9.29-11.75-13.62-2.83-3.37-5.76-6.86-6.39-7.37a1,1,0,0,1,.67-1.83c.61.16,1.15.71,7.21,8,3.6,4.28,8.06,9.61,11.63,13.47a6.43,6.43,0,0,0,4.93,1.37c8.12-.2,11-4.55,11-8.56a1,1,0,1,1,1.95,0c0,7.53-7,10.37-12.91,10.51Z"/></g></g></svg>