<svg xmlns="http://www.w3.org/2000/svg" viewBox="0 0 355.02 194.16"><defs><style>.cls-1{fill:#fff;}.cls-2{fill:#211915;}.cls-3{fill:#7a7a7e;}.cls-4{fill:#cfd0d5;}.cls-5{fill:#91bbab;}.cls-6{fill:#cc695b;}</style></defs><title>Recurso 12_20190726</title><g id="Capa_2" data-name="Capa 2"><g id="Capa_1-2" data-name="Capa 1"><path class="cls-1" d="M8.91,0S0,0,0,8.91V185.25s0,8.91,8.91,8.91h337.2s8.91,0,8.91-8.91V8.91S355,0,346.11,0Z"/><path class="cls-2" d="M186.34,41.43a3,3,0,1,1,2.94-3,2.91,2.91,0,0,1-2.94,3m0,1.15a4.18,4.18,0,1,0-4.2-4.19,4.1,4.1,0,0,0,4.2,4.19m-8.23,0c1.89,0,3.16-1.09,3.16-2.44s-.86-1.76-2.11-2.16l-2-.63c-.73-.22-1-.5-1-1s.62-1.07,1.54-1.07a2.4,2.4,0,0,1,2.22,1.25l1.16-.35a3.52,3.52,0,0,0-3.38-2c-1.63,0-2.79,1-2.79,2.21,0,1,.73,1.63,1.81,2l2,.64c1,.3,1.28.65,1.28,1.18s-.71,1.26-1.83,1.26a2.59,2.59,0,0,1-2.51-1.69l-1.19.36a3.73,3.73,0,0,0,3.63,2.43m-6.19-.15h1.27V34.36h-1.27ZM169,34.36l-2.81,4.06-2.82-4.06h-1.2v8.07h1.25v-5.9l2.76,3.87,2.77-3.87v5.9h1.25V34.36Zm-12.4,7.07a3,3,0,1,1,2.94-3,2.91,2.91,0,0,1-2.94,3m0,1.15a4.18,4.18,0,1,0-4.21-4.19,4.1,4.1,0,0,0,4.21,4.19m-10.51-7.1h2.56a1.43,1.43,0,1,1,0,2.85h-2.52Zm4,7h1.44l-2.09-3.1a2.46,2.46,0,0,0,1.88-2.42,2.56,2.56,0,0,0-2.65-2.55h-3.84v8.07h1.25v-3h2Zm-9.28-3.79h-2.34V35.49h2.4a1.58,1.58,0,0,1-.06,3.15m.08-4.28h-3.66v8.07h1.24V39.77h2.36a2.71,2.71,0,1,0,.06-5.41m-6.59,0-2.81,4.06-2.83-4.06h-1.2v8.07h1.26v-5.9l2.75,3.87,2.77-3.87v5.9h1.26V34.36Zm-12.4,7.07a3,3,0,1,1,2.94-3,2.91,2.91,0,0,1-2.94,3m0,1.15a4.18,4.18,0,1,0-4.21-4.19,4.1,4.1,0,0,0,4.21,4.19m-9,0a3.84,3.84,0,0,0,3.81-2.5l-1.21-.31a2.66,2.66,0,0,1-2.61,1.64,3,3,0,0,1,0-6A2.73,2.73,0,0,1,115.49,37l1.21-.3a3.87,3.87,0,0,0-3.84-2.52,4.18,4.18,0,1,0,0,8.36m-12.33-1.3V34.36H99.28v8.07h5.5V41.28Zm-7.76-1.91,1.5-3.82,1.48,3.82ZM97,42.43h1.3l-3.19-8.07h-1.6l-3.19,8.07h1.3l.77-2h3.84Zm-16.62.15c1.89,0,3.16-1.09,3.16-2.44s-.87-1.76-2.11-2.16l-2-.63c-.73-.22-1-.5-1-1s.62-1.07,1.53-1.07a2.4,2.4,0,0,1,2.23,1.25l1.16-.35a3.52,3.52,0,0,0-3.39-2c-1.62,0-2.78,1-2.78,2.21,0,1,.73,1.63,1.8,2L81,39c1,.3,1.28.65,1.28,1.18s-.71,1.26-1.83,1.26a2.59,2.59,0,0,1-2.51-1.69l-1.19.36a3.73,3.73,0,0,0,3.63,2.43m-9.43-3.21,1.5-3.82,1.49,3.82Zm4.19,3.06h1.3l-3.19-8.07H71.6l-3.19,8.07h1.3l.78-2h3.83Zm-6.21-8.07H62v1.13H64.8v6.94h1.26V35.49h2.83Zm-9.3,8.07h1.27V34.36H59.59Zm-6.78-7h2.56a1.43,1.43,0,1,1,0,2.85H52.81Zm4,7h1.44l-2.09-3.1a2.47,2.47,0,0,0,1.88-2.42,2.56,2.56,0,0,0-2.65-2.55H51.57v8.07h1.24v-3h2Zm-10.44.15a3.86,3.86,0,0,0,3.82-2.5L49,39.77a2.66,2.66,0,0,1-2.62,1.64,3,3,0,0,1,0-6A2.71,2.71,0,0,1,49,37l1.21-.3a3.87,3.87,0,0,0-3.84-2.52,4.18,4.18,0,1,0,0,8.36m-8.23,0c1.89,0,3.16-1.09,3.16-2.44s-.86-1.76-2.11-2.16l-2-.63c-.73-.22-1-.5-1-1s.63-1.07,1.54-1.07A2.39,2.39,0,0,1,40,36.57l1.17-.35a3.54,3.54,0,0,0-3.39-2c-1.63,0-2.79,1-2.79,2.21,0,1,.74,1.63,1.81,2l2,.64c.94.3,1.28.65,1.28,1.18s-.72,1.26-1.84,1.26a2.6,2.6,0,0,1-2.51-1.69l-1.19.36a3.73,3.73,0,0,0,3.63,2.43M29.89,41.3h-2V35.49h2a2.64,2.64,0,0,1,2.68,2.89,2.65,2.65,0,0,1-2.68,2.92m0-6.94H26.63v8.07h3.28a3.76,3.76,0,0,0,3.92-4,3.77,3.77,0,0,0-3.92-4m-9.79,5,1.5-3.82,1.49,3.82Zm4.19,3.06h1.3l-3.19-8.07h-1.6l-3.2,8.07h1.31l.77-2h3.84Z"/><path class="cls-2" d="M326.67,50.9h-5.9V41.2h-9.3v9.7h-12l15.46-30h-10L288.54,52.32v6.79h22.93v9.22h9.3V59.11h5.9Zm-62.35,9L275,50c5.43-5,8.69-9.23,8.69-15.2,0-9.56-7-14.92-16.9-14.92C257.4,19.9,251,26.55,250,33.67L258.35,36c1-4.68,4.28-7.8,8.69-7.8,4.68,0,7.46,2.72,7.46,7.06,0,3.39-2.31,6-5.83,9.22L250.15,62v6.37h34.32V59.92Z"/><path class="cls-2" d="M308.22,153.54c-5.3,0-8.75-3.66-8.75-8.48s3.45-8.41,8.75-8.41,8.81,3.73,8.81,8.41-3.46,8.48-8.81,8.48m1.35-25a9.65,9.65,0,0,0-1.42.07L318,113.45H307.47l-13.77,21.3c-2.44,3.93-3.46,7-3.46,10.31,0,9.56,7.6,16.82,18,16.82s18-7.32,18-16.82c0-9.16-6.85-15.94-16.69-16.49m-35.82,2.92,10.72-11.8v-6.24H251.84v8.34h20.42l-9.63,11.94,1.56,5.5a9.08,9.08,0,0,1,4.88-1.16c5.23,0,8.14,3.53,8.14,7.74s-3.12,7.93-8.68,7.93a10.14,10.14,0,0,1-9.84-8.61l-8.34,2.37c1.29,7.06,7,14.38,18.65,14.38,9.91,0,17.24-7.12,17.24-16.07,0-8-5.16-13.16-12.49-14.32"/><path class="cls-2" d="M232.17,133.21a3,3,0,1,1,2.94-3.05,2.91,2.91,0,0,1-2.94,3.05m0,1.15a4.18,4.18,0,1,0-4.2-4.19,4.1,4.1,0,0,0,4.2,4.19m-8.23,0c1.89,0,3.16-1.09,3.16-2.44s-.86-1.76-2.11-2.16l-2-.63c-.73-.22-1-.5-1-1s.63-1.07,1.54-1.07a2.39,2.39,0,0,1,2.22,1.25l1.16-.35a3.52,3.52,0,0,0-3.38-2c-1.63,0-2.79,1-2.79,2.21,0,1,.73,1.63,1.81,2l2,.64c.94.3,1.28.65,1.28,1.18s-.72,1.26-1.84,1.26a2.59,2.59,0,0,1-2.51-1.69l-1.19.36a3.73,3.73,0,0,0,3.63,2.43m-6.19-.15H219v-8.07h-1.27Zm-2.92-8.07L212,130.2l-2.82-4.06H208v8.07h1.26v-5.9l2.75,3.87,2.77-3.87v5.9H216v-8.07Zm-12.41,7.07a3,3,0,1,1,2.94-3.05,2.91,2.91,0,0,1-2.94,3.05m0,1.15a4.18,4.18,0,1,0-4.2-4.19,4.1,4.1,0,0,0,4.2,4.19m-10.51-7.1h2.56a1.43,1.43,0,1,1,0,2.85h-2.52Zm4,7h1.44l-2.08-3.1a2.46,2.46,0,0,0,1.87-2.42,2.56,2.56,0,0,0-2.65-2.55h-3.83v8.07h1.24v-3h2Zm-9.28-3.79H184.3v-3.15h2.4a1.58,1.58,0,0,1-.06,3.15m.08-4.28h-3.66v8.07h1.24v-2.66h2.36a2.71,2.71,0,1,0,.06-5.41m-6.59,0-2.81,4.06-2.83-4.06h-1.2v8.07h1.26v-5.9l2.75,3.87,2.77-3.87v5.9h1.26v-8.07Zm-12.4,7.07a3,3,0,1,1,2.94-3.05,2.91,2.91,0,0,1-2.94,3.05m0,1.15a4.18,4.18,0,1,0-4.21-4.19,4.1,4.1,0,0,0,4.21,4.19m-9,0a3.86,3.86,0,0,0,3.82-2.5l-1.22-.31a2.66,2.66,0,0,1-2.61,1.64,3,3,0,0,1,0-6,2.72,2.72,0,0,1,2.63,1.66l1.21-.3a3.87,3.87,0,0,0-3.84-2.52,4.18,4.18,0,1,0,0,8.36m-12.33-1.3v-6.92h-1.26v8.07h5.5v-1.15Zm-7.76-1.91,1.5-3.82,1.48,3.82Zm4.18,3.06h1.31l-3.2-8.07h-1.6l-3.19,8.07h1.3l.77-2H142Zm-13.59.15c1.89,0,3.16-1.09,3.16-2.44s-.86-1.76-2.11-2.16l-2-.63c-.73-.22-1-.5-1-1s.63-1.07,1.54-1.07a2.39,2.39,0,0,1,2.22,1.25l1.17-.35a3.54,3.54,0,0,0-3.39-2c-1.63,0-2.79,1-2.79,2.21,0,1,.73,1.63,1.81,2l2,.64c.94.3,1.28.65,1.28,1.18s-.72,1.26-1.84,1.26a2.59,2.59,0,0,1-2.51-1.69l-1.19.36a3.73,3.73,0,0,0,3.63,2.43m-9.43-3.21,1.5-3.82,1.49,3.82Zm4.19,3.06h1.3l-3.19-8.07h-1.6l-3.2,8.07h1.31l.77-2h3.84Zm-6.2-8.07h-6.94v1.13h2.85v6.94h1.25v-6.94h2.84Zm-9.3,8.07h1.26v-8.07h-1.26Zm-6.78-7h2.56a1.43,1.43,0,1,1,0,2.85h-2.52Zm4,7h1.44l-2.09-3.1a2.47,2.47,0,0,0,1.88-2.42,2.56,2.56,0,0,0-2.65-2.55h-3.84v8.07h1.25v-3h2Zm-10.43.15a3.86,3.86,0,0,0,3.81-2.5l-1.21-.31a2.66,2.66,0,0,1-2.62,1.64,3,3,0,0,1,0-6,2.71,2.71,0,0,1,2.63,1.66l1.21-.3A3.86,3.86,0,0,0,95.24,126a4.18,4.18,0,1,0,0,8.36m-8.23,0c1.89,0,3.15-1.09,3.15-2.44s-.86-1.76-2.1-2.16l-2-.63c-.72-.22-1-.5-1-1s.62-1.07,1.53-1.07a2.38,2.38,0,0,1,2.22,1.25L90,128a3.52,3.52,0,0,0-3.39-2c-1.63,0-2.79,1-2.79,2.21,0,1,.74,1.63,1.81,2l2,.64c.94.3,1.28.65,1.28,1.18s-.72,1.26-1.83,1.26a2.61,2.61,0,0,1-2.52-1.69l-1.18.36A3.71,3.71,0,0,0,87,134.36m-8.28-1.28h-2v-5.81h2a2.91,2.91,0,0,1,0,5.81m0-6.94H75.49v8.07h3.28a4,4,0,0,0,0-8.07m-9.78,5,1.49-3.82L72,131.15Zm4.18,3.06h1.3l-3.19-8.07h-1.6l-3.19,8.07h1.3l.77-2H72.4Zm-14.57-1a3,3,0,1,1,2.94-3.05,2.91,2.91,0,0,1-2.94,3.05m0,1.15a4.18,4.18,0,1,0-4.21-4.19,4.1,4.1,0,0,0,4.21,4.19m-6.83-8.22V132l-4.48-5.85h-1v8.07H47.5v-5.84L52,134.21H53v-8.07Zm-11.54,0V132l-4.48-5.85h-1v8.07H36v-5.84l4.47,5.84h1v-8.07Zm-8.43,0v4.79a2.15,2.15,0,1,1-4.29,0v-4.79H26.26V131a3.15,3.15,0,0,0,3.4,3.41A3.16,3.16,0,0,0,33.07,131v-4.81Zm-.54-2.51H29.91l-.9,1.59h1.07Zm-11.14,7.52,1.5-3.82,1.49,3.82Zm4.19,3.06h1.3l-3.19-8.07h-1.6l-3.2,8.07h1.31l.77-2h3.84Z"/><path class="cls-3" d="M57.64,159.88c-1.15,0-1.73-1-1.73-2.64s.58-2.64,1.73-2.64,1.72,1.05,1.72,2.64-.57,2.64-1.72,2.64m0,1c1.82,0,2.81-1.55,2.81-3.63s-1-3.63-2.81-3.63-2.82,1.54-2.82,3.63,1,3.63,2.82,3.63m-6.2-1a1.45,1.45,0,1,1,1.5-1.45,1.42,1.42,0,0,1-1.5,1.45m.13-3.84a2,2,0,0,0-.43,0l1.55-2.35H51.46l-2.06,3.14a2.79,2.79,0,0,0-.55,1.56,2.59,2.59,0,0,0,5.17,0,2.38,2.38,0,0,0-2.45-2.39m-10.25,1.8a1.52,1.52,0,0,1,1.56-1.37,1.43,1.43,0,0,1,1.53,1.36Zm1.65,3a2.56,2.56,0,0,0,2.41-1.43l-1-.28A1.49,1.49,0,0,1,43,160a1.51,1.51,0,0,1-1.67-1.42h4.09a3,3,0,0,0,0-.42,2.42,2.42,0,0,0-2.56-2.55,2.65,2.65,0,0,0,.09,5.29m-6.55-.94a1.71,1.71,0,0,1,0-3.41,1.71,1.71,0,0,1,0,3.41m1.64-6.49v3a2.13,2.13,0,0,0-1.81-.89,2.65,2.65,0,0,0,0,5.29,2.13,2.13,0,0,0,1.81-.89v.76h1v-7.3Zm-10.31,6.45a1.45,1.45,0,1,1,1.5-1.45,1.42,1.42,0,0,1-1.5,1.45m.13-3.84a2,2,0,0,0-.43,0L29,153.74H27.77l-2.06,3.14a2.79,2.79,0,0,0-.55,1.56,2.44,2.44,0,0,0,2.59,2.43,2.45,2.45,0,0,0,2.58-2.43,2.38,2.38,0,0,0-2.45-2.39m-5.54.39,1.73-1.94v-.76h-4.7v1h3.28l-1.72,2.08.19.68a1.36,1.36,0,0,1,.81-.23,1.27,1.27,0,0,1,1.35,1.32,1.37,1.37,0,0,1-1.49,1.37,1.68,1.68,0,0,1-1.66-1.37l-1,.27a2.55,2.55,0,0,0,2.68,2.06,2.37,2.37,0,0,0,2.49-2.33,2,2,0,0,0-2-2.12"/><path class="cls-4" d="M20,74.4s-4,0-4,4v2.49s0,4,4,4H327.78s4,0,4-4V78.4s0-4-4-4Z"/><path class="cls-4" d="M20,166.87s-4,0-4,4v2.49s0,4,4,4H327.78s4,0,4-4v-2.49s0-4-4-4Z"/><path class="cls-5" d="M20,74.4s-4,0-4,4v2.49s0,4,4,4H138.17s4,0,4-4V78.4s0-4-4-4Z"/><path class="cls-6" d="M20,166.87s-4,0-4,4v2.49s0,4,4,4H201.27s4,0,4-4v-2.49s0-4-4-4Z"/><path class="cls-3" d="M57.52,65.71c-1.15,0-1.73-1-1.73-2.64s.58-2.64,1.73-2.64,1.72,1,1.72,2.64-.57,2.64-1.72,2.64m0,1c1.82,0,2.81-1.55,2.81-3.63s-1-3.63-2.81-3.63S54.7,61,54.7,63.07s1,3.63,2.82,3.63m-6.2-1a1.45,1.45,0,1,1,1.5-1.45,1.42,1.42,0,0,1-1.5,1.45m.13-3.84a2,2,0,0,0-.43,0l1.55-2.35H51.34l-2.06,3.14a2.79,2.79,0,0,0-.55,1.56,2.59,2.59,0,0,0,5.17,0,2.38,2.38,0,0,0-2.45-2.39M41.2,63.68a1.52,1.52,0,0,1,1.56-1.37,1.43,1.43,0,0,1,1.53,1.36Zm1.65,3a2.56,2.56,0,0,0,2.41-1.43l-1-.28a1.49,1.49,0,0,1-1.43.81,1.51,1.51,0,0,1-1.67-1.42h4.09a3,3,0,0,0,0-.42,2.42,2.42,0,0,0-2.56-2.55,2.65,2.65,0,0,0,.09,5.29m-6.55-.94a1.71,1.71,0,0,1,0-3.41,1.71,1.71,0,0,1,0,3.41m1.64-6.49v3a2.13,2.13,0,0,0-1.81-.89,2.65,2.65,0,0,0,0,5.29,2.13,2.13,0,0,0,1.81-.89v.76h1v-7.3Zm-7.66,4.88h-.91v-1.6H28.28v1.6H26.05l2.41-4.58H27.29l-2.51,4.74v.8h3.5v1.46h1.09V65.11h.91Zm-9.42,1.43,1.87-1.76A3.07,3.07,0,0,0,24,61.59a2.14,2.14,0,0,0-2.41-2.15,2.35,2.35,0,0,0-2.4,2l1,.28a1.48,1.48,0,0,1,1.45-1.27A1.18,1.18,0,0,1,23,61.64c0,.56-.4,1-1,1.53L19.23,65.8v.77h4.92v-1Z"/></g></g></svg>