<?xml version="1.0" encoding="utf-8"?>
<!-- Generator: Adobe Illustrator 23.0.1, SVG Export Plug-In . SVG Version: 6.00 Build 0)  -->
<svg version="1.1" id="Capa_1" xmlns="http://www.w3.org/2000/svg" xmlns:xlink="http://www.w3.org/1999/xlink" x="0px" y="0px"
	 viewBox="0 0 306.3 77.7" style="enable-background:new 0 0 306.3 77.7;" xml:space="preserve">
<style type="text/css">
	.st0{fill:#ED733B;}
	.st1{fill:#62B778;}
	.st2{enable-background:new    ;}
	.st3{fill:#FFFFFF;}
	.st4{fill:#F1BF38;}
	.st5{fill:#EB6466;}
</style>
<title>Recurso 9</title>
<g>
	<polygon class="st0" points="34.8,0.8 0,26.2 13.2,67.2 56.5,67.2 69.8,26.2 	"/>
	<polygon class="st1" points="306.3,68.3 245,68.3 245,1.2 306.3,0.2 	"/>
	<g class="st2">
		<path class="st3" d="M260.1,24.8l31,0l0,7.4l-31,0L260.1,24.8z M260.2,38.7l30.9,0l0,7.4l-30.9,0L260.2,38.7z"/>
	</g>
	<circle class="st4" cx="111" cy="34.8" r="32.5"/>
	<polygon class="st5" points="211.2,0.8 173,0.8 153.9,34.1 173,67.2 211.2,67.2 230.5,34.1 	"/>
	<g class="st2">
		<path class="st3" d="M19,24.6l31,0l0,7.4l-31,0L19,24.6z M19,38.5l30.9,0l0,7.4l-30.9,0L19,38.5z"/>
	</g>
	<g>
		<g class="st2">
			<path class="st3" d="M94.9,24.6l31,0l0,7.4l-31,0L94.9,24.6z M94.9,38.5l30.9,0l0,7.4l-30.9,0L94.9,38.5z"/>
		</g>
	</g>
	<g class="st2">
		<path class="st3" d="M176,24.6l31,0l0,7.4l-31,0L176,24.6z M176.1,38.5l30.9,0l0,7.4l-30.9,0L176.1,38.5z"/>
	</g>
</g>
</svg>
