<?xml version="1.0" encoding="utf-8"?>
<!-- Generator: Adobe Illustrator 20.1.0, SVG Export Plug-In . SVG Version: 6.00 Build 0)  -->
<svg version="1.1" id="Capa_1" xmlns="http://www.w3.org/2000/svg" xmlns:xlink="http://www.w3.org/1999/xlink" x="0px" y="0px"
	 viewBox="0 0 48.4 50.1" style="enable-background:new 0 0 48.4 50.1;" xml:space="preserve">
<style type="text/css">
	.st0{fill:#2E448E;}
</style>
<title>Recurso2mdpi</title>
<g id="Capa_2">
	<g id="Capa_2-2">
		<path class="st0" d="M46.8,2.4c-0.9-0.6-2-0.8-3-0.4c-18,6.5-34.4,2.1-39,0.5C4.7,2.5,4.5,2.5,4.3,2.4c-1-0.3-2.2-0.2-3.1,0.4
			c-1,0.8-1.1,2-1.1,3.4v0.2c-0.1,2.1,0,36,0,38.8c-0.2,1-0.2,2.6,1.1,3.4C1.5,48.9,1.9,49,2.3,49c0.6,0,1.2-0.3,1.7-0.7
			c2.7-1.9,5.8-3.5,8.9-4.5l1.6-0.6c0.9-0.3,1.3-1.3,1-2.2s-1.3-1.3-2.2-1l0,0l-1.5,0.6c-2.8,1-5.6,2.3-8.1,3.8
			c0-12.9,0-36.1,0-37.7V6.4c0-0.2,0-0.4,0-0.6h0h0.1C10.2,7.8,17,8.9,23.8,8.9c7.2,0,14.3-1.2,21-3.6c0.1,0.3,0.1,0.7,0.1,1
			L45,43.5c-2.8-1.6-6.7-2.8-9.8-3.6c-0.9-0.2-1.8,0.3-2.1,1.3c-0.2,0.9,0.3,1.8,1.3,2.1c3.7,1,8.1,2.6,11.3,4.7
			c0.8,0.6,1.8,0.4,2.4-0.4c0.2-0.3,0.3-0.6,0.3-1V6.4C48.4,4.1,47.6,3,46.8,2.4z"/>
		<path class="st0" d="M24.7,32.7c-2.4-0.2-4.8-0.8-7-2l-1.3,17.8c2.4,1.1,5.1,1.7,7.8,1.6c2.8-0.1,5.5-0.6,8.1-1.6L31,30.7
			C29.2,32.1,27,32.8,24.7,32.7z"/>
		<path class="st0" d="M24.6,30.7c3.9-0.1,7.4-2.5,8.8-6.1c0,0-2.6-5.9-8.8-5.9S15,24.6,15,24.6S17.7,31,24.6,30.7z M20.2,24.8
			c0-2.3,1.8-4.1,4.1-4.1s4.1,1.8,4.1,4.1s-1.8,4.1-4.1,4.1l0,0C22,28.9,20.2,27.1,20.2,24.8z"/>
		<circle class="st0" cx="24.3" cy="24.8" r="2.2"/>
	</g>
</g>
</svg>
