<?xml version="1.0" encoding="utf-8"?>
<!-- Generator: Adobe Illustrator 20.1.0, SVG Export Plug-In . SVG Version: 6.00 Build 0)  -->
<svg version="1.1" id="Capa_1" xmlns="http://www.w3.org/2000/svg" xmlns:xlink="http://www.w3.org/1999/xlink" x="0px" y="0px"
	 viewBox="0 0 51.8 50.6" style="enable-background:new 0 0 51.8 50.6;" xml:space="preserve">
<style type="text/css">
	.st0{fill:#2E448E;}
</style>
<title>Recurso1mdpi</title>
<path class="st0" d="M50.6,17.4c-1.1-0.8-2.6-0.7-3.5,0.3c-1.5,2.7-3.5,5.1-5.8,7.1c-2.2,1.7-6.7,2.1-7.1,2.1h-6.7
	c-0.3,0-4.9-0.5-7.1-2.1c-2.3-2-4.3-4.4-5.8-7.1c-0.9-1-2.5-1.1-3.5-0.3c-2,1.4,0.4,4.6,0.4,4.6s4.8,7.2,10,8.7c0.9,0.2,2.5,0.9,3,1
	v9.8c0,1.7,1.4,3.1,3.1,3.1h6.7c1.7,0,3.1-1.4,3.1-3.1l0,0v-9.9c0.4-0.1,2.1-0.7,3-1c5.2-1.4,10-8.7,10-8.7S52.6,18.8,50.6,17.4z"/>
<path class="st0" d="M6,36.9c0.4,0,0.7-0.2,1-0.5l5-5.1c0,0,0.4-1.1-0.4-1.7c-0.5-0.6-1.3-0.7-1.9-0.3l-2.2,2.3V4.9
	c0,0-0.2-1.4,2.2-1.4h9.5c0,0,1.3-0.4,1.3-1.5s-0.7-1.7-2-1.7H9.7c0,0-5,0-5,4.3v27l-2.2-2.1c0,0-1.4-0.9-2,0s-0.6,1.4-0.3,1.9
	s4.8,5,4.8,5C5.2,36.7,5.6,36.8,6,36.9z"/>
<path class="st0" d="M46.8,36.2V46c0,0,0.2,1.4-2.2,1.4H6H5.9c-0.7,0.2-1.1,0.8-1.2,1.4c0,1.1,0.7,1.7,2.1,1.7h37.9c0,0,5,0,5-4.3
	c0-3.5,0-9.2,0-9.8C49.6,34.6,46.7,34.9,46.8,36.2z"/>
<path class="st0" d="M30.7,11.4c-4,0-7.2,3.2-7.2,7.2s3.2,7.2,7.2,7.2s7.2-3.2,7.2-7.2c0,0,0,0,0,0C37.9,14.6,34.7,11.4,30.7,11.4z
	 M30.7,23.1c-2.5,0-4.5-2-4.5-4.5c0-2.5,2-4.5,4.5-4.5c2.5,0,4.5,2,4.5,4.5c0,0,0,0,0,0C35.2,21.1,33.2,23.1,30.7,23.1z"/>
</svg>
