<svg xmlns="http://www.w3.org/2000/svg" viewBox="0 0 355.02 194.16"><defs><style>.cls-1{fill:#fff;}.cls-16,.cls-2{font-size:11.53px;}.cls-13,.cls-16,.cls-2{fill:#211915;}.cls-16,.cls-2,.cls-23,.cls-30{font-family:Gilmer-Medium, Gilmer;font-weight:500;}.cls-3{letter-spacing:0.01em;}.cls-4{letter-spacing:-0.01em;}.cls-5{letter-spacing:-0.01em;}.cls-6{letter-spacing:0em;}.cls-7{letter-spacing:0.01em;}.cls-8{letter-spacing:-0.06em;}.cls-9{letter-spacing:-0.01em;}.cls-10{letter-spacing:0.01em;}.cls-11{letter-spacing:0em;}.cls-12{letter-spacing:-0.01em;}.cls-13{font-size:67.84px;font-family:Gilmer-Bold, Gilmer;font-weight:700;}.cls-14{letter-spacing:0.01em;}.cls-15{letter-spacing:-0.01em;}.cls-16{letter-spacing:-0.02em;}.cls-17{letter-spacing:0.01em;}.cls-18{letter-spacing:-0.01em;}.cls-19{letter-spacing:-0.01em;}.cls-20{letter-spacing:0em;}.cls-21{letter-spacing:0.01em;}.cls-22{letter-spacing:0em;}.cls-23,.cls-30{font-size:9.43px;fill:#7a7a7e;}.cls-23{letter-spacing:0.01em;}.cls-24{letter-spacing:0.01em;}.cls-25{letter-spacing:0.01em;}.cls-26{letter-spacing:0em;}.cls-27{fill:#cfd0d5;}.cls-28{fill:#91bbab;}.cls-29{fill:#cc695b;}.cls-31{letter-spacing:0.01em;}.cls-32{letter-spacing:0.01em;}</style></defs><title>Recurso 12</title><g id="Capa_2" data-name="Capa 2"><g id="Capa_1-2" data-name="Capa 1"><path class="cls-1" d="M8.91,0S0,0,0,8.91V185.25s0,8.91,8.91,8.91h337.2s8.91,0,8.91-8.91V8.91S355,0,346.11,0Z"/><text class="cls-2" transform="translate(21.16 40.24)"><tspan class="cls-3">A</tspan><tspan class="cls-4" x="8.29" y="0">D</tspan><tspan class="cls-5" x="16.65" y="0">S</tspan><tspan class="cls-6" x="24.23" y="0">C</tspan><tspan class="cls-7" x="33.24" y="0">RI</tspan><tspan class="cls-8" x="44.26" y="0">T</tspan><tspan class="cls-9" x="50.81" y="0">A</tspan><tspan class="cls-10" x="58.83" y="0" xml:space="preserve">S  AL </tspan><tspan class="cls-6" x="90.71" y="0">C</tspan><tspan class="cls-3" x="99.72" y="0">OMP</tspan><tspan class="cls-11" x="126.51" y="0">R</tspan><tspan class="cls-3" x="134.42" y="0">OMI</tspan><tspan class="cls-12" x="156.59" y="0">S</tspan><tspan x="164.17" y="0">O</tspan></text><text class="cls-13" transform="translate(262.39 66.15)"><tspan class="cls-14">1</tspan><tspan x="29.51" y="0">2</tspan></text><text class="cls-13" transform="translate(249.3 158.75)"><tspan class="cls-15">4</tspan><tspan x="40.97" y="0">8</tspan></text><text class="cls-16" transform="translate(21.16 132.02)">A<tspan class="cls-3" x="8" y="0">Ú</tspan><tspan class="cls-17" x="16.37" y="0">N</tspan><tspan class="cls-3" x="24.86" y="0"> </tspan><tspan class="cls-17" x="27.9" y="0">N</tspan><tspan class="cls-10" x="36.39" y="0">O A</tspan><tspan class="cls-18" x="57.13" y="0">D</tspan><tspan class="cls-19" x="65.47" y="0">S</tspan><tspan class="cls-20" x="73.06" y="0">C</tspan><tspan class="cls-3" x="82.08" y="0">RI</tspan><tspan class="cls-8" x="93.1" y="0">T</tspan><tspan class="cls-9" x="99.65" y="0">A</tspan><tspan class="cls-10" x="107.67" y="0">S </tspan><tspan class="cls-21" x="118.48" y="0">A</tspan><tspan class="cls-3" x="126.76" y="0">L </tspan><tspan class="cls-6" x="136.5" y="0">C</tspan><tspan class="cls-3" x="145.52" y="0">OMP</tspan><tspan class="cls-11" x="172.3" y="0">R</tspan><tspan class="cls-3" x="180.21" y="0">OM</tspan><tspan class="cls-21" x="199.39" y="0">I</tspan><tspan class="cls-19" x="202.38" y="0">S</tspan><tspan class="cls-22" x="209.96" y="0">O</tspan></text><text class="cls-23" transform="translate(22.45 160.12)">48 <tspan class="cls-24" x="14.08" y="0">de</tspan><tspan x="25.91" y="0"> </tspan><tspan class="cls-25" x="28.39" y="0">6</tspan><tspan class="cls-26" x="33.91" y="0">0</tspan></text><path class="cls-27" d="M23.62,72.21s-4,0-4,4V78.7s0,4,4,4H331.4s4,0,4-4V76.21s0-4-4-4Z"/><path class="cls-27" d="M23.62,164.68s-4,0-4,4v2.49s0,4,4,4H331.4s4,0,4-4v-2.49s0-4-4-4Z"/><path class="cls-28" d="M23.62,72.21s-4,0-4,4V78.7s0,4,4,4H78.81s4,0,4-4V76.21s0-4-4-4Z"/><path class="cls-29" d="M23.62,164.68s-4,0-4,4v2.49s0,4,4,4H268.25s4,0,4-4v-2.49s0-4-4-4Z"/><text class="cls-30" transform="translate(22.45 68.27)"><tspan class="cls-25">1</tspan><tspan class="cls-31" x="3.9" y="0">2 </tspan><tspan class="cls-25" x="11.95" y="0">de</tspan><tspan class="cls-32" x="23.78" y="0"> </tspan><tspan class="cls-24" x="26.26" y="0">6</tspan><tspan x="31.78" y="0">0</tspan></text></g></g></svg>