<svg xmlns="http://www.w3.org/2000/svg" viewBox="0 0 355.02 207.16"><defs><style>.cls-1{fill:#fff;}.cls-14,.cls-2{font-size:11.53px;}.cls-12,.cls-14,.cls-2{fill:#211915;}.cls-14,.cls-2,.cls-21,.cls-29{font-family:Gilmer-Medium, Gilmer;font-weight:500;}.cls-3{letter-spacing:0.01em;}.cls-4{letter-spacing:-0.01em;}.cls-5{letter-spacing:-0.01em;}.cls-6{letter-spacing:0em;}.cls-7{letter-spacing:0.01em;}.cls-8{letter-spacing:-0.06em;}.cls-9{letter-spacing:-0.01em;}.cls-10{letter-spacing:0em;}.cls-11{letter-spacing:0.01em;}.cls-12{font-size:67.84px;font-family:Gilmer-Bold, Gilmer;font-weight:700;}.cls-13{letter-spacing:0.01em;}.cls-14{letter-spacing:-0.02em;}.cls-15{letter-spacing:0.01em;}.cls-16{letter-spacing:0.01em;}.cls-17{letter-spacing:-0.01em;}.cls-18{letter-spacing:-0.01em;}.cls-19{letter-spacing:0em;}.cls-20{letter-spacing:0em;}.cls-21,.cls-29{font-size:9.43px;fill:#7a7a7e;}.cls-21{letter-spacing:0.02em;}.cls-22,.cls-29{letter-spacing:0.01em;}.cls-23{letter-spacing:0.01em;}.cls-24{letter-spacing:0.01em;}.cls-25{letter-spacing:0em;}.cls-26{fill:#cfd0d5;}.cls-27{fill:#91bbab;}.cls-28{fill:#cc695b;}</style></defs><title>Recurso 13</title><g id="Capa_2" data-name="Capa 2"><g id="Capa_1-2" data-name="Capa 1"><path class="cls-1" d="M8.91,0S0,0,0,8.91V198.25s0,8.91,8.91,8.91h337.2s8.91,0,8.91-8.91V8.91S355,0,346.11,0Z"/><text class="cls-2" transform="translate(21.87 41.64)"><tspan class="cls-3">A</tspan><tspan class="cls-4" x="8.29" y="0">D</tspan><tspan class="cls-5" x="16.65" y="0">S</tspan><tspan class="cls-6" x="24.23" y="0">C</tspan><tspan class="cls-7" x="33.24" y="0">RI</tspan><tspan class="cls-8" x="44.26" y="0">T</tspan><tspan class="cls-9" x="50.81" y="0">A</tspan><tspan class="cls-3" x="58.83" y="0" xml:space="preserve">S  AL </tspan><tspan class="cls-10" x="90.71" y="0">C</tspan><tspan class="cls-3" x="99.73" y="0">OMP</tspan><tspan x="126.52" y="0">R</tspan><tspan class="cls-3" x="134.43" y="0">OM</tspan><tspan class="cls-11" x="153.61" y="0">I</tspan><tspan class="cls-5" x="156.59" y="0">S</tspan><tspan x="164.18" y="0">O</tspan></text><text class="cls-12" transform="translate(262.39 67.54)"><tspan class="cls-13">1</tspan><tspan x="29.51" y="0">9</tspan></text><text class="cls-12" transform="translate(266.12 160.14)">71</text><text class="cls-14" transform="translate(21.16 133.42)">A<tspan class="cls-3" x="8" y="0">Ú</tspan><tspan class="cls-15" x="16.37" y="0">N</tspan><tspan class="cls-3" x="24.86" y="0"> </tspan><tspan class="cls-15" x="27.9" y="0">N</tspan><tspan class="cls-16" x="36.39" y="0">O A</tspan><tspan class="cls-17" x="57.13" y="0">D</tspan><tspan class="cls-18" x="65.47" y="0">S</tspan><tspan class="cls-10" x="73.06" y="0">C</tspan><tspan class="cls-3" x="82.08" y="0">RI</tspan><tspan class="cls-8" x="93.1" y="0">T</tspan><tspan class="cls-9" x="99.65" y="0">A</tspan><tspan class="cls-16" x="107.67" y="0">S </tspan><tspan class="cls-11" x="118.48" y="0">A</tspan><tspan class="cls-3" x="126.76" y="0">L </tspan><tspan class="cls-6" x="136.5" y="0">C</tspan><tspan class="cls-3" x="145.52" y="0">OMP</tspan><tspan class="cls-19" x="172.3" y="0">R</tspan><tspan class="cls-3" x="180.21" y="0">OM</tspan><tspan class="cls-11" x="199.39" y="0">I</tspan><tspan class="cls-18" x="202.38" y="0">S</tspan><tspan class="cls-20" x="209.96" y="0">O</tspan></text><text class="cls-21" transform="translate(22.45 161.52)">7<tspan class="cls-22" x="5.21" y="0">1</tspan><tspan class="cls-23" x="9.11" y="0"> </tspan><tspan class="cls-24" x="11.59" y="0">d</tspan><tspan class="cls-23" x="17.75" y="0">e </tspan><tspan class="cls-22" x="25.91" y="0">9</tspan><tspan class="cls-25" x="31.43" y="0">0</tspan></text><path class="cls-26" d="M23.62,73.61s-4,0-4,4v2.48s0,4,4,4H331.4s4,0,4-4V77.61s0-4-4-4Z"/><path class="cls-26" d="M23.62,166.08s-4,0-4,4v2.49s0,4,4,4H331.4s4,0,4-4v-2.49s0-4-4-4Z"/><path class="cls-27" d="M23.62,73.61s-4,0-4,4v2.48s0,4,4,4H82.27s4,0,4-4V77.61s0-4-4-4Z"/><path class="cls-28" d="M23.62,166.08s-4,0-4,4v2.49s0,4,4,4H264.76s4,0,4-4v-2.49s0-4-4-4Z"/><text class="cls-29" transform="translate(22.45 69.67)">1<tspan class="cls-23" x="3.9" y="0">9 </tspan><tspan class="cls-24" x="11.92" y="0">de</tspan><tspan class="cls-23" x="23.75" y="0"> </tspan><tspan x="26.23" y="0">9</tspan><tspan class="cls-25" x="31.75" y="0">0</tspan></text></g></g></svg>