<svg xmlns="http://www.w3.org/2000/svg" viewBox="0 0 355.02 207.16"><defs><style>.cls-1{fill:#fff;}.cls-16,.cls-2{font-size:11.53px;}.cls-14,.cls-16,.cls-2{fill:#211915;}.cls-16,.cls-2,.cls-20{font-family:Gilmer-Medium, Gilmer;font-weight:500;}.cls-3{letter-spacing:0.01em;}.cls-4{letter-spacing:-0.01em;}.cls-5{letter-spacing:-0.01em;}.cls-6{letter-spacing:0em;}.cls-7{letter-spacing:0.01em;}.cls-8{letter-spacing:0.01em;}.cls-9{letter-spacing:-0.06em;}.cls-10{letter-spacing:-0.01em;}.cls-11{letter-spacing:0em;}.cls-12{letter-spacing:0em;}.cls-13{letter-spacing:-0.01em;}.cls-14{font-size:67.84px;font-family:Gilmer-Bold, Gilmer;font-weight:700;}.cls-15{letter-spacing:0.01em;}.cls-16{letter-spacing:-0.02em;}.cls-17{letter-spacing:0.01em;}.cls-18{letter-spacing:0em;}.cls-19{letter-spacing:0em;}.cls-20{font-size:9.43px;fill:#7a7a7e;letter-spacing:0.02em;}.cls-21{letter-spacing:0.01em;}.cls-22{letter-spacing:0.01em;}.cls-23{letter-spacing:0.01em;}.cls-24{letter-spacing:0em;}.cls-25{fill:#cfd0d5;}.cls-26{fill:#91bbab;}.cls-27{fill:#cc695b;}</style></defs><title>Recurso 1320190722</title><g id="Capa_2" data-name="Capa 2"><g id="Capa_1-2" data-name="Capa 1"><path class="cls-1" d="M8.91,0S0,0,0,8.91V198.25s0,8.91,8.91,8.91h337.2s8.91,0,8.91-8.91V8.91S355,0,346.11,0Z"/><text class="cls-2" transform="translate(18.23 42.44)"><tspan class="cls-3">A</tspan><tspan class="cls-4" x="8.29" y="0">D</tspan><tspan class="cls-5" x="16.65" y="0">S</tspan><tspan class="cls-6" x="24.22" y="0">C</tspan><tspan class="cls-7" x="33.23" y="0">R</tspan><tspan class="cls-8" x="41.25" y="0">I</tspan><tspan class="cls-9" x="44.24" y="0">T</tspan><tspan class="cls-10" x="50.79" y="0">A</tspan><tspan class="cls-8" x="58.82" y="0">S</tspan><tspan class="cls-7" x="66.59" y="0" xml:space="preserve">  </tspan><tspan class="cls-8" x="72.65" y="0">A</tspan><tspan class="cls-7" x="80.93" y="0">L </tspan><tspan class="cls-11" x="90.67" y="0">C</tspan><tspan class="cls-3" x="99.7" y="0">OMP</tspan><tspan class="cls-12" x="126.48" y="0">R</tspan><tspan class="cls-3" x="134.39" y="0">OMI</tspan><tspan class="cls-13" x="156.57" y="0">S</tspan><tspan x="164.14" y="0">O</tspan></text><text class="cls-14" transform="translate(258.76 68.31)"><tspan class="cls-15">1</tspan><tspan x="29.51" y="0">9</tspan></text><text class="cls-14" transform="translate(262.49 160.91)">71</text><text class="cls-16" transform="translate(17.55 134.22)">A<tspan class="cls-3" x="8" y="0">Ú</tspan><tspan class="cls-17" x="16.37" y="0">N</tspan><tspan class="cls-3" x="24.86" y="0" xml:space="preserve"> NO </tspan><tspan class="cls-8" x="48.85" y="0">A</tspan><tspan class="cls-4" x="57.13" y="0">D</tspan><tspan class="cls-5" x="65.48" y="0">S</tspan><tspan class="cls-6" x="73.06" y="0">C</tspan><tspan class="cls-7" x="82.07" y="0">R</tspan><tspan class="cls-8" x="90.09" y="0">I</tspan><tspan class="cls-9" x="93.08" y="0">T</tspan><tspan class="cls-10" x="99.63" y="0">A</tspan><tspan class="cls-3" x="107.66" y="0">S AL </tspan><tspan class="cls-18" x="136.5" y="0">C</tspan><tspan class="cls-3" x="145.52" y="0">OMP</tspan><tspan class="cls-12" x="172.3" y="0">R</tspan><tspan class="cls-3" x="180.21" y="0">OMI</tspan><tspan class="cls-5" x="202.39" y="0">S</tspan><tspan class="cls-19" x="209.96" y="0">O</tspan></text><text class="cls-20" transform="translate(18.83 162.3)">7<tspan class="cls-21" x="5.21" y="0">1</tspan><tspan class="cls-22" x="9.11" y="0"> </tspan><tspan class="cls-23" x="11.59" y="0">d</tspan><tspan class="cls-22" x="17.75" y="0">e </tspan><tspan class="cls-21" x="25.91" y="0">9</tspan><tspan class="cls-24" x="31.43" y="0">0</tspan></text><path class="cls-25" d="M20,74.4s-4,0-4,4v2.49s0,4,4,4H327.78s4,0,4-4V78.4s0-4-4-4Z"/><path class="cls-25" d="M20,166.87s-4,0-4,4v2.49s0,4,4,4H327.78s4,0,4-4v-2.49s0-4-4-4Z"/><path class="cls-26" d="M20,74.4s-4,0-4,4v2.49s0,4,4,4H78.64s4,0,4-4V78.4s0-4-4-4Z"/><path class="cls-27" d="M20,166.87s-4,0-4,4v2.49s0,4,4,4H261.13s4,0,4-4v-2.49s0-4-4-4Z"/></g></g></svg>